M48
;Layer_Color=9474304
;FILE_FORMAT=4:4
METRIC,LZ
;TYPE=PLATED
T1F00S00C0.3000
T2F00S00C0.7000
T3F00S00C1.0000
T4F00S00C1.1000
T5F00S00C3.1000
%
T01
X0013Y0008
X0016
X0019
X0022
X0025
X0028
X00295Y0011
X00265
X00235
X00205
X00175
X00145
X0016Y0014
X0019
X0022
X0025
X0028
X00295Y0017
X00265
X00235
X00205
X00175
X00145
X0016Y002
X0019
X0022
X0025
X0028
X00295Y0023
X00265
X00235
X00205
X00175
X00145
X0013Y002
Y0014
X0011825Y002665
X00136Y00279
X00157
X00175Y0029
X00162Y00305
X00151
X0014
Y00316
Y00327
X00151
X00162
Y00316
X00151
X00188
X0018675Y003495
X0017275Y0034875
X0019975Y003455
X001645Y0037775
X00155Y003785
X0014375Y0037825
X0014175Y0038875
X0013Y0038
X001Y0037
X0011Y0035725
X0011675Y0035025
X001255Y003405
X001095Y0029275
X001Y002815
X0018525Y0025675
X0019675Y0026675
X0022Y0026
X0025
X0028
Y0032
X0031
X00325Y0035
X00295
X00265
X0031Y0038
X0030925Y00388
X00325Y0029
X00235
X0007375Y00313
Y00324
X0007Y0038
X0007825Y0024325
X0006Y00228
X00042Y0024625
X00085Y0017
X0007Y0014
X00085Y0011
X0007Y0008
X001265Y0040575
X0014275Y0042675
X0029675Y0042
X003115Y0042425
X0032875Y004055
T02
X0020525Y0027875
Y0032875
X0031525Y0030375
T03
X00061Y00198
Y00336
Y00366
X00251Y00406
X00281
X00311
T04
X00061Y00246
Y002714
Y002968
X001429Y00406
X001683
X001937
X002191
T05
X0036Y0004
X0004
Y0042
X0036
M30
