M48
;Layer_Color=9474304
;FILE_FORMAT=4:4
METRIC,LZ
;TYPE=PLATED
T1F00S00C0.3000
T2F00S00C0.7000
T3F00S00C1.0000
T4F00S00C1.1000
T5F00S00C3.1000
%
T01
X001Y0002
X0013
X0016
X0019
X0022
X0025
X0028
X0031
X00295Y0005
X00265
X00235
X00205
X00175
X00145
X00115
X00102Y0005425
X0013Y0008
X0012175Y00099
X00145Y0011
X00175
X00205
X00235
X00265
X00295
X0028Y0008
X0025
X0022
X0019
X0016
Y0014
X0013
X00102Y0014275
X001195Y001885
X0013Y002
X0016
X0019
X0022
X0025
X0028
X00265Y0017
X00235
X00205
X00175
X00145
Y0023
X00175
X00205
X00235
X00265
X00295
X0028Y0026
X0025
X00235Y0029
X00175
X0015825Y0027875
X00136Y00279
X001205Y00267
X0011975Y0026025
X001085Y0027375
X001Y00282
X0014Y00305
Y00316
Y00327
X00151
X00162
Y00316
Y00305
X00151
Y00316
X00188
X0018675Y003495
X0017275Y0034875
X0019975Y003455
X00265Y0035
X00295
X00325
X0031Y0038
X0034
X0037
X00385Y0035
Y0029
X0037Y0026
X0034
X00325Y0029
X00355Y0023
X00385
X0037Y002
X0034
X00355Y0017
X00385
X0037Y0014
X0034
X00355Y0011
X00385
X0037Y0008
X0034
X00325Y0005
X0028Y0014
X0025
X0022
X0019
X00295Y0017
X0012575Y00341
X0011825Y003475
X00112Y0035425
X001Y0036975
X00099Y003775
X0013Y0038
X0014475Y003785
X0015425Y0037925
X0016275Y003795
X0007Y0038
X0004
X0001
X00025Y0035
X00055
X0004Y0032
X0001
X00025Y0029
X0001Y0026
X0004
X000435Y0025125
X0004325Y0024525
X000435Y00238
X000535Y0022925
X000615Y0022875
X0007725Y0024475
X00084Y001885
X00085Y0017
X00055
X00025
X0001Y0014
X0004
X0007
X00055Y0011
X00025
X0001Y0008
X0004
X0007
X00082Y000985
X00085Y0011
Y0005
X0007Y0002
X0001
Y002
X0004
X00025Y0023
X0001Y0044
X0007
X001
X0013
X0016
X0019
X0022
X0025
X0028
X0031
X00295Y0041
X00265
X00235
X00325
T02
X0020525Y0027875
Y0032875
X0031525Y0030375
T03
X00061Y00198
Y00336
Y00366
X00251Y00406
X00281
X00311
T04
X00359Y0029145
Y0031685
Y0034225
X00061Y002968
Y002714
Y00246
X001429Y00406
X001683
X001937
X002191
T05
X0036Y0004
X0004
Y0042
X0036
M30
