M48
;Layer_Color=9474304
;FILE_FORMAT=4:4
METRIC,LZ
;TYPE=PLATED
T1F00S00C0.3000
T2F00S00C0.7000
T3F00S00C1.0000
T4F00S00C1.1000
T5F00S00C3.1000
%
T01
X001Y0005
X0013
X0016
X0019
X0022
X0025
X0028
X0031
X00295Y0008
X00265
X00235
X00205
X00175
X00145
X0016Y0011
X0019
X0022
X0025
X0028
X00295Y0014
X00265
X00235
X00205
X00175
X00145
X0016Y0017
X0019
X0022
X0025
X0028
X00295Y002
X00265
X00235
X00205
X00175
X00145
X0016Y0023
X0019
X0022
X0025
X0028
X00265Y0026
X00235
X00205
X0019375Y00267
X00185Y00275
X0018525Y00258
X00157Y00279
X00136
X00132Y00258
X001225Y00267
X00115Y0026
X0011075Y00293
X00091
X0010025Y00283
X0014Y00305
X00151
Y00316
X00162
Y00305
Y00327
X00151
X0014
Y00316
X00129Y0034125
X001225Y00344
X0012375Y0033725
X0011575Y00351
X0011025Y0035875
X0010025Y0036775
X001Y00374
X0009975Y003795
X00145Y0038
X00155Y0037775
X00164Y0037175
X00175Y0038
X00188Y00351
Y00338
Y00325
Y00316
X0022Y0029
X0025
X0031
X00325Y0032
X00295
X0031Y0035
X0028
X00295Y0038
X00325
X00265
X00235
X0013Y0023
Y0017
Y0011
X0007
X00085Y0014
X0007Y0017
X00085Y002
X0007675Y0024275
X000765Y002475
X000625Y0022975
X00058Y0022925
X00045Y00244
Y0024975
X00085Y0008
X001Y0041
T02
X0020525Y0027875
Y0032875
X0031525Y0030375
T03
X00061Y00198
Y00336
Y00366
X00251Y00406
X00281
X00311
T04
X00061Y00246
Y002714
Y002968
X001429Y00406
X001683
X001937
X002191
T05
X0036Y0004
X0004
Y0042
X0036
M30
