M48
;Layer_Color=9474304
;FILE_FORMAT=4:4
METRIC,LZ
;TYPE=PLATED
T1F00S00C0.3000
T2F00S00C0.7000
T3F00S00C1.0000
T4F00S00C1.1000
T5F00S00C3.1000
%
T01
X00102Y0005425
X0012175Y00099
X00102Y0014275
X001195Y001885
X0011975Y0026025
X001205Y00267
X001085Y0027375
X001Y00282
X00136Y00279
X0015825Y0027875
X00162Y00305
X00151
X0014
Y00316
Y00327
X00151
X00162
Y00316
X00151
X00188
X0018675Y003495
X0017275Y0034875
X0019975Y003455
X0016275Y003795
X0015425Y0037925
X0014475Y003785
X00099Y003775
X001Y0036975
X00112Y0035425
X0011825Y003475
X0012575Y00341
X0007725Y0024475
X000615Y0022875
X000535Y0022925
X000435Y00238
X0004325Y0024525
X000435Y0025125
X00084Y001885
X00082Y000985
T02
X0020525Y0027875
Y0032875
X0031525Y0030375
T03
X00061Y00198
Y00336
Y00366
X00251Y00406
X00281
X00311
T04
X00359Y0029145
Y0031685
Y0034225
X00061Y002968
Y002714
Y00246
X001429Y00406
X001683
X001937
X002191
T05
X0036Y0004
X0004
Y0042
X0036
M30
