<?xml version="1.0" standalone="no"?>
 <!DOCTYPE svg PUBLIC "-//W3C//DTD SVG 1.1//EN" 
 "http://www.w3.org/Graphics/SVG/1.1/DTD/svg11.dtd"> 
<svg
  xmlns:svg="http://www.w3.org/2000/svg"
  xmlns="http://www.w3.org/2000/svg"
  xmlns:xlink="http://www.w3.org/1999/xlink"
  version="1.1"
  width="2.423160cm" height="1.143000cm" viewBox="0 0 9540 4500">
<title>SVG Picture created as CurrentSenseResistor.svg date 2020/11/10 18:27:20 </title>
  <desc>Picture generated by Eeschema-SVG </desc>
<g style="fill:#000000; fill-opacity:1;stroke:#000000; stroke-opacity:1;
stroke-linecap:round; stroke-linejoin:round;"
 transform="translate(0 0) scale(1 1)">
</g>
<g style="fill:#840000; fill-opacity:0.0; 
stroke:#840000; stroke-width:-10; stroke-opacity:1; 
stroke-linecap:round; stroke-linejoin:round;">
</g>
<g style="fill:#840000; fill-opacity:0.0; 
stroke:#840000; stroke-width:60; stroke-opacity:1; 
stroke-linecap:round; stroke-linejoin:round;">
<rect x="2770" y="1250" width="4000" height="2000" rx="0" />
<path d="M6770 1750
L7770 1750
" />
</g>
<g style="fill:#008484; fill-opacity:0.0; 
stroke:#008484; stroke-width:60; stroke-opacity:1; 
stroke-linecap:round; stroke-linejoin:round;">
<text x="6760" y="2000"
textLength="300" font-size="660" lengthAdjust="spacingAndGlyphs"
text-anchor="end" opacity="0">I</text>
<path d="M6610 1970
L6610 1470
" />
</g>
<g style="fill:#840000; fill-opacity:0.0; 
stroke:#840000; stroke-width:60; stroke-opacity:1; 
stroke-linecap:round; stroke-linejoin:round;">
<text x="7270" y="1650"
textLength="540" font-size="660" lengthAdjust="spacingAndGlyphs"
text-anchor="middle" opacity="0">1</text>
<path d="M7410 1620
L7120 1620
" />
<path d="M7270 1620
L7270 1120
L7220 1190
L7170 1240
L7120 1260
" />
<path d="M2770 1750
L1770 1750
" />
</g>
<g style="fill:#008484; fill-opacity:0.0; 
stroke:#008484; stroke-width:60; stroke-opacity:1; 
stroke-linecap:round; stroke-linejoin:round;">
<text x="2780" y="2000"
textLength="300" font-size="660" lengthAdjust="spacingAndGlyphs"
text-anchor="start" opacity="0">I</text>
<path d="M2920 1970
L2920 1470
" />
</g>
<g style="fill:#840000; fill-opacity:0.0; 
stroke:#840000; stroke-width:60; stroke-opacity:1; 
stroke-linecap:round; stroke-linejoin:round;">
<text x="2270" y="1650"
textLength="540" font-size="660" lengthAdjust="spacingAndGlyphs"
text-anchor="middle" opacity="0">2</text>
<path d="M2120 1170
L2150 1150
L2190 1120
L2310 1120
L2360 1150
L2380 1170
L2410 1220
L2410 1260
L2380 1340
L2100 1620
L2410 1620
" />
<path d="M6770 2750
L7770 2750
" />
</g>
<g style="fill:#008484; fill-opacity:0.0; 
stroke:#008484; stroke-width:60; stroke-opacity:1; 
stroke-linecap:round; stroke-linejoin:round;">
<text x="6760" y="3000"
textLength="490" font-size="660" lengthAdjust="spacingAndGlyphs"
text-anchor="end" opacity="0">V</text>
<path d="M6340 2470
L6510 2970
L6680 2470
" />
</g>
<g style="fill:#840000; fill-opacity:0.0; 
stroke:#840000; stroke-width:60; stroke-opacity:1; 
stroke-linecap:round; stroke-linejoin:round;">
<text x="7270" y="2650"
textLength="540" font-size="660" lengthAdjust="spacingAndGlyphs"
text-anchor="middle" opacity="0">3</text>
<path d="M7100 2120
L7410 2120
L7240 2310
L7310 2310
L7360 2340
L7380 2360
L7410 2410
L7410 2530
L7380 2570
L7360 2600
L7310 2620
L7170 2620
L7120 2600
L7100 2570
" />
<path d="M2770 2750
L1770 2750
" />
</g>
<g style="fill:#008484; fill-opacity:0.0; 
stroke:#008484; stroke-width:60; stroke-opacity:1; 
stroke-linecap:round; stroke-linejoin:round;">
<text x="2780" y="3000"
textLength="490" font-size="660" lengthAdjust="spacingAndGlyphs"
text-anchor="start" opacity="0">V</text>
<path d="M2850 2470
L3020 2970
L3190 2470
" />
</g>
<g style="fill:#840000; fill-opacity:0.0; 
stroke:#840000; stroke-width:60; stroke-opacity:1; 
stroke-linecap:round; stroke-linejoin:round;">
<text x="2270" y="2650"
textLength="540" font-size="660" lengthAdjust="spacingAndGlyphs"
text-anchor="middle" opacity="0">4</text>
<path d="M2360 2290
L2360 2620
" />
<path d="M2240 2100
L2120 2450
L2430 2450
" />
</g>
<g style="fill:#840084; fill-opacity:0.0; 
stroke:#840084; stroke-width:60; stroke-opacity:1; 
stroke-linecap:round; stroke-linejoin:round;">
</g>
<g style="fill:#008484; fill-opacity:0.0; 
stroke:#008484; stroke-width:60; stroke-opacity:1; 
stroke-linecap:round; stroke-linejoin:round;">
<text x="5270" y="4020"
textLength="8010" font-size="660" lengthAdjust="spacingAndGlyphs"
text-anchor="middle" opacity="0">CurrentSenseResistor</text>
<path d="M1690 3940
L1670 3970
L1600 3990
L1550 3990
L1480 3970
L1430 3920
L1410 3870
L1380 3780
L1380 3710
L1410 3610
L1430 3560
L1480 3520
L1550 3490
L1600 3490
L1670 3520
L1690 3540
" />
<path d="M2120 3660
L2120 3990
" />
<path d="M1910 3660
L1910 3920
L1930 3970
L1980 3990
L2050 3990
L2100 3970
L2120 3940
" />
<path d="M2360 3990
L2360 3660
" />
<path d="M2360 3750
L2380 3710
L2410 3680
L2460 3660
L2500 3660
" />
<path d="M2670 3990
L2670 3660
" />
<path d="M2670 3750
L2690 3710
L2720 3680
L2770 3660
L2810 3660
" />
<path d="M3170 3970
L3120 3990
L3030 3990
L2980 3970
L2960 3920
L2960 3730
L2980 3680
L3030 3660
L3120 3660
L3170 3680
L3190 3730
L3190 3780
L2960 3820
" />
<path d="M3410 3660
L3410 3990
" />
<path d="M3410 3710
L3430 3680
L3480 3660
L3550 3660
L3600 3680
L3620 3730
L3620 3990
" />
<path d="M3790 3660
L3980 3660
" />
<path d="M3860 3490
L3860 3920
L3880 3970
L3930 3990
L3980 3990
" />
<path d="M4120 3970
L4190 3990
L4310 3990
L4360 3970
L4380 3940
L4410 3900
L4410 3850
L4380 3800
L4360 3780
L4310 3750
L4220 3730
L4170 3710
L4150 3680
L4120 3630
L4120 3590
L4150 3540
L4170 3520
L4220 3490
L4340 3490
L4410 3520
" />
<path d="M4810 3970
L4760 3990
L4670 3990
L4620 3970
L4600 3920
L4600 3730
L4620 3680
L4670 3660
L4760 3660
L4810 3680
L4840 3730
L4840 3780
L4600 3820
" />
<path d="M5050 3660
L5050 3990
" />
<path d="M5050 3710
L5070 3680
L5120 3660
L5190 3660
L5240 3680
L5260 3730
L5260 3990
" />
<path d="M5480 3970
L5530 3990
L5620 3990
L5670 3970
L5690 3920
L5690 3900
L5670 3850
L5620 3820
L5550 3820
L5500 3800
L5480 3750
L5480 3730
L5500 3680
L5550 3660
L5620 3660
L5670 3680
" />
<path d="M6100 3970
L6050 3990
L5960 3990
L5910 3970
L5880 3920
L5880 3730
L5910 3680
L5960 3660
L6050 3660
L6100 3680
L6120 3730
L6120 3780
L5880 3820
" />
<path d="M6620 3990
L6460 3750
" />
<path d="M6340 3990
L6340 3490
L6530 3490
L6570 3520
L6600 3540
L6620 3590
L6620 3660
L6600 3710
L6570 3730
L6530 3750
L6340 3750
" />
<path d="M7030 3970
L6980 3990
L6880 3990
L6840 3970
L6810 3920
L6810 3730
L6840 3680
L6880 3660
L6980 3660
L7030 3680
L7050 3730
L7050 3780
L6810 3820
" />
<path d="M7240 3970
L7290 3990
L7380 3990
L7430 3970
L7460 3920
L7460 3900
L7430 3850
L7380 3820
L7310 3820
L7270 3800
L7240 3750
L7240 3730
L7270 3680
L7310 3660
L7380 3660
L7430 3680
" />
<path d="M7670 3990
L7670 3660
" />
<path d="M7670 3490
L7650 3520
L7670 3540
L7690 3520
L7670 3490
L7670 3540
" />
<path d="M7880 3970
L7930 3990
L8030 3990
L8070 3970
L8100 3920
L8100 3900
L8070 3850
L8030 3820
L7960 3820
L7910 3800
L7880 3750
L7880 3730
L7910 3680
L7960 3660
L8030 3660
L8070 3680
" />
<path d="M8240 3660
L8430 3660
" />
<path d="M8310 3490
L8310 3920
L8340 3970
L8380 3990
L8430 3990
" />
<path d="M8670 3990
L8620 3970
L8600 3940
L8570 3900
L8570 3750
L8600 3710
L8620 3680
L8670 3660
L8740 3660
L8790 3680
L8810 3710
L8840 3750
L8840 3900
L8810 3940
L8790 3970
L8740 3990
L8670 3990
" />
<path d="M9050 3990
L9050 3660
" />
<path d="M9050 3750
L9070 3710
L9100 3680
L9150 3660
L9190 3660
" />
<text x="4770" y="1020"
textLength="990" font-size="660" lengthAdjust="spacingAndGlyphs"
text-anchor="middle" opacity="0">R?</text>
<path d="M4710 990
L4540 750
" />
<path d="M4420 990
L4420 490
L4610 490
L4660 520
L4680 540
L4710 590
L4710 660
L4680 710
L4660 730
L4610 750
L4420 750
" />
<path d="M4990 940
L5020 970
L4990 990
L4970 970
L4990 940
L4990 990
" />
<path d="M4900 520
L4940 490
L5060 490
L5110 520
L5130 560
L5130 610
L5110 660
L5090 680
L5040 710
L5020 730
L4990 780
L4990 800
" />
</g> 
</svg>
