<?xml version="1.0" standalone="no"?>
 <!DOCTYPE svg PUBLIC "-//W3C//DTD SVG 1.1//EN" 
 "http://www.w3.org/Graphics/SVG/1.1/DTD/svg11.dtd"> 
<svg
  xmlns:svg="http://www.w3.org/2000/svg"
  xmlns="http://www.w3.org/2000/svg"
  xmlns:xlink="http://www.w3.org/1999/xlink"
  version="1.1"
  width="1.945640cm" height="1.346200cm" viewBox="0 0 7660 5300">
<title>SVG Picture created as SolarCell.svg date 2020/11/10 18:01:11 </title>
  <desc>Picture generated by Eeschema-SVG </desc>
<g style="fill:#000000; fill-opacity:1;stroke:#000000; stroke-opacity:1;
stroke-linecap:round; stroke-linejoin:round;"
 transform="translate(0 0) scale(1 1)">
</g>
<g style="fill:#840000; fill-opacity:0.0; 
stroke:#840000; stroke-width:-10; stroke-opacity:1; 
stroke-linecap:round; stroke-linejoin:round;">
</g>
<g style="fill:#840000; fill-opacity:0.0; 
stroke:#840000; stroke-width:60; stroke-opacity:1; 
stroke-linecap:round; stroke-linejoin:round;">
<path style="fill:#840000; fill-opacity:0.0; 
stroke:#840000; stroke-width:60; stroke-opacity:1; 
stroke-linecap:round; stroke-linejoin:round;fill:none"
d="M 3830,1650
3830,3650
" /> 
<path style="fill:#840000; fill-opacity:0.0; 
stroke:#840000; stroke-width:60; stroke-opacity:1; 
stroke-linecap:round; stroke-linejoin:round;fill:none"
d="M 4330,2150
4330,3150
" /> 
<path style="fill:#840000; fill-opacity:0.0; 
stroke:#840000; stroke-width:60; stroke-opacity:1; 
stroke-linecap:round; stroke-linejoin:round;fill:none"
d="M 3330,1150
3330,650
" /> 
<path style="fill:#840000; fill-opacity:0.0; 
stroke:#840000; stroke-width:60; stroke-opacity:1; 
stroke-linecap:round; stroke-linejoin:round;fill:none"
d="M 3330,1150
2830,1150
" /> 
<path style="fill:#840000; fill-opacity:0.0; 
stroke:#840000; stroke-width:60; stroke-opacity:1; 
stroke-linecap:round; stroke-linejoin:round;fill:none"
d="M 3330,1150
2330,150
" /> 
<path style="fill:#840000; fill-opacity:0.0; 
stroke:#840000; stroke-width:60; stroke-opacity:1; 
stroke-linecap:round; stroke-linejoin:round;fill:none"
d="M 3830,1150
4330,1150
" /> 
<path style="fill:#840000; fill-opacity:0.0; 
stroke:#840000; stroke-width:60; stroke-opacity:1; 
stroke-linecap:round; stroke-linejoin:round;fill:none"
d="M 4330,1150
4330,650
" /> 
<path style="fill:#840000; fill-opacity:0.0; 
stroke:#840000; stroke-width:60; stroke-opacity:1; 
stroke-linecap:round; stroke-linejoin:round;fill:none"
d="M 4330,1150
3330,150
" /> 
<path style="fill:#840000; fill-opacity:0.0; 
stroke:#840000; stroke-width:60; stroke-opacity:1; 
stroke-linecap:round; stroke-linejoin:round;fill:none"
d="M 4330,2650
5330,2650
" /> 
<path style="fill:#840000; fill-opacity:0.0; 
stroke:#840000; stroke-width:60; stroke-opacity:1; 
stroke-linecap:round; stroke-linejoin:round;fill:none"
d="M 2830,2650
3830,2650
" /> 
<path d="M2830 2650
L1830 2650
" />
</g>
<g style="fill:#008484; fill-opacity:0.0; 
stroke:#008484; stroke-width:60; stroke-opacity:1; 
stroke-linecap:round; stroke-linejoin:round;">
<text x="2330" y="2550"
textLength="680" font-size="660" lengthAdjust="spacingAndGlyphs"
text-anchor="middle" opacity="0">+</text>
<path d="M2130 2330
L2520 2330
" />
<path d="M2330 2520
L2330 2140
" />
</g>
<g style="fill:#840000; fill-opacity:0.0; 
stroke:#840000; stroke-width:60; stroke-opacity:1; 
stroke-linecap:round; stroke-linejoin:round;">
<text x="2330" y="3250"
textLength="540" font-size="660" lengthAdjust="spacingAndGlyphs"
text-anchor="middle" opacity="0">1</text>
<path d="M2470 3220
L2180 3220
" />
<path d="M2330 3220
L2330 2720
L2280 2790
L2230 2840
L2180 2860
" />
<path d="M5330 2650
L6330 2650
" />
</g>
<g style="fill:#008484; fill-opacity:0.0; 
stroke:#008484; stroke-width:60; stroke-opacity:1; 
stroke-linecap:round; stroke-linejoin:round;">
<text x="5830" y="2550"
textLength="680" font-size="660" lengthAdjust="spacingAndGlyphs"
text-anchor="middle" opacity="0">-</text>
<path d="M5630 2330
L6020 2330
" />
</g>
<g style="fill:#840000; fill-opacity:0.0; 
stroke:#840000; stroke-width:60; stroke-opacity:1; 
stroke-linecap:round; stroke-linejoin:round;">
<text x="5830" y="3250"
textLength="540" font-size="660" lengthAdjust="spacingAndGlyphs"
text-anchor="middle" opacity="0">2</text>
<path d="M5680 2770
L5710 2750
L5750 2720
L5870 2720
L5920 2750
L5940 2770
L5970 2820
L5970 2860
L5940 2940
L5660 3220
L5970 3220
" />
</g>
<g style="fill:#840084; fill-opacity:0.0; 
stroke:#840084; stroke-width:60; stroke-opacity:1; 
stroke-linecap:round; stroke-linejoin:round;">
</g>
<g style="fill:#008484; fill-opacity:0.0; 
stroke:#008484; stroke-width:60; stroke-opacity:1; 
stroke-linecap:round; stroke-linejoin:round;">
<text x="3830" y="4420"
textLength="1730" font-size="660" lengthAdjust="spacingAndGlyphs"
text-anchor="middle" opacity="0">Bat?</text>
<path d="M3280 4130
L3350 4150
L3370 4180
L3400 4220
L3400 4300
L3370 4340
L3350 4370
L3300 4390
L3110 4390
L3110 3890
L3280 3890
L3320 3920
L3350 3940
L3370 3990
L3370 4030
L3350 4080
L3320 4110
L3280 4130
L3110 4130
" />
<path d="M3820 4390
L3820 4130
L3800 4080
L3750 4060
L3660 4060
L3610 4080
" />
<path d="M3820 4370
L3780 4390
L3660 4390
L3610 4370
L3590 4320
L3590 4270
L3610 4220
L3660 4200
L3780 4200
L3820 4180
" />
<path d="M3990 4060
L4180 4060
" />
<path d="M4060 3890
L4060 4320
L4090 4370
L4130 4390
L4180 4390
" />
<path d="M4420 4340
L4440 4370
L4420 4390
L4400 4370
L4420 4340
L4420 4390
" />
<path d="M4320 3920
L4370 3890
L4490 3890
L4540 3920
L4560 3960
L4560 4010
L4540 4060
L4520 4080
L4470 4110
L4440 4130
L4420 4180
L4420 4200
" />
<text x="6330" y="1420"
textLength="3460" font-size="660" lengthAdjust="spacingAndGlyphs"
text-anchor="middle" opacity="0">SolarCell</text>
<path d="M4720 1370
L4790 1390
L4910 1390
L4960 1370
L4980 1340
L5000 1300
L5000 1250
L4980 1200
L4960 1180
L4910 1150
L4810 1130
L4770 1110
L4740 1080
L4720 1030
L4720 990
L4740 940
L4770 920
L4810 890
L4930 890
L5000 920
" />
<path d="M5290 1390
L5240 1370
L5220 1340
L5190 1300
L5190 1150
L5220 1110
L5240 1080
L5290 1060
L5360 1060
L5410 1080
L5430 1110
L5460 1150
L5460 1300
L5430 1340
L5410 1370
L5360 1390
L5290 1390
" />
<path d="M5740 1390
L5690 1370
L5670 1320
L5670 890
" />
<path d="M6150 1390
L6150 1130
L6120 1080
L6080 1060
L5980 1060
L5930 1080
" />
<path d="M6150 1370
L6100 1390
L5980 1390
L5930 1370
L5910 1320
L5910 1270
L5930 1220
L5980 1200
L6100 1200
L6150 1180
" />
<path d="M6380 1390
L6380 1060
" />
<path d="M6380 1150
L6410 1110
L6430 1080
L6480 1060
L6530 1060
" />
<path d="M6980 1340
L6960 1370
L6880 1390
L6840 1390
L6770 1370
L6720 1320
L6690 1270
L6670 1180
L6670 1110
L6690 1010
L6720 960
L6770 920
L6840 890
L6880 890
L6960 920
L6980 940
" />
<path d="M7380 1370
L7340 1390
L7240 1390
L7190 1370
L7170 1320
L7170 1130
L7190 1080
L7240 1060
L7340 1060
L7380 1080
L7410 1130
L7410 1180
L7170 1220
" />
<path d="M7690 1390
L7650 1370
L7620 1320
L7620 890
" />
<path d="M7960 1390
L7910 1370
L7880 1320
L7880 890
" />
</g> 
</svg>
