G04 Layer_Color=8388736*
%FSLAX44Y44*%
%MOMM*%
G71*
G01*
G75*
%ADD29R,1.0532X1.0532*%
%ADD30C,1.2032*%
%ADD31R,1.0532X1.0532*%
%ADD32R,3.1500X1.5500*%
%ADD33R,1.2032X0.4532*%
%ADD34R,0.4532X1.2032*%
%ADD35R,3.3532X3.3532*%
%ADD36C,2.2032*%
%ADD37R,2.2032X2.2032*%
%ADD38R,2.2032X2.2032*%
%ADD39C,5.2032*%
%ADD40C,0.8032*%
D29*
X139000Y165000D02*
D03*
X125000D02*
D03*
X131000Y65000D02*
D03*
X117000D02*
D03*
X168000D02*
D03*
X154000D02*
D03*
X79750Y136000D02*
D03*
X65750D02*
D03*
D30*
X144650Y185350D02*
D03*
X99300Y45300D02*
D03*
X145400Y44000D02*
D03*
X71500Y155000D02*
D03*
X100000Y196000D02*
D03*
X194500Y109500D02*
D03*
D31*
X87000Y92000D02*
D03*
Y106000D02*
D03*
X68999Y106001D02*
D03*
Y120001D02*
D03*
D32*
X100000Y177000D02*
D03*
Y153000D02*
D03*
D33*
X111500Y125000D02*
D03*
Y120000D02*
D03*
Y115000D02*
D03*
Y110000D02*
D03*
Y105000D02*
D03*
Y100000D02*
D03*
Y95000D02*
D03*
X158500D02*
D03*
Y100000D02*
D03*
Y105000D02*
D03*
Y110000D02*
D03*
Y115000D02*
D03*
Y120000D02*
D03*
Y125000D02*
D03*
D34*
X120000Y86500D02*
D03*
X125000D02*
D03*
X130000D02*
D03*
X135000D02*
D03*
X140000D02*
D03*
X145000D02*
D03*
X150000D02*
D03*
Y133500D02*
D03*
X145000D02*
D03*
X140000D02*
D03*
X135000D02*
D03*
X130000D02*
D03*
X125000D02*
D03*
X120000D02*
D03*
D35*
X135000Y110000D02*
D03*
D36*
X159700Y226000D02*
D03*
X225000Y172700D02*
D03*
X225000Y68200D02*
D03*
Y93600D02*
D03*
X94600Y15000D02*
D03*
X120000D02*
D03*
X70300Y226000D02*
D03*
D37*
X134300D02*
D03*
X145400Y15000D02*
D03*
X95700Y226000D02*
D03*
D38*
X225000Y147300D02*
D03*
X225000Y119000D02*
D03*
D39*
X210000Y210000D02*
D03*
X30000D02*
D03*
Y30000D02*
D03*
X210000D02*
D03*
D40*
X135000Y110000D02*
D03*
X146000D02*
D03*
Y99000D02*
D03*
X135000D02*
D03*
X124000D02*
D03*
Y110000D02*
D03*
Y121000D02*
D03*
X135000D02*
D03*
X146000D02*
D03*
M02*
