G04 Layer_Color=8388736*
%FSLAX44Y44*%
%MOMM*%
G71*
G01*
G75*
%ADD28R,3.3532X3.3532*%
%ADD29R,0.4532X1.2032*%
%ADD30R,1.2032X0.4532*%
%ADD31R,3.1500X1.5500*%
%ADD32R,1.0532X1.0532*%
%ADD33C,1.2032*%
%ADD34R,1.0532X1.0532*%
%ADD35R,2.2032X2.2032*%
%ADD36C,2.2032*%
%ADD37C,5.2032*%
%ADD38R,2.2032X2.2032*%
%ADD39C,0.8032*%
D28*
X135000Y110000D02*
D03*
D29*
X120000Y133500D02*
D03*
X125000D02*
D03*
X130000D02*
D03*
X135000D02*
D03*
X140000D02*
D03*
X145000D02*
D03*
X150000D02*
D03*
Y86500D02*
D03*
X145000D02*
D03*
X140000D02*
D03*
X135000D02*
D03*
X130000D02*
D03*
X125000D02*
D03*
X120000D02*
D03*
D30*
X158500Y125000D02*
D03*
Y120000D02*
D03*
Y115000D02*
D03*
Y110000D02*
D03*
Y105000D02*
D03*
Y100000D02*
D03*
Y95000D02*
D03*
X111500D02*
D03*
Y100000D02*
D03*
Y105000D02*
D03*
Y110000D02*
D03*
Y115000D02*
D03*
Y120000D02*
D03*
Y125000D02*
D03*
D31*
X100000Y153000D02*
D03*
Y177000D02*
D03*
D32*
X68999Y120001D02*
D03*
Y106001D02*
D03*
X87000Y106000D02*
D03*
Y92000D02*
D03*
D33*
X189750Y104750D02*
D03*
X100000Y196000D02*
D03*
X71500Y155000D02*
D03*
X145400Y44000D02*
D03*
X99300Y45300D02*
D03*
X144650Y185350D02*
D03*
D34*
X65750Y136000D02*
D03*
X79750D02*
D03*
X154000Y65000D02*
D03*
X168000D02*
D03*
X117000D02*
D03*
X131000D02*
D03*
X125000Y165000D02*
D03*
X139000D02*
D03*
D35*
X95700Y226000D02*
D03*
X145400Y15000D02*
D03*
X134300Y226000D02*
D03*
D36*
X70300D02*
D03*
X120000Y15000D02*
D03*
X94600D02*
D03*
X225000Y93600D02*
D03*
Y68200D02*
D03*
X225000Y172700D02*
D03*
X159700Y226000D02*
D03*
D37*
X210000Y30000D02*
D03*
X30000D02*
D03*
Y210000D02*
D03*
X210000D02*
D03*
D38*
X225000Y119000D02*
D03*
X225000Y147300D02*
D03*
D39*
X146000Y121000D02*
D03*
X135000D02*
D03*
X124000D02*
D03*
Y110000D02*
D03*
Y99000D02*
D03*
X135000D02*
D03*
X146000D02*
D03*
Y110000D02*
D03*
X135000D02*
D03*
M02*
