G04 Layer_Color=16316664*
%FSLAX44Y44*%
%MOMM*%
G71*
G01*
G75*
%ADD18C,0.2000*%
%ADD19C,0.2500*%
G36*
X207397Y178963D02*
X207508Y178926D01*
X207601Y178870D01*
X207693Y178778D01*
X207749Y178648D01*
X207767Y178482D01*
Y178463D01*
Y178426D01*
X207730Y178315D01*
X207675Y178185D01*
X207601Y178111D01*
X207527Y178037D01*
X203453Y175315D01*
X207527Y172612D01*
X207545D01*
X207564Y172575D01*
X207656Y172501D01*
X207730Y172353D01*
X207749Y172260D01*
X207767Y172167D01*
Y172149D01*
Y172093D01*
X207749Y172001D01*
X207693Y171908D01*
X207638Y171816D01*
X207545Y171723D01*
X207416Y171667D01*
X207230Y171649D01*
X207138D01*
X207045Y171686D01*
X206953Y171723D01*
X202509Y174686D01*
X198065Y171723D01*
X198046Y171705D01*
X197972Y171686D01*
X197880Y171667D01*
X197768Y171649D01*
X197694D01*
X197602Y171667D01*
X197509Y171705D01*
X197417Y171779D01*
X197324Y171871D01*
X197269Y172001D01*
X197250Y172167D01*
Y172186D01*
Y172204D01*
X197287Y172334D01*
X197343Y172464D01*
X197398Y172538D01*
X197472Y172612D01*
X201546Y175315D01*
X197472Y178037D01*
X197435Y178074D01*
X197361Y178148D01*
X197287Y178296D01*
X197269Y178389D01*
X197250Y178482D01*
Y178500D01*
Y178556D01*
X197287Y178648D01*
X197324Y178741D01*
X197380Y178833D01*
X197472Y178926D01*
X197602Y178981D01*
X197768Y179000D01*
X197806D01*
X197861Y178981D01*
X197972Y178963D01*
X198065Y178926D01*
X202509Y175963D01*
X206953Y178926D01*
X206971Y178944D01*
X207045Y178963D01*
X207119Y178981D01*
X207230Y179000D01*
X207323D01*
X207397Y178963D01*
D02*
G37*
G36*
Y169482D02*
X207508Y169445D01*
X207601Y169390D01*
X207693Y169297D01*
X207749Y169168D01*
X207767Y169001D01*
Y165316D01*
Y165298D01*
Y165224D01*
X207749Y165150D01*
X207693Y165039D01*
X207638Y164946D01*
X207545Y164853D01*
X207416Y164798D01*
X207230Y164779D01*
X207156D01*
X207064Y164798D01*
X206971Y164853D01*
X206879Y164909D01*
X206786Y165001D01*
X206730Y165131D01*
X206712Y165316D01*
Y168464D01*
X203564D01*
Y166890D01*
Y166872D01*
Y166835D01*
Y166779D01*
X203546Y166705D01*
X203527Y166501D01*
X203472Y166242D01*
X203379Y165964D01*
X203231Y165650D01*
X203046Y165335D01*
X202787Y165039D01*
X202749Y165001D01*
X202657Y164909D01*
X202490Y164798D01*
X202268Y164650D01*
X201990Y164501D01*
X201675Y164390D01*
X201305Y164298D01*
X200916Y164261D01*
X199768D01*
X199694Y164279D01*
X199491Y164298D01*
X199231Y164353D01*
X198935Y164446D01*
X198639Y164594D01*
X198305Y164779D01*
X198009Y165039D01*
X197972Y165075D01*
X197898Y165168D01*
X197768Y165335D01*
X197639Y165557D01*
X197491Y165835D01*
X197361Y166150D01*
X197287Y166501D01*
X197250Y166890D01*
Y169001D01*
Y169020D01*
Y169075D01*
X197287Y169168D01*
X197324Y169260D01*
X197380Y169353D01*
X197472Y169445D01*
X197602Y169501D01*
X197768Y169520D01*
X197861D01*
X197935Y169482D01*
X198046Y169445D01*
X198139Y169390D01*
X198231Y169297D01*
X198287Y169168D01*
X198305Y169001D01*
Y166890D01*
Y166853D01*
Y166779D01*
X198324Y166668D01*
X198361Y166501D01*
X198417Y166335D01*
X198491Y166150D01*
X198602Y165964D01*
X198750Y165779D01*
X198768Y165761D01*
X198842Y165705D01*
X198935Y165631D01*
X199065Y165538D01*
X199231Y165464D01*
X199416Y165390D01*
X199639Y165335D01*
X199879Y165316D01*
X201027D01*
X201157Y165335D01*
X201305Y165372D01*
X201490Y165427D01*
X201675Y165520D01*
X201861Y165631D01*
X202046Y165779D01*
X202064Y165798D01*
X202120Y165853D01*
X202194Y165964D01*
X202286Y166094D01*
X202361Y166261D01*
X202435Y166446D01*
X202490Y166649D01*
X202509Y166890D01*
Y169001D01*
Y169020D01*
Y169075D01*
X202546Y169168D01*
X202583Y169260D01*
X202638Y169353D01*
X202731Y169445D01*
X202861Y169501D01*
X203027Y169520D01*
X207323D01*
X207397Y169482D01*
D02*
G37*
G36*
X68999Y210249D02*
X69092Y210193D01*
X69184Y210138D01*
X69277Y210045D01*
X69333Y209916D01*
X69351Y209730D01*
Y209712D01*
Y209638D01*
X69314Y209545D01*
X69277Y209453D01*
X66314Y205009D01*
X69277Y200565D01*
X69296Y200546D01*
X69314Y200472D01*
X69333Y200380D01*
X69351Y200268D01*
Y200250D01*
Y200194D01*
X69333Y200102D01*
X69296Y200009D01*
X69222Y199917D01*
X69129Y199824D01*
X68999Y199769D01*
X68833Y199750D01*
X68796D01*
X68666Y199787D01*
X68536Y199843D01*
X68462Y199898D01*
X68388Y199972D01*
X65685Y204046D01*
X62963Y199972D01*
X62926Y199935D01*
X62852Y199861D01*
X62704Y199787D01*
X62611Y199769D01*
X62519Y199750D01*
X62444D01*
X62352Y199787D01*
X62259Y199824D01*
X62167Y199880D01*
X62074Y199972D01*
X62018Y200102D01*
X62000Y200268D01*
Y200306D01*
X62018Y200361D01*
X62037Y200472D01*
X62074Y200565D01*
X65037Y205009D01*
X62074Y209453D01*
X62056Y209471D01*
X62037Y209545D01*
X62018Y209619D01*
X62000Y209730D01*
Y209749D01*
Y209823D01*
X62037Y209897D01*
X62074Y210008D01*
X62130Y210101D01*
X62222Y210193D01*
X62352Y210249D01*
X62519Y210267D01*
X62574D01*
X62685Y210230D01*
X62815Y210175D01*
X62889Y210101D01*
X62963Y210027D01*
X65685Y205953D01*
X68388Y210027D01*
Y210045D01*
X68425Y210064D01*
X68499Y210156D01*
X68647Y210230D01*
X68740Y210249D01*
X68833Y210267D01*
X68907D01*
X68999Y210249D01*
D02*
G37*
G36*
X74276D02*
X74369Y210193D01*
X74462Y210138D01*
X74554Y210045D01*
X74610Y209916D01*
X74628Y209730D01*
Y209712D01*
Y209693D01*
X74610Y209582D01*
X72703Y202916D01*
X75165D01*
Y204490D01*
Y204509D01*
Y204583D01*
X75202Y204657D01*
X75239Y204768D01*
X75295Y204861D01*
X75388Y204953D01*
X75517Y205009D01*
X75684Y205027D01*
X75776D01*
X75850Y205009D01*
X75961Y204953D01*
X76054Y204898D01*
X76147Y204805D01*
X76202Y204675D01*
X76221Y204490D01*
Y202916D01*
X77350D01*
X77424Y202898D01*
X77535Y202842D01*
X77628Y202787D01*
X77721Y202694D01*
X77776Y202565D01*
X77795Y202379D01*
Y202361D01*
Y202305D01*
X77776Y202213D01*
X77721Y202120D01*
X77665Y202027D01*
X77572Y201935D01*
X77443Y201879D01*
X77258Y201861D01*
X76221D01*
Y200268D01*
Y200250D01*
Y200194D01*
X76202Y200102D01*
X76147Y200009D01*
X76091Y199917D01*
X75999Y199824D01*
X75869Y199769D01*
X75684Y199750D01*
X75610D01*
X75517Y199787D01*
X75424Y199824D01*
X75332Y199880D01*
X75239Y199972D01*
X75184Y200102D01*
X75165Y200268D01*
Y201861D01*
X71925D01*
X71832Y201898D01*
X71740Y201935D01*
X71647Y201991D01*
X71555Y202083D01*
X71499Y202213D01*
X71480Y202379D01*
Y202398D01*
Y202435D01*
Y202528D01*
X73591Y209879D01*
Y209897D01*
X73610Y209934D01*
X73647Y210008D01*
X73703Y210082D01*
X73777Y210138D01*
X73851Y210212D01*
X73980Y210249D01*
X74110Y210267D01*
X74184D01*
X74276Y210249D01*
D02*
G37*
G36*
X157718Y187492D02*
X157773Y187465D01*
X157819Y187437D01*
X157866Y187391D01*
X157893Y187326D01*
X157903Y187233D01*
Y187224D01*
Y187196D01*
X157893Y187150D01*
X157866Y187104D01*
X157838Y187058D01*
X157792Y187012D01*
X157727Y186984D01*
X157635Y186975D01*
X156590D01*
Y182509D01*
Y182500D01*
Y182472D01*
X156581Y182426D01*
X156553Y182379D01*
X156525Y182333D01*
X156479Y182287D01*
X156414Y182259D01*
X156322Y182250D01*
X156285D01*
X156238Y182269D01*
X156192Y182287D01*
X156146Y182315D01*
X156100Y182361D01*
X156072Y182426D01*
X156063Y182509D01*
Y186975D01*
X154972D01*
X154926Y186993D01*
X154879Y187012D01*
X154833Y187039D01*
X154787Y187085D01*
X154759Y187150D01*
X154750Y187233D01*
Y187243D01*
Y187280D01*
X154768Y187317D01*
X154787Y187372D01*
X154815Y187418D01*
X154861Y187465D01*
X154926Y187492D01*
X155009Y187502D01*
X157681D01*
X157718Y187492D01*
D02*
G37*
G36*
X162221Y152499D02*
X162332Y152443D01*
X162425Y152388D01*
X162517Y152295D01*
X162573Y152166D01*
X162591Y151980D01*
Y142519D01*
Y142500D01*
Y142444D01*
X162573Y142352D01*
X162517Y142259D01*
X162462Y142167D01*
X162369Y142074D01*
X162240Y142018D01*
X162054Y142000D01*
X161980D01*
X161888Y142037D01*
X161795Y142074D01*
X161703Y142130D01*
X161610Y142222D01*
X161555Y142352D01*
X161536Y142519D01*
Y150721D01*
X160314Y149499D01*
X160295Y149481D01*
X160221Y149425D01*
X160092Y149370D01*
X159944Y149351D01*
X159869D01*
X159777Y149388D01*
X159684Y149425D01*
X159592Y149481D01*
X159499Y149573D01*
X159444Y149703D01*
X159425Y149888D01*
Y149907D01*
Y149925D01*
X159444Y150018D01*
X159481Y150129D01*
X159573Y150258D01*
X161628Y152314D01*
X161647Y152332D01*
X161666Y152351D01*
X161758Y152425D01*
X161888Y152480D01*
X161980Y152517D01*
X162147D01*
X162221Y152499D01*
D02*
G37*
G36*
X164569Y187492D02*
X164671Y187483D01*
X164791Y187455D01*
X164939Y187409D01*
X165096Y187335D01*
X165253Y187243D01*
X165401Y187113D01*
X165419Y187095D01*
X165466Y187048D01*
X165521Y186965D01*
X165595Y186854D01*
X165669Y186716D01*
X165725Y186558D01*
X165771Y186383D01*
X165789Y186189D01*
Y186179D01*
Y186161D01*
Y186124D01*
X165780Y186078D01*
X165771Y186022D01*
X165762Y185958D01*
X165725Y185810D01*
X165660Y185643D01*
X165623Y185560D01*
X165567Y185467D01*
X165503Y185384D01*
X165438Y185292D01*
X165355Y185209D01*
X165262Y185135D01*
X165271D01*
X165281Y185116D01*
X165308Y185098D01*
X165345Y185061D01*
X165429Y184977D01*
X165530Y184857D01*
X165623Y184700D01*
X165706Y184524D01*
X165743Y184423D01*
X165771Y184312D01*
X165780Y184201D01*
X165789Y184081D01*
Y183563D01*
Y183554D01*
Y183535D01*
Y183507D01*
X165780Y183470D01*
X165771Y183369D01*
X165743Y183239D01*
X165697Y183091D01*
X165623Y182943D01*
X165530Y182777D01*
X165401Y182629D01*
X165382Y182611D01*
X165336Y182574D01*
X165253Y182509D01*
X165142Y182444D01*
X165003Y182370D01*
X164846Y182306D01*
X164671Y182269D01*
X164476Y182250D01*
X163385D01*
X163339Y182269D01*
X163293Y182287D01*
X163247Y182315D01*
X163200Y182361D01*
X163173Y182426D01*
X163164Y182509D01*
Y182518D01*
Y182555D01*
X163182Y182592D01*
X163200Y182648D01*
X163228Y182694D01*
X163274Y182740D01*
X163339Y182768D01*
X163422Y182777D01*
X164523D01*
X164587Y182786D01*
X164661Y182805D01*
X164754Y182833D01*
X164846Y182869D01*
X164939Y182925D01*
X165031Y182999D01*
X165040Y183008D01*
X165068Y183045D01*
X165105Y183091D01*
X165151Y183156D01*
X165188Y183239D01*
X165225Y183332D01*
X165253Y183443D01*
X165262Y183563D01*
Y184081D01*
Y184099D01*
Y184136D01*
X165253Y184201D01*
X165235Y184275D01*
X165207Y184367D01*
X165161Y184460D01*
X165105Y184552D01*
X165022Y184645D01*
X165013Y184654D01*
X164985Y184682D01*
X164929Y184719D01*
X164865Y184765D01*
X164781Y184802D01*
X164689Y184839D01*
X164587Y184867D01*
X164467Y184876D01*
X163903D01*
X163857Y184894D01*
X163811Y184913D01*
X163764Y184940D01*
X163718Y184987D01*
X163690Y185051D01*
X163681Y185135D01*
Y185144D01*
Y185181D01*
X163700Y185218D01*
X163718Y185273D01*
X163746Y185319D01*
X163792Y185366D01*
X163857Y185394D01*
X163940Y185403D01*
X164523D01*
X164587Y185412D01*
X164661Y185431D01*
X164754Y185458D01*
X164846Y185495D01*
X164939Y185551D01*
X165031Y185625D01*
X165040Y185634D01*
X165068Y185671D01*
X165105Y185717D01*
X165151Y185782D01*
X165188Y185865D01*
X165225Y185958D01*
X165253Y186068D01*
X165262Y186189D01*
Y186207D01*
Y186244D01*
X165253Y186300D01*
X165235Y186383D01*
X165207Y186466D01*
X165161Y186558D01*
X165105Y186651D01*
X165031Y186743D01*
X165022Y186753D01*
X164994Y186780D01*
X164939Y186817D01*
X164874Y186864D01*
X164791Y186901D01*
X164698Y186938D01*
X164587Y186965D01*
X164467Y186975D01*
X163385D01*
X163339Y186993D01*
X163293Y187012D01*
X163247Y187039D01*
X163200Y187085D01*
X163173Y187150D01*
X163164Y187233D01*
Y187243D01*
Y187280D01*
X163182Y187317D01*
X163200Y187372D01*
X163228Y187418D01*
X163274Y187465D01*
X163339Y187492D01*
X163422Y187502D01*
X164532D01*
X164569Y187492D01*
D02*
G37*
G36*
X160639D02*
X160695D01*
X160760Y187474D01*
X160917Y187446D01*
X161092Y187391D01*
X161277Y187307D01*
X161370Y187252D01*
X161462Y187196D01*
X161555Y187122D01*
X161647Y187039D01*
X161656Y187030D01*
X161666Y187021D01*
X161693Y186993D01*
X161721Y186956D01*
X161758Y186910D01*
X161795Y186854D01*
X161878Y186725D01*
X161962Y186568D01*
X162036Y186374D01*
X162091Y186161D01*
X162100Y186041D01*
X162110Y185921D01*
Y185911D01*
Y185893D01*
Y185856D01*
X162100Y185800D01*
Y185745D01*
X162091Y185680D01*
X162054Y185514D01*
X161999Y185338D01*
X161925Y185144D01*
X161814Y184959D01*
X161740Y184867D01*
X161666Y184783D01*
X161656D01*
X161647Y184765D01*
X161619Y184746D01*
X161592Y184719D01*
X161490Y184645D01*
X161361Y184571D01*
X161194Y184487D01*
X161000Y184414D01*
X160778Y184367D01*
X160658Y184358D01*
X160529Y184349D01*
X159484D01*
Y182509D01*
Y182500D01*
Y182472D01*
X159474Y182426D01*
X159447Y182379D01*
X159419Y182333D01*
X159373Y182287D01*
X159308Y182259D01*
X159216Y182250D01*
X159179D01*
X159132Y182269D01*
X159086Y182287D01*
X159040Y182315D01*
X158994Y182361D01*
X158966Y182426D01*
X158957Y182509D01*
Y187233D01*
Y187243D01*
Y187280D01*
X158975Y187317D01*
X158994Y187372D01*
X159022Y187418D01*
X159068Y187465D01*
X159132Y187492D01*
X159216Y187502D01*
X160593D01*
X160639Y187492D01*
D02*
G37*
G36*
X77045Y20499D02*
X77249Y20480D01*
X77489Y20425D01*
X77786Y20332D01*
X78101Y20184D01*
X78415Y19999D01*
X78712Y19740D01*
X78748Y19703D01*
X78841Y19610D01*
X78952Y19444D01*
X79100Y19221D01*
X79248Y18944D01*
X79360Y18629D01*
X79452Y18277D01*
X79489Y17888D01*
Y17870D01*
Y17833D01*
Y17759D01*
X79471Y17666D01*
X79452Y17555D01*
X79434Y17425D01*
X79360Y17129D01*
X79230Y16796D01*
X79156Y16629D01*
X79045Y16444D01*
X78915Y16277D01*
X78786Y16092D01*
X78619Y15925D01*
X78434Y15777D01*
X78452D01*
X78471Y15740D01*
X78526Y15703D01*
X78600Y15629D01*
X78767Y15462D01*
X78971Y15222D01*
X79156Y14907D01*
X79323Y14555D01*
X79397Y14351D01*
X79452Y14129D01*
X79471Y13907D01*
X79489Y13666D01*
Y12629D01*
Y12611D01*
Y12574D01*
Y12518D01*
X79471Y12444D01*
X79452Y12241D01*
X79397Y11981D01*
X79304Y11685D01*
X79156Y11389D01*
X78971Y11056D01*
X78712Y10759D01*
X78675Y10722D01*
X78582Y10648D01*
X78415Y10518D01*
X78193Y10389D01*
X77915Y10241D01*
X77600Y10111D01*
X77249Y10037D01*
X76860Y10000D01*
X74675D01*
X74582Y10037D01*
X74490Y10074D01*
X74397Y10130D01*
X74305Y10222D01*
X74249Y10352D01*
X74230Y10518D01*
Y10537D01*
Y10611D01*
X74268Y10685D01*
X74305Y10796D01*
X74360Y10889D01*
X74453Y10981D01*
X74582Y11037D01*
X74749Y11056D01*
X76952D01*
X77082Y11074D01*
X77230Y11111D01*
X77415Y11167D01*
X77600Y11241D01*
X77786Y11352D01*
X77971Y11500D01*
X77989Y11518D01*
X78045Y11593D01*
X78119Y11685D01*
X78212Y11815D01*
X78286Y11981D01*
X78360Y12167D01*
X78415Y12389D01*
X78434Y12629D01*
Y13666D01*
Y13703D01*
Y13777D01*
X78415Y13907D01*
X78378Y14055D01*
X78323Y14240D01*
X78230Y14425D01*
X78119Y14611D01*
X77952Y14796D01*
X77934Y14814D01*
X77878Y14870D01*
X77767Y14944D01*
X77638Y15036D01*
X77471Y15111D01*
X77286Y15185D01*
X77082Y15240D01*
X76841Y15259D01*
X75712D01*
X75619Y15296D01*
X75527Y15333D01*
X75434Y15388D01*
X75342Y15481D01*
X75286Y15611D01*
X75267Y15777D01*
Y15796D01*
Y15870D01*
X75304Y15944D01*
X75342Y16055D01*
X75397Y16148D01*
X75490Y16240D01*
X75619Y16296D01*
X75786Y16314D01*
X76952D01*
X77082Y16333D01*
X77230Y16370D01*
X77415Y16425D01*
X77600Y16499D01*
X77786Y16610D01*
X77971Y16759D01*
X77989Y16777D01*
X78045Y16851D01*
X78119Y16944D01*
X78212Y17073D01*
X78286Y17240D01*
X78360Y17425D01*
X78415Y17647D01*
X78434Y17888D01*
Y17925D01*
Y17999D01*
X78415Y18110D01*
X78378Y18277D01*
X78323Y18444D01*
X78230Y18629D01*
X78119Y18814D01*
X77971Y18999D01*
X77952Y19018D01*
X77897Y19073D01*
X77786Y19147D01*
X77656Y19240D01*
X77489Y19314D01*
X77304Y19388D01*
X77082Y19444D01*
X76841Y19462D01*
X74675D01*
X74582Y19499D01*
X74490Y19536D01*
X74397Y19592D01*
X74305Y19684D01*
X74249Y19814D01*
X74230Y19980D01*
Y19999D01*
Y20073D01*
X74268Y20147D01*
X74305Y20258D01*
X74360Y20351D01*
X74453Y20443D01*
X74582Y20499D01*
X74749Y20517D01*
X76971D01*
X77045Y20499D01*
D02*
G37*
G36*
X110718Y38742D02*
X110773Y38714D01*
X110820Y38687D01*
X110866Y38641D01*
X110893Y38576D01*
X110903Y38483D01*
Y38474D01*
Y38446D01*
X110893Y38400D01*
X110866Y38354D01*
X110838Y38308D01*
X110792Y38261D01*
X110727Y38234D01*
X110635Y38224D01*
X109590D01*
Y33759D01*
Y33750D01*
Y33722D01*
X109581Y33676D01*
X109553Y33629D01*
X109525Y33583D01*
X109479Y33537D01*
X109414Y33509D01*
X109322Y33500D01*
X109285D01*
X109239Y33519D01*
X109192Y33537D01*
X109146Y33565D01*
X109100Y33611D01*
X109072Y33676D01*
X109063Y33759D01*
Y38224D01*
X107972D01*
X107926Y38243D01*
X107879Y38261D01*
X107833Y38289D01*
X107787Y38335D01*
X107759Y38400D01*
X107750Y38483D01*
Y38493D01*
Y38530D01*
X107768Y38567D01*
X107787Y38622D01*
X107815Y38668D01*
X107861Y38714D01*
X107926Y38742D01*
X108009Y38751D01*
X110681D01*
X110718Y38742D01*
D02*
G37*
G36*
X161499Y210249D02*
X161592Y210193D01*
X161684Y210138D01*
X161777Y210045D01*
X161833Y209916D01*
X161851Y209730D01*
Y209712D01*
Y209638D01*
X161814Y209545D01*
X161777Y209453D01*
X158814Y205009D01*
X161777Y200565D01*
X161796Y200546D01*
X161814Y200472D01*
X161833Y200380D01*
X161851Y200268D01*
Y200250D01*
Y200194D01*
X161833Y200102D01*
X161796Y200009D01*
X161721Y199917D01*
X161629Y199824D01*
X161499Y199769D01*
X161333Y199750D01*
X161296D01*
X161166Y199787D01*
X161036Y199843D01*
X160962Y199898D01*
X160888Y199972D01*
X158185Y204046D01*
X155463Y199972D01*
X155426Y199935D01*
X155352Y199861D01*
X155204Y199787D01*
X155111Y199769D01*
X155019Y199750D01*
X154944D01*
X154852Y199787D01*
X154759Y199824D01*
X154667Y199880D01*
X154574Y199972D01*
X154518Y200102D01*
X154500Y200268D01*
Y200306D01*
X154518Y200361D01*
X154537Y200472D01*
X154574Y200565D01*
X157537Y205009D01*
X154574Y209453D01*
X154556Y209471D01*
X154537Y209545D01*
X154518Y209619D01*
X154500Y209730D01*
Y209749D01*
Y209823D01*
X154537Y209897D01*
X154574Y210008D01*
X154630Y210101D01*
X154722Y210193D01*
X154852Y210249D01*
X155019Y210267D01*
X155074D01*
X155185Y210230D01*
X155315Y210175D01*
X155389Y210101D01*
X155463Y210027D01*
X158185Y205953D01*
X160888Y210027D01*
Y210045D01*
X160925Y210064D01*
X160999Y210156D01*
X161147Y210230D01*
X161240Y210249D01*
X161333Y210267D01*
X161407D01*
X161499Y210249D01*
D02*
G37*
G36*
X117569Y38742D02*
X117670Y38733D01*
X117800Y38705D01*
X117939Y38659D01*
X118096Y38585D01*
X118253Y38493D01*
X118401Y38363D01*
X118419Y38345D01*
X118466Y38298D01*
X118521Y38215D01*
X118595Y38104D01*
X118669Y37975D01*
X118724Y37818D01*
X118771Y37633D01*
X118789Y37439D01*
Y35858D01*
Y35839D01*
Y35802D01*
X118780Y35728D01*
X118771Y35636D01*
X118752Y35525D01*
X118724Y35395D01*
X118687Y35247D01*
X118632Y35099D01*
X118567Y34933D01*
X118484Y34757D01*
X118382Y34582D01*
X118262Y34406D01*
X118124Y34230D01*
X117957Y34064D01*
X117763Y33898D01*
X117541Y33750D01*
X117523Y33740D01*
X117476Y33713D01*
X117402Y33666D01*
X117319Y33629D01*
X117218Y33583D01*
X117116Y33537D01*
X117033Y33509D01*
X116949Y33500D01*
X116931D01*
X116885Y33509D01*
X116829Y33528D01*
X116764Y33574D01*
X116755Y33593D01*
X116728Y33629D01*
X116691Y33685D01*
X116681Y33759D01*
Y33768D01*
Y33787D01*
X116691Y33824D01*
X116700Y33861D01*
X116718Y33898D01*
X116737Y33935D01*
X116774Y33962D01*
X116820Y33981D01*
X116829Y33990D01*
X116866Y33999D01*
X116922Y34018D01*
X116986Y34046D01*
X117143Y34120D01*
X117218Y34156D01*
X117291Y34203D01*
X117301Y34212D01*
X117328Y34230D01*
X117375Y34258D01*
X117430Y34304D01*
X117495Y34360D01*
X117569Y34425D01*
X117643Y34499D01*
X117726Y34582D01*
X117818Y34674D01*
X117902Y34785D01*
X117976Y34896D01*
X118050Y35025D01*
X118114Y35155D01*
X118170Y35294D01*
X118216Y35442D01*
X118244Y35599D01*
X117421D01*
X117384Y35608D01*
X117282Y35617D01*
X117153Y35645D01*
X117005Y35691D01*
X116857Y35756D01*
X116691Y35848D01*
X116543Y35978D01*
X116524Y35996D01*
X116487Y36052D01*
X116422Y36126D01*
X116358Y36237D01*
X116284Y36375D01*
X116219Y36533D01*
X116182Y36718D01*
X116164Y36912D01*
Y37429D01*
Y37439D01*
Y37457D01*
Y37485D01*
X116173Y37522D01*
X116182Y37624D01*
X116210Y37753D01*
X116256Y37901D01*
X116321Y38058D01*
X116413Y38215D01*
X116543Y38363D01*
X116561Y38382D01*
X116616Y38428D01*
X116691Y38483D01*
X116801Y38557D01*
X116940Y38631D01*
X117097Y38687D01*
X117282Y38733D01*
X117476Y38751D01*
X117532D01*
X117569Y38742D01*
D02*
G37*
G36*
X113639D02*
X113695D01*
X113760Y38724D01*
X113917Y38696D01*
X114093Y38641D01*
X114277Y38557D01*
X114370Y38502D01*
X114462Y38446D01*
X114555Y38372D01*
X114647Y38289D01*
X114656Y38280D01*
X114666Y38271D01*
X114693Y38243D01*
X114721Y38206D01*
X114758Y38160D01*
X114795Y38104D01*
X114878Y37975D01*
X114962Y37818D01*
X115035Y37624D01*
X115091Y37411D01*
X115100Y37291D01*
X115110Y37171D01*
Y37161D01*
Y37143D01*
Y37106D01*
X115100Y37050D01*
Y36995D01*
X115091Y36930D01*
X115054Y36764D01*
X114999Y36588D01*
X114925Y36394D01*
X114814Y36209D01*
X114740Y36116D01*
X114666Y36033D01*
X114656D01*
X114647Y36015D01*
X114620Y35996D01*
X114592Y35969D01*
X114490Y35895D01*
X114361Y35821D01*
X114194Y35737D01*
X114000Y35663D01*
X113778Y35617D01*
X113658Y35608D01*
X113528Y35599D01*
X112484D01*
Y33759D01*
Y33750D01*
Y33722D01*
X112474Y33676D01*
X112447Y33629D01*
X112419Y33583D01*
X112373Y33537D01*
X112308Y33509D01*
X112216Y33500D01*
X112179D01*
X112132Y33519D01*
X112086Y33537D01*
X112040Y33565D01*
X111994Y33611D01*
X111966Y33676D01*
X111957Y33759D01*
Y38483D01*
Y38493D01*
Y38530D01*
X111975Y38567D01*
X111994Y38622D01*
X112022Y38668D01*
X112068Y38714D01*
X112132Y38742D01*
X112216Y38751D01*
X113593D01*
X113639Y38742D01*
D02*
G37*
G36*
X205879Y66982D02*
X205897Y66964D01*
X205953Y66945D01*
X206045Y66890D01*
X206175Y66797D01*
X206323Y66705D01*
X206471Y66594D01*
X206656Y66445D01*
X206823Y66297D01*
X207008Y66112D01*
X207175Y65908D01*
X207323Y65705D01*
X207471Y65483D01*
X207601Y65223D01*
X207693Y64964D01*
X207749Y64686D01*
X207767Y64390D01*
Y64372D01*
Y64335D01*
Y64279D01*
X207749Y64205D01*
X207730Y64001D01*
X207675Y63761D01*
X207582Y63464D01*
X207434Y63149D01*
X207249Y62835D01*
X206990Y62538D01*
X206953Y62501D01*
X206860Y62409D01*
X206693Y62298D01*
X206471Y62150D01*
X206194Y62002D01*
X205879Y61890D01*
X205527Y61798D01*
X205138Y61761D01*
X205009D01*
X204860Y61779D01*
X204657Y61816D01*
X204434Y61872D01*
X204175Y61965D01*
X203897Y62076D01*
X203620Y62242D01*
X198305Y65557D01*
Y62298D01*
Y62279D01*
Y62205D01*
X198287Y62131D01*
X198231Y62020D01*
X198176Y61927D01*
X198083Y61835D01*
X197954Y61779D01*
X197768Y61761D01*
X197694D01*
X197602Y61779D01*
X197509Y61835D01*
X197417Y61890D01*
X197324Y61983D01*
X197269Y62113D01*
X197250Y62298D01*
Y66501D01*
Y66520D01*
Y66575D01*
X197287Y66668D01*
X197324Y66760D01*
X197380Y66853D01*
X197472Y66945D01*
X197602Y67001D01*
X197768Y67020D01*
X197806D01*
X197861Y67001D01*
X197972Y66982D01*
X198065Y66945D01*
X204268Y63075D01*
X204286Y63057D01*
X204342Y63038D01*
X204434Y63001D01*
X204545Y62946D01*
X204675Y62890D01*
X204823Y62853D01*
X204971Y62835D01*
X205138Y62816D01*
X205249D01*
X205360Y62835D01*
X205527Y62872D01*
X205694Y62927D01*
X205879Y63020D01*
X206064Y63131D01*
X206249Y63279D01*
X206268Y63298D01*
X206323Y63353D01*
X206397Y63464D01*
X206490Y63594D01*
X206564Y63761D01*
X206638Y63946D01*
X206693Y64168D01*
X206712Y64409D01*
Y64427D01*
Y64446D01*
X206693Y64557D01*
X206638Y64723D01*
X206545Y64946D01*
X206471Y65075D01*
X206397Y65205D01*
X206286Y65335D01*
X206157Y65483D01*
X206008Y65631D01*
X205823Y65760D01*
X205638Y65908D01*
X205397Y66057D01*
X205379D01*
X205360Y66075D01*
X205268Y66168D01*
X205175Y66297D01*
X205157Y66390D01*
X205138Y66501D01*
Y66520D01*
Y66575D01*
X205175Y66668D01*
X205212Y66760D01*
X205268Y66853D01*
X205360Y66945D01*
X205490Y67001D01*
X205657Y67020D01*
X205731D01*
X205879Y66982D01*
D02*
G37*
G36*
X71749Y20499D02*
X71842Y20443D01*
X71934Y20388D01*
X72027Y20295D01*
X72083Y20166D01*
X72101Y19980D01*
Y19962D01*
Y19888D01*
X72064Y19795D01*
X72027Y19703D01*
X69064Y15259D01*
X72027Y10815D01*
X72045Y10796D01*
X72064Y10722D01*
X72083Y10630D01*
X72101Y10518D01*
Y10500D01*
Y10444D01*
X72083Y10352D01*
X72045Y10259D01*
X71972Y10167D01*
X71879Y10074D01*
X71749Y10019D01*
X71583Y10000D01*
X71546D01*
X71416Y10037D01*
X71286Y10093D01*
X71212Y10148D01*
X71138Y10222D01*
X68435Y14296D01*
X65713Y10222D01*
X65676Y10185D01*
X65602Y10111D01*
X65454Y10037D01*
X65361Y10019D01*
X65268Y10000D01*
X65194D01*
X65102Y10037D01*
X65009Y10074D01*
X64917Y10130D01*
X64824Y10222D01*
X64769Y10352D01*
X64750Y10518D01*
Y10555D01*
X64769Y10611D01*
X64787Y10722D01*
X64824Y10815D01*
X67787Y15259D01*
X64824Y19703D01*
X64805Y19721D01*
X64787Y19795D01*
X64769Y19869D01*
X64750Y19980D01*
Y19999D01*
Y20073D01*
X64787Y20147D01*
X64824Y20258D01*
X64880Y20351D01*
X64972Y20443D01*
X65102Y20499D01*
X65268Y20517D01*
X65324D01*
X65435Y20480D01*
X65565Y20425D01*
X65639Y20351D01*
X65713Y20277D01*
X68435Y16203D01*
X71138Y20277D01*
Y20295D01*
X71175Y20314D01*
X71249Y20406D01*
X71397Y20480D01*
X71490Y20499D01*
X71583Y20517D01*
X71657D01*
X71749Y20499D01*
D02*
G37*
G36*
X166777Y210249D02*
X166888Y210193D01*
X166980Y210138D01*
X167073Y210045D01*
X167128Y209916D01*
X167147Y209730D01*
Y200268D01*
Y200250D01*
Y200194D01*
X167128Y200102D01*
X167073Y200009D01*
X167017Y199917D01*
X166925Y199824D01*
X166795Y199769D01*
X166610Y199750D01*
X166536D01*
X166443Y199787D01*
X166351Y199824D01*
X166258Y199880D01*
X166166Y199972D01*
X166110Y200102D01*
X166091Y200268D01*
Y208471D01*
X164869Y207249D01*
X164851Y207231D01*
X164777Y207175D01*
X164647Y207120D01*
X164499Y207101D01*
X164425D01*
X164332Y207138D01*
X164240Y207175D01*
X164147Y207231D01*
X164055Y207323D01*
X163999Y207453D01*
X163981Y207638D01*
Y207657D01*
Y207675D01*
X163999Y207768D01*
X164036Y207879D01*
X164129Y208008D01*
X166184Y210064D01*
X166203Y210082D01*
X166221Y210101D01*
X166314Y210175D01*
X166443Y210230D01*
X166536Y210267D01*
X166702D01*
X166777Y210249D01*
D02*
G37*
G36*
X207397Y76463D02*
X207508Y76426D01*
X207601Y76370D01*
X207693Y76278D01*
X207749Y76148D01*
X207767Y75981D01*
Y75963D01*
Y75926D01*
X207730Y75815D01*
X207675Y75685D01*
X207601Y75611D01*
X207527Y75537D01*
X203453Y72815D01*
X207527Y70112D01*
X207545D01*
X207564Y70075D01*
X207656Y70001D01*
X207730Y69852D01*
X207749Y69760D01*
X207767Y69667D01*
Y69649D01*
Y69593D01*
X207749Y69501D01*
X207693Y69408D01*
X207638Y69316D01*
X207545Y69223D01*
X207416Y69167D01*
X207230Y69149D01*
X207138D01*
X207045Y69186D01*
X206953Y69223D01*
X202509Y72186D01*
X198065Y69223D01*
X198046Y69205D01*
X197972Y69186D01*
X197880Y69167D01*
X197768Y69149D01*
X197694D01*
X197602Y69167D01*
X197509Y69205D01*
X197417Y69278D01*
X197324Y69371D01*
X197269Y69501D01*
X197250Y69667D01*
Y69686D01*
Y69704D01*
X197287Y69834D01*
X197343Y69964D01*
X197398Y70038D01*
X197472Y70112D01*
X201546Y72815D01*
X197472Y75537D01*
X197435Y75574D01*
X197361Y75648D01*
X197287Y75796D01*
X197269Y75889D01*
X197250Y75981D01*
Y76000D01*
Y76056D01*
X197287Y76148D01*
X197324Y76241D01*
X197380Y76333D01*
X197472Y76426D01*
X197602Y76481D01*
X197768Y76500D01*
X197806D01*
X197861Y76481D01*
X197972Y76463D01*
X198065Y76426D01*
X202509Y73463D01*
X206953Y76426D01*
X206971Y76444D01*
X207045Y76463D01*
X207119Y76481D01*
X207230Y76500D01*
X207323D01*
X207397Y76463D01*
D02*
G37*
G36*
X9200Y82319D02*
X9255D01*
X9320Y82310D01*
X9486Y82273D01*
X9662Y82218D01*
X9856Y82144D01*
X10041Y82033D01*
X10134Y81959D01*
X10217Y81885D01*
Y81875D01*
X10235Y81866D01*
X10254Y81839D01*
X10281Y81811D01*
X10355Y81709D01*
X10429Y81580D01*
X10513Y81413D01*
X10587Y81219D01*
X10633Y80997D01*
X10642Y80877D01*
X10651Y80747D01*
Y79703D01*
X12528D01*
X12574Y79693D01*
X12621Y79666D01*
X12667Y79638D01*
X12713Y79592D01*
X12741Y79527D01*
X12750Y79435D01*
Y79425D01*
Y79398D01*
X12731Y79351D01*
X12713Y79305D01*
X12685Y79259D01*
X12639Y79213D01*
X12574Y79185D01*
X12491Y79176D01*
X7720D01*
X7683Y79194D01*
X7628Y79213D01*
X7582Y79240D01*
X7535Y79287D01*
X7508Y79351D01*
X7498Y79435D01*
Y80747D01*
Y80757D01*
Y80775D01*
Y80812D01*
X7508Y80858D01*
Y80914D01*
X7526Y80979D01*
X7554Y81136D01*
X7610Y81312D01*
X7693Y81496D01*
X7748Y81589D01*
X7804Y81681D01*
X7878Y81774D01*
X7961Y81866D01*
X7970Y81875D01*
X7979Y81885D01*
X8007Y81912D01*
X8044Y81940D01*
X8090Y81977D01*
X8146Y82014D01*
X8275Y82097D01*
X8432Y82181D01*
X8626Y82254D01*
X8839Y82310D01*
X8959Y82319D01*
X9079Y82329D01*
X9144D01*
X9200Y82319D01*
D02*
G37*
G36*
Y78113D02*
X9255D01*
X9320Y78103D01*
X9486Y78066D01*
X9662Y78011D01*
X9856Y77937D01*
X10041Y77826D01*
X10134Y77752D01*
X10217Y77678D01*
Y77669D01*
X10235Y77660D01*
X10254Y77632D01*
X10281Y77604D01*
X10355Y77502D01*
X10429Y77373D01*
X10513Y77206D01*
X10587Y77012D01*
X10633Y76790D01*
X10642Y76670D01*
X10651Y76541D01*
Y75496D01*
X12528D01*
X12574Y75487D01*
X12621Y75459D01*
X12667Y75431D01*
X12713Y75385D01*
X12741Y75320D01*
X12750Y75228D01*
Y75219D01*
Y75191D01*
X12731Y75145D01*
X12713Y75098D01*
X12685Y75052D01*
X12639Y75006D01*
X12574Y74978D01*
X12491Y74969D01*
X7720D01*
X7683Y74988D01*
X7628Y75006D01*
X7582Y75034D01*
X7535Y75080D01*
X7508Y75145D01*
X7498Y75228D01*
Y76541D01*
Y76550D01*
Y76568D01*
Y76606D01*
X7508Y76652D01*
Y76707D01*
X7526Y76772D01*
X7554Y76929D01*
X7610Y77105D01*
X7693Y77290D01*
X7748Y77382D01*
X7804Y77474D01*
X7878Y77567D01*
X7961Y77660D01*
X7970Y77669D01*
X7979Y77678D01*
X8007Y77706D01*
X8044Y77733D01*
X8090Y77770D01*
X8146Y77807D01*
X8275Y77891D01*
X8432Y77974D01*
X8626Y78048D01*
X8839Y78103D01*
X8959Y78113D01*
X9079Y78122D01*
X9144D01*
X9200Y78113D01*
D02*
G37*
G36*
X9949Y92831D02*
X9995Y92804D01*
X10041Y92776D01*
X10087Y92730D01*
X10115Y92665D01*
X10124Y92573D01*
Y92563D01*
Y92536D01*
X10106Y92489D01*
X10087Y92443D01*
X10059Y92397D01*
X10013Y92351D01*
X9949Y92323D01*
X9865Y92314D01*
X9597D01*
Y91269D01*
X12528D01*
X12574Y91260D01*
X12621Y91232D01*
X12667Y91204D01*
X12713Y91158D01*
X12741Y91093D01*
X12750Y91001D01*
Y90992D01*
Y90964D01*
X12731Y90918D01*
X12713Y90871D01*
X12685Y90825D01*
X12639Y90779D01*
X12574Y90751D01*
X12491Y90742D01*
X9292D01*
X9255Y90760D01*
X9200Y90779D01*
X9154Y90807D01*
X9107Y90853D01*
X9079Y90918D01*
X9070Y91001D01*
Y92573D01*
Y92582D01*
Y92619D01*
X9079Y92656D01*
X9107Y92711D01*
X9135Y92758D01*
X9181Y92804D01*
X9246Y92831D01*
X9338Y92841D01*
X9902D01*
X9949Y92831D01*
D02*
G37*
G36*
X7850Y86526D02*
X7896Y86498D01*
X7942Y86470D01*
X7988Y86424D01*
X8016Y86360D01*
X8026Y86267D01*
Y85222D01*
X12528D01*
X12574Y85213D01*
X12621Y85185D01*
X12667Y85158D01*
X12713Y85111D01*
X12741Y85047D01*
X12750Y84954D01*
Y84945D01*
Y84917D01*
X12731Y84871D01*
X12713Y84825D01*
X12685Y84779D01*
X12639Y84732D01*
X12574Y84705D01*
X12491Y84695D01*
X8026D01*
Y83641D01*
Y83632D01*
Y83604D01*
X8007Y83558D01*
X7988Y83512D01*
X7961Y83466D01*
X7915Y83420D01*
X7850Y83392D01*
X7767Y83383D01*
X7720D01*
X7683Y83401D01*
X7628Y83420D01*
X7582Y83447D01*
X7535Y83493D01*
X7508Y83558D01*
X7498Y83641D01*
Y86267D01*
Y86276D01*
Y86313D01*
X7508Y86350D01*
X7535Y86406D01*
X7563Y86452D01*
X7610Y86498D01*
X7674Y86526D01*
X7767Y86535D01*
X7804D01*
X7850Y86526D01*
D02*
G37*
G36*
X11530Y67073D02*
X11631Y67064D01*
X11761Y67036D01*
X11909Y66990D01*
X12057Y66916D01*
X12223Y66824D01*
X12371Y66694D01*
X12389Y66676D01*
X12426Y66630D01*
X12491Y66546D01*
X12556Y66435D01*
X12630Y66297D01*
X12694Y66139D01*
X12731Y65964D01*
X12750Y65770D01*
Y65760D01*
Y65742D01*
Y65714D01*
X12741Y65677D01*
X12731Y65575D01*
X12704Y65446D01*
X12658Y65298D01*
X12593Y65150D01*
X12500Y64984D01*
X12371Y64836D01*
X12352Y64817D01*
X12297Y64780D01*
X12223Y64716D01*
X12112Y64651D01*
X11973Y64577D01*
X11816Y64512D01*
X11631Y64475D01*
X11437Y64457D01*
X10337D01*
X10300Y64466D01*
X10198Y64475D01*
X10069Y64503D01*
X9921Y64549D01*
X9764Y64614D01*
X9607Y64706D01*
X9459Y64836D01*
X9440Y64854D01*
X9394Y64910D01*
X9338Y64984D01*
X9264Y65095D01*
X9190Y65233D01*
X9135Y65391D01*
X9089Y65575D01*
X9070Y65770D01*
Y65779D01*
Y65797D01*
Y65825D01*
X9079Y65862D01*
X9089Y65964D01*
X9117Y66093D01*
X9163Y66232D01*
X9237Y66389D01*
X9329Y66546D01*
X9459Y66694D01*
X9477Y66713D01*
X9523Y66759D01*
X9607Y66814D01*
X9718Y66888D01*
X9856Y66962D01*
X10013Y67018D01*
X10189Y67064D01*
X10392Y67083D01*
X11493D01*
X11530Y67073D01*
D02*
G37*
G36*
Y63394D02*
X11631Y63384D01*
X11761Y63356D01*
X11909Y63310D01*
X12057Y63236D01*
X12223Y63144D01*
X12371Y63014D01*
X12389Y62996D01*
X12426Y62950D01*
X12491Y62867D01*
X12556Y62756D01*
X12630Y62617D01*
X12694Y62460D01*
X12731Y62275D01*
X12750Y62081D01*
Y62071D01*
Y62034D01*
Y61988D01*
X12741Y61914D01*
X12731Y61831D01*
X12722Y61739D01*
X12704Y61628D01*
X12676Y61498D01*
X12611Y61230D01*
X12565Y61091D01*
X12510Y60943D01*
X12445Y60795D01*
X12362Y60648D01*
X12278Y60500D01*
X12177Y60361D01*
X12158Y60342D01*
X12121Y60306D01*
X12047Y60269D01*
X12010Y60259D01*
X11964Y60250D01*
X11946D01*
X11899Y60259D01*
X11844Y60278D01*
X11789Y60324D01*
X11779Y60333D01*
X11742Y60379D01*
X11715Y60435D01*
X11705Y60509D01*
Y60518D01*
X11715Y60555D01*
X11724Y60601D01*
X11752Y60657D01*
X11761Y60666D01*
X11779Y60703D01*
X11807Y60759D01*
X11844Y60833D01*
X11899Y60934D01*
X11964Y61064D01*
X12029Y61212D01*
X12112Y61387D01*
Y61406D01*
X12131Y61443D01*
X12149Y61507D01*
X12168Y61591D01*
X12186Y61692D01*
X12205Y61813D01*
X12214Y61942D01*
X12223Y62081D01*
Y62099D01*
Y62136D01*
X12214Y62201D01*
X12195Y62275D01*
X12168Y62367D01*
X12131Y62460D01*
X12075Y62552D01*
X12001Y62645D01*
X11992Y62654D01*
X11955Y62682D01*
X11909Y62719D01*
X11844Y62765D01*
X11761Y62802D01*
X11668Y62839D01*
X11557Y62867D01*
X11437Y62876D01*
X11419D01*
X11354Y62867D01*
X11271Y62857D01*
X11169Y62820D01*
X11058Y62765D01*
X10938Y62691D01*
X10827Y62580D01*
X10781Y62506D01*
X10734Y62432D01*
X9976Y60962D01*
Y60953D01*
X9958Y60934D01*
X9939Y60897D01*
X9912Y60851D01*
X9819Y60740D01*
X9764Y60675D01*
X9699Y60611D01*
X9616Y60537D01*
X9532Y60472D01*
X9440Y60416D01*
X9329Y60361D01*
X9218Y60315D01*
X9089Y60278D01*
X8959Y60259D01*
X8811Y60250D01*
X8756D01*
X8719Y60259D01*
X8617Y60269D01*
X8497Y60296D01*
X8349Y60342D01*
X8192Y60407D01*
X8035Y60500D01*
X7887Y60629D01*
X7868Y60648D01*
X7822Y60703D01*
X7767Y60777D01*
X7693Y60888D01*
X7619Y61027D01*
X7563Y61184D01*
X7517Y61369D01*
X7498Y61563D01*
Y61572D01*
Y61600D01*
Y61655D01*
Y61711D01*
X7508Y61794D01*
X7517Y61877D01*
X7526Y61979D01*
X7535Y62090D01*
X7573Y62312D01*
X7619Y62552D01*
X7693Y62774D01*
X7739Y62885D01*
X7785Y62977D01*
Y62987D01*
X7804Y63005D01*
X7850Y63061D01*
X7924Y63107D01*
X7970Y63125D01*
X8026Y63135D01*
X8044D01*
X8090Y63125D01*
X8146Y63098D01*
X8210Y63051D01*
X8220Y63042D01*
X8247Y63005D01*
X8275Y62950D01*
X8284Y62876D01*
Y62867D01*
Y62848D01*
X8275Y62811D01*
X8257Y62765D01*
Y62756D01*
X8247Y62737D01*
X8238Y62709D01*
X8220Y62663D01*
X8201Y62608D01*
X8183Y62543D01*
X8137Y62386D01*
X8099Y62201D01*
X8062Y61997D01*
X8035Y61785D01*
X8026Y61563D01*
Y61544D01*
Y61507D01*
X8035Y61443D01*
X8053Y61369D01*
X8081Y61276D01*
X8127Y61184D01*
X8183Y61091D01*
X8257Y60999D01*
X8266Y60990D01*
X8294Y60962D01*
X8349Y60925D01*
X8414Y60888D01*
X8497Y60851D01*
X8590Y60814D01*
X8691Y60786D01*
X8811Y60777D01*
X8830D01*
X8885Y60786D01*
X8978Y60795D01*
X9079Y60833D01*
X9190Y60879D01*
X9311Y60953D01*
X9422Y61064D01*
X9468Y61128D01*
X9514Y61202D01*
X10272Y62682D01*
Y62691D01*
X10291Y62709D01*
X10309Y62746D01*
X10346Y62793D01*
X10429Y62913D01*
X10485Y62977D01*
X10559Y63042D01*
X10633Y63107D01*
X10716Y63172D01*
X10818Y63236D01*
X10919Y63292D01*
X11030Y63338D01*
X11160Y63375D01*
X11289Y63394D01*
X11437Y63403D01*
X11493D01*
X11530Y63394D01*
D02*
G37*
G36*
X12574Y73906D02*
X12621Y73878D01*
X12667Y73850D01*
X12713Y73804D01*
X12741Y73739D01*
X12750Y73647D01*
Y73638D01*
Y73610D01*
X12731Y73564D01*
X12713Y73517D01*
X12685Y73471D01*
X12639Y73425D01*
X12574Y73397D01*
X12491Y73388D01*
X8626D01*
X10235Y72316D01*
X10244Y72306D01*
X10263Y72297D01*
X10309Y72242D01*
X10365Y72168D01*
X10383Y72121D01*
X10392Y72075D01*
Y72066D01*
Y72057D01*
X10374Y71992D01*
X10355Y71955D01*
X10318Y71909D01*
X10281Y71872D01*
X10226Y71825D01*
X8626Y70762D01*
X12528D01*
X12574Y70753D01*
X12621Y70725D01*
X12667Y70697D01*
X12713Y70651D01*
X12741Y70587D01*
X12750Y70494D01*
Y70485D01*
Y70457D01*
X12731Y70411D01*
X12713Y70365D01*
X12685Y70318D01*
X12639Y70272D01*
X12574Y70244D01*
X12491Y70235D01*
X7720D01*
X7683Y70254D01*
X7628Y70272D01*
X7582Y70300D01*
X7535Y70346D01*
X7508Y70411D01*
X7498Y70494D01*
Y70503D01*
Y70522D01*
X7517Y70577D01*
X7535Y70614D01*
X7554Y70651D01*
X7591Y70688D01*
X7637Y70725D01*
X9653Y72066D01*
X7619Y73425D01*
X7610D01*
X7600Y73443D01*
X7554Y73480D01*
X7517Y73554D01*
X7508Y73591D01*
X7498Y73647D01*
Y73656D01*
Y73693D01*
X7508Y73730D01*
X7535Y73786D01*
X7563Y73832D01*
X7610Y73878D01*
X7674Y73906D01*
X7767Y73915D01*
X12528D01*
X12574Y73906D01*
D02*
G37*
G36*
Y69172D02*
X12621Y69153D01*
X12667Y69117D01*
X12713Y69070D01*
X12741Y69006D01*
X12750Y68922D01*
Y68904D01*
Y68867D01*
X12741Y68793D01*
X12722Y68719D01*
X12704Y68626D01*
X12667Y68525D01*
X12611Y68432D01*
X12547Y68349D01*
X12537Y68340D01*
X12510Y68312D01*
X12463Y68284D01*
X12389Y68247D01*
X12306Y68201D01*
X12214Y68173D01*
X12094Y68146D01*
X11964Y68137D01*
X7720D01*
X7683Y68155D01*
X7628Y68173D01*
X7582Y68201D01*
X7535Y68247D01*
X7508Y68312D01*
X7498Y68395D01*
Y68405D01*
Y68442D01*
X7508Y68479D01*
X7535Y68534D01*
X7563Y68580D01*
X7610Y68626D01*
X7674Y68654D01*
X7767Y68664D01*
X12001D01*
X12029Y68682D01*
X12075Y68700D01*
X12121Y68728D01*
X12158Y68774D01*
X12205Y68839D01*
X12232Y68922D01*
Y68932D01*
X12241Y68959D01*
X12260Y69006D01*
X12288Y69052D01*
X12315Y69098D01*
X12362Y69144D01*
X12417Y69172D01*
X12491Y69181D01*
X12528D01*
X12574Y69172D01*
D02*
G37*
G36*
Y96511D02*
X12621Y96483D01*
X12667Y96456D01*
X12713Y96410D01*
X12741Y96345D01*
X12750Y96252D01*
Y94939D01*
Y94930D01*
Y94921D01*
X12741Y94866D01*
X12731Y94782D01*
X12713Y94681D01*
X12676Y94560D01*
X12621Y94440D01*
X12556Y94311D01*
X12454Y94191D01*
X12436Y94181D01*
X12399Y94144D01*
X12334Y94098D01*
X12241Y94043D01*
X12140Y93987D01*
X12010Y93941D01*
X11862Y93904D01*
X11705Y93895D01*
X10337D01*
X10300Y93904D01*
X10198Y93913D01*
X10069Y93941D01*
X9921Y93987D01*
X9764Y94052D01*
X9607Y94144D01*
X9459Y94274D01*
X9440Y94292D01*
X9394Y94348D01*
X9338Y94422D01*
X9264Y94533D01*
X9190Y94671D01*
X9135Y94829D01*
X9089Y95013D01*
X9070Y95208D01*
Y95217D01*
Y95235D01*
Y95263D01*
X9079Y95300D01*
X9089Y95402D01*
X9117Y95531D01*
X9163Y95670D01*
X9237Y95827D01*
X9329Y95984D01*
X9459Y96132D01*
X9477Y96151D01*
X9523Y96197D01*
X9607Y96252D01*
X9718Y96326D01*
X9847Y96400D01*
X10004Y96456D01*
X10189Y96502D01*
X10383Y96521D01*
X11169D01*
Y94422D01*
X11733D01*
X11770Y94431D01*
X11825Y94440D01*
X11890Y94459D01*
X11946Y94487D01*
X12010Y94523D01*
X12075Y94570D01*
X12084Y94579D01*
X12094Y94597D01*
X12121Y94634D01*
X12149Y94671D01*
X12177Y94727D01*
X12195Y94792D01*
X12214Y94866D01*
X12223Y94939D01*
Y96252D01*
Y96262D01*
Y96299D01*
X12232Y96336D01*
X12260Y96391D01*
X12288Y96437D01*
X12334Y96483D01*
X12399Y96511D01*
X12491Y96521D01*
X12528D01*
X12574Y96511D01*
D02*
G37*
G36*
Y112294D02*
X12621Y112266D01*
X12667Y112238D01*
X12713Y112192D01*
X12741Y112127D01*
X12750Y112035D01*
Y112025D01*
Y111998D01*
X12731Y111951D01*
X12713Y111905D01*
X12685Y111859D01*
X12639Y111813D01*
X12574Y111785D01*
X12491Y111776D01*
X12186D01*
X12149Y111794D01*
X12094Y111813D01*
X12047Y111840D01*
X12001Y111887D01*
X11973Y111951D01*
X11964Y112035D01*
Y112044D01*
Y112081D01*
X11973Y112118D01*
X12001Y112173D01*
X12029Y112219D01*
X12075Y112266D01*
X12140Y112294D01*
X12232Y112303D01*
X12528D01*
X12574Y112294D01*
D02*
G37*
G36*
X10365Y110712D02*
X10457D01*
X10568Y110703D01*
X10679Y110694D01*
X10938Y110666D01*
X11206Y110620D01*
X11483Y110564D01*
X11752Y110491D01*
X11761D01*
X11798Y110472D01*
X11844Y110454D01*
X11909Y110426D01*
X11983Y110389D01*
X12066Y110343D01*
X12251Y110232D01*
X12436Y110075D01*
X12519Y109991D01*
X12593Y109890D01*
X12658Y109788D01*
X12704Y109668D01*
X12741Y109548D01*
X12750Y109409D01*
Y109400D01*
Y109372D01*
X12741Y109335D01*
X12731Y109289D01*
X12722Y109224D01*
X12694Y109150D01*
X12667Y109076D01*
X12621Y108993D01*
X12574Y108900D01*
X12510Y108817D01*
X12426Y108725D01*
X12325Y108632D01*
X12214Y108549D01*
X12084Y108466D01*
X11927Y108383D01*
X11752Y108318D01*
X11742D01*
X11724Y108309D01*
X11678Y108299D01*
X11631Y108281D01*
X11567Y108262D01*
X11483Y108244D01*
X11391Y108225D01*
X11289Y108207D01*
X11178Y108188D01*
X11049Y108170D01*
X10919Y108151D01*
X10771Y108133D01*
X10466Y108105D01*
X10124Y108096D01*
X9967D01*
X9884Y108105D01*
X9791D01*
X9690Y108115D01*
X9570Y108124D01*
X9320Y108151D01*
X9043Y108188D01*
X8765Y108244D01*
X8497Y108318D01*
X8488D01*
X8451Y108336D01*
X8405Y108355D01*
X8340Y108383D01*
X8266Y108420D01*
X8183Y108466D01*
X7998Y108586D01*
X7813Y108734D01*
X7730Y108826D01*
X7656Y108919D01*
X7591Y109030D01*
X7545Y109150D01*
X7508Y109270D01*
X7498Y109409D01*
Y109418D01*
Y109446D01*
X7508Y109483D01*
X7517Y109529D01*
X7526Y109594D01*
X7554Y109658D01*
X7582Y109742D01*
X7628Y109825D01*
X7674Y109908D01*
X7748Y110001D01*
X7822Y110084D01*
X7924Y110176D01*
X8035Y110259D01*
X8173Y110343D01*
X8331Y110426D01*
X8506Y110491D01*
X8515D01*
X8534Y110500D01*
X8571Y110509D01*
X8626Y110528D01*
X8691Y110546D01*
X8774Y110564D01*
X8867Y110583D01*
X8969Y110611D01*
X9079Y110629D01*
X9200Y110648D01*
X9338Y110666D01*
X9477Y110685D01*
X9782Y110712D01*
X10124Y110722D01*
X10281D01*
X10365Y110712D01*
D02*
G37*
G36*
X154852Y152499D02*
X155055Y152480D01*
X155314Y152425D01*
X155611Y152332D01*
X155925Y152184D01*
X156240Y151999D01*
X156537Y151740D01*
X156573Y151703D01*
X156666Y151610D01*
X156777Y151444D01*
X156925Y151221D01*
X157073Y150962D01*
X157184Y150647D01*
X157277Y150277D01*
X157314Y149888D01*
Y144629D01*
Y144611D01*
Y144574D01*
Y144518D01*
X157296Y144444D01*
X157277Y144241D01*
X157222Y143981D01*
X157129Y143685D01*
X156981Y143389D01*
X156796Y143055D01*
X156537Y142759D01*
X156499Y142722D01*
X156407Y142648D01*
X156240Y142519D01*
X156018Y142389D01*
X155740Y142241D01*
X155426Y142111D01*
X155055Y142037D01*
X154666Y142000D01*
X151444D01*
X151352Y142037D01*
X151259Y142074D01*
X151167Y142130D01*
X151074Y142222D01*
X151018Y142352D01*
X151000Y142519D01*
Y151980D01*
Y151999D01*
Y152073D01*
X151037Y152147D01*
X151074Y152258D01*
X151130Y152351D01*
X151222Y152443D01*
X151352Y152499D01*
X151518Y152517D01*
X154777D01*
X154852Y152499D01*
D02*
G37*
G36*
X12574Y115973D02*
X12621Y115946D01*
X12667Y115918D01*
X12713Y115871D01*
X12741Y115807D01*
X12750Y115714D01*
Y113616D01*
Y113606D01*
Y113579D01*
X12731Y113532D01*
X12713Y113486D01*
X12685Y113440D01*
X12639Y113394D01*
X12574Y113366D01*
X12491Y113357D01*
X12473D01*
X12445Y113366D01*
X12389Y113375D01*
X12343Y113394D01*
X9246Y115326D01*
X9237Y115335D01*
X9209Y115344D01*
X9163Y115363D01*
X9107Y115391D01*
X9043Y115419D01*
X8969Y115437D01*
X8895Y115446D01*
X8811Y115456D01*
X8756D01*
X8700Y115446D01*
X8617Y115428D01*
X8534Y115400D01*
X8442Y115354D01*
X8349Y115298D01*
X8257Y115224D01*
X8247Y115215D01*
X8220Y115187D01*
X8183Y115132D01*
X8137Y115067D01*
X8099Y114984D01*
X8062Y114892D01*
X8035Y114781D01*
X8026Y114660D01*
Y114651D01*
Y114642D01*
X8035Y114586D01*
X8062Y114503D01*
X8109Y114392D01*
X8146Y114327D01*
X8183Y114263D01*
X8238Y114198D01*
X8303Y114124D01*
X8377Y114050D01*
X8469Y113985D01*
X8562Y113912D01*
X8682Y113837D01*
X8691D01*
X8700Y113828D01*
X8747Y113782D01*
X8793Y113717D01*
X8802Y113671D01*
X8811Y113616D01*
Y113606D01*
Y113579D01*
X8793Y113532D01*
X8774Y113486D01*
X8747Y113440D01*
X8700Y113394D01*
X8636Y113366D01*
X8553Y113357D01*
X8515D01*
X8442Y113375D01*
X8432Y113385D01*
X8405Y113394D01*
X8358Y113421D01*
X8294Y113468D01*
X8220Y113514D01*
X8146Y113569D01*
X8053Y113643D01*
X7970Y113717D01*
X7878Y113810D01*
X7794Y113912D01*
X7720Y114013D01*
X7646Y114124D01*
X7582Y114254D01*
X7535Y114383D01*
X7508Y114522D01*
X7498Y114670D01*
Y114679D01*
Y114697D01*
Y114725D01*
X7508Y114762D01*
X7517Y114864D01*
X7545Y114984D01*
X7591Y115132D01*
X7665Y115289D01*
X7757Y115446D01*
X7887Y115594D01*
X7905Y115613D01*
X7951Y115659D01*
X8035Y115714D01*
X8146Y115788D01*
X8284Y115862D01*
X8442Y115918D01*
X8617Y115964D01*
X8811Y115983D01*
X8876D01*
X8950Y115973D01*
X9052Y115955D01*
X9163Y115927D01*
X9292Y115881D01*
X9431Y115825D01*
X9570Y115742D01*
X12223Y114087D01*
Y115714D01*
Y115724D01*
Y115761D01*
X12232Y115798D01*
X12260Y115853D01*
X12288Y115899D01*
X12334Y115946D01*
X12399Y115973D01*
X12491Y115983D01*
X12528D01*
X12574Y115973D01*
D02*
G37*
G36*
Y101772D02*
X12621Y101744D01*
X12667Y101716D01*
X12713Y101670D01*
X12741Y101606D01*
X12750Y101513D01*
Y101504D01*
Y101476D01*
X12731Y101430D01*
X12713Y101384D01*
X12685Y101337D01*
X12639Y101291D01*
X12574Y101264D01*
X12491Y101254D01*
X12186D01*
X12149Y101273D01*
X12094Y101291D01*
X12047Y101319D01*
X12001Y101365D01*
X11973Y101430D01*
X11964Y101513D01*
Y101522D01*
Y101559D01*
X11973Y101596D01*
X12001Y101652D01*
X12029Y101698D01*
X12075Y101744D01*
X12140Y101772D01*
X12232Y101781D01*
X12528D01*
X12574Y101772D01*
D02*
G37*
G36*
X9422Y100182D02*
X12537Y99146D01*
X12547D01*
X12574Y99128D01*
X12602Y99109D01*
X12639Y99091D01*
X12685Y99054D01*
X12713Y99008D01*
X12741Y98952D01*
X12750Y98887D01*
Y98878D01*
Y98860D01*
X12741Y98823D01*
X12722Y98786D01*
X12694Y98739D01*
X12658Y98693D01*
X12611Y98656D01*
X12537Y98619D01*
X9422Y97584D01*
X9394D01*
X9338Y97575D01*
X9320D01*
X9274Y97584D01*
X9209Y97602D01*
X9154Y97648D01*
X9144Y97658D01*
X9107Y97704D01*
X9079Y97759D01*
X9070Y97833D01*
Y97843D01*
Y97861D01*
X9079Y97898D01*
X9089Y97935D01*
X9117Y97981D01*
X9144Y98018D01*
X9190Y98055D01*
X9255Y98083D01*
X11659Y98887D01*
X9255Y99683D01*
X9246D01*
X9227Y99692D01*
X9163Y99738D01*
X9126Y99766D01*
X9098Y99812D01*
X9079Y99867D01*
X9070Y99932D01*
Y99941D01*
Y99978D01*
X9079Y100015D01*
X9107Y100071D01*
X9135Y100117D01*
X9181Y100163D01*
X9246Y100191D01*
X9338Y100200D01*
X9366D01*
X9422Y100182D01*
D02*
G37*
G36*
X12574Y107033D02*
X12621Y107005D01*
X12667Y106977D01*
X12713Y106931D01*
X12741Y106866D01*
X12750Y106774D01*
Y106765D01*
Y106737D01*
X12731Y106691D01*
X12713Y106644D01*
X12685Y106598D01*
X12639Y106552D01*
X12574Y106524D01*
X12491Y106515D01*
X12186D01*
X12149Y106533D01*
X12094Y106552D01*
X12047Y106580D01*
X12001Y106626D01*
X11973Y106691D01*
X11964Y106774D01*
Y106783D01*
Y106820D01*
X11973Y106857D01*
X12001Y106912D01*
X12029Y106959D01*
X12075Y107005D01*
X12140Y107033D01*
X12232Y107042D01*
X12528D01*
X12574Y107033D01*
D02*
G37*
G36*
X10365Y105452D02*
X10457D01*
X10568Y105442D01*
X10679Y105433D01*
X10938Y105406D01*
X11206Y105359D01*
X11483Y105304D01*
X11752Y105230D01*
X11761D01*
X11798Y105211D01*
X11844Y105193D01*
X11909Y105165D01*
X11983Y105128D01*
X12066Y105082D01*
X12251Y104971D01*
X12436Y104814D01*
X12519Y104731D01*
X12593Y104629D01*
X12658Y104527D01*
X12704Y104407D01*
X12741Y104287D01*
X12750Y104148D01*
Y104139D01*
Y104111D01*
X12741Y104074D01*
X12731Y104028D01*
X12722Y103963D01*
X12694Y103889D01*
X12667Y103815D01*
X12621Y103732D01*
X12574Y103640D01*
X12510Y103556D01*
X12426Y103464D01*
X12325Y103371D01*
X12214Y103288D01*
X12084Y103205D01*
X11927Y103122D01*
X11752Y103057D01*
X11742D01*
X11724Y103048D01*
X11678Y103039D01*
X11631Y103020D01*
X11567Y103002D01*
X11483Y102983D01*
X11391Y102965D01*
X11289Y102946D01*
X11178Y102928D01*
X11049Y102909D01*
X10919Y102891D01*
X10771Y102872D01*
X10466Y102844D01*
X10124Y102835D01*
X9967D01*
X9884Y102844D01*
X9791D01*
X9690Y102854D01*
X9570Y102863D01*
X9320Y102891D01*
X9043Y102928D01*
X8765Y102983D01*
X8497Y103057D01*
X8488D01*
X8451Y103076D01*
X8405Y103094D01*
X8340Y103122D01*
X8266Y103159D01*
X8183Y103205D01*
X7998Y103325D01*
X7813Y103473D01*
X7730Y103566D01*
X7656Y103658D01*
X7591Y103769D01*
X7545Y103889D01*
X7508Y104009D01*
X7498Y104148D01*
Y104157D01*
Y104185D01*
X7508Y104222D01*
X7517Y104268D01*
X7526Y104333D01*
X7554Y104398D01*
X7582Y104481D01*
X7628Y104564D01*
X7674Y104647D01*
X7748Y104740D01*
X7822Y104823D01*
X7924Y104916D01*
X8035Y104999D01*
X8173Y105082D01*
X8331Y105165D01*
X8506Y105230D01*
X8515D01*
X8534Y105239D01*
X8571Y105248D01*
X8626Y105267D01*
X8691Y105285D01*
X8774Y105304D01*
X8867Y105322D01*
X8969Y105350D01*
X9079Y105368D01*
X9200Y105387D01*
X9338Y105406D01*
X9477Y105424D01*
X9782Y105452D01*
X10124Y105461D01*
X10281D01*
X10365Y105452D01*
D02*
G37*
G36*
X196139Y123742D02*
X196195D01*
X196260Y123724D01*
X196417Y123696D01*
X196592Y123640D01*
X196777Y123557D01*
X196870Y123502D01*
X196962Y123446D01*
X197055Y123372D01*
X197147Y123289D01*
X197156Y123280D01*
X197166Y123271D01*
X197193Y123243D01*
X197221Y123206D01*
X197258Y123160D01*
X197295Y123104D01*
X197378Y122975D01*
X197461Y122818D01*
X197535Y122624D01*
X197591Y122411D01*
X197600Y122291D01*
X197610Y122170D01*
Y122161D01*
Y122143D01*
Y122106D01*
X197600Y122050D01*
Y121995D01*
X197591Y121930D01*
X197554Y121764D01*
X197498Y121588D01*
X197425Y121394D01*
X197314Y121209D01*
X197240Y121117D01*
X197166Y121033D01*
X197156D01*
X197147Y121015D01*
X197119Y120996D01*
X197092Y120969D01*
X196990Y120895D01*
X196861Y120821D01*
X196694Y120737D01*
X196500Y120663D01*
X196278Y120617D01*
X196158Y120608D01*
X196028Y120599D01*
X194984D01*
Y118759D01*
Y118750D01*
Y118722D01*
X194974Y118676D01*
X194947Y118629D01*
X194919Y118583D01*
X194873Y118537D01*
X194808Y118509D01*
X194716Y118500D01*
X194679D01*
X194632Y118518D01*
X194586Y118537D01*
X194540Y118565D01*
X194494Y118611D01*
X194466Y118676D01*
X194457Y118759D01*
Y123483D01*
Y123493D01*
Y123530D01*
X194475Y123567D01*
X194494Y123622D01*
X194521Y123668D01*
X194568Y123715D01*
X194632Y123742D01*
X194716Y123751D01*
X196093D01*
X196139Y123742D01*
D02*
G37*
G36*
X200069D02*
X200170Y123733D01*
X200291Y123705D01*
X200439Y123659D01*
X200596Y123585D01*
X200753Y123493D01*
X200901Y123363D01*
X200919Y123345D01*
X200966Y123299D01*
X201021Y123215D01*
X201095Y123104D01*
X201169Y122966D01*
X201224Y122808D01*
X201271Y122633D01*
X201289Y122439D01*
Y122420D01*
Y122374D01*
X201280Y122300D01*
X201262Y122198D01*
X201234Y122087D01*
X201187Y121958D01*
X201132Y121819D01*
X201049Y121680D01*
X199394Y119027D01*
X201067D01*
X201104Y119018D01*
X201160Y118990D01*
X201206Y118962D01*
X201252Y118916D01*
X201280Y118851D01*
X201289Y118759D01*
Y118750D01*
Y118722D01*
X201280Y118676D01*
X201252Y118629D01*
X201224Y118583D01*
X201178Y118537D01*
X201113Y118509D01*
X201021Y118500D01*
X198885D01*
X198839Y118518D01*
X198793Y118537D01*
X198747Y118565D01*
X198700Y118611D01*
X198673Y118676D01*
X198664Y118759D01*
Y118777D01*
X198673Y118805D01*
X198682Y118861D01*
X198700Y118907D01*
X200633Y122004D01*
X200642Y122013D01*
X200651Y122041D01*
X200670Y122087D01*
X200697Y122143D01*
X200725Y122207D01*
X200744Y122281D01*
X200753Y122355D01*
X200762Y122439D01*
Y122457D01*
Y122494D01*
X200753Y122550D01*
X200735Y122633D01*
X200707Y122716D01*
X200660Y122808D01*
X200605Y122901D01*
X200531Y122993D01*
X200522Y123003D01*
X200494Y123030D01*
X200439Y123067D01*
X200374Y123113D01*
X200291Y123151D01*
X200198Y123188D01*
X200087Y123215D01*
X199967Y123224D01*
X199949D01*
X199893Y123215D01*
X199810Y123188D01*
X199699Y123141D01*
X199634Y123104D01*
X199569Y123067D01*
X199505Y123012D01*
X199431Y122947D01*
X199357Y122873D01*
X199292Y122781D01*
X199218Y122688D01*
X199144Y122568D01*
Y122559D01*
X199135Y122550D01*
X199089Y122503D01*
X199024Y122457D01*
X198978Y122448D01*
X198922Y122439D01*
X198885D01*
X198839Y122457D01*
X198793Y122476D01*
X198747Y122503D01*
X198700Y122550D01*
X198673Y122614D01*
X198664Y122697D01*
Y122707D01*
Y122734D01*
X198682Y122808D01*
X198691Y122818D01*
X198700Y122845D01*
X198728Y122892D01*
X198774Y122956D01*
X198821Y123030D01*
X198876Y123104D01*
X198950Y123197D01*
X199024Y123280D01*
X199116Y123372D01*
X199218Y123456D01*
X199320Y123530D01*
X199431Y123604D01*
X199560Y123668D01*
X199690Y123715D01*
X199828Y123742D01*
X199976Y123751D01*
X200032D01*
X200069Y123742D01*
D02*
G37*
G36*
X73648Y88240D02*
X73741Y88185D01*
X73833Y88129D01*
X73926Y88036D01*
X73981Y87907D01*
X74000Y87722D01*
Y83518D01*
Y83500D01*
Y83444D01*
X73963Y83352D01*
X73926Y83259D01*
X73870Y83167D01*
X73778Y83074D01*
X73648Y83019D01*
X73481Y83000D01*
X63927D01*
X63853Y83037D01*
X63742Y83074D01*
X63649Y83130D01*
X63557Y83222D01*
X63501Y83352D01*
X63483Y83518D01*
Y83537D01*
Y83611D01*
X63501Y83685D01*
X63557Y83796D01*
X63612Y83889D01*
X63705Y83981D01*
X63834Y84037D01*
X64020Y84055D01*
X72945D01*
Y87722D01*
Y87740D01*
Y87814D01*
X72963Y87888D01*
X73019Y87999D01*
X73074Y88092D01*
X73167Y88185D01*
X73296Y88240D01*
X73481Y88259D01*
X73556D01*
X73648Y88240D01*
D02*
G37*
G36*
X62095Y163992D02*
X62151Y163965D01*
X62197Y163937D01*
X62243Y163891D01*
X62271Y163826D01*
X62280Y163733D01*
Y163724D01*
Y163696D01*
X62271Y163650D01*
X62243Y163604D01*
X62216Y163558D01*
X62169Y163512D01*
X62105Y163484D01*
X62012Y163475D01*
X60441D01*
Y161903D01*
X61282D01*
X61319Y161894D01*
X61420Y161884D01*
X61550Y161856D01*
X61689Y161810D01*
X61846Y161736D01*
X62003Y161644D01*
X62151Y161514D01*
X62169Y161496D01*
X62216Y161450D01*
X62271Y161367D01*
X62345Y161256D01*
X62419Y161117D01*
X62474Y160960D01*
X62521Y160775D01*
X62539Y160581D01*
Y160063D01*
Y160054D01*
Y160035D01*
Y160007D01*
X62530Y159970D01*
X62521Y159869D01*
X62493Y159739D01*
X62447Y159591D01*
X62373Y159443D01*
X62280Y159277D01*
X62151Y159129D01*
X62132Y159111D01*
X62086Y159074D01*
X62003Y159009D01*
X61892Y158944D01*
X61753Y158870D01*
X61596Y158806D01*
X61420Y158769D01*
X61226Y158750D01*
X60135D01*
X60089Y158769D01*
X60043Y158787D01*
X59997Y158815D01*
X59950Y158861D01*
X59923Y158926D01*
X59914Y159009D01*
Y159018D01*
Y159055D01*
X59932Y159092D01*
X59950Y159148D01*
X59978Y159194D01*
X60024Y159240D01*
X60089Y159268D01*
X60172Y159277D01*
X61282D01*
X61337Y159286D01*
X61420Y159305D01*
X61504Y159333D01*
X61596Y159369D01*
X61689Y159425D01*
X61781Y159499D01*
X61790Y159508D01*
X61818Y159545D01*
X61855Y159591D01*
X61901Y159656D01*
X61938Y159739D01*
X61975Y159832D01*
X62003Y159943D01*
X62012Y160063D01*
Y160581D01*
Y160599D01*
Y160636D01*
X62003Y160701D01*
X61985Y160775D01*
X61957Y160867D01*
X61911Y160960D01*
X61855Y161052D01*
X61781Y161145D01*
X61772Y161154D01*
X61744Y161182D01*
X61689Y161219D01*
X61624Y161265D01*
X61541Y161302D01*
X61448Y161339D01*
X61347Y161367D01*
X61226Y161376D01*
X60135D01*
X60089Y161394D01*
X60043Y161413D01*
X59997Y161441D01*
X59950Y161487D01*
X59923Y161551D01*
X59914Y161635D01*
Y163733D01*
Y163743D01*
Y163780D01*
X59932Y163817D01*
X59950Y163872D01*
X59978Y163918D01*
X60024Y163965D01*
X60089Y163992D01*
X60172Y164002D01*
X62059D01*
X62095Y163992D01*
D02*
G37*
G36*
X193218Y123742D02*
X193273Y123715D01*
X193319Y123687D01*
X193366Y123640D01*
X193393Y123576D01*
X193403Y123483D01*
Y123474D01*
Y123446D01*
X193393Y123400D01*
X193366Y123354D01*
X193338Y123308D01*
X193292Y123261D01*
X193227Y123234D01*
X193135Y123224D01*
X192090D01*
Y118759D01*
Y118750D01*
Y118722D01*
X192081Y118676D01*
X192053Y118629D01*
X192025Y118583D01*
X191979Y118537D01*
X191914Y118509D01*
X191822Y118500D01*
X191785D01*
X191738Y118518D01*
X191692Y118537D01*
X191646Y118565D01*
X191600Y118611D01*
X191572Y118676D01*
X191563Y118759D01*
Y123224D01*
X190472D01*
X190426Y123243D01*
X190379Y123261D01*
X190333Y123289D01*
X190287Y123335D01*
X190259Y123400D01*
X190250Y123483D01*
Y123493D01*
Y123530D01*
X190268Y123567D01*
X190287Y123622D01*
X190315Y123668D01*
X190361Y123715D01*
X190426Y123742D01*
X190509Y123751D01*
X193181D01*
X193218Y123742D01*
D02*
G37*
G36*
X91648Y73240D02*
X91741Y73185D01*
X91833Y73129D01*
X91926Y73036D01*
X91981Y72907D01*
X92000Y72722D01*
Y70629D01*
Y70611D01*
Y70574D01*
Y70518D01*
X91981Y70444D01*
X91963Y70241D01*
X91907Y69981D01*
X91815Y69685D01*
X91685Y69389D01*
X91500Y69055D01*
X91241Y68759D01*
X91204Y68722D01*
X91093Y68648D01*
X90944Y68519D01*
X90722Y68389D01*
X90445Y68241D01*
X90130Y68111D01*
X89760Y68037D01*
X89371Y68000D01*
X84001D01*
X83927Y68018D01*
X83723Y68037D01*
X83482Y68093D01*
X83186Y68185D01*
X82871Y68315D01*
X82556Y68500D01*
X82260Y68759D01*
X82223Y68796D01*
X82131Y68907D01*
X82020Y69055D01*
X81871Y69278D01*
X81723Y69555D01*
X81612Y69870D01*
X81520Y70241D01*
X81483Y70629D01*
Y72722D01*
Y72740D01*
Y72814D01*
X81501Y72888D01*
X81557Y73000D01*
X81612Y73092D01*
X81705Y73185D01*
X81834Y73240D01*
X82020Y73259D01*
X82094D01*
X82186Y73240D01*
X82279Y73185D01*
X82371Y73129D01*
X82464Y73036D01*
X82520Y72907D01*
X82538Y72722D01*
Y70629D01*
Y70592D01*
Y70518D01*
X82556Y70389D01*
X82594Y70241D01*
X82649Y70055D01*
X82742Y69870D01*
X82853Y69685D01*
X83001Y69500D01*
X83019Y69481D01*
X83075Y69426D01*
X83186Y69352D01*
X83316Y69278D01*
X83482Y69204D01*
X83667Y69130D01*
X83890Y69074D01*
X84130Y69055D01*
X89482D01*
X89611Y69074D01*
X89760Y69111D01*
X89945Y69166D01*
X90130Y69241D01*
X90315Y69352D01*
X90500Y69500D01*
X90519Y69518D01*
X90574Y69592D01*
X90648Y69685D01*
X90722Y69815D01*
X90796Y69981D01*
X90871Y70166D01*
X90926Y70389D01*
X90944Y70629D01*
Y72722D01*
Y72740D01*
Y72814D01*
X90963Y72888D01*
X91019Y73000D01*
X91074Y73092D01*
X91167Y73185D01*
X91296Y73240D01*
X91482Y73259D01*
X91556D01*
X91648Y73240D01*
D02*
G37*
G36*
X166740Y54499D02*
X166851Y54443D01*
X166943Y54388D01*
X167036Y54295D01*
X167091Y54166D01*
X167110Y53980D01*
Y53962D01*
Y53906D01*
X167091Y53814D01*
X167036Y53721D01*
X166980Y53629D01*
X166888Y53536D01*
X166758Y53481D01*
X166573Y53462D01*
X163425D01*
Y50314D01*
X165110D01*
X165184Y50296D01*
X165388Y50277D01*
X165647Y50222D01*
X165925Y50129D01*
X166240Y49981D01*
X166554Y49796D01*
X166851Y49536D01*
X166888Y49499D01*
X166980Y49407D01*
X167091Y49240D01*
X167239Y49018D01*
X167388Y48740D01*
X167499Y48425D01*
X167591Y48055D01*
X167628Y47666D01*
Y46629D01*
Y46611D01*
Y46574D01*
Y46518D01*
X167610Y46444D01*
X167591Y46241D01*
X167536Y45981D01*
X167443Y45685D01*
X167295Y45389D01*
X167110Y45055D01*
X166851Y44759D01*
X166814Y44722D01*
X166721Y44648D01*
X166554Y44518D01*
X166332Y44389D01*
X166054Y44241D01*
X165740Y44111D01*
X165388Y44037D01*
X164999Y44000D01*
X162814D01*
X162721Y44037D01*
X162629Y44074D01*
X162536Y44130D01*
X162444Y44222D01*
X162388Y44352D01*
X162370Y44518D01*
Y44537D01*
Y44611D01*
X162407Y44685D01*
X162444Y44796D01*
X162499Y44889D01*
X162592Y44981D01*
X162721Y45037D01*
X162888Y45055D01*
X165110D01*
X165221Y45074D01*
X165388Y45111D01*
X165555Y45167D01*
X165740Y45241D01*
X165925Y45352D01*
X166110Y45500D01*
X166129Y45518D01*
X166184Y45592D01*
X166258Y45685D01*
X166351Y45815D01*
X166425Y45981D01*
X166499Y46166D01*
X166554Y46389D01*
X166573Y46629D01*
Y47666D01*
Y47703D01*
Y47777D01*
X166554Y47907D01*
X166517Y48055D01*
X166462Y48240D01*
X166369Y48425D01*
X166258Y48611D01*
X166110Y48796D01*
X166091Y48814D01*
X166036Y48870D01*
X165925Y48944D01*
X165795Y49036D01*
X165629Y49111D01*
X165443Y49185D01*
X165240Y49240D01*
X164999Y49259D01*
X162814D01*
X162721Y49296D01*
X162629Y49333D01*
X162536Y49388D01*
X162444Y49481D01*
X162388Y49611D01*
X162370Y49777D01*
Y53980D01*
Y53999D01*
Y54073D01*
X162407Y54147D01*
X162444Y54258D01*
X162499Y54351D01*
X162592Y54443D01*
X162721Y54499D01*
X162888Y54517D01*
X166665D01*
X166740Y54499D01*
D02*
G37*
G36*
X79166Y184499D02*
X79277Y184443D01*
X79369Y184388D01*
X79462Y184295D01*
X79517Y184166D01*
X79536Y183981D01*
Y174519D01*
Y174500D01*
Y174444D01*
X79517Y174352D01*
X79462Y174259D01*
X79406Y174167D01*
X79314Y174074D01*
X79184Y174018D01*
X78999Y174000D01*
X78925D01*
X78832Y174037D01*
X78740Y174074D01*
X78647Y174130D01*
X78555Y174222D01*
X78499Y174352D01*
X78481Y174519D01*
Y182721D01*
X77258Y181499D01*
X77240Y181481D01*
X77166Y181425D01*
X77036Y181370D01*
X76888Y181351D01*
X76814D01*
X76721Y181388D01*
X76629Y181425D01*
X76536Y181481D01*
X76444Y181573D01*
X76388Y181703D01*
X76370Y181888D01*
Y181907D01*
Y181925D01*
X76388Y182018D01*
X76425Y182129D01*
X76518Y182258D01*
X78573Y184314D01*
X78592Y184332D01*
X78610Y184351D01*
X78703Y184425D01*
X78832Y184480D01*
X78925Y184517D01*
X79092D01*
X79166Y184499D01*
D02*
G37*
G36*
X122888Y54499D02*
X122999Y54443D01*
X123092Y54388D01*
X123185Y54295D01*
X123240Y54166D01*
X123259Y53980D01*
Y53962D01*
Y53906D01*
X123240Y53814D01*
X123185Y53721D01*
X123129Y53629D01*
X123036Y53536D01*
X122907Y53481D01*
X122722Y53462D01*
X120518D01*
X120389Y53443D01*
X120240Y53406D01*
X120055Y53351D01*
X119870Y53258D01*
X119685Y53147D01*
X119500Y52999D01*
X119481Y52980D01*
X119426Y52925D01*
X119352Y52814D01*
X119278Y52684D01*
X119204Y52518D01*
X119129Y52333D01*
X119074Y52110D01*
X119056Y51870D01*
Y46629D01*
Y46592D01*
Y46518D01*
X119074Y46389D01*
X119111Y46241D01*
X119167Y46055D01*
X119241Y45870D01*
X119352Y45685D01*
X119500Y45500D01*
X119518Y45481D01*
X119592Y45426D01*
X119685Y45352D01*
X119815Y45278D01*
X119981Y45204D01*
X120167Y45129D01*
X120389Y45074D01*
X120629Y45055D01*
X122814D01*
X122888Y45037D01*
X122999Y44981D01*
X123092Y44926D01*
X123185Y44833D01*
X123240Y44704D01*
X123259Y44518D01*
Y44500D01*
Y44444D01*
X123240Y44352D01*
X123185Y44259D01*
X123129Y44167D01*
X123036Y44074D01*
X122907Y44019D01*
X122722Y44000D01*
X120518D01*
X120444Y44019D01*
X120240Y44037D01*
X119981Y44093D01*
X119685Y44185D01*
X119389Y44315D01*
X119056Y44500D01*
X118759Y44759D01*
X118722Y44796D01*
X118648Y44907D01*
X118518Y45055D01*
X118389Y45278D01*
X118241Y45555D01*
X118111Y45870D01*
X118037Y46241D01*
X118000Y46629D01*
Y51888D01*
Y51907D01*
Y51944D01*
Y51999D01*
X118019Y52073D01*
X118037Y52277D01*
X118093Y52518D01*
X118185Y52814D01*
X118315Y53129D01*
X118500Y53443D01*
X118759Y53740D01*
X118796Y53777D01*
X118907Y53869D01*
X119056Y53980D01*
X119278Y54129D01*
X119555Y54277D01*
X119870Y54388D01*
X120240Y54480D01*
X120629Y54517D01*
X122814D01*
X122888Y54499D01*
D02*
G37*
G36*
X129203D02*
X129314Y54443D01*
X129406Y54388D01*
X129499Y54295D01*
X129554Y54166D01*
X129573Y53980D01*
Y53962D01*
Y53925D01*
X129554Y53851D01*
X129536Y53777D01*
X129462Y53629D01*
X129406Y53573D01*
X129314Y53536D01*
X129295D01*
X129258Y53517D01*
X129203Y53499D01*
X129110Y53481D01*
X129017Y53425D01*
X128888Y53388D01*
X128610Y53258D01*
X128295Y53055D01*
X127943Y52814D01*
X127592Y52518D01*
X127425Y52333D01*
X127258Y52129D01*
Y52110D01*
X127221Y52092D01*
X127147Y51981D01*
X127036Y51796D01*
X126906Y51573D01*
X126758Y51295D01*
X126629Y50999D01*
X126536Y50666D01*
X126462Y50314D01*
X128110D01*
X128184Y50296D01*
X128388Y50277D01*
X128647Y50222D01*
X128943Y50129D01*
X129258Y49981D01*
X129573Y49796D01*
X129869Y49536D01*
X129906Y49499D01*
X129980Y49407D01*
X130110Y49240D01*
X130258Y49018D01*
X130388Y48740D01*
X130517Y48425D01*
X130591Y48074D01*
X130628Y47666D01*
Y46629D01*
Y46611D01*
Y46574D01*
Y46518D01*
X130610Y46444D01*
X130591Y46241D01*
X130536Y45981D01*
X130443Y45685D01*
X130295Y45370D01*
X130110Y45055D01*
X129851Y44759D01*
X129814Y44722D01*
X129721Y44648D01*
X129554Y44518D01*
X129332Y44389D01*
X129054Y44241D01*
X128740Y44111D01*
X128388Y44037D01*
X127999Y44000D01*
X127888D01*
X127814Y44019D01*
X127610Y44037D01*
X127351Y44093D01*
X127055Y44185D01*
X126740Y44315D01*
X126425Y44500D01*
X126129Y44759D01*
X126092Y44796D01*
X126018Y44889D01*
X125888Y45055D01*
X125758Y45278D01*
X125610Y45537D01*
X125481Y45870D01*
X125407Y46222D01*
X125370Y46611D01*
Y49777D01*
Y49796D01*
Y49851D01*
Y49944D01*
X125388Y50073D01*
X125407Y50240D01*
X125425Y50407D01*
X125462Y50610D01*
X125518Y50833D01*
X125666Y51314D01*
X125758Y51573D01*
X125870Y51851D01*
X125999Y52110D01*
X126166Y52388D01*
X126351Y52647D01*
X126555Y52906D01*
X126573Y52925D01*
X126592Y52944D01*
X126647Y52999D01*
X126721Y53073D01*
X126906Y53258D01*
X127147Y53481D01*
X127462Y53721D01*
X127795Y53962D01*
X128166Y54203D01*
X128573Y54388D01*
X128591D01*
X128629Y54406D01*
X128740Y54462D01*
X128888Y54499D01*
X129036Y54517D01*
X129129D01*
X129203Y54499D01*
D02*
G37*
G36*
X73648Y95610D02*
X73741Y95554D01*
X73833Y95499D01*
X73926Y95406D01*
X73981Y95276D01*
X74000Y95091D01*
Y90888D01*
Y90870D01*
Y90814D01*
X73963Y90721D01*
X73926Y90629D01*
X73870Y90536D01*
X73778Y90444D01*
X73648Y90388D01*
X73481Y90370D01*
X73444D01*
X73389Y90388D01*
X73278Y90407D01*
X73185Y90444D01*
X66982Y94314D01*
X66964Y94332D01*
X66908Y94351D01*
X66816Y94388D01*
X66705Y94443D01*
X66575Y94499D01*
X66427Y94536D01*
X66279Y94554D01*
X66112Y94573D01*
X66001D01*
X65890Y94554D01*
X65723Y94517D01*
X65556Y94462D01*
X65371Y94369D01*
X65186Y94258D01*
X65001Y94110D01*
X64982Y94091D01*
X64927Y94036D01*
X64853Y93925D01*
X64760Y93795D01*
X64686Y93629D01*
X64612Y93443D01*
X64556Y93221D01*
X64538Y92980D01*
Y92962D01*
Y92943D01*
X64556Y92832D01*
X64612Y92666D01*
X64705Y92444D01*
X64779Y92314D01*
X64853Y92184D01*
X64964Y92055D01*
X65093Y91906D01*
X65242Y91758D01*
X65427Y91629D01*
X65612Y91481D01*
X65853Y91333D01*
X65871D01*
X65890Y91314D01*
X65982Y91221D01*
X66075Y91092D01*
X66093Y90999D01*
X66112Y90888D01*
Y90870D01*
Y90814D01*
X66075Y90721D01*
X66038Y90629D01*
X65982Y90536D01*
X65890Y90444D01*
X65760Y90388D01*
X65594Y90370D01*
X65519D01*
X65371Y90407D01*
X65353Y90425D01*
X65297Y90444D01*
X65205Y90499D01*
X65075Y90592D01*
X64927Y90684D01*
X64779Y90795D01*
X64594Y90944D01*
X64427Y91092D01*
X64242Y91277D01*
X64075Y91481D01*
X63927Y91684D01*
X63779Y91906D01*
X63649Y92166D01*
X63557Y92425D01*
X63501Y92703D01*
X63483Y92999D01*
Y93018D01*
Y93055D01*
Y93110D01*
X63501Y93184D01*
X63520Y93388D01*
X63575Y93629D01*
X63668Y93925D01*
X63816Y94240D01*
X64001Y94554D01*
X64260Y94851D01*
X64297Y94888D01*
X64390Y94980D01*
X64556Y95091D01*
X64779Y95239D01*
X65057Y95388D01*
X65371Y95499D01*
X65723Y95591D01*
X66112Y95628D01*
X66241D01*
X66390Y95610D01*
X66593Y95573D01*
X66816Y95517D01*
X67075Y95425D01*
X67352Y95314D01*
X67630Y95147D01*
X72945Y91832D01*
Y95091D01*
Y95110D01*
Y95184D01*
X72963Y95258D01*
X73019Y95369D01*
X73074Y95462D01*
X73167Y95554D01*
X73296Y95610D01*
X73481Y95628D01*
X73556D01*
X73648Y95610D01*
D02*
G37*
G36*
X69685Y184499D02*
X69796Y184443D01*
X69889Y184388D01*
X69981Y184295D01*
X70037Y184166D01*
X70055Y183981D01*
Y175056D01*
X73814D01*
X73888Y175037D01*
X74000Y174981D01*
X74092Y174926D01*
X74185Y174833D01*
X74240Y174704D01*
X74259Y174519D01*
Y174500D01*
Y174444D01*
X74240Y174352D01*
X74185Y174259D01*
X74129Y174167D01*
X74036Y174074D01*
X73907Y174018D01*
X73722Y174000D01*
X69444D01*
X69352Y174037D01*
X69259Y174074D01*
X69167Y174130D01*
X69074Y174222D01*
X69019Y174352D01*
X69000Y174519D01*
Y183981D01*
Y183999D01*
Y184073D01*
X69037Y184147D01*
X69074Y184258D01*
X69130Y184351D01*
X69222Y184443D01*
X69352Y184499D01*
X69518Y184517D01*
X69611D01*
X69685Y184499D01*
D02*
G37*
G36*
X159888Y54499D02*
X160000Y54443D01*
X160092Y54388D01*
X160185Y54295D01*
X160240Y54166D01*
X160259Y53980D01*
Y53962D01*
Y53906D01*
X160240Y53814D01*
X160185Y53721D01*
X160129Y53629D01*
X160037Y53536D01*
X159907Y53481D01*
X159722Y53462D01*
X157518D01*
X157389Y53443D01*
X157240Y53406D01*
X157055Y53351D01*
X156870Y53258D01*
X156685Y53147D01*
X156500Y52999D01*
X156481Y52980D01*
X156426Y52925D01*
X156352Y52814D01*
X156278Y52684D01*
X156204Y52518D01*
X156130Y52333D01*
X156074Y52110D01*
X156055Y51870D01*
Y46629D01*
Y46592D01*
Y46518D01*
X156074Y46389D01*
X156111Y46241D01*
X156166Y46055D01*
X156241Y45870D01*
X156352Y45685D01*
X156500Y45500D01*
X156518Y45481D01*
X156592Y45426D01*
X156685Y45352D01*
X156815Y45278D01*
X156981Y45204D01*
X157166Y45129D01*
X157389Y45074D01*
X157629Y45055D01*
X159814D01*
X159888Y45037D01*
X160000Y44981D01*
X160092Y44926D01*
X160185Y44833D01*
X160240Y44704D01*
X160259Y44518D01*
Y44500D01*
Y44444D01*
X160240Y44352D01*
X160185Y44259D01*
X160129Y44167D01*
X160037Y44074D01*
X159907Y44019D01*
X159722Y44000D01*
X157518D01*
X157444Y44019D01*
X157240Y44037D01*
X156981Y44093D01*
X156685Y44185D01*
X156389Y44315D01*
X156055Y44500D01*
X155759Y44759D01*
X155722Y44796D01*
X155648Y44907D01*
X155519Y45055D01*
X155389Y45278D01*
X155241Y45555D01*
X155111Y45870D01*
X155037Y46241D01*
X155000Y46629D01*
Y51888D01*
Y51907D01*
Y51944D01*
Y51999D01*
X155019Y52073D01*
X155037Y52277D01*
X155093Y52518D01*
X155185Y52814D01*
X155315Y53129D01*
X155500Y53443D01*
X155759Y53740D01*
X155796Y53777D01*
X155907Y53869D01*
X156055Y53980D01*
X156278Y54129D01*
X156555Y54277D01*
X156870Y54388D01*
X157240Y54480D01*
X157629Y54517D01*
X159814D01*
X159888Y54499D01*
D02*
G37*
G36*
X89537Y81665D02*
X89630Y81610D01*
X89722Y81554D01*
X89815Y81462D01*
X89871Y81332D01*
X89889Y81147D01*
Y80110D01*
X91556D01*
X91648Y80091D01*
X91741Y80036D01*
X91833Y79980D01*
X91926Y79888D01*
X91981Y79758D01*
X92000Y79573D01*
Y79554D01*
Y79499D01*
X91963Y79406D01*
X91926Y79314D01*
X91870Y79221D01*
X91778Y79128D01*
X91648Y79073D01*
X91482Y79054D01*
X89889D01*
Y75888D01*
Y75869D01*
Y75814D01*
X89852Y75721D01*
X89815Y75629D01*
X89760Y75536D01*
X89667Y75444D01*
X89537Y75388D01*
X89371Y75370D01*
X89222D01*
X81871Y77481D01*
X81853D01*
X81816Y77499D01*
X81742Y77536D01*
X81668Y77592D01*
X81612Y77666D01*
X81538Y77740D01*
X81501Y77869D01*
X81483Y77999D01*
Y78018D01*
Y78073D01*
X81501Y78166D01*
X81557Y78258D01*
X81612Y78351D01*
X81705Y78443D01*
X81834Y78499D01*
X82020Y78517D01*
X82057D01*
X82168Y78499D01*
X88834Y76592D01*
Y79054D01*
X87167D01*
X87093Y79091D01*
X86982Y79128D01*
X86889Y79184D01*
X86797Y79277D01*
X86741Y79406D01*
X86723Y79573D01*
Y79591D01*
Y79665D01*
X86741Y79739D01*
X86797Y79851D01*
X86852Y79943D01*
X86945Y80036D01*
X87075Y80091D01*
X87260Y80110D01*
X88834D01*
Y81147D01*
Y81165D01*
Y81239D01*
X88852Y81313D01*
X88908Y81425D01*
X88963Y81517D01*
X89056Y81610D01*
X89185Y81665D01*
X89371Y81684D01*
X89445D01*
X89537Y81665D01*
D02*
G37*
G36*
X165354Y37992D02*
X165401Y37974D01*
X165447Y37937D01*
X165493Y37891D01*
X165521Y37826D01*
X165539Y37743D01*
Y37724D01*
X165530Y37678D01*
X165077Y35644D01*
X165317D01*
X165354Y35635D01*
X165410Y35607D01*
X165456Y35579D01*
X165502Y35533D01*
X165530Y35468D01*
X165539Y35376D01*
Y35366D01*
Y35339D01*
X165530Y35292D01*
X165502Y35246D01*
X165474Y35200D01*
X165428Y35154D01*
X165364Y35126D01*
X165271Y35117D01*
X164957Y35108D01*
X164476Y32953D01*
Y32944D01*
X164467Y32926D01*
X164448Y32889D01*
X164430Y32852D01*
X164393Y32815D01*
X164356Y32778D01*
X164300Y32759D01*
X164226Y32750D01*
X164189D01*
X164143Y32768D01*
X164097Y32787D01*
X164042Y32815D01*
X164004Y32861D01*
X163967Y32926D01*
X163958Y33009D01*
Y33018D01*
Y33027D01*
X163967Y33064D01*
X164421Y35117D01*
X164180D01*
X164134Y35135D01*
X164088Y35154D01*
X164042Y35182D01*
X163995Y35228D01*
X163967Y35292D01*
X163958Y35376D01*
Y35385D01*
Y35422D01*
X163977Y35459D01*
X163995Y35514D01*
X164023Y35561D01*
X164069Y35607D01*
X164134Y35635D01*
X164217Y35644D01*
X164531Y35635D01*
X164938Y37475D01*
X163135D01*
X163089Y37493D01*
X163043Y37511D01*
X162997Y37539D01*
X162950Y37585D01*
X162923Y37650D01*
X162913Y37733D01*
Y37743D01*
Y37780D01*
X162932Y37817D01*
X162950Y37872D01*
X162978Y37918D01*
X163024Y37964D01*
X163089Y37992D01*
X163172Y38001D01*
X165308D01*
X165354Y37992D01*
D02*
G37*
G36*
X114218Y197992D02*
X114273Y197964D01*
X114319Y197937D01*
X114366Y197891D01*
X114394Y197826D01*
X114403Y197733D01*
Y197724D01*
Y197696D01*
X114394Y197650D01*
X114366Y197604D01*
X114338Y197558D01*
X114292Y197512D01*
X114227Y197484D01*
X114135Y197474D01*
X113090D01*
Y193009D01*
Y193000D01*
Y192972D01*
X113081Y192926D01*
X113053Y192879D01*
X113025Y192833D01*
X112979Y192787D01*
X112914Y192759D01*
X112822Y192750D01*
X112785D01*
X112739Y192768D01*
X112692Y192787D01*
X112646Y192815D01*
X112600Y192861D01*
X112572Y192926D01*
X112563Y193009D01*
Y197474D01*
X111472D01*
X111426Y197493D01*
X111379Y197512D01*
X111333Y197539D01*
X111287Y197586D01*
X111259Y197650D01*
X111250Y197733D01*
Y197743D01*
Y197780D01*
X111269Y197817D01*
X111287Y197872D01*
X111315Y197918D01*
X111361Y197964D01*
X111426Y197992D01*
X111509Y198001D01*
X114181D01*
X114218Y197992D01*
D02*
G37*
G36*
X117139D02*
X117195D01*
X117260Y197974D01*
X117417Y197946D01*
X117592Y197891D01*
X117777Y197807D01*
X117870Y197752D01*
X117962Y197696D01*
X118055Y197622D01*
X118147Y197539D01*
X118156Y197530D01*
X118166Y197521D01*
X118193Y197493D01*
X118221Y197456D01*
X118258Y197410D01*
X118295Y197354D01*
X118378Y197225D01*
X118462Y197068D01*
X118535Y196873D01*
X118591Y196661D01*
X118600Y196541D01*
X118610Y196420D01*
Y196411D01*
Y196393D01*
Y196356D01*
X118600Y196300D01*
Y196245D01*
X118591Y196180D01*
X118554Y196014D01*
X118498Y195838D01*
X118425Y195644D01*
X118314Y195459D01*
X118240Y195366D01*
X118166Y195283D01*
X118156D01*
X118147Y195265D01*
X118119Y195246D01*
X118092Y195219D01*
X117990Y195145D01*
X117861Y195071D01*
X117694Y194987D01*
X117500Y194914D01*
X117278Y194867D01*
X117158Y194858D01*
X117029Y194849D01*
X115984D01*
Y193009D01*
Y193000D01*
Y192972D01*
X115975Y192926D01*
X115947Y192879D01*
X115919Y192833D01*
X115873Y192787D01*
X115808Y192759D01*
X115716Y192750D01*
X115679D01*
X115632Y192768D01*
X115586Y192787D01*
X115540Y192815D01*
X115494Y192861D01*
X115466Y192926D01*
X115457Y193009D01*
Y197733D01*
Y197743D01*
Y197780D01*
X115475Y197817D01*
X115494Y197872D01*
X115521Y197918D01*
X115568Y197964D01*
X115632Y197992D01*
X115716Y198001D01*
X117093D01*
X117139Y197992D01*
D02*
G37*
G36*
X160389Y37992D02*
X160445D01*
X160510Y37974D01*
X160667Y37946D01*
X160842Y37891D01*
X161027Y37807D01*
X161120Y37752D01*
X161212Y37696D01*
X161305Y37622D01*
X161397Y37539D01*
X161406Y37530D01*
X161416Y37521D01*
X161443Y37493D01*
X161471Y37456D01*
X161508Y37410D01*
X161545Y37354D01*
X161628Y37225D01*
X161712Y37068D01*
X161786Y36874D01*
X161841Y36661D01*
X161850Y36541D01*
X161859Y36421D01*
Y36411D01*
Y36393D01*
Y36356D01*
X161850Y36300D01*
Y36245D01*
X161841Y36180D01*
X161804Y36014D01*
X161749Y35838D01*
X161675Y35644D01*
X161564Y35459D01*
X161490Y35366D01*
X161416Y35283D01*
X161406D01*
X161397Y35265D01*
X161369Y35246D01*
X161342Y35219D01*
X161240Y35145D01*
X161111Y35071D01*
X160944Y34987D01*
X160750Y34913D01*
X160528Y34867D01*
X160408Y34858D01*
X160278Y34849D01*
X159234D01*
Y33009D01*
Y33000D01*
Y32972D01*
X159225Y32926D01*
X159197Y32879D01*
X159169Y32833D01*
X159123Y32787D01*
X159058Y32759D01*
X158966Y32750D01*
X158929D01*
X158882Y32768D01*
X158836Y32787D01*
X158790Y32815D01*
X158744Y32861D01*
X158716Y32926D01*
X158707Y33009D01*
Y37733D01*
Y37743D01*
Y37780D01*
X158725Y37817D01*
X158744Y37872D01*
X158771Y37918D01*
X158818Y37964D01*
X158882Y37992D01*
X158966Y38001D01*
X160343D01*
X160389Y37992D01*
D02*
G37*
G36*
X159184Y170499D02*
X159388Y170480D01*
X159628Y170425D01*
X159925Y170332D01*
X160240Y170184D01*
X160554Y169999D01*
X160851Y169740D01*
X160888Y169703D01*
X160980Y169610D01*
X161091Y169443D01*
X161239Y169221D01*
X161388Y168944D01*
X161499Y168629D01*
X161591Y168277D01*
X161628Y167888D01*
Y167851D01*
Y167759D01*
X161610Y167610D01*
X161573Y167407D01*
X161517Y167185D01*
X161425Y166925D01*
X161313Y166647D01*
X161147Y166370D01*
X157832Y161056D01*
X161184D01*
X161258Y161037D01*
X161369Y160981D01*
X161462Y160926D01*
X161554Y160833D01*
X161610Y160704D01*
X161628Y160518D01*
Y160500D01*
Y160444D01*
X161610Y160352D01*
X161554Y160259D01*
X161499Y160167D01*
X161406Y160074D01*
X161276Y160019D01*
X161091Y160000D01*
X156814D01*
X156721Y160037D01*
X156629Y160074D01*
X156536Y160130D01*
X156444Y160222D01*
X156388Y160352D01*
X156370Y160518D01*
Y160555D01*
X156388Y160611D01*
X156407Y160722D01*
X156444Y160815D01*
X160314Y167018D01*
X160332Y167036D01*
X160351Y167092D01*
X160388Y167185D01*
X160443Y167296D01*
X160499Y167425D01*
X160536Y167573D01*
X160554Y167721D01*
X160573Y167888D01*
Y167925D01*
Y167999D01*
X160554Y168110D01*
X160517Y168277D01*
X160462Y168444D01*
X160369Y168629D01*
X160258Y168814D01*
X160110Y168999D01*
X160091Y169018D01*
X160036Y169073D01*
X159925Y169147D01*
X159795Y169240D01*
X159628Y169314D01*
X159443Y169388D01*
X159221Y169443D01*
X158981Y169462D01*
X158943D01*
X158832Y169443D01*
X158666Y169388D01*
X158443Y169295D01*
X158314Y169221D01*
X158184Y169147D01*
X158055Y169036D01*
X157907Y168906D01*
X157758Y168758D01*
X157629Y168573D01*
X157481Y168388D01*
X157332Y168147D01*
Y168129D01*
X157314Y168110D01*
X157221Y168018D01*
X157092Y167925D01*
X156999Y167907D01*
X156888Y167888D01*
X156814D01*
X156721Y167925D01*
X156629Y167962D01*
X156536Y168018D01*
X156444Y168110D01*
X156388Y168240D01*
X156370Y168407D01*
Y168425D01*
Y168481D01*
X156407Y168629D01*
X156425Y168647D01*
X156444Y168703D01*
X156499Y168795D01*
X156592Y168925D01*
X156684Y169073D01*
X156796Y169221D01*
X156944Y169406D01*
X157092Y169573D01*
X157277Y169758D01*
X157481Y169925D01*
X157684Y170073D01*
X157907Y170221D01*
X158166Y170351D01*
X158425Y170443D01*
X158703Y170499D01*
X158999Y170517D01*
X159110D01*
X159184Y170499D01*
D02*
G37*
G36*
X153888D02*
X154000Y170443D01*
X154092Y170388D01*
X154185Y170295D01*
X154240Y170166D01*
X154259Y169981D01*
Y169962D01*
Y169906D01*
X154240Y169814D01*
X154185Y169721D01*
X154129Y169629D01*
X154037Y169536D01*
X153907Y169480D01*
X153722Y169462D01*
X151518D01*
X151389Y169443D01*
X151241Y169406D01*
X151055Y169351D01*
X150870Y169258D01*
X150685Y169147D01*
X150500Y168999D01*
X150481Y168981D01*
X150426Y168925D01*
X150352Y168814D01*
X150278Y168684D01*
X150204Y168518D01*
X150129Y168333D01*
X150074Y168110D01*
X150056Y167870D01*
Y162629D01*
Y162592D01*
Y162518D01*
X150074Y162389D01*
X150111Y162241D01*
X150167Y162055D01*
X150241Y161870D01*
X150352Y161685D01*
X150500Y161500D01*
X150518Y161481D01*
X150592Y161426D01*
X150685Y161352D01*
X150815Y161278D01*
X150981Y161204D01*
X151166Y161129D01*
X151389Y161074D01*
X151629Y161056D01*
X153814D01*
X153888Y161037D01*
X154000Y160981D01*
X154092Y160926D01*
X154185Y160833D01*
X154240Y160704D01*
X154259Y160518D01*
Y160500D01*
Y160444D01*
X154240Y160352D01*
X154185Y160259D01*
X154129Y160167D01*
X154037Y160074D01*
X153907Y160019D01*
X153722Y160000D01*
X151518D01*
X151444Y160019D01*
X151241Y160037D01*
X150981Y160093D01*
X150685Y160185D01*
X150389Y160315D01*
X150056Y160500D01*
X149759Y160759D01*
X149722Y160796D01*
X149648Y160907D01*
X149518Y161056D01*
X149389Y161278D01*
X149241Y161555D01*
X149111Y161870D01*
X149037Y162241D01*
X149000Y162629D01*
Y167888D01*
Y167907D01*
Y167944D01*
Y167999D01*
X149018Y168073D01*
X149037Y168277D01*
X149093Y168518D01*
X149185Y168814D01*
X149315Y169129D01*
X149500Y169443D01*
X149759Y169740D01*
X149796Y169777D01*
X149907Y169869D01*
X150056Y169981D01*
X150278Y170129D01*
X150555Y170277D01*
X150870Y170388D01*
X151241Y170480D01*
X151629Y170517D01*
X153814D01*
X153888Y170499D01*
D02*
G37*
G36*
X157468Y37992D02*
X157523Y37964D01*
X157570Y37937D01*
X157616Y37891D01*
X157643Y37826D01*
X157653Y37733D01*
Y37724D01*
Y37696D01*
X157643Y37650D01*
X157616Y37604D01*
X157588Y37558D01*
X157542Y37511D01*
X157477Y37484D01*
X157385Y37475D01*
X156340D01*
Y33009D01*
Y33000D01*
Y32972D01*
X156331Y32926D01*
X156303Y32879D01*
X156275Y32833D01*
X156229Y32787D01*
X156164Y32759D01*
X156072Y32750D01*
X156035D01*
X155989Y32768D01*
X155942Y32787D01*
X155896Y32815D01*
X155850Y32861D01*
X155822Y32926D01*
X155813Y33009D01*
Y37475D01*
X154722D01*
X154676Y37493D01*
X154629Y37511D01*
X154583Y37539D01*
X154537Y37585D01*
X154509Y37650D01*
X154500Y37733D01*
Y37743D01*
Y37780D01*
X154518Y37817D01*
X154537Y37872D01*
X154565Y37918D01*
X154611Y37964D01*
X154676Y37992D01*
X154759Y38001D01*
X157431D01*
X157468Y37992D01*
D02*
G37*
G36*
X47638Y141499D02*
X47750Y141443D01*
X47842Y141388D01*
X47935Y141295D01*
X47990Y141166D01*
X48009Y140980D01*
Y140962D01*
Y140906D01*
X47990Y140814D01*
X47935Y140721D01*
X47879Y140629D01*
X47786Y140536D01*
X47657Y140480D01*
X47472Y140462D01*
X45268D01*
X45139Y140443D01*
X44991Y140406D01*
X44805Y140351D01*
X44620Y140258D01*
X44435Y140147D01*
X44250Y139999D01*
X44231Y139980D01*
X44176Y139925D01*
X44102Y139814D01*
X44028Y139684D01*
X43954Y139518D01*
X43879Y139333D01*
X43824Y139110D01*
X43805Y138869D01*
Y133629D01*
Y133592D01*
Y133518D01*
X43824Y133389D01*
X43861Y133240D01*
X43917Y133055D01*
X43991Y132870D01*
X44102Y132685D01*
X44250Y132500D01*
X44268Y132481D01*
X44342Y132426D01*
X44435Y132352D01*
X44565Y132278D01*
X44731Y132204D01*
X44916Y132129D01*
X45139Y132074D01*
X45379Y132055D01*
X47564D01*
X47638Y132037D01*
X47750Y131981D01*
X47842Y131926D01*
X47935Y131833D01*
X47990Y131704D01*
X48009Y131518D01*
Y131500D01*
Y131444D01*
X47990Y131352D01*
X47935Y131259D01*
X47879Y131167D01*
X47786Y131074D01*
X47657Y131018D01*
X47472Y131000D01*
X45268D01*
X45194Y131018D01*
X44991Y131037D01*
X44731Y131093D01*
X44435Y131185D01*
X44139Y131315D01*
X43805Y131500D01*
X43509Y131759D01*
X43472Y131796D01*
X43398Y131907D01*
X43268Y132055D01*
X43139Y132278D01*
X42991Y132555D01*
X42861Y132870D01*
X42787Y133240D01*
X42750Y133629D01*
Y138888D01*
Y138907D01*
Y138944D01*
Y138999D01*
X42769Y139073D01*
X42787Y139277D01*
X42843Y139518D01*
X42935Y139814D01*
X43065Y140129D01*
X43250Y140443D01*
X43509Y140740D01*
X43546Y140777D01*
X43657Y140869D01*
X43805Y140980D01*
X44028Y141129D01*
X44305Y141277D01*
X44620Y141388D01*
X44991Y141480D01*
X45379Y141517D01*
X47564D01*
X47638Y141499D01*
D02*
G37*
G36*
X54468Y163992D02*
X54523Y163965D01*
X54570Y163937D01*
X54616Y163891D01*
X54644Y163826D01*
X54653Y163733D01*
Y163724D01*
Y163696D01*
X54644Y163650D01*
X54616Y163604D01*
X54588Y163558D01*
X54542Y163512D01*
X54477Y163484D01*
X54385Y163475D01*
X53340D01*
Y159009D01*
Y159000D01*
Y158972D01*
X53331Y158926D01*
X53303Y158879D01*
X53275Y158833D01*
X53229Y158787D01*
X53164Y158759D01*
X53072Y158750D01*
X53035D01*
X52989Y158769D01*
X52942Y158787D01*
X52896Y158815D01*
X52850Y158861D01*
X52822Y158926D01*
X52813Y159009D01*
Y163475D01*
X51722D01*
X51676Y163493D01*
X51629Y163512D01*
X51583Y163539D01*
X51537Y163585D01*
X51509Y163650D01*
X51500Y163733D01*
Y163743D01*
Y163780D01*
X51519Y163817D01*
X51537Y163872D01*
X51565Y163918D01*
X51611Y163965D01*
X51676Y163992D01*
X51759Y164002D01*
X54431D01*
X54468Y163992D01*
D02*
G37*
G36*
X57389D02*
X57445D01*
X57510Y163974D01*
X57667Y163946D01*
X57842Y163891D01*
X58027Y163807D01*
X58120Y163752D01*
X58212Y163696D01*
X58305Y163622D01*
X58397Y163539D01*
X58407Y163530D01*
X58416Y163521D01*
X58443Y163493D01*
X58471Y163456D01*
X58508Y163410D01*
X58545Y163354D01*
X58628Y163225D01*
X58712Y163068D01*
X58786Y162873D01*
X58841Y162661D01*
X58850Y162541D01*
X58860Y162421D01*
Y162411D01*
Y162393D01*
Y162356D01*
X58850Y162300D01*
Y162245D01*
X58841Y162180D01*
X58804Y162014D01*
X58748Y161838D01*
X58675Y161644D01*
X58564Y161459D01*
X58490Y161367D01*
X58416Y161283D01*
X58407D01*
X58397Y161265D01*
X58369Y161246D01*
X58342Y161219D01*
X58240Y161145D01*
X58111Y161071D01*
X57944Y160987D01*
X57750Y160914D01*
X57528Y160867D01*
X57408Y160858D01*
X57278Y160849D01*
X56234D01*
Y159009D01*
Y159000D01*
Y158972D01*
X56224Y158926D01*
X56197Y158879D01*
X56169Y158833D01*
X56123Y158787D01*
X56058Y158759D01*
X55966Y158750D01*
X55929D01*
X55882Y158769D01*
X55836Y158787D01*
X55790Y158815D01*
X55744Y158861D01*
X55716Y158926D01*
X55707Y159009D01*
Y163733D01*
Y163743D01*
Y163780D01*
X55725Y163817D01*
X55744Y163872D01*
X55771Y163918D01*
X55818Y163965D01*
X55882Y163992D01*
X55966Y164002D01*
X57343D01*
X57389Y163992D01*
D02*
G37*
G36*
X121577Y197992D02*
X121633Y197964D01*
X121679Y197937D01*
X121725Y197891D01*
X121753Y197826D01*
X121762Y197733D01*
Y197724D01*
Y197706D01*
X121753Y197669D01*
X121744Y197632D01*
X121707Y197558D01*
X121679Y197530D01*
X121633Y197512D01*
X121624D01*
X121605Y197502D01*
X121577Y197493D01*
X121531Y197484D01*
X121485Y197456D01*
X121420Y197437D01*
X121281Y197373D01*
X121124Y197271D01*
X120949Y197151D01*
X120773Y197003D01*
X120690Y196910D01*
X120606Y196809D01*
Y196800D01*
X120588Y196790D01*
X120551Y196735D01*
X120496Y196642D01*
X120431Y196532D01*
X120357Y196393D01*
X120292Y196245D01*
X120246Y196078D01*
X120209Y195903D01*
X121032D01*
X121069Y195893D01*
X121171Y195884D01*
X121300Y195856D01*
X121448Y195810D01*
X121605Y195736D01*
X121762Y195644D01*
X121910Y195514D01*
X121929Y195496D01*
X121966Y195450D01*
X122030Y195366D01*
X122104Y195256D01*
X122169Y195117D01*
X122234Y194960D01*
X122271Y194784D01*
X122289Y194581D01*
Y194063D01*
Y194054D01*
Y194035D01*
Y194007D01*
X122280Y193970D01*
X122271Y193869D01*
X122243Y193739D01*
X122197Y193591D01*
X122123Y193434D01*
X122030Y193277D01*
X121901Y193129D01*
X121882Y193111D01*
X121836Y193074D01*
X121753Y193009D01*
X121642Y192944D01*
X121503Y192870D01*
X121346Y192806D01*
X121171Y192768D01*
X120976Y192750D01*
X120921D01*
X120884Y192759D01*
X120782Y192768D01*
X120653Y192796D01*
X120505Y192843D01*
X120348Y192907D01*
X120190Y193000D01*
X120043Y193129D01*
X120024Y193148D01*
X119987Y193194D01*
X119922Y193277D01*
X119858Y193388D01*
X119784Y193517D01*
X119719Y193684D01*
X119682Y193860D01*
X119663Y194054D01*
Y195635D01*
Y195644D01*
Y195672D01*
Y195718D01*
X119673Y195783D01*
X119682Y195866D01*
X119691Y195949D01*
X119710Y196051D01*
X119738Y196162D01*
X119811Y196402D01*
X119858Y196532D01*
X119913Y196670D01*
X119978Y196800D01*
X120061Y196938D01*
X120154Y197068D01*
X120255Y197197D01*
X120265Y197206D01*
X120274Y197216D01*
X120301Y197243D01*
X120338Y197280D01*
X120431Y197373D01*
X120551Y197484D01*
X120708Y197604D01*
X120875Y197724D01*
X121060Y197844D01*
X121263Y197937D01*
X121272D01*
X121291Y197946D01*
X121346Y197974D01*
X121420Y197992D01*
X121494Y198001D01*
X121540D01*
X121577Y197992D01*
D02*
G37*
G36*
X52934Y141499D02*
X53138Y141480D01*
X53379Y141425D01*
X53675Y141332D01*
X53990Y141184D01*
X54304Y140999D01*
X54601Y140740D01*
X54638Y140703D01*
X54730Y140610D01*
X54841Y140443D01*
X54990Y140221D01*
X55138Y139944D01*
X55249Y139629D01*
X55341Y139277D01*
X55378Y138888D01*
Y138869D01*
Y138833D01*
Y138758D01*
X55360Y138666D01*
X55341Y138555D01*
X55323Y138425D01*
X55249Y138129D01*
X55119Y137796D01*
X55045Y137629D01*
X54934Y137444D01*
X54804Y137277D01*
X54675Y137092D01*
X54508Y136925D01*
X54323Y136777D01*
X54341D01*
X54360Y136740D01*
X54415Y136703D01*
X54489Y136629D01*
X54656Y136462D01*
X54860Y136222D01*
X55045Y135907D01*
X55212Y135555D01*
X55286Y135351D01*
X55341Y135129D01*
X55360Y134907D01*
X55378Y134666D01*
Y133629D01*
Y133611D01*
Y133574D01*
Y133518D01*
X55360Y133444D01*
X55341Y133240D01*
X55286Y132981D01*
X55193Y132685D01*
X55045Y132389D01*
X54860Y132055D01*
X54601Y131759D01*
X54564Y131722D01*
X54471Y131648D01*
X54304Y131518D01*
X54082Y131389D01*
X53804Y131241D01*
X53490Y131111D01*
X53138Y131037D01*
X52749Y131000D01*
X50564D01*
X50471Y131037D01*
X50379Y131074D01*
X50286Y131130D01*
X50194Y131222D01*
X50138Y131352D01*
X50120Y131518D01*
Y131537D01*
Y131611D01*
X50157Y131685D01*
X50194Y131796D01*
X50249Y131889D01*
X50342Y131981D01*
X50471Y132037D01*
X50638Y132055D01*
X52842D01*
X52971Y132074D01*
X53119Y132111D01*
X53304Y132167D01*
X53490Y132241D01*
X53675Y132352D01*
X53860Y132500D01*
X53878Y132518D01*
X53934Y132592D01*
X54008Y132685D01*
X54101Y132815D01*
X54175Y132981D01*
X54249Y133166D01*
X54304Y133389D01*
X54323Y133629D01*
Y134666D01*
Y134703D01*
Y134777D01*
X54304Y134907D01*
X54267Y135055D01*
X54212Y135240D01*
X54119Y135426D01*
X54008Y135611D01*
X53841Y135796D01*
X53823Y135814D01*
X53767Y135870D01*
X53656Y135944D01*
X53527Y136037D01*
X53360Y136111D01*
X53175Y136185D01*
X52971Y136240D01*
X52730Y136259D01*
X51601D01*
X51508Y136296D01*
X51416Y136333D01*
X51323Y136388D01*
X51231Y136481D01*
X51175Y136610D01*
X51157Y136777D01*
Y136796D01*
Y136870D01*
X51193Y136944D01*
X51231Y137055D01*
X51286Y137148D01*
X51379Y137240D01*
X51508Y137296D01*
X51675Y137314D01*
X52842D01*
X52971Y137333D01*
X53119Y137370D01*
X53304Y137425D01*
X53490Y137499D01*
X53675Y137610D01*
X53860Y137759D01*
X53878Y137777D01*
X53934Y137851D01*
X54008Y137944D01*
X54101Y138073D01*
X54175Y138240D01*
X54249Y138425D01*
X54304Y138647D01*
X54323Y138888D01*
Y138925D01*
Y138999D01*
X54304Y139110D01*
X54267Y139277D01*
X54212Y139444D01*
X54119Y139629D01*
X54008Y139814D01*
X53860Y139999D01*
X53841Y140018D01*
X53786Y140073D01*
X53675Y140147D01*
X53545Y140240D01*
X53379Y140314D01*
X53193Y140388D01*
X52971Y140443D01*
X52730Y140462D01*
X50564D01*
X50471Y140499D01*
X50379Y140536D01*
X50286Y140592D01*
X50194Y140684D01*
X50138Y140814D01*
X50120Y140980D01*
Y140999D01*
Y141073D01*
X50157Y141147D01*
X50194Y141258D01*
X50249Y141351D01*
X50342Y141443D01*
X50471Y141499D01*
X50638Y141517D01*
X52860D01*
X52934Y141499D01*
D02*
G37*
%LPC*%
G36*
X160529Y186975D02*
X159484D01*
Y184876D01*
X160547D01*
X160602Y184885D01*
X160686Y184894D01*
X160787Y184913D01*
X160908Y184950D01*
X161028Y185005D01*
X161157Y185070D01*
X161277Y185172D01*
X161287Y185190D01*
X161324Y185227D01*
X161370Y185292D01*
X161435Y185384D01*
X161490Y185486D01*
X161536Y185615D01*
X161573Y185763D01*
X161583Y185921D01*
Y185930D01*
Y185939D01*
Y185994D01*
X161564Y186078D01*
X161546Y186179D01*
X161509Y186300D01*
X161453Y186420D01*
X161379Y186549D01*
X161277Y186669D01*
X161268Y186679D01*
X161222Y186716D01*
X161157Y186762D01*
X161074Y186827D01*
X160963Y186882D01*
X160834Y186928D01*
X160686Y186965D01*
X160529Y186975D01*
D02*
G37*
G36*
X117476Y38224D02*
X117421D01*
X117356Y38215D01*
X117282Y38197D01*
X117190Y38169D01*
X117097Y38123D01*
X117005Y38067D01*
X116912Y37993D01*
X116903Y37984D01*
X116875Y37956D01*
X116838Y37901D01*
X116801Y37836D01*
X116764Y37753D01*
X116728Y37661D01*
X116700Y37550D01*
X116691Y37429D01*
Y36912D01*
Y36893D01*
Y36856D01*
X116700Y36791D01*
X116718Y36718D01*
X116746Y36625D01*
X116783Y36533D01*
X116838Y36440D01*
X116912Y36348D01*
X116922Y36338D01*
X116959Y36311D01*
X117005Y36274D01*
X117070Y36237D01*
X117153Y36200D01*
X117245Y36163D01*
X117356Y36135D01*
X117476Y36126D01*
X118262D01*
Y37429D01*
Y37448D01*
Y37485D01*
X118253Y37550D01*
X118235Y37624D01*
X118207Y37716D01*
X118160Y37808D01*
X118105Y37901D01*
X118031Y37993D01*
X118022Y38003D01*
X117994Y38030D01*
X117939Y38067D01*
X117874Y38114D01*
X117791Y38150D01*
X117698Y38187D01*
X117597Y38215D01*
X117476Y38224D01*
D02*
G37*
G36*
X113528D02*
X112484D01*
Y36126D01*
X113547D01*
X113603Y36135D01*
X113686Y36144D01*
X113787Y36163D01*
X113908Y36200D01*
X114028Y36255D01*
X114157Y36320D01*
X114277Y36422D01*
X114287Y36440D01*
X114324Y36477D01*
X114370Y36542D01*
X114435Y36634D01*
X114490Y36736D01*
X114536Y36865D01*
X114573Y37013D01*
X114583Y37171D01*
Y37180D01*
Y37189D01*
Y37245D01*
X114564Y37328D01*
X114545Y37429D01*
X114508Y37550D01*
X114453Y37670D01*
X114379Y37799D01*
X114277Y37919D01*
X114268Y37929D01*
X114222Y37966D01*
X114157Y38012D01*
X114074Y38077D01*
X113963Y38132D01*
X113834Y38178D01*
X113686Y38215D01*
X113528Y38224D01*
D02*
G37*
G36*
X9079Y81802D02*
X9006D01*
X8922Y81783D01*
X8821Y81764D01*
X8700Y81728D01*
X8580Y81672D01*
X8451Y81598D01*
X8331Y81496D01*
X8321Y81487D01*
X8284Y81441D01*
X8238Y81376D01*
X8173Y81293D01*
X8118Y81182D01*
X8072Y81053D01*
X8035Y80905D01*
X8026Y80747D01*
Y79703D01*
X10124D01*
Y80747D01*
Y80757D01*
Y80766D01*
X10115Y80822D01*
X10106Y80905D01*
X10087Y81006D01*
X10050Y81127D01*
X9995Y81247D01*
X9930Y81376D01*
X9828Y81496D01*
X9810Y81506D01*
X9773Y81543D01*
X9708Y81589D01*
X9616Y81654D01*
X9514Y81709D01*
X9385Y81755D01*
X9237Y81792D01*
X9079Y81802D01*
D02*
G37*
G36*
Y77595D02*
X9006D01*
X8922Y77576D01*
X8821Y77558D01*
X8700Y77521D01*
X8580Y77465D01*
X8451Y77391D01*
X8331Y77290D01*
X8321Y77280D01*
X8284Y77234D01*
X8238Y77169D01*
X8173Y77086D01*
X8118Y76975D01*
X8072Y76846D01*
X8035Y76698D01*
X8026Y76541D01*
Y75496D01*
X10124D01*
Y76541D01*
Y76550D01*
Y76559D01*
X10115Y76615D01*
X10106Y76698D01*
X10087Y76800D01*
X10050Y76920D01*
X9995Y77040D01*
X9930Y77169D01*
X9828Y77290D01*
X9810Y77299D01*
X9773Y77336D01*
X9708Y77382D01*
X9616Y77447D01*
X9514Y77502D01*
X9385Y77548D01*
X9237Y77586D01*
X9079Y77595D01*
D02*
G37*
G36*
X11437Y66556D02*
X10337D01*
X10272Y66546D01*
X10198Y66528D01*
X10106Y66500D01*
X10013Y66454D01*
X9921Y66398D01*
X9828Y66324D01*
X9819Y66315D01*
X9791Y66287D01*
X9754Y66232D01*
X9708Y66167D01*
X9671Y66084D01*
X9634Y65992D01*
X9607Y65890D01*
X9597Y65770D01*
Y65751D01*
Y65714D01*
X9607Y65649D01*
X9625Y65575D01*
X9653Y65483D01*
X9699Y65391D01*
X9754Y65298D01*
X9828Y65206D01*
X9838Y65196D01*
X9865Y65169D01*
X9921Y65132D01*
X9986Y65095D01*
X10069Y65058D01*
X10161Y65021D01*
X10272Y64993D01*
X10392Y64984D01*
X11493D01*
X11557Y64993D01*
X11631Y65012D01*
X11724Y65039D01*
X11816Y65076D01*
X11909Y65132D01*
X12001Y65206D01*
X12010Y65215D01*
X12038Y65252D01*
X12075Y65298D01*
X12112Y65363D01*
X12149Y65446D01*
X12186Y65539D01*
X12214Y65649D01*
X12223Y65770D01*
Y65788D01*
Y65825D01*
X12214Y65881D01*
X12195Y65964D01*
X12168Y66047D01*
X12131Y66139D01*
X12075Y66232D01*
X12001Y66324D01*
X11992Y66334D01*
X11955Y66361D01*
X11909Y66398D01*
X11844Y66445D01*
X11761Y66481D01*
X11668Y66519D01*
X11557Y66546D01*
X11437Y66556D01*
D02*
G37*
G36*
X10642Y95993D02*
X10328D01*
X10272Y95984D01*
X10189Y95966D01*
X10106Y95938D01*
X10013Y95892D01*
X9921Y95836D01*
X9828Y95762D01*
X9819Y95753D01*
X9791Y95725D01*
X9754Y95670D01*
X9708Y95605D01*
X9671Y95522D01*
X9634Y95429D01*
X9607Y95328D01*
X9597Y95208D01*
Y95189D01*
Y95152D01*
X9607Y95087D01*
X9625Y95013D01*
X9653Y94921D01*
X9699Y94829D01*
X9754Y94736D01*
X9828Y94644D01*
X9838Y94634D01*
X9865Y94607D01*
X9921Y94570D01*
X9986Y94533D01*
X10069Y94496D01*
X10161Y94459D01*
X10263Y94431D01*
X10383Y94422D01*
X10642D01*
Y95993D01*
D02*
G37*
G36*
X10124Y110195D02*
X9958D01*
X9893Y110185D01*
X9727Y110176D01*
X9542Y110158D01*
X9338Y110130D01*
X9117Y110093D01*
X8904Y110047D01*
X8895D01*
X8867Y110037D01*
X8821Y110028D01*
X8765Y110010D01*
X8700Y109982D01*
X8626Y109964D01*
X8460Y109890D01*
X8303Y109806D01*
X8229Y109751D01*
X8164Y109696D01*
X8109Y109631D01*
X8062Y109557D01*
X8035Y109492D01*
X8026Y109409D01*
Y109400D01*
Y109390D01*
X8035Y109335D01*
X8072Y109261D01*
X8099Y109215D01*
X8137Y109169D01*
X8183Y109113D01*
X8238Y109058D01*
X8312Y109002D01*
X8395Y108956D01*
X8497Y108900D01*
X8617Y108854D01*
X8747Y108808D01*
X8904Y108762D01*
X8913D01*
X8932Y108752D01*
X8959D01*
X9006Y108743D01*
X9061Y108734D01*
X9126Y108715D01*
X9274Y108697D01*
X9459Y108669D01*
X9671Y108642D01*
X9893Y108632D01*
X10124Y108623D01*
X10291D01*
X10365Y108632D01*
X10522Y108642D01*
X10716Y108660D01*
X10919Y108678D01*
X11132Y108715D01*
X11354Y108762D01*
X11363D01*
X11391Y108771D01*
X11437Y108780D01*
X11493Y108799D01*
X11557Y108826D01*
X11631Y108854D01*
X11789Y108919D01*
X11946Y109011D01*
X12020Y109067D01*
X12084Y109122D01*
X12140Y109187D01*
X12186Y109252D01*
X12214Y109326D01*
X12223Y109409D01*
Y109418D01*
Y109427D01*
X12205Y109483D01*
X12177Y109557D01*
X12149Y109603D01*
X12112Y109649D01*
X12066Y109705D01*
X12010Y109760D01*
X11936Y109806D01*
X11853Y109862D01*
X11761Y109908D01*
X11640Y109964D01*
X11511Y110010D01*
X11354Y110047D01*
X11345D01*
X11326Y110056D01*
X11299Y110065D01*
X11252Y110075D01*
X11197Y110084D01*
X11141Y110093D01*
X10984Y110121D01*
X10799Y110148D01*
X10596Y110176D01*
X10365Y110185D01*
X10124Y110195D01*
D02*
G37*
G36*
X154666Y151462D02*
X152055D01*
Y143055D01*
X154777D01*
X154907Y143074D01*
X155055Y143111D01*
X155240Y143167D01*
X155426Y143241D01*
X155611Y143352D01*
X155796Y143500D01*
X155814Y143518D01*
X155870Y143592D01*
X155944Y143685D01*
X156037Y143815D01*
X156111Y143981D01*
X156185Y144166D01*
X156240Y144389D01*
X156259Y144629D01*
Y149870D01*
Y149907D01*
Y149981D01*
X156240Y150110D01*
X156203Y150258D01*
X156148Y150444D01*
X156055Y150629D01*
X155944Y150814D01*
X155796Y150999D01*
X155777Y151018D01*
X155722Y151073D01*
X155611Y151147D01*
X155481Y151240D01*
X155314Y151314D01*
X155129Y151388D01*
X154907Y151444D01*
X154666Y151462D01*
D02*
G37*
G36*
X10124Y104934D02*
X9958D01*
X9893Y104925D01*
X9727Y104916D01*
X9542Y104897D01*
X9338Y104869D01*
X9117Y104832D01*
X8904Y104786D01*
X8895D01*
X8867Y104777D01*
X8821Y104768D01*
X8765Y104749D01*
X8700Y104721D01*
X8626Y104703D01*
X8460Y104629D01*
X8303Y104546D01*
X8229Y104490D01*
X8164Y104435D01*
X8109Y104370D01*
X8062Y104296D01*
X8035Y104231D01*
X8026Y104148D01*
Y104139D01*
Y104130D01*
X8035Y104074D01*
X8072Y104000D01*
X8099Y103954D01*
X8137Y103908D01*
X8183Y103852D01*
X8238Y103797D01*
X8312Y103741D01*
X8395Y103695D01*
X8497Y103640D01*
X8617Y103593D01*
X8747Y103547D01*
X8904Y103501D01*
X8913D01*
X8932Y103492D01*
X8959D01*
X9006Y103482D01*
X9061Y103473D01*
X9126Y103455D01*
X9274Y103436D01*
X9459Y103408D01*
X9671Y103381D01*
X9893Y103371D01*
X10124Y103362D01*
X10291D01*
X10365Y103371D01*
X10522Y103381D01*
X10716Y103399D01*
X10919Y103418D01*
X11132Y103455D01*
X11354Y103501D01*
X11363D01*
X11391Y103510D01*
X11437Y103519D01*
X11493Y103538D01*
X11557Y103566D01*
X11631Y103593D01*
X11789Y103658D01*
X11946Y103750D01*
X12020Y103806D01*
X12084Y103862D01*
X12140Y103926D01*
X12186Y103991D01*
X12214Y104065D01*
X12223Y104148D01*
Y104157D01*
Y104167D01*
X12205Y104222D01*
X12177Y104296D01*
X12149Y104342D01*
X12112Y104389D01*
X12066Y104444D01*
X12010Y104499D01*
X11936Y104546D01*
X11853Y104601D01*
X11761Y104647D01*
X11640Y104703D01*
X11511Y104749D01*
X11354Y104786D01*
X11345D01*
X11326Y104795D01*
X11299Y104804D01*
X11252Y104814D01*
X11197Y104823D01*
X11141Y104832D01*
X10984Y104860D01*
X10799Y104888D01*
X10596Y104916D01*
X10365Y104925D01*
X10124Y104934D01*
D02*
G37*
G36*
X196028Y123224D02*
X194984D01*
Y121126D01*
X196047D01*
X196102Y121135D01*
X196186Y121144D01*
X196287Y121163D01*
X196408Y121200D01*
X196528Y121255D01*
X196657Y121320D01*
X196777Y121422D01*
X196787Y121440D01*
X196824Y121477D01*
X196870Y121542D01*
X196935Y121634D01*
X196990Y121736D01*
X197036Y121865D01*
X197073Y122013D01*
X197083Y122170D01*
Y122180D01*
Y122189D01*
Y122245D01*
X197064Y122328D01*
X197045Y122429D01*
X197008Y122550D01*
X196953Y122670D01*
X196879Y122799D01*
X196777Y122919D01*
X196768Y122929D01*
X196722Y122966D01*
X196657Y123012D01*
X196574Y123077D01*
X196463Y123132D01*
X196334Y123178D01*
X196186Y123215D01*
X196028Y123224D01*
D02*
G37*
G36*
X127999Y49259D02*
X126425D01*
Y46629D01*
Y46592D01*
Y46518D01*
X126444Y46389D01*
X126481Y46241D01*
X126536Y46055D01*
X126610Y45870D01*
X126721Y45685D01*
X126869Y45500D01*
X126888Y45481D01*
X126962Y45426D01*
X127055Y45352D01*
X127184Y45278D01*
X127351Y45204D01*
X127536Y45129D01*
X127758Y45074D01*
X127999Y45055D01*
X128110D01*
X128221Y45074D01*
X128388Y45111D01*
X128554Y45167D01*
X128740Y45241D01*
X128925Y45352D01*
X129110Y45500D01*
X129129Y45518D01*
X129184Y45592D01*
X129258Y45685D01*
X129351Y45815D01*
X129425Y45981D01*
X129499Y46166D01*
X129554Y46389D01*
X129573Y46629D01*
Y47666D01*
Y47703D01*
Y47777D01*
X129554Y47907D01*
X129517Y48055D01*
X129462Y48240D01*
X129369Y48425D01*
X129258Y48611D01*
X129110Y48796D01*
X129092Y48814D01*
X129036Y48870D01*
X128925Y48944D01*
X128795Y49036D01*
X128629Y49111D01*
X128443Y49185D01*
X128240Y49240D01*
X127999Y49259D01*
D02*
G37*
G36*
X117029Y197474D02*
X115984D01*
Y195376D01*
X117047D01*
X117102Y195385D01*
X117186Y195394D01*
X117287Y195413D01*
X117408Y195450D01*
X117528Y195505D01*
X117657Y195570D01*
X117777Y195672D01*
X117787Y195690D01*
X117824Y195727D01*
X117870Y195792D01*
X117935Y195884D01*
X117990Y195986D01*
X118036Y196115D01*
X118073Y196263D01*
X118083Y196420D01*
Y196430D01*
Y196439D01*
Y196495D01*
X118064Y196578D01*
X118046Y196679D01*
X118008Y196800D01*
X117953Y196920D01*
X117879Y197049D01*
X117777Y197169D01*
X117768Y197179D01*
X117722Y197216D01*
X117657Y197262D01*
X117574Y197327D01*
X117463Y197382D01*
X117334Y197428D01*
X117186Y197465D01*
X117029Y197474D01*
D02*
G37*
G36*
X160278Y37475D02*
X159234D01*
Y35376D01*
X160297D01*
X160352Y35385D01*
X160436Y35394D01*
X160537Y35413D01*
X160658Y35450D01*
X160778Y35505D01*
X160907Y35570D01*
X161027Y35672D01*
X161037Y35690D01*
X161074Y35727D01*
X161120Y35792D01*
X161185Y35884D01*
X161240Y35986D01*
X161286Y36115D01*
X161323Y36263D01*
X161332Y36421D01*
Y36430D01*
Y36439D01*
Y36495D01*
X161314Y36578D01*
X161296Y36679D01*
X161259Y36800D01*
X161203Y36920D01*
X161129Y37049D01*
X161027Y37169D01*
X161018Y37179D01*
X160972Y37216D01*
X160907Y37262D01*
X160824Y37327D01*
X160713Y37382D01*
X160584Y37428D01*
X160436Y37465D01*
X160278Y37475D01*
D02*
G37*
G36*
X57278Y163475D02*
X56234D01*
Y161376D01*
X57297D01*
X57352Y161385D01*
X57436Y161394D01*
X57537Y161413D01*
X57658Y161450D01*
X57778Y161505D01*
X57907Y161570D01*
X58027Y161672D01*
X58037Y161690D01*
X58074Y161727D01*
X58120Y161792D01*
X58185Y161884D01*
X58240Y161986D01*
X58286Y162115D01*
X58323Y162263D01*
X58333Y162421D01*
Y162430D01*
Y162439D01*
Y162495D01*
X58314Y162578D01*
X58295Y162679D01*
X58259Y162800D01*
X58203Y162920D01*
X58129Y163049D01*
X58027Y163169D01*
X58018Y163179D01*
X57972Y163216D01*
X57907Y163262D01*
X57824Y163327D01*
X57713Y163382D01*
X57584Y163428D01*
X57436Y163465D01*
X57278Y163475D01*
D02*
G37*
G36*
X120976Y195376D02*
X120190D01*
Y194063D01*
Y194044D01*
Y194007D01*
X120200Y193943D01*
X120218Y193869D01*
X120246Y193776D01*
X120283Y193684D01*
X120338Y193591D01*
X120412Y193499D01*
X120422Y193490D01*
X120459Y193462D01*
X120505Y193425D01*
X120570Y193388D01*
X120653Y193351D01*
X120745Y193314D01*
X120856Y193286D01*
X120976Y193277D01*
X121032D01*
X121087Y193286D01*
X121171Y193305D01*
X121254Y193333D01*
X121346Y193370D01*
X121439Y193425D01*
X121531Y193499D01*
X121540Y193508D01*
X121568Y193545D01*
X121605Y193591D01*
X121651Y193656D01*
X121688Y193739D01*
X121725Y193832D01*
X121753Y193943D01*
X121762Y194063D01*
Y194581D01*
Y194599D01*
Y194636D01*
X121753Y194701D01*
X121735Y194775D01*
X121707Y194867D01*
X121660Y194960D01*
X121605Y195052D01*
X121531Y195145D01*
X121522Y195154D01*
X121494Y195182D01*
X121439Y195219D01*
X121374Y195265D01*
X121291Y195302D01*
X121198Y195339D01*
X121097Y195366D01*
X120976Y195376D01*
D02*
G37*
%LPD*%
D18*
X152167Y185350D02*
G03*
X152167Y185350I-7517J0D01*
G01*
X106817Y45300D02*
G03*
X106817Y45300I-7517J0D01*
G01*
X152917Y44000D02*
G03*
X152917Y44000I-7517J0D01*
G01*
X79017Y155000D02*
G03*
X79017Y155000I-7517J0D01*
G01*
X107517Y196000D02*
G03*
X107517Y196000I-7517J0D01*
G01*
X202017Y109500D02*
G03*
X202017Y109500I-7517J0D01*
G01*
X145250Y158750D02*
Y171250D01*
X118750Y158750D02*
Y171250D01*
Y158750D02*
X145250D01*
X118750Y171250D02*
X145250D01*
X121600Y238700D02*
X147000Y238700D01*
Y213300D02*
Y238700D01*
X121600Y213300D02*
Y238700D01*
X147000Y232350D02*
X153350Y238700D01*
X166050Y238700D01*
X172400Y232350D01*
Y219650D02*
Y232350D01*
X166050Y213300D02*
X172400Y219650D01*
X153350Y213300D02*
X166050Y213300D01*
X147000Y219650D02*
X153350Y213300D01*
X121600D02*
X147000Y213300D01*
X80750Y85750D02*
X93250D01*
X80750Y112250D02*
X93250D01*
X80750Y85750D02*
Y112250D01*
X93250Y85750D02*
Y112250D01*
X137250Y58750D02*
Y71250D01*
X110750Y58750D02*
Y71250D01*
Y58750D02*
X137250D01*
X110750Y71250D02*
X137250D01*
X174250Y58750D02*
Y71250D01*
X147750Y58750D02*
Y71250D01*
Y58750D02*
X174250D01*
X147750Y71250D02*
X174250D01*
X86000Y129750D02*
Y142250D01*
X59500Y129750D02*
Y142250D01*
Y129750D02*
X86000D01*
X59500Y142250D02*
X86000D01*
X212300Y134600D02*
X212300Y160000D01*
X237700D01*
X212300Y134600D02*
X237700D01*
X212300Y166350D02*
X218650Y160000D01*
X212300Y166350D02*
X212300Y179050D01*
X218650Y185400D01*
X231350D01*
X237700Y179050D01*
X237700Y166350D01*
X231350Y160000D02*
X237700Y166350D01*
X237700Y160000D02*
X237700Y134600D01*
X237700Y106300D02*
Y131700D01*
X212300Y106300D02*
X237700D01*
X212300Y131700D02*
X237700D01*
X231350Y106300D02*
X237700Y99950D01*
Y87250D02*
Y99950D01*
X231350Y80900D02*
X237700Y87250D01*
X218650Y80900D02*
X231350D01*
X212300Y87250D02*
X218650Y80900D01*
X212300Y87250D02*
Y99950D01*
X218650Y106300D01*
X212300D02*
Y131700D01*
X212300Y74550D02*
X218650Y80900D01*
X212300Y61850D02*
X212300Y74550D01*
X212300Y61850D02*
X218650Y55500D01*
X231350D01*
X237700Y61850D01*
X237700Y74550D02*
X237700Y61850D01*
X231350Y80900D02*
X237700Y74550D01*
X62750Y99750D02*
Y126250D01*
X75250Y99750D02*
Y126250D01*
X62750Y99750D02*
X75250D01*
X62750Y126250D02*
X75250D01*
X114000Y162000D02*
Y168000D01*
X86000D02*
X114000D01*
X86000Y162000D02*
Y168000D01*
Y162000D02*
X114000D01*
X132700Y2300D02*
X158100Y2300D01*
X132700Y2300D02*
Y27700D01*
X158100Y2300D02*
Y27700D01*
X126350Y2300D02*
X132700Y8650D01*
X113650Y2300D02*
X126350Y2300D01*
X107300Y8650D02*
X113650Y2300D01*
X107300Y8650D02*
Y21350D01*
X113650Y27700D01*
X126350Y27700D01*
X132700Y21350D01*
X132700Y27700D02*
X158100Y27700D01*
X100950D02*
X107300Y21350D01*
X88250Y27700D02*
X100950Y27700D01*
X81900Y21350D02*
X88250Y27700D01*
X81900Y8650D02*
Y21350D01*
Y8650D02*
X88250Y2300D01*
X100950Y2300D01*
X107300Y8650D01*
X108000Y130250D02*
Y137000D01*
X114750D01*
X155250D02*
X162000D01*
Y130250D02*
Y137000D01*
Y83000D02*
Y89750D01*
X155250Y83000D02*
X162000D01*
X108000D02*
Y89750D01*
Y83000D02*
X114750D01*
X83000Y213300D02*
X108400D01*
X83000D02*
Y238700D01*
X108400Y213300D02*
Y238700D01*
X76650Y213300D02*
X83000Y219650D01*
X63950Y213300D02*
X76650D01*
X57600Y219650D02*
X63950Y213300D01*
X57600Y219650D02*
Y232350D01*
X63950Y238700D01*
X76650D01*
X83000Y232350D01*
Y238700D02*
X108400D01*
D19*
X102750Y135500D02*
G03*
X102750Y135500I-1250J0D01*
G01*
M02*
