G04 Layer_Color=16711935*
%FSLAX44Y44*%
%MOMM*%
G71*
G01*
G75*
%ADD30C,1.2032*%
%ADD36C,2.2032*%
%ADD37R,2.2032X2.2032*%
%ADD38R,2.2032X2.2032*%
%ADD39C,5.2032*%
%ADD41R,1.2032X0.7032*%
%ADD42R,0.7032X1.2032*%
D30*
X178350Y190000D02*
D03*
X157950D02*
D03*
X137550D02*
D03*
X190000Y102000D02*
D03*
X69000Y55060D02*
D03*
X196000Y167000D02*
D03*
D36*
X159700Y226000D02*
D03*
X225000Y172700D02*
D03*
X225000Y68200D02*
D03*
Y93600D02*
D03*
X94600Y15000D02*
D03*
X120000D02*
D03*
X70300Y226000D02*
D03*
D37*
X134300D02*
D03*
X145400Y15000D02*
D03*
X95700Y226000D02*
D03*
D38*
X225000Y147300D02*
D03*
X225000Y119000D02*
D03*
D39*
X210000Y210000D02*
D03*
X30000D02*
D03*
Y30000D02*
D03*
X210000D02*
D03*
D41*
X14000Y81500D02*
D03*
Y74500D02*
D03*
X28000Y81500D02*
D03*
Y74500D02*
D03*
X14000Y102500D02*
D03*
Y95500D02*
D03*
X28000Y102500D02*
D03*
Y95500D02*
D03*
X165000Y40500D02*
D03*
Y47500D02*
D03*
X151000Y40500D02*
D03*
Y47500D02*
D03*
X123000Y40500D02*
D03*
Y47500D02*
D03*
X109000Y40500D02*
D03*
X109000Y47500D02*
D03*
X14000Y123500D02*
D03*
Y116500D02*
D03*
X28000Y123500D02*
D03*
X28000Y116500D02*
D03*
X14000Y144500D02*
D03*
Y137500D02*
D03*
X28000Y144500D02*
D03*
Y137500D02*
D03*
X14000Y165500D02*
D03*
Y158500D02*
D03*
X28000Y165500D02*
D03*
Y158500D02*
D03*
D42*
X196500Y82000D02*
D03*
X189500D02*
D03*
X196500Y68000D02*
D03*
X189500Y68000D02*
D03*
X199000Y147250D02*
D03*
X192000D02*
D03*
X199000Y133250D02*
D03*
X192000D02*
D03*
M02*
