G04 Layer_Physical_Order=1*
G04 Layer_Color=255*
%FSLAX44Y44*%
%MOMM*%
G71*
G01*
G75*
%ADD10R,3.1500X3.1500*%
%ADD11R,0.2500X1.0000*%
%ADD12R,1.0000X0.2500*%
%ADD13R,3.0000X1.4000*%
%ADD14R,0.8500X0.8500*%
%ADD15C,1.0000*%
%ADD16R,0.8500X0.8500*%
%ADD17C,0.7500*%
%ADD18C,0.2000*%
%ADD19C,0.5000*%
%ADD20C,0.2500*%
%ADD21R,2.0000X2.0000*%
%ADD22C,2.0000*%
%ADD23C,5.0000*%
%ADD24R,2.0000X2.0000*%
%ADD25C,0.6000*%
%ADD26C,1.2000*%
G36*
X106531Y113780D02*
X106510Y113822D01*
X106451Y113860D01*
X106350Y113892D01*
X106210Y113921D01*
X106031Y113945D01*
X105550Y113980D01*
X104530Y114000D01*
Y116000D01*
X104910Y116002D01*
X106210Y116079D01*
X106350Y116108D01*
X106451Y116140D01*
X106510Y116178D01*
X106531Y116220D01*
Y113780D01*
D02*
G37*
G36*
X179970Y118000D02*
X179667Y117993D01*
X179376Y117966D01*
X179095Y117918D01*
X178825Y117851D01*
X178566Y117763D01*
X178318Y117655D01*
X178081Y117526D01*
X177854Y117378D01*
X177639Y117209D01*
X177434Y117020D01*
X176020Y118434D01*
X176209Y118639D01*
X176378Y118854D01*
X176526Y119081D01*
X176655Y119318D01*
X176763Y119566D01*
X176851Y119825D01*
X176918Y120095D01*
X176966Y120376D01*
X176993Y120667D01*
X177000Y120970D01*
X179970Y118000D01*
D02*
G37*
G36*
X94033Y122339D02*
X94518Y122058D01*
X95107Y121810D01*
X95799Y121595D01*
X96594Y121413D01*
X97492Y121264D01*
X99597Y121066D01*
X100804Y121017D01*
X102114Y121000D01*
Y119000D01*
X100804Y118983D01*
X97492Y118735D01*
X96594Y118587D01*
X95799Y118405D01*
X95107Y118190D01*
X94518Y117942D01*
X94033Y117661D01*
X93650Y117347D01*
Y122653D01*
X94033Y122339D01*
D02*
G37*
G36*
X170168Y110118D02*
X170065Y110135D01*
X169952Y110130D01*
X169829Y110103D01*
X169697Y110054D01*
X169556Y109983D01*
X169405Y109889D01*
X169245Y109773D01*
X169075Y109635D01*
X168707Y109293D01*
X167293Y110707D01*
X167475Y110896D01*
X167773Y111245D01*
X167889Y111405D01*
X167983Y111556D01*
X168054Y111697D01*
X168103Y111829D01*
X168130Y111952D01*
X168135Y112065D01*
X168118Y112168D01*
X170168Y110118D01*
D02*
G37*
G36*
X103502Y111151D02*
X102646Y110294D01*
X101454Y110898D01*
X101531Y111397D01*
X101707Y112295D01*
X101740Y112421D01*
X102976D01*
X103502Y111151D01*
D02*
G37*
G36*
X100707Y114293D02*
X100600Y114158D01*
X100495Y113968D01*
X100392Y113724D01*
X100290Y113425D01*
X100091Y112663D01*
X99900Y111683D01*
X99714Y110484D01*
X95484Y114714D01*
X96110Y114806D01*
X98425Y115290D01*
X98724Y115392D01*
X98968Y115495D01*
X99158Y115600D01*
X99293Y115707D01*
X100707Y114293D01*
D02*
G37*
G36*
X108309Y131736D02*
X108453Y131220D01*
X108673Y130670D01*
X108972Y130086D01*
X109347Y129470D01*
X109800Y128819D01*
X110937Y127418D01*
X111034Y127312D01*
X111354Y127070D01*
X111709Y126836D01*
X112064Y126639D01*
X112416Y126477D01*
X112768Y126351D01*
X113119Y126261D01*
X113468Y126207D01*
X113816Y126189D01*
X112087D01*
X112384Y125884D01*
X110616Y124116D01*
X109832Y124878D01*
X108284Y126189D01*
X106745D01*
X107069Y126207D01*
X107320Y126261D01*
X107500Y126351D01*
X107608Y126477D01*
X107644Y126639D01*
X107626Y126739D01*
X107030Y127153D01*
X106414Y127528D01*
X105830Y127826D01*
X105280Y128047D01*
X104764Y128190D01*
X104281Y128256D01*
X108244Y132219D01*
X108309Y131736D01*
D02*
G37*
G36*
X170500Y138637D02*
X170871Y138537D01*
X170982Y138403D01*
X171074Y138274D01*
X171149Y138149D01*
X171209Y138027D01*
X171257Y137905D01*
X171294Y137781D01*
X171320Y137653D01*
X171337Y137517D01*
X171345Y137306D01*
X171420Y137143D01*
Y125826D01*
X170003Y124409D01*
X168830Y124895D01*
Y137143D01*
X168905Y137306D01*
X168913Y137517D01*
X168930Y137653D01*
X168956Y137781D01*
X168993Y137905D01*
X169041Y138027D01*
X169101Y138149D01*
X169176Y138274D01*
X169268Y138403D01*
X169379Y138537D01*
X169750Y138637D01*
X170500Y138637D01*
D02*
G37*
G36*
X159510Y127834D02*
X159540Y127488D01*
X159590Y127184D01*
X159660Y126920D01*
X159750Y126697D01*
X159860Y126514D01*
X159990Y126372D01*
X160140Y126270D01*
X160310Y126209D01*
X160500Y126189D01*
X156500D01*
X156690Y126209D01*
X156860Y126270D01*
X157010Y126372D01*
X157140Y126514D01*
X157250Y126697D01*
X157340Y126920D01*
X157410Y127184D01*
X157460Y127488D01*
X157490Y127834D01*
X157500Y128219D01*
X159500D01*
X159510Y127834D01*
D02*
G37*
G36*
X174889Y120203D02*
X174953Y119721D01*
X174947Y119713D01*
X174804Y119558D01*
X174742Y119390D01*
X174706Y119354D01*
X174147Y118517D01*
X174112Y118341D01*
X172901Y117626D01*
X172360Y117796D01*
X172007Y119117D01*
X173458Y120568D01*
X174180Y120602D01*
X174889Y120203D01*
D02*
G37*
G36*
X106531Y118780D02*
X106510Y118822D01*
X106451Y118860D01*
X106350Y118892D01*
X106210Y118921D01*
X106031Y118945D01*
X105550Y118980D01*
X104530Y119000D01*
Y121000D01*
X104910Y121002D01*
X106210Y121079D01*
X106350Y121108D01*
X106451Y121140D01*
X106510Y121178D01*
X106531Y121220D01*
Y118780D01*
D02*
G37*
G36*
X39891Y121639D02*
X39704Y121413D01*
X39539Y121181D01*
X39396Y120942D01*
X39275Y120697D01*
X39176Y120445D01*
X39099Y120187D01*
X39044Y119922D01*
X39011Y119650D01*
X39000Y119372D01*
X37000D01*
X36989Y119650D01*
X36956Y119922D01*
X36901Y120187D01*
X36824Y120445D01*
X36725Y120697D01*
X36604Y120942D01*
X36461Y121181D01*
X36296Y121413D01*
X36109Y121639D01*
X35900Y121858D01*
X40100D01*
X39891Y121639D01*
D02*
G37*
G36*
X150842Y80850D02*
X151032Y80745D01*
X151276Y80642D01*
X151575Y80540D01*
X152337Y80342D01*
X153317Y80149D01*
X154516Y79964D01*
X150286Y75733D01*
X150194Y76361D01*
X149710Y78675D01*
X149608Y78974D01*
X149505Y79218D01*
X149400Y79408D01*
X149293Y79543D01*
X150707Y80957D01*
X150842Y80850D01*
D02*
G37*
G36*
X40857Y81003D02*
X40829Y80732D01*
X40828Y80469D01*
X40856Y80214D01*
X40911Y79966D01*
X40994Y79725D01*
X41104Y79492D01*
X41242Y79266D01*
X41408Y79047D01*
X41602Y78836D01*
X39830Y77779D01*
X39635Y77962D01*
X39428Y78134D01*
X39209Y78293D01*
X38978Y78440D01*
X38735Y78576D01*
X38479Y78699D01*
X38212Y78811D01*
X37933Y78910D01*
X37339Y79074D01*
X40912Y81280D01*
X40857Y81003D01*
D02*
G37*
G36*
X81220Y100220D02*
X92780D01*
X92780Y100220D01*
X93950Y99980D01*
Y86599D01*
X89931Y82579D01*
X68644D01*
X68289Y83849D01*
X69331Y85207D01*
X70089Y87039D01*
X70348Y89004D01*
X70089Y90970D01*
X69331Y92802D01*
X68394Y94022D01*
X68394Y94051D01*
X68359Y94135D01*
X68338Y94211D01*
X68311Y94349D01*
X68163Y96666D01*
X68159Y97299D01*
X68137Y97353D01*
Y97525D01*
X70833Y100221D01*
X74779D01*
Y100617D01*
X81220D01*
Y100220D01*
D02*
G37*
G36*
X3677Y33679D02*
X3388Y30000D01*
X3716Y25837D01*
X4690Y21776D01*
X6288Y17918D01*
X8470Y14358D01*
X11182Y11182D01*
X14358Y8470D01*
X17918Y6288D01*
X21776Y4690D01*
X25837Y3716D01*
X30000Y3388D01*
X33679Y3677D01*
X34245Y2768D01*
X33842Y2070D01*
X30000D01*
Y2071D01*
X25631Y2415D01*
X21369Y3438D01*
X17320Y5115D01*
X13584Y7405D01*
X10251Y10251D01*
X7405Y13584D01*
X5115Y17320D01*
X3438Y21369D01*
X2415Y25631D01*
X2071Y30000D01*
X2070D01*
Y33842D01*
X2768Y34245D01*
X3677Y33679D01*
D02*
G37*
G36*
X120000Y3370D02*
X121817Y3610D01*
X122032Y3502D01*
X122078Y3258D01*
X121094Y2070D01*
X118906D01*
X117922Y3258D01*
X117968Y3502D01*
X118183Y3610D01*
X120000Y3370D01*
D02*
G37*
G36*
X237930Y33842D02*
Y30000D01*
X237929D01*
X237585Y25631D01*
X236562Y21369D01*
X234885Y17320D01*
X232595Y13584D01*
X229749Y10251D01*
X226416Y7405D01*
X222680Y5115D01*
X218631Y3438D01*
X214369Y2415D01*
X210000Y2071D01*
Y2070D01*
X206158D01*
X205755Y2768D01*
X206321Y3677D01*
X210000Y3388D01*
X214163Y3716D01*
X218224Y4690D01*
X222082Y6288D01*
X225642Y8470D01*
X228818Y11182D01*
X231530Y14358D01*
X233711Y17918D01*
X235310Y21776D01*
X236284Y25837D01*
X236612Y30000D01*
X236322Y33679D01*
X237232Y34245D01*
X237930Y33842D01*
D02*
G37*
G36*
X66508Y96608D02*
X66665Y94141D01*
X66724Y93834D01*
X66791Y93590D01*
X66868Y93409D01*
X66953Y93289D01*
X58553D01*
X58639Y93409D01*
X58715Y93590D01*
X58783Y93834D01*
X58841Y94141D01*
X58891Y94509D01*
X58963Y95434D01*
X59003Y97288D01*
X66503D01*
X66508Y96608D01*
D02*
G37*
G36*
X166233Y98231D02*
X166040Y98377D01*
X165766Y98508D01*
X165413Y98623D01*
X164980Y98723D01*
X164467Y98808D01*
X163203Y98931D01*
X161620Y98992D01*
X160709Y99000D01*
Y101000D01*
X161620Y101008D01*
X164467Y101192D01*
X164980Y101277D01*
X165413Y101377D01*
X165766Y101492D01*
X166040Y101623D01*
X166233Y101769D01*
Y98231D01*
D02*
G37*
G36*
X39891Y100639D02*
X39704Y100413D01*
X39539Y100181D01*
X39396Y99942D01*
X39275Y99697D01*
X39176Y99445D01*
X39099Y99187D01*
X39044Y98921D01*
X39011Y98650D01*
X39000Y98372D01*
X37000D01*
X36989Y98650D01*
X36956Y98921D01*
X36901Y99187D01*
X36824Y99445D01*
X36725Y99697D01*
X36604Y99942D01*
X36461Y100181D01*
X36296Y100413D01*
X36109Y100639D01*
X35900Y100858D01*
X40100D01*
X39891Y100639D01*
D02*
G37*
G36*
X116859Y91859D02*
X117220Y91709D01*
Y89024D01*
X116513Y88883D01*
X115676Y88324D01*
X115676Y88324D01*
X111063Y83711D01*
X109889Y84197D01*
Y87241D01*
X113324Y90676D01*
X113883Y91513D01*
X114024Y92220D01*
X116709D01*
X116859Y91859D01*
D02*
G37*
G36*
X160701Y94224D02*
X162845Y92341D01*
X163267Y92038D01*
X163644Y91803D01*
X163975Y91635D01*
X164261Y91534D01*
X164501Y91500D01*
X162000Y88998D01*
X161966Y89239D01*
X161865Y89525D01*
X161697Y89856D01*
X161462Y90233D01*
X161159Y90655D01*
X160352Y91636D01*
X159276Y92799D01*
X158637Y93449D01*
X160051Y94863D01*
X160701Y94224D01*
D02*
G37*
G36*
X237930Y94694D02*
Y92506D01*
X236742Y91522D01*
X236499Y91568D01*
X236390Y91783D01*
X236630Y93600D01*
X236390Y95417D01*
X236499Y95632D01*
X236742Y95678D01*
X237930Y94694D01*
D02*
G37*
G36*
X103541Y141846D02*
X102732Y140859D01*
X102560Y140974D01*
X100500Y141383D01*
X85530D01*
Y141780D01*
X85103D01*
Y144470D01*
X100917D01*
X103541Y141846D01*
D02*
G37*
G36*
X39891Y163639D02*
X39704Y163413D01*
X39539Y163181D01*
X39396Y162942D01*
X39275Y162697D01*
X39176Y162445D01*
X39099Y162187D01*
X39044Y161922D01*
X39011Y161650D01*
X39000Y161372D01*
X37000D01*
X36989Y161650D01*
X36956Y161922D01*
X36901Y162187D01*
X36824Y162445D01*
X36725Y162697D01*
X36604Y162942D01*
X36461Y163181D01*
X36296Y163413D01*
X36109Y163639D01*
X35900Y163858D01*
X40100D01*
X39891Y163639D01*
D02*
G37*
G36*
X175891Y139639D02*
X175704Y139413D01*
X175539Y139181D01*
X175396Y138942D01*
X175275Y138697D01*
X175176Y138445D01*
X175099Y138187D01*
X175044Y137921D01*
X175011Y137650D01*
X175000Y137372D01*
X173000D01*
X172989Y137650D01*
X172956Y137921D01*
X172901Y138187D01*
X172824Y138445D01*
X172725Y138697D01*
X172604Y138942D01*
X172461Y139181D01*
X172296Y139413D01*
X172109Y139639D01*
X171900Y139858D01*
X176100D01*
X175891Y139639D01*
D02*
G37*
G36*
X39891Y142639D02*
X39704Y142413D01*
X39539Y142181D01*
X39396Y141942D01*
X39275Y141697D01*
X39176Y141445D01*
X39099Y141187D01*
X39044Y140921D01*
X39011Y140650D01*
X39000Y140372D01*
X37000D01*
X36989Y140650D01*
X36956Y140921D01*
X36901Y141187D01*
X36824Y141445D01*
X36725Y141697D01*
X36604Y141942D01*
X36461Y142181D01*
X36296Y142413D01*
X36109Y142639D01*
X35900Y142858D01*
X40100D01*
X39891Y142639D01*
D02*
G37*
G36*
X155307Y236660D02*
X153885Y236071D01*
X151477Y234223D01*
X149629Y231815D01*
X148467Y229010D01*
X148359Y228195D01*
X148108Y227857D01*
X146992Y227286D01*
X146757Y227271D01*
X145830Y228139D01*
Y237530D01*
X146934Y237930D01*
X155054D01*
X155307Y236660D01*
D02*
G37*
G36*
X203076Y236660D02*
X201463Y236273D01*
X197458Y234614D01*
X193762Y232349D01*
X191992Y230837D01*
X211414Y211414D01*
X210000Y210000D01*
X211414Y208586D01*
X191992Y189163D01*
X193762Y187651D01*
X197458Y185386D01*
X201463Y183727D01*
X205679Y182715D01*
X210000Y182375D01*
X214321Y182715D01*
X215842Y183080D01*
X216401Y181908D01*
X216056Y181644D01*
X214046Y179024D01*
X212783Y175974D01*
X212352Y172700D01*
X212783Y169426D01*
X214046Y166376D01*
X214828Y165357D01*
X223586Y174114D01*
X225000Y172700D01*
X226414Y174114D01*
X235172Y165357D01*
X235954Y166376D01*
X236660Y168082D01*
X237930Y167829D01*
Y98471D01*
X236660Y98218D01*
X235954Y99924D01*
X235172Y100943D01*
X227828Y93600D01*
X235172Y86257D01*
X235954Y87276D01*
X236660Y88982D01*
X237930Y88729D01*
Y37074D01*
X236660Y36924D01*
X236273Y38537D01*
X234614Y42541D01*
X232349Y46238D01*
X230837Y48008D01*
X211414Y28586D01*
X191992Y9163D01*
X193762Y7651D01*
X197458Y5386D01*
X201463Y3727D01*
X203076Y3340D01*
X202925Y2070D01*
X124871D01*
X124618Y3340D01*
X126324Y4046D01*
X127343Y4828D01*
X120000Y12172D01*
X112657Y4828D01*
X113676Y4046D01*
X115382Y3340D01*
X115129Y2070D01*
X37074D01*
X36924Y3340D01*
X38537Y3727D01*
X42541Y5386D01*
X46238Y7651D01*
X48008Y9163D01*
X28586Y28586D01*
X9163Y48008D01*
X7651Y46238D01*
X5386Y42541D01*
X3727Y38537D01*
X3340Y36924D01*
X2070Y37074D01*
Y202925D01*
X3340Y203076D01*
X3727Y201463D01*
X5386Y197458D01*
X7651Y193762D01*
X9163Y191992D01*
X28586Y211414D01*
X48008Y230837D01*
X46238Y232349D01*
X42541Y234614D01*
X38537Y236273D01*
X36924Y236660D01*
X37075Y237930D01*
X63162D01*
X63593Y236660D01*
X62957Y236172D01*
X71714Y227414D01*
X80472Y218657D01*
X81254Y219676D01*
X82517Y222726D01*
X82900Y225634D01*
X84170Y225551D01*
Y214470D01*
X107230D01*
Y236660D01*
X107230Y237530D01*
X108334Y237930D01*
X121666Y237930D01*
X122770Y236660D01*
Y214470D01*
X128917D01*
Y195700D01*
X129326Y193640D01*
X130493Y191893D01*
X138219Y184167D01*
X138288Y183645D01*
X138946Y182057D01*
X139993Y180693D01*
X141357Y179646D01*
X142945Y178988D01*
X143467Y178919D01*
X149617Y172770D01*
Y158230D01*
X146770Y155383D01*
X138950D01*
X136890Y154974D01*
X135143Y153807D01*
X131653Y150317D01*
X130383Y150843D01*
Y159220D01*
X130780D01*
Y170780D01*
X130383D01*
Y172000D01*
X129974Y174060D01*
X128807Y175807D01*
X123807Y180807D01*
X122060Y181974D01*
X120000Y182383D01*
X116530D01*
Y185530D01*
X105383D01*
Y192289D01*
X105704Y192707D01*
X106362Y194295D01*
X106586Y196000D01*
X106362Y197705D01*
X105704Y199293D01*
X104657Y200657D01*
X103293Y201704D01*
X101705Y202362D01*
X100000Y202586D01*
X98295Y202362D01*
X96707Y201704D01*
X95343Y200657D01*
X94296Y199293D01*
X93638Y197705D01*
X93414Y196000D01*
X93638Y194295D01*
X94296Y192707D01*
X94617Y192289D01*
Y185530D01*
X83470D01*
Y168470D01*
X116530D01*
Y171544D01*
X117800Y171587D01*
X119220Y170167D01*
Y159220D01*
X119617D01*
Y145000D01*
X120026Y142940D01*
X121020Y141453D01*
X121067Y141299D01*
X120784Y140416D01*
X120557Y140148D01*
X120378Y140030D01*
X118447D01*
X118446Y140037D01*
X118378Y140537D01*
X118224Y140801D01*
X117974Y142060D01*
X117064Y143421D01*
X116530Y144470D01*
Y161530D01*
X83470D01*
Y152303D01*
X82297Y151817D01*
X77931Y156183D01*
X77862Y156705D01*
X77204Y158293D01*
X76157Y159657D01*
X74793Y160704D01*
X73205Y161362D01*
X71500Y161586D01*
X69795Y161362D01*
X68207Y160704D01*
X66843Y159657D01*
X65796Y158293D01*
X65138Y156705D01*
X64914Y155000D01*
X65138Y153295D01*
X65796Y151707D01*
X66843Y150343D01*
X68207Y149296D01*
X69795Y148638D01*
X70317Y148569D01*
X74337Y144550D01*
Y141780D01*
X73970D01*
Y130220D01*
X85530D01*
Y130617D01*
X98270D01*
X100693Y128193D01*
X102440Y127026D01*
X103825Y126751D01*
X104057Y126616D01*
X104429Y126565D01*
X104749Y126476D01*
X104970Y126387D01*
Y122665D01*
X104857Y122658D01*
X104521Y122656D01*
X104339Y122579D01*
X102313D01*
X102135Y122656D01*
X100848Y122672D01*
X99708Y122719D01*
X97705Y122908D01*
X96914Y123039D01*
X96230Y123195D01*
X95675Y123368D01*
X95257Y123544D01*
X94979Y123705D01*
X94701Y123933D01*
X94548Y123980D01*
X93059Y124974D01*
X90999Y125384D01*
X74779D01*
Y125781D01*
X63219D01*
Y114221D01*
X74779D01*
Y114617D01*
X90208D01*
X90734Y113347D01*
X89167Y111780D01*
X81220D01*
Y111384D01*
X74779D01*
Y111781D01*
X63219D01*
Y107834D01*
X58946Y103561D01*
X57779Y101815D01*
X57370Y99755D01*
Y97375D01*
X57347Y97324D01*
X57308Y95517D01*
X57243Y94684D01*
X57206Y94406D01*
X57168Y94211D01*
X57147Y94135D01*
X57112Y94051D01*
X57112Y94022D01*
X56176Y92802D01*
X55924Y92194D01*
X54678Y91946D01*
X53169Y93455D01*
Y108394D01*
X53169Y108394D01*
X52973Y109382D01*
X52414Y110218D01*
X52414Y110218D01*
X49640Y112993D01*
Y127940D01*
X49640Y127940D01*
X49443Y128927D01*
X48884Y129764D01*
X48884Y129764D01*
X46109Y132538D01*
Y147470D01*
X46110Y147470D01*
X45913Y148457D01*
X45354Y149294D01*
X40580Y154068D01*
Y161143D01*
X40655Y161306D01*
X40663Y161517D01*
X40679Y161653D01*
X40706Y161781D01*
X40743Y161905D01*
X40791Y162027D01*
X40851Y162149D01*
X40926Y162274D01*
X41018Y162403D01*
X41129Y162537D01*
X41298Y162714D01*
X41360Y162875D01*
X42267Y164233D01*
X42619Y166000D01*
X42267Y167768D01*
X41266Y169266D01*
X39767Y170267D01*
X38000Y170619D01*
X36233Y170267D01*
X34734Y169266D01*
X33733Y167768D01*
X33381Y166000D01*
X33733Y164233D01*
X34640Y162875D01*
X34702Y162714D01*
X34871Y162537D01*
X34982Y162403D01*
X35074Y162274D01*
X35149Y162149D01*
X35209Y162027D01*
X35257Y161905D01*
X35294Y161781D01*
X35320Y161653D01*
X35337Y161517D01*
X35345Y161306D01*
X35420Y161143D01*
Y153000D01*
X35420Y153000D01*
X35617Y152013D01*
X36176Y151176D01*
X36825Y150527D01*
X36456Y149312D01*
X36233Y149267D01*
X34734Y148266D01*
X33733Y146768D01*
X33381Y145000D01*
X33733Y143232D01*
X34640Y141875D01*
X34702Y141714D01*
X34871Y141537D01*
X34982Y141403D01*
X35074Y141274D01*
X35149Y141149D01*
X35209Y141027D01*
X35257Y140905D01*
X35294Y140781D01*
X35320Y140653D01*
X35337Y140517D01*
X35345Y140306D01*
X35420Y140143D01*
Y131821D01*
X35420Y131821D01*
X35617Y130833D01*
X36176Y129997D01*
X36675Y129497D01*
X36350Y128425D01*
X36159Y128218D01*
X34734Y127266D01*
X33733Y125767D01*
X33381Y124000D01*
X33733Y122233D01*
X34640Y120875D01*
X34702Y120714D01*
X34871Y120537D01*
X34982Y120403D01*
X35074Y120274D01*
X35149Y120149D01*
X35209Y120027D01*
X35257Y119905D01*
X35294Y119781D01*
X35320Y119653D01*
X35337Y119517D01*
X35345Y119306D01*
X35420Y119143D01*
Y111000D01*
X35420Y111000D01*
X35617Y110013D01*
X36176Y109176D01*
X36825Y108527D01*
X36456Y107312D01*
X36233Y107267D01*
X34734Y106266D01*
X33733Y104768D01*
X33381Y103000D01*
X33733Y101233D01*
X34640Y99875D01*
X34702Y99714D01*
X34871Y99537D01*
X34982Y99403D01*
X35074Y99274D01*
X35149Y99149D01*
X35209Y99027D01*
X35257Y98905D01*
X35294Y98781D01*
X35320Y98653D01*
X35337Y98517D01*
X35345Y98306D01*
X35420Y98143D01*
Y90000D01*
X35420Y90000D01*
X35617Y89013D01*
X36176Y88176D01*
X36825Y87527D01*
X36456Y86312D01*
X36233Y86267D01*
X34734Y85266D01*
X33733Y83767D01*
X33381Y82000D01*
X33733Y80232D01*
X34734Y78734D01*
X36233Y77733D01*
X36687Y77642D01*
X36899Y77477D01*
X37434Y77330D01*
X37614Y77266D01*
X37799Y77188D01*
X37970Y77106D01*
X38129Y77017D01*
X38276Y76923D01*
X38413Y76824D01*
X38540Y76719D01*
X38697Y76572D01*
X38869Y76507D01*
X51319Y64056D01*
X52156Y63497D01*
X53144Y63300D01*
X53144Y63300D01*
X96880D01*
X96880Y63300D01*
X97867Y63497D01*
X98704Y64056D01*
X116047Y81399D01*
X117220Y80913D01*
Y79970D01*
X122780D01*
Y93030D01*
X118030D01*
Y97220D01*
Y107220D01*
Y117220D01*
Y126970D01*
X151845D01*
X151970Y126970D01*
X151970Y126845D01*
Y122220D01*
Y112220D01*
Y102220D01*
Y93154D01*
X151970Y93030D01*
X151845Y93030D01*
X132220D01*
Y82476D01*
X131178Y81568D01*
X131000Y81603D01*
X128940Y81194D01*
X127193Y80027D01*
X126026Y78280D01*
X125617Y76220D01*
Y70780D01*
X125220D01*
Y61833D01*
X118770Y55383D01*
X104000D01*
X101940Y54974D01*
X100193Y53807D01*
X98117Y51731D01*
X97595Y51662D01*
X96007Y51004D01*
X94643Y49957D01*
X93596Y48593D01*
X92938Y47005D01*
X92869Y46483D01*
X90793Y44407D01*
X89626Y42660D01*
X89217Y40600D01*
Y25250D01*
X88785Y25071D01*
X86377Y23223D01*
X84529Y20815D01*
X83367Y18010D01*
X82971Y15000D01*
X83367Y11990D01*
X84529Y9185D01*
X86377Y6777D01*
X88785Y4929D01*
X91590Y3767D01*
X94600Y3370D01*
X97610Y3767D01*
X100415Y4929D01*
X102823Y6777D01*
X104671Y9185D01*
X105833Y11990D01*
X106150Y14397D01*
X107431D01*
X107783Y11726D01*
X109046Y8676D01*
X109828Y7657D01*
X117172Y15000D01*
X109828Y22343D01*
X109046Y21324D01*
X107783Y18274D01*
X107431Y15603D01*
X106150D01*
X105833Y18010D01*
X104671Y20815D01*
X102823Y23223D01*
X100415Y25071D01*
X99983Y25250D01*
Y38370D01*
X100483Y38869D01*
X101005Y38938D01*
X102593Y39596D01*
X103957Y40643D01*
X105004Y42007D01*
X105662Y43595D01*
X105731Y44117D01*
X106230Y44617D01*
X121000D01*
X123060Y45026D01*
X124807Y46193D01*
X134807Y56193D01*
X135974Y57940D01*
X136228Y59220D01*
X136780D01*
Y70780D01*
X136383D01*
Y76220D01*
X136071Y77789D01*
X136363Y78325D01*
X136654Y78605D01*
X137970Y78485D01*
X138176Y78176D01*
X139243Y77109D01*
X139234Y77016D01*
X138233Y75518D01*
X137881Y73750D01*
X138233Y71982D01*
X139234Y70484D01*
X140732Y69483D01*
X142500Y69131D01*
X144268Y69483D01*
X145766Y70484D01*
X146767Y71982D01*
X147119Y73750D01*
X146767Y75518D01*
X145766Y77016D01*
X145079Y77474D01*
Y77500D01*
X144883Y78487D01*
X144741Y78700D01*
X145420Y79970D01*
X147476D01*
X147617Y79263D01*
X147904Y78833D01*
X147940Y78708D01*
X147951Y78605D01*
X147987Y78541D01*
X147994Y78515D01*
X148015Y78488D01*
X148060Y78383D01*
X148110Y78237D01*
X148563Y76071D01*
X148617Y75702D01*
Y70780D01*
X148220D01*
Y59220D01*
X148220D01*
X148337Y57950D01*
X141593Y51207D01*
X140426Y49460D01*
X140100Y47820D01*
X139696Y47293D01*
X139038Y45705D01*
X138814Y44000D01*
X139038Y42295D01*
X139696Y40707D01*
X140017Y40289D01*
Y26530D01*
X133870D01*
Y15449D01*
X132600Y15366D01*
X132217Y18274D01*
X130954Y21324D01*
X130172Y22343D01*
X122829Y15000D01*
X130172Y7657D01*
X130954Y8676D01*
X132217Y11726D01*
X132600Y14634D01*
X133870Y14551D01*
Y3470D01*
X156930D01*
Y26530D01*
X150784D01*
Y40289D01*
X151104Y40707D01*
X151762Y42295D01*
X151986Y44000D01*
X151762Y45705D01*
X151632Y46019D01*
X157807Y52193D01*
X158974Y53940D01*
X159383Y56000D01*
Y59220D01*
X159780D01*
Y70780D01*
X159383D01*
Y76250D01*
X158974Y78310D01*
X157807Y80057D01*
X156060Y81224D01*
X155064Y81422D01*
X154769Y81601D01*
X153603Y81781D01*
X152780Y81942D01*
Y92095D01*
X152780Y92220D01*
X152905Y92220D01*
X157523D01*
X158077Y91656D01*
X159104Y90547D01*
X159845Y89646D01*
X160085Y89311D01*
X160254Y89041D01*
X160340Y88871D01*
X160349Y88844D01*
X160360Y88768D01*
X160400Y88700D01*
X160405Y88687D01*
X160413Y88678D01*
X160476Y88570D01*
X160704Y87428D01*
X161595Y86095D01*
X168594Y79095D01*
X169928Y78204D01*
X171500Y77891D01*
X177996D01*
X178232Y77733D01*
X180000Y77381D01*
X181768Y77733D01*
X183266Y78734D01*
X184267Y80232D01*
X184619Y82000D01*
X184267Y83767D01*
X183266Y85266D01*
X181768Y86267D01*
X180000Y86619D01*
X178232Y86267D01*
X177996Y86109D01*
X173202D01*
X167405Y91905D01*
X166072Y92796D01*
X165030Y93004D01*
Y95610D01*
X166300Y96289D01*
X166428Y96204D01*
X168000Y95891D01*
X185000D01*
X186572Y96204D01*
X187905Y97094D01*
X189065Y98254D01*
X189750Y98164D01*
X191455Y98388D01*
X193043Y99046D01*
X194407Y100093D01*
X195454Y101457D01*
X196112Y103045D01*
X196336Y104750D01*
X196246Y105435D01*
X205702Y114891D01*
X213470D01*
Y107470D01*
X224551D01*
X224634Y106200D01*
X221726Y105817D01*
X218676Y104554D01*
X217657Y103772D01*
X225000Y96428D01*
X232343Y103772D01*
X231324Y104554D01*
X228274Y105817D01*
X225366Y106200D01*
X225449Y107470D01*
X236530D01*
Y130530D01*
X213470D01*
Y123109D01*
X204000D01*
X202428Y122796D01*
X201094Y121905D01*
X190435Y111246D01*
X189750Y111336D01*
X188045Y111112D01*
X186457Y110454D01*
X185093Y109407D01*
X184046Y108043D01*
X183388Y106455D01*
X183164Y104750D01*
X182601Y104109D01*
X175237D01*
X174751Y105282D01*
X178354Y108885D01*
X178354Y108885D01*
X178913Y109722D01*
X179109Y110709D01*
X179109Y110710D01*
Y116193D01*
X179164Y116217D01*
X179293Y116261D01*
X179435Y116296D01*
X179591Y116323D01*
X179764Y116339D01*
X180009Y116345D01*
X180167Y116414D01*
X181768Y116733D01*
X183266Y117734D01*
X184267Y119233D01*
X184619Y121000D01*
X184267Y122767D01*
X183266Y124266D01*
X181768Y125267D01*
X180000Y125619D01*
X178232Y125267D01*
X177850Y125011D01*
X176580Y125690D01*
Y137143D01*
X176655Y137306D01*
X176663Y137517D01*
X176680Y137653D01*
X176706Y137781D01*
X176743Y137905D01*
X176791Y138027D01*
X176851Y138149D01*
X176926Y138274D01*
X177018Y138403D01*
X177129Y138537D01*
X177298Y138714D01*
X177360Y138875D01*
X178267Y140232D01*
X178619Y142000D01*
X178267Y143767D01*
X177266Y145266D01*
X175767Y146267D01*
X174000Y146619D01*
X172232Y146267D01*
X170734Y145266D01*
X169516D01*
X168018Y146267D01*
X166250Y146619D01*
X164482Y146267D01*
X162984Y145266D01*
X161766D01*
X160268Y146267D01*
X158500Y146619D01*
X156733Y146267D01*
X155234Y145266D01*
X154233Y143767D01*
X153881Y142000D01*
X154233Y140232D01*
X155140Y138875D01*
X155202Y138714D01*
X155371Y138537D01*
X155482Y138403D01*
X155574Y138274D01*
X155649Y138149D01*
X155709Y138027D01*
X155757Y137905D01*
X155794Y137781D01*
X155820Y137653D01*
X155837Y137517D01*
X155845Y137306D01*
X155920Y137143D01*
Y129010D01*
X154921Y127780D01*
X152905D01*
X152780Y127780D01*
X152780Y127905D01*
Y140030D01*
X139317D01*
X138896Y140327D01*
X138344Y141300D01*
X138368Y141375D01*
X138544Y141793D01*
X138705Y142071D01*
X138933Y142349D01*
X138942Y142379D01*
X141180Y144617D01*
X149000D01*
X151060Y145026D01*
X152807Y146193D01*
X158807Y152193D01*
X159974Y153940D01*
X160383Y156000D01*
Y175000D01*
X159974Y177060D01*
X158807Y178807D01*
X151081Y186533D01*
X151012Y187055D01*
X150354Y188643D01*
X149307Y190007D01*
X147943Y191054D01*
X146355Y191712D01*
X145833Y191781D01*
X139684Y197930D01*
Y214470D01*
X145830D01*
Y225550D01*
X147100Y225633D01*
X147483Y222726D01*
X148746Y219676D01*
X149528Y218657D01*
X158286Y227414D01*
X167043Y236172D01*
X166407Y236660D01*
X166838Y237930D01*
X202925D01*
X203076Y236660D01*
D02*
G37*
G36*
X210000Y237929D02*
X214369Y237585D01*
X218631Y236562D01*
X222680Y234885D01*
X226416Y232595D01*
X229749Y229749D01*
X232595Y226416D01*
X234885Y222680D01*
X236562Y218631D01*
X237585Y214369D01*
X237929Y210000D01*
X237930D01*
Y171606D01*
X236742Y170622D01*
X236499Y170668D01*
X236390Y170883D01*
X236630Y172700D01*
X236233Y175710D01*
X235071Y178515D01*
X233223Y180923D01*
X230815Y182771D01*
X228010Y183933D01*
X225000Y184329D01*
X221990Y183933D01*
X219185Y182771D01*
X218451Y183577D01*
X219044Y185030D01*
X222082Y186289D01*
X225642Y188470D01*
X228818Y191182D01*
X231530Y194358D01*
X233711Y197918D01*
X235310Y201776D01*
X236284Y205837D01*
X236612Y210000D01*
X236284Y214163D01*
X235310Y218224D01*
X233711Y222082D01*
X231530Y225642D01*
X228818Y228818D01*
X225642Y231530D01*
X222082Y233711D01*
X218224Y235310D01*
X214163Y236284D01*
X210000Y236612D01*
X206321Y236322D01*
X205755Y237232D01*
X206158Y237930D01*
X210000D01*
Y237929D01*
D02*
G37*
G36*
X84170Y236660D02*
Y228139D01*
X83243Y227271D01*
X83008Y227286D01*
X81892Y227857D01*
X81641Y228195D01*
X81533Y229010D01*
X80371Y231815D01*
X78523Y234223D01*
X76115Y236071D01*
X74693Y236660D01*
X74946Y237930D01*
X83066D01*
X84170Y236660D01*
D02*
G37*
G36*
X116815Y139735D02*
X116953Y139149D01*
X117151Y138556D01*
X117409Y137955D01*
X117726Y137348D01*
X118103Y136734D01*
X118380Y136338D01*
X118450Y136326D01*
X118580Y136355D01*
X118681Y136441D01*
X118753Y136586D01*
X118797Y136788D01*
X118811Y137048D01*
Y135768D01*
X119036Y135484D01*
X120207Y134207D01*
X118811Y132811D01*
Y131391D01*
X118797Y131668D01*
X118753Y131947D01*
X118681Y132227D01*
X118580Y132508D01*
X118450Y132790D01*
X118291Y133074D01*
X118103Y133358D01*
X117918Y133603D01*
X116888Y134461D01*
X116266Y134897D01*
X115652Y135274D01*
X115045Y135591D01*
X114444Y135849D01*
X113851Y136047D01*
X113265Y136185D01*
X112685Y136263D01*
X116737Y140315D01*
X116815Y139735D01*
D02*
G37*
G36*
X127339Y141967D02*
X127058Y141482D01*
X126810Y140893D01*
X126595Y140201D01*
X126413Y139406D01*
X126264Y138508D01*
X126066Y136403D01*
X126017Y135196D01*
X126000Y133886D01*
X124000D01*
X123983Y135196D01*
X123735Y138508D01*
X123587Y139406D01*
X123405Y140201D01*
X123190Y140893D01*
X122942Y141482D01*
X122661Y141967D01*
X122347Y142350D01*
X127653D01*
X127339Y141967D01*
D02*
G37*
G36*
X110940Y135026D02*
X112199Y134776D01*
X112463Y134622D01*
X112963Y134555D01*
X113398Y134452D01*
X113855Y134300D01*
X114334Y134094D01*
X114835Y133833D01*
X115356Y133513D01*
X115880Y133145D01*
X116712Y132452D01*
X116751Y132401D01*
X116876Y132211D01*
X116973Y132037D01*
X117046Y131880D01*
X117097Y131738D01*
X117129Y131612D01*
X117147Y131498D01*
X117157Y131305D01*
X117220Y131173D01*
Y128291D01*
X116859Y128141D01*
X116709Y127780D01*
X114034D01*
X113901Y127843D01*
X113638Y127857D01*
X113452Y127885D01*
X113254Y127936D01*
X113042Y128012D01*
X112814Y128117D01*
X112570Y128253D01*
X112309Y128424D01*
X112166Y128533D01*
X111124Y129816D01*
X110735Y130374D01*
X110418Y130895D01*
X110183Y131356D01*
X110024Y131751D01*
X109935Y132071D01*
X109884Y132443D01*
X109749Y132675D01*
X109474Y134060D01*
X108968Y134816D01*
X109884Y135732D01*
X110940Y135026D01*
D02*
G37*
G36*
X162750Y138637D02*
X163121Y138537D01*
X163232Y138403D01*
X163324Y138274D01*
X163399Y138149D01*
X163459Y138027D01*
X163507Y137905D01*
X163544Y137781D01*
X163570Y137653D01*
X163587Y137517D01*
X163595Y137306D01*
X163671Y137143D01*
Y127780D01*
X161177D01*
X161164Y127927D01*
X161155Y128262D01*
X161080Y128433D01*
Y137143D01*
X161155Y137306D01*
X161163Y137517D01*
X161180Y137653D01*
X161206Y137781D01*
X161243Y137905D01*
X161291Y138027D01*
X161351Y138149D01*
X161426Y138274D01*
X161518Y138403D01*
X161629Y138537D01*
X162000Y138637D01*
X162750Y138637D01*
D02*
G37*
G36*
X160391Y139639D02*
X160204Y139413D01*
X160039Y139181D01*
X159896Y138942D01*
X159775Y138697D01*
X159676Y138445D01*
X159599Y138187D01*
X159544Y137921D01*
X159511Y137650D01*
X159500Y137372D01*
X157500D01*
X157489Y137650D01*
X157456Y137921D01*
X157401Y138187D01*
X157324Y138445D01*
X157225Y138697D01*
X157104Y138942D01*
X156961Y139181D01*
X156796Y139413D01*
X156609Y139639D01*
X156400Y139858D01*
X160600D01*
X160391Y139639D01*
D02*
G37*
G36*
X168141D02*
X167954Y139413D01*
X167789Y139181D01*
X167646Y138942D01*
X167525Y138697D01*
X167426Y138445D01*
X167349Y138187D01*
X167294Y137921D01*
X167261Y137650D01*
X167250Y137372D01*
X165250D01*
X165239Y137650D01*
X165206Y137921D01*
X165151Y138187D01*
X165074Y138445D01*
X164975Y138697D01*
X164854Y138942D01*
X164711Y139181D01*
X164546Y139413D01*
X164359Y139639D01*
X164150Y139858D01*
X168350D01*
X168141Y139639D01*
D02*
G37*
G36*
X133760Y144084D02*
X135000Y146050D01*
X134408Y143436D01*
X134444Y143400D01*
X137653D01*
X137339Y143018D01*
X137058Y142532D01*
X136810Y141943D01*
X136595Y141251D01*
X136413Y140456D01*
X136264Y139558D01*
X136166Y138509D01*
X136178Y138490D01*
X136220Y138469D01*
X136162D01*
X136066Y137453D01*
X136017Y136246D01*
X136000Y134936D01*
X134000D01*
X133983Y136246D01*
X133817Y138469D01*
X133780D01*
X133816Y138486D01*
X133735Y139558D01*
X133587Y140456D01*
X133405Y141251D01*
X133229Y141818D01*
X133178Y141802D01*
X132680Y141614D01*
X132217Y141404D01*
X131788Y141172D01*
X131394Y140917D01*
X131033Y140641D01*
X130845Y140470D01*
X131000D01*
X131002Y140090D01*
X131079Y138790D01*
X131108Y138650D01*
X131140Y138549D01*
X131178Y138490D01*
X131220Y138469D01*
X128780D01*
X128822Y138490D01*
X128860Y138549D01*
X128892Y138650D01*
X128921Y138790D01*
X128945Y138969D01*
X128980Y139450D01*
X129000Y140470D01*
X130581D01*
X129293Y141757D01*
X129591Y142084D01*
X129867Y142444D01*
X130121Y142839D01*
X130353Y143268D01*
X130564Y143731D01*
X130752Y144228D01*
X130918Y144760D01*
X131062Y145325D01*
X131285Y146559D01*
X133760Y144084D01*
D02*
G37*
G36*
X34244Y237231D02*
X33680Y236322D01*
X30000Y236612D01*
X25837Y236284D01*
X21776Y235310D01*
X17918Y233711D01*
X14358Y231530D01*
X11182Y228818D01*
X8470Y225642D01*
X6288Y222082D01*
X4690Y218224D01*
X3716Y214163D01*
X3388Y210000D01*
X3677Y206321D01*
X2768Y205755D01*
X2070Y206158D01*
Y210000D01*
X2071D01*
X2415Y214369D01*
X3438Y218631D01*
X5115Y222680D01*
X7405Y226416D01*
X10251Y229749D01*
X13584Y232595D01*
X17320Y234885D01*
X21369Y236562D01*
X25631Y237585D01*
X30000Y237929D01*
Y237930D01*
X33840D01*
X34244Y237231D01*
D02*
G37*
%LPC*%
G36*
X210000Y57625D02*
X205679Y57285D01*
X201463Y56273D01*
X197458Y54614D01*
X193762Y52349D01*
X191992Y50837D01*
X210000Y32829D01*
X228008Y50837D01*
X226238Y52349D01*
X222542Y54614D01*
X218537Y56273D01*
X214321Y57285D01*
X210000Y57625D01*
D02*
G37*
G36*
X225000Y90772D02*
X217657Y83428D01*
X218676Y82646D01*
X221726Y81383D01*
X224336Y81039D01*
X224397Y81031D01*
Y79750D01*
X224336Y79742D01*
X221990Y79433D01*
X219185Y78271D01*
X216777Y76423D01*
X214929Y74015D01*
X213767Y71210D01*
X213370Y68200D01*
X213767Y65190D01*
X214929Y62385D01*
X216777Y59977D01*
X219185Y58129D01*
X221990Y56967D01*
X225000Y56571D01*
X228010Y56967D01*
X230815Y58129D01*
X233223Y59977D01*
X235071Y62385D01*
X236233Y65190D01*
X236630Y68200D01*
X236233Y71210D01*
X235071Y74015D01*
X233223Y76423D01*
X230815Y78271D01*
X228010Y79433D01*
X225664Y79742D01*
X225603Y79750D01*
Y81031D01*
X225664Y81039D01*
X228274Y81383D01*
X231324Y82646D01*
X232343Y83428D01*
X225000Y90772D01*
D02*
G37*
G36*
X30000Y57625D02*
X25679Y57285D01*
X21463Y56273D01*
X17458Y54614D01*
X13762Y52349D01*
X11991Y50837D01*
X30000Y32828D01*
X48008Y50837D01*
X46238Y52349D01*
X42541Y54614D01*
X38537Y56273D01*
X34321Y57285D01*
X30000Y57625D01*
D02*
G37*
G36*
X50837Y48008D02*
X32828Y30000D01*
X50837Y11991D01*
X52349Y13762D01*
X54614Y17458D01*
X56273Y21463D01*
X57285Y25679D01*
X57625Y30000D01*
X57285Y34321D01*
X56273Y38537D01*
X54614Y42541D01*
X52349Y46238D01*
X50837Y48008D01*
D02*
G37*
G36*
X189163Y48008D02*
X187651Y46238D01*
X185386Y42541D01*
X183727Y38537D01*
X182715Y34321D01*
X182375Y30000D01*
X182715Y25679D01*
X183727Y21463D01*
X185386Y17458D01*
X187651Y13762D01*
X189163Y11992D01*
X207171Y30000D01*
X189163Y48008D01*
D02*
G37*
G36*
X120000Y27648D02*
X116726Y27217D01*
X113676Y25954D01*
X112657Y25172D01*
X120000Y17828D01*
X127343Y25172D01*
X126324Y25954D01*
X123274Y27217D01*
X120000Y27648D01*
D02*
G37*
G36*
X50837Y228008D02*
X32829Y210000D01*
X50837Y191992D01*
X52349Y193762D01*
X54614Y197458D01*
X56273Y201463D01*
X57285Y205679D01*
X57625Y210000D01*
X57285Y214321D01*
X56273Y218537D01*
X54614Y222542D01*
X52349Y226238D01*
X50837Y228008D01*
D02*
G37*
G36*
X189163D02*
X187651Y226238D01*
X185386Y222542D01*
X183727Y218537D01*
X182715Y214321D01*
X182375Y210000D01*
X182715Y205679D01*
X183727Y201463D01*
X185386Y197458D01*
X187651Y193762D01*
X189163Y191992D01*
X207171Y210000D01*
X189163Y228008D01*
D02*
G37*
G36*
X225000Y169872D02*
X217657Y162528D01*
X218676Y161746D01*
X221726Y160483D01*
X224149Y160164D01*
X224633Y160100D01*
X224550Y158830D01*
X213470D01*
Y135770D01*
X236530D01*
Y158830D01*
X225450D01*
X225367Y160100D01*
X225851Y160164D01*
X228274Y160483D01*
X231324Y161746D01*
X232343Y162528D01*
X225000Y169872D01*
D02*
G37*
G36*
X30000Y207172D02*
X11992Y189163D01*
X13762Y187651D01*
X17458Y185386D01*
X21463Y183727D01*
X25679Y182715D01*
X30000Y182375D01*
X34321Y182715D01*
X38537Y183727D01*
X42541Y185386D01*
X46238Y187651D01*
X48008Y189163D01*
X30000Y207172D01*
D02*
G37*
G36*
X70300Y223172D02*
X62957Y215828D01*
X63976Y215046D01*
X67026Y213783D01*
X70300Y213352D01*
X73574Y213783D01*
X76624Y215046D01*
X77643Y215828D01*
X70300Y223172D01*
D02*
G37*
G36*
X60128Y233343D02*
X59346Y232324D01*
X58083Y229274D01*
X57652Y226000D01*
X58083Y222726D01*
X59346Y219676D01*
X60128Y218657D01*
X67472Y226000D01*
X60128Y233343D01*
D02*
G37*
G36*
X169872Y233343D02*
X162528Y226000D01*
X169872Y218657D01*
X170654Y219676D01*
X171917Y222726D01*
X172348Y226000D01*
X171917Y229274D01*
X170654Y232324D01*
X169872Y233343D01*
D02*
G37*
G36*
X214828Y100943D02*
X214046Y99924D01*
X212783Y96874D01*
X212352Y93600D01*
X212783Y90326D01*
X214046Y87276D01*
X214828Y86257D01*
X222171Y93600D01*
X214828Y100943D01*
D02*
G37*
G36*
X159700Y223172D02*
X152357Y215828D01*
X153376Y215046D01*
X156426Y213783D01*
X159700Y213352D01*
X162974Y213783D01*
X166024Y215046D01*
X167043Y215828D01*
X159700Y223172D01*
D02*
G37*
%LPD*%
D10*
X135000Y110000D02*
D03*
D11*
X120000Y133500D02*
D03*
X125000D02*
D03*
X130000D02*
D03*
X135000D02*
D03*
X140000D02*
D03*
X145000D02*
D03*
X150000D02*
D03*
Y86500D02*
D03*
X145000D02*
D03*
X140000D02*
D03*
X135000D02*
D03*
X130000D02*
D03*
X125000D02*
D03*
X120000D02*
D03*
D12*
X158500Y125000D02*
D03*
Y120000D02*
D03*
Y115000D02*
D03*
Y110000D02*
D03*
Y105000D02*
D03*
Y100000D02*
D03*
Y95000D02*
D03*
X111500D02*
D03*
Y100000D02*
D03*
Y105000D02*
D03*
Y110000D02*
D03*
Y115000D02*
D03*
Y120000D02*
D03*
Y125000D02*
D03*
D13*
X100000Y153000D02*
D03*
Y177000D02*
D03*
D14*
X68999Y120001D02*
D03*
Y106001D02*
D03*
X87000Y106000D02*
D03*
Y92000D02*
D03*
D15*
X189750Y104750D02*
D03*
X100000Y196000D02*
D03*
X71500Y155000D02*
D03*
X145400Y44000D02*
D03*
X99300Y45300D02*
D03*
X144650Y185350D02*
D03*
D16*
X65750Y136000D02*
D03*
X79750D02*
D03*
X154000Y65000D02*
D03*
X168000D02*
D03*
X117000D02*
D03*
X131000D02*
D03*
X125000Y165000D02*
D03*
X139000D02*
D03*
D17*
X82000Y106000D02*
X91000D01*
X154000Y56000D02*
Y76250D01*
X134300Y195700D02*
X155000Y175000D01*
X79720Y136000D02*
Y146780D01*
X131000Y60000D02*
Y76220D01*
X121000Y50000D02*
X131000Y60000D01*
X104000Y50000D02*
X121000D01*
X149000Y150000D02*
X155000Y156000D01*
Y175000D01*
X134300Y195700D02*
Y226000D01*
X91000Y106000D02*
X96000Y111000D01*
X62753Y89004D02*
Y99755D01*
X99300Y45300D02*
X104000Y50000D01*
X94600Y40600D02*
X99300Y45300D01*
X145400Y44000D02*
Y47400D01*
Y15000D02*
Y44000D01*
Y47400D02*
X154000Y56000D01*
X94600Y15000D02*
Y40600D01*
X62753Y99755D02*
X68999Y106001D01*
X79720Y136000D02*
X79750D01*
X71500Y155000D02*
X79720Y146780D01*
X79750Y136000D02*
X100500D01*
X104500Y132000D01*
X100000Y177000D02*
Y196000D01*
Y153000D02*
X113000Y140000D01*
X100000Y177000D02*
X120000D01*
X125000Y172000D01*
Y145000D02*
Y165000D01*
X135000Y146050D02*
X138950Y150000D01*
X149000D01*
X125000Y165000D02*
Y172000D01*
X68999Y106001D02*
X81999D01*
X68999Y120001D02*
X90999D01*
X81999Y106001D02*
X82000Y106000D01*
X90999Y120001D02*
X91000Y120000D01*
D18*
X96530Y100530D02*
X106000Y110000D01*
X96530Y85530D02*
Y100530D01*
X38000Y81024D02*
X53144Y65880D01*
X38000Y81024D02*
Y82000D01*
X117500Y86500D02*
X120000D01*
X96880Y65880D02*
X117500Y86500D01*
X53144Y65880D02*
X96880D01*
X111500Y92500D02*
Y95000D01*
X107310Y88310D02*
X111500Y92500D01*
X107310Y81334D02*
Y88310D01*
X43530Y80486D02*
Y84470D01*
Y80486D02*
X54606Y69410D01*
X95386D01*
X107310Y81334D01*
X47060Y81948D02*
X56068Y72940D01*
X47060Y81948D02*
Y85932D01*
X103780Y82796D02*
Y97780D01*
X93924Y72940D02*
X103780Y82796D01*
X56068Y72940D02*
X93924D01*
X57530Y76470D02*
X92462D01*
X50590Y83410D02*
X57530Y76470D01*
X92462D02*
X100250Y84258D01*
Y99250D01*
X50590Y83410D02*
Y87394D01*
X91000Y80000D02*
X96530Y85530D01*
X59000Y80000D02*
X91000D01*
X54120Y84880D02*
X59000Y80000D01*
X54120Y84880D02*
Y88856D01*
X170851Y105030D02*
X176530Y110709D01*
X165917Y105030D02*
X170851D01*
X165886Y105000D02*
X165917Y105030D01*
X158500Y105000D02*
X165886D01*
X158500Y100000D02*
X168000D01*
X164242Y115000D02*
X174000Y124758D01*
X158500Y115000D02*
X164242D01*
X176530Y117530D02*
X180000Y121000D01*
X176530Y110709D02*
Y117530D01*
X166250Y122734D02*
Y142000D01*
X163516Y120000D02*
X166250Y122734D01*
X158500Y120000D02*
X163516D01*
X174000Y124758D02*
Y142000D01*
X168000Y110000D02*
X171000Y113000D01*
X158500Y110000D02*
X168000D01*
X158500Y95000D02*
X164500Y89000D01*
X38000Y153000D02*
Y166000D01*
Y153000D02*
X43530Y147470D01*
Y131470D02*
Y147470D01*
Y131470D02*
X47060Y127940D01*
Y111924D02*
Y127940D01*
X38000Y111000D02*
Y124000D01*
X47060Y111924D02*
X50590Y108394D01*
Y92387D02*
Y108394D01*
Y92387D02*
X54120Y88856D01*
X38000Y131821D02*
Y145000D01*
Y131821D02*
X43530Y126291D01*
Y110462D02*
Y126291D01*
Y110462D02*
X47060Y106932D01*
Y90924D02*
Y106932D01*
Y90924D02*
X50590Y87394D01*
X38000Y111000D02*
X43530Y105470D01*
Y89462D02*
Y105470D01*
Y89462D02*
X47060Y85932D01*
X38000Y90000D02*
Y103000D01*
Y90000D02*
X43530Y84470D01*
X100250Y99250D02*
X106000Y105000D01*
X158500Y125000D02*
Y142000D01*
Y99729D02*
Y100000D01*
Y120000D02*
X158560Y120060D01*
X158500Y110000D02*
X158500Y110000D01*
X135000Y133500D02*
Y146050D01*
X130000Y141050D02*
X135000Y146050D01*
X130000Y133500D02*
Y141050D01*
X119500Y133500D02*
X120000D01*
X113000Y140000D02*
X119500Y133500D01*
X125000D02*
Y145000D01*
X150000Y80250D02*
Y86500D01*
Y80250D02*
X154000Y76250D01*
X131000Y76220D02*
Y77250D01*
X135000Y81250D02*
Y86500D01*
X131000Y77250D02*
X135000Y81250D01*
X106000Y110000D02*
X111500D01*
X106000Y105000D02*
X111500D01*
X103780Y97780D02*
X106000Y100000D01*
X111500D01*
X142500Y73750D02*
Y77500D01*
X140000Y80000D02*
Y86500D01*
Y80000D02*
X142500Y77500D01*
X96000Y111000D02*
X100000Y115000D01*
X91000Y120000D02*
X111500D01*
X100000Y115000D02*
X111500D01*
D19*
X189750Y104750D02*
X204000Y119000D01*
X185000Y100000D02*
X189750Y104750D01*
X204000Y119000D02*
X225000D01*
X168000Y100000D02*
X185000D01*
X164500Y89000D02*
X171500Y82000D01*
X180000D01*
D20*
X104500Y132000D02*
X111500Y125000D01*
D21*
X95700Y226000D02*
D03*
X145400Y15000D02*
D03*
X134300Y226000D02*
D03*
D22*
X70300D02*
D03*
X120000Y15000D02*
D03*
X94600D02*
D03*
X225000Y93600D02*
D03*
Y68200D02*
D03*
X225000Y172700D02*
D03*
X159700Y226000D02*
D03*
D23*
X210000Y30000D02*
D03*
X30000D02*
D03*
Y210000D02*
D03*
X210000D02*
D03*
D24*
X225000Y119000D02*
D03*
X225000Y147300D02*
D03*
D25*
X56500Y110750D02*
D03*
X119500Y192250D02*
D03*
X206001Y166000D02*
D03*
Y106000D02*
D03*
Y86000D02*
D03*
X201001Y176000D02*
D03*
Y156000D02*
D03*
X196001Y126000D02*
D03*
X201001Y96000D02*
D03*
X196001Y86000D02*
D03*
X191001Y176000D02*
D03*
Y156000D02*
D03*
Y56000D02*
D03*
X186001Y6000D02*
D03*
X176001Y226000D02*
D03*
Y206000D02*
D03*
X181001Y176000D02*
D03*
Y56000D02*
D03*
X176001Y46000D02*
D03*
Y26000D02*
D03*
X181001Y16000D02*
D03*
X176001Y6000D02*
D03*
X166001Y206000D02*
D03*
Y46000D02*
D03*
X171001Y36000D02*
D03*
X166001Y26000D02*
D03*
X171001Y16000D02*
D03*
X166001Y6000D02*
D03*
X156001Y206000D02*
D03*
Y86000D02*
D03*
X161001Y36000D02*
D03*
Y16000D02*
D03*
X141001Y56000D02*
D03*
X116001Y226000D02*
D03*
X111000Y216000D02*
D03*
X106000Y26000D02*
D03*
X86000Y206000D02*
D03*
X76000D02*
D03*
X81000Y196000D02*
D03*
X76000Y186000D02*
D03*
Y166000D02*
D03*
Y26000D02*
D03*
Y6000D02*
D03*
X66000Y206000D02*
D03*
X71000Y196000D02*
D03*
X66000Y186000D02*
D03*
X71000Y176000D02*
D03*
X66000Y166000D02*
D03*
Y146000D02*
D03*
X71000Y36000D02*
D03*
X66000Y26000D02*
D03*
X71000Y16000D02*
D03*
X66000Y6000D02*
D03*
X61000Y196000D02*
D03*
X56000Y186000D02*
D03*
X61000Y176000D02*
D03*
X56000Y166000D02*
D03*
X61000Y156000D02*
D03*
Y36000D02*
D03*
Y16000D02*
D03*
X56000Y6000D02*
D03*
X51000Y176000D02*
D03*
X46000Y166000D02*
D03*
X51000Y156000D02*
D03*
Y56000D02*
D03*
X41000Y176000D02*
D03*
X36000Y66000D02*
D03*
X31000Y176000D02*
D03*
X26000Y66000D02*
D03*
X21000Y176000D02*
D03*
X6000Y186000D02*
D03*
X11000Y176000D02*
D03*
X6000Y66000D02*
D03*
X11000Y56000D02*
D03*
X110000Y33000D02*
D03*
X130000D02*
D03*
X120000D02*
D03*
X84000Y52000D02*
D03*
Y60000D02*
D03*
X119750Y76250D02*
D03*
X137500Y176250D02*
D03*
X130000Y182000D02*
D03*
X55000Y120750D02*
D03*
X52750Y132000D02*
D03*
X53000Y142750D02*
D03*
X59000Y149000D02*
D03*
X180000Y121000D02*
D03*
Y82000D02*
D03*
X14000Y152000D02*
D03*
Y131000D02*
D03*
Y110000D02*
D03*
Y89000D02*
D03*
Y68000D02*
D03*
X38000Y124000D02*
D03*
Y166000D02*
D03*
Y145000D02*
D03*
Y103000D02*
D03*
Y82000D02*
D03*
X76000Y96000D02*
D03*
Y88000D02*
D03*
X174000Y142000D02*
D03*
X166250D02*
D03*
X158500D02*
D03*
X171000Y113000D02*
D03*
X146000Y121000D02*
D03*
X135000D02*
D03*
X124000D02*
D03*
Y110000D02*
D03*
Y99000D02*
D03*
X135000D02*
D03*
X146000D02*
D03*
Y110000D02*
D03*
X135000D02*
D03*
X142500Y73750D02*
D03*
D26*
X62753Y89004D02*
D03*
M02*
