G04 Layer_Color=32896*
%FSLAX44Y44*%
%MOMM*%
G71*
G01*
G75*
%ADD18C,0.2000*%
G36*
X150107Y204483D02*
X150172Y204455D01*
X150218Y204418D01*
X150227Y204409D01*
X150236Y204400D01*
X151263Y203374D01*
X151309Y203309D01*
X151327Y203253D01*
X151336Y203207D01*
Y203198D01*
Y203189D01*
X151327Y203096D01*
X151299Y203031D01*
X151253Y202985D01*
X151207Y202957D01*
X151161Y202939D01*
X151115Y202920D01*
X151078D01*
X151004Y202930D01*
X150939Y202957D01*
X150902Y202985D01*
X150893Y202994D01*
X150282Y203605D01*
Y199509D01*
X150273Y199426D01*
X150246Y199361D01*
X150199Y199315D01*
X150153Y199287D01*
X150107Y199268D01*
X150061Y199250D01*
X150024D01*
X149931Y199259D01*
X149867Y199287D01*
X149820Y199333D01*
X149792Y199379D01*
X149765Y199426D01*
X149755Y199472D01*
Y199500D01*
Y199509D01*
Y204233D01*
X149765Y204326D01*
X149792Y204391D01*
X149839Y204437D01*
X149885Y204464D01*
X149940Y204492D01*
X149977Y204501D01*
X150061D01*
X150107Y204483D01*
D02*
G37*
G36*
X167787Y204492D02*
X167907Y204455D01*
X168027Y204409D01*
X168138Y204344D01*
X168230Y204270D01*
X168323Y204187D01*
X168471Y204002D01*
X168591Y203817D01*
X168637Y203734D01*
X168674Y203660D01*
X168702Y203595D01*
X168720Y203549D01*
X168739Y203512D01*
Y203503D01*
X168813Y203235D01*
X168868Y202957D01*
X168905Y202680D01*
X168933Y202430D01*
X168942Y202310D01*
X168951Y202209D01*
Y202116D01*
X168961Y202033D01*
Y201968D01*
Y201922D01*
Y201885D01*
Y201876D01*
X168951Y201534D01*
X168924Y201229D01*
X168905Y201081D01*
X168887Y200951D01*
X168868Y200822D01*
X168850Y200711D01*
X168831Y200609D01*
X168813Y200517D01*
X168794Y200433D01*
X168776Y200369D01*
X168757Y200322D01*
X168748Y200276D01*
X168739Y200258D01*
Y200249D01*
X168674Y200073D01*
X168591Y199916D01*
X168508Y199786D01*
X168424Y199675D01*
X168332Y199574D01*
X168240Y199490D01*
X168156Y199426D01*
X168064Y199379D01*
X167981Y199333D01*
X167907Y199305D01*
X167833Y199278D01*
X167768Y199268D01*
X167722Y199259D01*
X167685Y199250D01*
X167648D01*
X167509Y199259D01*
X167389Y199296D01*
X167269Y199342D01*
X167167Y199407D01*
X167065Y199481D01*
X166982Y199564D01*
X166825Y199749D01*
X166714Y199934D01*
X166668Y200017D01*
X166631Y200091D01*
X166603Y200156D01*
X166585Y200202D01*
X166566Y200239D01*
Y200249D01*
X166492Y200517D01*
X166437Y200794D01*
X166390Y201062D01*
X166363Y201321D01*
X166353Y201432D01*
X166344Y201543D01*
Y201635D01*
X166335Y201719D01*
Y201783D01*
Y201839D01*
Y201866D01*
Y201876D01*
X166344Y202218D01*
X166372Y202523D01*
X166390Y202662D01*
X166409Y202800D01*
X166427Y202920D01*
X166446Y203031D01*
X166474Y203133D01*
X166492Y203226D01*
X166511Y203309D01*
X166529Y203374D01*
X166548Y203429D01*
X166557Y203466D01*
X166566Y203484D01*
Y203494D01*
X166631Y203669D01*
X166714Y203827D01*
X166797Y203965D01*
X166880Y204076D01*
X166973Y204178D01*
X167056Y204252D01*
X167149Y204326D01*
X167232Y204372D01*
X167315Y204418D01*
X167398Y204446D01*
X167463Y204474D01*
X167528Y204483D01*
X167574Y204492D01*
X167611Y204501D01*
X167648D01*
X167787Y204492D01*
D02*
G37*
G36*
X175618D02*
X175682Y204464D01*
X175728Y204418D01*
X175756Y204372D01*
X175775Y204317D01*
X175793Y204280D01*
Y204243D01*
Y204233D01*
Y199509D01*
X175784Y199426D01*
X175756Y199361D01*
X175710Y199315D01*
X175664Y199287D01*
X175618Y199268D01*
X175571Y199250D01*
X175534D01*
X175442Y199259D01*
X175377Y199287D01*
X175331Y199333D01*
X175303Y199379D01*
X175275Y199426D01*
X175266Y199472D01*
Y199500D01*
Y199509D01*
Y201349D01*
X174221D01*
X174092Y201358D01*
X173972Y201367D01*
X173750Y201413D01*
X173556Y201487D01*
X173389Y201571D01*
X173260Y201645D01*
X173158Y201719D01*
X173130Y201746D01*
X173103Y201765D01*
X173093Y201783D01*
X173084D01*
X173010Y201866D01*
X172936Y201959D01*
X172825Y202144D01*
X172751Y202338D01*
X172696Y202514D01*
X172659Y202680D01*
X172650Y202745D01*
Y202800D01*
X172640Y202856D01*
Y202893D01*
Y202911D01*
Y202920D01*
X172650Y203041D01*
X172659Y203161D01*
X172715Y203374D01*
X172788Y203568D01*
X172872Y203725D01*
X172955Y203854D01*
X172992Y203910D01*
X173029Y203956D01*
X173057Y203993D01*
X173084Y204021D01*
X173093Y204030D01*
X173103Y204039D01*
X173195Y204122D01*
X173288Y204196D01*
X173380Y204252D01*
X173473Y204307D01*
X173657Y204391D01*
X173833Y204446D01*
X173990Y204474D01*
X174055Y204492D01*
X174111D01*
X174157Y204501D01*
X175534D01*
X175618Y204492D01*
D02*
G37*
G36*
X155368D02*
X155432Y204464D01*
X155478Y204418D01*
X155506Y204372D01*
X155525Y204317D01*
X155543Y204280D01*
Y204243D01*
Y204233D01*
Y199509D01*
X155534Y199426D01*
X155506Y199361D01*
X155460Y199315D01*
X155414Y199287D01*
X155368Y199268D01*
X155321Y199250D01*
X155284D01*
X155192Y199259D01*
X155127Y199287D01*
X155081Y199333D01*
X155053Y199379D01*
X155026Y199426D01*
X155016Y199472D01*
Y199500D01*
Y199509D01*
Y201349D01*
X153972D01*
X153842Y201358D01*
X153722Y201367D01*
X153500Y201413D01*
X153306Y201487D01*
X153139Y201571D01*
X153010Y201645D01*
X152908Y201719D01*
X152880Y201746D01*
X152853Y201765D01*
X152844Y201783D01*
X152834D01*
X152760Y201866D01*
X152686Y201959D01*
X152575Y202144D01*
X152501Y202338D01*
X152446Y202514D01*
X152409Y202680D01*
X152400Y202745D01*
Y202800D01*
X152390Y202856D01*
Y202893D01*
Y202911D01*
Y202920D01*
X152400Y203041D01*
X152409Y203161D01*
X152465Y203374D01*
X152538Y203568D01*
X152622Y203725D01*
X152705Y203854D01*
X152742Y203910D01*
X152779Y203956D01*
X152807Y203993D01*
X152834Y204021D01*
X152844Y204030D01*
X152853Y204039D01*
X152945Y204122D01*
X153038Y204196D01*
X153130Y204252D01*
X153223Y204307D01*
X153407Y204391D01*
X153583Y204446D01*
X153740Y204474D01*
X153805Y204492D01*
X153861D01*
X153907Y204501D01*
X155284D01*
X155368Y204492D01*
D02*
G37*
G36*
X159574D02*
X159639Y204464D01*
X159685Y204418D01*
X159713Y204372D01*
X159732Y204317D01*
X159750Y204280D01*
Y204243D01*
Y204233D01*
X159741Y204150D01*
X159713Y204085D01*
X159667Y204039D01*
X159621Y204011D01*
X159574Y203993D01*
X159528Y203974D01*
X158437D01*
Y199509D01*
X158428Y199426D01*
X158400Y199361D01*
X158354Y199315D01*
X158308Y199287D01*
X158261Y199268D01*
X158215Y199250D01*
X158178D01*
X158086Y199259D01*
X158021Y199287D01*
X157975Y199333D01*
X157947Y199379D01*
X157919Y199426D01*
X157910Y199472D01*
Y199500D01*
Y199509D01*
Y203974D01*
X156865D01*
X156773Y203984D01*
X156708Y204011D01*
X156662Y204058D01*
X156634Y204104D01*
X156607Y204150D01*
X156597Y204196D01*
Y204224D01*
Y204233D01*
X156607Y204326D01*
X156634Y204391D01*
X156680Y204437D01*
X156727Y204464D01*
X156782Y204492D01*
X156819Y204501D01*
X159491D01*
X159574Y204492D01*
D02*
G37*
G36*
X147481Y204483D02*
X147546Y204455D01*
X147592Y204418D01*
X147601Y204409D01*
X147611Y204400D01*
X148637Y203374D01*
X148683Y203309D01*
X148701Y203253D01*
X148711Y203207D01*
Y203198D01*
Y203189D01*
X148701Y203096D01*
X148674Y203031D01*
X148628Y202985D01*
X148581Y202957D01*
X148535Y202939D01*
X148489Y202920D01*
X148452D01*
X148378Y202930D01*
X148313Y202957D01*
X148276Y202985D01*
X148267Y202994D01*
X147657Y203605D01*
Y199509D01*
X147647Y199426D01*
X147620Y199361D01*
X147573Y199315D01*
X147527Y199287D01*
X147481Y199268D01*
X147435Y199250D01*
X147398D01*
X147305Y199259D01*
X147241Y199287D01*
X147194Y199333D01*
X147167Y199379D01*
X147139Y199426D01*
X147130Y199472D01*
Y199500D01*
Y199509D01*
Y204233D01*
X147139Y204326D01*
X147167Y204391D01*
X147213Y204437D01*
X147259Y204464D01*
X147315Y204492D01*
X147352Y204501D01*
X147435D01*
X147481Y204483D01*
D02*
G37*
G36*
X179824Y204492D02*
X179889Y204464D01*
X179935Y204418D01*
X179963Y204372D01*
X179981Y204317D01*
X180000Y204280D01*
Y204243D01*
Y204233D01*
X179991Y204150D01*
X179963Y204085D01*
X179917Y204039D01*
X179871Y204011D01*
X179824Y203993D01*
X179778Y203974D01*
X178687D01*
Y199509D01*
X178678Y199426D01*
X178650Y199361D01*
X178604Y199315D01*
X178558Y199287D01*
X178512Y199268D01*
X178465Y199250D01*
X178428D01*
X178336Y199259D01*
X178271Y199287D01*
X178225Y199333D01*
X178197Y199379D01*
X178169Y199426D01*
X178160Y199472D01*
Y199500D01*
Y199509D01*
Y203974D01*
X177115D01*
X177023Y203984D01*
X176958Y204011D01*
X176912Y204058D01*
X176884Y204104D01*
X176856Y204150D01*
X176847Y204196D01*
Y204224D01*
Y204233D01*
X176856Y204326D01*
X176884Y204391D01*
X176931Y204437D01*
X176977Y204464D01*
X177032Y204492D01*
X177069Y204501D01*
X179741D01*
X179824Y204492D01*
D02*
G37*
G36*
X74824Y70242D02*
X74889Y70215D01*
X74935Y70168D01*
X74963Y70122D01*
X74981Y70067D01*
X75000Y70030D01*
Y69993D01*
Y69983D01*
X74991Y69900D01*
X74963Y69835D01*
X74917Y69789D01*
X74871Y69762D01*
X74824Y69743D01*
X74778Y69724D01*
X73687D01*
Y65259D01*
X73678Y65176D01*
X73650Y65111D01*
X73604Y65065D01*
X73558Y65037D01*
X73512Y65019D01*
X73465Y65000D01*
X73428D01*
X73336Y65009D01*
X73271Y65037D01*
X73225Y65083D01*
X73197Y65129D01*
X73169Y65176D01*
X73160Y65222D01*
Y65250D01*
Y65259D01*
Y69724D01*
X72115D01*
X72023Y69734D01*
X71958Y69762D01*
X71912Y69808D01*
X71884Y69854D01*
X71856Y69900D01*
X71847Y69946D01*
Y69974D01*
Y69983D01*
X71856Y70076D01*
X71884Y70141D01*
X71930Y70187D01*
X71977Y70215D01*
X72032Y70242D01*
X72069Y70251D01*
X74741D01*
X74824Y70242D01*
D02*
G37*
G36*
X175118Y104242D02*
X175182Y104214D01*
X175229Y104168D01*
X175256Y104122D01*
X175275Y104067D01*
X175293Y104030D01*
Y103993D01*
Y103983D01*
Y99259D01*
X175284Y99176D01*
X175256Y99111D01*
X175210Y99065D01*
X175164Y99037D01*
X175118Y99018D01*
X175071Y99000D01*
X175034D01*
X174942Y99009D01*
X174877Y99037D01*
X174831Y99083D01*
X174803Y99129D01*
X174776Y99176D01*
X174766Y99222D01*
Y99250D01*
Y99259D01*
Y101099D01*
X173722D01*
X173592Y101108D01*
X173472Y101117D01*
X173250Y101164D01*
X173056Y101237D01*
X172889Y101321D01*
X172760Y101395D01*
X172658Y101469D01*
X172631Y101496D01*
X172603Y101515D01*
X172593Y101533D01*
X172584D01*
X172510Y101616D01*
X172436Y101709D01*
X172325Y101894D01*
X172251Y102088D01*
X172196Y102264D01*
X172159Y102430D01*
X172150Y102495D01*
Y102550D01*
X172141Y102606D01*
Y102643D01*
Y102661D01*
Y102670D01*
X172150Y102791D01*
X172159Y102911D01*
X172215Y103124D01*
X172288Y103318D01*
X172372Y103475D01*
X172455Y103604D01*
X172492Y103660D01*
X172529Y103706D01*
X172557Y103743D01*
X172584Y103771D01*
X172593Y103780D01*
X172603Y103789D01*
X172695Y103872D01*
X172788Y103946D01*
X172880Y104002D01*
X172973Y104057D01*
X173158Y104141D01*
X173333Y104196D01*
X173490Y104224D01*
X173555Y104242D01*
X173610D01*
X173657Y104251D01*
X175034D01*
X175118Y104242D01*
D02*
G37*
G36*
X179324D02*
X179389Y104214D01*
X179435Y104168D01*
X179463Y104122D01*
X179482Y104067D01*
X179500Y104030D01*
Y103993D01*
Y103983D01*
X179491Y103900D01*
X179463Y103835D01*
X179417Y103789D01*
X179371Y103762D01*
X179324Y103743D01*
X179278Y103724D01*
X178187D01*
Y99259D01*
X178178Y99176D01*
X178150Y99111D01*
X178104Y99065D01*
X178058Y99037D01*
X178011Y99018D01*
X177965Y99000D01*
X177928D01*
X177836Y99009D01*
X177771Y99037D01*
X177725Y99083D01*
X177697Y99129D01*
X177669Y99176D01*
X177660Y99222D01*
Y99250D01*
Y99259D01*
Y103724D01*
X176615D01*
X176523Y103734D01*
X176458Y103762D01*
X176412Y103808D01*
X176384Y103854D01*
X176357Y103900D01*
X176347Y103946D01*
Y103974D01*
Y103983D01*
X176357Y104076D01*
X176384Y104141D01*
X176430Y104187D01*
X176477Y104214D01*
X176532Y104242D01*
X176569Y104251D01*
X179241D01*
X179324Y104242D01*
D02*
G37*
G36*
X170357Y204483D02*
X170422Y204455D01*
X170468Y204418D01*
X170477Y204409D01*
X170486Y204400D01*
X171513Y203374D01*
X171559Y203309D01*
X171577Y203253D01*
X171586Y203207D01*
Y203198D01*
Y203189D01*
X171577Y203096D01*
X171549Y203031D01*
X171503Y202985D01*
X171457Y202957D01*
X171411Y202939D01*
X171365Y202920D01*
X171328D01*
X171254Y202930D01*
X171189Y202957D01*
X171152Y202985D01*
X171143Y202994D01*
X170532Y203605D01*
Y199509D01*
X170523Y199426D01*
X170495Y199361D01*
X170449Y199315D01*
X170403Y199287D01*
X170357Y199268D01*
X170311Y199250D01*
X170274D01*
X170181Y199259D01*
X170116Y199287D01*
X170070Y199333D01*
X170042Y199379D01*
X170015Y199426D01*
X170005Y199472D01*
Y199500D01*
Y199509D01*
Y204233D01*
X170015Y204326D01*
X170042Y204391D01*
X170089Y204437D01*
X170135Y204464D01*
X170190Y204492D01*
X170227Y204501D01*
X170311D01*
X170357Y204483D01*
D02*
G37*
G36*
X65468Y70233D02*
X65653Y70187D01*
X65810Y70131D01*
X65949Y70057D01*
X66059Y69983D01*
X66133Y69928D01*
X66189Y69882D01*
X66207Y69863D01*
X66337Y69715D01*
X66429Y69558D01*
X66494Y69401D01*
X66540Y69253D01*
X66568Y69133D01*
X66577Y69031D01*
X66586Y68994D01*
Y68966D01*
Y68948D01*
Y68939D01*
X66577Y68818D01*
X66568Y68707D01*
X66503Y68495D01*
X66420Y68319D01*
X66328Y68162D01*
X66235Y68042D01*
X66152Y67959D01*
X66087Y67903D01*
X66078Y67894D01*
X66069Y67885D01*
X66161Y67811D01*
X66235Y67727D01*
X66309Y67644D01*
X66365Y67552D01*
X66457Y67376D01*
X66522Y67210D01*
X66559Y67062D01*
X66568Y66997D01*
X66577Y66942D01*
X66586Y66895D01*
Y66858D01*
Y66840D01*
Y66831D01*
Y66313D01*
X66568Y66119D01*
X66531Y65934D01*
X66466Y65777D01*
X66392Y65638D01*
X66328Y65527D01*
X66263Y65453D01*
X66226Y65398D01*
X66207Y65379D01*
X66059Y65250D01*
X65893Y65157D01*
X65745Y65093D01*
X65597Y65046D01*
X65468Y65019D01*
X65366Y65009D01*
X65329Y65000D01*
X65274D01*
X65079Y65019D01*
X64904Y65055D01*
X64747Y65120D01*
X64608Y65194D01*
X64497Y65259D01*
X64414Y65324D01*
X64368Y65361D01*
X64349Y65379D01*
X64220Y65527D01*
X64127Y65693D01*
X64053Y65841D01*
X64007Y65989D01*
X63979Y66119D01*
X63970Y66220D01*
X63961Y66257D01*
Y66285D01*
Y66304D01*
Y66313D01*
Y66433D01*
Y66535D01*
X63970Y66637D01*
Y66729D01*
X63979Y66877D01*
X63988Y66997D01*
X63998Y67080D01*
X64007Y67136D01*
X64016Y67173D01*
Y67182D01*
X64062Y67330D01*
X64127Y67469D01*
X64201Y67589D01*
X64284Y67691D01*
X64358Y67774D01*
X64423Y67829D01*
X64469Y67875D01*
X64488Y67885D01*
X64395Y67959D01*
X64312Y68042D01*
X64247Y68134D01*
X64183Y68218D01*
X64127Y68310D01*
X64090Y68393D01*
X64026Y68560D01*
X63988Y68707D01*
X63979Y68772D01*
X63970Y68828D01*
X63961Y68874D01*
Y68911D01*
Y68929D01*
Y68939D01*
X63979Y69133D01*
X64026Y69308D01*
X64081Y69466D01*
X64155Y69604D01*
X64229Y69715D01*
X64284Y69798D01*
X64331Y69845D01*
X64349Y69863D01*
X64497Y69993D01*
X64654Y70085D01*
X64811Y70159D01*
X64959Y70205D01*
X65079Y70233D01*
X65181Y70242D01*
X65218Y70251D01*
X65274D01*
X65468Y70233D01*
D02*
G37*
G36*
X70618Y70242D02*
X70682Y70215D01*
X70729Y70168D01*
X70756Y70122D01*
X70775Y70067D01*
X70793Y70030D01*
Y69993D01*
Y69983D01*
Y65259D01*
X70784Y65176D01*
X70756Y65111D01*
X70710Y65065D01*
X70664Y65037D01*
X70618Y65019D01*
X70571Y65000D01*
X70534D01*
X70442Y65009D01*
X70377Y65037D01*
X70331Y65083D01*
X70303Y65129D01*
X70276Y65176D01*
X70266Y65222D01*
Y65250D01*
Y65259D01*
Y67099D01*
X69222D01*
X69092Y67108D01*
X68972Y67117D01*
X68750Y67164D01*
X68556Y67237D01*
X68389Y67321D01*
X68260Y67395D01*
X68158Y67469D01*
X68130Y67496D01*
X68103Y67515D01*
X68094Y67533D01*
X68084D01*
X68010Y67617D01*
X67936Y67709D01*
X67825Y67894D01*
X67751Y68088D01*
X67696Y68264D01*
X67659Y68430D01*
X67650Y68495D01*
Y68550D01*
X67641Y68606D01*
Y68643D01*
Y68661D01*
Y68671D01*
X67650Y68791D01*
X67659Y68911D01*
X67715Y69124D01*
X67788Y69318D01*
X67872Y69475D01*
X67955Y69604D01*
X67992Y69660D01*
X68029Y69706D01*
X68057Y69743D01*
X68084Y69771D01*
X68094Y69780D01*
X68103Y69789D01*
X68195Y69872D01*
X68288Y69946D01*
X68380Y70002D01*
X68473Y70057D01*
X68657Y70141D01*
X68833Y70196D01*
X68990Y70224D01*
X69055Y70242D01*
X69111D01*
X69157Y70251D01*
X70534D01*
X70618Y70242D01*
D02*
G37*
G36*
X127296Y204742D02*
X127435Y204715D01*
X127564Y204668D01*
X127693Y204604D01*
X127804Y204530D01*
X127906Y204456D01*
X128008Y204372D01*
X128100Y204280D01*
X128174Y204197D01*
X128248Y204104D01*
X128304Y204030D01*
X128350Y203956D01*
X128396Y203892D01*
X128424Y203845D01*
X128433Y203818D01*
X128442Y203808D01*
X128461Y203734D01*
Y203707D01*
Y203697D01*
X128451Y203614D01*
X128424Y203550D01*
X128378Y203503D01*
X128331Y203476D01*
X128285Y203457D01*
X128239Y203439D01*
X128202D01*
X128146Y203448D01*
X128100Y203457D01*
X128035Y203503D01*
X127989Y203550D01*
X127980Y203559D01*
Y203568D01*
X127906Y203688D01*
X127832Y203781D01*
X127767Y203873D01*
X127693Y203947D01*
X127619Y204012D01*
X127555Y204067D01*
X127490Y204104D01*
X127425Y204141D01*
X127314Y204188D01*
X127231Y204215D01*
X127176Y204224D01*
X127157D01*
X127037Y204215D01*
X126926Y204188D01*
X126833Y204151D01*
X126750Y204114D01*
X126686Y204067D01*
X126630Y204030D01*
X126602Y204003D01*
X126593Y203993D01*
X126519Y203901D01*
X126464Y203808D01*
X126418Y203716D01*
X126390Y203633D01*
X126371Y203550D01*
X126362Y203494D01*
Y203457D01*
Y203439D01*
X126371Y203355D01*
X126381Y203281D01*
X126399Y203207D01*
X126427Y203143D01*
X126454Y203087D01*
X126473Y203041D01*
X126482Y203013D01*
X126491Y203004D01*
X128424Y199907D01*
X128442Y199861D01*
X128451Y199805D01*
X128461Y199777D01*
Y199759D01*
X128451Y199676D01*
X128424Y199611D01*
X128378Y199565D01*
X128331Y199537D01*
X128285Y199519D01*
X128239Y199500D01*
X126103D01*
X126011Y199509D01*
X125946Y199537D01*
X125900Y199583D01*
X125872Y199629D01*
X125844Y199676D01*
X125835Y199722D01*
Y199750D01*
Y199759D01*
X125844Y199851D01*
X125872Y199916D01*
X125918Y199962D01*
X125964Y199990D01*
X126020Y200018D01*
X126057Y200027D01*
X127730D01*
X126075Y202680D01*
X125992Y202819D01*
X125937Y202958D01*
X125891Y203087D01*
X125863Y203198D01*
X125844Y203300D01*
X125835Y203374D01*
Y203420D01*
Y203439D01*
X125854Y203633D01*
X125900Y203808D01*
X125955Y203966D01*
X126029Y204104D01*
X126103Y204215D01*
X126159Y204298D01*
X126205Y204345D01*
X126223Y204363D01*
X126371Y204493D01*
X126528Y204585D01*
X126686Y204659D01*
X126833Y204705D01*
X126954Y204733D01*
X127055Y204742D01*
X127092Y204751D01*
X127148D01*
X127296Y204742D01*
D02*
G37*
G36*
X180398Y87999D02*
X180639Y87925D01*
X180880Y87832D01*
X181102Y87703D01*
X181287Y87555D01*
X181472Y87388D01*
X181769Y87017D01*
X182009Y86647D01*
X182102Y86481D01*
X182176Y86332D01*
X182232Y86203D01*
X182269Y86110D01*
X182306Y86036D01*
Y86018D01*
X182454Y85481D01*
X182565Y84925D01*
X182639Y84370D01*
X182694Y83870D01*
X182713Y83629D01*
X182731Y83425D01*
Y83240D01*
X182750Y83074D01*
Y82944D01*
Y82851D01*
Y82777D01*
Y82759D01*
X182731Y82074D01*
X182676Y81462D01*
X182639Y81166D01*
X182602Y80907D01*
X182565Y80648D01*
X182528Y80426D01*
X182491Y80222D01*
X182454Y80037D01*
X182417Y79870D01*
X182380Y79741D01*
X182343Y79648D01*
X182324Y79555D01*
X182306Y79518D01*
Y79500D01*
X182176Y79148D01*
X182009Y78833D01*
X181843Y78574D01*
X181676Y78352D01*
X181491Y78148D01*
X181306Y77981D01*
X181139Y77852D01*
X180954Y77759D01*
X180787Y77667D01*
X180639Y77611D01*
X180491Y77555D01*
X180361Y77537D01*
X180269Y77519D01*
X180195Y77500D01*
X180121D01*
X179843Y77519D01*
X179602Y77593D01*
X179361Y77685D01*
X179158Y77815D01*
X178954Y77963D01*
X178787Y78130D01*
X178473Y78500D01*
X178251Y78870D01*
X178158Y79037D01*
X178084Y79185D01*
X178028Y79315D01*
X177991Y79407D01*
X177954Y79481D01*
Y79500D01*
X177806Y80037D01*
X177695Y80592D01*
X177602Y81129D01*
X177547Y81648D01*
X177528Y81870D01*
X177510Y82092D01*
Y82277D01*
X177491Y82444D01*
Y82573D01*
Y82685D01*
Y82740D01*
Y82759D01*
X177510Y83444D01*
X177565Y84055D01*
X177602Y84333D01*
X177639Y84610D01*
X177677Y84851D01*
X177714Y85073D01*
X177769Y85277D01*
X177806Y85462D01*
X177843Y85629D01*
X177880Y85758D01*
X177917Y85870D01*
X177936Y85944D01*
X177954Y85981D01*
Y85999D01*
X178084Y86351D01*
X178251Y86666D01*
X178417Y86944D01*
X178584Y87166D01*
X178769Y87369D01*
X178936Y87517D01*
X179121Y87666D01*
X179287Y87758D01*
X179454Y87851D01*
X179621Y87906D01*
X179750Y87962D01*
X179880Y87980D01*
X179972Y87999D01*
X180047Y88017D01*
X180121D01*
X180398Y87999D01*
D02*
G37*
G36*
X150287Y64730D02*
X150417Y64675D01*
X150510Y64601D01*
X150528Y64582D01*
X150547Y64564D01*
X152602Y62508D01*
X152695Y62379D01*
X152732Y62268D01*
X152750Y62175D01*
Y62157D01*
Y62138D01*
X152732Y61953D01*
X152676Y61823D01*
X152583Y61731D01*
X152491Y61675D01*
X152398Y61638D01*
X152306Y61601D01*
X152232D01*
X152083Y61620D01*
X151954Y61675D01*
X151880Y61731D01*
X151861Y61749D01*
X150639Y62971D01*
Y54769D01*
X150621Y54602D01*
X150565Y54472D01*
X150472Y54380D01*
X150380Y54324D01*
X150287Y54287D01*
X150195Y54250D01*
X150121D01*
X149936Y54268D01*
X149806Y54324D01*
X149713Y54417D01*
X149658Y54509D01*
X149602Y54602D01*
X149584Y54694D01*
Y54750D01*
Y54769D01*
Y64230D01*
X149602Y64416D01*
X149658Y64545D01*
X149750Y64638D01*
X149843Y64693D01*
X149954Y64749D01*
X150028Y64767D01*
X150195D01*
X150287Y64730D01*
D02*
G37*
G36*
X163898Y64499D02*
X164139Y64425D01*
X164380Y64332D01*
X164602Y64203D01*
X164787Y64054D01*
X164972Y63888D01*
X165269Y63518D01*
X165509Y63147D01*
X165602Y62981D01*
X165676Y62832D01*
X165732Y62703D01*
X165769Y62610D01*
X165806Y62536D01*
Y62518D01*
X165954Y61981D01*
X166065Y61425D01*
X166139Y60870D01*
X166194Y60370D01*
X166213Y60129D01*
X166231Y59925D01*
Y59740D01*
X166250Y59573D01*
Y59444D01*
Y59351D01*
Y59277D01*
Y59259D01*
X166231Y58574D01*
X166176Y57963D01*
X166139Y57666D01*
X166102Y57407D01*
X166065Y57148D01*
X166028Y56926D01*
X165991Y56722D01*
X165954Y56537D01*
X165917Y56370D01*
X165880Y56241D01*
X165843Y56148D01*
X165824Y56055D01*
X165806Y56018D01*
Y56000D01*
X165676Y55648D01*
X165509Y55333D01*
X165343Y55074D01*
X165176Y54852D01*
X164991Y54648D01*
X164806Y54482D01*
X164639Y54352D01*
X164454Y54259D01*
X164287Y54167D01*
X164139Y54111D01*
X163991Y54056D01*
X163861Y54037D01*
X163769Y54019D01*
X163695Y54000D01*
X163621D01*
X163343Y54019D01*
X163102Y54093D01*
X162861Y54185D01*
X162658Y54315D01*
X162454Y54463D01*
X162288Y54630D01*
X161973Y55000D01*
X161751Y55370D01*
X161658Y55537D01*
X161584Y55685D01*
X161528Y55815D01*
X161491Y55907D01*
X161454Y55981D01*
Y56000D01*
X161306Y56537D01*
X161195Y57092D01*
X161102Y57629D01*
X161047Y58148D01*
X161028Y58370D01*
X161010Y58592D01*
Y58777D01*
X160991Y58944D01*
Y59074D01*
Y59185D01*
Y59240D01*
Y59259D01*
X161010Y59944D01*
X161065Y60555D01*
X161102Y60833D01*
X161139Y61110D01*
X161176Y61351D01*
X161213Y61573D01*
X161269Y61777D01*
X161306Y61962D01*
X161343Y62129D01*
X161380Y62258D01*
X161417Y62369D01*
X161436Y62444D01*
X161454Y62481D01*
Y62499D01*
X161584Y62851D01*
X161751Y63166D01*
X161917Y63443D01*
X162084Y63666D01*
X162269Y63869D01*
X162436Y64018D01*
X162621Y64166D01*
X162787Y64258D01*
X162954Y64351D01*
X163121Y64406D01*
X163250Y64462D01*
X163380Y64480D01*
X163472Y64499D01*
X163547Y64517D01*
X163621D01*
X163898Y64499D01*
D02*
G37*
G36*
X182287Y152230D02*
X182417Y152175D01*
X182509Y152101D01*
X182528Y152082D01*
X182547Y152064D01*
X184602Y150008D01*
X184694Y149879D01*
X184732Y149768D01*
X184750Y149675D01*
Y149657D01*
Y149638D01*
X184732Y149453D01*
X184676Y149323D01*
X184583Y149231D01*
X184491Y149175D01*
X184398Y149138D01*
X184306Y149101D01*
X184231D01*
X184083Y149120D01*
X183954Y149175D01*
X183880Y149231D01*
X183861Y149249D01*
X182639Y150471D01*
Y142268D01*
X182621Y142102D01*
X182565Y141972D01*
X182472Y141880D01*
X182380Y141824D01*
X182287Y141787D01*
X182195Y141750D01*
X182121D01*
X181936Y141769D01*
X181806Y141824D01*
X181713Y141917D01*
X181658Y142009D01*
X181602Y142102D01*
X181584Y142194D01*
Y142250D01*
Y142268D01*
Y151730D01*
X181602Y151916D01*
X181658Y152045D01*
X181750Y152138D01*
X181843Y152193D01*
X181954Y152249D01*
X182028Y152267D01*
X182195D01*
X182287Y152230D01*
D02*
G37*
G36*
X182648Y137749D02*
X182889Y137675D01*
X183130Y137582D01*
X183352Y137453D01*
X183537Y137304D01*
X183722Y137138D01*
X184019Y136768D01*
X184259Y136397D01*
X184352Y136230D01*
X184426Y136082D01*
X184482Y135953D01*
X184519Y135860D01*
X184556Y135786D01*
Y135768D01*
X184704Y135231D01*
X184815Y134675D01*
X184889Y134120D01*
X184944Y133620D01*
X184963Y133379D01*
X184981Y133175D01*
Y132990D01*
X185000Y132823D01*
Y132694D01*
Y132601D01*
Y132527D01*
Y132509D01*
X184981Y131824D01*
X184926Y131213D01*
X184889Y130916D01*
X184852Y130657D01*
X184815Y130398D01*
X184778Y130176D01*
X184741Y129972D01*
X184704Y129787D01*
X184667Y129620D01*
X184630Y129490D01*
X184593Y129398D01*
X184574Y129305D01*
X184556Y129268D01*
Y129250D01*
X184426Y128898D01*
X184259Y128583D01*
X184093Y128324D01*
X183926Y128102D01*
X183741Y127898D01*
X183556Y127731D01*
X183389Y127602D01*
X183204Y127509D01*
X183037Y127417D01*
X182889Y127361D01*
X182741Y127305D01*
X182611Y127287D01*
X182519Y127268D01*
X182445Y127250D01*
X182371D01*
X182093Y127268D01*
X181852Y127343D01*
X181611Y127435D01*
X181408Y127565D01*
X181204Y127713D01*
X181038Y127880D01*
X180723Y128250D01*
X180501Y128620D01*
X180408Y128787D01*
X180334Y128935D01*
X180278Y129065D01*
X180241Y129157D01*
X180204Y129231D01*
Y129250D01*
X180056Y129787D01*
X179945Y130342D01*
X179852Y130879D01*
X179797Y131398D01*
X179778Y131620D01*
X179760Y131842D01*
Y132027D01*
X179741Y132194D01*
Y132324D01*
Y132435D01*
Y132490D01*
Y132509D01*
X179760Y133194D01*
X179815Y133805D01*
X179852Y134083D01*
X179889Y134360D01*
X179926Y134601D01*
X179963Y134823D01*
X180019Y135027D01*
X180056Y135212D01*
X180093Y135379D01*
X180130Y135508D01*
X180167Y135619D01*
X180186Y135694D01*
X180204Y135731D01*
Y135749D01*
X180334Y136101D01*
X180501Y136416D01*
X180667Y136693D01*
X180834Y136916D01*
X181019Y137119D01*
X181186Y137268D01*
X181371Y137416D01*
X181537Y137508D01*
X181704Y137601D01*
X181871Y137656D01*
X182000Y137712D01*
X182130Y137730D01*
X182222Y137749D01*
X182297Y137767D01*
X182371D01*
X182648Y137749D01*
D02*
G37*
G36*
X179787Y72980D02*
X179917Y72925D01*
X180009Y72851D01*
X180028Y72832D01*
X180047Y72814D01*
X182102Y70758D01*
X182194Y70629D01*
X182232Y70518D01*
X182250Y70425D01*
Y70407D01*
Y70388D01*
X182232Y70203D01*
X182176Y70073D01*
X182083Y69981D01*
X181991Y69925D01*
X181898Y69888D01*
X181806Y69851D01*
X181731D01*
X181583Y69870D01*
X181454Y69925D01*
X181380Y69981D01*
X181361Y69999D01*
X180139Y71221D01*
Y63018D01*
X180121Y62852D01*
X180065Y62722D01*
X179972Y62630D01*
X179880Y62574D01*
X179787Y62537D01*
X179695Y62500D01*
X179621D01*
X179436Y62519D01*
X179306Y62574D01*
X179213Y62667D01*
X179158Y62759D01*
X179102Y62852D01*
X179084Y62944D01*
Y63000D01*
Y63018D01*
Y72480D01*
X179102Y72666D01*
X179158Y72795D01*
X179250Y72888D01*
X179343Y72943D01*
X179454Y72999D01*
X179528Y73017D01*
X179695D01*
X179787Y72980D01*
D02*
G37*
G36*
X123648Y64749D02*
X123889Y64675D01*
X124130Y64582D01*
X124352Y64453D01*
X124537Y64304D01*
X124722Y64138D01*
X125019Y63767D01*
X125259Y63397D01*
X125352Y63231D01*
X125426Y63082D01*
X125482Y62953D01*
X125519Y62860D01*
X125556Y62786D01*
Y62768D01*
X125704Y62231D01*
X125815Y61675D01*
X125889Y61120D01*
X125944Y60620D01*
X125963Y60379D01*
X125982Y60175D01*
Y59990D01*
X126000Y59823D01*
Y59694D01*
Y59601D01*
Y59527D01*
Y59509D01*
X125982Y58824D01*
X125926Y58213D01*
X125889Y57916D01*
X125852Y57657D01*
X125815Y57398D01*
X125778Y57176D01*
X125741Y56972D01*
X125704Y56787D01*
X125667Y56620D01*
X125630Y56491D01*
X125593Y56398D01*
X125574Y56305D01*
X125556Y56268D01*
Y56250D01*
X125426Y55898D01*
X125259Y55583D01*
X125093Y55324D01*
X124926Y55102D01*
X124741Y54898D01*
X124556Y54731D01*
X124389Y54602D01*
X124204Y54509D01*
X124037Y54417D01*
X123889Y54361D01*
X123741Y54306D01*
X123611Y54287D01*
X123519Y54268D01*
X123445Y54250D01*
X123371D01*
X123093Y54268D01*
X122852Y54343D01*
X122612Y54435D01*
X122408Y54565D01*
X122204Y54713D01*
X122037Y54880D01*
X121723Y55250D01*
X121501Y55620D01*
X121408Y55787D01*
X121334Y55935D01*
X121278Y56065D01*
X121241Y56157D01*
X121204Y56231D01*
Y56250D01*
X121056Y56787D01*
X120945Y57342D01*
X120852Y57879D01*
X120797Y58398D01*
X120778Y58620D01*
X120760Y58842D01*
Y59027D01*
X120741Y59194D01*
Y59324D01*
Y59435D01*
Y59490D01*
Y59509D01*
X120760Y60194D01*
X120815Y60805D01*
X120852Y61083D01*
X120889Y61360D01*
X120927Y61601D01*
X120963Y61823D01*
X121019Y62027D01*
X121056Y62212D01*
X121093Y62379D01*
X121130Y62508D01*
X121167Y62620D01*
X121186Y62694D01*
X121204Y62731D01*
Y62749D01*
X121334Y63101D01*
X121501Y63416D01*
X121667Y63693D01*
X121834Y63916D01*
X122019Y64119D01*
X122186Y64268D01*
X122371Y64416D01*
X122537Y64508D01*
X122704Y64601D01*
X122871Y64656D01*
X123000Y64712D01*
X123130Y64730D01*
X123223Y64749D01*
X123297Y64767D01*
X123371D01*
X123648Y64749D01*
D02*
G37*
G36*
X135118Y204742D02*
X135182Y204715D01*
X135229Y204668D01*
X135256Y204622D01*
X135275Y204567D01*
X135293Y204530D01*
Y204493D01*
Y204483D01*
Y199759D01*
X135284Y199676D01*
X135256Y199611D01*
X135210Y199565D01*
X135164Y199537D01*
X135118Y199519D01*
X135071Y199500D01*
X135034D01*
X134942Y199509D01*
X134877Y199537D01*
X134831Y199583D01*
X134803Y199629D01*
X134775Y199676D01*
X134766Y199722D01*
Y199750D01*
Y199759D01*
Y201599D01*
X133722D01*
X133592Y201608D01*
X133472Y201617D01*
X133250Y201663D01*
X133056Y201737D01*
X132889Y201821D01*
X132760Y201895D01*
X132658Y201969D01*
X132631Y201996D01*
X132603Y202015D01*
X132593Y202033D01*
X132584D01*
X132510Y202117D01*
X132436Y202209D01*
X132325Y202394D01*
X132251Y202588D01*
X132196Y202764D01*
X132159Y202930D01*
X132150Y202995D01*
Y203050D01*
X132141Y203106D01*
Y203143D01*
Y203161D01*
Y203171D01*
X132150Y203291D01*
X132159Y203411D01*
X132214Y203624D01*
X132288Y203818D01*
X132372Y203975D01*
X132455Y204104D01*
X132492Y204160D01*
X132529Y204206D01*
X132557Y204243D01*
X132584Y204271D01*
X132593Y204280D01*
X132603Y204289D01*
X132695Y204372D01*
X132788Y204446D01*
X132880Y204502D01*
X132973Y204557D01*
X133158Y204641D01*
X133333Y204696D01*
X133490Y204724D01*
X133555Y204742D01*
X133611D01*
X133657Y204751D01*
X135034D01*
X135118Y204742D01*
D02*
G37*
G36*
X139324D02*
X139389Y204715D01*
X139435Y204668D01*
X139463Y204622D01*
X139481Y204567D01*
X139500Y204530D01*
Y204493D01*
Y204483D01*
X139491Y204400D01*
X139463Y204335D01*
X139417Y204289D01*
X139371Y204261D01*
X139324Y204243D01*
X139278Y204224D01*
X138187D01*
Y199759D01*
X138178Y199676D01*
X138150Y199611D01*
X138104Y199565D01*
X138058Y199537D01*
X138012Y199519D01*
X137965Y199500D01*
X137928D01*
X137836Y199509D01*
X137771Y199537D01*
X137725Y199583D01*
X137697Y199629D01*
X137669Y199676D01*
X137660Y199722D01*
Y199750D01*
Y199759D01*
Y204224D01*
X136615D01*
X136523Y204234D01*
X136458Y204261D01*
X136412Y204308D01*
X136384Y204354D01*
X136356Y204400D01*
X136347Y204446D01*
Y204474D01*
Y204483D01*
X136356Y204576D01*
X136384Y204641D01*
X136431Y204687D01*
X136477Y204715D01*
X136532Y204742D01*
X136569Y204751D01*
X139241D01*
X139324Y204742D01*
D02*
G37*
G36*
X129857Y204733D02*
X129922Y204705D01*
X129968Y204668D01*
X129977Y204659D01*
X129986Y204650D01*
X131012Y203624D01*
X131059Y203559D01*
X131077Y203503D01*
X131087Y203457D01*
Y203448D01*
Y203439D01*
X131077Y203346D01*
X131049Y203281D01*
X131003Y203235D01*
X130957Y203207D01*
X130911Y203189D01*
X130865Y203171D01*
X130828D01*
X130754Y203180D01*
X130689Y203207D01*
X130652Y203235D01*
X130643Y203244D01*
X130033Y203855D01*
Y199759D01*
X130023Y199676D01*
X129995Y199611D01*
X129949Y199565D01*
X129903Y199537D01*
X129857Y199519D01*
X129811Y199500D01*
X129774D01*
X129681Y199509D01*
X129616Y199537D01*
X129570Y199583D01*
X129543Y199629D01*
X129515Y199676D01*
X129506Y199722D01*
Y199750D01*
Y199759D01*
Y204483D01*
X129515Y204576D01*
X129543Y204641D01*
X129589Y204687D01*
X129635Y204715D01*
X129690Y204742D01*
X129727Y204751D01*
X129811D01*
X129857Y204733D01*
D02*
G37*
G36*
X110037Y64980D02*
X110167Y64925D01*
X110260Y64851D01*
X110278Y64832D01*
X110296Y64814D01*
X112352Y62758D01*
X112444Y62629D01*
X112481Y62518D01*
X112500Y62425D01*
Y62407D01*
Y62388D01*
X112481Y62203D01*
X112426Y62073D01*
X112333Y61981D01*
X112241Y61925D01*
X112148Y61888D01*
X112056Y61851D01*
X111981D01*
X111833Y61870D01*
X111704Y61925D01*
X111630Y61981D01*
X111611Y61999D01*
X110389Y63221D01*
Y55019D01*
X110371Y54852D01*
X110315Y54722D01*
X110223Y54630D01*
X110130Y54574D01*
X110037Y54537D01*
X109945Y54500D01*
X109871D01*
X109685Y54518D01*
X109556Y54574D01*
X109463Y54667D01*
X109408Y54759D01*
X109352Y54852D01*
X109334Y54944D01*
Y55000D01*
Y55019D01*
Y64480D01*
X109352Y64666D01*
X109408Y64795D01*
X109500Y64888D01*
X109593Y64943D01*
X109704Y64999D01*
X109778Y65017D01*
X109945D01*
X110037Y64980D01*
D02*
G37*
G36*
X27787Y181980D02*
X27917Y181925D01*
X28010Y181851D01*
X28028Y181832D01*
X28047Y181814D01*
X30102Y179758D01*
X30194Y179629D01*
X30231Y179518D01*
X30250Y179425D01*
Y179407D01*
Y179388D01*
X30231Y179203D01*
X30176Y179073D01*
X30083Y178981D01*
X29991Y178925D01*
X29898Y178888D01*
X29806Y178851D01*
X29732D01*
X29583Y178870D01*
X29454Y178925D01*
X29380Y178981D01*
X29361Y178999D01*
X28139Y180221D01*
Y172019D01*
X28121Y171852D01*
X28065Y171722D01*
X27973Y171630D01*
X27880Y171574D01*
X27787Y171537D01*
X27695Y171500D01*
X27621D01*
X27436Y171518D01*
X27306Y171574D01*
X27213Y171667D01*
X27158Y171759D01*
X27102Y171852D01*
X27084Y171944D01*
Y172000D01*
Y172019D01*
Y181481D01*
X27102Y181666D01*
X27158Y181795D01*
X27250Y181888D01*
X27343Y181943D01*
X27454Y181999D01*
X27528Y182017D01*
X27695D01*
X27787Y181980D01*
D02*
G37*
G36*
X13898Y181999D02*
X14139Y181925D01*
X14380Y181832D01*
X14602Y181703D01*
X14787Y181555D01*
X14972Y181388D01*
X15269Y181017D01*
X15509Y180647D01*
X15602Y180481D01*
X15676Y180332D01*
X15732Y180203D01*
X15769Y180110D01*
X15806Y180036D01*
Y180018D01*
X15954Y179481D01*
X16065Y178925D01*
X16139Y178370D01*
X16194Y177870D01*
X16213Y177629D01*
X16231Y177425D01*
Y177240D01*
X16250Y177073D01*
Y176944D01*
Y176851D01*
Y176777D01*
Y176759D01*
X16231Y176074D01*
X16176Y175463D01*
X16139Y175166D01*
X16102Y174907D01*
X16065Y174648D01*
X16028Y174426D01*
X15991Y174222D01*
X15954Y174037D01*
X15917Y173870D01*
X15880Y173741D01*
X15843Y173648D01*
X15824Y173555D01*
X15806Y173518D01*
Y173500D01*
X15676Y173148D01*
X15509Y172833D01*
X15343Y172574D01*
X15176Y172352D01*
X14991Y172148D01*
X14806Y171981D01*
X14639Y171852D01*
X14454Y171759D01*
X14287Y171667D01*
X14139Y171611D01*
X13991Y171556D01*
X13861Y171537D01*
X13769Y171518D01*
X13695Y171500D01*
X13621D01*
X13343Y171518D01*
X13102Y171593D01*
X12861Y171685D01*
X12658Y171815D01*
X12454Y171963D01*
X12287Y172130D01*
X11973Y172500D01*
X11751Y172870D01*
X11658Y173037D01*
X11584Y173185D01*
X11528Y173315D01*
X11491Y173407D01*
X11454Y173481D01*
Y173500D01*
X11306Y174037D01*
X11195Y174592D01*
X11102Y175129D01*
X11047Y175648D01*
X11028Y175870D01*
X11010Y176092D01*
Y176277D01*
X10991Y176444D01*
Y176574D01*
Y176685D01*
Y176740D01*
Y176759D01*
X11010Y177444D01*
X11065Y178055D01*
X11102Y178333D01*
X11139Y178610D01*
X11177Y178851D01*
X11214Y179073D01*
X11269Y179277D01*
X11306Y179462D01*
X11343Y179629D01*
X11380Y179758D01*
X11417Y179869D01*
X11436Y179944D01*
X11454Y179981D01*
Y179999D01*
X11584Y180351D01*
X11751Y180666D01*
X11917Y180944D01*
X12084Y181166D01*
X12269Y181369D01*
X12436Y181518D01*
X12621Y181666D01*
X12787Y181758D01*
X12954Y181851D01*
X13121Y181906D01*
X13250Y181962D01*
X13380Y181980D01*
X13472Y181999D01*
X13547Y182017D01*
X13621D01*
X13898Y181999D01*
D02*
G37*
G36*
X169838Y104242D02*
X169903Y104224D01*
X169940Y104187D01*
X169977Y104159D01*
X170005Y104122D01*
X170023Y104085D01*
X170033Y104067D01*
Y104057D01*
X171087Y100387D01*
Y100341D01*
Y100322D01*
Y100313D01*
X171077Y100230D01*
X171049Y100165D01*
X171003Y100119D01*
X170957Y100091D01*
X170911Y100072D01*
X170865Y100054D01*
X169247D01*
Y99259D01*
X169237Y99176D01*
X169210Y99111D01*
X169163Y99065D01*
X169117Y99037D01*
X169071Y99018D01*
X169025Y99000D01*
X168988D01*
X168895Y99009D01*
X168831Y99037D01*
X168784Y99083D01*
X168757Y99129D01*
X168729Y99176D01*
X168720Y99222D01*
Y99250D01*
Y99259D01*
Y100054D01*
X168202D01*
X168109Y100063D01*
X168045Y100091D01*
X167999Y100137D01*
X167971Y100183D01*
X167943Y100230D01*
X167934Y100276D01*
Y100304D01*
Y100313D01*
X167943Y100405D01*
X167971Y100470D01*
X168017Y100516D01*
X168063Y100544D01*
X168119Y100572D01*
X168156Y100581D01*
X168720D01*
Y101367D01*
X168729Y101459D01*
X168757Y101524D01*
X168803Y101570D01*
X168849Y101598D01*
X168904Y101626D01*
X168941Y101635D01*
X168988D01*
X169071Y101626D01*
X169136Y101598D01*
X169182Y101552D01*
X169210Y101506D01*
X169228Y101450D01*
X169247Y101413D01*
Y101376D01*
Y101367D01*
Y100581D01*
X170476D01*
X169524Y103909D01*
X169515Y103965D01*
Y103974D01*
Y103983D01*
X169524Y104076D01*
X169552Y104141D01*
X169598Y104187D01*
X169644Y104214D01*
X169690Y104242D01*
X169737Y104251D01*
X169774D01*
X169838Y104242D01*
D02*
G37*
G36*
X45334Y124499D02*
X45464Y124443D01*
X45556Y124351D01*
X45612Y124258D01*
X45649Y124147D01*
X45686Y124073D01*
Y123999D01*
Y123980D01*
Y119777D01*
X45667Y119611D01*
X45612Y119481D01*
X45519Y119388D01*
X45427Y119333D01*
X45334Y119296D01*
X45241Y119259D01*
X43057D01*
X42816Y119240D01*
X42612Y119185D01*
X42427Y119111D01*
X42260Y119037D01*
X42131Y118944D01*
X42020Y118870D01*
X41964Y118814D01*
X41946Y118796D01*
X41797Y118611D01*
X41686Y118426D01*
X41594Y118240D01*
X41538Y118055D01*
X41501Y117907D01*
X41483Y117777D01*
Y117703D01*
Y117666D01*
Y116629D01*
X41501Y116389D01*
X41557Y116166D01*
X41631Y115981D01*
X41705Y115815D01*
X41797Y115685D01*
X41871Y115592D01*
X41927Y115518D01*
X41946Y115500D01*
X42131Y115352D01*
X42316Y115241D01*
X42501Y115167D01*
X42668Y115111D01*
X42834Y115074D01*
X42945Y115055D01*
X45167D01*
X45334Y115037D01*
X45464Y114981D01*
X45556Y114889D01*
X45612Y114796D01*
X45649Y114685D01*
X45686Y114611D01*
Y114537D01*
Y114518D01*
X45667Y114352D01*
X45612Y114222D01*
X45519Y114130D01*
X45427Y114074D01*
X45334Y114037D01*
X45241Y114000D01*
X43057D01*
X42668Y114037D01*
X42316Y114111D01*
X42001Y114241D01*
X41723Y114389D01*
X41501Y114518D01*
X41334Y114648D01*
X41242Y114722D01*
X41205Y114759D01*
X40946Y115055D01*
X40760Y115389D01*
X40612Y115685D01*
X40520Y115981D01*
X40464Y116241D01*
X40446Y116444D01*
X40427Y116518D01*
Y116574D01*
Y116611D01*
Y116629D01*
Y117666D01*
X40464Y118055D01*
X40557Y118426D01*
X40668Y118740D01*
X40816Y119018D01*
X40964Y119240D01*
X41075Y119407D01*
X41168Y119499D01*
X41205Y119537D01*
X41501Y119796D01*
X41816Y119981D01*
X42131Y120129D01*
X42408Y120222D01*
X42668Y120277D01*
X42871Y120296D01*
X42945Y120314D01*
X44630D01*
Y123462D01*
X41483D01*
X41297Y123481D01*
X41168Y123536D01*
X41075Y123629D01*
X41020Y123721D01*
X40964Y123814D01*
X40946Y123906D01*
Y123962D01*
Y123980D01*
X40964Y124166D01*
X41020Y124295D01*
X41112Y124388D01*
X41205Y124443D01*
X41316Y124499D01*
X41390Y124517D01*
X45167D01*
X45334Y124499D01*
D02*
G37*
G36*
X48500D02*
X48630Y124443D01*
X48723Y124351D01*
X48778Y124258D01*
X48815Y124147D01*
X48852Y124073D01*
Y123999D01*
Y123980D01*
Y116629D01*
X48871Y116389D01*
X48926Y116166D01*
X49000Y115981D01*
X49074Y115815D01*
X49167Y115685D01*
X49241Y115592D01*
X49297Y115518D01*
X49315Y115500D01*
X49500Y115352D01*
X49685Y115241D01*
X49871Y115167D01*
X50037Y115111D01*
X50204Y115074D01*
X50315Y115055D01*
X51481D01*
X51648Y115037D01*
X51778Y114981D01*
X51870Y114889D01*
X51926Y114796D01*
X51963Y114685D01*
X52000Y114611D01*
Y114537D01*
Y114518D01*
X51982Y114352D01*
X51926Y114222D01*
X51833Y114130D01*
X51741Y114074D01*
X51648Y114037D01*
X51556Y114000D01*
X50426D01*
X50037Y114037D01*
X49667Y114111D01*
X49352Y114241D01*
X49093Y114389D01*
X48871Y114518D01*
X48704Y114648D01*
X48611Y114722D01*
X48574Y114759D01*
X48315Y115055D01*
X48130Y115370D01*
X47982Y115685D01*
X47889Y115981D01*
X47834Y116241D01*
X47815Y116444D01*
X47797Y116518D01*
Y116574D01*
Y116611D01*
Y116629D01*
Y123980D01*
X47815Y124166D01*
X47871Y124295D01*
X47963Y124388D01*
X48056Y124443D01*
X48167Y124499D01*
X48241Y124517D01*
X48334D01*
X48500Y124499D01*
D02*
G37*
G36*
Y145499D02*
X48630Y145443D01*
X48723Y145351D01*
X48778Y145258D01*
X48815Y145147D01*
X48852Y145073D01*
Y144999D01*
Y144980D01*
Y137629D01*
X48871Y137389D01*
X48926Y137167D01*
X49000Y136981D01*
X49074Y136815D01*
X49167Y136685D01*
X49241Y136592D01*
X49297Y136518D01*
X49315Y136500D01*
X49500Y136352D01*
X49685Y136241D01*
X49871Y136167D01*
X50037Y136111D01*
X50204Y136074D01*
X50315Y136055D01*
X51481D01*
X51648Y136037D01*
X51778Y135981D01*
X51870Y135889D01*
X51926Y135796D01*
X51963Y135685D01*
X52000Y135611D01*
Y135537D01*
Y135519D01*
X51982Y135352D01*
X51926Y135222D01*
X51833Y135130D01*
X51741Y135074D01*
X51648Y135037D01*
X51556Y135000D01*
X50426D01*
X50037Y135037D01*
X49667Y135111D01*
X49352Y135241D01*
X49093Y135389D01*
X48871Y135519D01*
X48704Y135648D01*
X48611Y135722D01*
X48574Y135759D01*
X48315Y136055D01*
X48130Y136370D01*
X47982Y136685D01*
X47889Y136981D01*
X47834Y137240D01*
X47815Y137444D01*
X47797Y137518D01*
Y137574D01*
Y137611D01*
Y137629D01*
Y144980D01*
X47815Y145166D01*
X47871Y145295D01*
X47963Y145388D01*
X48056Y145443D01*
X48167Y145499D01*
X48241Y145517D01*
X48334D01*
X48500Y145499D01*
D02*
G37*
G36*
X95000Y48249D02*
X95130Y48193D01*
X95223Y48101D01*
X95278Y48008D01*
X95315Y47897D01*
X95352Y47823D01*
Y47749D01*
Y47730D01*
Y40379D01*
X95371Y40139D01*
X95426Y39916D01*
X95500Y39731D01*
X95574Y39565D01*
X95667Y39435D01*
X95741Y39342D01*
X95797Y39268D01*
X95815Y39250D01*
X96000Y39102D01*
X96185Y38991D01*
X96371Y38916D01*
X96537Y38861D01*
X96704Y38824D01*
X96815Y38805D01*
X97982D01*
X98148Y38787D01*
X98278Y38731D01*
X98370Y38639D01*
X98426Y38546D01*
X98463Y38435D01*
X98500Y38361D01*
Y38287D01*
Y38268D01*
X98482Y38102D01*
X98426Y37972D01*
X98333Y37880D01*
X98241Y37824D01*
X98148Y37787D01*
X98056Y37750D01*
X96926D01*
X96537Y37787D01*
X96167Y37861D01*
X95852Y37991D01*
X95593Y38139D01*
X95371Y38268D01*
X95204Y38398D01*
X95112Y38472D01*
X95074Y38509D01*
X94815Y38805D01*
X94630Y39120D01*
X94482Y39435D01*
X94389Y39731D01*
X94334Y39990D01*
X94315Y40194D01*
X94297Y40268D01*
Y40324D01*
Y40361D01*
Y40379D01*
Y47730D01*
X94315Y47916D01*
X94371Y48045D01*
X94463Y48138D01*
X94556Y48193D01*
X94667Y48249D01*
X94741Y48267D01*
X94834D01*
X95000Y48249D01*
D02*
G37*
G36*
X169584Y32249D02*
X169714Y32193D01*
X169806Y32101D01*
X169862Y32008D01*
X169899Y31897D01*
X169936Y31823D01*
Y31749D01*
Y31730D01*
X169917Y31564D01*
X169862Y31434D01*
X169769Y31342D01*
X169677Y31286D01*
X169584Y31249D01*
X169491Y31212D01*
X165881D01*
X166695Y27527D01*
X167325Y27546D01*
X167492Y27527D01*
X167621Y27472D01*
X167714Y27379D01*
X167769Y27287D01*
X167806Y27175D01*
X167843Y27101D01*
Y27027D01*
Y27009D01*
X167825Y26842D01*
X167769Y26712D01*
X167677Y26620D01*
X167584Y26564D01*
X167492Y26527D01*
X167399Y26490D01*
X166918D01*
X167825Y22380D01*
X167843Y22306D01*
Y22287D01*
Y22269D01*
X167825Y22102D01*
X167751Y21972D01*
X167677Y21880D01*
X167566Y21824D01*
X167473Y21787D01*
X167381Y21750D01*
X167306D01*
X167158Y21769D01*
X167047Y21806D01*
X166973Y21880D01*
X166899Y21954D01*
X166862Y22028D01*
X166825Y22102D01*
X166807Y22139D01*
Y22157D01*
X165844Y26472D01*
X165214Y26490D01*
X165029Y26509D01*
X164899Y26564D01*
X164807Y26657D01*
X164751Y26749D01*
X164696Y26842D01*
X164677Y26935D01*
Y26990D01*
Y27009D01*
X164696Y27194D01*
X164751Y27324D01*
X164844Y27416D01*
X164936Y27472D01*
X165047Y27527D01*
X165121Y27546D01*
X165603D01*
X164696Y31619D01*
X164677Y31712D01*
Y31749D01*
X164714Y31916D01*
X164770Y32045D01*
X164862Y32138D01*
X164955Y32212D01*
X165047Y32249D01*
X165140Y32267D01*
X169417D01*
X169584Y32249D01*
D02*
G37*
G36*
X172750D02*
X172880Y32193D01*
X172973Y32101D01*
X173028Y32008D01*
X173065Y31897D01*
X173102Y31823D01*
Y31749D01*
Y31730D01*
Y24379D01*
X173121Y24139D01*
X173176Y23916D01*
X173250Y23731D01*
X173324Y23565D01*
X173417Y23435D01*
X173491Y23342D01*
X173547Y23268D01*
X173565Y23250D01*
X173750Y23102D01*
X173935Y22991D01*
X174121Y22917D01*
X174287Y22861D01*
X174454Y22824D01*
X174565Y22805D01*
X175732D01*
X175898Y22787D01*
X176028Y22731D01*
X176120Y22639D01*
X176176Y22546D01*
X176213Y22435D01*
X176250Y22361D01*
Y22287D01*
Y22269D01*
X176231Y22102D01*
X176176Y21972D01*
X176083Y21880D01*
X175991Y21824D01*
X175898Y21787D01*
X175806Y21750D01*
X174676D01*
X174287Y21787D01*
X173917Y21861D01*
X173602Y21991D01*
X173343Y22139D01*
X173121Y22269D01*
X172954Y22398D01*
X172861Y22472D01*
X172824Y22509D01*
X172565Y22805D01*
X172380Y23120D01*
X172232Y23435D01*
X172139Y23731D01*
X172084Y23990D01*
X172065Y24194D01*
X172047Y24268D01*
Y24324D01*
Y24361D01*
Y24379D01*
Y31730D01*
X172065Y31916D01*
X172121Y32045D01*
X172213Y32138D01*
X172306Y32193D01*
X172417Y32249D01*
X172491Y32267D01*
X172584D01*
X172750Y32249D01*
D02*
G37*
G36*
X88668Y48249D02*
X88816Y48212D01*
X88927Y48156D01*
X88964Y48138D01*
X88982D01*
X89390Y47953D01*
X89760Y47712D01*
X90093Y47471D01*
X90408Y47231D01*
X90649Y47008D01*
X90834Y46823D01*
X90908Y46749D01*
X90964Y46694D01*
X90982Y46675D01*
X91001Y46656D01*
X91205Y46397D01*
X91390Y46138D01*
X91556Y45860D01*
X91686Y45601D01*
X91797Y45323D01*
X91890Y45064D01*
X92038Y44583D01*
X92093Y44360D01*
X92130Y44157D01*
X92149Y43990D01*
X92167Y43823D01*
X92186Y43694D01*
Y43601D01*
Y43546D01*
Y43527D01*
Y40361D01*
X92149Y39972D01*
X92075Y39620D01*
X91945Y39287D01*
X91797Y39028D01*
X91667Y38805D01*
X91538Y38639D01*
X91464Y38546D01*
X91427Y38509D01*
X91130Y38250D01*
X90816Y38065D01*
X90501Y37935D01*
X90205Y37843D01*
X89945Y37787D01*
X89742Y37768D01*
X89668Y37750D01*
X89557D01*
X89168Y37787D01*
X88816Y37861D01*
X88501Y37991D01*
X88223Y38139D01*
X88001Y38268D01*
X87834Y38398D01*
X87742Y38472D01*
X87705Y38509D01*
X87446Y38805D01*
X87260Y39120D01*
X87112Y39435D01*
X87020Y39731D01*
X86964Y39990D01*
X86946Y40194D01*
X86927Y40268D01*
Y40324D01*
Y40361D01*
Y40379D01*
Y41416D01*
X86964Y41824D01*
X87038Y42175D01*
X87168Y42490D01*
X87297Y42768D01*
X87446Y42990D01*
X87575Y43157D01*
X87649Y43249D01*
X87686Y43286D01*
X87983Y43546D01*
X88297Y43731D01*
X88612Y43879D01*
X88908Y43972D01*
X89168Y44027D01*
X89371Y44046D01*
X89445Y44064D01*
X91093D01*
X91019Y44416D01*
X90927Y44749D01*
X90797Y45045D01*
X90649Y45323D01*
X90519Y45546D01*
X90408Y45731D01*
X90334Y45842D01*
X90297Y45860D01*
Y45879D01*
X90131Y46083D01*
X89964Y46268D01*
X89612Y46564D01*
X89260Y46805D01*
X88945Y47008D01*
X88668Y47138D01*
X88538Y47175D01*
X88446Y47231D01*
X88353Y47249D01*
X88297Y47267D01*
X88260Y47286D01*
X88242D01*
X88149Y47323D01*
X88094Y47379D01*
X88020Y47527D01*
X88001Y47601D01*
X87983Y47675D01*
Y47712D01*
Y47730D01*
X88001Y47916D01*
X88057Y48045D01*
X88149Y48138D01*
X88242Y48193D01*
X88353Y48249D01*
X88427Y48267D01*
X88520D01*
X88668Y48249D01*
D02*
G37*
G36*
X167353Y80999D02*
X167631Y80943D01*
X167890Y80851D01*
X168149Y80721D01*
X168371Y80573D01*
X168575Y80425D01*
X168778Y80258D01*
X168964Y80073D01*
X169112Y79906D01*
X169260Y79721D01*
X169371Y79573D01*
X169464Y79425D01*
X169556Y79295D01*
X169612Y79203D01*
X169630Y79147D01*
X169649Y79129D01*
X169686Y78981D01*
Y78925D01*
Y78906D01*
X169667Y78740D01*
X169612Y78610D01*
X169519Y78518D01*
X169427Y78462D01*
X169334Y78425D01*
X169241Y78388D01*
X169167D01*
X169056Y78407D01*
X168964Y78425D01*
X168834Y78518D01*
X168741Y78610D01*
X168723Y78629D01*
Y78647D01*
X168575Y78888D01*
X168427Y79073D01*
X168297Y79258D01*
X168149Y79406D01*
X168001Y79536D01*
X167871Y79647D01*
X167742Y79721D01*
X167612Y79795D01*
X167390Y79888D01*
X167223Y79943D01*
X167112Y79962D01*
X167075D01*
X166834Y79943D01*
X166612Y79888D01*
X166427Y79814D01*
X166260Y79740D01*
X166131Y79647D01*
X166020Y79573D01*
X165964Y79518D01*
X165945Y79499D01*
X165797Y79314D01*
X165686Y79129D01*
X165594Y78944D01*
X165538Y78777D01*
X165501Y78610D01*
X165483Y78499D01*
Y78425D01*
Y78388D01*
X165501Y78221D01*
X165520Y78073D01*
X165557Y77925D01*
X165612Y77796D01*
X165668Y77684D01*
X165705Y77592D01*
X165723Y77536D01*
X165742Y77518D01*
X169612Y71315D01*
X169649Y71222D01*
X169667Y71111D01*
X169686Y71055D01*
Y71019D01*
X169667Y70852D01*
X169612Y70722D01*
X169519Y70630D01*
X169427Y70574D01*
X169334Y70537D01*
X169241Y70500D01*
X164964D01*
X164779Y70518D01*
X164649Y70574D01*
X164557Y70667D01*
X164501Y70759D01*
X164446Y70852D01*
X164427Y70944D01*
Y71000D01*
Y71019D01*
X164446Y71204D01*
X164501Y71333D01*
X164594Y71426D01*
X164686Y71481D01*
X164797Y71537D01*
X164872Y71556D01*
X168223D01*
X164909Y76870D01*
X164742Y77147D01*
X164631Y77425D01*
X164538Y77684D01*
X164483Y77907D01*
X164446Y78110D01*
X164427Y78259D01*
Y78351D01*
Y78388D01*
X164464Y78777D01*
X164557Y79129D01*
X164668Y79443D01*
X164816Y79721D01*
X164964Y79943D01*
X165075Y80110D01*
X165168Y80203D01*
X165205Y80240D01*
X165501Y80499D01*
X165816Y80684D01*
X166131Y80832D01*
X166427Y80925D01*
X166668Y80980D01*
X166871Y80999D01*
X166945Y81017D01*
X167057D01*
X167353Y80999D01*
D02*
G37*
G36*
X173500Y147499D02*
X173630Y147443D01*
X173723Y147351D01*
X173778Y147258D01*
X173815Y147147D01*
X173852Y147073D01*
Y146999D01*
Y146980D01*
Y139629D01*
X173871Y139389D01*
X173926Y139166D01*
X174000Y138981D01*
X174074Y138815D01*
X174167Y138685D01*
X174241Y138592D01*
X174297Y138518D01*
X174315Y138500D01*
X174500Y138352D01*
X174685Y138241D01*
X174871Y138167D01*
X175037Y138111D01*
X175204Y138074D01*
X175315Y138055D01*
X176481D01*
X176648Y138037D01*
X176778Y137981D01*
X176870Y137889D01*
X176926Y137796D01*
X176963Y137685D01*
X177000Y137611D01*
Y137537D01*
Y137519D01*
X176982Y137352D01*
X176926Y137222D01*
X176833Y137130D01*
X176741Y137074D01*
X176648Y137037D01*
X176556Y137000D01*
X175426D01*
X175037Y137037D01*
X174667Y137111D01*
X174352Y137241D01*
X174093Y137389D01*
X173871Y137519D01*
X173704Y137648D01*
X173612Y137722D01*
X173574Y137759D01*
X173315Y138055D01*
X173130Y138370D01*
X172982Y138685D01*
X172889Y138981D01*
X172834Y139241D01*
X172815Y139444D01*
X172797Y139518D01*
Y139574D01*
Y139611D01*
Y139629D01*
Y146980D01*
X172815Y147166D01*
X172871Y147295D01*
X172963Y147388D01*
X173056Y147443D01*
X173167Y147499D01*
X173241Y147517D01*
X173334D01*
X173500Y147499D01*
D02*
G37*
G36*
X168223Y147480D02*
X168353Y147425D01*
X168445Y147351D01*
X168464Y147332D01*
X168482Y147314D01*
X170538Y145258D01*
X170630Y145129D01*
X170667Y145018D01*
X170686Y144925D01*
Y144907D01*
Y144888D01*
X170667Y144703D01*
X170612Y144573D01*
X170519Y144481D01*
X170427Y144425D01*
X170334Y144388D01*
X170241Y144351D01*
X170167D01*
X170019Y144370D01*
X169890Y144425D01*
X169816Y144481D01*
X169797Y144499D01*
X168575Y145721D01*
Y137519D01*
X168556Y137352D01*
X168501Y137222D01*
X168408Y137130D01*
X168316Y137074D01*
X168223Y137037D01*
X168131Y137000D01*
X168057D01*
X167871Y137018D01*
X167742Y137074D01*
X167649Y137167D01*
X167594Y137259D01*
X167538Y137352D01*
X167519Y137444D01*
Y137500D01*
Y137519D01*
Y146980D01*
X167538Y147166D01*
X167594Y147295D01*
X167686Y147388D01*
X167779Y147443D01*
X167890Y147499D01*
X167964Y147517D01*
X168131D01*
X168223Y147480D01*
D02*
G37*
G36*
X172500Y80999D02*
X172630Y80943D01*
X172723Y80851D01*
X172778Y80758D01*
X172815Y80647D01*
X172852Y80573D01*
Y80499D01*
Y80480D01*
Y73129D01*
X172871Y72889D01*
X172926Y72667D01*
X173000Y72481D01*
X173074Y72315D01*
X173167Y72185D01*
X173241Y72092D01*
X173297Y72018D01*
X173315Y72000D01*
X173500Y71852D01*
X173685Y71741D01*
X173871Y71667D01*
X174037Y71611D01*
X174204Y71574D01*
X174315Y71556D01*
X175481D01*
X175648Y71537D01*
X175778Y71481D01*
X175870Y71389D01*
X175926Y71296D01*
X175963Y71185D01*
X176000Y71111D01*
Y71037D01*
Y71019D01*
X175982Y70852D01*
X175926Y70722D01*
X175833Y70630D01*
X175741Y70574D01*
X175648Y70537D01*
X175556Y70500D01*
X174426D01*
X174037Y70537D01*
X173667Y70611D01*
X173352Y70741D01*
X173093Y70889D01*
X172871Y71019D01*
X172704Y71148D01*
X172612Y71222D01*
X172574Y71259D01*
X172315Y71556D01*
X172130Y71870D01*
X171982Y72185D01*
X171889Y72481D01*
X171834Y72741D01*
X171815Y72944D01*
X171797Y73018D01*
Y73074D01*
Y73111D01*
Y73129D01*
Y80480D01*
X171815Y80666D01*
X171871Y80795D01*
X171963Y80888D01*
X172056Y80943D01*
X172167Y80999D01*
X172241Y81017D01*
X172334D01*
X172500Y80999D01*
D02*
G37*
G36*
X43186Y145499D02*
X43316Y145462D01*
X43390Y145388D01*
X43464Y145332D01*
X43519Y145258D01*
X43556Y145184D01*
X43575Y145147D01*
Y145129D01*
X45686Y137778D01*
Y137685D01*
Y137648D01*
Y137629D01*
X45667Y137463D01*
X45612Y137333D01*
X45519Y137240D01*
X45427Y137185D01*
X45334Y137148D01*
X45241Y137111D01*
X42001D01*
Y135519D01*
X41982Y135352D01*
X41927Y135222D01*
X41834Y135130D01*
X41742Y135074D01*
X41649Y135037D01*
X41557Y135000D01*
X41483D01*
X41297Y135019D01*
X41168Y135074D01*
X41075Y135167D01*
X41020Y135259D01*
X40964Y135352D01*
X40946Y135444D01*
Y135500D01*
Y135519D01*
Y137111D01*
X39909D01*
X39723Y137129D01*
X39594Y137185D01*
X39501Y137278D01*
X39446Y137370D01*
X39390Y137463D01*
X39372Y137555D01*
Y137611D01*
Y137629D01*
X39390Y137815D01*
X39446Y137944D01*
X39538Y138037D01*
X39631Y138092D01*
X39742Y138148D01*
X39816Y138166D01*
X40946D01*
Y139740D01*
X40964Y139925D01*
X41020Y140055D01*
X41112Y140148D01*
X41205Y140203D01*
X41316Y140259D01*
X41390Y140277D01*
X41483D01*
X41649Y140259D01*
X41779Y140203D01*
X41871Y140111D01*
X41927Y140018D01*
X41964Y139907D01*
X42001Y139833D01*
Y139759D01*
Y139740D01*
Y138166D01*
X44464D01*
X42557Y144832D01*
X42538Y144943D01*
Y144962D01*
Y144980D01*
X42557Y145166D01*
X42612Y145295D01*
X42705Y145388D01*
X42797Y145443D01*
X42890Y145499D01*
X42982Y145517D01*
X43057D01*
X43186Y145499D01*
D02*
G37*
G36*
X45334Y167499D02*
X45464Y167443D01*
X45556Y167351D01*
X45612Y167258D01*
X45649Y167147D01*
X45686Y167073D01*
Y166999D01*
Y166980D01*
X45667Y166814D01*
X45612Y166684D01*
X45519Y166592D01*
X45427Y166536D01*
X45334Y166499D01*
X45241Y166462D01*
X43075D01*
X42834Y166444D01*
X42612Y166388D01*
X42427Y166314D01*
X42260Y166240D01*
X42131Y166147D01*
X42020Y166073D01*
X41964Y166018D01*
X41946Y165999D01*
X41797Y165814D01*
X41686Y165629D01*
X41594Y165444D01*
X41538Y165277D01*
X41501Y165110D01*
X41483Y164999D01*
Y164925D01*
Y164888D01*
X41501Y164647D01*
X41557Y164425D01*
X41631Y164240D01*
X41705Y164073D01*
X41797Y163944D01*
X41871Y163851D01*
X41927Y163777D01*
X41946Y163759D01*
X42131Y163610D01*
X42316Y163499D01*
X42501Y163425D01*
X42686Y163370D01*
X42834Y163333D01*
X42964Y163314D01*
X44130D01*
X44297Y163296D01*
X44427Y163240D01*
X44519Y163148D01*
X44575Y163055D01*
X44612Y162944D01*
X44649Y162870D01*
Y162796D01*
Y162777D01*
X44630Y162610D01*
X44575Y162481D01*
X44482Y162388D01*
X44390Y162333D01*
X44297Y162296D01*
X44205Y162259D01*
X43075D01*
X42834Y162240D01*
X42631Y162185D01*
X42445Y162111D01*
X42279Y162036D01*
X42149Y161944D01*
X42038Y161870D01*
X41982Y161814D01*
X41964Y161796D01*
X41797Y161611D01*
X41686Y161425D01*
X41594Y161240D01*
X41538Y161055D01*
X41501Y160907D01*
X41483Y160777D01*
Y160703D01*
Y160666D01*
Y159629D01*
X41501Y159389D01*
X41557Y159166D01*
X41631Y158981D01*
X41705Y158815D01*
X41797Y158685D01*
X41871Y158592D01*
X41927Y158518D01*
X41946Y158500D01*
X42131Y158352D01*
X42316Y158241D01*
X42501Y158167D01*
X42686Y158111D01*
X42834Y158074D01*
X42964Y158055D01*
X45167D01*
X45334Y158037D01*
X45464Y157981D01*
X45556Y157889D01*
X45612Y157796D01*
X45649Y157685D01*
X45686Y157611D01*
Y157537D01*
Y157519D01*
X45667Y157352D01*
X45612Y157222D01*
X45519Y157130D01*
X45427Y157074D01*
X45334Y157037D01*
X45241Y157000D01*
X43057D01*
X42668Y157037D01*
X42316Y157111D01*
X42001Y157241D01*
X41723Y157389D01*
X41501Y157519D01*
X41334Y157648D01*
X41242Y157722D01*
X41205Y157759D01*
X40946Y158055D01*
X40760Y158389D01*
X40612Y158685D01*
X40520Y158981D01*
X40464Y159241D01*
X40446Y159444D01*
X40427Y159518D01*
Y159574D01*
Y159611D01*
Y159629D01*
Y160666D01*
X40446Y160907D01*
X40464Y161129D01*
X40520Y161351D01*
X40594Y161555D01*
X40760Y161907D01*
X40946Y162222D01*
X41149Y162462D01*
X41316Y162629D01*
X41390Y162703D01*
X41445Y162740D01*
X41464Y162777D01*
X41483D01*
X41297Y162925D01*
X41131Y163092D01*
X41001Y163277D01*
X40872Y163444D01*
X40760Y163629D01*
X40686Y163796D01*
X40557Y164129D01*
X40483Y164425D01*
X40464Y164555D01*
X40446Y164666D01*
X40427Y164758D01*
Y164832D01*
Y164869D01*
Y164888D01*
X40464Y165277D01*
X40557Y165629D01*
X40668Y165944D01*
X40816Y166221D01*
X40964Y166444D01*
X41075Y166610D01*
X41168Y166703D01*
X41205Y166740D01*
X41501Y166999D01*
X41816Y167184D01*
X42131Y167332D01*
X42427Y167425D01*
X42668Y167480D01*
X42871Y167499D01*
X42945Y167517D01*
X45167D01*
X45334Y167499D01*
D02*
G37*
G36*
X48500D02*
X48630Y167443D01*
X48723Y167351D01*
X48778Y167258D01*
X48815Y167147D01*
X48852Y167073D01*
Y166999D01*
Y166980D01*
Y159629D01*
X48871Y159389D01*
X48926Y159166D01*
X49000Y158981D01*
X49074Y158815D01*
X49167Y158685D01*
X49241Y158592D01*
X49297Y158518D01*
X49315Y158500D01*
X49500Y158352D01*
X49685Y158241D01*
X49871Y158167D01*
X50037Y158111D01*
X50204Y158074D01*
X50315Y158055D01*
X51481D01*
X51648Y158037D01*
X51778Y157981D01*
X51870Y157889D01*
X51926Y157796D01*
X51963Y157685D01*
X52000Y157611D01*
Y157537D01*
Y157519D01*
X51982Y157352D01*
X51926Y157222D01*
X51833Y157130D01*
X51741Y157074D01*
X51648Y157037D01*
X51556Y157000D01*
X50426D01*
X50037Y157037D01*
X49667Y157111D01*
X49352Y157241D01*
X49093Y157389D01*
X48871Y157519D01*
X48704Y157648D01*
X48611Y157722D01*
X48574Y157759D01*
X48315Y158055D01*
X48130Y158370D01*
X47982Y158685D01*
X47889Y158981D01*
X47834Y159241D01*
X47815Y159444D01*
X47797Y159518D01*
Y159574D01*
Y159611D01*
Y159629D01*
Y166980D01*
X47815Y167166D01*
X47871Y167295D01*
X47963Y167388D01*
X48056Y167443D01*
X48167Y167499D01*
X48241Y167517D01*
X48334D01*
X48500Y167499D01*
D02*
G37*
G36*
Y103499D02*
X48630Y103443D01*
X48723Y103351D01*
X48778Y103258D01*
X48815Y103147D01*
X48852Y103073D01*
Y102999D01*
Y102980D01*
Y95629D01*
X48871Y95389D01*
X48926Y95166D01*
X49000Y94981D01*
X49074Y94815D01*
X49167Y94685D01*
X49241Y94592D01*
X49297Y94518D01*
X49315Y94500D01*
X49500Y94352D01*
X49685Y94241D01*
X49871Y94166D01*
X50037Y94111D01*
X50204Y94074D01*
X50315Y94055D01*
X51481D01*
X51648Y94037D01*
X51778Y93981D01*
X51870Y93889D01*
X51926Y93796D01*
X51963Y93685D01*
X52000Y93611D01*
Y93537D01*
Y93518D01*
X51982Y93352D01*
X51926Y93222D01*
X51833Y93130D01*
X51741Y93074D01*
X51648Y93037D01*
X51556Y93000D01*
X50426D01*
X50037Y93037D01*
X49667Y93111D01*
X49352Y93241D01*
X49093Y93389D01*
X48871Y93518D01*
X48704Y93648D01*
X48611Y93722D01*
X48574Y93759D01*
X48315Y94055D01*
X48130Y94370D01*
X47982Y94685D01*
X47889Y94981D01*
X47834Y95240D01*
X47815Y95444D01*
X47797Y95518D01*
Y95574D01*
Y95611D01*
Y95629D01*
Y102980D01*
X47815Y103166D01*
X47871Y103295D01*
X47963Y103388D01*
X48056Y103443D01*
X48167Y103499D01*
X48241Y103517D01*
X48334D01*
X48500Y103499D01*
D02*
G37*
G36*
X43445Y83480D02*
X43816Y83388D01*
X44130Y83277D01*
X44408Y83129D01*
X44630Y82980D01*
X44778Y82869D01*
X44890Y82777D01*
X44927Y82740D01*
X45186Y82444D01*
X45371Y82129D01*
X45501Y81814D01*
X45593Y81518D01*
X45649Y81258D01*
X45667Y81055D01*
X45686Y80981D01*
Y80925D01*
Y80888D01*
Y80870D01*
Y79833D01*
X45649Y79444D01*
X45575Y79074D01*
X45445Y78759D01*
X45297Y78481D01*
X45167Y78259D01*
X45038Y78111D01*
X44964Y78000D01*
X44927Y77962D01*
X44630Y77703D01*
X44297Y77518D01*
X44001Y77388D01*
X43705Y77296D01*
X43445Y77240D01*
X43242Y77222D01*
X43168Y77203D01*
X41520D01*
X41575Y76888D01*
X41668Y76592D01*
X41779Y76315D01*
X41908Y76055D01*
X42057Y75796D01*
X42205Y75574D01*
X42371Y75352D01*
X42557Y75166D01*
X42723Y75000D01*
X42871Y74852D01*
X43019Y74722D01*
X43149Y74611D01*
X43260Y74518D01*
X43353Y74463D01*
X43408Y74426D01*
X43427Y74407D01*
X43575Y74315D01*
X43723Y74241D01*
X44038Y74092D01*
X44167Y74037D01*
X44279Y74000D01*
X44353Y73981D01*
X44371Y73963D01*
X44464Y73926D01*
X44538Y73870D01*
X44575Y73796D01*
X44612Y73722D01*
X44630Y73648D01*
X44649Y73574D01*
Y73537D01*
Y73519D01*
X44630Y73370D01*
X44556Y73259D01*
X44501Y73185D01*
X44482Y73148D01*
X44353Y73056D01*
X44241Y73018D01*
X44149Y73000D01*
X44112D01*
X43945Y73018D01*
X43779Y73074D01*
X43575Y73167D01*
X43371Y73259D01*
X43205Y73333D01*
X43057Y73426D01*
X42964Y73481D01*
X42927Y73500D01*
X42483Y73796D01*
X42094Y74130D01*
X41760Y74463D01*
X41483Y74815D01*
X41242Y75166D01*
X41038Y75518D01*
X40872Y75870D01*
X40742Y76203D01*
X40631Y76500D01*
X40557Y76796D01*
X40501Y77055D01*
X40464Y77277D01*
X40446Y77463D01*
X40427Y77611D01*
Y77685D01*
Y77722D01*
Y80888D01*
X40464Y81277D01*
X40557Y81647D01*
X40668Y81962D01*
X40816Y82221D01*
X40964Y82444D01*
X41075Y82610D01*
X41168Y82703D01*
X41205Y82740D01*
X41501Y82999D01*
X41816Y83184D01*
X42131Y83332D01*
X42408Y83425D01*
X42668Y83480D01*
X42871Y83499D01*
X42945Y83517D01*
X43057D01*
X43445Y83480D01*
D02*
G37*
G36*
X48500Y83499D02*
X48630Y83443D01*
X48723Y83351D01*
X48778Y83258D01*
X48815Y83147D01*
X48852Y83073D01*
Y82999D01*
Y82980D01*
Y75629D01*
X48871Y75389D01*
X48926Y75166D01*
X49000Y74981D01*
X49074Y74815D01*
X49167Y74685D01*
X49241Y74592D01*
X49297Y74518D01*
X49315Y74500D01*
X49500Y74352D01*
X49685Y74241D01*
X49871Y74167D01*
X50037Y74111D01*
X50204Y74074D01*
X50315Y74056D01*
X51481D01*
X51648Y74037D01*
X51778Y73981D01*
X51870Y73889D01*
X51926Y73796D01*
X51963Y73685D01*
X52000Y73611D01*
Y73537D01*
Y73519D01*
X51982Y73352D01*
X51926Y73222D01*
X51833Y73130D01*
X51741Y73074D01*
X51648Y73037D01*
X51556Y73000D01*
X50426D01*
X50037Y73037D01*
X49667Y73111D01*
X49352Y73241D01*
X49093Y73389D01*
X48871Y73519D01*
X48704Y73648D01*
X48611Y73722D01*
X48574Y73759D01*
X48315Y74056D01*
X48130Y74370D01*
X47982Y74685D01*
X47889Y74981D01*
X47834Y75241D01*
X47815Y75444D01*
X47797Y75518D01*
Y75574D01*
Y75611D01*
Y75629D01*
Y82980D01*
X47815Y83166D01*
X47871Y83295D01*
X47963Y83388D01*
X48056Y83443D01*
X48167Y83499D01*
X48241Y83517D01*
X48334D01*
X48500Y83499D01*
D02*
G37*
G36*
X177107Y169483D02*
X177172Y169455D01*
X177218Y169418D01*
X177227Y169409D01*
X177236Y169400D01*
X178263Y168374D01*
X178309Y168309D01*
X178327Y168253D01*
X178337Y168207D01*
Y168198D01*
Y168189D01*
X178327Y168096D01*
X178300Y168031D01*
X178253Y167985D01*
X178207Y167957D01*
X178161Y167939D01*
X178115Y167920D01*
X178078D01*
X178004Y167930D01*
X177939Y167957D01*
X177902Y167985D01*
X177893Y167994D01*
X177283Y168605D01*
Y164509D01*
X177273Y164426D01*
X177246Y164361D01*
X177199Y164315D01*
X177153Y164287D01*
X177107Y164268D01*
X177061Y164250D01*
X177024D01*
X176931Y164259D01*
X176866Y164287D01*
X176820Y164333D01*
X176793Y164379D01*
X176765Y164426D01*
X176756Y164472D01*
Y164500D01*
Y164509D01*
Y169233D01*
X176765Y169326D01*
X176793Y169391D01*
X176839Y169437D01*
X176885Y169464D01*
X176940Y169492D01*
X176977Y169501D01*
X177061D01*
X177107Y169483D01*
D02*
G37*
G36*
X182368Y169492D02*
X182432Y169464D01*
X182479Y169418D01*
X182506Y169372D01*
X182525Y169317D01*
X182543Y169280D01*
Y169243D01*
Y169233D01*
Y164509D01*
X182534Y164426D01*
X182506Y164361D01*
X182460Y164315D01*
X182414Y164287D01*
X182368Y164268D01*
X182321Y164250D01*
X182284D01*
X182192Y164259D01*
X182127Y164287D01*
X182081Y164333D01*
X182053Y164379D01*
X182026Y164426D01*
X182016Y164472D01*
Y164500D01*
Y164509D01*
Y166349D01*
X180972D01*
X180842Y166358D01*
X180722Y166367D01*
X180500Y166413D01*
X180306Y166487D01*
X180139Y166571D01*
X180010Y166645D01*
X179908Y166719D01*
X179881Y166746D01*
X179853Y166765D01*
X179844Y166783D01*
X179834D01*
X179760Y166866D01*
X179686Y166959D01*
X179575Y167144D01*
X179501Y167338D01*
X179446Y167514D01*
X179409Y167680D01*
X179400Y167745D01*
Y167800D01*
X179391Y167856D01*
Y167893D01*
Y167911D01*
Y167920D01*
X179400Y168041D01*
X179409Y168161D01*
X179464Y168374D01*
X179538Y168568D01*
X179622Y168725D01*
X179705Y168854D01*
X179742Y168910D01*
X179779Y168956D01*
X179806Y168993D01*
X179834Y169021D01*
X179844Y169030D01*
X179853Y169039D01*
X179945Y169122D01*
X180038Y169196D01*
X180130Y169252D01*
X180223Y169307D01*
X180408Y169391D01*
X180583Y169446D01*
X180740Y169474D01*
X180805Y169492D01*
X180861D01*
X180907Y169501D01*
X182284D01*
X182368Y169492D01*
D02*
G37*
G36*
X186574D02*
X186639Y169464D01*
X186685Y169418D01*
X186713Y169372D01*
X186731Y169317D01*
X186750Y169280D01*
Y169243D01*
Y169233D01*
X186741Y169150D01*
X186713Y169085D01*
X186667Y169039D01*
X186621Y169011D01*
X186574Y168993D01*
X186528Y168974D01*
X185437D01*
Y164509D01*
X185428Y164426D01*
X185400Y164361D01*
X185354Y164315D01*
X185308Y164287D01*
X185261Y164268D01*
X185215Y164250D01*
X185178D01*
X185086Y164259D01*
X185021Y164287D01*
X184975Y164333D01*
X184947Y164379D01*
X184919Y164426D01*
X184910Y164472D01*
Y164500D01*
Y164509D01*
Y168974D01*
X183865D01*
X183773Y168984D01*
X183708Y169011D01*
X183662Y169058D01*
X183634Y169104D01*
X183606Y169150D01*
X183597Y169196D01*
Y169224D01*
Y169233D01*
X183606Y169326D01*
X183634Y169391D01*
X183680Y169437D01*
X183727Y169464D01*
X183782Y169492D01*
X183819Y169501D01*
X186491D01*
X186574Y169492D01*
D02*
G37*
G36*
X43445Y103480D02*
X43816Y103388D01*
X44130Y103277D01*
X44408Y103129D01*
X44630Y102980D01*
X44778Y102869D01*
X44890Y102777D01*
X44927Y102740D01*
X45186Y102444D01*
X45371Y102129D01*
X45501Y101814D01*
X45593Y101518D01*
X45649Y101277D01*
X45667Y101073D01*
X45686Y100999D01*
Y100944D01*
Y100907D01*
Y100888D01*
X45667Y100647D01*
X45649Y100425D01*
X45519Y99999D01*
X45353Y99648D01*
X45167Y99333D01*
X44982Y99092D01*
X44816Y98925D01*
X44686Y98814D01*
X44667Y98796D01*
X44649Y98777D01*
X44834Y98629D01*
X44982Y98462D01*
X45130Y98296D01*
X45241Y98111D01*
X45427Y97759D01*
X45556Y97425D01*
X45630Y97129D01*
X45649Y97000D01*
X45667Y96889D01*
X45686Y96796D01*
Y96722D01*
Y96685D01*
Y96666D01*
Y95629D01*
X45649Y95240D01*
X45575Y94870D01*
X45445Y94555D01*
X45297Y94278D01*
X45167Y94055D01*
X45038Y93907D01*
X44964Y93796D01*
X44927Y93759D01*
X44630Y93500D01*
X44297Y93315D01*
X44001Y93185D01*
X43705Y93093D01*
X43445Y93037D01*
X43242Y93019D01*
X43168Y93000D01*
X43057D01*
X42668Y93037D01*
X42316Y93111D01*
X42001Y93241D01*
X41723Y93389D01*
X41501Y93518D01*
X41334Y93648D01*
X41242Y93722D01*
X41205Y93759D01*
X40946Y94055D01*
X40760Y94389D01*
X40612Y94685D01*
X40520Y94981D01*
X40464Y95240D01*
X40446Y95444D01*
X40427Y95518D01*
Y95574D01*
Y95611D01*
Y95629D01*
Y95870D01*
Y96074D01*
X40446Y96277D01*
Y96463D01*
X40464Y96759D01*
X40483Y97000D01*
X40501Y97166D01*
X40520Y97277D01*
X40538Y97351D01*
Y97370D01*
X40631Y97666D01*
X40760Y97944D01*
X40909Y98185D01*
X41075Y98388D01*
X41223Y98555D01*
X41353Y98666D01*
X41445Y98759D01*
X41483Y98777D01*
X41297Y98925D01*
X41131Y99092D01*
X41001Y99277D01*
X40872Y99444D01*
X40760Y99629D01*
X40686Y99796D01*
X40557Y100129D01*
X40483Y100425D01*
X40464Y100555D01*
X40446Y100666D01*
X40427Y100758D01*
Y100833D01*
Y100870D01*
Y100888D01*
X40464Y101277D01*
X40557Y101629D01*
X40668Y101944D01*
X40816Y102221D01*
X40964Y102444D01*
X41075Y102610D01*
X41168Y102703D01*
X41205Y102740D01*
X41501Y102999D01*
X41816Y103184D01*
X42131Y103332D01*
X42427Y103425D01*
X42668Y103480D01*
X42871Y103499D01*
X42945Y103517D01*
X43057D01*
X43445Y103480D01*
D02*
G37*
%LPC*%
G36*
X167666Y203974D02*
X167648D01*
X167565Y203965D01*
X167500Y203937D01*
X167426Y203891D01*
X167361Y203836D01*
X167306Y203771D01*
X167250Y203697D01*
X167167Y203540D01*
X167093Y203374D01*
X167075Y203300D01*
X167047Y203235D01*
X167028Y203179D01*
X167019Y203133D01*
X167010Y203105D01*
Y203096D01*
X166964Y202883D01*
X166927Y202662D01*
X166899Y202458D01*
X166880Y202273D01*
X166871Y202107D01*
X166862Y202042D01*
Y201987D01*
Y201940D01*
Y201903D01*
Y201885D01*
Y201876D01*
X166871Y201635D01*
X166880Y201404D01*
X166908Y201201D01*
X166936Y201016D01*
X166964Y200859D01*
X166973Y200803D01*
X166982Y200748D01*
X166991Y200702D01*
X167001Y200674D01*
X167010Y200655D01*
Y200646D01*
X167047Y200489D01*
X167093Y200359D01*
X167149Y200239D01*
X167195Y200147D01*
X167250Y200064D01*
X167297Y199990D01*
X167352Y199934D01*
X167407Y199888D01*
X167454Y199851D01*
X167500Y199823D01*
X167574Y199795D01*
X167629Y199777D01*
X167648D01*
X167731Y199786D01*
X167805Y199814D01*
X167870Y199860D01*
X167934Y199916D01*
X167990Y199980D01*
X168045Y200054D01*
X168138Y200212D01*
X168203Y200369D01*
X168230Y200443D01*
X168258Y200507D01*
X168277Y200563D01*
X168286Y200609D01*
X168295Y200637D01*
Y200646D01*
X168341Y200868D01*
X168378Y201081D01*
X168397Y201284D01*
X168415Y201478D01*
X168424Y201635D01*
X168434Y201709D01*
Y201765D01*
Y201811D01*
Y201848D01*
Y201866D01*
Y201876D01*
X168424Y202107D01*
X168415Y202329D01*
X168388Y202541D01*
X168360Y202726D01*
X168341Y202874D01*
X168323Y202939D01*
X168314Y202994D01*
X168304Y203041D01*
Y203068D01*
X168295Y203087D01*
Y203096D01*
X168249Y203253D01*
X168203Y203383D01*
X168156Y203503D01*
X168101Y203605D01*
X168055Y203688D01*
X167999Y203762D01*
X167944Y203817D01*
X167888Y203864D01*
X167842Y203901D01*
X167796Y203928D01*
X167722Y203965D01*
X167666Y203974D01*
D02*
G37*
G36*
X175266D02*
X174221D01*
X174064Y203965D01*
X173916Y203928D01*
X173787Y203882D01*
X173676Y203827D01*
X173593Y203762D01*
X173528Y203716D01*
X173482Y203679D01*
X173473Y203669D01*
X173371Y203549D01*
X173297Y203420D01*
X173242Y203300D01*
X173204Y203179D01*
X173186Y203078D01*
X173167Y202994D01*
Y202939D01*
Y202930D01*
Y202920D01*
X173177Y202763D01*
X173214Y202615D01*
X173260Y202486D01*
X173315Y202384D01*
X173380Y202292D01*
X173426Y202227D01*
X173463Y202190D01*
X173473Y202172D01*
X173593Y202070D01*
X173722Y202005D01*
X173842Y201950D01*
X173963Y201913D01*
X174064Y201894D01*
X174147Y201885D01*
X174203Y201876D01*
X175266D01*
Y203974D01*
D02*
G37*
G36*
X155016D02*
X153972D01*
X153814Y203965D01*
X153666Y203928D01*
X153537Y203882D01*
X153426Y203827D01*
X153343Y203762D01*
X153278Y203716D01*
X153232Y203679D01*
X153223Y203669D01*
X153121Y203549D01*
X153047Y203420D01*
X152992Y203300D01*
X152955Y203179D01*
X152936Y203078D01*
X152917Y202994D01*
Y202939D01*
Y202930D01*
Y202920D01*
X152927Y202763D01*
X152964Y202615D01*
X153010Y202486D01*
X153065Y202384D01*
X153130Y202292D01*
X153176Y202227D01*
X153213Y202190D01*
X153223Y202172D01*
X153343Y202070D01*
X153472Y202005D01*
X153592Y201950D01*
X153713Y201913D01*
X153814Y201894D01*
X153897Y201885D01*
X153953Y201876D01*
X155016D01*
Y203974D01*
D02*
G37*
G36*
X174766Y103724D02*
X173722D01*
X173564Y103715D01*
X173416Y103678D01*
X173287Y103632D01*
X173176Y103577D01*
X173093Y103512D01*
X173028Y103466D01*
X172982Y103429D01*
X172973Y103419D01*
X172871Y103299D01*
X172797Y103170D01*
X172742Y103050D01*
X172705Y102929D01*
X172686Y102828D01*
X172668Y102745D01*
Y102689D01*
Y102680D01*
Y102670D01*
X172677Y102513D01*
X172714Y102365D01*
X172760Y102236D01*
X172815Y102134D01*
X172880Y102042D01*
X172926Y101977D01*
X172963Y101940D01*
X172973Y101922D01*
X173093Y101820D01*
X173222Y101755D01*
X173342Y101700D01*
X173463Y101663D01*
X173564Y101644D01*
X173647Y101635D01*
X173703Y101626D01*
X174766D01*
Y103724D01*
D02*
G37*
G36*
X65329Y67626D02*
X65274D01*
X65153Y67617D01*
X65052Y67589D01*
X64959Y67552D01*
X64876Y67515D01*
X64811Y67469D01*
X64756Y67432D01*
X64728Y67404D01*
X64719Y67395D01*
X64645Y67302D01*
X64590Y67210D01*
X64543Y67117D01*
X64516Y67025D01*
X64497Y66951D01*
X64488Y66886D01*
Y66849D01*
Y66831D01*
Y66313D01*
X64497Y66193D01*
X64525Y66082D01*
X64562Y65989D01*
X64599Y65906D01*
X64645Y65841D01*
X64682Y65795D01*
X64710Y65758D01*
X64719Y65749D01*
X64811Y65675D01*
X64904Y65620D01*
X64996Y65582D01*
X65079Y65555D01*
X65163Y65536D01*
X65218Y65527D01*
X65274D01*
X65394Y65536D01*
X65505Y65564D01*
X65597Y65601D01*
X65680Y65638D01*
X65745Y65675D01*
X65791Y65712D01*
X65828Y65740D01*
X65838Y65749D01*
X65912Y65841D01*
X65967Y65934D01*
X66004Y66026D01*
X66032Y66119D01*
X66050Y66193D01*
X66059Y66257D01*
Y66294D01*
Y66313D01*
Y66831D01*
X66050Y66951D01*
X66023Y67062D01*
X65985Y67154D01*
X65949Y67237D01*
X65912Y67302D01*
X65875Y67358D01*
X65847Y67385D01*
X65838Y67395D01*
X65745Y67469D01*
X65653Y67524D01*
X65560Y67570D01*
X65468Y67598D01*
X65394Y67617D01*
X65329Y67626D01*
D02*
G37*
G36*
Y69724D02*
X65274D01*
X65153Y69715D01*
X65052Y69688D01*
X64959Y69651D01*
X64876Y69614D01*
X64811Y69567D01*
X64756Y69530D01*
X64728Y69503D01*
X64719Y69493D01*
X64645Y69401D01*
X64590Y69308D01*
X64543Y69216D01*
X64516Y69133D01*
X64497Y69050D01*
X64488Y68994D01*
Y68957D01*
Y68939D01*
X64497Y68818D01*
X64525Y68707D01*
X64562Y68615D01*
X64599Y68532D01*
X64645Y68467D01*
X64682Y68421D01*
X64710Y68384D01*
X64719Y68375D01*
X64811Y68301D01*
X64904Y68245D01*
X64996Y68208D01*
X65079Y68180D01*
X65163Y68162D01*
X65218Y68153D01*
X65274D01*
X65394Y68162D01*
X65505Y68190D01*
X65597Y68227D01*
X65680Y68264D01*
X65745Y68301D01*
X65791Y68338D01*
X65828Y68365D01*
X65838Y68375D01*
X65912Y68467D01*
X65967Y68560D01*
X66004Y68652D01*
X66032Y68745D01*
X66050Y68818D01*
X66059Y68883D01*
Y68920D01*
Y68939D01*
X66050Y69059D01*
X66023Y69160D01*
X65985Y69253D01*
X65949Y69336D01*
X65912Y69401D01*
X65875Y69456D01*
X65847Y69484D01*
X65838Y69493D01*
X65745Y69567D01*
X65653Y69623D01*
X65560Y69669D01*
X65468Y69697D01*
X65394Y69715D01*
X65329Y69724D01*
D02*
G37*
G36*
X70266D02*
X69222D01*
X69064Y69715D01*
X68916Y69678D01*
X68787Y69632D01*
X68676Y69577D01*
X68593Y69512D01*
X68528Y69466D01*
X68482Y69429D01*
X68473Y69419D01*
X68371Y69299D01*
X68297Y69170D01*
X68242Y69050D01*
X68204Y68929D01*
X68186Y68828D01*
X68168Y68745D01*
Y68689D01*
Y68680D01*
Y68671D01*
X68177Y68513D01*
X68214Y68365D01*
X68260Y68236D01*
X68315Y68134D01*
X68380Y68042D01*
X68426Y67977D01*
X68463Y67940D01*
X68473Y67922D01*
X68593Y67820D01*
X68722Y67755D01*
X68842Y67700D01*
X68963Y67663D01*
X69064Y67644D01*
X69148Y67635D01*
X69203Y67626D01*
X70266D01*
Y69724D01*
D02*
G37*
G36*
X180158Y86962D02*
X180121D01*
X179954Y86944D01*
X179824Y86888D01*
X179676Y86795D01*
X179547Y86684D01*
X179436Y86555D01*
X179324Y86406D01*
X179158Y86092D01*
X179010Y85758D01*
X178973Y85610D01*
X178917Y85481D01*
X178880Y85370D01*
X178862Y85277D01*
X178843Y85221D01*
Y85203D01*
X178750Y84777D01*
X178676Y84333D01*
X178621Y83925D01*
X178584Y83555D01*
X178565Y83222D01*
X178547Y83092D01*
Y82981D01*
Y82888D01*
Y82814D01*
Y82777D01*
Y82759D01*
X178565Y82277D01*
X178584Y81814D01*
X178639Y81407D01*
X178695Y81037D01*
X178750Y80722D01*
X178769Y80611D01*
X178787Y80500D01*
X178806Y80407D01*
X178825Y80352D01*
X178843Y80315D01*
Y80296D01*
X178917Y79981D01*
X179010Y79722D01*
X179121Y79481D01*
X179213Y79296D01*
X179324Y79130D01*
X179417Y78981D01*
X179528Y78870D01*
X179639Y78778D01*
X179732Y78704D01*
X179824Y78648D01*
X179972Y78593D01*
X180084Y78555D01*
X180121D01*
X180287Y78574D01*
X180435Y78629D01*
X180565Y78722D01*
X180695Y78833D01*
X180806Y78963D01*
X180917Y79111D01*
X181102Y79426D01*
X181232Y79741D01*
X181287Y79889D01*
X181343Y80018D01*
X181380Y80129D01*
X181398Y80222D01*
X181417Y80278D01*
Y80296D01*
X181509Y80740D01*
X181583Y81166D01*
X181621Y81574D01*
X181658Y81962D01*
X181676Y82277D01*
X181695Y82425D01*
Y82536D01*
Y82629D01*
Y82703D01*
Y82740D01*
Y82759D01*
X181676Y83222D01*
X181658Y83666D01*
X181602Y84092D01*
X181546Y84462D01*
X181509Y84759D01*
X181472Y84888D01*
X181454Y84999D01*
X181435Y85092D01*
Y85147D01*
X181417Y85184D01*
Y85203D01*
X181324Y85518D01*
X181232Y85777D01*
X181139Y86018D01*
X181028Y86221D01*
X180935Y86388D01*
X180824Y86536D01*
X180713Y86647D01*
X180602Y86740D01*
X180509Y86814D01*
X180417Y86869D01*
X180269Y86944D01*
X180158Y86962D01*
D02*
G37*
G36*
X163658Y63462D02*
X163621D01*
X163454Y63443D01*
X163324Y63388D01*
X163176Y63295D01*
X163047Y63184D01*
X162936Y63055D01*
X162824Y62906D01*
X162658Y62592D01*
X162510Y62258D01*
X162473Y62110D01*
X162417Y61981D01*
X162380Y61870D01*
X162362Y61777D01*
X162343Y61721D01*
Y61703D01*
X162250Y61277D01*
X162176Y60833D01*
X162121Y60425D01*
X162084Y60055D01*
X162065Y59722D01*
X162047Y59592D01*
Y59481D01*
Y59388D01*
Y59314D01*
Y59277D01*
Y59259D01*
X162065Y58777D01*
X162084Y58314D01*
X162139Y57907D01*
X162195Y57537D01*
X162250Y57222D01*
X162269Y57111D01*
X162288Y57000D01*
X162306Y56907D01*
X162325Y56852D01*
X162343Y56814D01*
Y56796D01*
X162417Y56481D01*
X162510Y56222D01*
X162621Y55981D01*
X162713Y55796D01*
X162824Y55630D01*
X162917Y55481D01*
X163028Y55370D01*
X163139Y55278D01*
X163232Y55204D01*
X163324Y55148D01*
X163472Y55093D01*
X163584Y55055D01*
X163621D01*
X163787Y55074D01*
X163935Y55129D01*
X164065Y55222D01*
X164195Y55333D01*
X164306Y55463D01*
X164417Y55611D01*
X164602Y55926D01*
X164732Y56241D01*
X164787Y56389D01*
X164843Y56518D01*
X164880Y56629D01*
X164898Y56722D01*
X164917Y56778D01*
Y56796D01*
X165009Y57240D01*
X165084Y57666D01*
X165121Y58074D01*
X165158Y58463D01*
X165176Y58777D01*
X165195Y58925D01*
Y59036D01*
Y59129D01*
Y59203D01*
Y59240D01*
Y59259D01*
X165176Y59722D01*
X165158Y60166D01*
X165102Y60592D01*
X165046Y60962D01*
X165009Y61259D01*
X164972Y61388D01*
X164954Y61499D01*
X164935Y61592D01*
Y61647D01*
X164917Y61684D01*
Y61703D01*
X164824Y62018D01*
X164732Y62277D01*
X164639Y62518D01*
X164528Y62721D01*
X164435Y62888D01*
X164324Y63036D01*
X164213Y63147D01*
X164102Y63240D01*
X164009Y63314D01*
X163917Y63369D01*
X163769Y63443D01*
X163658Y63462D01*
D02*
G37*
G36*
X182408Y136712D02*
X182371D01*
X182204Y136693D01*
X182074Y136638D01*
X181926Y136545D01*
X181797Y136434D01*
X181686Y136305D01*
X181574Y136157D01*
X181408Y135842D01*
X181260Y135508D01*
X181223Y135360D01*
X181167Y135231D01*
X181130Y135119D01*
X181112Y135027D01*
X181093Y134971D01*
Y134953D01*
X181000Y134527D01*
X180926Y134083D01*
X180871Y133675D01*
X180834Y133305D01*
X180815Y132972D01*
X180797Y132842D01*
Y132731D01*
Y132638D01*
Y132564D01*
Y132527D01*
Y132509D01*
X180815Y132027D01*
X180834Y131564D01*
X180889Y131157D01*
X180945Y130787D01*
X181000Y130472D01*
X181019Y130361D01*
X181038Y130250D01*
X181056Y130157D01*
X181075Y130101D01*
X181093Y130064D01*
Y130046D01*
X181167Y129731D01*
X181260Y129472D01*
X181371Y129231D01*
X181463Y129046D01*
X181574Y128879D01*
X181667Y128731D01*
X181778Y128620D01*
X181889Y128528D01*
X181982Y128454D01*
X182074Y128398D01*
X182222Y128343D01*
X182334Y128305D01*
X182371D01*
X182537Y128324D01*
X182685Y128379D01*
X182815Y128472D01*
X182945Y128583D01*
X183056Y128713D01*
X183167Y128861D01*
X183352Y129176D01*
X183482Y129490D01*
X183537Y129639D01*
X183593Y129768D01*
X183630Y129879D01*
X183648Y129972D01*
X183667Y130028D01*
Y130046D01*
X183759Y130490D01*
X183834Y130916D01*
X183871Y131324D01*
X183908Y131713D01*
X183926Y132027D01*
X183945Y132175D01*
Y132287D01*
Y132379D01*
Y132453D01*
Y132490D01*
Y132509D01*
X183926Y132972D01*
X183908Y133416D01*
X183852Y133842D01*
X183796Y134212D01*
X183759Y134508D01*
X183722Y134638D01*
X183704Y134749D01*
X183685Y134842D01*
Y134897D01*
X183667Y134934D01*
Y134953D01*
X183574Y135268D01*
X183482Y135527D01*
X183389Y135768D01*
X183278Y135971D01*
X183185Y136138D01*
X183074Y136286D01*
X182963Y136397D01*
X182852Y136490D01*
X182759Y136564D01*
X182667Y136619D01*
X182519Y136693D01*
X182408Y136712D01*
D02*
G37*
G36*
X123408Y63712D02*
X123371D01*
X123204Y63693D01*
X123074Y63638D01*
X122926Y63545D01*
X122797Y63434D01*
X122685Y63305D01*
X122574Y63156D01*
X122408Y62842D01*
X122260Y62508D01*
X122223Y62360D01*
X122167Y62231D01*
X122130Y62120D01*
X122112Y62027D01*
X122093Y61971D01*
Y61953D01*
X122000Y61527D01*
X121926Y61083D01*
X121871Y60675D01*
X121834Y60305D01*
X121815Y59972D01*
X121797Y59842D01*
Y59731D01*
Y59638D01*
Y59564D01*
Y59527D01*
Y59509D01*
X121815Y59027D01*
X121834Y58564D01*
X121889Y58157D01*
X121945Y57787D01*
X122000Y57472D01*
X122019Y57361D01*
X122037Y57250D01*
X122056Y57157D01*
X122074Y57102D01*
X122093Y57064D01*
Y57046D01*
X122167Y56731D01*
X122260Y56472D01*
X122371Y56231D01*
X122463Y56046D01*
X122574Y55880D01*
X122667Y55731D01*
X122778Y55620D01*
X122889Y55528D01*
X122982Y55454D01*
X123074Y55398D01*
X123223Y55342D01*
X123334Y55306D01*
X123371D01*
X123537Y55324D01*
X123685Y55380D01*
X123815Y55472D01*
X123945Y55583D01*
X124056Y55713D01*
X124167Y55861D01*
X124352Y56176D01*
X124482Y56491D01*
X124537Y56639D01*
X124593Y56768D01*
X124630Y56879D01*
X124648Y56972D01*
X124667Y57028D01*
Y57046D01*
X124759Y57490D01*
X124833Y57916D01*
X124871Y58324D01*
X124908Y58713D01*
X124926Y59027D01*
X124945Y59175D01*
Y59286D01*
Y59379D01*
Y59453D01*
Y59490D01*
Y59509D01*
X124926Y59972D01*
X124908Y60416D01*
X124852Y60842D01*
X124796Y61212D01*
X124759Y61508D01*
X124722Y61638D01*
X124704Y61749D01*
X124685Y61842D01*
Y61897D01*
X124667Y61934D01*
Y61953D01*
X124574Y62268D01*
X124482Y62527D01*
X124389Y62768D01*
X124278Y62971D01*
X124185Y63138D01*
X124074Y63286D01*
X123963Y63397D01*
X123852Y63490D01*
X123759Y63564D01*
X123667Y63619D01*
X123519Y63693D01*
X123408Y63712D01*
D02*
G37*
G36*
X134766Y204224D02*
X133722D01*
X133564Y204215D01*
X133416Y204178D01*
X133287Y204132D01*
X133176Y204077D01*
X133093Y204012D01*
X133028Y203966D01*
X132982Y203929D01*
X132973Y203919D01*
X132871Y203799D01*
X132797Y203670D01*
X132741Y203550D01*
X132704Y203429D01*
X132686Y203328D01*
X132668Y203244D01*
Y203189D01*
Y203180D01*
Y203171D01*
X132677Y203013D01*
X132714Y202865D01*
X132760Y202736D01*
X132815Y202634D01*
X132880Y202542D01*
X132926Y202477D01*
X132963Y202440D01*
X132973Y202422D01*
X133093Y202320D01*
X133222Y202255D01*
X133342Y202200D01*
X133463Y202163D01*
X133564Y202144D01*
X133647Y202135D01*
X133703Y202126D01*
X134766D01*
Y204224D01*
D02*
G37*
G36*
X13658Y180962D02*
X13621D01*
X13454Y180944D01*
X13324Y180888D01*
X13176Y180795D01*
X13047Y180684D01*
X12936Y180555D01*
X12824Y180406D01*
X12658Y180092D01*
X12510Y179758D01*
X12473Y179610D01*
X12417Y179481D01*
X12380Y179370D01*
X12362Y179277D01*
X12343Y179221D01*
Y179203D01*
X12250Y178777D01*
X12176Y178333D01*
X12121Y177925D01*
X12084Y177555D01*
X12065Y177222D01*
X12047Y177092D01*
Y176981D01*
Y176888D01*
Y176814D01*
Y176777D01*
Y176759D01*
X12065Y176277D01*
X12084Y175814D01*
X12139Y175407D01*
X12195Y175037D01*
X12250Y174722D01*
X12269Y174611D01*
X12287Y174500D01*
X12306Y174407D01*
X12325Y174352D01*
X12343Y174314D01*
Y174296D01*
X12417Y173981D01*
X12510Y173722D01*
X12621Y173481D01*
X12713Y173296D01*
X12824Y173130D01*
X12917Y172981D01*
X13028Y172870D01*
X13139Y172778D01*
X13232Y172704D01*
X13324Y172648D01*
X13472Y172593D01*
X13584Y172556D01*
X13621D01*
X13787Y172574D01*
X13935Y172630D01*
X14065Y172722D01*
X14195Y172833D01*
X14306Y172963D01*
X14417Y173111D01*
X14602Y173426D01*
X14732Y173741D01*
X14787Y173889D01*
X14843Y174018D01*
X14880Y174129D01*
X14898Y174222D01*
X14917Y174277D01*
Y174296D01*
X15009Y174740D01*
X15084Y175166D01*
X15121Y175574D01*
X15158Y175963D01*
X15176Y176277D01*
X15195Y176425D01*
Y176537D01*
Y176629D01*
Y176703D01*
Y176740D01*
Y176759D01*
X15176Y177222D01*
X15158Y177666D01*
X15102Y178092D01*
X15046Y178462D01*
X15009Y178759D01*
X14972Y178888D01*
X14954Y178999D01*
X14935Y179092D01*
Y179147D01*
X14917Y179184D01*
Y179203D01*
X14824Y179518D01*
X14732Y179777D01*
X14639Y180018D01*
X14528Y180221D01*
X14435Y180388D01*
X14324Y180536D01*
X14213Y180647D01*
X14102Y180740D01*
X14009Y180814D01*
X13917Y180869D01*
X13769Y180944D01*
X13658Y180962D01*
D02*
G37*
G36*
X91130Y43009D02*
X89557D01*
X89316Y42990D01*
X89112Y42935D01*
X88927Y42861D01*
X88760Y42786D01*
X88631Y42694D01*
X88520Y42620D01*
X88464Y42564D01*
X88446Y42546D01*
X88297Y42361D01*
X88186Y42175D01*
X88094Y41990D01*
X88038Y41805D01*
X88001Y41657D01*
X87983Y41527D01*
Y41453D01*
Y41416D01*
Y40379D01*
X88001Y40139D01*
X88057Y39916D01*
X88131Y39731D01*
X88205Y39565D01*
X88297Y39435D01*
X88371Y39342D01*
X88427Y39268D01*
X88446Y39250D01*
X88631Y39102D01*
X88816Y38991D01*
X89001Y38916D01*
X89168Y38861D01*
X89334Y38824D01*
X89445Y38805D01*
X89557D01*
X89797Y38824D01*
X90019Y38879D01*
X90205Y38954D01*
X90371Y39028D01*
X90501Y39102D01*
X90593Y39176D01*
X90667Y39231D01*
X90686Y39250D01*
X90834Y39435D01*
X90945Y39620D01*
X91019Y39805D01*
X91075Y39990D01*
X91112Y40139D01*
X91130Y40268D01*
Y40342D01*
Y40379D01*
Y43009D01*
D02*
G37*
G36*
X43168Y82462D02*
X43057D01*
X42816Y82444D01*
X42612Y82388D01*
X42427Y82314D01*
X42260Y82240D01*
X42131Y82147D01*
X42020Y82073D01*
X41964Y82018D01*
X41946Y81999D01*
X41797Y81814D01*
X41686Y81629D01*
X41594Y81444D01*
X41538Y81258D01*
X41501Y81110D01*
X41483Y80981D01*
Y80907D01*
Y80870D01*
Y78259D01*
X43057D01*
X43297Y78277D01*
X43519Y78333D01*
X43705Y78407D01*
X43871Y78481D01*
X44001Y78555D01*
X44093Y78629D01*
X44167Y78685D01*
X44186Y78703D01*
X44334Y78888D01*
X44445Y79074D01*
X44519Y79259D01*
X44575Y79444D01*
X44612Y79592D01*
X44630Y79721D01*
Y79796D01*
Y79833D01*
Y80870D01*
X44612Y81110D01*
X44556Y81333D01*
X44482Y81518D01*
X44408Y81684D01*
X44334Y81814D01*
X44260Y81925D01*
X44205Y81981D01*
X44186Y81999D01*
X44001Y82147D01*
X43816Y82258D01*
X43630Y82351D01*
X43445Y82406D01*
X43297Y82444D01*
X43168Y82462D01*
D02*
G37*
G36*
X182016Y168974D02*
X180972D01*
X180814Y168965D01*
X180666Y168928D01*
X180537Y168882D01*
X180426Y168827D01*
X180343Y168762D01*
X180278Y168716D01*
X180232Y168679D01*
X180223Y168669D01*
X180121Y168549D01*
X180047Y168420D01*
X179991Y168300D01*
X179954Y168179D01*
X179936Y168078D01*
X179918Y167994D01*
Y167939D01*
Y167930D01*
Y167920D01*
X179927Y167763D01*
X179964Y167615D01*
X180010Y167486D01*
X180065Y167384D01*
X180130Y167292D01*
X180176Y167227D01*
X180213Y167190D01*
X180223Y167172D01*
X180343Y167070D01*
X180472Y167005D01*
X180592Y166950D01*
X180713Y166913D01*
X180814Y166894D01*
X180898Y166885D01*
X180953Y166876D01*
X182016D01*
Y168974D01*
D02*
G37*
G36*
X43168Y98259D02*
X43057D01*
X42816Y98240D01*
X42612Y98185D01*
X42427Y98111D01*
X42260Y98036D01*
X42131Y97944D01*
X42020Y97870D01*
X41964Y97814D01*
X41946Y97796D01*
X41797Y97611D01*
X41686Y97425D01*
X41594Y97240D01*
X41538Y97055D01*
X41501Y96907D01*
X41483Y96777D01*
Y96703D01*
Y96666D01*
Y95629D01*
X41501Y95389D01*
X41557Y95166D01*
X41631Y94981D01*
X41705Y94815D01*
X41797Y94685D01*
X41871Y94592D01*
X41927Y94518D01*
X41946Y94500D01*
X42131Y94352D01*
X42316Y94241D01*
X42501Y94166D01*
X42668Y94111D01*
X42834Y94074D01*
X42945Y94055D01*
X43057D01*
X43297Y94074D01*
X43519Y94129D01*
X43705Y94204D01*
X43871Y94278D01*
X44001Y94352D01*
X44093Y94426D01*
X44167Y94481D01*
X44186Y94500D01*
X44334Y94685D01*
X44445Y94870D01*
X44519Y95055D01*
X44575Y95240D01*
X44612Y95389D01*
X44630Y95518D01*
Y95592D01*
Y95629D01*
Y96666D01*
X44612Y96907D01*
X44556Y97129D01*
X44482Y97314D01*
X44408Y97481D01*
X44334Y97611D01*
X44260Y97722D01*
X44205Y97777D01*
X44186Y97796D01*
X44001Y97944D01*
X43816Y98055D01*
X43630Y98148D01*
X43445Y98203D01*
X43297Y98240D01*
X43168Y98259D01*
D02*
G37*
G36*
Y102462D02*
X43057D01*
X42816Y102444D01*
X42612Y102388D01*
X42427Y102314D01*
X42260Y102240D01*
X42131Y102147D01*
X42020Y102073D01*
X41964Y102018D01*
X41946Y101999D01*
X41797Y101814D01*
X41686Y101629D01*
X41594Y101444D01*
X41538Y101277D01*
X41501Y101110D01*
X41483Y100999D01*
Y100925D01*
Y100888D01*
X41501Y100647D01*
X41557Y100425D01*
X41631Y100240D01*
X41705Y100073D01*
X41797Y99944D01*
X41871Y99851D01*
X41927Y99777D01*
X41946Y99759D01*
X42131Y99610D01*
X42316Y99499D01*
X42501Y99425D01*
X42668Y99370D01*
X42834Y99333D01*
X42945Y99314D01*
X43057D01*
X43297Y99333D01*
X43519Y99388D01*
X43705Y99462D01*
X43871Y99536D01*
X44001Y99610D01*
X44093Y99684D01*
X44167Y99740D01*
X44186Y99759D01*
X44334Y99944D01*
X44445Y100129D01*
X44519Y100314D01*
X44575Y100499D01*
X44612Y100647D01*
X44630Y100777D01*
Y100851D01*
Y100888D01*
X44612Y101129D01*
X44556Y101333D01*
X44482Y101518D01*
X44408Y101684D01*
X44334Y101814D01*
X44260Y101925D01*
X44205Y101980D01*
X44186Y101999D01*
X44001Y102147D01*
X43816Y102258D01*
X43630Y102351D01*
X43445Y102406D01*
X43297Y102444D01*
X43168Y102462D01*
D02*
G37*
%LPD*%
D18*
X185867Y190000D02*
G03*
X185867Y190000I-7517J0D01*
G01*
X165467D02*
G03*
X165467Y190000I-7517J0D01*
G01*
X145067D02*
G03*
X145067Y190000I-7517J0D01*
G01*
X197517Y102000D02*
G03*
X197517Y102000I-7517J0D01*
G01*
X76517Y55060D02*
G03*
X76517Y55060I-7517J0D01*
G01*
X203517Y167000D02*
G03*
X203517Y167000I-7517J0D01*
G01*
X21000Y74500D02*
X21000Y70000D01*
Y81500D02*
Y86000D01*
X7000Y81500D02*
Y86000D01*
X7000Y70000D02*
X7000Y74500D01*
X7000Y70000D02*
X21000D01*
X7000Y86000D02*
X21000D01*
X35000Y70000D02*
Y74500D01*
Y86000D02*
X35000Y81500D01*
X21000D02*
Y86000D01*
Y70000D02*
Y74500D01*
Y70000D02*
X35000D01*
X21000Y86000D02*
X35000Y86000D01*
X21000Y91000D02*
Y95500D01*
Y102500D02*
Y107000D01*
X7000Y102500D02*
Y107000D01*
Y91000D02*
Y95500D01*
Y91000D02*
X21000D01*
X7000Y107000D02*
X21000D01*
X35000Y91000D02*
Y95500D01*
Y107000D02*
X35000Y102500D01*
X21000D02*
Y107000D01*
Y91000D02*
Y95500D01*
Y91000D02*
X35000D01*
X21000Y107000D02*
X35000Y107000D01*
X158000Y52000D02*
X158000Y47500D01*
X158000Y36000D02*
Y40500D01*
X172000Y36000D02*
Y40500D01*
Y47500D02*
X172000Y52000D01*
X158000D02*
X172000D01*
X158000Y36000D02*
X172000D01*
X144000Y47500D02*
Y52000D01*
X144000Y40500D02*
X144000Y36000D01*
X158000Y36000D02*
Y40500D01*
Y47500D02*
Y52000D01*
X144000D02*
X158000D01*
X144000Y36000D02*
X158000Y36000D01*
X116000Y52000D02*
X116000Y47500D01*
Y36000D02*
X116000Y40500D01*
X130000D02*
X130000Y36000D01*
X130000Y47500D02*
X130000Y52000D01*
X116000D02*
X130000D01*
X116000Y36000D02*
X130000D01*
X102000Y47500D02*
Y52000D01*
X102000Y40500D02*
X102000Y36000D01*
X116000Y36000D02*
Y40500D01*
Y47500D02*
Y52000D01*
X102000D02*
X116000D01*
X102000Y36000D02*
X116000Y36000D01*
X21000Y116500D02*
X21000Y112000D01*
X21000Y123500D02*
X21000Y128000D01*
X7000D02*
X7000Y123500D01*
Y112000D02*
X7000Y116500D01*
X7000Y112000D02*
X21000D01*
X7000Y128000D02*
X21000D01*
X35000Y112000D02*
Y116500D01*
Y128000D02*
X35000Y123500D01*
X21000D02*
Y128000D01*
Y112000D02*
Y116500D01*
Y112000D02*
X35000D01*
X21000Y128000D02*
X35000Y128000D01*
X21000Y137500D02*
X21000Y133000D01*
X21000Y149000D02*
X21000Y144500D01*
X7000D02*
Y149000D01*
X7000Y133000D02*
X7000Y137500D01*
X7000Y133000D02*
X21000D01*
X7000Y149000D02*
X21000Y149000D01*
X35000Y133000D02*
Y137500D01*
Y149000D02*
X35000Y144500D01*
X21000D02*
Y149000D01*
Y133000D02*
Y137500D01*
Y133000D02*
X35000D01*
X21000Y149000D02*
X35000Y149000D01*
X21000Y158500D02*
X21000Y154000D01*
Y165500D02*
Y170000D01*
X7000Y165500D02*
Y170000D01*
X7000Y154000D02*
X7000Y158500D01*
X7000Y154000D02*
X21000D01*
X7000Y170000D02*
X21000D01*
X35000Y154000D02*
Y158500D01*
Y170000D02*
X35000Y165500D01*
X21000D02*
Y170000D01*
Y154000D02*
Y158500D01*
Y154000D02*
X35000D01*
X21000Y170000D02*
X35000Y170000D01*
X185000Y75000D02*
X189500Y75000D01*
X196500Y75000D02*
X201000Y75000D01*
X196500Y89000D02*
X201000Y89000D01*
X185000Y89000D02*
X189500Y89000D01*
X185000Y75000D02*
Y89000D01*
X201000Y75000D02*
Y89000D01*
X185000Y61000D02*
X189500D01*
X196500Y61000D02*
X201000Y61000D01*
X196500Y75000D02*
X201000D01*
X185000D02*
X189500D01*
X185000Y61000D02*
Y75000D01*
X201000Y61000D02*
X201000Y75000D01*
X187500Y140250D02*
X192000Y140250D01*
X199000Y140250D02*
X203500D01*
X199000Y154250D02*
X203500D01*
X187500Y154250D02*
X192000Y154250D01*
X187500Y140250D02*
Y154250D01*
X203500Y140250D02*
Y154250D01*
X187500Y126250D02*
X192000D01*
X199000Y126250D02*
X203500Y126250D01*
X199000Y140250D02*
X203500D01*
X187500D02*
X192000D01*
X187500Y126250D02*
Y140250D01*
X203500Y126250D02*
X203500Y140250D01*
M02*
