G04 Layer_Physical_Order=2*
G04 Layer_Color=16711680*
%FSLAX44Y44*%
%MOMM*%
G71*
G01*
G75*
%ADD15C,1.0000*%
%ADD18C,0.2000*%
%ADD19C,0.5000*%
%ADD21R,2.0000X2.0000*%
%ADD22C,2.0000*%
%ADD23C,5.0000*%
%ADD24R,2.0000X2.0000*%
%ADD25C,0.6000*%
%ADD26C,1.2000*%
%ADD27R,1.0000X0.5000*%
G36*
X167261Y146350D02*
X167294Y146079D01*
X167349Y145813D01*
X167426Y145555D01*
X167525Y145303D01*
X167646Y145058D01*
X167789Y144819D01*
X167954Y144587D01*
X168141Y144361D01*
X168350Y144142D01*
X164150D01*
X164359Y144361D01*
X164546Y144587D01*
X164711Y144819D01*
X164854Y145058D01*
X164975Y145303D01*
X165074Y145555D01*
X165151Y145813D01*
X165206Y146079D01*
X165239Y146350D01*
X165250Y146628D01*
X167250D01*
X167261Y146350D01*
D02*
G37*
G36*
X159511D02*
X159544Y146079D01*
X159599Y145813D01*
X159676Y145555D01*
X159775Y145303D01*
X159896Y145058D01*
X160039Y144819D01*
X160204Y144587D01*
X160391Y144361D01*
X160600Y144142D01*
X156400D01*
X156609Y144361D01*
X156796Y144587D01*
X156961Y144819D01*
X157104Y145058D01*
X157225Y145303D01*
X157324Y145555D01*
X157401Y145813D01*
X157456Y146079D01*
X157489Y146350D01*
X157500Y146628D01*
X159500D01*
X159511Y146350D01*
D02*
G37*
G36*
X175011D02*
X175044Y146079D01*
X175099Y145813D01*
X175176Y145555D01*
X175275Y145303D01*
X175396Y145058D01*
X175539Y144819D01*
X175704Y144587D01*
X175891Y144361D01*
X176100Y144142D01*
X171900D01*
X172109Y144361D01*
X172296Y144587D01*
X172461Y144819D01*
X172604Y145058D01*
X172725Y145303D01*
X172824Y145555D01*
X172901Y145813D01*
X172956Y146079D01*
X172989Y146350D01*
X173000Y146628D01*
X175000D01*
X175011Y146350D01*
D02*
G37*
G36*
X160484Y189761D02*
X160585Y189475D01*
X160753Y189144D01*
X160989Y188767D01*
X161291Y188345D01*
X162098Y187364D01*
X163174Y186201D01*
X163813Y185551D01*
X162399Y184137D01*
X161749Y184776D01*
X159605Y186659D01*
X159183Y186962D01*
X158806Y187197D01*
X158475Y187365D01*
X158189Y187466D01*
X157949Y187500D01*
X160450Y190002D01*
X160484Y189761D01*
D02*
G37*
G36*
X210000Y237929D02*
X214369Y237585D01*
X218631Y236562D01*
X222680Y234885D01*
X226416Y232595D01*
X229749Y229749D01*
X232595Y226416D01*
X234885Y222680D01*
X236562Y218631D01*
X237585Y214369D01*
X237929Y210000D01*
X237930D01*
Y171606D01*
X236742Y170622D01*
X236499Y170668D01*
X236390Y170883D01*
X236630Y172700D01*
X236233Y175710D01*
X235071Y178515D01*
X233223Y180923D01*
X230815Y182771D01*
X228010Y183933D01*
X225000Y184329D01*
X221990Y183933D01*
X219185Y182771D01*
X218451Y183577D01*
X219044Y185030D01*
X222082Y186289D01*
X225642Y188470D01*
X228818Y191182D01*
X231530Y194358D01*
X233711Y197918D01*
X235310Y201776D01*
X236284Y205837D01*
X236612Y210000D01*
X236284Y214163D01*
X235310Y218224D01*
X233711Y222082D01*
X231530Y225642D01*
X228818Y228818D01*
X225642Y231530D01*
X222082Y233711D01*
X218224Y235310D01*
X214163Y236284D01*
X210000Y236612D01*
X206321Y236322D01*
X205755Y237232D01*
X206158Y237930D01*
X210000D01*
Y237929D01*
D02*
G37*
G36*
X120000Y3370D02*
X121817Y3610D01*
X122032Y3502D01*
X122078Y3258D01*
X121094Y2070D01*
X118906D01*
X117922Y3258D01*
X117968Y3502D01*
X118183Y3610D01*
X120000Y3370D01*
D02*
G37*
G36*
X237930Y33842D02*
Y30000D01*
X237929D01*
X237585Y25631D01*
X236562Y21369D01*
X234885Y17320D01*
X232595Y13584D01*
X229749Y10251D01*
X226416Y7405D01*
X222680Y5115D01*
X218631Y3438D01*
X214369Y2415D01*
X210000Y2071D01*
Y2070D01*
X206158D01*
X205755Y2768D01*
X206321Y3677D01*
X210000Y3388D01*
X214163Y3716D01*
X218224Y4690D01*
X222082Y6288D01*
X225642Y8470D01*
X228818Y11182D01*
X231530Y14358D01*
X233711Y17918D01*
X235310Y21776D01*
X236284Y25837D01*
X236612Y30000D01*
X236322Y33679D01*
X237232Y34245D01*
X237930Y33842D01*
D02*
G37*
G36*
Y94694D02*
Y92506D01*
X236742Y91522D01*
X236499Y91568D01*
X236390Y91783D01*
X236630Y93600D01*
X236390Y95417D01*
X236499Y95632D01*
X236742Y95678D01*
X237930Y94694D01*
D02*
G37*
G36*
X3677Y33679D02*
X3388Y30000D01*
X3716Y25837D01*
X4690Y21776D01*
X6288Y17918D01*
X8470Y14358D01*
X11182Y11182D01*
X14358Y8470D01*
X17918Y6288D01*
X21776Y4690D01*
X25837Y3716D01*
X30000Y3388D01*
X33679Y3677D01*
X34245Y2768D01*
X33842Y2070D01*
X30000D01*
Y2071D01*
X25631Y2415D01*
X21369Y3438D01*
X17320Y5115D01*
X13584Y7405D01*
X10251Y10251D01*
X7405Y13584D01*
X5115Y17320D01*
X3438Y21369D01*
X2415Y25631D01*
X2071Y30000D01*
X2070D01*
Y33842D01*
X2768Y34245D01*
X3677Y33679D01*
D02*
G37*
G36*
X186035Y128750D02*
X185364Y128036D01*
X184763Y127309D01*
X184232Y126568D01*
X183773Y125813D01*
X183384Y125045D01*
X183066Y124263D01*
X182818Y123468D01*
X182641Y122659D01*
X182535Y121836D01*
X182500Y121000D01*
X180000Y126250D01*
X180270Y128017D01*
X178231D01*
X178377Y128210D01*
X178508Y128484D01*
X178623Y128837D01*
X178723Y129270D01*
X178808Y129783D01*
X178931Y131047D01*
X178992Y132630D01*
X179000Y133541D01*
X181000D01*
X181007Y132718D01*
X181035Y132441D01*
X181141Y132207D01*
X181318Y132084D01*
X181566Y132071D01*
X181884Y132169D01*
X182273Y132378D01*
X182732Y132698D01*
X183864Y133669D01*
X184536Y134321D01*
X186035Y128750D01*
D02*
G37*
G36*
X155307Y236660D02*
X153885Y236071D01*
X151477Y234223D01*
X149629Y231815D01*
X148467Y229010D01*
X148359Y228195D01*
X148108Y227857D01*
X146992Y227286D01*
X146757Y227271D01*
X145830Y228139D01*
Y237530D01*
X146934Y237930D01*
X155054D01*
X155307Y236660D01*
D02*
G37*
G36*
X203076Y236660D02*
X201463Y236273D01*
X197458Y234614D01*
X193762Y232349D01*
X191992Y230837D01*
X211414Y211414D01*
X210000Y210000D01*
X211414Y208586D01*
X191992Y189163D01*
X193762Y187651D01*
X197458Y185386D01*
X201463Y183727D01*
X205679Y182715D01*
X210000Y182375D01*
X214321Y182715D01*
X215842Y183080D01*
X216401Y181908D01*
X216056Y181644D01*
X214046Y179024D01*
X212783Y175974D01*
X212352Y172700D01*
X212783Y169426D01*
X214046Y166376D01*
X214828Y165357D01*
X223586Y174114D01*
X225000Y172700D01*
X226414Y174114D01*
X235172Y165357D01*
X235954Y166376D01*
X236660Y168082D01*
X237930Y167829D01*
Y98471D01*
X236660Y98218D01*
X235954Y99924D01*
X235172Y100943D01*
X227828Y93600D01*
X235172Y86257D01*
X235954Y87276D01*
X236660Y88982D01*
X237930Y88729D01*
Y37074D01*
X236660Y36924D01*
X236273Y38537D01*
X234614Y42541D01*
X232349Y46238D01*
X230837Y48008D01*
X211414Y28586D01*
X191992Y9163D01*
X193762Y7651D01*
X197458Y5386D01*
X201463Y3727D01*
X203076Y3340D01*
X202925Y2070D01*
X124871D01*
X124618Y3340D01*
X126324Y4046D01*
X127343Y4828D01*
X120000Y12172D01*
X112657Y4828D01*
X113676Y4046D01*
X115382Y3340D01*
X115129Y2070D01*
X37074D01*
X36924Y3340D01*
X38537Y3727D01*
X42541Y5386D01*
X46238Y7651D01*
X48008Y9163D01*
X28586Y28586D01*
X9163Y48008D01*
X7651Y46238D01*
X5386Y42541D01*
X3727Y38537D01*
X3340Y36924D01*
X2070Y37074D01*
Y202925D01*
X3340Y203076D01*
X3727Y201463D01*
X5386Y197458D01*
X7651Y193762D01*
X9163Y191992D01*
X28586Y211414D01*
X48008Y230837D01*
X46238Y232349D01*
X42541Y234614D01*
X38537Y236273D01*
X36924Y236660D01*
X37075Y237930D01*
X63162D01*
X63593Y236660D01*
X62957Y236172D01*
X71714Y227414D01*
X80472Y218657D01*
X81254Y219676D01*
X82517Y222726D01*
X82900Y225634D01*
X84170Y225551D01*
Y214470D01*
X91591D01*
Y206300D01*
X91904Y204728D01*
X92795Y203395D01*
X96845Y199345D01*
X98178Y198454D01*
X99750Y198141D01*
X143998D01*
X151454Y190685D01*
X151364Y190000D01*
X151588Y188295D01*
X152246Y186707D01*
X153293Y185343D01*
X154657Y184296D01*
X156245Y183638D01*
X157950Y183414D01*
X159655Y183638D01*
X160253Y183886D01*
X160621Y183563D01*
X161238Y182956D01*
X161419Y182883D01*
X163671Y180632D01*
Y146857D01*
X163595Y146694D01*
X163587Y146483D01*
X163570Y146347D01*
X163544Y146219D01*
X163507Y146095D01*
X163459Y145973D01*
X163399Y145851D01*
X163324Y145726D01*
X163232Y145597D01*
X163121Y145463D01*
X162750Y145363D01*
X162000Y145363D01*
X161629Y145463D01*
X161518Y145597D01*
X161426Y145726D01*
X161351Y145851D01*
X161291Y145973D01*
X161243Y146095D01*
X161206Y146219D01*
X161180Y146347D01*
X161163Y146483D01*
X161155Y146694D01*
X161080Y146857D01*
Y169050D01*
X160883Y170037D01*
X160324Y170874D01*
X160324Y170874D01*
X143617Y187582D01*
X143912Y188295D01*
X144136Y190000D01*
X143912Y191705D01*
X143254Y193293D01*
X142207Y194657D01*
X140843Y195704D01*
X139255Y196362D01*
X137550Y196586D01*
X135845Y196362D01*
X134257Y195704D01*
X132893Y194657D01*
X131846Y193293D01*
X131188Y191705D01*
X130964Y190000D01*
X131188Y188295D01*
X131846Y186707D01*
X132893Y185343D01*
X134257Y184296D01*
X135845Y183638D01*
X137550Y183414D01*
X139255Y183638D01*
X139969Y183934D01*
X155920Y167982D01*
Y146857D01*
X155845Y146694D01*
X155837Y146483D01*
X155820Y146347D01*
X155794Y146219D01*
X155757Y146095D01*
X155709Y145973D01*
X155649Y145851D01*
X155574Y145726D01*
X155482Y145597D01*
X155371Y145463D01*
X155202Y145286D01*
X155140Y145125D01*
X154233Y143767D01*
X153881Y142000D01*
X154233Y140232D01*
X155234Y138734D01*
X156733Y137733D01*
X158500Y137381D01*
X160268Y137733D01*
X161552Y138591D01*
X162375Y138702D01*
X163198Y138591D01*
X164482Y137733D01*
X166250Y137381D01*
X168018Y137733D01*
X169302Y138591D01*
X170125Y138702D01*
X170948Y138591D01*
X172232Y137733D01*
X174000Y137381D01*
X175767Y137733D01*
X176150Y137989D01*
X177420Y137310D01*
Y133736D01*
X177344Y133555D01*
X177337Y132669D01*
X177278Y131159D01*
X177165Y129998D01*
X177098Y129591D01*
X177026Y129281D01*
X176967Y129101D01*
X176955Y129074D01*
X176909Y129014D01*
X176889Y128937D01*
X176883Y128925D01*
X176882Y128912D01*
X176851Y128791D01*
X176204Y127822D01*
X175891Y126250D01*
Y123004D01*
X175733Y122767D01*
X175381Y121000D01*
X175733Y119233D01*
X176734Y117734D01*
X178232Y116733D01*
X180000Y116381D01*
X181768Y116733D01*
X183266Y117734D01*
X184267Y119233D01*
X184619Y121000D01*
X184312Y122544D01*
X184421Y123044D01*
X184626Y123704D01*
X184892Y124357D01*
X185221Y125007D01*
X185615Y125654D01*
X186076Y126298D01*
X186607Y126940D01*
X187242Y127615D01*
X187282Y127721D01*
X190905Y131344D01*
X191796Y132678D01*
X192109Y134250D01*
Y136141D01*
X202000D01*
X202397Y136220D01*
X208530D01*
Y143141D01*
X213470D01*
Y135770D01*
X236530D01*
Y158830D01*
X225450D01*
X225367Y160100D01*
X228274Y160483D01*
X231324Y161746D01*
X232343Y162528D01*
X225000Y169872D01*
X217657Y162528D01*
X218676Y161746D01*
X221726Y160483D01*
X224633Y160100D01*
X224550Y158830D01*
X213470D01*
Y151359D01*
X202000D01*
X201603Y151280D01*
X195470D01*
Y144359D01*
X188000D01*
X187603Y144280D01*
X182579D01*
Y158932D01*
X188319Y164671D01*
X190250D01*
X190546Y163957D01*
X191593Y162593D01*
X192957Y161546D01*
X194545Y160888D01*
X196250Y160664D01*
X197955Y160888D01*
X199543Y161546D01*
X200907Y162593D01*
X201954Y163957D01*
X202612Y165545D01*
X202836Y167250D01*
X202612Y168955D01*
X201954Y170543D01*
X200907Y171907D01*
X199543Y172954D01*
X197955Y173612D01*
X196250Y173836D01*
X194545Y173612D01*
X192957Y172954D01*
X191593Y171907D01*
X190546Y170543D01*
X190250Y169830D01*
X187250D01*
X186263Y169633D01*
X185426Y169074D01*
X185426Y169074D01*
X178176Y161824D01*
X177850Y161336D01*
X176580Y161721D01*
Y182366D01*
X177850Y183480D01*
X178350Y183414D01*
X180055Y183638D01*
X181643Y184296D01*
X183008Y185343D01*
X184054Y186707D01*
X184712Y188295D01*
X184937Y190000D01*
X184712Y191705D01*
X184054Y193293D01*
X183008Y194657D01*
X181643Y195704D01*
X180055Y196362D01*
X178350Y196586D01*
X176646Y196362D01*
X175057Y195704D01*
X173693Y194657D01*
X172646Y193293D01*
X171988Y191705D01*
X171764Y190000D01*
X171988Y188295D01*
X172284Y187582D01*
X172176Y187474D01*
X171617Y186637D01*
X171420Y185650D01*
X171420Y185650D01*
Y146857D01*
X171345Y146694D01*
X171337Y146483D01*
X171320Y146347D01*
X171294Y146219D01*
X171257Y146095D01*
X171209Y145973D01*
X171149Y145851D01*
X171074Y145726D01*
X170982Y145597D01*
X170871Y145463D01*
X170501Y145363D01*
X169750Y145364D01*
X169379Y145463D01*
X169268Y145597D01*
X169176Y145726D01*
X169101Y145851D01*
X169041Y145973D01*
X168993Y146095D01*
X168956Y146219D01*
X168930Y146347D01*
X168913Y146483D01*
X168905Y146694D01*
X168830Y146857D01*
Y181700D01*
X168633Y182687D01*
X168074Y183524D01*
X165067Y186531D01*
X164994Y186712D01*
X164373Y187344D01*
X164059Y187684D01*
X164312Y188295D01*
X164536Y190000D01*
X164312Y191705D01*
X163654Y193293D01*
X162607Y194657D01*
X161243Y195704D01*
X159655Y196362D01*
X157950Y196586D01*
X157265Y196496D01*
X148606Y205155D01*
X147273Y206046D01*
X145700Y206359D01*
X101452D01*
X99809Y208002D01*
Y214470D01*
X107230D01*
Y236660D01*
X107230Y237530D01*
X108334Y237930D01*
X121666Y237930D01*
X122770Y236660D01*
Y214470D01*
X145830D01*
Y225550D01*
X147100Y225633D01*
X147483Y222726D01*
X148746Y219676D01*
X149528Y218657D01*
X158286Y227414D01*
X167043Y236172D01*
X166407Y236660D01*
X166838Y237930D01*
X202925D01*
X203076Y236660D01*
D02*
G37*
G36*
X34244Y237231D02*
X33680Y236322D01*
X30000Y236612D01*
X25837Y236284D01*
X21776Y235310D01*
X17918Y233711D01*
X14358Y231530D01*
X11182Y228818D01*
X8470Y225642D01*
X6288Y222082D01*
X4690Y218224D01*
X3716Y214163D01*
X3388Y210000D01*
X3677Y206321D01*
X2768Y205755D01*
X2070Y206158D01*
Y210000D01*
X2071D01*
X2415Y214369D01*
X3438Y218631D01*
X5115Y222680D01*
X7405Y226416D01*
X10251Y229749D01*
X13584Y232595D01*
X17320Y234885D01*
X21369Y236562D01*
X25631Y237585D01*
X30000Y237929D01*
Y237930D01*
X33840D01*
X34244Y237231D01*
D02*
G37*
G36*
X84170Y236660D02*
Y228139D01*
X83243Y227271D01*
X83008Y227286D01*
X81892Y227857D01*
X81641Y228195D01*
X81533Y229010D01*
X80371Y231815D01*
X78523Y234223D01*
X76115Y236071D01*
X74693Y236660D01*
X74946Y237930D01*
X83066D01*
X84170Y236660D01*
D02*
G37*
%LPC*%
G36*
X210000Y57625D02*
X205679Y57285D01*
X201463Y56273D01*
X197458Y54614D01*
X193762Y52349D01*
X191992Y50837D01*
X210000Y32829D01*
X228008Y50837D01*
X226238Y52349D01*
X222542Y54614D01*
X218537Y56273D01*
X214321Y57285D01*
X210000Y57625D01*
D02*
G37*
G36*
X30000D02*
X25679Y57285D01*
X21463Y56273D01*
X17458Y54614D01*
X13762Y52349D01*
X11991Y50837D01*
X30000Y32828D01*
X48008Y50837D01*
X46238Y52349D01*
X42541Y54614D01*
X38537Y56273D01*
X34321Y57285D01*
X30000Y57625D01*
D02*
G37*
G36*
X214828Y100943D02*
X214046Y99924D01*
X212783Y96874D01*
X212352Y93600D01*
X212783Y90326D01*
X214046Y87276D01*
X214828Y86257D01*
X222171Y93600D01*
X214828Y100943D01*
D02*
G37*
G36*
X94600Y26630D02*
X91590Y26233D01*
X88785Y25071D01*
X86377Y23223D01*
X84529Y20815D01*
X83367Y18010D01*
X82971Y15000D01*
X83367Y11990D01*
X84529Y9185D01*
X86377Y6777D01*
X88785Y4929D01*
X91590Y3767D01*
X94600Y3370D01*
X97610Y3767D01*
X100415Y4929D01*
X102823Y6777D01*
X104671Y9185D01*
X105833Y11990D01*
X106142Y14336D01*
X106150Y14397D01*
X107431D01*
X107439Y14336D01*
X107783Y11726D01*
X109046Y8676D01*
X109828Y7657D01*
X117172Y15000D01*
X109828Y22343D01*
X109046Y21324D01*
X107783Y18274D01*
X107439Y15664D01*
X107431Y15603D01*
X106150D01*
X106142Y15664D01*
X105833Y18010D01*
X104671Y20815D01*
X102823Y23223D01*
X100415Y25071D01*
X97610Y26233D01*
X94600Y26630D01*
D02*
G37*
G36*
X189163Y48008D02*
X187651Y46238D01*
X185386Y42541D01*
X183727Y38537D01*
X182715Y34321D01*
X182375Y30000D01*
X182715Y25679D01*
X183727Y21463D01*
X185386Y17458D01*
X187651Y13762D01*
X189163Y11992D01*
X207171Y30000D01*
X189163Y48008D01*
D02*
G37*
G36*
X50837Y48008D02*
X32828Y30000D01*
X50837Y11991D01*
X52349Y13762D01*
X54614Y17458D01*
X56273Y21463D01*
X57285Y25679D01*
X57625Y30000D01*
X57285Y34321D01*
X56273Y38537D01*
X54614Y42541D01*
X52349Y46238D01*
X50837Y48008D01*
D02*
G37*
G36*
X120000Y27648D02*
X116726Y27217D01*
X113676Y25954D01*
X112657Y25172D01*
X120000Y17828D01*
X127343Y25172D01*
X126324Y25954D01*
X123274Y27217D01*
X120000Y27648D01*
D02*
G37*
G36*
X156930Y26530D02*
X133870D01*
Y15449D01*
X132600Y15366D01*
X132536Y15851D01*
X132217Y18274D01*
X130954Y21324D01*
X130172Y22343D01*
X122829Y15000D01*
X130172Y7657D01*
X130954Y8676D01*
X132217Y11726D01*
X132536Y14149D01*
X132600Y14634D01*
X133870Y14551D01*
Y3470D01*
X156930D01*
Y26530D01*
D02*
G37*
G36*
X50837Y228008D02*
X32829Y210000D01*
X50837Y191992D01*
X52349Y193762D01*
X54614Y197458D01*
X56273Y201463D01*
X57285Y205679D01*
X57625Y210000D01*
X57285Y214321D01*
X56273Y218537D01*
X54614Y222542D01*
X52349Y226238D01*
X50837Y228008D01*
D02*
G37*
G36*
X60128Y233343D02*
X59346Y232324D01*
X58083Y229274D01*
X57652Y226000D01*
X58083Y222726D01*
X59346Y219676D01*
X60128Y218657D01*
X67472Y226000D01*
X60128Y233343D01*
D02*
G37*
G36*
X38000Y170619D02*
X36233Y170267D01*
X35247Y169609D01*
X28000D01*
X28000Y169609D01*
X14000D01*
X13603Y169530D01*
X7470D01*
Y161470D01*
X13603D01*
X14000Y161391D01*
X21470D01*
Y154470D01*
X27603D01*
X28000Y154391D01*
X35298D01*
X38968Y150721D01*
X38342Y149551D01*
X38000Y149619D01*
X36233Y149267D01*
X35247Y148609D01*
X28000D01*
X28000Y148609D01*
X14000D01*
X13603Y148530D01*
X7470D01*
Y140470D01*
X13603D01*
X14000Y140391D01*
X21470D01*
Y133470D01*
X27603D01*
X28000Y133391D01*
X32740D01*
X36641Y129490D01*
X36330Y128468D01*
X36134Y128201D01*
X35247Y127609D01*
X28000D01*
X28000Y127609D01*
X14000D01*
X13603Y127530D01*
X7470D01*
Y119470D01*
X13603D01*
X14000Y119391D01*
X21470D01*
Y112470D01*
X27603D01*
X28000Y112391D01*
X40891D01*
Y107864D01*
X40035Y107406D01*
X39621Y107296D01*
X38000Y107619D01*
X36233Y107267D01*
X35247Y106609D01*
X28000D01*
X28000Y106609D01*
X14000D01*
X13603Y106530D01*
X7470D01*
Y98470D01*
X13603D01*
X14000Y98391D01*
X21470D01*
Y91470D01*
X27603D01*
X28000Y91391D01*
X37153D01*
X37175Y91376D01*
X37251Y91391D01*
X37319D01*
X37413Y91346D01*
X38262Y91301D01*
X38892Y91190D01*
X39391Y91024D01*
X39775Y90817D01*
X40073Y90573D01*
X40317Y90275D01*
X40524Y89891D01*
X40690Y89392D01*
X40802Y88762D01*
X40846Y87913D01*
X40891Y87819D01*
Y86863D01*
X40035Y86406D01*
X39621Y86296D01*
X38000Y86619D01*
X36233Y86267D01*
X35247Y85609D01*
X28000D01*
X28000Y85609D01*
X14000D01*
X13603Y85530D01*
X7470D01*
Y77470D01*
X13603D01*
X14000Y77391D01*
X21470D01*
Y70470D01*
X27603D01*
X28000Y70391D01*
X40500D01*
X42072Y70704D01*
X43405Y71595D01*
X45030Y73219D01*
X62504Y55745D01*
X62414Y55060D01*
X62638Y53355D01*
X63296Y51767D01*
X64343Y50403D01*
X65707Y49356D01*
X67295Y48698D01*
X69000Y48474D01*
X69685Y48564D01*
X79155Y39095D01*
X80488Y38204D01*
X82060Y37891D01*
X98653D01*
X98675Y37876D01*
X98751Y37891D01*
X99249D01*
X99325Y37876D01*
X99347Y37891D01*
X148000D01*
X149572Y38204D01*
X150906Y39095D01*
X155906Y44095D01*
X156796Y45428D01*
X157109Y47000D01*
Y48970D01*
X159530D01*
Y55891D01*
X167000D01*
X167397Y55970D01*
X173530D01*
Y64030D01*
X173500D01*
X173014Y65203D01*
X173905Y66094D01*
X174796Y67428D01*
X175109Y69000D01*
Y78880D01*
X176379Y79266D01*
X176734Y78734D01*
X178232Y77733D01*
X180000Y77381D01*
X180488Y77478D01*
X181470Y76673D01*
Y71470D01*
X187603D01*
X188000Y71391D01*
X188000Y71391D01*
X195470D01*
Y64470D01*
X201603D01*
X202000Y64391D01*
X214098D01*
X214929Y62385D01*
X216777Y59977D01*
X219185Y58129D01*
X221990Y56967D01*
X225000Y56571D01*
X228010Y56967D01*
X230815Y58129D01*
X233223Y59977D01*
X235071Y62385D01*
X236233Y65190D01*
X236630Y68200D01*
X236233Y71210D01*
X235071Y74015D01*
X233223Y76423D01*
X230815Y78271D01*
X228010Y79433D01*
X225664Y79742D01*
X225603Y79750D01*
Y81031D01*
X225664Y81039D01*
X228274Y81383D01*
X231324Y82646D01*
X232343Y83428D01*
X225000Y90772D01*
X217657Y83428D01*
X218676Y82646D01*
X221726Y81383D01*
X224336Y81039D01*
X224397Y81031D01*
Y79750D01*
X224336Y79742D01*
X221990Y79433D01*
X219185Y78271D01*
X216777Y76423D01*
X214929Y74015D01*
X214346Y72609D01*
X208530D01*
Y79530D01*
X202397D01*
X202000Y79609D01*
X192109D01*
Y80250D01*
X191796Y81822D01*
X190905Y83155D01*
X189156Y84905D01*
X187822Y85796D01*
X186250Y86109D01*
X184109D01*
Y93298D01*
X189065Y98254D01*
X189750Y98164D01*
X191455Y98388D01*
X193043Y99046D01*
X194407Y100093D01*
X195454Y101457D01*
X196112Y103045D01*
X196336Y104750D01*
X196112Y106455D01*
X195454Y108043D01*
X194407Y109407D01*
X193043Y110454D01*
X191455Y111112D01*
X189750Y111336D01*
X188045Y111112D01*
X186457Y110454D01*
X185093Y109407D01*
X184046Y108043D01*
X183388Y106455D01*
X183164Y104750D01*
X183254Y104065D01*
X177094Y97906D01*
X176379Y96834D01*
X175109Y97082D01*
Y110996D01*
X175267Y111233D01*
X175619Y113000D01*
X175267Y114768D01*
X174266Y116266D01*
X172768Y117267D01*
X171000Y117619D01*
X169233Y117267D01*
X167734Y116266D01*
X166733Y114768D01*
X166381Y113000D01*
X166733Y111233D01*
X166891Y110996D01*
Y70702D01*
X164095Y67906D01*
X163204Y66572D01*
X162891Y65000D01*
Y64109D01*
X153000D01*
X152603Y64030D01*
X146470D01*
Y55970D01*
Y48970D01*
X147363D01*
X147889Y47700D01*
X146298Y46109D01*
X106847D01*
X106825Y46124D01*
X106749Y46109D01*
X106681D01*
X106587Y46154D01*
X105738Y46199D01*
X105108Y46310D01*
X104609Y46476D01*
X104225Y46683D01*
X103927Y46927D01*
X103683Y47225D01*
X103562Y47450D01*
X103711Y47915D01*
X104332Y48720D01*
X105530D01*
Y55641D01*
X120750D01*
X122322Y55954D01*
X123656Y56845D01*
X136452Y69641D01*
X140496D01*
X140732Y69483D01*
X142500Y69131D01*
X144268Y69483D01*
X145766Y70484D01*
X146767Y71982D01*
X147119Y73750D01*
X146767Y75518D01*
X145766Y77016D01*
X144268Y78017D01*
X142500Y78369D01*
X140732Y78017D01*
X140496Y77859D01*
X134750D01*
X133177Y77546D01*
X131845Y76655D01*
X119048Y63859D01*
X99000D01*
X98603Y63780D01*
X92470D01*
Y55720D01*
X92470D01*
Y48720D01*
X93668D01*
X94289Y47914D01*
X94438Y47450D01*
X94317Y47225D01*
X94073Y46927D01*
X93775Y46683D01*
X93391Y46476D01*
X92892Y46310D01*
X92262Y46199D01*
X91413Y46154D01*
X91319Y46109D01*
X91251D01*
X91175Y46124D01*
X91153Y46109D01*
X83762D01*
X75496Y54375D01*
X75586Y55060D01*
X75362Y56765D01*
X74704Y58353D01*
X73657Y59717D01*
X72293Y60764D01*
X70705Y61422D01*
X69000Y61646D01*
X68315Y61556D01*
X49139Y80732D01*
Y84912D01*
X49109Y85063D01*
Y87819D01*
X49154Y87913D01*
X49198Y88762D01*
X49310Y89392D01*
X49476Y89891D01*
X49683Y90275D01*
X49927Y90573D01*
X50225Y90817D01*
X50609Y91024D01*
X51108Y91190D01*
X51738Y91301D01*
X52587Y91346D01*
X52681Y91391D01*
X52749D01*
X52825Y91376D01*
X52847Y91391D01*
X54377D01*
X54466Y91281D01*
X54704Y90946D01*
X54886Y90650D01*
X55015Y90396D01*
X55094Y90192D01*
X55134Y90043D01*
X55145Y89949D01*
X55139Y89761D01*
X55149Y89733D01*
X55138Y89706D01*
X55223Y89500D01*
X55158Y89004D01*
X55417Y87039D01*
X56176Y85207D01*
X57383Y83634D01*
X58956Y82427D01*
X60787Y81668D01*
X62753Y81409D01*
X64719Y81668D01*
X66550Y82427D01*
X68123Y83634D01*
X69331Y85207D01*
X70089Y87039D01*
X70348Y89004D01*
X70089Y90970D01*
X69331Y92802D01*
X68123Y94375D01*
X66550Y95582D01*
X64719Y96341D01*
X62753Y96599D01*
X62257Y96534D01*
X62051Y96619D01*
X62024Y96608D01*
X61996Y96618D01*
X61809Y96612D01*
X61715Y96624D01*
X61565Y96663D01*
X61361Y96743D01*
X61108Y96872D01*
X60811Y97054D01*
X60494Y97280D01*
X59699Y97952D01*
X59267Y98367D01*
X59153Y98412D01*
X57830Y99296D01*
X56257Y99609D01*
X50301D01*
X49139Y100088D01*
Y105912D01*
X49109Y106063D01*
Y116000D01*
Y120937D01*
X49139Y121088D01*
Y126912D01*
Y150470D01*
X48826Y152042D01*
X47935Y153376D01*
X40570Y160741D01*
X40691Y162350D01*
X41266Y162734D01*
X42267Y164233D01*
X42619Y166000D01*
X42267Y167768D01*
X41266Y169266D01*
X39767Y170267D01*
X38000Y170619D01*
D02*
G37*
G36*
X70300Y223172D02*
X62957Y215828D01*
X63976Y215046D01*
X67026Y213783D01*
X70300Y213352D01*
X73574Y213783D01*
X76624Y215046D01*
X77643Y215828D01*
X70300Y223172D01*
D02*
G37*
G36*
X159700Y223172D02*
X152357Y215828D01*
X153376Y215046D01*
X156426Y213783D01*
X159700Y213352D01*
X162974Y213783D01*
X166024Y215046D01*
X167043Y215828D01*
X159700Y223172D01*
D02*
G37*
G36*
X189163Y228008D02*
X187651Y226238D01*
X185386Y222542D01*
X183727Y218537D01*
X182715Y214321D01*
X182375Y210000D01*
X182715Y205679D01*
X183727Y201463D01*
X185386Y197458D01*
X187651Y193762D01*
X189163Y191992D01*
X207171Y210000D01*
X189163Y228008D01*
D02*
G37*
G36*
X30000Y207172D02*
X11992Y189163D01*
X13762Y187651D01*
X17458Y185386D01*
X21463Y183727D01*
X25679Y182715D01*
X30000Y182375D01*
X34321Y182715D01*
X38537Y183727D01*
X42541Y185386D01*
X46238Y187651D01*
X48008Y189163D01*
X30000Y207172D01*
D02*
G37*
G36*
X169872Y233343D02*
X162528Y226000D01*
X169872Y218657D01*
X170654Y219676D01*
X171917Y222726D01*
X172348Y226000D01*
X171917Y229274D01*
X170654Y232324D01*
X169872Y233343D01*
D02*
G37*
G36*
X236530Y130530D02*
X213470D01*
Y107470D01*
X224550D01*
X224634Y106200D01*
X224149Y106136D01*
X221726Y105817D01*
X218676Y104554D01*
X217657Y103772D01*
X225000Y96428D01*
X232343Y103772D01*
X231324Y104554D01*
X228274Y105817D01*
X225851Y106136D01*
X225366Y106200D01*
X225450Y107470D01*
X236530D01*
Y130530D01*
D02*
G37*
%LPD*%
G36*
X58589Y96722D02*
X59477Y95970D01*
X59896Y95672D01*
X60298Y95425D01*
X60683Y95230D01*
X61051Y95086D01*
X61401Y94994D01*
X61735Y94953D01*
X62051Y94963D01*
X56794Y89706D01*
X56805Y90023D01*
X56764Y90356D01*
X56671Y90707D01*
X56528Y91075D01*
X56332Y91459D01*
X56085Y91861D01*
X55787Y92280D01*
X55437Y92716D01*
X54583Y93639D01*
X58118Y97175D01*
X58589Y96722D01*
D02*
G37*
G36*
X40921Y139678D02*
Y138491D01*
X39748Y138005D01*
X38740Y139013D01*
X39083Y140249D01*
X39774Y140454D01*
X40921Y139678D01*
D02*
G37*
G36*
X101550Y48550D02*
X101700Y47700D01*
X101950Y46950D01*
X102300Y46300D01*
X102750Y45750D01*
X103300Y45300D01*
X103950Y44950D01*
X104700Y44700D01*
X105550Y44550D01*
X106500Y44500D01*
X99000Y39500D01*
X91500Y44500D01*
X92450Y44550D01*
X93300Y44700D01*
X94050Y44950D01*
X94700Y45300D01*
X95250Y45750D01*
X95700Y46300D01*
X96050Y46950D01*
X96300Y47700D01*
X96450Y48550D01*
X96500Y49500D01*
X101500D01*
X101550Y48550D01*
D02*
G37*
G36*
X52500Y93000D02*
X51550Y92950D01*
X50700Y92800D01*
X49950Y92550D01*
X49300Y92200D01*
X48750Y91750D01*
X48300Y91200D01*
X47950Y90550D01*
X47700Y89800D01*
X47550Y88950D01*
X47500Y88000D01*
X42500D01*
X42450Y88950D01*
X42300Y89800D01*
X42050Y90550D01*
X41700Y91200D01*
X41250Y91750D01*
X40700Y92200D01*
X40050Y92550D01*
X39300Y92800D01*
X38450Y92950D01*
X37500Y93000D01*
X45000Y98000D01*
X52500Y93000D01*
D02*
G37*
D15*
X196250Y167250D02*
D03*
X189750Y104750D02*
D03*
X69000Y55060D02*
D03*
X178350Y190000D02*
D03*
X157950D02*
D03*
X137550D02*
D03*
D18*
X158500Y169050D01*
Y142000D02*
Y169050D01*
X157950Y190000D02*
X166250Y181700D01*
Y142000D02*
Y181700D01*
X174000Y185650D02*
X178350Y190000D01*
X174000Y142000D02*
Y185650D01*
X180000Y160000D02*
X187250Y167250D01*
X196250D01*
X180000Y126250D02*
Y160000D01*
D19*
Y95000D02*
X189750Y104750D01*
X180000Y82000D02*
Y95000D01*
Y82000D02*
X186250D01*
X188000Y75500D02*
Y80250D01*
X186250Y82000D02*
X188000Y80250D01*
Y75500D02*
X188000Y75500D01*
X202000D01*
X224700Y68500D02*
X225000Y68200D01*
X202000Y68500D02*
X224700D01*
X180000Y121000D02*
Y126250D01*
X188000Y134250D01*
Y140250D01*
X188000Y140250D01*
X202000D01*
X224950Y147250D02*
X225000Y147300D01*
X202000Y147250D02*
X224950D01*
X134750Y73750D02*
X142500D01*
X120750Y59750D02*
X134750Y73750D01*
X113000Y59750D02*
X120750D01*
X171000Y69000D02*
Y113000D01*
X167000Y65000D02*
X171000Y69000D01*
X167000Y60000D02*
Y65000D01*
X153000Y47000D02*
Y53000D01*
X148000Y42000D02*
X153000Y47000D01*
X99000Y42000D02*
X148000D01*
X99000D02*
Y52750D01*
X82060Y42000D02*
X99000D01*
X69000Y55060D02*
X82060Y42000D01*
X99000Y59750D02*
X113000D01*
X153000Y60000D02*
X167000D01*
X14000Y81500D02*
X28000D01*
X28000Y81500D02*
X37500D01*
X28000Y74500D02*
X40500D01*
X28000Y158500D02*
X37000D01*
X45030Y150470D01*
Y126912D02*
Y150470D01*
X95700Y206300D02*
Y226000D01*
Y206300D02*
X99750Y202250D01*
X145700D01*
X157950Y190000D01*
X45030Y79030D02*
X69000Y55060D01*
X45000Y84942D02*
Y95500D01*
X56257D01*
X28000D02*
X45000D01*
X56257D02*
X62753Y89004D01*
X45000Y116000D02*
Y121058D01*
Y105942D02*
Y116000D01*
X44500Y116500D02*
X45000Y116000D01*
X28000Y116500D02*
X44500D01*
X45000Y95500D02*
Y100058D01*
X40500Y74500D02*
X45030Y79030D01*
Y84912D01*
X45000Y84942D02*
X45030Y84912D01*
X45000Y100058D02*
X45030Y100088D01*
Y105912D01*
X45000Y105942D02*
X45030Y105912D01*
X45000Y121058D02*
X45030Y121088D01*
Y126912D01*
X34442Y137500D02*
X45030Y126912D01*
X28000Y137500D02*
X34442D01*
X37500Y123500D02*
X38000Y124000D01*
X37500Y165500D02*
X38000Y166000D01*
X28000Y165500D02*
X37500D01*
X28000Y165500D02*
X28000Y165500D01*
X14000Y165500D02*
X28000D01*
X37500Y144500D02*
X38000Y145000D01*
X28000Y144500D02*
X37500D01*
X28000Y144500D02*
X28000Y144500D01*
X14000Y144500D02*
X28000D01*
X28000Y123500D02*
X37500D01*
X28000Y123500D02*
X28000Y123500D01*
X14000Y123500D02*
X28000D01*
X37500Y102500D02*
X38000Y103000D01*
X28000Y102500D02*
X37500D01*
X28000Y102500D02*
X28000Y102500D01*
X14000Y102500D02*
X28000D01*
X37500Y81500D02*
X38000Y82000D01*
X28000Y81500D02*
X28000Y81500D01*
D21*
X95700Y226000D02*
D03*
X145400Y15000D02*
D03*
X134300Y226000D02*
D03*
D22*
X70300D02*
D03*
X120000Y15000D02*
D03*
X94600D02*
D03*
X225000Y93600D02*
D03*
Y68200D02*
D03*
X225000Y172700D02*
D03*
X159700Y226000D02*
D03*
D23*
X210000Y30000D02*
D03*
X30000D02*
D03*
Y210000D02*
D03*
X210000D02*
D03*
D24*
X225000Y119000D02*
D03*
X225000Y147300D02*
D03*
D25*
X56500Y110750D02*
D03*
X119500Y192250D02*
D03*
X206001Y166000D02*
D03*
Y106000D02*
D03*
Y86000D02*
D03*
X201001Y176000D02*
D03*
Y156000D02*
D03*
X196001Y126000D02*
D03*
X201001Y96000D02*
D03*
X196001Y86000D02*
D03*
X191001Y176000D02*
D03*
Y156000D02*
D03*
Y56000D02*
D03*
X186001Y6000D02*
D03*
X176001Y226000D02*
D03*
Y206000D02*
D03*
X181001Y176000D02*
D03*
Y56000D02*
D03*
X176001Y46000D02*
D03*
Y26000D02*
D03*
X181001Y16000D02*
D03*
X176001Y6000D02*
D03*
X166001Y206000D02*
D03*
Y46000D02*
D03*
X171001Y36000D02*
D03*
X166001Y26000D02*
D03*
X171001Y16000D02*
D03*
X166001Y6000D02*
D03*
X156001Y206000D02*
D03*
Y86000D02*
D03*
X161001Y36000D02*
D03*
Y16000D02*
D03*
X141001Y56000D02*
D03*
X116001Y226000D02*
D03*
X111000Y216000D02*
D03*
X106000Y26000D02*
D03*
X86000Y206000D02*
D03*
X76000D02*
D03*
X81000Y196000D02*
D03*
X76000Y186000D02*
D03*
Y166000D02*
D03*
Y26000D02*
D03*
Y6000D02*
D03*
X66000Y206000D02*
D03*
X71000Y196000D02*
D03*
X66000Y186000D02*
D03*
X71000Y176000D02*
D03*
X66000Y166000D02*
D03*
Y146000D02*
D03*
X71000Y36000D02*
D03*
X66000Y26000D02*
D03*
X71000Y16000D02*
D03*
X66000Y6000D02*
D03*
X61000Y196000D02*
D03*
X56000Y186000D02*
D03*
X61000Y176000D02*
D03*
X56000Y166000D02*
D03*
X61000Y156000D02*
D03*
Y36000D02*
D03*
Y16000D02*
D03*
X56000Y6000D02*
D03*
X51000Y176000D02*
D03*
X46000Y166000D02*
D03*
X51000Y156000D02*
D03*
Y56000D02*
D03*
X41000Y176000D02*
D03*
X36000Y66000D02*
D03*
X31000Y176000D02*
D03*
X26000Y66000D02*
D03*
X21000Y176000D02*
D03*
X6000Y186000D02*
D03*
X11000Y176000D02*
D03*
X6000Y66000D02*
D03*
X11000Y56000D02*
D03*
X110000Y33000D02*
D03*
X130000D02*
D03*
X120000D02*
D03*
X84000Y52000D02*
D03*
Y60000D02*
D03*
X119750Y76250D02*
D03*
X137500Y176250D02*
D03*
X130000Y182000D02*
D03*
X55000Y120750D02*
D03*
X52750Y132000D02*
D03*
X53000Y142750D02*
D03*
X59000Y149000D02*
D03*
X180000Y121000D02*
D03*
Y82000D02*
D03*
X14000Y152000D02*
D03*
Y131000D02*
D03*
Y110000D02*
D03*
Y89000D02*
D03*
Y68000D02*
D03*
X38000Y124000D02*
D03*
Y166000D02*
D03*
Y145000D02*
D03*
Y103000D02*
D03*
Y82000D02*
D03*
X76000Y96000D02*
D03*
Y88000D02*
D03*
X174000Y142000D02*
D03*
X166250D02*
D03*
X158500D02*
D03*
X171000Y113000D02*
D03*
X146000Y121000D02*
D03*
X135000D02*
D03*
X124000D02*
D03*
Y110000D02*
D03*
Y99000D02*
D03*
X135000D02*
D03*
X146000D02*
D03*
Y110000D02*
D03*
X135000D02*
D03*
X142500Y73750D02*
D03*
D26*
X62753Y89004D02*
D03*
D27*
X188000Y147250D02*
D03*
Y140250D02*
D03*
X202000Y147250D02*
D03*
Y140250D02*
D03*
X202000Y68500D02*
D03*
X202000Y75500D02*
D03*
X188000Y68500D02*
D03*
Y75500D02*
D03*
X28000Y158500D02*
D03*
Y165500D02*
D03*
X14000Y158500D02*
D03*
Y165500D02*
D03*
X28000Y137500D02*
D03*
Y144500D02*
D03*
X14000Y137500D02*
D03*
Y144500D02*
D03*
X28000Y116500D02*
D03*
X28000Y123500D02*
D03*
X14000Y116500D02*
D03*
Y123500D02*
D03*
X99000Y59750D02*
D03*
X99000Y52750D02*
D03*
X113000Y59750D02*
D03*
Y52750D02*
D03*
X153000Y60000D02*
D03*
Y53000D02*
D03*
X167000Y60000D02*
D03*
Y53000D02*
D03*
X28000Y95500D02*
D03*
Y102500D02*
D03*
X14000Y95500D02*
D03*
Y102500D02*
D03*
X28000Y74500D02*
D03*
Y81500D02*
D03*
X14000Y74500D02*
D03*
Y81500D02*
D03*
M02*
