G04 Layer_Color=16711935*
%FSLAX44Y44*%
%MOMM*%
G71*
G01*
G75*
%ADD33C,1.2032*%
%ADD35R,2.2032X2.2032*%
%ADD36C,2.2032*%
%ADD37C,5.2032*%
%ADD38R,2.2032X2.2032*%
%ADD40R,1.2032X0.7032*%
D33*
X196250Y167250D02*
D03*
X189750Y104750D02*
D03*
X69000Y55060D02*
D03*
X178350Y190000D02*
D03*
X157950D02*
D03*
X137550D02*
D03*
D35*
X95700Y226000D02*
D03*
X145400Y15000D02*
D03*
X134300Y226000D02*
D03*
D36*
X70300D02*
D03*
X120000Y15000D02*
D03*
X94600D02*
D03*
X225000Y93600D02*
D03*
Y68200D02*
D03*
X225000Y172700D02*
D03*
X159700Y226000D02*
D03*
D37*
X210000Y30000D02*
D03*
X30000D02*
D03*
Y210000D02*
D03*
X210000D02*
D03*
D38*
X225000Y119000D02*
D03*
X225000Y147300D02*
D03*
D40*
X188000Y147250D02*
D03*
Y140250D02*
D03*
X202000Y147250D02*
D03*
Y140250D02*
D03*
X202000Y68500D02*
D03*
X202000Y75500D02*
D03*
X188000Y68500D02*
D03*
Y75500D02*
D03*
X28000Y158500D02*
D03*
Y165500D02*
D03*
X14000Y158500D02*
D03*
Y165500D02*
D03*
X28000Y137500D02*
D03*
Y144500D02*
D03*
X14000Y137500D02*
D03*
Y144500D02*
D03*
X28000Y116500D02*
D03*
X28000Y123500D02*
D03*
X14000Y116500D02*
D03*
Y123500D02*
D03*
X99000Y59750D02*
D03*
X99000Y52750D02*
D03*
X113000Y59750D02*
D03*
Y52750D02*
D03*
X153000Y60000D02*
D03*
Y53000D02*
D03*
X167000Y60000D02*
D03*
Y53000D02*
D03*
X28000Y95500D02*
D03*
Y102500D02*
D03*
X14000Y95500D02*
D03*
Y102500D02*
D03*
X28000Y74500D02*
D03*
Y81500D02*
D03*
X14000Y74500D02*
D03*
Y81500D02*
D03*
M02*
