G04 Layer_Color=32896*
%FSLAX44Y44*%
%MOMM*%
G71*
G01*
G75*
%ADD18C,0.2000*%
G36*
X150107Y204483D02*
X150172Y204455D01*
X150218Y204418D01*
X150227Y204409D01*
X150236Y204400D01*
X151263Y203374D01*
X151309Y203309D01*
X151327Y203253D01*
X151336Y203207D01*
Y203198D01*
Y203189D01*
X151327Y203096D01*
X151299Y203031D01*
X151253Y202985D01*
X151207Y202957D01*
X151161Y202939D01*
X151115Y202920D01*
X151078D01*
X151004Y202930D01*
X150939Y202957D01*
X150902Y202985D01*
X150893Y202994D01*
X150282Y203605D01*
Y199509D01*
X150273Y199426D01*
X150246Y199361D01*
X150199Y199315D01*
X150153Y199287D01*
X150107Y199268D01*
X150061Y199250D01*
X150024D01*
X149931Y199259D01*
X149867Y199287D01*
X149820Y199333D01*
X149792Y199379D01*
X149765Y199426D01*
X149755Y199472D01*
Y199500D01*
Y199509D01*
Y204233D01*
X149765Y204326D01*
X149792Y204391D01*
X149839Y204437D01*
X149885Y204464D01*
X149940Y204492D01*
X149977Y204501D01*
X150061D01*
X150107Y204483D01*
D02*
G37*
G36*
X167787Y204492D02*
X167907Y204455D01*
X168027Y204409D01*
X168138Y204344D01*
X168230Y204270D01*
X168323Y204187D01*
X168471Y204002D01*
X168591Y203817D01*
X168637Y203734D01*
X168674Y203660D01*
X168702Y203595D01*
X168720Y203549D01*
X168739Y203512D01*
Y203503D01*
X168813Y203235D01*
X168868Y202957D01*
X168905Y202680D01*
X168933Y202430D01*
X168942Y202310D01*
X168951Y202209D01*
Y202116D01*
X168961Y202033D01*
Y201968D01*
Y201922D01*
Y201885D01*
Y201876D01*
X168951Y201534D01*
X168924Y201229D01*
X168905Y201081D01*
X168887Y200951D01*
X168868Y200822D01*
X168850Y200711D01*
X168831Y200609D01*
X168813Y200517D01*
X168794Y200433D01*
X168776Y200369D01*
X168757Y200322D01*
X168748Y200276D01*
X168739Y200258D01*
Y200249D01*
X168674Y200073D01*
X168591Y199916D01*
X168508Y199786D01*
X168424Y199675D01*
X168332Y199574D01*
X168240Y199490D01*
X168156Y199426D01*
X168064Y199379D01*
X167981Y199333D01*
X167907Y199305D01*
X167833Y199278D01*
X167768Y199268D01*
X167722Y199259D01*
X167685Y199250D01*
X167648D01*
X167509Y199259D01*
X167389Y199296D01*
X167269Y199342D01*
X167167Y199407D01*
X167065Y199481D01*
X166982Y199564D01*
X166825Y199749D01*
X166714Y199934D01*
X166668Y200017D01*
X166631Y200091D01*
X166603Y200156D01*
X166585Y200202D01*
X166566Y200239D01*
Y200249D01*
X166492Y200517D01*
X166437Y200794D01*
X166390Y201062D01*
X166363Y201321D01*
X166353Y201432D01*
X166344Y201543D01*
Y201635D01*
X166335Y201719D01*
Y201783D01*
Y201839D01*
Y201866D01*
Y201876D01*
X166344Y202218D01*
X166372Y202523D01*
X166390Y202662D01*
X166409Y202800D01*
X166427Y202920D01*
X166446Y203031D01*
X166474Y203133D01*
X166492Y203226D01*
X166511Y203309D01*
X166529Y203374D01*
X166548Y203429D01*
X166557Y203466D01*
X166566Y203484D01*
Y203494D01*
X166631Y203669D01*
X166714Y203827D01*
X166797Y203965D01*
X166880Y204076D01*
X166973Y204178D01*
X167056Y204252D01*
X167149Y204326D01*
X167232Y204372D01*
X167315Y204418D01*
X167398Y204446D01*
X167463Y204474D01*
X167528Y204483D01*
X167574Y204492D01*
X167611Y204501D01*
X167648D01*
X167787Y204492D01*
D02*
G37*
G36*
X175618D02*
X175682Y204464D01*
X175728Y204418D01*
X175756Y204372D01*
X175775Y204317D01*
X175793Y204280D01*
Y204243D01*
Y204233D01*
Y199509D01*
X175784Y199426D01*
X175756Y199361D01*
X175710Y199315D01*
X175664Y199287D01*
X175618Y199268D01*
X175571Y199250D01*
X175534D01*
X175442Y199259D01*
X175377Y199287D01*
X175331Y199333D01*
X175303Y199379D01*
X175275Y199426D01*
X175266Y199472D01*
Y199500D01*
Y199509D01*
Y201349D01*
X174221D01*
X174092Y201358D01*
X173972Y201367D01*
X173750Y201413D01*
X173556Y201487D01*
X173389Y201571D01*
X173260Y201645D01*
X173158Y201719D01*
X173130Y201746D01*
X173103Y201765D01*
X173093Y201783D01*
X173084D01*
X173010Y201866D01*
X172936Y201959D01*
X172825Y202144D01*
X172751Y202338D01*
X172696Y202514D01*
X172659Y202680D01*
X172650Y202745D01*
Y202800D01*
X172640Y202856D01*
Y202893D01*
Y202911D01*
Y202920D01*
X172650Y203041D01*
X172659Y203161D01*
X172715Y203374D01*
X172788Y203568D01*
X172872Y203725D01*
X172955Y203854D01*
X172992Y203910D01*
X173029Y203956D01*
X173057Y203993D01*
X173084Y204021D01*
X173093Y204030D01*
X173103Y204039D01*
X173195Y204122D01*
X173288Y204196D01*
X173380Y204252D01*
X173473Y204307D01*
X173657Y204391D01*
X173833Y204446D01*
X173990Y204474D01*
X174055Y204492D01*
X174111D01*
X174157Y204501D01*
X175534D01*
X175618Y204492D01*
D02*
G37*
G36*
X155368D02*
X155432Y204464D01*
X155478Y204418D01*
X155506Y204372D01*
X155525Y204317D01*
X155543Y204280D01*
Y204243D01*
Y204233D01*
Y199509D01*
X155534Y199426D01*
X155506Y199361D01*
X155460Y199315D01*
X155414Y199287D01*
X155368Y199268D01*
X155321Y199250D01*
X155284D01*
X155192Y199259D01*
X155127Y199287D01*
X155081Y199333D01*
X155053Y199379D01*
X155026Y199426D01*
X155016Y199472D01*
Y199500D01*
Y199509D01*
Y201349D01*
X153972D01*
X153842Y201358D01*
X153722Y201367D01*
X153500Y201413D01*
X153306Y201487D01*
X153139Y201571D01*
X153010Y201645D01*
X152908Y201719D01*
X152880Y201746D01*
X152853Y201765D01*
X152844Y201783D01*
X152834D01*
X152760Y201866D01*
X152686Y201959D01*
X152575Y202144D01*
X152501Y202338D01*
X152446Y202514D01*
X152409Y202680D01*
X152400Y202745D01*
Y202800D01*
X152390Y202856D01*
Y202893D01*
Y202911D01*
Y202920D01*
X152400Y203041D01*
X152409Y203161D01*
X152465Y203374D01*
X152538Y203568D01*
X152622Y203725D01*
X152705Y203854D01*
X152742Y203910D01*
X152779Y203956D01*
X152807Y203993D01*
X152834Y204021D01*
X152844Y204030D01*
X152853Y204039D01*
X152945Y204122D01*
X153038Y204196D01*
X153130Y204252D01*
X153223Y204307D01*
X153407Y204391D01*
X153583Y204446D01*
X153740Y204474D01*
X153805Y204492D01*
X153861D01*
X153907Y204501D01*
X155284D01*
X155368Y204492D01*
D02*
G37*
G36*
X159574D02*
X159639Y204464D01*
X159685Y204418D01*
X159713Y204372D01*
X159732Y204317D01*
X159750Y204280D01*
Y204243D01*
Y204233D01*
X159741Y204150D01*
X159713Y204085D01*
X159667Y204039D01*
X159621Y204011D01*
X159574Y203993D01*
X159528Y203974D01*
X158437D01*
Y199509D01*
X158428Y199426D01*
X158400Y199361D01*
X158354Y199315D01*
X158308Y199287D01*
X158261Y199268D01*
X158215Y199250D01*
X158178D01*
X158086Y199259D01*
X158021Y199287D01*
X157975Y199333D01*
X157947Y199379D01*
X157919Y199426D01*
X157910Y199472D01*
Y199500D01*
Y199509D01*
Y203974D01*
X156865D01*
X156773Y203984D01*
X156708Y204011D01*
X156662Y204058D01*
X156634Y204104D01*
X156607Y204150D01*
X156597Y204196D01*
Y204224D01*
Y204233D01*
X156607Y204326D01*
X156634Y204391D01*
X156680Y204437D01*
X156727Y204464D01*
X156782Y204492D01*
X156819Y204501D01*
X159491D01*
X159574Y204492D01*
D02*
G37*
G36*
X147481Y204483D02*
X147546Y204455D01*
X147592Y204418D01*
X147601Y204409D01*
X147611Y204400D01*
X148637Y203374D01*
X148683Y203309D01*
X148701Y203253D01*
X148711Y203207D01*
Y203198D01*
Y203189D01*
X148701Y203096D01*
X148674Y203031D01*
X148628Y202985D01*
X148581Y202957D01*
X148535Y202939D01*
X148489Y202920D01*
X148452D01*
X148378Y202930D01*
X148313Y202957D01*
X148276Y202985D01*
X148267Y202994D01*
X147657Y203605D01*
Y199509D01*
X147647Y199426D01*
X147620Y199361D01*
X147573Y199315D01*
X147527Y199287D01*
X147481Y199268D01*
X147435Y199250D01*
X147398D01*
X147305Y199259D01*
X147241Y199287D01*
X147194Y199333D01*
X147167Y199379D01*
X147139Y199426D01*
X147130Y199472D01*
Y199500D01*
Y199509D01*
Y204233D01*
X147139Y204326D01*
X147167Y204391D01*
X147213Y204437D01*
X147259Y204464D01*
X147315Y204492D01*
X147352Y204501D01*
X147435D01*
X147481Y204483D01*
D02*
G37*
G36*
X179824Y204492D02*
X179889Y204464D01*
X179935Y204418D01*
X179963Y204372D01*
X179981Y204317D01*
X180000Y204280D01*
Y204243D01*
Y204233D01*
X179991Y204150D01*
X179963Y204085D01*
X179917Y204039D01*
X179871Y204011D01*
X179824Y203993D01*
X179778Y203974D01*
X178687D01*
Y199509D01*
X178678Y199426D01*
X178650Y199361D01*
X178604Y199315D01*
X178558Y199287D01*
X178512Y199268D01*
X178465Y199250D01*
X178428D01*
X178336Y199259D01*
X178271Y199287D01*
X178225Y199333D01*
X178197Y199379D01*
X178169Y199426D01*
X178160Y199472D01*
Y199500D01*
Y199509D01*
Y203974D01*
X177115D01*
X177023Y203984D01*
X176958Y204011D01*
X176912Y204058D01*
X176884Y204104D01*
X176856Y204150D01*
X176847Y204196D01*
Y204224D01*
Y204233D01*
X176856Y204326D01*
X176884Y204391D01*
X176931Y204437D01*
X176977Y204464D01*
X177032Y204492D01*
X177069Y204501D01*
X179741D01*
X179824Y204492D01*
D02*
G37*
G36*
X74824Y70242D02*
X74889Y70215D01*
X74935Y70168D01*
X74963Y70122D01*
X74981Y70067D01*
X75000Y70030D01*
Y69993D01*
Y69983D01*
X74991Y69900D01*
X74963Y69835D01*
X74917Y69789D01*
X74871Y69762D01*
X74824Y69743D01*
X74778Y69724D01*
X73687D01*
Y65259D01*
X73678Y65176D01*
X73650Y65111D01*
X73604Y65065D01*
X73558Y65037D01*
X73512Y65019D01*
X73465Y65000D01*
X73428D01*
X73336Y65009D01*
X73271Y65037D01*
X73225Y65083D01*
X73197Y65129D01*
X73169Y65176D01*
X73160Y65222D01*
Y65250D01*
Y65259D01*
Y69724D01*
X72115D01*
X72023Y69734D01*
X71958Y69762D01*
X71912Y69808D01*
X71884Y69854D01*
X71856Y69900D01*
X71847Y69946D01*
Y69974D01*
Y69983D01*
X71856Y70076D01*
X71884Y70141D01*
X71930Y70187D01*
X71977Y70215D01*
X72032Y70242D01*
X72069Y70251D01*
X74741D01*
X74824Y70242D01*
D02*
G37*
G36*
X174868Y106992D02*
X174932Y106965D01*
X174979Y106918D01*
X175006Y106872D01*
X175025Y106817D01*
X175043Y106780D01*
Y106743D01*
Y106733D01*
Y102009D01*
X175034Y101926D01*
X175006Y101861D01*
X174960Y101815D01*
X174914Y101787D01*
X174868Y101769D01*
X174821Y101750D01*
X174784D01*
X174692Y101759D01*
X174627Y101787D01*
X174581Y101833D01*
X174553Y101880D01*
X174526Y101926D01*
X174516Y101972D01*
Y102000D01*
Y102009D01*
Y103849D01*
X173472D01*
X173342Y103858D01*
X173222Y103867D01*
X173000Y103913D01*
X172806Y103987D01*
X172639Y104071D01*
X172510Y104145D01*
X172408Y104219D01*
X172381Y104246D01*
X172353Y104265D01*
X172344Y104283D01*
X172334D01*
X172260Y104367D01*
X172186Y104459D01*
X172075Y104644D01*
X172001Y104838D01*
X171946Y105014D01*
X171909Y105180D01*
X171900Y105245D01*
Y105300D01*
X171891Y105356D01*
Y105393D01*
Y105411D01*
Y105421D01*
X171900Y105541D01*
X171909Y105661D01*
X171964Y105873D01*
X172038Y106068D01*
X172122Y106225D01*
X172205Y106354D01*
X172242Y106410D01*
X172279Y106456D01*
X172306Y106493D01*
X172334Y106521D01*
X172344Y106530D01*
X172353Y106539D01*
X172445Y106622D01*
X172538Y106696D01*
X172630Y106752D01*
X172723Y106807D01*
X172908Y106891D01*
X173083Y106946D01*
X173240Y106974D01*
X173305Y106992D01*
X173361D01*
X173407Y107001D01*
X174784D01*
X174868Y106992D01*
D02*
G37*
G36*
X179074D02*
X179139Y106965D01*
X179185Y106918D01*
X179213Y106872D01*
X179231Y106817D01*
X179250Y106780D01*
Y106743D01*
Y106733D01*
X179241Y106650D01*
X179213Y106586D01*
X179167Y106539D01*
X179121Y106511D01*
X179074Y106493D01*
X179028Y106475D01*
X177937D01*
Y102009D01*
X177928Y101926D01*
X177900Y101861D01*
X177854Y101815D01*
X177808Y101787D01*
X177761Y101769D01*
X177715Y101750D01*
X177678D01*
X177586Y101759D01*
X177521Y101787D01*
X177475Y101833D01*
X177447Y101880D01*
X177419Y101926D01*
X177410Y101972D01*
Y102000D01*
Y102009D01*
Y106475D01*
X176365D01*
X176273Y106484D01*
X176208Y106511D01*
X176162Y106558D01*
X176134Y106604D01*
X176106Y106650D01*
X176097Y106696D01*
Y106724D01*
Y106733D01*
X176106Y106826D01*
X176134Y106891D01*
X176180Y106937D01*
X176227Y106965D01*
X176282Y106992D01*
X176319Y107001D01*
X178991D01*
X179074Y106992D01*
D02*
G37*
G36*
X170357Y204483D02*
X170422Y204455D01*
X170468Y204418D01*
X170477Y204409D01*
X170486Y204400D01*
X171513Y203374D01*
X171559Y203309D01*
X171577Y203253D01*
X171586Y203207D01*
Y203198D01*
Y203189D01*
X171577Y203096D01*
X171549Y203031D01*
X171503Y202985D01*
X171457Y202957D01*
X171411Y202939D01*
X171365Y202920D01*
X171328D01*
X171254Y202930D01*
X171189Y202957D01*
X171152Y202985D01*
X171143Y202994D01*
X170532Y203605D01*
Y199509D01*
X170523Y199426D01*
X170495Y199361D01*
X170449Y199315D01*
X170403Y199287D01*
X170357Y199268D01*
X170311Y199250D01*
X170274D01*
X170181Y199259D01*
X170116Y199287D01*
X170070Y199333D01*
X170042Y199379D01*
X170015Y199426D01*
X170005Y199472D01*
Y199500D01*
Y199509D01*
Y204233D01*
X170015Y204326D01*
X170042Y204391D01*
X170089Y204437D01*
X170135Y204464D01*
X170190Y204492D01*
X170227Y204501D01*
X170311D01*
X170357Y204483D01*
D02*
G37*
G36*
X65468Y70233D02*
X65653Y70187D01*
X65810Y70131D01*
X65949Y70057D01*
X66059Y69983D01*
X66133Y69928D01*
X66189Y69882D01*
X66207Y69863D01*
X66337Y69715D01*
X66429Y69558D01*
X66494Y69401D01*
X66540Y69253D01*
X66568Y69133D01*
X66577Y69031D01*
X66586Y68994D01*
Y68966D01*
Y68948D01*
Y68939D01*
X66577Y68818D01*
X66568Y68707D01*
X66503Y68495D01*
X66420Y68319D01*
X66328Y68162D01*
X66235Y68042D01*
X66152Y67959D01*
X66087Y67903D01*
X66078Y67894D01*
X66069Y67885D01*
X66161Y67811D01*
X66235Y67727D01*
X66309Y67644D01*
X66365Y67552D01*
X66457Y67376D01*
X66522Y67210D01*
X66559Y67062D01*
X66568Y66997D01*
X66577Y66942D01*
X66586Y66895D01*
Y66858D01*
Y66840D01*
Y66831D01*
Y66313D01*
X66568Y66119D01*
X66531Y65934D01*
X66466Y65777D01*
X66392Y65638D01*
X66328Y65527D01*
X66263Y65453D01*
X66226Y65398D01*
X66207Y65379D01*
X66059Y65250D01*
X65893Y65157D01*
X65745Y65093D01*
X65597Y65046D01*
X65468Y65019D01*
X65366Y65009D01*
X65329Y65000D01*
X65274D01*
X65079Y65019D01*
X64904Y65055D01*
X64747Y65120D01*
X64608Y65194D01*
X64497Y65259D01*
X64414Y65324D01*
X64368Y65361D01*
X64349Y65379D01*
X64220Y65527D01*
X64127Y65693D01*
X64053Y65841D01*
X64007Y65989D01*
X63979Y66119D01*
X63970Y66220D01*
X63961Y66257D01*
Y66285D01*
Y66304D01*
Y66313D01*
Y66433D01*
Y66535D01*
X63970Y66637D01*
Y66729D01*
X63979Y66877D01*
X63988Y66997D01*
X63998Y67080D01*
X64007Y67136D01*
X64016Y67173D01*
Y67182D01*
X64062Y67330D01*
X64127Y67469D01*
X64201Y67589D01*
X64284Y67691D01*
X64358Y67774D01*
X64423Y67829D01*
X64469Y67875D01*
X64488Y67885D01*
X64395Y67959D01*
X64312Y68042D01*
X64247Y68134D01*
X64183Y68218D01*
X64127Y68310D01*
X64090Y68393D01*
X64026Y68560D01*
X63988Y68707D01*
X63979Y68772D01*
X63970Y68828D01*
X63961Y68874D01*
Y68911D01*
Y68929D01*
Y68939D01*
X63979Y69133D01*
X64026Y69308D01*
X64081Y69466D01*
X64155Y69604D01*
X64229Y69715D01*
X64284Y69798D01*
X64331Y69845D01*
X64349Y69863D01*
X64497Y69993D01*
X64654Y70085D01*
X64811Y70159D01*
X64959Y70205D01*
X65079Y70233D01*
X65181Y70242D01*
X65218Y70251D01*
X65274D01*
X65468Y70233D01*
D02*
G37*
G36*
X70618Y70242D02*
X70682Y70215D01*
X70729Y70168D01*
X70756Y70122D01*
X70775Y70067D01*
X70793Y70030D01*
Y69993D01*
Y69983D01*
Y65259D01*
X70784Y65176D01*
X70756Y65111D01*
X70710Y65065D01*
X70664Y65037D01*
X70618Y65019D01*
X70571Y65000D01*
X70534D01*
X70442Y65009D01*
X70377Y65037D01*
X70331Y65083D01*
X70303Y65129D01*
X70276Y65176D01*
X70266Y65222D01*
Y65250D01*
Y65259D01*
Y67099D01*
X69222D01*
X69092Y67108D01*
X68972Y67117D01*
X68750Y67164D01*
X68556Y67237D01*
X68389Y67321D01*
X68260Y67395D01*
X68158Y67469D01*
X68130Y67496D01*
X68103Y67515D01*
X68094Y67533D01*
X68084D01*
X68010Y67617D01*
X67936Y67709D01*
X67825Y67894D01*
X67751Y68088D01*
X67696Y68264D01*
X67659Y68430D01*
X67650Y68495D01*
Y68550D01*
X67641Y68606D01*
Y68643D01*
Y68661D01*
Y68671D01*
X67650Y68791D01*
X67659Y68911D01*
X67715Y69124D01*
X67788Y69318D01*
X67872Y69475D01*
X67955Y69604D01*
X67992Y69660D01*
X68029Y69706D01*
X68057Y69743D01*
X68084Y69771D01*
X68094Y69780D01*
X68103Y69789D01*
X68195Y69872D01*
X68288Y69946D01*
X68380Y70002D01*
X68473Y70057D01*
X68657Y70141D01*
X68833Y70196D01*
X68990Y70224D01*
X69055Y70242D01*
X69111D01*
X69157Y70251D01*
X70534D01*
X70618Y70242D01*
D02*
G37*
G36*
X127296Y204742D02*
X127435Y204715D01*
X127564Y204668D01*
X127693Y204604D01*
X127804Y204530D01*
X127906Y204456D01*
X128008Y204372D01*
X128100Y204280D01*
X128174Y204197D01*
X128248Y204104D01*
X128304Y204030D01*
X128350Y203956D01*
X128396Y203892D01*
X128424Y203845D01*
X128433Y203818D01*
X128442Y203808D01*
X128461Y203734D01*
Y203707D01*
Y203697D01*
X128451Y203614D01*
X128424Y203550D01*
X128378Y203503D01*
X128331Y203476D01*
X128285Y203457D01*
X128239Y203439D01*
X128202D01*
X128146Y203448D01*
X128100Y203457D01*
X128035Y203503D01*
X127989Y203550D01*
X127980Y203559D01*
Y203568D01*
X127906Y203688D01*
X127832Y203781D01*
X127767Y203873D01*
X127693Y203947D01*
X127619Y204012D01*
X127555Y204067D01*
X127490Y204104D01*
X127425Y204141D01*
X127314Y204188D01*
X127231Y204215D01*
X127176Y204224D01*
X127157D01*
X127037Y204215D01*
X126926Y204188D01*
X126833Y204151D01*
X126750Y204114D01*
X126686Y204067D01*
X126630Y204030D01*
X126602Y204003D01*
X126593Y203993D01*
X126519Y203901D01*
X126464Y203808D01*
X126418Y203716D01*
X126390Y203633D01*
X126371Y203550D01*
X126362Y203494D01*
Y203457D01*
Y203439D01*
X126371Y203355D01*
X126381Y203281D01*
X126399Y203207D01*
X126427Y203143D01*
X126454Y203087D01*
X126473Y203041D01*
X126482Y203013D01*
X126491Y203004D01*
X128424Y199907D01*
X128442Y199861D01*
X128451Y199805D01*
X128461Y199777D01*
Y199759D01*
X128451Y199676D01*
X128424Y199611D01*
X128378Y199565D01*
X128331Y199537D01*
X128285Y199519D01*
X128239Y199500D01*
X126103D01*
X126011Y199509D01*
X125946Y199537D01*
X125900Y199583D01*
X125872Y199629D01*
X125844Y199676D01*
X125835Y199722D01*
Y199750D01*
Y199759D01*
X125844Y199851D01*
X125872Y199916D01*
X125918Y199962D01*
X125964Y199990D01*
X126020Y200018D01*
X126057Y200027D01*
X127730D01*
X126075Y202680D01*
X125992Y202819D01*
X125937Y202958D01*
X125891Y203087D01*
X125863Y203198D01*
X125844Y203300D01*
X125835Y203374D01*
Y203420D01*
Y203439D01*
X125854Y203633D01*
X125900Y203808D01*
X125955Y203966D01*
X126029Y204104D01*
X126103Y204215D01*
X126159Y204298D01*
X126205Y204345D01*
X126223Y204363D01*
X126371Y204493D01*
X126528Y204585D01*
X126686Y204659D01*
X126833Y204705D01*
X126954Y204733D01*
X127055Y204742D01*
X127092Y204751D01*
X127148D01*
X127296Y204742D01*
D02*
G37*
G36*
X113326Y71492D02*
X113446Y71455D01*
X113566Y71409D01*
X113677Y71344D01*
X113770Y71270D01*
X113862Y71187D01*
X114010Y71002D01*
X114130Y70817D01*
X114176Y70734D01*
X114213Y70660D01*
X114241Y70595D01*
X114260Y70549D01*
X114278Y70512D01*
Y70503D01*
X114352Y70235D01*
X114408Y69957D01*
X114445Y69680D01*
X114472Y69430D01*
X114481Y69310D01*
X114491Y69209D01*
Y69116D01*
X114500Y69033D01*
Y68968D01*
Y68922D01*
Y68885D01*
Y68876D01*
X114491Y68534D01*
X114463Y68229D01*
X114445Y68081D01*
X114426Y67951D01*
X114408Y67822D01*
X114389Y67711D01*
X114371Y67609D01*
X114352Y67517D01*
X114334Y67433D01*
X114315Y67369D01*
X114297Y67323D01*
X114287Y67276D01*
X114278Y67258D01*
Y67249D01*
X114213Y67073D01*
X114130Y66916D01*
X114047Y66786D01*
X113964Y66675D01*
X113871Y66574D01*
X113779Y66490D01*
X113696Y66426D01*
X113603Y66379D01*
X113520Y66333D01*
X113446Y66305D01*
X113372Y66278D01*
X113307Y66269D01*
X113261Y66259D01*
X113224Y66250D01*
X113187D01*
X113048Y66259D01*
X112928Y66296D01*
X112808Y66343D01*
X112706Y66407D01*
X112605Y66481D01*
X112521Y66564D01*
X112364Y66749D01*
X112253Y66934D01*
X112207Y67017D01*
X112170Y67091D01*
X112142Y67156D01*
X112124Y67202D01*
X112105Y67239D01*
Y67249D01*
X112031Y67517D01*
X111976Y67794D01*
X111930Y68062D01*
X111902Y68321D01*
X111893Y68432D01*
X111883Y68543D01*
Y68635D01*
X111874Y68719D01*
Y68783D01*
Y68839D01*
Y68867D01*
Y68876D01*
X111883Y69218D01*
X111911Y69523D01*
X111930Y69662D01*
X111948Y69800D01*
X111967Y69921D01*
X111985Y70031D01*
X112013Y70133D01*
X112031Y70226D01*
X112050Y70309D01*
X112068Y70374D01*
X112087Y70429D01*
X112096Y70466D01*
X112105Y70484D01*
Y70494D01*
X112170Y70669D01*
X112253Y70827D01*
X112337Y70965D01*
X112420Y71076D01*
X112512Y71178D01*
X112595Y71252D01*
X112688Y71326D01*
X112771Y71372D01*
X112854Y71418D01*
X112937Y71446D01*
X113002Y71474D01*
X113067Y71483D01*
X113113Y71492D01*
X113150Y71501D01*
X113187D01*
X113326Y71492D01*
D02*
G37*
G36*
X166826Y71242D02*
X166946Y71205D01*
X167066Y71159D01*
X167177Y71094D01*
X167270Y71020D01*
X167362Y70937D01*
X167510Y70752D01*
X167630Y70567D01*
X167676Y70484D01*
X167713Y70410D01*
X167741Y70345D01*
X167760Y70299D01*
X167778Y70262D01*
Y70253D01*
X167852Y69985D01*
X167908Y69707D01*
X167945Y69430D01*
X167972Y69180D01*
X167981Y69060D01*
X167991Y68959D01*
Y68866D01*
X168000Y68783D01*
Y68718D01*
Y68672D01*
Y68635D01*
Y68626D01*
X167991Y68284D01*
X167963Y67979D01*
X167945Y67831D01*
X167926Y67701D01*
X167908Y67572D01*
X167889Y67461D01*
X167871Y67359D01*
X167852Y67267D01*
X167834Y67183D01*
X167815Y67119D01*
X167797Y67073D01*
X167787Y67026D01*
X167778Y67008D01*
Y66999D01*
X167713Y66823D01*
X167630Y66666D01*
X167547Y66536D01*
X167464Y66425D01*
X167371Y66324D01*
X167279Y66240D01*
X167196Y66176D01*
X167103Y66129D01*
X167020Y66083D01*
X166946Y66055D01*
X166872Y66028D01*
X166807Y66019D01*
X166761Y66009D01*
X166724Y66000D01*
X166687D01*
X166548Y66009D01*
X166428Y66046D01*
X166308Y66093D01*
X166206Y66157D01*
X166105Y66231D01*
X166021Y66314D01*
X165864Y66499D01*
X165753Y66684D01*
X165707Y66767D01*
X165670Y66841D01*
X165642Y66906D01*
X165624Y66952D01*
X165605Y66989D01*
Y66999D01*
X165531Y67267D01*
X165476Y67544D01*
X165430Y67812D01*
X165402Y68071D01*
X165393Y68182D01*
X165383Y68293D01*
Y68385D01*
X165374Y68469D01*
Y68533D01*
Y68589D01*
Y68616D01*
Y68626D01*
X165383Y68968D01*
X165411Y69273D01*
X165430Y69412D01*
X165448Y69550D01*
X165467Y69671D01*
X165485Y69781D01*
X165513Y69883D01*
X165531Y69976D01*
X165550Y70059D01*
X165568Y70124D01*
X165587Y70179D01*
X165596Y70216D01*
X165605Y70234D01*
Y70244D01*
X165670Y70419D01*
X165753Y70577D01*
X165837Y70715D01*
X165920Y70826D01*
X166012Y70928D01*
X166095Y71002D01*
X166188Y71076D01*
X166271Y71122D01*
X166354Y71168D01*
X166437Y71196D01*
X166502Y71224D01*
X166567Y71233D01*
X166613Y71242D01*
X166650Y71252D01*
X166687D01*
X166826Y71242D01*
D02*
G37*
G36*
X152520Y71483D02*
X152585Y71455D01*
X152631Y71418D01*
X152640Y71409D01*
X152650Y71400D01*
X153676Y70374D01*
X153722Y70309D01*
X153741Y70253D01*
X153750Y70207D01*
Y70198D01*
Y70189D01*
X153741Y70096D01*
X153713Y70031D01*
X153667Y69985D01*
X153621Y69957D01*
X153574Y69939D01*
X153528Y69921D01*
X153491D01*
X153417Y69930D01*
X153352Y69957D01*
X153315Y69985D01*
X153306Y69995D01*
X152696Y70605D01*
Y66509D01*
X152687Y66426D01*
X152659Y66361D01*
X152613Y66315D01*
X152567Y66287D01*
X152520Y66269D01*
X152474Y66250D01*
X152437D01*
X152345Y66259D01*
X152280Y66287D01*
X152234Y66333D01*
X152206Y66379D01*
X152178Y66426D01*
X152169Y66472D01*
Y66500D01*
Y66509D01*
Y71233D01*
X152178Y71326D01*
X152206Y71391D01*
X152252Y71437D01*
X152298Y71465D01*
X152354Y71492D01*
X152391Y71501D01*
X152474D01*
X152520Y71483D01*
D02*
G37*
G36*
X15076Y176742D02*
X15196Y176705D01*
X15316Y176659D01*
X15427Y176594D01*
X15520Y176520D01*
X15612Y176437D01*
X15760Y176252D01*
X15880Y176067D01*
X15926Y175984D01*
X15963Y175910D01*
X15991Y175845D01*
X16010Y175799D01*
X16028Y175762D01*
Y175753D01*
X16102Y175485D01*
X16157Y175208D01*
X16194Y174930D01*
X16222Y174681D01*
X16231Y174560D01*
X16241Y174459D01*
Y174366D01*
X16250Y174283D01*
Y174218D01*
Y174172D01*
Y174135D01*
Y174126D01*
X16241Y173784D01*
X16213Y173479D01*
X16194Y173331D01*
X16176Y173201D01*
X16157Y173072D01*
X16139Y172961D01*
X16121Y172859D01*
X16102Y172767D01*
X16084Y172683D01*
X16065Y172619D01*
X16047Y172572D01*
X16037Y172526D01*
X16028Y172508D01*
Y172498D01*
X15963Y172323D01*
X15880Y172166D01*
X15797Y172036D01*
X15714Y171925D01*
X15621Y171824D01*
X15529Y171740D01*
X15446Y171676D01*
X15353Y171630D01*
X15270Y171583D01*
X15196Y171556D01*
X15122Y171528D01*
X15057Y171518D01*
X15011Y171509D01*
X14974Y171500D01*
X14937D01*
X14798Y171509D01*
X14678Y171546D01*
X14558Y171593D01*
X14456Y171657D01*
X14355Y171731D01*
X14271Y171814D01*
X14114Y171999D01*
X14003Y172184D01*
X13957Y172267D01*
X13920Y172341D01*
X13892Y172406D01*
X13874Y172452D01*
X13855Y172489D01*
Y172498D01*
X13781Y172767D01*
X13726Y173044D01*
X13680Y173312D01*
X13652Y173571D01*
X13643Y173682D01*
X13634Y173793D01*
Y173885D01*
X13624Y173969D01*
Y174033D01*
Y174089D01*
Y174116D01*
Y174126D01*
X13634Y174468D01*
X13661Y174773D01*
X13680Y174912D01*
X13698Y175050D01*
X13717Y175170D01*
X13735Y175282D01*
X13763Y175383D01*
X13781Y175476D01*
X13800Y175559D01*
X13818Y175624D01*
X13837Y175679D01*
X13846Y175716D01*
X13855Y175735D01*
Y175744D01*
X13920Y175919D01*
X14003Y176077D01*
X14087Y176215D01*
X14170Y176326D01*
X14262Y176428D01*
X14345Y176502D01*
X14438Y176576D01*
X14521Y176622D01*
X14604Y176668D01*
X14688Y176696D01*
X14752Y176724D01*
X14817Y176733D01*
X14863Y176742D01*
X14900Y176751D01*
X14937D01*
X15076Y176742D01*
D02*
G37*
G36*
X29020Y176733D02*
X29085Y176705D01*
X29131Y176668D01*
X29141Y176659D01*
X29150Y176650D01*
X30176Y175624D01*
X30222Y175559D01*
X30241Y175503D01*
X30250Y175457D01*
Y175448D01*
Y175439D01*
X30241Y175346D01*
X30213Y175282D01*
X30167Y175235D01*
X30121Y175208D01*
X30074Y175189D01*
X30028Y175170D01*
X29991D01*
X29917Y175180D01*
X29852Y175208D01*
X29815Y175235D01*
X29806Y175245D01*
X29196Y175855D01*
Y171759D01*
X29187Y171676D01*
X29159Y171611D01*
X29113Y171565D01*
X29067Y171537D01*
X29020Y171518D01*
X28974Y171500D01*
X28937D01*
X28845Y171509D01*
X28780Y171537D01*
X28734Y171583D01*
X28706Y171630D01*
X28678Y171676D01*
X28669Y171722D01*
Y171750D01*
Y171759D01*
Y176483D01*
X28678Y176576D01*
X28706Y176641D01*
X28752Y176687D01*
X28798Y176714D01*
X28854Y176742D01*
X28891Y176751D01*
X28974D01*
X29020Y176733D01*
D02*
G37*
G36*
X99520Y71483D02*
X99585Y71455D01*
X99631Y71418D01*
X99641Y71409D01*
X99650Y71400D01*
X100676Y70374D01*
X100722Y70309D01*
X100741Y70253D01*
X100750Y70207D01*
Y70198D01*
Y70189D01*
X100741Y70096D01*
X100713Y70031D01*
X100667Y69985D01*
X100621Y69957D01*
X100574Y69939D01*
X100528Y69921D01*
X100491D01*
X100417Y69930D01*
X100352Y69957D01*
X100315Y69985D01*
X100306Y69995D01*
X99696Y70605D01*
Y66509D01*
X99687Y66426D01*
X99659Y66361D01*
X99613Y66315D01*
X99567Y66287D01*
X99520Y66269D01*
X99474Y66250D01*
X99437D01*
X99345Y66259D01*
X99280Y66287D01*
X99234Y66333D01*
X99206Y66379D01*
X99178Y66426D01*
X99169Y66472D01*
Y66500D01*
Y66509D01*
Y71233D01*
X99178Y71326D01*
X99206Y71391D01*
X99252Y71437D01*
X99298Y71465D01*
X99354Y71492D01*
X99391Y71501D01*
X99474D01*
X99520Y71483D01*
D02*
G37*
G36*
X188576Y87242D02*
X188696Y87205D01*
X188816Y87159D01*
X188927Y87094D01*
X189020Y87020D01*
X189112Y86937D01*
X189260Y86752D01*
X189380Y86567D01*
X189426Y86484D01*
X189463Y86410D01*
X189491Y86345D01*
X189510Y86299D01*
X189528Y86262D01*
Y86253D01*
X189602Y85985D01*
X189657Y85708D01*
X189694Y85430D01*
X189722Y85181D01*
X189732Y85060D01*
X189741Y84959D01*
Y84866D01*
X189750Y84783D01*
Y84718D01*
Y84672D01*
Y84635D01*
Y84626D01*
X189741Y84284D01*
X189713Y83979D01*
X189694Y83831D01*
X189676Y83701D01*
X189657Y83572D01*
X189639Y83461D01*
X189621Y83359D01*
X189602Y83267D01*
X189584Y83183D01*
X189565Y83119D01*
X189547Y83073D01*
X189537Y83026D01*
X189528Y83008D01*
Y82999D01*
X189463Y82823D01*
X189380Y82666D01*
X189297Y82536D01*
X189214Y82425D01*
X189121Y82324D01*
X189029Y82240D01*
X188946Y82176D01*
X188853Y82129D01*
X188770Y82083D01*
X188696Y82056D01*
X188622Y82028D01*
X188557Y82018D01*
X188511Y82009D01*
X188474Y82000D01*
X188437D01*
X188298Y82009D01*
X188178Y82046D01*
X188058Y82092D01*
X187956Y82157D01*
X187855Y82231D01*
X187771Y82314D01*
X187614Y82499D01*
X187503Y82684D01*
X187457Y82767D01*
X187420Y82841D01*
X187392Y82906D01*
X187374Y82952D01*
X187355Y82989D01*
Y82999D01*
X187281Y83267D01*
X187226Y83544D01*
X187180Y83812D01*
X187152Y84071D01*
X187143Y84182D01*
X187134Y84293D01*
Y84385D01*
X187124Y84469D01*
Y84533D01*
Y84589D01*
Y84616D01*
Y84626D01*
X187134Y84968D01*
X187161Y85273D01*
X187180Y85412D01*
X187198Y85550D01*
X187217Y85670D01*
X187235Y85781D01*
X187263Y85883D01*
X187281Y85976D01*
X187300Y86059D01*
X187318Y86124D01*
X187337Y86179D01*
X187346Y86216D01*
X187355Y86235D01*
Y86244D01*
X187420Y86419D01*
X187503Y86577D01*
X187586Y86715D01*
X187670Y86826D01*
X187762Y86928D01*
X187845Y87002D01*
X187938Y87076D01*
X188021Y87122D01*
X188104Y87168D01*
X188188Y87196D01*
X188252Y87224D01*
X188317Y87233D01*
X188363Y87242D01*
X188400Y87252D01*
X188437D01*
X188576Y87242D01*
D02*
G37*
G36*
X135118Y204742D02*
X135182Y204715D01*
X135229Y204668D01*
X135256Y204622D01*
X135275Y204567D01*
X135293Y204530D01*
Y204493D01*
Y204483D01*
Y199759D01*
X135284Y199676D01*
X135256Y199611D01*
X135210Y199565D01*
X135164Y199537D01*
X135118Y199519D01*
X135071Y199500D01*
X135034D01*
X134942Y199509D01*
X134877Y199537D01*
X134831Y199583D01*
X134803Y199629D01*
X134775Y199676D01*
X134766Y199722D01*
Y199750D01*
Y199759D01*
Y201599D01*
X133722D01*
X133592Y201608D01*
X133472Y201617D01*
X133250Y201663D01*
X133056Y201737D01*
X132889Y201821D01*
X132760Y201895D01*
X132658Y201969D01*
X132631Y201996D01*
X132603Y202015D01*
X132593Y202033D01*
X132584D01*
X132510Y202117D01*
X132436Y202209D01*
X132325Y202394D01*
X132251Y202588D01*
X132196Y202764D01*
X132159Y202930D01*
X132150Y202995D01*
Y203050D01*
X132141Y203106D01*
Y203143D01*
Y203161D01*
Y203171D01*
X132150Y203291D01*
X132159Y203411D01*
X132214Y203624D01*
X132288Y203818D01*
X132372Y203975D01*
X132455Y204104D01*
X132492Y204160D01*
X132529Y204206D01*
X132557Y204243D01*
X132584Y204271D01*
X132593Y204280D01*
X132603Y204289D01*
X132695Y204372D01*
X132788Y204446D01*
X132880Y204502D01*
X132973Y204557D01*
X133158Y204641D01*
X133333Y204696D01*
X133490Y204724D01*
X133555Y204742D01*
X133611D01*
X133657Y204751D01*
X135034D01*
X135118Y204742D01*
D02*
G37*
G36*
X139324D02*
X139389Y204715D01*
X139435Y204668D01*
X139463Y204622D01*
X139481Y204567D01*
X139500Y204530D01*
Y204493D01*
Y204483D01*
X139491Y204400D01*
X139463Y204335D01*
X139417Y204289D01*
X139371Y204261D01*
X139324Y204243D01*
X139278Y204224D01*
X138187D01*
Y199759D01*
X138178Y199676D01*
X138150Y199611D01*
X138104Y199565D01*
X138058Y199537D01*
X138012Y199519D01*
X137965Y199500D01*
X137928D01*
X137836Y199509D01*
X137771Y199537D01*
X137725Y199583D01*
X137697Y199629D01*
X137669Y199676D01*
X137660Y199722D01*
Y199750D01*
Y199759D01*
Y204224D01*
X136615D01*
X136523Y204234D01*
X136458Y204261D01*
X136412Y204308D01*
X136384Y204354D01*
X136356Y204400D01*
X136347Y204446D01*
Y204474D01*
Y204483D01*
X136356Y204576D01*
X136384Y204641D01*
X136431Y204687D01*
X136477Y204715D01*
X136532Y204742D01*
X136569Y204751D01*
X139241D01*
X139324Y204742D01*
D02*
G37*
G36*
X129857Y204733D02*
X129922Y204705D01*
X129968Y204668D01*
X129977Y204659D01*
X129986Y204650D01*
X131012Y203624D01*
X131059Y203559D01*
X131077Y203503D01*
X131087Y203457D01*
Y203448D01*
Y203439D01*
X131077Y203346D01*
X131049Y203281D01*
X131003Y203235D01*
X130957Y203207D01*
X130911Y203189D01*
X130865Y203171D01*
X130828D01*
X130754Y203180D01*
X130689Y203207D01*
X130652Y203235D01*
X130643Y203244D01*
X130033Y203855D01*
Y199759D01*
X130023Y199676D01*
X129995Y199611D01*
X129949Y199565D01*
X129903Y199537D01*
X129857Y199519D01*
X129811Y199500D01*
X129774D01*
X129681Y199509D01*
X129616Y199537D01*
X129570Y199583D01*
X129543Y199629D01*
X129515Y199676D01*
X129506Y199722D01*
Y199750D01*
Y199759D01*
Y204483D01*
X129515Y204576D01*
X129543Y204641D01*
X129589Y204687D01*
X129635Y204715D01*
X129690Y204742D01*
X129727Y204751D01*
X129811D01*
X129857Y204733D01*
D02*
G37*
G36*
X201770Y87233D02*
X201835Y87205D01*
X201881Y87168D01*
X201891Y87159D01*
X201900Y87150D01*
X202926Y86124D01*
X202972Y86059D01*
X202991Y86003D01*
X203000Y85957D01*
Y85948D01*
Y85939D01*
X202991Y85846D01*
X202963Y85781D01*
X202917Y85735D01*
X202871Y85708D01*
X202824Y85689D01*
X202778Y85670D01*
X202741D01*
X202667Y85680D01*
X202602Y85708D01*
X202565Y85735D01*
X202556Y85744D01*
X201946Y86355D01*
Y82259D01*
X201937Y82176D01*
X201909Y82111D01*
X201863Y82065D01*
X201817Y82037D01*
X201770Y82018D01*
X201724Y82000D01*
X201687D01*
X201595Y82009D01*
X201530Y82037D01*
X201484Y82083D01*
X201456Y82129D01*
X201428Y82176D01*
X201419Y82222D01*
Y82250D01*
Y82259D01*
Y86983D01*
X201428Y87076D01*
X201456Y87141D01*
X201502Y87187D01*
X201548Y87214D01*
X201604Y87242D01*
X201641Y87252D01*
X201724D01*
X201770Y87233D01*
D02*
G37*
G36*
X188076Y133992D02*
X188196Y133955D01*
X188316Y133909D01*
X188427Y133844D01*
X188520Y133770D01*
X188612Y133687D01*
X188760Y133502D01*
X188880Y133317D01*
X188926Y133234D01*
X188963Y133160D01*
X188991Y133095D01*
X189010Y133049D01*
X189028Y133012D01*
Y133003D01*
X189102Y132735D01*
X189158Y132458D01*
X189195Y132180D01*
X189222Y131931D01*
X189231Y131810D01*
X189241Y131709D01*
Y131616D01*
X189250Y131533D01*
Y131468D01*
Y131422D01*
Y131385D01*
Y131376D01*
X189241Y131034D01*
X189213Y130729D01*
X189195Y130581D01*
X189176Y130451D01*
X189158Y130322D01*
X189139Y130211D01*
X189121Y130109D01*
X189102Y130017D01*
X189084Y129933D01*
X189065Y129869D01*
X189047Y129823D01*
X189037Y129776D01*
X189028Y129758D01*
Y129748D01*
X188963Y129573D01*
X188880Y129416D01*
X188797Y129286D01*
X188714Y129175D01*
X188621Y129074D01*
X188529Y128990D01*
X188446Y128926D01*
X188353Y128879D01*
X188270Y128833D01*
X188196Y128806D01*
X188122Y128778D01*
X188057Y128769D01*
X188011Y128759D01*
X187974Y128750D01*
X187937D01*
X187798Y128759D01*
X187678Y128796D01*
X187558Y128842D01*
X187456Y128907D01*
X187355Y128981D01*
X187271Y129064D01*
X187114Y129249D01*
X187003Y129434D01*
X186957Y129517D01*
X186920Y129591D01*
X186892Y129656D01*
X186874Y129702D01*
X186855Y129739D01*
Y129748D01*
X186781Y130017D01*
X186726Y130294D01*
X186680Y130562D01*
X186652Y130821D01*
X186643Y130932D01*
X186633Y131043D01*
Y131135D01*
X186624Y131219D01*
Y131283D01*
Y131339D01*
Y131367D01*
Y131376D01*
X186633Y131718D01*
X186661Y132023D01*
X186680Y132162D01*
X186698Y132300D01*
X186717Y132421D01*
X186735Y132531D01*
X186763Y132633D01*
X186781Y132726D01*
X186800Y132809D01*
X186818Y132873D01*
X186837Y132929D01*
X186846Y132966D01*
X186855Y132985D01*
Y132994D01*
X186920Y133169D01*
X187003Y133327D01*
X187087Y133465D01*
X187170Y133576D01*
X187262Y133678D01*
X187345Y133752D01*
X187438Y133826D01*
X187521Y133872D01*
X187604Y133918D01*
X187687Y133946D01*
X187752Y133974D01*
X187817Y133983D01*
X187863Y133992D01*
X187900Y134002D01*
X187937D01*
X188076Y133992D01*
D02*
G37*
G36*
X201270Y133983D02*
X201335Y133955D01*
X201381Y133918D01*
X201390Y133909D01*
X201400Y133900D01*
X202426Y132873D01*
X202472Y132809D01*
X202491Y132753D01*
X202500Y132707D01*
Y132698D01*
Y132689D01*
X202491Y132596D01*
X202463Y132531D01*
X202417Y132485D01*
X202371Y132458D01*
X202324Y132439D01*
X202278Y132421D01*
X202241D01*
X202167Y132430D01*
X202102Y132458D01*
X202066Y132485D01*
X202056Y132494D01*
X201446Y133105D01*
Y129009D01*
X201437Y128926D01*
X201409Y128861D01*
X201363Y128815D01*
X201317Y128787D01*
X201270Y128769D01*
X201224Y128750D01*
X201187D01*
X201095Y128759D01*
X201030Y128787D01*
X200984Y128833D01*
X200956Y128879D01*
X200928Y128926D01*
X200919Y128972D01*
Y129000D01*
Y129009D01*
Y133733D01*
X200928Y133826D01*
X200956Y133891D01*
X201002Y133937D01*
X201048Y133965D01*
X201104Y133992D01*
X201141Y134002D01*
X201224D01*
X201270Y133983D01*
D02*
G37*
G36*
X169588Y106992D02*
X169653Y106974D01*
X169690Y106937D01*
X169727Y106909D01*
X169755Y106872D01*
X169773Y106835D01*
X169783Y106817D01*
Y106807D01*
X170837Y103137D01*
Y103091D01*
Y103072D01*
Y103063D01*
X170827Y102980D01*
X170800Y102915D01*
X170753Y102869D01*
X170707Y102841D01*
X170661Y102823D01*
X170615Y102804D01*
X168997D01*
Y102009D01*
X168987Y101926D01*
X168960Y101861D01*
X168913Y101815D01*
X168867Y101787D01*
X168821Y101769D01*
X168775Y101750D01*
X168738D01*
X168645Y101759D01*
X168581Y101787D01*
X168534Y101833D01*
X168507Y101880D01*
X168479Y101926D01*
X168470Y101972D01*
Y102000D01*
Y102009D01*
Y102804D01*
X167952D01*
X167859Y102813D01*
X167795Y102841D01*
X167749Y102887D01*
X167721Y102933D01*
X167693Y102980D01*
X167684Y103026D01*
Y103054D01*
Y103063D01*
X167693Y103155D01*
X167721Y103220D01*
X167767Y103266D01*
X167813Y103294D01*
X167869Y103322D01*
X167906Y103331D01*
X168470D01*
Y104117D01*
X168479Y104209D01*
X168507Y104274D01*
X168553Y104320D01*
X168599Y104348D01*
X168654Y104376D01*
X168692Y104385D01*
X168738D01*
X168821Y104376D01*
X168886Y104348D01*
X168932Y104302D01*
X168960Y104256D01*
X168978Y104200D01*
X168997Y104163D01*
Y104126D01*
Y104117D01*
Y103331D01*
X170226D01*
X169274Y106659D01*
X169265Y106715D01*
Y106724D01*
Y106733D01*
X169274Y106826D01*
X169302Y106891D01*
X169348Y106937D01*
X169394Y106965D01*
X169440Y106992D01*
X169487Y107001D01*
X169524D01*
X169588Y106992D01*
D02*
G37*
G36*
X40172Y121992D02*
X40236Y121965D01*
X40283Y121918D01*
X40310Y121872D01*
X40329Y121817D01*
X40347Y121780D01*
Y121743D01*
Y121733D01*
Y119635D01*
X40338Y119551D01*
X40310Y119487D01*
X40264Y119440D01*
X40218Y119413D01*
X40172Y119394D01*
X40125Y119376D01*
X39034D01*
X38914Y119367D01*
X38812Y119339D01*
X38720Y119302D01*
X38637Y119265D01*
X38572Y119219D01*
X38517Y119182D01*
X38489Y119154D01*
X38480Y119145D01*
X38406Y119052D01*
X38350Y118960D01*
X38304Y118867D01*
X38276Y118775D01*
X38258Y118701D01*
X38249Y118636D01*
Y118599D01*
Y118581D01*
Y118063D01*
X38258Y117943D01*
X38286Y117832D01*
X38323Y117739D01*
X38359Y117656D01*
X38406Y117591D01*
X38443Y117545D01*
X38470Y117508D01*
X38480Y117499D01*
X38572Y117425D01*
X38665Y117369D01*
X38757Y117332D01*
X38840Y117305D01*
X38923Y117286D01*
X38979Y117277D01*
X40088D01*
X40172Y117268D01*
X40236Y117240D01*
X40283Y117194D01*
X40310Y117148D01*
X40329Y117092D01*
X40347Y117055D01*
Y117018D01*
Y117009D01*
X40338Y116926D01*
X40310Y116861D01*
X40264Y116815D01*
X40218Y116787D01*
X40172Y116769D01*
X40125Y116750D01*
X39034D01*
X38840Y116769D01*
X38665Y116805D01*
X38507Y116870D01*
X38369Y116944D01*
X38258Y117009D01*
X38175Y117074D01*
X38128Y117111D01*
X38110Y117129D01*
X37980Y117277D01*
X37888Y117443D01*
X37814Y117591D01*
X37768Y117739D01*
X37740Y117869D01*
X37731Y117970D01*
X37722Y118007D01*
Y118035D01*
Y118054D01*
Y118063D01*
Y118581D01*
X37740Y118775D01*
X37786Y118960D01*
X37842Y119117D01*
X37916Y119256D01*
X37990Y119367D01*
X38045Y119450D01*
X38091Y119496D01*
X38110Y119514D01*
X38258Y119644D01*
X38415Y119736D01*
X38572Y119810D01*
X38711Y119857D01*
X38840Y119884D01*
X38942Y119894D01*
X38979Y119903D01*
X39820D01*
Y121475D01*
X38249D01*
X38156Y121484D01*
X38091Y121511D01*
X38045Y121558D01*
X38017Y121604D01*
X37990Y121650D01*
X37980Y121696D01*
Y121724D01*
Y121733D01*
X37990Y121826D01*
X38017Y121891D01*
X38064Y121937D01*
X38110Y121965D01*
X38165Y121992D01*
X38202Y122001D01*
X40088D01*
X40172Y121992D01*
D02*
G37*
G36*
X41753D02*
X41817Y121965D01*
X41863Y121918D01*
X41891Y121872D01*
X41910Y121817D01*
X41928Y121780D01*
Y121743D01*
Y121733D01*
Y118063D01*
X41937Y117943D01*
X41965Y117832D01*
X42002Y117739D01*
X42039Y117656D01*
X42085Y117591D01*
X42122Y117545D01*
X42150Y117508D01*
X42159Y117499D01*
X42252Y117425D01*
X42344Y117369D01*
X42437Y117332D01*
X42520Y117305D01*
X42603Y117286D01*
X42659Y117277D01*
X43241D01*
X43324Y117268D01*
X43389Y117240D01*
X43435Y117194D01*
X43463Y117148D01*
X43481Y117092D01*
X43500Y117055D01*
Y117018D01*
Y117009D01*
X43491Y116926D01*
X43463Y116861D01*
X43417Y116815D01*
X43371Y116787D01*
X43324Y116769D01*
X43278Y116750D01*
X42714D01*
X42520Y116769D01*
X42335Y116805D01*
X42178Y116870D01*
X42048Y116944D01*
X41937Y117009D01*
X41854Y117074D01*
X41808Y117111D01*
X41790Y117129D01*
X41660Y117277D01*
X41568Y117434D01*
X41494Y117591D01*
X41448Y117739D01*
X41420Y117869D01*
X41410Y117970D01*
X41401Y118007D01*
Y118035D01*
Y118054D01*
Y118063D01*
Y121733D01*
X41410Y121826D01*
X41438Y121891D01*
X41484Y121937D01*
X41531Y121965D01*
X41586Y121992D01*
X41623Y122001D01*
X41669D01*
X41753Y121992D01*
D02*
G37*
G36*
Y142492D02*
X41817Y142465D01*
X41863Y142418D01*
X41891Y142372D01*
X41910Y142317D01*
X41928Y142280D01*
Y142243D01*
Y142233D01*
Y138563D01*
X41937Y138443D01*
X41965Y138332D01*
X42002Y138239D01*
X42039Y138156D01*
X42085Y138091D01*
X42122Y138045D01*
X42150Y138008D01*
X42159Y137999D01*
X42252Y137925D01*
X42344Y137869D01*
X42437Y137832D01*
X42520Y137805D01*
X42603Y137786D01*
X42659Y137777D01*
X43241D01*
X43324Y137768D01*
X43389Y137740D01*
X43435Y137694D01*
X43463Y137648D01*
X43481Y137592D01*
X43500Y137555D01*
Y137518D01*
Y137509D01*
X43491Y137426D01*
X43463Y137361D01*
X43417Y137315D01*
X43371Y137287D01*
X43324Y137268D01*
X43278Y137250D01*
X42714D01*
X42520Y137268D01*
X42335Y137305D01*
X42178Y137370D01*
X42048Y137444D01*
X41937Y137509D01*
X41854Y137574D01*
X41808Y137611D01*
X41790Y137629D01*
X41660Y137777D01*
X41568Y137934D01*
X41494Y138091D01*
X41448Y138239D01*
X41420Y138369D01*
X41410Y138470D01*
X41401Y138507D01*
Y138535D01*
Y138554D01*
Y138563D01*
Y142233D01*
X41410Y142326D01*
X41438Y142390D01*
X41484Y142437D01*
X41531Y142465D01*
X41586Y142492D01*
X41623Y142501D01*
X41669D01*
X41753Y142492D01*
D02*
G37*
G36*
X107003Y45992D02*
X107067Y45964D01*
X107114Y45918D01*
X107141Y45872D01*
X107160Y45817D01*
X107178Y45780D01*
Y45743D01*
Y45733D01*
Y42063D01*
X107188Y41943D01*
X107215Y41832D01*
X107252Y41739D01*
X107289Y41656D01*
X107335Y41591D01*
X107372Y41545D01*
X107400Y41508D01*
X107409Y41499D01*
X107502Y41425D01*
X107594Y41370D01*
X107687Y41333D01*
X107770Y41305D01*
X107853Y41286D01*
X107909Y41277D01*
X108491D01*
X108574Y41268D01*
X108639Y41240D01*
X108685Y41194D01*
X108713Y41148D01*
X108731Y41092D01*
X108750Y41055D01*
Y41018D01*
Y41009D01*
X108741Y40926D01*
X108713Y40861D01*
X108667Y40815D01*
X108621Y40787D01*
X108574Y40768D01*
X108528Y40750D01*
X107964D01*
X107770Y40768D01*
X107585Y40806D01*
X107428Y40870D01*
X107298Y40944D01*
X107188Y41009D01*
X107104Y41074D01*
X107058Y41111D01*
X107040Y41129D01*
X106910Y41277D01*
X106818Y41434D01*
X106744Y41591D01*
X106698Y41739D01*
X106670Y41869D01*
X106660Y41970D01*
X106651Y42007D01*
Y42035D01*
Y42054D01*
Y42063D01*
Y45733D01*
X106660Y45826D01*
X106688Y45891D01*
X106735Y45937D01*
X106781Y45964D01*
X106836Y45992D01*
X106873Y46002D01*
X106919D01*
X107003Y45992D01*
D02*
G37*
G36*
X160422D02*
X160486Y45964D01*
X160532Y45918D01*
X160560Y45872D01*
X160579Y45817D01*
X160597Y45780D01*
Y45743D01*
Y45733D01*
X160588Y45650D01*
X160560Y45585D01*
X160514Y45539D01*
X160468Y45511D01*
X160422Y45493D01*
X160375Y45475D01*
X158573D01*
X158979Y43635D01*
X159294Y43644D01*
X159377Y43635D01*
X159441Y43607D01*
X159488Y43561D01*
X159515Y43514D01*
X159534Y43459D01*
X159552Y43422D01*
Y43385D01*
Y43376D01*
X159543Y43292D01*
X159515Y43228D01*
X159469Y43182D01*
X159423Y43154D01*
X159377Y43135D01*
X159331Y43117D01*
X159090D01*
X159543Y41064D01*
X159552Y41027D01*
Y41018D01*
Y41009D01*
X159543Y40926D01*
X159506Y40861D01*
X159469Y40815D01*
X159414Y40787D01*
X159368Y40768D01*
X159321Y40750D01*
X159284D01*
X159210Y40759D01*
X159155Y40778D01*
X159118Y40815D01*
X159081Y40852D01*
X159062Y40889D01*
X159044Y40926D01*
X159035Y40944D01*
Y40953D01*
X158554Y43108D01*
X158240Y43117D01*
X158147Y43126D01*
X158082Y43154D01*
X158036Y43200D01*
X158008Y43246D01*
X157981Y43292D01*
X157971Y43339D01*
Y43366D01*
Y43376D01*
X157981Y43468D01*
X158008Y43533D01*
X158055Y43579D01*
X158101Y43607D01*
X158156Y43635D01*
X158193Y43644D01*
X158434D01*
X157981Y45678D01*
X157971Y45724D01*
Y45743D01*
X157990Y45826D01*
X158018Y45891D01*
X158064Y45937D01*
X158110Y45974D01*
X158156Y45992D01*
X158203Y46002D01*
X160338D01*
X160422Y45992D01*
D02*
G37*
G36*
X162003D02*
X162067Y45964D01*
X162113Y45918D01*
X162141Y45872D01*
X162160Y45817D01*
X162178Y45780D01*
Y45743D01*
Y45733D01*
Y42063D01*
X162188Y41943D01*
X162215Y41832D01*
X162252Y41739D01*
X162289Y41656D01*
X162335Y41591D01*
X162372Y41545D01*
X162400Y41508D01*
X162409Y41499D01*
X162502Y41425D01*
X162594Y41370D01*
X162687Y41333D01*
X162770Y41305D01*
X162853Y41286D01*
X162909Y41277D01*
X163491D01*
X163574Y41268D01*
X163639Y41240D01*
X163685Y41194D01*
X163713Y41148D01*
X163731Y41092D01*
X163750Y41055D01*
Y41018D01*
Y41009D01*
X163741Y40926D01*
X163713Y40861D01*
X163667Y40815D01*
X163621Y40787D01*
X163574Y40768D01*
X163528Y40750D01*
X162964D01*
X162770Y40768D01*
X162585Y40806D01*
X162428Y40870D01*
X162298Y40944D01*
X162188Y41009D01*
X162104Y41074D01*
X162058Y41111D01*
X162040Y41129D01*
X161910Y41277D01*
X161818Y41434D01*
X161744Y41591D01*
X161698Y41739D01*
X161670Y41869D01*
X161660Y41970D01*
X161651Y42007D01*
Y42035D01*
Y42054D01*
Y42063D01*
Y45733D01*
X161660Y45826D01*
X161688Y45891D01*
X161734Y45937D01*
X161781Y45964D01*
X161836Y45992D01*
X161873Y46002D01*
X161919D01*
X162003Y45992D01*
D02*
G37*
G36*
X103841D02*
X103914Y45974D01*
X103970Y45946D01*
X103989Y45937D01*
X103998D01*
X104201Y45844D01*
X104386Y45724D01*
X104552Y45604D01*
X104710Y45484D01*
X104830Y45373D01*
X104922Y45280D01*
X104959Y45243D01*
X104987Y45216D01*
X104996Y45206D01*
X105006Y45197D01*
X105107Y45068D01*
X105200Y44938D01*
X105283Y44800D01*
X105348Y44670D01*
X105403Y44531D01*
X105449Y44402D01*
X105523Y44162D01*
X105551Y44051D01*
X105569Y43949D01*
X105579Y43866D01*
X105588Y43783D01*
X105597Y43718D01*
Y43672D01*
Y43644D01*
Y43635D01*
Y42054D01*
X105579Y41859D01*
X105542Y41684D01*
X105477Y41517D01*
X105403Y41388D01*
X105338Y41277D01*
X105274Y41194D01*
X105237Y41148D01*
X105218Y41129D01*
X105070Y41000D01*
X104913Y40907D01*
X104756Y40842D01*
X104608Y40796D01*
X104479Y40768D01*
X104377Y40759D01*
X104340Y40750D01*
X104284D01*
X104090Y40768D01*
X103914Y40806D01*
X103757Y40870D01*
X103619Y40944D01*
X103508Y41009D01*
X103425Y41074D01*
X103378Y41111D01*
X103360Y41129D01*
X103230Y41277D01*
X103138Y41434D01*
X103064Y41591D01*
X103018Y41739D01*
X102990Y41869D01*
X102981Y41970D01*
X102971Y42007D01*
Y42035D01*
Y42054D01*
Y42063D01*
Y42581D01*
X102990Y42784D01*
X103027Y42960D01*
X103092Y43117D01*
X103156Y43256D01*
X103230Y43366D01*
X103295Y43450D01*
X103332Y43496D01*
X103351Y43514D01*
X103498Y43644D01*
X103656Y43736D01*
X103813Y43810D01*
X103961Y43857D01*
X104090Y43884D01*
X104192Y43893D01*
X104229Y43903D01*
X105052D01*
X105015Y44078D01*
X104969Y44245D01*
X104904Y44393D01*
X104830Y44531D01*
X104765Y44642D01*
X104710Y44735D01*
X104673Y44790D01*
X104654Y44800D01*
Y44809D01*
X104571Y44910D01*
X104488Y45003D01*
X104312Y45151D01*
X104136Y45271D01*
X103979Y45373D01*
X103841Y45437D01*
X103776Y45456D01*
X103730Y45484D01*
X103683Y45493D01*
X103656Y45502D01*
X103637Y45511D01*
X103628D01*
X103582Y45530D01*
X103554Y45558D01*
X103517Y45632D01*
X103508Y45669D01*
X103498Y45706D01*
Y45724D01*
Y45733D01*
X103508Y45826D01*
X103535Y45891D01*
X103582Y45937D01*
X103628Y45964D01*
X103683Y45992D01*
X103720Y46002D01*
X103767D01*
X103841Y45992D01*
D02*
G37*
G36*
X193932Y61492D02*
X194071Y61465D01*
X194200Y61418D01*
X194330Y61354D01*
X194441Y61280D01*
X194543Y61206D01*
X194644Y61122D01*
X194737Y61030D01*
X194811Y60947D01*
X194885Y60854D01*
X194940Y60780D01*
X194986Y60706D01*
X195033Y60642D01*
X195060Y60595D01*
X195070Y60568D01*
X195079Y60559D01*
X195097Y60484D01*
Y60457D01*
Y60448D01*
X195088Y60364D01*
X195060Y60300D01*
X195014Y60253D01*
X194968Y60226D01*
X194922Y60207D01*
X194875Y60189D01*
X194838D01*
X194783Y60198D01*
X194737Y60207D01*
X194672Y60253D01*
X194626Y60300D01*
X194617Y60309D01*
Y60318D01*
X194543Y60438D01*
X194468Y60531D01*
X194404Y60623D01*
X194330Y60697D01*
X194256Y60762D01*
X194191Y60817D01*
X194126Y60854D01*
X194062Y60891D01*
X193951Y60938D01*
X193868Y60965D01*
X193812Y60974D01*
X193794D01*
X193673Y60965D01*
X193563Y60938D01*
X193470Y60901D01*
X193387Y60864D01*
X193322Y60817D01*
X193267Y60780D01*
X193239Y60753D01*
X193230Y60743D01*
X193156Y60651D01*
X193100Y60559D01*
X193054Y60466D01*
X193026Y60383D01*
X193008Y60300D01*
X192999Y60244D01*
Y60207D01*
Y60189D01*
X193008Y60105D01*
X193017Y60031D01*
X193036Y59957D01*
X193063Y59893D01*
X193091Y59837D01*
X193109Y59791D01*
X193119Y59763D01*
X193128Y59754D01*
X195060Y56657D01*
X195079Y56611D01*
X195088Y56555D01*
X195097Y56527D01*
Y56509D01*
X195088Y56426D01*
X195060Y56361D01*
X195014Y56315D01*
X194968Y56287D01*
X194922Y56269D01*
X194875Y56250D01*
X192740D01*
X192647Y56259D01*
X192582Y56287D01*
X192536Y56333D01*
X192509Y56379D01*
X192481Y56426D01*
X192472Y56472D01*
Y56500D01*
Y56509D01*
X192481Y56601D01*
X192509Y56666D01*
X192555Y56712D01*
X192601Y56740D01*
X192656Y56768D01*
X192693Y56777D01*
X194367D01*
X192712Y59430D01*
X192629Y59569D01*
X192573Y59708D01*
X192527Y59837D01*
X192499Y59948D01*
X192481Y60050D01*
X192472Y60124D01*
Y60170D01*
Y60189D01*
X192490Y60383D01*
X192536Y60559D01*
X192592Y60716D01*
X192666Y60854D01*
X192740Y60965D01*
X192795Y61048D01*
X192841Y61095D01*
X192860Y61113D01*
X193008Y61243D01*
X193165Y61335D01*
X193322Y61409D01*
X193470Y61455D01*
X193590Y61483D01*
X193692Y61492D01*
X193729Y61501D01*
X193784D01*
X193932Y61492D01*
D02*
G37*
G36*
X175003Y146242D02*
X175067Y146215D01*
X175114Y146168D01*
X175141Y146122D01*
X175160Y146067D01*
X175178Y146030D01*
Y145993D01*
Y145983D01*
Y142313D01*
X175187Y142193D01*
X175215Y142082D01*
X175252Y141989D01*
X175289Y141906D01*
X175335Y141841D01*
X175372Y141795D01*
X175400Y141758D01*
X175409Y141749D01*
X175502Y141675D01*
X175594Y141620D01*
X175687Y141582D01*
X175770Y141555D01*
X175853Y141536D01*
X175909Y141527D01*
X176491D01*
X176574Y141518D01*
X176639Y141490D01*
X176685Y141444D01*
X176713Y141398D01*
X176731Y141342D01*
X176750Y141305D01*
Y141268D01*
Y141259D01*
X176741Y141176D01*
X176713Y141111D01*
X176667Y141065D01*
X176621Y141037D01*
X176574Y141018D01*
X176528Y141000D01*
X175964D01*
X175770Y141018D01*
X175585Y141055D01*
X175428Y141120D01*
X175298Y141194D01*
X175187Y141259D01*
X175104Y141324D01*
X175058Y141361D01*
X175040Y141379D01*
X174910Y141527D01*
X174818Y141684D01*
X174744Y141841D01*
X174697Y141989D01*
X174670Y142119D01*
X174660Y142220D01*
X174651Y142257D01*
Y142285D01*
Y142304D01*
Y142313D01*
Y145983D01*
X174660Y146076D01*
X174688Y146141D01*
X174734Y146187D01*
X174781Y146215D01*
X174836Y146242D01*
X174873Y146251D01*
X174919D01*
X175003Y146242D01*
D02*
G37*
G36*
X172368Y146233D02*
X172432Y146205D01*
X172479Y146168D01*
X172488Y146159D01*
X172497Y146150D01*
X173523Y145124D01*
X173570Y145059D01*
X173588Y145003D01*
X173597Y144957D01*
Y144948D01*
Y144939D01*
X173588Y144846D01*
X173560Y144781D01*
X173514Y144735D01*
X173468Y144707D01*
X173422Y144689D01*
X173375Y144670D01*
X173338D01*
X173264Y144680D01*
X173200Y144707D01*
X173163Y144735D01*
X173153Y144745D01*
X172543Y145355D01*
Y141259D01*
X172534Y141176D01*
X172506Y141111D01*
X172460Y141065D01*
X172414Y141037D01*
X172368Y141018D01*
X172321Y141000D01*
X172284D01*
X172192Y141009D01*
X172127Y141037D01*
X172081Y141083D01*
X172053Y141129D01*
X172026Y141176D01*
X172016Y141222D01*
Y141250D01*
Y141259D01*
Y145983D01*
X172026Y146076D01*
X172053Y146141D01*
X172099Y146187D01*
X172146Y146215D01*
X172201Y146242D01*
X172238Y146251D01*
X172321D01*
X172368Y146233D01*
D02*
G37*
G36*
X196503Y61492D02*
X196567Y61465D01*
X196614Y61418D01*
X196641Y61372D01*
X196660Y61317D01*
X196678Y61280D01*
Y61243D01*
Y61233D01*
Y57563D01*
X196688Y57443D01*
X196715Y57332D01*
X196752Y57239D01*
X196789Y57156D01*
X196835Y57091D01*
X196872Y57045D01*
X196900Y57008D01*
X196909Y56999D01*
X197002Y56925D01*
X197094Y56870D01*
X197187Y56832D01*
X197270Y56805D01*
X197353Y56786D01*
X197409Y56777D01*
X197991D01*
X198074Y56768D01*
X198139Y56740D01*
X198185Y56694D01*
X198213Y56648D01*
X198232Y56592D01*
X198250Y56555D01*
Y56518D01*
Y56509D01*
X198241Y56426D01*
X198213Y56361D01*
X198167Y56315D01*
X198121Y56287D01*
X198074Y56269D01*
X198028Y56250D01*
X197464D01*
X197270Y56269D01*
X197085Y56305D01*
X196928Y56370D01*
X196798Y56444D01*
X196688Y56509D01*
X196604Y56574D01*
X196558Y56611D01*
X196540Y56629D01*
X196410Y56777D01*
X196318Y56934D01*
X196244Y57091D01*
X196197Y57239D01*
X196170Y57369D01*
X196161Y57470D01*
X196151Y57507D01*
Y57535D01*
Y57554D01*
Y57563D01*
Y61233D01*
X196161Y61326D01*
X196188Y61391D01*
X196234Y61437D01*
X196281Y61465D01*
X196336Y61492D01*
X196373Y61501D01*
X196419D01*
X196503Y61492D01*
D02*
G37*
G36*
X39099Y142492D02*
X39164Y142474D01*
X39201Y142437D01*
X39238Y142409D01*
X39265Y142372D01*
X39284Y142335D01*
X39293Y142317D01*
Y142307D01*
X40347Y138637D01*
Y138591D01*
Y138572D01*
Y138563D01*
X40338Y138480D01*
X40310Y138415D01*
X40264Y138369D01*
X40218Y138341D01*
X40172Y138322D01*
X40125Y138304D01*
X38507D01*
Y137509D01*
X38498Y137426D01*
X38470Y137361D01*
X38424Y137315D01*
X38378Y137287D01*
X38332Y137268D01*
X38286Y137250D01*
X38249D01*
X38156Y137259D01*
X38091Y137287D01*
X38045Y137333D01*
X38017Y137379D01*
X37990Y137426D01*
X37980Y137472D01*
Y137500D01*
Y137509D01*
Y138304D01*
X37463D01*
X37370Y138313D01*
X37305Y138341D01*
X37259Y138387D01*
X37232Y138433D01*
X37204Y138480D01*
X37194Y138526D01*
Y138554D01*
Y138563D01*
X37204Y138655D01*
X37232Y138720D01*
X37278Y138766D01*
X37324Y138794D01*
X37379Y138822D01*
X37416Y138831D01*
X37980D01*
Y139617D01*
X37990Y139709D01*
X38017Y139774D01*
X38064Y139820D01*
X38110Y139848D01*
X38165Y139876D01*
X38202Y139885D01*
X38249D01*
X38332Y139876D01*
X38396Y139848D01*
X38443Y139802D01*
X38470Y139755D01*
X38489Y139700D01*
X38507Y139663D01*
Y139626D01*
Y139617D01*
Y138831D01*
X39737D01*
X38785Y142159D01*
X38775Y142215D01*
Y142224D01*
Y142233D01*
X38785Y142326D01*
X38812Y142390D01*
X38859Y142437D01*
X38905Y142465D01*
X38951Y142492D01*
X38997Y142501D01*
X39034D01*
X39099Y142492D01*
D02*
G37*
G36*
X40172Y164242D02*
X40236Y164214D01*
X40283Y164168D01*
X40310Y164122D01*
X40329Y164067D01*
X40347Y164030D01*
Y163993D01*
Y163983D01*
X40338Y163900D01*
X40310Y163836D01*
X40264Y163789D01*
X40218Y163762D01*
X40172Y163743D01*
X40125Y163724D01*
X39044D01*
X38923Y163715D01*
X38812Y163687D01*
X38720Y163650D01*
X38637Y163614D01*
X38572Y163567D01*
X38517Y163530D01*
X38489Y163503D01*
X38480Y163493D01*
X38406Y163401D01*
X38350Y163309D01*
X38304Y163216D01*
X38276Y163133D01*
X38258Y163050D01*
X38249Y162994D01*
Y162957D01*
Y162939D01*
X38258Y162818D01*
X38286Y162708D01*
X38323Y162615D01*
X38359Y162532D01*
X38406Y162467D01*
X38443Y162421D01*
X38470Y162384D01*
X38480Y162375D01*
X38572Y162301D01*
X38665Y162245D01*
X38757Y162208D01*
X38849Y162181D01*
X38923Y162162D01*
X38988Y162153D01*
X39571D01*
X39654Y162143D01*
X39718Y162116D01*
X39765Y162070D01*
X39792Y162023D01*
X39811Y161968D01*
X39829Y161931D01*
Y161894D01*
Y161885D01*
X39820Y161801D01*
X39792Y161737D01*
X39746Y161691D01*
X39700Y161663D01*
X39654Y161644D01*
X39608Y161626D01*
X39044D01*
X38923Y161616D01*
X38822Y161589D01*
X38729Y161552D01*
X38646Y161515D01*
X38581Y161469D01*
X38526Y161432D01*
X38498Y161404D01*
X38489Y161395D01*
X38406Y161302D01*
X38350Y161210D01*
X38304Y161117D01*
X38276Y161025D01*
X38258Y160951D01*
X38249Y160886D01*
Y160849D01*
Y160831D01*
Y160313D01*
X38258Y160193D01*
X38286Y160082D01*
X38323Y159989D01*
X38359Y159906D01*
X38406Y159841D01*
X38443Y159795D01*
X38470Y159758D01*
X38480Y159749D01*
X38572Y159675D01*
X38665Y159620D01*
X38757Y159583D01*
X38849Y159555D01*
X38923Y159536D01*
X38988Y159527D01*
X40088D01*
X40172Y159518D01*
X40236Y159490D01*
X40283Y159444D01*
X40310Y159398D01*
X40329Y159342D01*
X40347Y159305D01*
Y159268D01*
Y159259D01*
X40338Y159176D01*
X40310Y159111D01*
X40264Y159065D01*
X40218Y159037D01*
X40172Y159018D01*
X40125Y159000D01*
X39034D01*
X38840Y159018D01*
X38665Y159056D01*
X38507Y159120D01*
X38369Y159194D01*
X38258Y159259D01*
X38175Y159324D01*
X38128Y159361D01*
X38110Y159379D01*
X37980Y159527D01*
X37888Y159693D01*
X37814Y159841D01*
X37768Y159989D01*
X37740Y160119D01*
X37731Y160220D01*
X37722Y160257D01*
Y160285D01*
Y160304D01*
Y160313D01*
Y160831D01*
X37731Y160951D01*
X37740Y161062D01*
X37768Y161173D01*
X37805Y161274D01*
X37888Y161450D01*
X37980Y161607D01*
X38082Y161728D01*
X38165Y161811D01*
X38202Y161848D01*
X38230Y161866D01*
X38239Y161885D01*
X38249D01*
X38156Y161959D01*
X38073Y162042D01*
X38008Y162134D01*
X37943Y162218D01*
X37888Y162310D01*
X37851Y162393D01*
X37786Y162560D01*
X37749Y162708D01*
X37740Y162772D01*
X37731Y162828D01*
X37722Y162874D01*
Y162911D01*
Y162929D01*
Y162939D01*
X37740Y163133D01*
X37786Y163309D01*
X37842Y163466D01*
X37916Y163604D01*
X37990Y163715D01*
X38045Y163799D01*
X38091Y163845D01*
X38110Y163863D01*
X38258Y163993D01*
X38415Y164085D01*
X38572Y164159D01*
X38720Y164205D01*
X38840Y164233D01*
X38942Y164242D01*
X38979Y164251D01*
X40088D01*
X40172Y164242D01*
D02*
G37*
G36*
X41753D02*
X41817Y164214D01*
X41863Y164168D01*
X41891Y164122D01*
X41910Y164067D01*
X41928Y164030D01*
Y163993D01*
Y163983D01*
Y160313D01*
X41937Y160193D01*
X41965Y160082D01*
X42002Y159989D01*
X42039Y159906D01*
X42085Y159841D01*
X42122Y159795D01*
X42150Y159758D01*
X42159Y159749D01*
X42252Y159675D01*
X42344Y159620D01*
X42437Y159583D01*
X42520Y159555D01*
X42603Y159536D01*
X42659Y159527D01*
X43241D01*
X43324Y159518D01*
X43389Y159490D01*
X43435Y159444D01*
X43463Y159398D01*
X43481Y159342D01*
X43500Y159305D01*
Y159268D01*
Y159259D01*
X43491Y159176D01*
X43463Y159111D01*
X43417Y159065D01*
X43371Y159037D01*
X43324Y159018D01*
X43278Y159000D01*
X42714D01*
X42520Y159018D01*
X42335Y159056D01*
X42178Y159120D01*
X42048Y159194D01*
X41937Y159259D01*
X41854Y159324D01*
X41808Y159361D01*
X41790Y159379D01*
X41660Y159527D01*
X41568Y159684D01*
X41494Y159841D01*
X41448Y159989D01*
X41420Y160119D01*
X41410Y160220D01*
X41401Y160257D01*
Y160285D01*
Y160304D01*
Y160313D01*
Y163983D01*
X41410Y164076D01*
X41438Y164141D01*
X41484Y164187D01*
X41531Y164214D01*
X41586Y164242D01*
X41623Y164251D01*
X41669D01*
X41753Y164242D01*
D02*
G37*
G36*
X41503Y101242D02*
X41567Y101215D01*
X41613Y101168D01*
X41641Y101122D01*
X41660Y101067D01*
X41678Y101030D01*
Y100993D01*
Y100983D01*
Y97313D01*
X41687Y97193D01*
X41715Y97082D01*
X41752Y96989D01*
X41789Y96906D01*
X41835Y96841D01*
X41872Y96795D01*
X41900Y96758D01*
X41909Y96749D01*
X42002Y96675D01*
X42094Y96620D01*
X42187Y96582D01*
X42270Y96555D01*
X42353Y96536D01*
X42409Y96527D01*
X42991D01*
X43074Y96518D01*
X43139Y96490D01*
X43185Y96444D01*
X43213Y96398D01*
X43232Y96342D01*
X43250Y96305D01*
Y96268D01*
Y96259D01*
X43241Y96176D01*
X43213Y96111D01*
X43167Y96065D01*
X43121Y96037D01*
X43074Y96018D01*
X43028Y96000D01*
X42464D01*
X42270Y96018D01*
X42085Y96055D01*
X41928Y96120D01*
X41798Y96194D01*
X41687Y96259D01*
X41604Y96324D01*
X41558Y96361D01*
X41540Y96379D01*
X41410Y96527D01*
X41318Y96684D01*
X41244Y96841D01*
X41198Y96989D01*
X41170Y97119D01*
X41160Y97220D01*
X41151Y97257D01*
Y97285D01*
Y97304D01*
Y97313D01*
Y100983D01*
X41160Y101076D01*
X41188Y101141D01*
X41234Y101187D01*
X41281Y101215D01*
X41336Y101242D01*
X41373Y101251D01*
X41419D01*
X41503Y101242D01*
D02*
G37*
G36*
X38479Y80733D02*
X38663Y80687D01*
X38821Y80631D01*
X38959Y80557D01*
X39070Y80483D01*
X39144Y80428D01*
X39200Y80382D01*
X39218Y80363D01*
X39348Y80215D01*
X39440Y80058D01*
X39505Y79901D01*
X39551Y79753D01*
X39579Y79623D01*
X39588Y79522D01*
X39597Y79485D01*
Y79457D01*
Y79439D01*
Y79429D01*
Y78912D01*
X39579Y78717D01*
X39542Y78533D01*
X39477Y78375D01*
X39403Y78237D01*
X39338Y78126D01*
X39274Y78052D01*
X39237Y77996D01*
X39218Y77978D01*
X39070Y77848D01*
X38904Y77756D01*
X38756Y77691D01*
X38608Y77645D01*
X38479Y77617D01*
X38377Y77608D01*
X38340Y77599D01*
X37517D01*
X37545Y77442D01*
X37591Y77294D01*
X37646Y77155D01*
X37711Y77025D01*
X37785Y76896D01*
X37859Y76785D01*
X37942Y76674D01*
X38035Y76582D01*
X38118Y76498D01*
X38192Y76425D01*
X38266Y76360D01*
X38331Y76304D01*
X38386Y76258D01*
X38432Y76230D01*
X38460Y76212D01*
X38469Y76203D01*
X38543Y76156D01*
X38617Y76119D01*
X38774Y76045D01*
X38839Y76018D01*
X38895Y75999D01*
X38932Y75990D01*
X38941Y75981D01*
X38987Y75962D01*
X39024Y75935D01*
X39042Y75898D01*
X39061Y75861D01*
X39070Y75824D01*
X39079Y75787D01*
Y75768D01*
Y75759D01*
X39070Y75685D01*
X39033Y75629D01*
X39005Y75592D01*
X38996Y75574D01*
X38932Y75528D01*
X38876Y75509D01*
X38830Y75500D01*
X38811D01*
X38728Y75509D01*
X38645Y75537D01*
X38543Y75583D01*
X38442Y75629D01*
X38358Y75666D01*
X38284Y75713D01*
X38238Y75740D01*
X38220Y75750D01*
X37998Y75898D01*
X37804Y76064D01*
X37637Y76230D01*
X37499Y76406D01*
X37378Y76582D01*
X37277Y76757D01*
X37193Y76933D01*
X37129Y77099D01*
X37073Y77247D01*
X37036Y77395D01*
X37009Y77525D01*
X36990Y77636D01*
X36981Y77728D01*
X36971Y77802D01*
Y77839D01*
Y77858D01*
Y79439D01*
X36990Y79633D01*
X37036Y79818D01*
X37092Y79975D01*
X37166Y80104D01*
X37240Y80215D01*
X37295Y80299D01*
X37341Y80345D01*
X37360Y80363D01*
X37508Y80493D01*
X37665Y80585D01*
X37822Y80659D01*
X37961Y80705D01*
X38090Y80733D01*
X38192Y80742D01*
X38229Y80751D01*
X38284D01*
X38479Y80733D01*
D02*
G37*
G36*
X41003Y80742D02*
X41067Y80715D01*
X41114Y80668D01*
X41141Y80622D01*
X41160Y80567D01*
X41178Y80530D01*
Y80493D01*
Y80483D01*
Y76813D01*
X41188Y76693D01*
X41215Y76582D01*
X41252Y76489D01*
X41289Y76406D01*
X41335Y76341D01*
X41372Y76295D01*
X41400Y76258D01*
X41409Y76249D01*
X41502Y76175D01*
X41594Y76119D01*
X41687Y76083D01*
X41770Y76055D01*
X41853Y76036D01*
X41909Y76027D01*
X42491D01*
X42574Y76018D01*
X42639Y75990D01*
X42685Y75944D01*
X42713Y75898D01*
X42731Y75842D01*
X42750Y75805D01*
Y75768D01*
Y75759D01*
X42741Y75676D01*
X42713Y75611D01*
X42667Y75565D01*
X42621Y75537D01*
X42574Y75518D01*
X42528Y75500D01*
X41964D01*
X41770Y75518D01*
X41585Y75556D01*
X41428Y75620D01*
X41298Y75694D01*
X41188Y75759D01*
X41104Y75824D01*
X41058Y75861D01*
X41040Y75879D01*
X40910Y76027D01*
X40818Y76184D01*
X40744Y76341D01*
X40697Y76489D01*
X40670Y76619D01*
X40661Y76720D01*
X40651Y76757D01*
Y76785D01*
Y76804D01*
Y76813D01*
Y80483D01*
X40661Y80576D01*
X40688Y80641D01*
X40735Y80687D01*
X40781Y80715D01*
X40836Y80742D01*
X40873Y80751D01*
X40919D01*
X41003Y80742D01*
D02*
G37*
G36*
X176607Y169483D02*
X176672Y169455D01*
X176718Y169418D01*
X176727Y169409D01*
X176736Y169400D01*
X177763Y168374D01*
X177809Y168309D01*
X177827Y168253D01*
X177836Y168207D01*
Y168198D01*
Y168189D01*
X177827Y168096D01*
X177799Y168031D01*
X177753Y167985D01*
X177707Y167957D01*
X177661Y167939D01*
X177615Y167920D01*
X177578D01*
X177504Y167930D01*
X177439Y167957D01*
X177402Y167985D01*
X177393Y167994D01*
X176782Y168605D01*
Y164509D01*
X176773Y164426D01*
X176745Y164361D01*
X176699Y164315D01*
X176653Y164287D01*
X176607Y164268D01*
X176561Y164250D01*
X176524D01*
X176431Y164259D01*
X176366Y164287D01*
X176320Y164333D01*
X176292Y164379D01*
X176265Y164426D01*
X176255Y164472D01*
Y164500D01*
Y164509D01*
Y169233D01*
X176265Y169326D01*
X176292Y169391D01*
X176339Y169437D01*
X176385Y169464D01*
X176440Y169492D01*
X176477Y169501D01*
X176561D01*
X176607Y169483D01*
D02*
G37*
G36*
X181868Y169492D02*
X181932Y169464D01*
X181978Y169418D01*
X182006Y169372D01*
X182025Y169317D01*
X182043Y169280D01*
Y169243D01*
Y169233D01*
Y164509D01*
X182034Y164426D01*
X182006Y164361D01*
X181960Y164315D01*
X181914Y164287D01*
X181868Y164268D01*
X181821Y164250D01*
X181784D01*
X181692Y164259D01*
X181627Y164287D01*
X181581Y164333D01*
X181553Y164379D01*
X181525Y164426D01*
X181516Y164472D01*
Y164500D01*
Y164509D01*
Y166349D01*
X180471D01*
X180342Y166358D01*
X180222Y166367D01*
X180000Y166413D01*
X179806Y166487D01*
X179639Y166571D01*
X179510Y166645D01*
X179408Y166719D01*
X179380Y166746D01*
X179353Y166765D01*
X179343Y166783D01*
X179334D01*
X179260Y166866D01*
X179186Y166959D01*
X179075Y167144D01*
X179001Y167338D01*
X178946Y167514D01*
X178909Y167680D01*
X178900Y167745D01*
Y167800D01*
X178890Y167856D01*
Y167893D01*
Y167911D01*
Y167920D01*
X178900Y168041D01*
X178909Y168161D01*
X178965Y168374D01*
X179038Y168568D01*
X179122Y168725D01*
X179205Y168854D01*
X179242Y168910D01*
X179279Y168956D01*
X179307Y168993D01*
X179334Y169021D01*
X179343Y169030D01*
X179353Y169039D01*
X179445Y169122D01*
X179538Y169196D01*
X179630Y169252D01*
X179723Y169307D01*
X179907Y169391D01*
X180083Y169446D01*
X180240Y169474D01*
X180305Y169492D01*
X180361D01*
X180407Y169501D01*
X181784D01*
X181868Y169492D01*
D02*
G37*
G36*
X186074D02*
X186139Y169464D01*
X186185Y169418D01*
X186213Y169372D01*
X186231Y169317D01*
X186250Y169280D01*
Y169243D01*
Y169233D01*
X186241Y169150D01*
X186213Y169085D01*
X186167Y169039D01*
X186121Y169011D01*
X186074Y168993D01*
X186028Y168974D01*
X184937D01*
Y164509D01*
X184928Y164426D01*
X184900Y164361D01*
X184854Y164315D01*
X184808Y164287D01*
X184762Y164268D01*
X184715Y164250D01*
X184678D01*
X184586Y164259D01*
X184521Y164287D01*
X184475Y164333D01*
X184447Y164379D01*
X184419Y164426D01*
X184410Y164472D01*
Y164500D01*
Y164509D01*
Y168974D01*
X183365D01*
X183273Y168984D01*
X183208Y169011D01*
X183162Y169058D01*
X183134Y169104D01*
X183106Y169150D01*
X183097Y169196D01*
Y169224D01*
Y169233D01*
X183106Y169326D01*
X183134Y169391D01*
X183181Y169437D01*
X183227Y169464D01*
X183282Y169492D01*
X183319Y169501D01*
X185991D01*
X186074Y169492D01*
D02*
G37*
G36*
X38979Y101233D02*
X39163Y101187D01*
X39321Y101131D01*
X39459Y101057D01*
X39570Y100983D01*
X39644Y100928D01*
X39700Y100882D01*
X39718Y100863D01*
X39848Y100715D01*
X39940Y100558D01*
X40005Y100401D01*
X40051Y100253D01*
X40079Y100133D01*
X40088Y100031D01*
X40097Y99994D01*
Y99966D01*
Y99948D01*
Y99939D01*
X40088Y99818D01*
X40079Y99707D01*
X40014Y99495D01*
X39931Y99319D01*
X39838Y99162D01*
X39746Y99042D01*
X39663Y98959D01*
X39598Y98903D01*
X39589Y98894D01*
X39580Y98885D01*
X39672Y98811D01*
X39746Y98728D01*
X39820Y98644D01*
X39875Y98552D01*
X39968Y98376D01*
X40033Y98210D01*
X40069Y98062D01*
X40079Y97997D01*
X40088Y97942D01*
X40097Y97895D01*
Y97858D01*
Y97840D01*
Y97831D01*
Y97313D01*
X40079Y97119D01*
X40042Y96934D01*
X39977Y96777D01*
X39903Y96638D01*
X39838Y96527D01*
X39774Y96453D01*
X39737Y96398D01*
X39718Y96379D01*
X39570Y96250D01*
X39404Y96157D01*
X39256Y96093D01*
X39108Y96046D01*
X38979Y96018D01*
X38877Y96009D01*
X38840Y96000D01*
X38784D01*
X38590Y96018D01*
X38415Y96055D01*
X38257Y96120D01*
X38119Y96194D01*
X38008Y96259D01*
X37924Y96324D01*
X37878Y96361D01*
X37860Y96379D01*
X37730Y96527D01*
X37638Y96693D01*
X37564Y96841D01*
X37518Y96989D01*
X37490Y97119D01*
X37481Y97220D01*
X37471Y97257D01*
Y97285D01*
Y97304D01*
Y97313D01*
Y97433D01*
Y97535D01*
X37481Y97636D01*
Y97729D01*
X37490Y97877D01*
X37499Y97997D01*
X37508Y98080D01*
X37518Y98136D01*
X37527Y98173D01*
Y98182D01*
X37573Y98330D01*
X37638Y98469D01*
X37712Y98589D01*
X37795Y98691D01*
X37869Y98774D01*
X37934Y98829D01*
X37980Y98875D01*
X37998Y98885D01*
X37906Y98959D01*
X37823Y99042D01*
X37758Y99134D01*
X37693Y99218D01*
X37638Y99310D01*
X37601Y99393D01*
X37536Y99560D01*
X37499Y99707D01*
X37490Y99772D01*
X37481Y99828D01*
X37471Y99874D01*
Y99911D01*
Y99929D01*
Y99939D01*
X37490Y100133D01*
X37536Y100309D01*
X37592Y100466D01*
X37666Y100604D01*
X37740Y100715D01*
X37795Y100799D01*
X37841Y100845D01*
X37860Y100863D01*
X38008Y100993D01*
X38165Y101085D01*
X38322Y101159D01*
X38470Y101205D01*
X38590Y101233D01*
X38692Y101242D01*
X38729Y101251D01*
X38784D01*
X38979Y101233D01*
D02*
G37*
%LPC*%
G36*
X167666Y203974D02*
X167648D01*
X167565Y203965D01*
X167500Y203937D01*
X167426Y203891D01*
X167361Y203836D01*
X167306Y203771D01*
X167250Y203697D01*
X167167Y203540D01*
X167093Y203374D01*
X167075Y203300D01*
X167047Y203235D01*
X167028Y203179D01*
X167019Y203133D01*
X167010Y203105D01*
Y203096D01*
X166964Y202883D01*
X166927Y202662D01*
X166899Y202458D01*
X166880Y202273D01*
X166871Y202107D01*
X166862Y202042D01*
Y201987D01*
Y201940D01*
Y201903D01*
Y201885D01*
Y201876D01*
X166871Y201635D01*
X166880Y201404D01*
X166908Y201201D01*
X166936Y201016D01*
X166964Y200859D01*
X166973Y200803D01*
X166982Y200748D01*
X166991Y200702D01*
X167001Y200674D01*
X167010Y200655D01*
Y200646D01*
X167047Y200489D01*
X167093Y200359D01*
X167149Y200239D01*
X167195Y200147D01*
X167250Y200064D01*
X167297Y199990D01*
X167352Y199934D01*
X167407Y199888D01*
X167454Y199851D01*
X167500Y199823D01*
X167574Y199795D01*
X167629Y199777D01*
X167648D01*
X167731Y199786D01*
X167805Y199814D01*
X167870Y199860D01*
X167934Y199916D01*
X167990Y199980D01*
X168045Y200054D01*
X168138Y200212D01*
X168203Y200369D01*
X168230Y200443D01*
X168258Y200507D01*
X168277Y200563D01*
X168286Y200609D01*
X168295Y200637D01*
Y200646D01*
X168341Y200868D01*
X168378Y201081D01*
X168397Y201284D01*
X168415Y201478D01*
X168424Y201635D01*
X168434Y201709D01*
Y201765D01*
Y201811D01*
Y201848D01*
Y201866D01*
Y201876D01*
X168424Y202107D01*
X168415Y202329D01*
X168388Y202541D01*
X168360Y202726D01*
X168341Y202874D01*
X168323Y202939D01*
X168314Y202994D01*
X168304Y203041D01*
Y203068D01*
X168295Y203087D01*
Y203096D01*
X168249Y203253D01*
X168203Y203383D01*
X168156Y203503D01*
X168101Y203605D01*
X168055Y203688D01*
X167999Y203762D01*
X167944Y203817D01*
X167888Y203864D01*
X167842Y203901D01*
X167796Y203928D01*
X167722Y203965D01*
X167666Y203974D01*
D02*
G37*
G36*
X175266D02*
X174221D01*
X174064Y203965D01*
X173916Y203928D01*
X173787Y203882D01*
X173676Y203827D01*
X173593Y203762D01*
X173528Y203716D01*
X173482Y203679D01*
X173473Y203669D01*
X173371Y203549D01*
X173297Y203420D01*
X173242Y203300D01*
X173204Y203179D01*
X173186Y203078D01*
X173167Y202994D01*
Y202939D01*
Y202930D01*
Y202920D01*
X173177Y202763D01*
X173214Y202615D01*
X173260Y202486D01*
X173315Y202384D01*
X173380Y202292D01*
X173426Y202227D01*
X173463Y202190D01*
X173473Y202172D01*
X173593Y202070D01*
X173722Y202005D01*
X173842Y201950D01*
X173963Y201913D01*
X174064Y201894D01*
X174147Y201885D01*
X174203Y201876D01*
X175266D01*
Y203974D01*
D02*
G37*
G36*
X155016D02*
X153972D01*
X153814Y203965D01*
X153666Y203928D01*
X153537Y203882D01*
X153426Y203827D01*
X153343Y203762D01*
X153278Y203716D01*
X153232Y203679D01*
X153223Y203669D01*
X153121Y203549D01*
X153047Y203420D01*
X152992Y203300D01*
X152955Y203179D01*
X152936Y203078D01*
X152917Y202994D01*
Y202939D01*
Y202930D01*
Y202920D01*
X152927Y202763D01*
X152964Y202615D01*
X153010Y202486D01*
X153065Y202384D01*
X153130Y202292D01*
X153176Y202227D01*
X153213Y202190D01*
X153223Y202172D01*
X153343Y202070D01*
X153472Y202005D01*
X153592Y201950D01*
X153713Y201913D01*
X153814Y201894D01*
X153897Y201885D01*
X153953Y201876D01*
X155016D01*
Y203974D01*
D02*
G37*
G36*
X174516Y106475D02*
X173472D01*
X173314Y106465D01*
X173166Y106428D01*
X173037Y106382D01*
X172926Y106327D01*
X172843Y106262D01*
X172778Y106216D01*
X172732Y106179D01*
X172723Y106169D01*
X172621Y106049D01*
X172547Y105920D01*
X172491Y105800D01*
X172454Y105679D01*
X172436Y105578D01*
X172418Y105494D01*
Y105439D01*
Y105430D01*
Y105421D01*
X172427Y105263D01*
X172464Y105115D01*
X172510Y104986D01*
X172565Y104884D01*
X172630Y104792D01*
X172676Y104727D01*
X172713Y104690D01*
X172723Y104672D01*
X172843Y104570D01*
X172972Y104505D01*
X173092Y104450D01*
X173213Y104413D01*
X173314Y104394D01*
X173398Y104385D01*
X173453Y104376D01*
X174516D01*
Y106475D01*
D02*
G37*
G36*
X65329Y67626D02*
X65274D01*
X65153Y67617D01*
X65052Y67589D01*
X64959Y67552D01*
X64876Y67515D01*
X64811Y67469D01*
X64756Y67432D01*
X64728Y67404D01*
X64719Y67395D01*
X64645Y67302D01*
X64590Y67210D01*
X64543Y67117D01*
X64516Y67025D01*
X64497Y66951D01*
X64488Y66886D01*
Y66849D01*
Y66831D01*
Y66313D01*
X64497Y66193D01*
X64525Y66082D01*
X64562Y65989D01*
X64599Y65906D01*
X64645Y65841D01*
X64682Y65795D01*
X64710Y65758D01*
X64719Y65749D01*
X64811Y65675D01*
X64904Y65620D01*
X64996Y65582D01*
X65079Y65555D01*
X65163Y65536D01*
X65218Y65527D01*
X65274D01*
X65394Y65536D01*
X65505Y65564D01*
X65597Y65601D01*
X65680Y65638D01*
X65745Y65675D01*
X65791Y65712D01*
X65828Y65740D01*
X65838Y65749D01*
X65912Y65841D01*
X65967Y65934D01*
X66004Y66026D01*
X66032Y66119D01*
X66050Y66193D01*
X66059Y66257D01*
Y66294D01*
Y66313D01*
Y66831D01*
X66050Y66951D01*
X66023Y67062D01*
X65985Y67154D01*
X65949Y67237D01*
X65912Y67302D01*
X65875Y67358D01*
X65847Y67385D01*
X65838Y67395D01*
X65745Y67469D01*
X65653Y67524D01*
X65560Y67570D01*
X65468Y67598D01*
X65394Y67617D01*
X65329Y67626D01*
D02*
G37*
G36*
Y69724D02*
X65274D01*
X65153Y69715D01*
X65052Y69688D01*
X64959Y69651D01*
X64876Y69614D01*
X64811Y69567D01*
X64756Y69530D01*
X64728Y69503D01*
X64719Y69493D01*
X64645Y69401D01*
X64590Y69308D01*
X64543Y69216D01*
X64516Y69133D01*
X64497Y69050D01*
X64488Y68994D01*
Y68957D01*
Y68939D01*
X64497Y68818D01*
X64525Y68707D01*
X64562Y68615D01*
X64599Y68532D01*
X64645Y68467D01*
X64682Y68421D01*
X64710Y68384D01*
X64719Y68375D01*
X64811Y68301D01*
X64904Y68245D01*
X64996Y68208D01*
X65079Y68180D01*
X65163Y68162D01*
X65218Y68153D01*
X65274D01*
X65394Y68162D01*
X65505Y68190D01*
X65597Y68227D01*
X65680Y68264D01*
X65745Y68301D01*
X65791Y68338D01*
X65828Y68365D01*
X65838Y68375D01*
X65912Y68467D01*
X65967Y68560D01*
X66004Y68652D01*
X66032Y68745D01*
X66050Y68818D01*
X66059Y68883D01*
Y68920D01*
Y68939D01*
X66050Y69059D01*
X66023Y69160D01*
X65985Y69253D01*
X65949Y69336D01*
X65912Y69401D01*
X65875Y69456D01*
X65847Y69484D01*
X65838Y69493D01*
X65745Y69567D01*
X65653Y69623D01*
X65560Y69669D01*
X65468Y69697D01*
X65394Y69715D01*
X65329Y69724D01*
D02*
G37*
G36*
X70266D02*
X69222D01*
X69064Y69715D01*
X68916Y69678D01*
X68787Y69632D01*
X68676Y69577D01*
X68593Y69512D01*
X68528Y69466D01*
X68482Y69429D01*
X68473Y69419D01*
X68371Y69299D01*
X68297Y69170D01*
X68242Y69050D01*
X68204Y68929D01*
X68186Y68828D01*
X68168Y68745D01*
Y68689D01*
Y68680D01*
Y68671D01*
X68177Y68513D01*
X68214Y68365D01*
X68260Y68236D01*
X68315Y68134D01*
X68380Y68042D01*
X68426Y67977D01*
X68463Y67940D01*
X68473Y67922D01*
X68593Y67820D01*
X68722Y67755D01*
X68842Y67700D01*
X68963Y67663D01*
X69064Y67644D01*
X69148Y67635D01*
X69203Y67626D01*
X70266D01*
Y69724D01*
D02*
G37*
G36*
X113206Y70974D02*
X113187D01*
X113104Y70965D01*
X113039Y70938D01*
X112965Y70891D01*
X112900Y70836D01*
X112845Y70771D01*
X112790Y70697D01*
X112706Y70540D01*
X112632Y70374D01*
X112614Y70300D01*
X112586Y70235D01*
X112568Y70179D01*
X112558Y70133D01*
X112549Y70105D01*
Y70096D01*
X112503Y69883D01*
X112466Y69662D01*
X112438Y69458D01*
X112420Y69273D01*
X112410Y69107D01*
X112401Y69042D01*
Y68987D01*
Y68941D01*
Y68903D01*
Y68885D01*
Y68876D01*
X112410Y68635D01*
X112420Y68404D01*
X112448Y68201D01*
X112475Y68016D01*
X112503Y67859D01*
X112512Y67803D01*
X112521Y67748D01*
X112531Y67702D01*
X112540Y67674D01*
X112549Y67655D01*
Y67646D01*
X112586Y67489D01*
X112632Y67359D01*
X112688Y67239D01*
X112734Y67147D01*
X112790Y67064D01*
X112836Y66990D01*
X112891Y66934D01*
X112947Y66888D01*
X112993Y66851D01*
X113039Y66823D01*
X113113Y66796D01*
X113169Y66777D01*
X113187D01*
X113270Y66786D01*
X113344Y66814D01*
X113409Y66860D01*
X113474Y66916D01*
X113529Y66980D01*
X113585Y67054D01*
X113677Y67211D01*
X113742Y67369D01*
X113770Y67443D01*
X113797Y67507D01*
X113816Y67563D01*
X113825Y67609D01*
X113834Y67637D01*
Y67646D01*
X113881Y67868D01*
X113918Y68081D01*
X113936Y68284D01*
X113954Y68478D01*
X113964Y68635D01*
X113973Y68709D01*
Y68765D01*
Y68811D01*
Y68848D01*
Y68867D01*
Y68876D01*
X113964Y69107D01*
X113954Y69329D01*
X113927Y69541D01*
X113899Y69726D01*
X113881Y69874D01*
X113862Y69939D01*
X113853Y69995D01*
X113844Y70041D01*
Y70068D01*
X113834Y70087D01*
Y70096D01*
X113788Y70253D01*
X113742Y70383D01*
X113696Y70503D01*
X113640Y70605D01*
X113594Y70688D01*
X113539Y70762D01*
X113483Y70817D01*
X113427Y70864D01*
X113381Y70901D01*
X113335Y70928D01*
X113261Y70965D01*
X113206Y70974D01*
D02*
G37*
G36*
X166706Y70725D02*
X166687D01*
X166604Y70715D01*
X166539Y70687D01*
X166465Y70641D01*
X166401Y70586D01*
X166345Y70521D01*
X166290Y70447D01*
X166206Y70290D01*
X166132Y70124D01*
X166114Y70050D01*
X166086Y69985D01*
X166068Y69929D01*
X166058Y69883D01*
X166049Y69855D01*
Y69846D01*
X166003Y69633D01*
X165966Y69412D01*
X165938Y69208D01*
X165920Y69023D01*
X165910Y68857D01*
X165901Y68792D01*
Y68737D01*
Y68691D01*
Y68653D01*
Y68635D01*
Y68626D01*
X165910Y68385D01*
X165920Y68154D01*
X165947Y67951D01*
X165975Y67766D01*
X166003Y67609D01*
X166012Y67553D01*
X166021Y67498D01*
X166031Y67452D01*
X166040Y67424D01*
X166049Y67405D01*
Y67396D01*
X166086Y67239D01*
X166132Y67109D01*
X166188Y66989D01*
X166234Y66897D01*
X166290Y66814D01*
X166336Y66740D01*
X166391Y66684D01*
X166447Y66638D01*
X166493Y66601D01*
X166539Y66573D01*
X166613Y66546D01*
X166669Y66527D01*
X166687D01*
X166770Y66536D01*
X166844Y66564D01*
X166909Y66610D01*
X166974Y66666D01*
X167029Y66730D01*
X167085Y66804D01*
X167177Y66961D01*
X167242Y67119D01*
X167270Y67193D01*
X167297Y67257D01*
X167316Y67313D01*
X167325Y67359D01*
X167334Y67387D01*
Y67396D01*
X167381Y67618D01*
X167418Y67831D01*
X167436Y68034D01*
X167454Y68228D01*
X167464Y68385D01*
X167473Y68459D01*
Y68515D01*
Y68561D01*
Y68598D01*
Y68616D01*
Y68626D01*
X167464Y68857D01*
X167454Y69079D01*
X167427Y69291D01*
X167399Y69476D01*
X167381Y69624D01*
X167362Y69689D01*
X167353Y69745D01*
X167344Y69791D01*
Y69818D01*
X167334Y69837D01*
Y69846D01*
X167288Y70003D01*
X167242Y70133D01*
X167196Y70253D01*
X167140Y70355D01*
X167094Y70438D01*
X167038Y70512D01*
X166983Y70567D01*
X166928Y70613D01*
X166881Y70651D01*
X166835Y70678D01*
X166761Y70715D01*
X166706Y70725D01*
D02*
G37*
G36*
X14956Y176224D02*
X14937D01*
X14854Y176215D01*
X14789Y176187D01*
X14715Y176141D01*
X14650Y176086D01*
X14595Y176021D01*
X14540Y175947D01*
X14456Y175790D01*
X14382Y175624D01*
X14364Y175550D01*
X14336Y175485D01*
X14318Y175429D01*
X14308Y175383D01*
X14299Y175355D01*
Y175346D01*
X14253Y175133D01*
X14216Y174912D01*
X14188Y174708D01*
X14170Y174523D01*
X14160Y174357D01*
X14151Y174292D01*
Y174237D01*
Y174191D01*
Y174153D01*
Y174135D01*
Y174126D01*
X14160Y173885D01*
X14170Y173654D01*
X14197Y173451D01*
X14225Y173266D01*
X14253Y173109D01*
X14262Y173053D01*
X14271Y172998D01*
X14281Y172952D01*
X14290Y172924D01*
X14299Y172905D01*
Y172896D01*
X14336Y172739D01*
X14382Y172610D01*
X14438Y172489D01*
X14484Y172397D01*
X14540Y172314D01*
X14586Y172240D01*
X14641Y172184D01*
X14697Y172138D01*
X14743Y172101D01*
X14789Y172073D01*
X14863Y172045D01*
X14919Y172027D01*
X14937D01*
X15020Y172036D01*
X15094Y172064D01*
X15159Y172110D01*
X15224Y172166D01*
X15279Y172230D01*
X15335Y172304D01*
X15427Y172462D01*
X15492Y172619D01*
X15520Y172693D01*
X15547Y172757D01*
X15566Y172813D01*
X15575Y172859D01*
X15584Y172887D01*
Y172896D01*
X15631Y173118D01*
X15668Y173331D01*
X15686Y173534D01*
X15704Y173728D01*
X15714Y173885D01*
X15723Y173959D01*
Y174015D01*
Y174061D01*
Y174098D01*
Y174116D01*
Y174126D01*
X15714Y174357D01*
X15704Y174579D01*
X15677Y174791D01*
X15649Y174976D01*
X15631Y175124D01*
X15612Y175189D01*
X15603Y175245D01*
X15594Y175291D01*
Y175318D01*
X15584Y175337D01*
Y175346D01*
X15538Y175503D01*
X15492Y175633D01*
X15446Y175753D01*
X15390Y175855D01*
X15344Y175938D01*
X15288Y176012D01*
X15233Y176067D01*
X15178Y176114D01*
X15131Y176150D01*
X15085Y176178D01*
X15011Y176215D01*
X14956Y176224D01*
D02*
G37*
G36*
X188456Y86725D02*
X188437D01*
X188354Y86715D01*
X188289Y86687D01*
X188215Y86641D01*
X188151Y86586D01*
X188095Y86521D01*
X188040Y86447D01*
X187956Y86290D01*
X187882Y86124D01*
X187864Y86050D01*
X187836Y85985D01*
X187818Y85929D01*
X187808Y85883D01*
X187799Y85855D01*
Y85846D01*
X187753Y85633D01*
X187716Y85412D01*
X187688Y85208D01*
X187670Y85023D01*
X187661Y84857D01*
X187651Y84792D01*
Y84737D01*
Y84691D01*
Y84654D01*
Y84635D01*
Y84626D01*
X187661Y84385D01*
X187670Y84154D01*
X187698Y83951D01*
X187725Y83766D01*
X187753Y83609D01*
X187762Y83553D01*
X187771Y83498D01*
X187781Y83451D01*
X187790Y83424D01*
X187799Y83405D01*
Y83396D01*
X187836Y83239D01*
X187882Y83110D01*
X187938Y82989D01*
X187984Y82897D01*
X188040Y82814D01*
X188086Y82740D01*
X188141Y82684D01*
X188197Y82638D01*
X188243Y82601D01*
X188289Y82573D01*
X188363Y82545D01*
X188419Y82527D01*
X188437D01*
X188520Y82536D01*
X188594Y82564D01*
X188659Y82610D01*
X188724Y82666D01*
X188779Y82730D01*
X188835Y82804D01*
X188927Y82962D01*
X188992Y83119D01*
X189020Y83193D01*
X189047Y83257D01*
X189066Y83313D01*
X189075Y83359D01*
X189084Y83387D01*
Y83396D01*
X189130Y83618D01*
X189167Y83831D01*
X189186Y84034D01*
X189205Y84228D01*
X189214Y84385D01*
X189223Y84459D01*
Y84515D01*
Y84561D01*
Y84598D01*
Y84616D01*
Y84626D01*
X189214Y84857D01*
X189205Y85079D01*
X189177Y85291D01*
X189149Y85476D01*
X189130Y85624D01*
X189112Y85689D01*
X189103Y85744D01*
X189094Y85791D01*
Y85818D01*
X189084Y85837D01*
Y85846D01*
X189038Y86003D01*
X188992Y86133D01*
X188946Y86253D01*
X188890Y86355D01*
X188844Y86438D01*
X188788Y86512D01*
X188733Y86567D01*
X188678Y86614D01*
X188631Y86650D01*
X188585Y86678D01*
X188511Y86715D01*
X188456Y86725D01*
D02*
G37*
G36*
X134766Y204224D02*
X133722D01*
X133564Y204215D01*
X133416Y204178D01*
X133287Y204132D01*
X133176Y204077D01*
X133093Y204012D01*
X133028Y203966D01*
X132982Y203929D01*
X132973Y203919D01*
X132871Y203799D01*
X132797Y203670D01*
X132741Y203550D01*
X132704Y203429D01*
X132686Y203328D01*
X132668Y203244D01*
Y203189D01*
Y203180D01*
Y203171D01*
X132677Y203013D01*
X132714Y202865D01*
X132760Y202736D01*
X132815Y202634D01*
X132880Y202542D01*
X132926Y202477D01*
X132963Y202440D01*
X132973Y202422D01*
X133093Y202320D01*
X133222Y202255D01*
X133342Y202200D01*
X133463Y202163D01*
X133564Y202144D01*
X133647Y202135D01*
X133703Y202126D01*
X134766D01*
Y204224D01*
D02*
G37*
G36*
X187956Y133475D02*
X187937D01*
X187854Y133465D01*
X187789Y133438D01*
X187715Y133391D01*
X187651Y133336D01*
X187595Y133271D01*
X187540Y133197D01*
X187456Y133040D01*
X187382Y132873D01*
X187364Y132800D01*
X187336Y132735D01*
X187318Y132679D01*
X187308Y132633D01*
X187299Y132605D01*
Y132596D01*
X187253Y132383D01*
X187216Y132162D01*
X187188Y131958D01*
X187170Y131773D01*
X187160Y131607D01*
X187151Y131542D01*
Y131487D01*
Y131440D01*
Y131404D01*
Y131385D01*
Y131376D01*
X187160Y131135D01*
X187170Y130904D01*
X187197Y130701D01*
X187225Y130516D01*
X187253Y130359D01*
X187262Y130303D01*
X187271Y130248D01*
X187281Y130202D01*
X187290Y130174D01*
X187299Y130155D01*
Y130146D01*
X187336Y129989D01*
X187382Y129860D01*
X187438Y129739D01*
X187484Y129647D01*
X187540Y129564D01*
X187586Y129490D01*
X187641Y129434D01*
X187697Y129388D01*
X187743Y129351D01*
X187789Y129323D01*
X187863Y129296D01*
X187919Y129277D01*
X187937D01*
X188020Y129286D01*
X188094Y129314D01*
X188159Y129360D01*
X188224Y129416D01*
X188279Y129480D01*
X188335Y129554D01*
X188427Y129712D01*
X188492Y129869D01*
X188520Y129943D01*
X188547Y130007D01*
X188566Y130063D01*
X188575Y130109D01*
X188584Y130137D01*
Y130146D01*
X188631Y130368D01*
X188668Y130581D01*
X188686Y130784D01*
X188704Y130978D01*
X188714Y131135D01*
X188723Y131209D01*
Y131265D01*
Y131311D01*
Y131348D01*
Y131367D01*
Y131376D01*
X188714Y131607D01*
X188704Y131829D01*
X188677Y132041D01*
X188649Y132226D01*
X188631Y132374D01*
X188612Y132439D01*
X188603Y132494D01*
X188594Y132541D01*
Y132568D01*
X188584Y132587D01*
Y132596D01*
X188538Y132753D01*
X188492Y132883D01*
X188446Y133003D01*
X188390Y133105D01*
X188344Y133188D01*
X188288Y133262D01*
X188233Y133317D01*
X188178Y133364D01*
X188131Y133400D01*
X188085Y133428D01*
X188011Y133465D01*
X187956Y133475D01*
D02*
G37*
G36*
X105070Y43376D02*
X104284D01*
X104164Y43366D01*
X104062Y43339D01*
X103970Y43302D01*
X103887Y43265D01*
X103822Y43219D01*
X103767Y43182D01*
X103739Y43154D01*
X103730Y43145D01*
X103656Y43052D01*
X103600Y42960D01*
X103554Y42867D01*
X103526Y42775D01*
X103508Y42701D01*
X103498Y42636D01*
Y42599D01*
Y42581D01*
Y42063D01*
X103508Y41943D01*
X103535Y41832D01*
X103573Y41739D01*
X103609Y41656D01*
X103656Y41591D01*
X103693Y41545D01*
X103720Y41508D01*
X103730Y41499D01*
X103822Y41425D01*
X103914Y41370D01*
X104007Y41333D01*
X104090Y41305D01*
X104173Y41286D01*
X104229Y41277D01*
X104284D01*
X104405Y41286D01*
X104515Y41314D01*
X104608Y41351D01*
X104691Y41388D01*
X104756Y41425D01*
X104802Y41462D01*
X104839Y41490D01*
X104848Y41499D01*
X104922Y41591D01*
X104978Y41684D01*
X105015Y41776D01*
X105042Y41869D01*
X105061Y41943D01*
X105070Y42007D01*
Y42044D01*
Y42063D01*
Y43376D01*
D02*
G37*
G36*
X38340Y80225D02*
X38284D01*
X38164Y80215D01*
X38063Y80188D01*
X37970Y80150D01*
X37887Y80114D01*
X37822Y80067D01*
X37767Y80030D01*
X37739Y80003D01*
X37730Y79993D01*
X37656Y79901D01*
X37600Y79809D01*
X37554Y79716D01*
X37526Y79623D01*
X37508Y79550D01*
X37499Y79485D01*
Y79448D01*
Y79429D01*
Y78126D01*
X38284D01*
X38405Y78135D01*
X38516Y78163D01*
X38608Y78200D01*
X38691Y78237D01*
X38756Y78274D01*
X38802Y78311D01*
X38839Y78338D01*
X38848Y78348D01*
X38922Y78440D01*
X38978Y78533D01*
X39015Y78625D01*
X39042Y78717D01*
X39061Y78791D01*
X39070Y78856D01*
Y78893D01*
Y78912D01*
Y79429D01*
X39061Y79550D01*
X39033Y79661D01*
X38996Y79753D01*
X38959Y79836D01*
X38922Y79901D01*
X38885Y79956D01*
X38858Y79984D01*
X38848Y79993D01*
X38756Y80067D01*
X38663Y80123D01*
X38571Y80169D01*
X38479Y80197D01*
X38405Y80215D01*
X38340Y80225D01*
D02*
G37*
G36*
X181516Y168974D02*
X180471D01*
X180314Y168965D01*
X180166Y168928D01*
X180037Y168882D01*
X179926Y168827D01*
X179843Y168762D01*
X179778Y168716D01*
X179732Y168679D01*
X179723Y168669D01*
X179621Y168549D01*
X179547Y168420D01*
X179492Y168300D01*
X179454Y168179D01*
X179436Y168078D01*
X179417Y167994D01*
Y167939D01*
Y167930D01*
Y167920D01*
X179427Y167763D01*
X179464Y167615D01*
X179510Y167486D01*
X179565Y167384D01*
X179630Y167292D01*
X179676Y167227D01*
X179713Y167190D01*
X179723Y167172D01*
X179843Y167070D01*
X179972Y167005D01*
X180092Y166950D01*
X180213Y166913D01*
X180314Y166894D01*
X180397Y166885D01*
X180453Y166876D01*
X181516D01*
Y168974D01*
D02*
G37*
G36*
X38840Y98626D02*
X38784D01*
X38664Y98617D01*
X38563Y98589D01*
X38470Y98552D01*
X38387Y98515D01*
X38322Y98469D01*
X38267Y98432D01*
X38239Y98404D01*
X38230Y98395D01*
X38156Y98302D01*
X38100Y98210D01*
X38054Y98117D01*
X38026Y98025D01*
X38008Y97951D01*
X37998Y97886D01*
Y97849D01*
Y97831D01*
Y97313D01*
X38008Y97193D01*
X38036Y97082D01*
X38073Y96989D01*
X38109Y96906D01*
X38156Y96841D01*
X38193Y96795D01*
X38220Y96758D01*
X38230Y96749D01*
X38322Y96675D01*
X38415Y96620D01*
X38507Y96582D01*
X38590Y96555D01*
X38673Y96536D01*
X38729Y96527D01*
X38784D01*
X38905Y96536D01*
X39016Y96564D01*
X39108Y96601D01*
X39191Y96638D01*
X39256Y96675D01*
X39302Y96712D01*
X39339Y96740D01*
X39348Y96749D01*
X39422Y96841D01*
X39478Y96934D01*
X39515Y97026D01*
X39543Y97119D01*
X39561Y97193D01*
X39570Y97257D01*
Y97294D01*
Y97313D01*
Y97831D01*
X39561Y97951D01*
X39533Y98062D01*
X39496Y98154D01*
X39459Y98237D01*
X39422Y98302D01*
X39385Y98358D01*
X39358Y98385D01*
X39348Y98395D01*
X39256Y98469D01*
X39163Y98524D01*
X39071Y98570D01*
X38979Y98598D01*
X38905Y98617D01*
X38840Y98626D01*
D02*
G37*
G36*
Y100724D02*
X38784D01*
X38664Y100715D01*
X38563Y100688D01*
X38470Y100651D01*
X38387Y100614D01*
X38322Y100567D01*
X38267Y100530D01*
X38239Y100503D01*
X38230Y100493D01*
X38156Y100401D01*
X38100Y100309D01*
X38054Y100216D01*
X38026Y100133D01*
X38008Y100050D01*
X37998Y99994D01*
Y99957D01*
Y99939D01*
X38008Y99818D01*
X38036Y99707D01*
X38073Y99615D01*
X38109Y99532D01*
X38156Y99467D01*
X38193Y99421D01*
X38220Y99384D01*
X38230Y99375D01*
X38322Y99301D01*
X38415Y99245D01*
X38507Y99208D01*
X38590Y99180D01*
X38673Y99162D01*
X38729Y99153D01*
X38784D01*
X38905Y99162D01*
X39016Y99190D01*
X39108Y99227D01*
X39191Y99264D01*
X39256Y99301D01*
X39302Y99338D01*
X39339Y99365D01*
X39348Y99375D01*
X39422Y99467D01*
X39478Y99560D01*
X39515Y99652D01*
X39543Y99745D01*
X39561Y99818D01*
X39570Y99883D01*
Y99920D01*
Y99939D01*
X39561Y100059D01*
X39533Y100161D01*
X39496Y100253D01*
X39459Y100336D01*
X39422Y100401D01*
X39385Y100456D01*
X39358Y100484D01*
X39348Y100493D01*
X39256Y100567D01*
X39163Y100623D01*
X39071Y100669D01*
X38979Y100697D01*
X38905Y100715D01*
X38840Y100724D01*
D02*
G37*
%LPD*%
D18*
X203767Y167250D02*
G03*
X203767Y167250I-7517J0D01*
G01*
X197267Y104750D02*
G03*
X197267Y104750I-7517J0D01*
G01*
X76517Y55060D02*
G03*
X76517Y55060I-7517J0D01*
G01*
X185867Y190000D02*
G03*
X185867Y190000I-7517J0D01*
G01*
X165467D02*
G03*
X165467Y190000I-7517J0D01*
G01*
X145067D02*
G03*
X145067Y190000I-7517J0D01*
G01*
X181000Y135750D02*
X195000Y135750D01*
X181000Y151750D02*
X195000D01*
Y147250D02*
Y151750D01*
Y135750D02*
Y140250D01*
X181000D02*
X181000Y135750D01*
Y147250D02*
Y151750D01*
X195000Y135750D02*
X209000D01*
X195000Y151750D02*
X209000D01*
X209000Y147250D02*
X209000Y151750D01*
X209000Y135750D02*
Y140250D01*
X195000Y135750D02*
Y140250D01*
Y151750D02*
X195000Y147250D01*
X195000Y80000D02*
X209000Y80000D01*
X195000Y64000D02*
X209000D01*
X195000D02*
Y68500D01*
Y75500D02*
Y80000D01*
X209000Y80000D02*
X209000Y75500D01*
X209000Y64000D02*
Y68500D01*
X181000Y80000D02*
X195000D01*
X181000Y64000D02*
X195000D01*
X181000D02*
X181000Y68500D01*
X181000Y80000D02*
X181000Y75500D01*
X195000D02*
X195000Y80000D01*
Y68500D02*
X195000Y64000D01*
X21000Y170000D02*
X35000Y170000D01*
X21000Y154000D02*
X35000D01*
X21000D02*
Y158500D01*
Y165500D02*
Y170000D01*
X35000Y170000D02*
X35000Y165500D01*
X35000Y154000D02*
Y158500D01*
X7000Y170000D02*
X21000D01*
X7000Y154000D02*
X21000D01*
X7000D02*
X7000Y158500D01*
Y165500D02*
Y170000D01*
X21000Y165500D02*
Y170000D01*
X21000Y158500D02*
X21000Y154000D01*
X21000Y149000D02*
X35000Y149000D01*
X21000Y133000D02*
X35000D01*
X21000D02*
Y137500D01*
Y144500D02*
Y149000D01*
X35000Y149000D02*
X35000Y144500D01*
X35000Y133000D02*
Y137500D01*
X7000Y149000D02*
X21000Y149000D01*
X7000Y133000D02*
X21000D01*
X7000D02*
X7000Y137500D01*
Y144500D02*
Y149000D01*
X21000Y149000D02*
X21000Y144500D01*
X21000Y137500D02*
X21000Y133000D01*
X21000Y128000D02*
X35000Y128000D01*
X21000Y112000D02*
X35000D01*
X21000D02*
Y116500D01*
Y123500D02*
Y128000D01*
X35000Y128000D02*
X35000Y123500D01*
X35000Y112000D02*
Y116500D01*
X7000Y128000D02*
X21000D01*
X7000Y112000D02*
X21000D01*
X7000D02*
X7000Y116500D01*
X7000Y128000D02*
X7000Y123500D01*
X21000D02*
X21000Y128000D01*
Y116500D02*
X21000Y112000D01*
X92000Y48250D02*
X106000Y48250D01*
X92000Y64250D02*
X106000D01*
Y59750D02*
Y64250D01*
Y48250D02*
Y52750D01*
X92000D02*
X92000Y48250D01*
Y59750D02*
Y64250D01*
X106000Y48250D02*
X120000D01*
X106000Y64250D02*
X120000D01*
X120000Y59750D02*
X120000Y64250D01*
Y52750D02*
X120000Y48250D01*
X106000D02*
X106000Y52750D01*
X106000Y64250D02*
X106000Y59750D01*
X146000Y48500D02*
X160000Y48500D01*
X146000Y64500D02*
X160000D01*
Y60000D02*
Y64500D01*
Y48500D02*
Y53000D01*
X146000D02*
X146000Y48500D01*
Y60000D02*
Y64500D01*
X160000Y48500D02*
X174000D01*
X160000Y64500D02*
X174000D01*
X174000Y60000D02*
X174000Y64500D01*
X174000Y48500D02*
Y53000D01*
X160000Y48500D02*
Y53000D01*
Y64500D02*
X160000Y60000D01*
X21000Y107000D02*
X35000Y107000D01*
X21000Y91000D02*
X35000D01*
X21000D02*
Y95500D01*
Y102500D02*
Y107000D01*
X35000Y107000D02*
X35000Y102500D01*
X35000Y91000D02*
Y95500D01*
X7000Y107000D02*
X21000D01*
X7000Y91000D02*
X21000D01*
X7000D02*
Y95500D01*
Y102500D02*
Y107000D01*
X21000Y102500D02*
Y107000D01*
Y91000D02*
Y95500D01*
X21000Y86000D02*
X35000Y86000D01*
X21000Y70000D02*
X35000D01*
X21000D02*
Y74500D01*
Y81500D02*
Y86000D01*
X35000Y86000D02*
X35000Y81500D01*
X35000Y70000D02*
Y74500D01*
X7000Y86000D02*
X21000D01*
X7000Y70000D02*
X21000D01*
X7000D02*
X7000Y74500D01*
Y81500D02*
Y86000D01*
X21000Y81500D02*
Y86000D01*
X21000Y74500D02*
X21000Y70000D01*
M02*
