G04 Layer_Physical_Order=2*
G04 Layer_Color=16711680*
%FSLAX44Y44*%
%MOMM*%
G71*
G01*
G75*
%ADD11C,1.0000*%
%ADD20C,0.5000*%
%ADD21C,2.0000*%
%ADD22R,2.0000X2.0000*%
%ADD23R,2.0000X2.0000*%
%ADD24C,5.0000*%
%ADD25C,0.6000*%
%ADD26C,1.2000*%
%ADD27R,1.0000X0.5000*%
%ADD28R,0.5000X1.0000*%
G36*
X203076Y236660D02*
X201463Y236273D01*
X197458Y234614D01*
X193762Y232349D01*
X191992Y230837D01*
X211414Y211414D01*
X210000Y210000D01*
X211414Y208586D01*
X191992Y189163D01*
X193762Y187651D01*
X197458Y185386D01*
X201463Y183727D01*
X205679Y182715D01*
X210000Y182375D01*
X214321Y182715D01*
X215842Y183080D01*
X216401Y181908D01*
X216056Y181644D01*
X214046Y179024D01*
X212783Y175974D01*
X212352Y172700D01*
X212783Y169426D01*
X214046Y166376D01*
X214828Y165357D01*
X223586Y174114D01*
X225000Y172700D01*
X226414Y174114D01*
X235172Y165357D01*
X235954Y166376D01*
X236660Y168082D01*
X237930Y167829D01*
Y98471D01*
X236660Y98218D01*
X235954Y99924D01*
X235172Y100943D01*
X227828Y93600D01*
X235172Y86257D01*
X235954Y87276D01*
X236660Y88982D01*
X237930Y88729D01*
Y37074D01*
X236660Y36924D01*
X236273Y38537D01*
X234614Y42541D01*
X232349Y46238D01*
X230837Y48008D01*
X211414Y28586D01*
X191992Y9163D01*
X193762Y7651D01*
X197458Y5386D01*
X201463Y3727D01*
X203076Y3340D01*
X202925Y2070D01*
X124871D01*
X124618Y3340D01*
X126324Y4046D01*
X127343Y4828D01*
X120000Y12172D01*
X112657Y4828D01*
X113676Y4046D01*
X115382Y3340D01*
X115129Y2070D01*
X37074D01*
X36924Y3340D01*
X38537Y3727D01*
X42541Y5386D01*
X46238Y7651D01*
X48008Y9163D01*
X28586Y28586D01*
X9163Y48008D01*
X7651Y46238D01*
X5386Y42541D01*
X3727Y38537D01*
X3340Y36924D01*
X2070Y37074D01*
Y202925D01*
X3340Y203076D01*
X3727Y201463D01*
X5386Y197458D01*
X7651Y193762D01*
X9163Y191992D01*
X28586Y211414D01*
X48008Y230837D01*
X46238Y232349D01*
X42541Y234614D01*
X38537Y236273D01*
X36924Y236660D01*
X37075Y237930D01*
X63162D01*
X63593Y236660D01*
X62957Y236172D01*
X71714Y227414D01*
X80472Y218657D01*
X81254Y219676D01*
X82517Y222726D01*
X82900Y225634D01*
X84170Y225551D01*
Y214470D01*
X91591D01*
Y206300D01*
X91904Y204728D01*
X92795Y203395D01*
X96845Y199345D01*
X98178Y198454D01*
X99750Y198141D01*
X143998D01*
X151454Y190685D01*
X151364Y190000D01*
X151588Y188295D01*
X152246Y186707D01*
X153293Y185343D01*
X154657Y184296D01*
X156245Y183638D01*
X157950Y183414D01*
X158635Y183504D01*
X162141Y179998D01*
Y173466D01*
X160871Y172940D01*
X144099Y189712D01*
X144136Y190000D01*
X143912Y191705D01*
X143254Y193293D01*
X142207Y194657D01*
X140843Y195704D01*
X139255Y196362D01*
X137550Y196586D01*
X135845Y196362D01*
X134257Y195704D01*
X132893Y194657D01*
X131846Y193293D01*
X131188Y191705D01*
X130964Y190000D01*
X131188Y188295D01*
X131846Y186707D01*
X132893Y185343D01*
X134257Y184296D01*
X135845Y183638D01*
X137550Y183414D01*
X138633Y183556D01*
X154391Y167798D01*
Y144004D01*
X154233Y143767D01*
X153881Y142000D01*
X154233Y140232D01*
X155234Y138734D01*
X156733Y137733D01*
X158500Y137381D01*
X160268Y137733D01*
X161552Y138591D01*
X162375Y138702D01*
X163198Y138591D01*
X164482Y137733D01*
X166250Y137381D01*
X168018Y137733D01*
X169302Y138591D01*
X170125Y138702D01*
X170948Y138591D01*
X172232Y137733D01*
X174000Y137381D01*
X175767Y137733D01*
X177266Y138734D01*
X178267Y140232D01*
X178323Y140512D01*
X181256Y143445D01*
X182146Y144778D01*
X182459Y146350D01*
Y184922D01*
X183008Y185343D01*
X184054Y186707D01*
X184712Y188295D01*
X184937Y190000D01*
X184712Y191705D01*
X184054Y193293D01*
X183008Y194657D01*
X181643Y195704D01*
X180055Y196362D01*
X178350Y196586D01*
X176646Y196362D01*
X175057Y195704D01*
X173693Y194657D01*
X172646Y193293D01*
X171988Y191705D01*
X171764Y190000D01*
X171988Y188295D01*
X172646Y186707D01*
X173693Y185343D01*
X174241Y184922D01*
Y148052D01*
X172512Y146323D01*
X172232Y146267D01*
X171629Y145864D01*
X170359Y146543D01*
Y181700D01*
X170046Y183273D01*
X169156Y184606D01*
X164446Y189315D01*
X164536Y190000D01*
X164312Y191705D01*
X163654Y193293D01*
X162607Y194657D01*
X161243Y195704D01*
X159655Y196362D01*
X157950Y196586D01*
X157265Y196496D01*
X148606Y205155D01*
X147273Y206046D01*
X145700Y206359D01*
X101452D01*
X99809Y208002D01*
Y214470D01*
X107230D01*
Y236660D01*
X107230Y237530D01*
X108334Y237930D01*
X121666Y237930D01*
X122770Y236660D01*
Y214470D01*
X145830D01*
Y225550D01*
X147100Y225633D01*
X147483Y222726D01*
X148746Y219676D01*
X149528Y218657D01*
X158286Y227414D01*
X167043Y236172D01*
X166407Y236660D01*
X166838Y237930D01*
X202925D01*
X203076Y236660D01*
D02*
G37*
%LPC*%
G36*
X210000Y57625D02*
X205679Y57285D01*
X201463Y56273D01*
X197458Y54614D01*
X193762Y52349D01*
X191992Y50837D01*
X210000Y32829D01*
X228008Y50837D01*
X226238Y52349D01*
X222542Y54614D01*
X218537Y56273D01*
X214321Y57285D01*
X210000Y57625D01*
D02*
G37*
G36*
X30000D02*
X25679Y57285D01*
X21463Y56273D01*
X17458Y54614D01*
X13762Y52349D01*
X11991Y50837D01*
X30000Y32828D01*
X48008Y50837D01*
X46238Y52349D01*
X42541Y54614D01*
X38537Y56273D01*
X34321Y57285D01*
X30000Y57625D01*
D02*
G37*
G36*
X236530Y130530D02*
X213470D01*
Y107470D01*
X224550D01*
X224634Y106200D01*
X224149Y106136D01*
X221726Y105817D01*
X218676Y104554D01*
X217657Y103772D01*
X225000Y96428D01*
X232343Y103772D01*
X231324Y104554D01*
X228274Y105817D01*
X225851Y106136D01*
X225366Y106200D01*
X225450Y107470D01*
X236530D01*
Y130530D01*
D02*
G37*
G36*
X214828Y100943D02*
X214046Y99924D01*
X212783Y96874D01*
X212352Y93600D01*
X212783Y90326D01*
X214046Y87276D01*
X214828Y86257D01*
X222171Y93600D01*
X214828Y100943D01*
D02*
G37*
G36*
X120000Y27648D02*
X116726Y27217D01*
X113676Y25954D01*
X112657Y25172D01*
X120000Y17828D01*
X127343Y25172D01*
X126324Y25954D01*
X123274Y27217D01*
X120000Y27648D01*
D02*
G37*
G36*
X50837Y48008D02*
X32828Y30000D01*
X50837Y11991D01*
X52349Y13762D01*
X54614Y17458D01*
X56273Y21463D01*
X57285Y25679D01*
X57625Y30000D01*
X57285Y34321D01*
X56273Y38537D01*
X54614Y42541D01*
X52349Y46238D01*
X50837Y48008D01*
D02*
G37*
G36*
X94600Y26630D02*
X91590Y26233D01*
X88785Y25071D01*
X86377Y23223D01*
X84529Y20815D01*
X83367Y18010D01*
X82971Y15000D01*
X83367Y11990D01*
X84529Y9185D01*
X86377Y6777D01*
X88785Y4929D01*
X91590Y3767D01*
X94600Y3370D01*
X97610Y3767D01*
X100415Y4929D01*
X102823Y6777D01*
X104671Y9185D01*
X105833Y11990D01*
X106142Y14336D01*
X106150Y14397D01*
X107431D01*
X107439Y14336D01*
X107783Y11726D01*
X109046Y8676D01*
X109828Y7657D01*
X117172Y15000D01*
X109828Y22343D01*
X109046Y21324D01*
X107783Y18274D01*
X107439Y15664D01*
X107431Y15603D01*
X106150D01*
X106142Y15664D01*
X105833Y18010D01*
X104671Y20815D01*
X102823Y23223D01*
X100415Y25071D01*
X97610Y26233D01*
X94600Y26630D01*
D02*
G37*
G36*
X156930Y26530D02*
X133870D01*
Y15449D01*
X132600Y15366D01*
X132536Y15851D01*
X132217Y18274D01*
X130954Y21324D01*
X130172Y22343D01*
X122829Y15000D01*
X130172Y7657D01*
X130954Y8676D01*
X132217Y11726D01*
X132536Y14149D01*
X132600Y14634D01*
X133870Y14551D01*
Y3470D01*
X156930D01*
Y26530D01*
D02*
G37*
G36*
X189163Y48008D02*
X187651Y46238D01*
X185386Y42541D01*
X183727Y38537D01*
X182715Y34321D01*
X182375Y30000D01*
X182715Y25679D01*
X183727Y21463D01*
X185386Y17458D01*
X187651Y13762D01*
X189163Y11992D01*
X207171Y30000D01*
X189163Y48008D01*
D02*
G37*
G36*
X70300Y223172D02*
X62957Y215828D01*
X63976Y215046D01*
X67026Y213783D01*
X70300Y213352D01*
X73574Y213783D01*
X76624Y215046D01*
X77643Y215828D01*
X70300Y223172D01*
D02*
G37*
G36*
X189163Y228008D02*
X187651Y226238D01*
X185386Y222542D01*
X183727Y218537D01*
X182715Y214321D01*
X182375Y210000D01*
X182715Y205679D01*
X183727Y201463D01*
X185386Y197458D01*
X187651Y193762D01*
X189163Y191992D01*
X207171Y210000D01*
X189163Y228008D01*
D02*
G37*
G36*
X159700Y223172D02*
X152357Y215828D01*
X153376Y215046D01*
X156426Y213783D01*
X159700Y213352D01*
X162974Y213783D01*
X166024Y215046D01*
X167043Y215828D01*
X159700Y223172D01*
D02*
G37*
G36*
X169872Y233343D02*
X162528Y226000D01*
X169872Y218657D01*
X170654Y219676D01*
X171917Y222726D01*
X172348Y226000D01*
X171917Y229274D01*
X170654Y232324D01*
X169872Y233343D01*
D02*
G37*
G36*
X60128Y233343D02*
X59346Y232324D01*
X58083Y229274D01*
X57652Y226000D01*
X58083Y222726D01*
X59346Y219676D01*
X60128Y218657D01*
X67472Y226000D01*
X60128Y233343D01*
D02*
G37*
G36*
X50837Y228008D02*
X32829Y210000D01*
X50837Y191992D01*
X52349Y193762D01*
X54614Y197458D01*
X56273Y201463D01*
X57285Y205679D01*
X57625Y210000D01*
X57285Y214321D01*
X56273Y218537D01*
X54614Y222542D01*
X52349Y226238D01*
X50837Y228008D01*
D02*
G37*
G36*
X38000Y170619D02*
X36233Y170267D01*
X35247Y169609D01*
X28000D01*
X28000Y169609D01*
X14000D01*
X13603Y169530D01*
X7470D01*
Y161470D01*
X13603D01*
X14000Y161391D01*
X21470D01*
Y154470D01*
X27603D01*
X28000Y154391D01*
X35298D01*
X38968Y150721D01*
X38342Y149551D01*
X38000Y149619D01*
X36233Y149267D01*
X35247Y148609D01*
X28000D01*
X28000Y148609D01*
X14000D01*
X13603Y148530D01*
X7470D01*
Y140470D01*
X13603D01*
X14000Y140391D01*
X21470D01*
Y133470D01*
X27603D01*
X28000Y133391D01*
X32740D01*
X36641Y129490D01*
X36330Y128468D01*
X36134Y128201D01*
X35247Y127609D01*
X28000D01*
X28000Y127609D01*
X14000D01*
X13603Y127530D01*
X7470D01*
Y119470D01*
X13603D01*
X14000Y119391D01*
X21470D01*
Y112470D01*
X27603D01*
X28000Y112391D01*
X40891D01*
Y107864D01*
X40035Y107406D01*
X39621Y107296D01*
X38000Y107619D01*
X36233Y107267D01*
X35247Y106609D01*
X28000D01*
X28000Y106609D01*
X14000D01*
X13603Y106530D01*
X7470D01*
Y98470D01*
X13603D01*
X14000Y98391D01*
X21470D01*
Y91470D01*
X27603D01*
X28000Y91391D01*
X37153D01*
X37175Y91376D01*
X37251Y91391D01*
X37319D01*
X37413Y91346D01*
X38262Y91301D01*
X38892Y91190D01*
X39391Y91024D01*
X39775Y90817D01*
X40073Y90573D01*
X40317Y90275D01*
X40524Y89891D01*
X40690Y89392D01*
X40802Y88762D01*
X40846Y87913D01*
X40891Y87819D01*
Y86863D01*
X40035Y86406D01*
X39621Y86296D01*
X38000Y86619D01*
X36233Y86267D01*
X35247Y85609D01*
X28000D01*
X28000Y85609D01*
X14000D01*
X13603Y85530D01*
X7470D01*
Y77470D01*
X13603D01*
X14000Y77391D01*
X21470D01*
Y70470D01*
X27603D01*
X28000Y70391D01*
X40500D01*
X42072Y70704D01*
X43405Y71595D01*
X45030Y73219D01*
X62504Y55745D01*
X62414Y55060D01*
X62638Y53355D01*
X63296Y51767D01*
X64343Y50403D01*
X65707Y49356D01*
X67295Y48698D01*
X69000Y48474D01*
X69685Y48564D01*
X87155Y31095D01*
X88488Y30204D01*
X90060Y29891D01*
X108666D01*
X108695Y29872D01*
X108785Y29891D01*
X109249D01*
X109325Y29876D01*
X109347Y29891D01*
X116180D01*
X116331Y29861D01*
X144470D01*
X146042Y30174D01*
X147375Y31065D01*
X152781Y36470D01*
X157530D01*
Y43391D01*
X165000D01*
X165397Y43470D01*
X171530D01*
Y51530D01*
X169109D01*
Y60298D01*
X173905Y65094D01*
X174796Y66428D01*
X175109Y68000D01*
Y78880D01*
X176379Y79266D01*
X176734Y78734D01*
X178232Y77733D01*
X180000Y77381D01*
X181768Y77733D01*
X182004Y77891D01*
X185391D01*
Y68000D01*
X185470Y67603D01*
Y61470D01*
X193530D01*
Y61470D01*
X200530D01*
Y64091D01*
X214222D01*
X214929Y62385D01*
X216777Y59977D01*
X219185Y58129D01*
X221990Y56967D01*
X225000Y56571D01*
X228010Y56967D01*
X230815Y58129D01*
X233223Y59977D01*
X235071Y62385D01*
X236233Y65190D01*
X236630Y68200D01*
X236233Y71210D01*
X235071Y74015D01*
X233223Y76423D01*
X230815Y78271D01*
X228010Y79433D01*
X225664Y79742D01*
X225603Y79750D01*
Y81031D01*
X225664Y81039D01*
X228274Y81383D01*
X231324Y82646D01*
X232343Y83428D01*
X225000Y90772D01*
X217657Y83428D01*
X218676Y82646D01*
X221726Y81383D01*
X224336Y81039D01*
X224397Y81031D01*
Y79750D01*
X224336Y79742D01*
X221990Y79433D01*
X219185Y78271D01*
X216777Y76423D01*
X214929Y74015D01*
X214222Y72309D01*
X200530D01*
Y74530D01*
X193609D01*
Y82000D01*
Y96538D01*
X194657Y97343D01*
X195704Y98707D01*
X196362Y100295D01*
X196586Y102000D01*
X196362Y103705D01*
X195704Y105293D01*
X194657Y106657D01*
X193293Y107704D01*
X191705Y108362D01*
X190000Y108586D01*
X188295Y108362D01*
X186707Y107704D01*
X185343Y106657D01*
X184296Y105293D01*
X183638Y103705D01*
X183414Y102000D01*
X183638Y100295D01*
X184296Y98707D01*
X185343Y97343D01*
X185391Y97306D01*
Y86109D01*
X182004D01*
X181768Y86267D01*
X180000Y86619D01*
X178232Y86267D01*
X176734Y85266D01*
X176379Y84734D01*
X175109Y85120D01*
Y110996D01*
X175267Y111233D01*
X175619Y113000D01*
X175267Y114768D01*
X174266Y116266D01*
X172768Y117267D01*
X171000Y117619D01*
X169233Y117267D01*
X167734Y116266D01*
X166733Y114768D01*
X166381Y113000D01*
X166733Y111233D01*
X166891Y110996D01*
Y69702D01*
X162094Y64906D01*
X161204Y63572D01*
X160891Y62000D01*
Y51609D01*
X151000D01*
X150603Y51530D01*
X144470D01*
Y39781D01*
X142768Y38079D01*
X116680D01*
X116605Y38128D01*
X115530Y38871D01*
Y43391D01*
X132500D01*
X134072Y43704D01*
X135405Y44594D01*
X145405Y54595D01*
X146296Y55928D01*
X146609Y57500D01*
Y71746D01*
X146767Y71982D01*
X147119Y73750D01*
X146767Y75518D01*
X145766Y77016D01*
X144268Y78017D01*
X142500Y78369D01*
X140732Y78017D01*
X139234Y77016D01*
X138233Y75518D01*
X137881Y73750D01*
X138233Y71982D01*
X138391Y71746D01*
Y59202D01*
X130798Y51609D01*
X109000D01*
X108603Y51530D01*
X102470D01*
Y43470D01*
X102470D01*
Y38215D01*
X102299Y38191D01*
X101430Y38155D01*
X101332Y38109D01*
X101251D01*
X101175Y38124D01*
X101153Y38109D01*
X91762D01*
X75496Y54375D01*
X75586Y55060D01*
X75362Y56765D01*
X74704Y58353D01*
X73657Y59717D01*
X72293Y60764D01*
X70705Y61422D01*
X69000Y61646D01*
X68315Y61556D01*
X49139Y80732D01*
Y84912D01*
X49109Y85063D01*
Y87819D01*
X49154Y87913D01*
X49198Y88762D01*
X49310Y89392D01*
X49476Y89891D01*
X49683Y90275D01*
X49927Y90573D01*
X50225Y90817D01*
X50609Y91024D01*
X51108Y91190D01*
X51738Y91301D01*
X52587Y91346D01*
X52681Y91391D01*
X52749D01*
X52825Y91376D01*
X52847Y91391D01*
X54377D01*
X54466Y91281D01*
X54704Y90946D01*
X54886Y90650D01*
X55015Y90396D01*
X55094Y90192D01*
X55134Y90043D01*
X55145Y89949D01*
X55139Y89761D01*
X55149Y89733D01*
X55138Y89706D01*
X55223Y89500D01*
X55158Y89004D01*
X55417Y87039D01*
X56176Y85207D01*
X57383Y83634D01*
X58956Y82427D01*
X60787Y81668D01*
X62753Y81409D01*
X64719Y81668D01*
X66550Y82427D01*
X68123Y83634D01*
X69331Y85207D01*
X70089Y87039D01*
X70348Y89004D01*
X70089Y90970D01*
X69331Y92802D01*
X68123Y94375D01*
X66550Y95582D01*
X64719Y96341D01*
X62753Y96599D01*
X62257Y96534D01*
X62051Y96619D01*
X62024Y96608D01*
X61996Y96618D01*
X61809Y96612D01*
X61715Y96624D01*
X61565Y96663D01*
X61361Y96743D01*
X61108Y96872D01*
X60811Y97054D01*
X60494Y97280D01*
X59699Y97952D01*
X59267Y98367D01*
X59153Y98412D01*
X57830Y99296D01*
X56257Y99609D01*
X50301D01*
X49139Y100088D01*
Y105912D01*
X49109Y106063D01*
Y116000D01*
Y120937D01*
X49139Y121088D01*
Y126912D01*
Y150470D01*
X48826Y152042D01*
X47935Y153376D01*
X40570Y160741D01*
X40691Y162350D01*
X41266Y162734D01*
X42267Y164233D01*
X42619Y166000D01*
X42267Y167768D01*
X41266Y169266D01*
X39767Y170267D01*
X38000Y170619D01*
D02*
G37*
G36*
X196000Y173586D02*
X194295Y173362D01*
X192707Y172704D01*
X191343Y171657D01*
X190296Y170293D01*
X189638Y168705D01*
X189414Y167000D01*
X189504Y166315D01*
X189095Y165905D01*
X188204Y164572D01*
X187891Y163000D01*
Y147250D01*
Y133250D01*
Y125702D01*
X187298Y125109D01*
X182004D01*
X181768Y125267D01*
X180000Y125619D01*
X178232Y125267D01*
X176734Y124266D01*
X175733Y122767D01*
X175381Y121000D01*
X175733Y119233D01*
X176734Y117734D01*
X178232Y116733D01*
X180000Y116381D01*
X181768Y116733D01*
X182004Y116891D01*
X189000D01*
X190572Y117204D01*
X191905Y118095D01*
X194905Y121095D01*
X195796Y122428D01*
X196109Y124000D01*
Y133250D01*
Y140720D01*
X203030D01*
Y143141D01*
X213470D01*
Y135770D01*
X236530D01*
Y158830D01*
X225450D01*
X225367Y160100D01*
X225851Y160164D01*
X228274Y160483D01*
X231324Y161746D01*
X232343Y162528D01*
X225000Y169872D01*
X217657Y162528D01*
X218676Y161746D01*
X221726Y160483D01*
X224149Y160164D01*
X224633Y160100D01*
X224550Y158830D01*
X213470D01*
Y151359D01*
X203030D01*
Y153780D01*
X196109D01*
Y160428D01*
X197705Y160638D01*
X199293Y161296D01*
X200657Y162343D01*
X201704Y163707D01*
X202362Y165295D01*
X202586Y167000D01*
X202362Y168705D01*
X201704Y170293D01*
X200657Y171657D01*
X199293Y172704D01*
X197705Y173362D01*
X196000Y173586D01*
D02*
G37*
G36*
X30000Y207172D02*
X11992Y189163D01*
X13762Y187651D01*
X17458Y185386D01*
X21463Y183727D01*
X25679Y182715D01*
X30000Y182375D01*
X34321Y182715D01*
X38537Y183727D01*
X42541Y185386D01*
X46238Y187651D01*
X48008Y189163D01*
X30000Y207172D01*
D02*
G37*
%LPD*%
G36*
X111548Y39740D02*
X111692Y39060D01*
X111932Y38460D01*
X112268Y37940D01*
X112700Y37500D01*
X113228Y37140D01*
X113852Y36860D01*
X114572Y36660D01*
X115389Y36540D01*
X116301Y36500D01*
X109000Y31500D01*
X101500Y36500D01*
X102450Y36540D01*
X103300Y36660D01*
X104050Y36860D01*
X104700Y37140D01*
X105250Y37500D01*
X105700Y37940D01*
X106050Y38460D01*
X106300Y39060D01*
X106450Y39740D01*
X106500Y40500D01*
X111500D01*
X111548Y39740D01*
D02*
G37*
G36*
X58589Y96722D02*
X59477Y95970D01*
X59896Y95672D01*
X60298Y95425D01*
X60683Y95230D01*
X61051Y95086D01*
X61401Y94994D01*
X61735Y94953D01*
X62051Y94963D01*
X56794Y89706D01*
X56805Y90023D01*
X56764Y90356D01*
X56671Y90707D01*
X56528Y91075D01*
X56332Y91459D01*
X56085Y91861D01*
X55787Y92280D01*
X55437Y92716D01*
X54583Y93639D01*
X58118Y97175D01*
X58589Y96722D01*
D02*
G37*
G36*
X52500Y93000D02*
X51550Y92950D01*
X50700Y92800D01*
X49950Y92550D01*
X49300Y92200D01*
X48750Y91750D01*
X48300Y91200D01*
X47950Y90550D01*
X47700Y89800D01*
X47550Y88950D01*
X47500Y88000D01*
X42500D01*
X42450Y88950D01*
X42300Y89800D01*
X42050Y90550D01*
X41700Y91200D01*
X41250Y91750D01*
X40700Y92200D01*
X40050Y92550D01*
X39300Y92800D01*
X38450Y92950D01*
X37500Y93000D01*
X45000Y98000D01*
X52500Y93000D01*
D02*
G37*
D11*
X178350Y190000D02*
D03*
X157950D02*
D03*
X137550D02*
D03*
X190000Y102000D02*
D03*
X69000Y55060D02*
D03*
X196000Y167000D02*
D03*
D20*
X158500Y142000D02*
Y169500D01*
X138000Y190000D02*
X158500Y169500D01*
X137550Y190000D02*
X138000D01*
X166250Y142000D02*
Y181700D01*
X157950Y190000D02*
X166250Y181700D01*
X178350Y146350D02*
Y190000D01*
X174000Y142000D02*
X178350Y146350D01*
X28000Y81500D02*
X28000Y81500D01*
X37500D02*
X38000Y82000D01*
X14000Y102500D02*
X28000D01*
X28000Y102500D01*
X37500D01*
X38000Y103000D01*
X14000Y123500D02*
X28000D01*
X28000Y123500D01*
X37500D01*
X14000Y144500D02*
X28000D01*
X28000Y144500D01*
X37500D01*
X38000Y145000D01*
X14000Y165500D02*
X28000D01*
X28000Y165500D01*
X37500D01*
X38000Y166000D01*
X37500Y123500D02*
X38000Y124000D01*
X28000Y137500D02*
X34442D01*
X45030Y126912D01*
Y121088D02*
Y126912D01*
X45000Y121058D02*
X45030Y121088D01*
X45000Y105942D02*
X45030Y105912D01*
Y100088D02*
Y105912D01*
X45000Y100058D02*
X45030Y100088D01*
X45000Y84942D02*
X45030Y84912D01*
Y79030D02*
Y84912D01*
X40500Y74500D02*
X45030Y79030D01*
X45000Y95500D02*
Y100058D01*
X28000Y116500D02*
X44500D01*
X45000Y116000D01*
Y105942D02*
Y116000D01*
Y121058D01*
X56257Y95500D02*
X62753Y89004D01*
X28000Y95500D02*
X45000D01*
X56257D01*
X45000Y84942D02*
Y95500D01*
X196700Y68200D02*
X225000D01*
X196500Y68000D02*
X196700Y68200D01*
X189500Y68000D02*
Y82000D01*
X180000D02*
X189500D01*
X180000Y121000D02*
X189000D01*
X192000Y124000D01*
Y133250D01*
Y147250D01*
X199000D02*
X224950D01*
X225000Y147300D01*
X171000Y68000D02*
Y113000D01*
X165000Y62000D02*
X171000Y68000D01*
X165000Y47500D02*
Y62000D01*
X151000Y47500D02*
X165000D01*
X142500Y57500D02*
Y73750D01*
X132500Y47500D02*
X142500Y57500D01*
X123000Y47500D02*
X132500D01*
X109000D02*
X123000D01*
X144470Y33970D02*
X151000Y40500D01*
X116331Y33970D02*
X144470D01*
X116301Y34000D02*
X116331Y33970D01*
X109000Y34000D02*
Y40500D01*
Y34000D02*
X116301D01*
X90060D02*
X109000D01*
X45030Y79030D02*
X69000Y55060D01*
X90060Y34000D01*
X189500Y101500D02*
X190000Y102000D01*
X189500Y82000D02*
Y101500D01*
X192000Y147250D02*
Y163000D01*
X196000Y167000D01*
X145700Y202250D02*
X157950Y190000D01*
X99750Y202250D02*
X145700D01*
X95700Y206300D02*
X99750Y202250D01*
X95700Y206300D02*
Y226000D01*
X45030Y126912D02*
Y150470D01*
X37000Y158500D02*
X45030Y150470D01*
X28000Y158500D02*
X37000D01*
X28000Y74500D02*
X40500D01*
X28000Y81500D02*
X37500D01*
X14000Y81500D02*
X28000D01*
D21*
X159700Y226000D02*
D03*
X225000Y172700D02*
D03*
X225000Y68200D02*
D03*
Y93600D02*
D03*
X94600Y15000D02*
D03*
X120000D02*
D03*
X70300Y226000D02*
D03*
D22*
X134300D02*
D03*
X145400Y15000D02*
D03*
X95700Y226000D02*
D03*
D23*
X225000Y147300D02*
D03*
X225000Y119000D02*
D03*
D24*
X210000Y210000D02*
D03*
X30000D02*
D03*
Y30000D02*
D03*
X210000D02*
D03*
D25*
X142500Y73750D02*
D03*
X135000Y110000D02*
D03*
X146000D02*
D03*
Y99000D02*
D03*
X135000D02*
D03*
X124000D02*
D03*
Y110000D02*
D03*
Y121000D02*
D03*
X135000D02*
D03*
X146000D02*
D03*
X171000Y113000D02*
D03*
X158500Y142000D02*
D03*
X166250D02*
D03*
X174000D02*
D03*
X76000Y88000D02*
D03*
Y96000D02*
D03*
X38000Y82000D02*
D03*
Y103000D02*
D03*
Y145000D02*
D03*
Y166000D02*
D03*
Y124000D02*
D03*
X14000Y68000D02*
D03*
Y89000D02*
D03*
Y110000D02*
D03*
Y131000D02*
D03*
Y152000D02*
D03*
X180000Y82000D02*
D03*
Y121000D02*
D03*
X83000Y80000D02*
D03*
X91000D02*
D03*
X59000Y149000D02*
D03*
X53000Y142750D02*
D03*
X52750Y132000D02*
D03*
X55000Y120750D02*
D03*
X130000Y182000D02*
D03*
X137500Y176250D02*
D03*
X163000Y76500D02*
D03*
X179500Y65500D02*
D03*
X178250Y54000D02*
D03*
X119750Y76250D02*
D03*
X105750Y58500D02*
D03*
X86250Y50250D02*
D03*
X11000Y56000D02*
D03*
X6000Y66000D02*
D03*
X11000Y176000D02*
D03*
X6000Y186000D02*
D03*
X21000Y176000D02*
D03*
X26000Y66000D02*
D03*
X31000Y176000D02*
D03*
X41000D02*
D03*
X51000Y156000D02*
D03*
X46000Y166000D02*
D03*
X51000Y176000D02*
D03*
X56000Y6000D02*
D03*
X61000Y16000D02*
D03*
Y36000D02*
D03*
Y156000D02*
D03*
X56000Y166000D02*
D03*
X61000Y176000D02*
D03*
X56000Y186000D02*
D03*
X61000Y196000D02*
D03*
X66000Y6000D02*
D03*
X71000Y16000D02*
D03*
X66000Y26000D02*
D03*
X71000Y36000D02*
D03*
X66000Y146000D02*
D03*
Y166000D02*
D03*
X71000Y176000D02*
D03*
X66000Y186000D02*
D03*
X71000Y196000D02*
D03*
X66000Y206000D02*
D03*
X76000Y6000D02*
D03*
Y26000D02*
D03*
Y166000D02*
D03*
Y186000D02*
D03*
X81000Y196000D02*
D03*
X76000Y206000D02*
D03*
X86000D02*
D03*
X106000Y26000D02*
D03*
X111000Y216000D02*
D03*
X116001Y226000D02*
D03*
X161001Y16000D02*
D03*
X156001Y86000D02*
D03*
Y206000D02*
D03*
X166001Y6000D02*
D03*
X171001Y16000D02*
D03*
X166001Y26000D02*
D03*
Y206000D02*
D03*
X176001Y6000D02*
D03*
X181001Y16000D02*
D03*
X176001Y26000D02*
D03*
Y46000D02*
D03*
X181001Y136000D02*
D03*
X176001Y206000D02*
D03*
Y226000D02*
D03*
X186001Y6000D02*
D03*
X191001Y56000D02*
D03*
Y176000D02*
D03*
X201001Y96000D02*
D03*
Y176000D02*
D03*
X211001Y76000D02*
D03*
X206001Y86000D02*
D03*
Y106000D02*
D03*
Y166000D02*
D03*
D26*
X62753Y89004D02*
D03*
D27*
X14000Y81500D02*
D03*
Y74500D02*
D03*
X28000Y81500D02*
D03*
Y74500D02*
D03*
X14000Y102500D02*
D03*
Y95500D02*
D03*
X28000Y102500D02*
D03*
Y95500D02*
D03*
X165000Y40500D02*
D03*
Y47500D02*
D03*
X151000Y40500D02*
D03*
Y47500D02*
D03*
X123000Y40500D02*
D03*
Y47500D02*
D03*
X109000Y40500D02*
D03*
X109000Y47500D02*
D03*
X14000Y123500D02*
D03*
Y116500D02*
D03*
X28000Y123500D02*
D03*
X28000Y116500D02*
D03*
X14000Y144500D02*
D03*
Y137500D02*
D03*
X28000Y144500D02*
D03*
Y137500D02*
D03*
X14000Y165500D02*
D03*
Y158500D02*
D03*
X28000Y165500D02*
D03*
Y158500D02*
D03*
D28*
X196500Y82000D02*
D03*
X189500D02*
D03*
X196500Y68000D02*
D03*
X189500Y68000D02*
D03*
X199000Y147250D02*
D03*
X192000D02*
D03*
X199000Y133250D02*
D03*
X192000D02*
D03*
M02*
