M48
;Layer_Color=9474304
;FILE_FORMAT=4:4
METRIC,LZ
;TYPE=PLATED
T1F00S00C0.3000
T2F00S00C0.6000
T3F00S00C1.1000
T4F00S00C3.1000
%
T01
X00056Y00006
X00066
X00076
X00071Y00016
X00061
X00066Y00026
X00076
X00071Y00036
X00061
X0008625Y0005025
X0010575Y000585
X0011975Y0007625
X001425Y0007375
X00163Y000765
X00156001Y00086
X00146Y00099
Y0011
X00135
Y00099
X00124
Y0011
Y00121
X00135
X00146
X00171Y00113
X0018Y00121
X00181001Y00136
X00174Y00142
X0016625
X001585
X001375Y0017625
X0013Y00182
X00156001Y00206
X00166001
X00176001
Y00226
X00116001
X00111Y00216
X00086Y00206
X00076
X00066
X00071Y00196
X00061
X00056Y00186
X00066
X00076
X00081Y00196
X00071Y00176
X00061
X00051
X00041
X00031
X00021
X00011
X00006Y00186
X00014Y00152
Y00131
Y0011
Y00089
Y00068
X00006Y00066
X00011Y00056
X00026Y00066
X00038Y00082
Y00103
Y00124
X00055Y0012075
X0005275Y00132
X00053Y0014275
X00059Y00149
X00061Y00156
X00051
X00046Y00166
X00038Y00166
X00056Y00166
X00066
X00076
X00066Y00146
X00038Y00145
X00076Y00096
Y00088
X00083Y0008
X00091
X00106Y00026
X00166001
X00176001
X00181001Y00016
X00171001
X00161001
X00166001Y00006
X00176001
X00186001
X00176001Y00046
X0017825Y00054
X001795Y000655
X0018Y00082
X00206001Y00086
X00211001Y00076
X00201001Y00096
X00206001Y00106
Y00166
X00201001Y00176
X00191001
Y00056
T02
X00062753Y00089004
T03
X000946Y00015
X0012
X001454
X00225Y000682
Y000936
Y00119
X00225Y001473
Y001727
X001597Y00226
X001343
X000957
X000703
T04
X0003Y0003
Y0021
X0021
Y0003
M30
