M48
;Layer_Color=9474304
;FILE_FORMAT=4:4
METRIC,LZ
;TYPE=PLATED
T1F00S00C0.3000
T2F00S00C0.6000
T3F00S00C1.1000
T4F00S00C3.1000
%
T01
X00056Y00006
X00066
X00076
X00071Y00016
X00061
X00066Y00026
X00076
X00071Y00036
X00061
X00051Y00056
X00036Y00066
X00026
X00014Y00068
X00006Y00066
X00011Y00056
X00014Y00089
Y0011
Y00131
Y00152
X00011Y00176
X00021
X00031
X00041
X00051
X00061
X00071
X00066Y00186
X00076
X00081Y00196
X00071
X00061
X00056Y00186
Y00166
X00066
X00076
X00061Y00156
X00059Y00149
X00066Y00146
X00053Y0014275
X0005275Y00132
X00055Y0012075
X000565Y0011075
X00038Y00103
Y00124
Y00145
Y00166
X00046Y00166
X00051Y00156
X00066Y00206
X00076
X00086
X00111Y00216
X00116001Y00226
X001195Y0019225
X0013Y00182
X001375Y0017625
X00181001Y00176
X00191001
X00201001
X00206001Y00166
X00201001Y00156
X00191001
X00174Y00142
X0016625
X001585
X00146Y00121
X00135
X00124
Y0011
Y00099
X00135
X00146
Y0011
X00135
X00171Y00113
X0018Y00121
X00196001Y00126
X00206001Y00106
X00201001Y00096
X00196001Y00086
X00206001
X0018Y00082
X00181001Y00056
X00191001
X00176001Y00046
X00166001
X00171001Y00036
X00161001
X00166001Y00026
X00176001
X00181001Y00016
X00171001
X00161001
X00166001Y00006
X00176001
X00186001
X0013Y00033
X0012
X0011
X00106Y00026
X00084Y00052
Y0006
X00076Y00088
Y00096
X00038Y00082
X0011975Y0007625
X001425Y0007375
X00141001Y00056
X00156001Y00086
Y00206
X00166001
X00176001
Y00226
X00006Y00186
T02
X00062753Y00089004
T03
X000946Y00015
X0012
X001454
X00225Y000682
Y000936
Y00119
X00225Y001473
Y001727
X001597Y00226
X001343
X000957
X000703
T04
X0003Y0003
X0021
Y0021
X0003
M30
