G04 Layer_Physical_Order=1*
G04 Layer_Color=255*
%FSLAX44Y44*%
%MOMM*%
G71*
G01*
G75*
%ADD10R,2.0000X7.4000*%
%ADD11R,0.8500X0.8500*%
%ADD12R,0.8500X0.8500*%
%ADD13R,1.0000X0.2500*%
%ADD14R,0.2500X1.0000*%
%ADD15R,3.1500X3.1500*%
%ADD16R,1.4000X3.0000*%
%ADD17C,0.2000*%
%ADD18C,0.5000*%
%ADD19C,1.8000*%
%ADD20C,0.7500*%
%ADD21C,1.0000*%
%ADD22C,5.0000*%
%ADD23C,1.6000*%
%ADD24C,1.4000*%
%ADD25C,2.0000*%
%ADD26R,2.0000X2.0000*%
%ADD27R,2.0000X2.0000*%
%ADD28C,0.7000*%
%ADD29C,0.6000*%
G36*
X20000Y456890D02*
X380000D01*
X380048Y456900D01*
X383298Y456580D01*
X386469Y455618D01*
X389392Y454055D01*
X391953Y451953D01*
X394055Y449392D01*
X395618Y446469D01*
X396580Y443298D01*
X396900Y440048D01*
X396890Y440000D01*
Y20000D01*
X396900Y19952D01*
X396580Y16702D01*
X395618Y13531D01*
X394055Y10608D01*
X391953Y8047D01*
X389392Y5944D01*
X386469Y4382D01*
X383298Y3420D01*
X380048Y3100D01*
X380000Y3110D01*
X20000D01*
X20000Y3110D01*
Y3110D01*
X18756Y3218D01*
X16702Y3420D01*
X13531Y4382D01*
X10608Y5944D01*
X8047Y8047D01*
X5944Y10608D01*
X4382Y13531D01*
X3420Y16702D01*
X3100Y19952D01*
X3110Y20000D01*
Y440000D01*
X3110Y440000D01*
X3110D01*
X3218Y441244D01*
X3420Y443298D01*
X4382Y446469D01*
X5944Y449392D01*
X8047Y451953D01*
X10608Y454055D01*
X13531Y455618D01*
X16702Y456580D01*
X19952Y456900D01*
X20000Y456890D01*
D02*
G37*
%LPC*%
G36*
X100730Y187480D02*
X89460D01*
Y149210D01*
X100730D01*
Y187480D01*
D02*
G37*
G36*
Y228290D02*
X89460D01*
Y190020D01*
X100730D01*
Y228290D01*
D02*
G37*
G36*
X114540Y187480D02*
X103270D01*
Y149210D01*
X114540D01*
Y187480D01*
D02*
G37*
G36*
Y97730D02*
X103270D01*
Y59460D01*
X114540D01*
Y97730D01*
D02*
G37*
G36*
X100730D02*
X89460D01*
Y59460D01*
X100730D01*
Y97730D01*
D02*
G37*
G36*
X114540Y138540D02*
X103270D01*
Y100270D01*
X114540D01*
Y138540D01*
D02*
G37*
G36*
X100730D02*
X89460D01*
Y100270D01*
X100730D01*
Y138540D01*
D02*
G37*
G36*
X114540Y228290D02*
X103270D01*
Y190020D01*
X114540D01*
Y228290D01*
D02*
G37*
G36*
X313980Y302480D02*
X305795D01*
X305956Y301259D01*
X306917Y298939D01*
X308446Y296946D01*
X310439Y295417D01*
X312760Y294456D01*
X313980Y294295D01*
Y302480D01*
D02*
G37*
G36*
X186270Y273790D02*
Y268270D01*
X191790D01*
Y273790D01*
X186270D01*
D02*
G37*
G36*
X371540Y340980D02*
X359000D01*
X346460D01*
Y329710D01*
X355240D01*
X355493Y328440D01*
X352923Y327376D01*
X350406Y325444D01*
X348474Y322927D01*
X347260Y319996D01*
X346846Y316850D01*
X347260Y313704D01*
X348474Y310773D01*
X350406Y308256D01*
X352923Y306324D01*
X355854Y305110D01*
X358282Y304790D01*
Y303510D01*
X355854Y303190D01*
X352923Y301976D01*
X350406Y300044D01*
X348474Y297527D01*
X347260Y294596D01*
X346846Y291450D01*
X347260Y288304D01*
X348474Y285373D01*
X350406Y282856D01*
X352923Y280924D01*
X355854Y279710D01*
X359000Y279296D01*
X362146Y279710D01*
X365077Y280924D01*
X367594Y282856D01*
X369526Y285373D01*
X370740Y288304D01*
X371154Y291450D01*
X370740Y294596D01*
X369526Y297527D01*
X367594Y300044D01*
X365077Y301976D01*
X362146Y303190D01*
X359718Y303510D01*
Y304790D01*
X362146Y305110D01*
X365077Y306324D01*
X367594Y308256D01*
X369526Y310773D01*
X370740Y313704D01*
X371154Y316850D01*
X370740Y319996D01*
X369526Y322927D01*
X367594Y325444D01*
X365077Y327376D01*
X362508Y328440D01*
X362760Y329710D01*
X371540D01*
Y340980D01*
D02*
G37*
G36*
X324705Y302480D02*
X316520D01*
Y294295D01*
X317740Y294456D01*
X320061Y295417D01*
X322054Y296946D01*
X323583Y298939D01*
X324544Y301259D01*
X324705Y302480D01*
D02*
G37*
G36*
X316520Y313205D02*
Y305020D01*
X324705D01*
X324544Y306240D01*
X323583Y308561D01*
X322054Y310554D01*
X320061Y312083D01*
X317740Y313044D01*
X316520Y313205D01*
D02*
G37*
G36*
X59730Y244730D02*
X48460D01*
Y233460D01*
X59730D01*
Y244730D01*
D02*
G37*
G36*
X191790Y265730D02*
X186270D01*
Y260210D01*
X191790D01*
Y265730D01*
D02*
G37*
G36*
X313980Y313205D02*
X312760Y313044D01*
X310439Y312083D01*
X308446Y310554D01*
X306917Y308561D01*
X305956Y306240D01*
X305795Y305020D01*
X313980D01*
Y313205D01*
D02*
G37*
G36*
X309730Y404730D02*
X300536D01*
X300731Y403248D01*
X301793Y400685D01*
X303483Y398483D01*
X305685Y396793D01*
X308249Y395731D01*
X309730Y395536D01*
Y404730D01*
D02*
G37*
G36*
X321464D02*
X312270D01*
Y395536D01*
X313752Y395731D01*
X316315Y396793D01*
X318517Y398483D01*
X320207Y400685D01*
X321269Y403248D01*
X321464Y404730D01*
D02*
G37*
G36*
X141630D02*
X130360D01*
Y393460D01*
X141630D01*
Y404730D01*
D02*
G37*
G36*
X155440Y418540D02*
X144170D01*
Y406000D01*
Y393460D01*
X155440D01*
Y402240D01*
X156710Y402492D01*
X157774Y399923D01*
X159706Y397406D01*
X162223Y395474D01*
X165154Y394260D01*
X168300Y393846D01*
X171446Y394260D01*
X174377Y395474D01*
X176894Y397406D01*
X178826Y399923D01*
X180040Y402854D01*
X180359Y405282D01*
X181640D01*
X181960Y402854D01*
X183174Y399923D01*
X185106Y397406D01*
X187623Y395474D01*
X190554Y394260D01*
X193700Y393846D01*
X196846Y394260D01*
X199777Y395474D01*
X202294Y397406D01*
X204226Y399923D01*
X205440Y402854D01*
X205760Y405282D01*
X207041D01*
X207360Y402854D01*
X208574Y399923D01*
X210506Y397406D01*
X213023Y395474D01*
X215954Y394260D01*
X219100Y393846D01*
X222246Y394260D01*
X225177Y395474D01*
X227694Y397406D01*
X229626Y399923D01*
X230840Y402854D01*
X231254Y406000D01*
X230840Y409146D01*
X229626Y412077D01*
X227694Y414594D01*
X225177Y416526D01*
X222246Y417740D01*
X219100Y418154D01*
X215954Y417740D01*
X213023Y416526D01*
X210506Y414594D01*
X208574Y412077D01*
X207360Y409146D01*
X207041Y406718D01*
X205760D01*
X205440Y409146D01*
X204226Y412077D01*
X202294Y414594D01*
X199777Y416526D01*
X196846Y417740D01*
X193700Y418154D01*
X190554Y417740D01*
X187623Y416526D01*
X185106Y414594D01*
X183174Y412077D01*
X181960Y409146D01*
X181640Y406718D01*
X180359D01*
X180040Y409146D01*
X178826Y412077D01*
X176894Y414594D01*
X174377Y416526D01*
X171446Y417740D01*
X168300Y418154D01*
X165154Y417740D01*
X162223Y416526D01*
X159706Y414594D01*
X157774Y412077D01*
X156710Y409507D01*
X155440Y409760D01*
Y418540D01*
D02*
G37*
G36*
X141630D02*
X130360D01*
Y407270D01*
X141630D01*
Y418540D01*
D02*
G37*
G36*
X312270Y416464D02*
Y407270D01*
X321464D01*
X321269Y408751D01*
X320207Y411315D01*
X318517Y413517D01*
X316315Y415207D01*
X313752Y416269D01*
X312270Y416464D01*
D02*
G37*
G36*
X281000Y416137D02*
X278377Y415791D01*
X275932Y414779D01*
X273832Y413168D01*
X272221Y411068D01*
X271209Y408624D01*
X270863Y406000D01*
X271209Y403376D01*
X272221Y400932D01*
X273832Y398832D01*
X275932Y397221D01*
X278377Y396209D01*
X281000Y395863D01*
X283624Y396209D01*
X286068Y397221D01*
X288168Y398832D01*
X289779Y400932D01*
X290791Y403376D01*
X291137Y406000D01*
X290791Y408624D01*
X289779Y411068D01*
X288168Y413168D01*
X286068Y414779D01*
X283624Y415791D01*
X281000Y416137D01*
D02*
G37*
G36*
X309730Y416464D02*
X308249Y416269D01*
X305685Y415207D01*
X303483Y413517D01*
X301793Y411315D01*
X300731Y408751D01*
X300536Y407270D01*
X309730D01*
Y416464D01*
D02*
G37*
G36*
X40000Y67134D02*
X35755Y66800D01*
X31615Y65806D01*
X27682Y64176D01*
X24051Y61952D01*
X20814Y59186D01*
X18048Y55949D01*
X15824Y52318D01*
X14194Y48385D01*
X13200Y44245D01*
X12866Y40000D01*
X13200Y35755D01*
X14194Y31615D01*
X15824Y27682D01*
X18048Y24051D01*
X20814Y20814D01*
X24051Y18048D01*
X27682Y15824D01*
X31615Y14194D01*
X35755Y13200D01*
X40000Y12866D01*
X44245Y13200D01*
X48385Y14194D01*
X52318Y15824D01*
X55949Y18048D01*
X59186Y20814D01*
X61952Y24051D01*
X64176Y27682D01*
X65806Y31615D01*
X66800Y35755D01*
X67134Y40000D01*
X66800Y44245D01*
X65806Y48385D01*
X64176Y52318D01*
X61952Y55949D01*
X59186Y59186D01*
X55949Y61952D01*
X52318Y64176D01*
X48385Y65806D01*
X44245Y66800D01*
X40000Y67134D01*
D02*
G37*
G36*
X251000Y416137D02*
X248377Y415791D01*
X245932Y414779D01*
X243832Y413168D01*
X242221Y411068D01*
X241209Y408624D01*
X240863Y406000D01*
X241209Y403376D01*
X242221Y400932D01*
X243832Y398832D01*
X243889Y398789D01*
Y375945D01*
X236232Y368289D01*
X231265Y363506D01*
X230101Y362903D01*
X228874Y362596D01*
X227519Y362575D01*
X225982Y362869D01*
X224245Y363520D01*
X222320Y364559D01*
X220223Y366000D01*
X217971Y367850D01*
X216931Y368831D01*
X211881Y373881D01*
X209573Y375652D01*
X206885Y376766D01*
X204000Y377145D01*
X204000Y377145D01*
X176000D01*
X173115Y376766D01*
X170427Y375652D01*
X168119Y373881D01*
X166348Y371573D01*
X165235Y368885D01*
X165083Y367733D01*
X165025Y367583D01*
X164843Y366546D01*
X164601Y365595D01*
X164286Y364650D01*
X163895Y363711D01*
X163427Y362774D01*
X163060Y362148D01*
X161800Y362490D01*
X161790Y362496D01*
Y365980D01*
X155000D01*
Y367250D01*
X153730D01*
Y374040D01*
X148367D01*
X148210Y374040D01*
X147143Y373550D01*
X146940Y373550D01*
X134700D01*
Y360950D01*
X135086D01*
Y357063D01*
X133816Y356547D01*
X121182Y369182D01*
X121181Y369182D01*
X117914Y372449D01*
Y380950D01*
X121050D01*
Y415050D01*
X102950D01*
Y380950D01*
X106086D01*
Y370000D01*
X106537Y367737D01*
X107065Y366946D01*
X106310Y365790D01*
X105927Y365790D01*
X105927D01*
X105808Y365790D01*
X101270D01*
Y360270D01*
X106790D01*
Y364697D01*
X106790Y365094D01*
X107114Y365322D01*
X108060Y365577D01*
X112818Y360818D01*
X112818Y360818D01*
X125818Y347818D01*
X127737Y346536D01*
X129157Y346254D01*
X129301Y346203D01*
X129726Y346141D01*
X130000Y346086D01*
X130001Y346087D01*
X130263Y346027D01*
X130699Y345893D01*
X131136Y345722D01*
X131574Y345512D01*
X132015Y345261D01*
X132460Y344967D01*
X132700Y344787D01*
Y334300D01*
X121362D01*
X121325Y334364D01*
X121149Y334725D01*
X120991Y335115D01*
X120859Y335510D01*
X120619Y336515D01*
X120533Y337062D01*
X120466Y337246D01*
X120214Y338513D01*
X118932Y340432D01*
X110182Y349182D01*
X108263Y350463D01*
X107353Y350644D01*
X106713Y352067D01*
X106790Y352210D01*
X106790D01*
Y357730D01*
X100000D01*
Y359000D01*
X98730D01*
Y365790D01*
X93914D01*
Y380950D01*
X97050D01*
Y415050D01*
X78950D01*
Y380950D01*
X82086D01*
Y352614D01*
X80816Y352489D01*
X80463Y354263D01*
X79182Y356182D01*
X70930Y364433D01*
X71137Y366000D01*
X70791Y368624D01*
X69779Y371068D01*
X68168Y373168D01*
X66068Y374779D01*
X63624Y375791D01*
X61000Y376137D01*
X58376Y375791D01*
X55932Y374779D01*
X53832Y373168D01*
X52221Y371068D01*
X51209Y368624D01*
X50863Y366000D01*
X51209Y363376D01*
X52221Y360932D01*
X53832Y358832D01*
X55932Y357221D01*
X58376Y356209D01*
X61000Y355863D01*
X62567Y356070D01*
X69086Y349551D01*
Y345000D01*
X69340Y343727D01*
X68206Y343186D01*
X68154Y343178D01*
X66068Y344779D01*
X63624Y345791D01*
X61000Y346137D01*
X58376Y345791D01*
X55932Y344779D01*
X53832Y343168D01*
X52221Y341068D01*
X51209Y338624D01*
X50863Y336000D01*
X51209Y333376D01*
X52221Y330932D01*
X53832Y328832D01*
X55086Y327870D01*
Y307393D01*
X54923Y307326D01*
X52406Y305394D01*
X50474Y302877D01*
X49260Y299946D01*
X48846Y296800D01*
X49260Y293654D01*
X50474Y290723D01*
X52406Y288206D01*
X54923Y286274D01*
X57854Y285060D01*
X60282Y284741D01*
Y283459D01*
X57854Y283140D01*
X54923Y281926D01*
X52406Y279994D01*
X50474Y277477D01*
X49260Y274546D01*
X48846Y271400D01*
X49260Y268254D01*
X50474Y265323D01*
X52406Y262806D01*
X54923Y260874D01*
X57492Y259810D01*
X57240Y258540D01*
X48460D01*
Y247270D01*
X61000D01*
X73540D01*
Y258540D01*
X64760D01*
X64507Y259810D01*
X67077Y260874D01*
X69594Y262806D01*
X71037Y264686D01*
X72951D01*
X75086Y262551D01*
Y256000D01*
X75536Y253737D01*
X76818Y251818D01*
X84637Y244000D01*
X74810Y234173D01*
X73540Y234699D01*
Y244730D01*
X62270D01*
Y233460D01*
X72301D01*
X72827Y232190D01*
X56818Y216182D01*
X55536Y214263D01*
X55086Y212000D01*
Y206130D01*
X53832Y205167D01*
X52221Y203068D01*
X51209Y200623D01*
X50863Y198000D01*
X51209Y195376D01*
X52221Y192931D01*
X53832Y190832D01*
X55932Y189221D01*
X58376Y188208D01*
X61000Y187863D01*
X63624Y188208D01*
X66068Y189221D01*
X68168Y190832D01*
X69779Y192931D01*
X70791Y195376D01*
X71137Y198000D01*
X70791Y200623D01*
X69779Y203068D01*
X68168Y205167D01*
X66914Y206130D01*
Y209550D01*
X92450Y235086D01*
X166000D01*
X168263Y235536D01*
X170182Y236818D01*
X175182Y241818D01*
X176464Y243737D01*
X176914Y246000D01*
Y259408D01*
X178184Y260222D01*
X178210Y260210D01*
X178367Y260210D01*
X183730D01*
Y267000D01*
Y273790D01*
X178367D01*
X178210Y273790D01*
X178184Y273778D01*
X176914Y274592D01*
Y280000D01*
X176464Y282263D01*
X175182Y284182D01*
X173263Y285464D01*
X172053Y285704D01*
X171880Y285772D01*
X170719Y285982D01*
X170279Y286094D01*
X169860Y286225D01*
X169483Y286367D01*
X169300Y286451D01*
Y297210D01*
X173230D01*
Y301000D01*
X175770D01*
Y297210D01*
X182040D01*
Y300872D01*
X183310Y301490D01*
X184737Y300536D01*
X187000Y300086D01*
X195233D01*
X196185Y299918D01*
X196993Y299649D01*
X197632Y299305D01*
X198140Y298890D01*
X198555Y298382D01*
X198899Y297743D01*
X199168Y296935D01*
X199336Y295983D01*
Y285620D01*
X198796Y285205D01*
X197345Y283314D01*
X196433Y281112D01*
X196122Y278750D01*
X196433Y276388D01*
X197345Y274186D01*
X198796Y272295D01*
X200686Y270845D01*
X202887Y269933D01*
X205250Y269622D01*
X207613Y269933D01*
X209814Y270845D01*
X211705Y272295D01*
X213155Y274186D01*
X214067Y276388D01*
X214378Y278750D01*
X214067Y281112D01*
X213155Y283314D01*
X211705Y285205D01*
X211164Y285620D01*
Y306000D01*
Y321880D01*
X211705Y322295D01*
X213155Y324186D01*
X214067Y326387D01*
X214378Y328750D01*
X214067Y331113D01*
X213155Y333314D01*
X211705Y335205D01*
X209814Y336655D01*
X207613Y337567D01*
X205250Y337878D01*
X202887Y337567D01*
X200686Y336655D01*
X198796Y335205D01*
X197771Y333869D01*
X196501Y334300D01*
Y337853D01*
X198228Y339580D01*
X198247Y339594D01*
X198346Y339655D01*
X198462Y339712D01*
X198599Y339765D01*
X198761Y339813D01*
X198950Y339854D01*
X199168Y339885D01*
X199417Y339904D01*
X199431Y339905D01*
X199750Y339841D01*
X201915Y340272D01*
X203751Y341499D01*
X204978Y343335D01*
X205409Y345500D01*
X205028Y347414D01*
X205793Y348035D01*
X206075Y348163D01*
X216119Y338119D01*
X216119Y338119D01*
X300855Y253384D01*
Y227800D01*
X299950D01*
Y149700D01*
X300855D01*
Y138050D01*
X299950D01*
Y59950D01*
X324050D01*
Y138050D01*
X323145D01*
Y149700D01*
X324050D01*
Y227800D01*
X323145D01*
Y258000D01*
X323145Y258000D01*
X322766Y260885D01*
X321652Y263573D01*
X319881Y265881D01*
X319881Y265881D01*
X246831Y338931D01*
X245849Y339972D01*
X244000Y342223D01*
X242559Y344320D01*
X241520Y346245D01*
X240869Y347982D01*
X240575Y349519D01*
X240596Y350874D01*
X240903Y352101D01*
X241248Y352767D01*
X244613Y356557D01*
X256028Y367972D01*
X257158Y369445D01*
X257869Y371160D01*
X258111Y373000D01*
Y398789D01*
X258168Y398832D01*
X259779Y400932D01*
X260791Y403376D01*
X261137Y406000D01*
X260791Y408624D01*
X259779Y411068D01*
X258168Y413168D01*
X256068Y414779D01*
X253624Y415791D01*
X251000Y416137D01*
D02*
G37*
G36*
X360000Y67134D02*
X355755Y66800D01*
X351615Y65806D01*
X347682Y64176D01*
X344051Y61952D01*
X340814Y59186D01*
X338048Y55949D01*
X335824Y52318D01*
X334194Y48385D01*
X333200Y44245D01*
X332866Y40000D01*
X333200Y35755D01*
X334194Y31615D01*
X335824Y27682D01*
X338048Y24051D01*
X340814Y20814D01*
X344051Y18048D01*
X347682Y15824D01*
X351615Y14194D01*
X355755Y13200D01*
X360000Y12866D01*
X364245Y13200D01*
X368385Y14194D01*
X372318Y15824D01*
X375949Y18048D01*
X379186Y20814D01*
X381952Y24051D01*
X384176Y27682D01*
X385806Y31615D01*
X386800Y35755D01*
X387134Y40000D01*
X386800Y44245D01*
X385806Y48385D01*
X384176Y52318D01*
X381952Y55949D01*
X379186Y59186D01*
X375949Y61952D01*
X372318Y64176D01*
X368385Y65806D01*
X364245Y66800D01*
X360000Y67134D01*
D02*
G37*
G36*
X357730Y354790D02*
X346460D01*
Y343520D01*
X357730D01*
Y354790D01*
D02*
G37*
G36*
X371540D02*
X360270D01*
Y343520D01*
X371540D01*
Y354790D01*
D02*
G37*
G36*
X40000Y447134D02*
X35755Y446800D01*
X31615Y445806D01*
X27682Y444176D01*
X24051Y441952D01*
X20814Y439186D01*
X18048Y435949D01*
X15824Y432318D01*
X14194Y428385D01*
X13200Y424245D01*
X12866Y420000D01*
X13200Y415755D01*
X14194Y411615D01*
X15824Y407682D01*
X18048Y404051D01*
X20814Y400814D01*
X24051Y398048D01*
X27682Y395824D01*
X31615Y394194D01*
X35755Y393200D01*
X40000Y392866D01*
X44245Y393200D01*
X48385Y394194D01*
X52318Y395824D01*
X55949Y398048D01*
X59186Y400814D01*
X61952Y404051D01*
X64176Y407682D01*
X65806Y411615D01*
X66800Y415755D01*
X67134Y420000D01*
X66800Y424245D01*
X65806Y428385D01*
X64176Y432318D01*
X61952Y435949D01*
X59186Y439186D01*
X55949Y441952D01*
X52318Y444176D01*
X48385Y445806D01*
X44245Y446800D01*
X40000Y447134D01*
D02*
G37*
G36*
X360000D02*
X355755Y446800D01*
X351615Y445806D01*
X347682Y444176D01*
X344051Y441952D01*
X340814Y439186D01*
X338048Y435949D01*
X335824Y432318D01*
X334194Y428385D01*
X333200Y424245D01*
X332866Y420000D01*
X333200Y415755D01*
X334194Y411615D01*
X335824Y407682D01*
X338048Y404051D01*
X340814Y400814D01*
X344051Y398048D01*
X347682Y395824D01*
X351615Y394194D01*
X355755Y393200D01*
X360000Y392866D01*
X364245Y393200D01*
X368385Y394194D01*
X372318Y395824D01*
X375949Y398048D01*
X379186Y400814D01*
X381952Y404051D01*
X384176Y407682D01*
X385806Y411615D01*
X386800Y415755D01*
X387134Y420000D01*
X386800Y424245D01*
X385806Y428385D01*
X384176Y432318D01*
X381952Y435949D01*
X379186Y439186D01*
X375949Y441952D01*
X372318Y444176D01*
X368385Y445806D01*
X364245Y446800D01*
X360000Y447134D01*
D02*
G37*
G36*
X156270Y374040D02*
Y368520D01*
X161790D01*
Y374040D01*
X156270D01*
D02*
G37*
%LPD*%
G36*
X137178Y287511D02*
X137141Y287451D01*
X137108Y287351D01*
X137079Y287211D01*
X137055Y287031D01*
X137020Y286551D01*
X137004Y285762D01*
X137008Y285380D01*
X137125Y283566D01*
X137130Y283544D01*
X137232Y283245D01*
X137362Y282949D01*
X137522Y282654D01*
X137711Y282362D01*
X137928Y282073D01*
X138174Y281785D01*
X138450Y281500D01*
X137405D01*
X137492Y281234D01*
X137623Y280961D01*
X137769Y280767D01*
X134231D01*
X134377Y280961D01*
X134508Y281234D01*
X134595Y281500D01*
X133550D01*
X133826Y281785D01*
X134072Y282073D01*
X134290Y282362D01*
X134478Y282654D01*
X134637Y282949D01*
X134768Y283245D01*
X134869Y283544D01*
X134931Y283799D01*
X134992Y285380D01*
X134997Y285926D01*
X134921Y287211D01*
X134893Y287351D01*
X134860Y287451D01*
X134822Y287511D01*
X134781Y287530D01*
X137219D01*
X137178Y287511D01*
D02*
G37*
G36*
X167033Y285409D02*
X167394Y285133D01*
X167789Y284879D01*
X168217Y284646D01*
X168680Y284436D01*
X169178Y284248D01*
X169709Y284082D01*
X170275Y283938D01*
X171509Y283715D01*
X167285Y279491D01*
X167185Y280125D01*
X166918Y281291D01*
X166752Y281822D01*
X166564Y282320D01*
X166353Y282783D01*
X166121Y283211D01*
X165867Y283606D01*
X165591Y283967D01*
X165293Y284293D01*
X166707Y285707D01*
X167033Y285409D01*
D02*
G37*
G36*
X151707Y284293D02*
X151409Y283967D01*
X151133Y283606D01*
X150879Y283212D01*
X150647Y282783D01*
X150436Y282320D01*
X150248Y281822D01*
X150082Y281291D01*
X149938Y280725D01*
X149715Y279491D01*
X145491Y283715D01*
X146125Y283816D01*
X147291Y284082D01*
X147822Y284248D01*
X148320Y284436D01*
X148783Y284646D01*
X149212Y284879D01*
X149606Y285133D01*
X149967Y285409D01*
X150293Y285707D01*
X151707Y284293D01*
D02*
G37*
G36*
X79701Y331936D02*
Y319701D01*
X80087D01*
Y311999D01*
X80537Y309736D01*
X81819Y307818D01*
X86818Y302818D01*
X88737Y301537D01*
X91000Y301086D01*
X92408D01*
X93222Y299816D01*
X93210Y299790D01*
X93210Y299633D01*
Y294270D01*
X106790D01*
Y299633D01*
X106790Y299790D01*
X106300Y300857D01*
X106300Y301561D01*
X108182Y302818D01*
X113717Y308354D01*
X114890Y307868D01*
Y300507D01*
X114880Y300361D01*
X114845Y300081D01*
X114799Y299827D01*
X114742Y299600D01*
X114678Y299398D01*
X114607Y299220D01*
X114530Y299063D01*
X114448Y298925D01*
X114311Y298730D01*
X114230Y298548D01*
X113714Y297775D01*
X113361Y296000D01*
Y283000D01*
X113714Y281225D01*
X114720Y279720D01*
X118720Y275720D01*
X120225Y274714D01*
X122000Y274361D01*
X124177D01*
X125210Y273790D01*
Y268270D01*
X132000D01*
Y267000D01*
X133270D01*
Y260210D01*
X138790D01*
Y260210D01*
X138816Y260224D01*
X139835Y259616D01*
X139938Y258301D01*
X138551Y256914D01*
X112450D01*
X88914Y280450D01*
Y291000D01*
X88464Y293263D01*
X87182Y295182D01*
X82182Y300182D01*
X80263Y301464D01*
X78000Y301914D01*
X71925D01*
X71526Y302877D01*
X69594Y305394D01*
X67077Y307326D01*
X66914Y307393D01*
Y327870D01*
X68168Y328832D01*
X69779Y330932D01*
X70791Y333376D01*
X71137Y336000D01*
X70791Y338624D01*
X70490Y339351D01*
X71567Y340070D01*
X79701Y331936D01*
D02*
G37*
G36*
X93333Y249046D02*
X94459Y248144D01*
X95630Y247349D01*
X96844Y246659D01*
X98103Y246076D01*
X99405Y245599D01*
X100751Y245227D01*
X102141Y244962D01*
X103575Y244803D01*
X105053Y244750D01*
X96000Y237250D01*
Y241000D01*
X92250Y250053D01*
X93333Y249046D01*
D02*
G37*
G36*
X118567Y336110D02*
X118847Y334935D01*
X119029Y334390D01*
X119239Y333873D01*
X119477Y333384D01*
X119743Y332923D01*
X120036Y332490D01*
X120358Y332084D01*
X120707Y331707D01*
X119293Y330293D01*
X118916Y330642D01*
X118510Y330964D01*
X118077Y331257D01*
X117616Y331523D01*
X117127Y331761D01*
X116610Y331971D01*
X116065Y332153D01*
X115491Y332307D01*
X114890Y332434D01*
X114261Y332532D01*
X118468Y336739D01*
X118567Y336110D01*
D02*
G37*
G36*
X216590Y366280D02*
X218965Y364328D01*
X221228Y362773D01*
X223378Y361613D01*
X225414Y360849D01*
X227338Y360481D01*
X229148Y360510D01*
X230845Y360934D01*
X232429Y361754D01*
X232649Y361936D01*
X238484Y367555D01*
X245555Y360484D01*
X243170Y358079D01*
X239512Y353960D01*
X238934Y352845D01*
X238510Y351148D01*
X238482Y349338D01*
X238849Y347414D01*
X239613Y345378D01*
X240773Y343228D01*
X242328Y340965D01*
X244280Y338590D01*
X246627Y336101D01*
X224000Y346000D01*
X214100Y368627D01*
X216590Y366280D01*
D02*
G37*
G36*
X150444Y348350D02*
X153653D01*
X153339Y347967D01*
X153058Y347482D01*
X152810Y346893D01*
X152595Y346201D01*
X152413Y345406D01*
X152265Y344508D01*
X152066Y342403D01*
X152017Y341196D01*
X152000Y339886D01*
X150000D01*
X149984Y341196D01*
X149735Y344508D01*
X149587Y345406D01*
X149405Y346201D01*
X149229Y346768D01*
X149178Y346752D01*
X148680Y346564D01*
X148217Y346353D01*
X147788Y346121D01*
X147394Y345867D01*
X147033Y345591D01*
X146707Y345293D01*
X145293Y346707D01*
X145591Y347033D01*
X145867Y347394D01*
X146121Y347789D01*
X146354Y348217D01*
X146564Y348680D01*
X146752Y349178D01*
X146918Y349709D01*
X147062Y350275D01*
X147285Y351509D01*
X150444Y348350D01*
D02*
G37*
G36*
X185501Y313550D02*
X185215Y313825D01*
X184928Y314072D01*
X184638Y314289D01*
X184346Y314478D01*
X184051Y314638D01*
X183755Y314768D01*
X183456Y314869D01*
X183155Y314942D01*
X182851Y314986D01*
X182546Y315000D01*
Y317000D01*
X182851Y317015D01*
X183155Y317058D01*
X183456Y317131D01*
X183755Y317232D01*
X184051Y317362D01*
X184346Y317522D01*
X184638Y317710D01*
X184928Y317928D01*
X185215Y318174D01*
X185501Y318450D01*
Y313550D01*
D02*
G37*
G36*
X118000Y321000D02*
D01*
X118000Y321000D01*
X121000Y320000D01*
X121000D01*
X121000Y320000D01*
X120620Y319980D01*
X120280Y319920D01*
X119980Y319820D01*
X119720Y319680D01*
X119500Y319500D01*
X119320Y319280D01*
X119180Y319020D01*
X119080Y318720D01*
X119020Y318380D01*
X119000Y318000D01*
X119000Y318000D01*
D01*
X117000Y316586D01*
X116986Y316952D01*
X116944Y317249D01*
X116873Y317479D01*
X116774Y317640D01*
X116646Y317732D01*
X116492Y317757D01*
X116247Y317425D01*
X115814Y316762D01*
X115454Y316122D01*
X115167Y315504D01*
X114953Y314908D01*
X114812Y314333D01*
X114744Y313781D01*
X110781Y317744D01*
X111333Y317812D01*
X111908Y317953D01*
X112504Y318167D01*
X113122Y318454D01*
X113762Y318814D01*
X114425Y319247D01*
X115109Y319752D01*
X116543Y320983D01*
X117293Y321707D01*
X118000Y321000D01*
D02*
G37*
G36*
X115282Y328340D02*
X115767Y328059D01*
X116356Y327811D01*
X117048Y327596D01*
X117843Y327414D01*
X118741Y327265D01*
X120846Y327067D01*
X121524Y327039D01*
X122211Y327080D01*
X122351Y327108D01*
X122451Y327141D01*
X122510Y327178D01*
X122530Y327220D01*
Y327011D01*
X123363Y327001D01*
Y325001D01*
X122530Y324990D01*
Y324781D01*
X122510Y324822D01*
X122451Y324860D01*
X122351Y324893D01*
X122211Y324921D01*
X122030Y324946D01*
X121782Y324964D01*
X118741Y324736D01*
X117843Y324588D01*
X117048Y324406D01*
X116356Y324191D01*
X115767Y323943D01*
X115282Y323662D01*
X114899Y323348D01*
Y328654D01*
X115282Y328340D01*
D02*
G37*
G36*
X188925Y346715D02*
X188678Y346427D01*
X188461Y346138D01*
X188272Y345846D01*
X188113Y345551D01*
X187982Y345255D01*
X187880Y344956D01*
X187808Y344655D01*
X187764Y344351D01*
X187750Y344046D01*
X185750D01*
X185735Y344351D01*
X185692Y344655D01*
X185620Y344956D01*
X185518Y345255D01*
X185387Y345551D01*
X185228Y345846D01*
X185040Y346138D01*
X184822Y346427D01*
X184576Y346715D01*
X184300Y347001D01*
X189200D01*
X188925Y346715D01*
D02*
G37*
G36*
X133817Y351794D02*
X133952Y351198D01*
X134133Y350610D01*
X134361Y350030D01*
X134635Y349457D01*
X134956Y348892D01*
X135324Y348334D01*
X135738Y347784D01*
X136199Y347242D01*
X136707Y346707D01*
X135293Y345293D01*
X134758Y345801D01*
X134216Y346262D01*
X133666Y346676D01*
X133108Y347044D01*
X132543Y347365D01*
X131970Y347640D01*
X131390Y347867D01*
X130802Y348049D01*
X130206Y348183D01*
X129603Y348271D01*
X133729Y352397D01*
X133817Y351794D01*
D02*
G37*
G36*
X177222Y357083D02*
X176108Y356888D01*
X175006Y356608D01*
X173917Y356245D01*
X172841Y355797D01*
X171778Y355266D01*
X170727Y354650D01*
X169689Y353951D01*
X168664Y353167D01*
X167652Y352300D01*
X166652Y351348D01*
X161348Y356652D01*
X162300Y357651D01*
X163951Y359689D01*
X164650Y360727D01*
X165266Y361778D01*
X165797Y362841D01*
X166245Y363917D01*
X166608Y365006D01*
X166888Y366107D01*
X167083Y367222D01*
X177222Y357083D01*
D02*
G37*
G36*
X199715Y342000D02*
X199318Y341993D01*
X198941Y341964D01*
X198582Y341913D01*
X198242Y341840D01*
X197921Y341744D01*
X197619Y341627D01*
X197336Y341487D01*
X197072Y341326D01*
X196827Y341142D01*
X196600Y340936D01*
X195186Y342351D01*
X195392Y342577D01*
X195576Y342822D01*
X195737Y343086D01*
X195877Y343369D01*
X195994Y343671D01*
X196090Y343992D01*
X196163Y344332D01*
X196214Y344691D01*
X196243Y345068D01*
X196250Y345465D01*
X199715Y342000D01*
D02*
G37*
G36*
X143339Y350967D02*
X143058Y350482D01*
X142810Y349893D01*
X142595Y349201D01*
X142413Y348406D01*
X142265Y347508D01*
X142066Y345403D01*
X142017Y344196D01*
X142000Y342886D01*
X140000D01*
X139984Y344196D01*
X139735Y347508D01*
X139587Y348406D01*
X139405Y349201D01*
X139190Y349893D01*
X138942Y350482D01*
X138661Y350967D01*
X138347Y351350D01*
X143653D01*
X143339Y350967D01*
D02*
G37*
G36*
X175966Y347312D02*
X175644Y345988D01*
X175592Y345674D01*
X175506Y344772D01*
X175500Y344485D01*
X173500Y343231D01*
X173484Y343561D01*
X173435Y343864D01*
X173354Y344142D01*
X173241Y344394D01*
X173095Y344619D01*
X172916Y344819D01*
X172705Y344994D01*
X172462Y345142D01*
X172186Y345264D01*
X171878Y345360D01*
X176076Y347660D01*
X175966Y347312D01*
D02*
G37*
G36*
X119020Y313620D02*
X119080Y313280D01*
X119180Y312980D01*
X119320Y312720D01*
X119500Y312500D01*
X119720Y312320D01*
X119980Y312180D01*
X120280Y312080D01*
X120620Y312020D01*
X121000Y312000D01*
Y310000D01*
X120620Y309980D01*
X120280Y309920D01*
X119980Y309820D01*
X119720Y309680D01*
X119500Y309500D01*
X119320Y309280D01*
X119180Y309020D01*
X119080Y308720D01*
X119020Y308380D01*
X119000Y308000D01*
X117000Y311000D01*
X119000Y314000D01*
X119020Y313620D01*
D02*
G37*
G36*
X209000Y306000D02*
X201500Y294750D01*
X201425Y296175D01*
X201200Y297450D01*
X200825Y298575D01*
X200300Y299550D01*
X199625Y300375D01*
X198800Y301050D01*
X197825Y301575D01*
X196700Y301950D01*
X195425Y302175D01*
X194000Y302250D01*
Y309750D01*
X195425Y309825D01*
X196700Y310050D01*
X197825Y310425D01*
X198800Y310950D01*
X199625Y311625D01*
X200300Y312450D01*
X200825Y313425D01*
X201200Y314550D01*
X201425Y315825D01*
X201500Y317250D01*
X209000Y306000D01*
D02*
G37*
G36*
X157178Y287513D02*
X157141Y287459D01*
X157108Y287370D01*
X157079Y287246D01*
X157055Y287085D01*
X157020Y286658D01*
X157000Y285750D01*
X155000D01*
X154998Y286088D01*
X154921Y287246D01*
X154893Y287370D01*
X154860Y287459D01*
X154822Y287513D01*
X154781Y287530D01*
X157219D01*
X157178Y287513D01*
D02*
G37*
G36*
X119020Y303620D02*
X119080Y303280D01*
X119180Y302980D01*
X119320Y302720D01*
X119500Y302500D01*
X119720Y302320D01*
X119980Y302180D01*
X120280Y302080D01*
X120620Y302020D01*
X121000Y302000D01*
Y300000D01*
X120620Y299980D01*
X120280Y299920D01*
X119980Y299820D01*
X119720Y299680D01*
X119500Y299500D01*
X119320Y299280D01*
X119227Y299107D01*
X119245Y299031D01*
X119353Y298693D01*
X119481Y298373D01*
X119628Y298072D01*
X119795Y297789D01*
X119981Y297525D01*
X116019D01*
X116205Y297789D01*
X116372Y298072D01*
X116519Y298373D01*
X116647Y298693D01*
X116755Y299031D01*
X116843Y299388D01*
X116912Y299763D01*
X116961Y300157D01*
X116990Y300569D01*
X117000Y301000D01*
X119000Y304000D01*
X119020Y303620D01*
D02*
G37*
G36*
X184350Y303347D02*
X183967Y303661D01*
X183482Y303942D01*
X182893Y304190D01*
X182201Y304405D01*
X181406Y304587D01*
X180508Y304736D01*
X178403Y304934D01*
X177196Y304984D01*
X175886Y305000D01*
Y307000D01*
X177196Y307017D01*
X180508Y307264D01*
X181406Y307413D01*
X182201Y307595D01*
X182893Y307810D01*
X183482Y308058D01*
X183967Y308339D01*
X184350Y308653D01*
Y303347D01*
D02*
G37*
G36*
X159264Y283328D02*
X159308Y283145D01*
X159381Y282949D01*
X159482Y282742D01*
X159613Y282523D01*
X159772Y282292D01*
X159960Y282049D01*
X160424Y281528D01*
X160700Y281250D01*
X155800D01*
X156075Y281528D01*
X156539Y282049D01*
X156728Y282292D01*
X156888Y282523D01*
X157018Y282742D01*
X157120Y282949D01*
X157192Y283145D01*
X157235Y283328D01*
X157250Y283500D01*
X159250D01*
X159264Y283328D01*
D02*
G37*
%LPC*%
G36*
X106790Y291730D02*
X101270D01*
Y286210D01*
X106790D01*
Y291730D01*
D02*
G37*
G36*
X98730D02*
X93210D01*
Y286210D01*
X98730D01*
Y291730D01*
D02*
G37*
G36*
X109770Y277617D02*
Y275020D01*
X112367D01*
X112306Y275326D01*
X111413Y276663D01*
X110076Y277556D01*
X109770Y277617D01*
D02*
G37*
G36*
X107230Y272480D02*
X104634D01*
X104694Y272174D01*
X105587Y270837D01*
X106924Y269944D01*
X107230Y269883D01*
Y272480D01*
D02*
G37*
G36*
X130730Y265730D02*
X125210D01*
Y260210D01*
X130730D01*
Y265730D01*
D02*
G37*
G36*
X107230Y277617D02*
X106924Y277556D01*
X105587Y276663D01*
X104694Y275326D01*
X104634Y275020D01*
X107230D01*
Y277617D01*
D02*
G37*
G36*
X112367Y272480D02*
X109770D01*
Y269883D01*
X110076Y269944D01*
X111413Y270837D01*
X112306Y272174D01*
X112367Y272480D01*
D02*
G37*
%LPD*%
D10*
X102000Y99000D02*
D03*
X312000D02*
D03*
X102000Y188750D02*
D03*
X312000D02*
D03*
D11*
X132000Y267000D02*
D03*
X146000D02*
D03*
X185000D02*
D03*
X171000D02*
D03*
X141000Y367250D02*
D03*
X155000D02*
D03*
X100001Y326001D02*
D03*
X86001D02*
D03*
D12*
X100000Y293000D02*
D03*
Y307000D02*
D03*
Y359000D02*
D03*
Y345000D02*
D03*
D13*
X127500Y331000D02*
D03*
Y326000D02*
D03*
Y321000D02*
D03*
Y316000D02*
D03*
Y311000D02*
D03*
Y306000D02*
D03*
Y301000D02*
D03*
X174500D02*
D03*
Y306000D02*
D03*
Y311000D02*
D03*
Y316000D02*
D03*
Y321000D02*
D03*
Y326000D02*
D03*
Y331000D02*
D03*
D14*
X136000Y292500D02*
D03*
X141000D02*
D03*
X146000D02*
D03*
X151000D02*
D03*
X156000D02*
D03*
X161000D02*
D03*
X166000D02*
D03*
Y339500D02*
D03*
X161000D02*
D03*
X156000D02*
D03*
X151000D02*
D03*
X146000D02*
D03*
X141000D02*
D03*
X136000D02*
D03*
D15*
X151000Y316000D02*
D03*
D16*
X112000Y398000D02*
D03*
X88000D02*
D03*
D17*
X127500Y306000D02*
X141000D01*
X140000Y305000D02*
X141000Y304000D01*
X136000Y279000D02*
Y292500D01*
X166000Y285000D02*
X171000Y280000D01*
X118000Y296000D02*
Y301000D01*
X130000Y352000D02*
X136000Y346000D01*
Y339500D02*
Y346000D01*
X151000Y339500D02*
Y351000D01*
X146000Y346000D02*
X151000Y351000D01*
X146000Y339500D02*
Y346000D01*
X146000Y339500D02*
X146000Y339500D01*
X120000Y331000D02*
X127500D01*
X114750Y336250D02*
X120000Y331000D01*
X146000Y280000D02*
X151000Y285000D01*
X111000Y314000D02*
X118000Y321000D01*
Y311000D02*
Y321000D01*
Y301000D02*
Y311000D01*
X127500D01*
X118000Y301000D02*
X127500D01*
X118000Y321000D02*
X118000Y321000D01*
X127500D01*
X166000Y285000D02*
Y292500D01*
X151000Y285000D02*
Y292500D01*
X141000Y339500D02*
Y354000D01*
X156000Y311000D02*
X174500D01*
X151000Y316000D02*
X156000Y311000D01*
X141000Y306000D02*
X146000Y311000D01*
X151000Y316000D01*
X146000Y292500D02*
Y311000D01*
X141000Y292500D02*
Y304000D01*
X140000Y316000D02*
X151000D01*
X127500D02*
X140000D01*
X112249Y326001D02*
X127499D01*
X127500Y326000D01*
X174500Y331000D02*
Y347000D01*
X172750Y348750D02*
X174500Y347000D01*
Y321000D02*
X182500D01*
X184750Y323250D01*
X189500D01*
X193391Y327141D01*
Y339141D01*
X199750Y345500D01*
X186750Y332687D02*
Y349500D01*
X174500Y306000D02*
X187000D01*
X174500Y326000D02*
X180063D01*
X186750Y332687D01*
X156000Y285750D02*
Y292500D01*
Y285750D02*
X158250Y283500D01*
Y278750D02*
Y283500D01*
X174500Y316000D02*
X188000D01*
D18*
X100000Y359000D02*
Y374000D01*
X118000Y283000D02*
Y296000D01*
Y283000D02*
X122000Y279000D01*
X136000D01*
D19*
X102000Y99000D02*
Y188750D01*
X312000Y99000D02*
Y188750D01*
Y258000D01*
X224000Y346000D02*
X312000Y258000D01*
X204000Y366000D02*
X224000Y346000D01*
X176000Y366000D02*
X204000D01*
D20*
X171000Y268000D02*
Y280000D01*
X171000Y268000D02*
X171000Y268000D01*
X61000Y198000D02*
Y212000D01*
X90000Y241000D01*
X96000D01*
X81000Y256000D02*
X96000Y241000D01*
X61000Y296800D02*
Y336000D01*
Y363626D02*
Y366000D01*
X88000Y349000D02*
Y388000D01*
Y349000D02*
X92000Y345000D01*
X154000Y354000D02*
X164000D01*
X176000Y366000D01*
X86001Y311999D02*
Y326001D01*
Y311999D02*
X91000Y307000D01*
X100000D01*
X78000Y296000D02*
X83000Y291000D01*
Y278000D02*
Y291000D01*
Y278000D02*
X110000Y251000D01*
X75400Y270600D02*
X81000Y265000D01*
Y256000D02*
Y265000D01*
X96000Y241000D02*
X166000D01*
X110000Y251000D02*
X141000D01*
X146000Y256000D01*
Y267000D01*
X166000Y241000D02*
X171000Y246000D01*
Y267000D01*
X117000Y365000D02*
X130000Y352000D01*
X112000Y370000D02*
X117000Y365000D01*
X117000D01*
X112000Y370000D02*
Y388000D01*
X151000Y351000D02*
X154000Y354000D01*
X141000D02*
Y367250D01*
X205250Y306000D02*
Y328750D01*
X187000Y306000D02*
X205250D01*
Y278750D02*
Y306000D01*
X92000Y345000D02*
X100000D01*
Y307000D02*
X104000D01*
X100000Y345000D02*
X106000D01*
X146000Y268000D02*
Y280000D01*
X104000Y307000D02*
X111000Y314000D01*
X106000Y345000D02*
X114750Y336250D01*
X86001Y326001D02*
Y333999D01*
X75000Y345000D02*
X86001Y333999D01*
X75000Y345000D02*
Y352000D01*
X61000Y366000D02*
X75000Y352000D01*
X100001Y326001D02*
X112249D01*
X61000Y270600D02*
X75400D01*
X61000Y296000D02*
X78000D01*
D21*
X224000Y346000D02*
X251000Y373000D01*
Y406000D01*
D22*
X360000Y40000D02*
D03*
X40000D02*
D03*
X360000Y420000D02*
D03*
X40000D02*
D03*
D23*
X311000Y406000D02*
D03*
X61000Y366000D02*
D03*
X281000Y406000D02*
D03*
X61000Y336000D02*
D03*
Y198000D02*
D03*
X251000Y406000D02*
D03*
D24*
X315250Y303750D02*
D03*
X205250Y328750D02*
D03*
Y278750D02*
D03*
D25*
X193700Y406000D02*
D03*
X168300D02*
D03*
X219100D02*
D03*
X61000Y271400D02*
D03*
Y296800D02*
D03*
X359000Y291450D02*
D03*
Y316850D02*
D03*
D26*
X142900Y406000D02*
D03*
D27*
X61000Y246000D02*
D03*
X359000Y342250D02*
D03*
D28*
X370000Y380000D02*
D03*
X385000Y350000D02*
D03*
Y290000D02*
D03*
X370000Y260000D02*
D03*
X385000Y230000D02*
D03*
X370000Y200000D02*
D03*
X385000Y170000D02*
D03*
X370000Y140000D02*
D03*
X385000Y110000D02*
D03*
X370000Y80000D02*
D03*
X340000Y380000D02*
D03*
Y260000D02*
D03*
X355000Y230000D02*
D03*
X340000Y200000D02*
D03*
X355000Y170000D02*
D03*
X340000Y140000D02*
D03*
X355000Y110000D02*
D03*
X340000Y80000D02*
D03*
X310000Y440000D02*
D03*
X325000Y410000D02*
D03*
X310000Y380000D02*
D03*
X325000Y350000D02*
D03*
Y290000D02*
D03*
Y50000D02*
D03*
X310000Y20000D02*
D03*
X280000Y440000D02*
D03*
X295000Y410000D02*
D03*
Y350000D02*
D03*
X280000Y260000D02*
D03*
X295000Y230000D02*
D03*
X280000Y200000D02*
D03*
X295000Y170000D02*
D03*
X280000Y140000D02*
D03*
X295000Y110000D02*
D03*
X280000Y80000D02*
D03*
X295000Y50000D02*
D03*
X280000Y20000D02*
D03*
X250000Y440000D02*
D03*
X265000Y410000D02*
D03*
Y350000D02*
D03*
X250000Y260000D02*
D03*
X265000Y230000D02*
D03*
X250000Y200000D02*
D03*
X265000Y170000D02*
D03*
X250000Y140000D02*
D03*
X265000Y110000D02*
D03*
X250000Y80000D02*
D03*
X265000Y50000D02*
D03*
X250000Y20000D02*
D03*
X220000Y440000D02*
D03*
X235000Y410000D02*
D03*
Y290000D02*
D03*
Y230000D02*
D03*
X220000Y200000D02*
D03*
X235000Y170000D02*
D03*
X220000Y140000D02*
D03*
X235000Y110000D02*
D03*
X220000Y80000D02*
D03*
X235000Y50000D02*
D03*
X220000Y20000D02*
D03*
X190000Y440000D02*
D03*
X205000Y230000D02*
D03*
X190000Y200000D02*
D03*
X205000Y170000D02*
D03*
X190000Y140000D02*
D03*
X205000Y110000D02*
D03*
X190000Y80000D02*
D03*
X205000Y50000D02*
D03*
X190000Y20000D02*
D03*
X160000Y440000D02*
D03*
X175000Y290000D02*
D03*
Y230000D02*
D03*
X160000Y200000D02*
D03*
X175000Y170000D02*
D03*
X160000Y140000D02*
D03*
X175000Y110000D02*
D03*
X160000Y80000D02*
D03*
X175000Y50000D02*
D03*
X160000Y20000D02*
D03*
X130000Y440000D02*
D03*
Y380000D02*
D03*
X145000Y230000D02*
D03*
X130000Y200000D02*
D03*
X145000Y170000D02*
D03*
X130000Y140000D02*
D03*
X145000Y110000D02*
D03*
X130000Y80000D02*
D03*
X145000Y50000D02*
D03*
X130000Y20000D02*
D03*
X100000Y440000D02*
D03*
X115000Y50000D02*
D03*
X100000Y20000D02*
D03*
X70000Y440000D02*
D03*
Y380000D02*
D03*
X85000Y170000D02*
D03*
X70000Y140000D02*
D03*
X85000Y110000D02*
D03*
X70000Y80000D02*
D03*
X85000Y50000D02*
D03*
X70000Y20000D02*
D03*
X40000Y380000D02*
D03*
X55000Y350000D02*
D03*
X40000Y320000D02*
D03*
Y260000D02*
D03*
Y200000D02*
D03*
X55000Y170000D02*
D03*
X40000Y140000D02*
D03*
X55000Y110000D02*
D03*
X40000Y80000D02*
D03*
X10000Y440000D02*
D03*
Y380000D02*
D03*
X25000Y350000D02*
D03*
X10000Y320000D02*
D03*
X25000Y290000D02*
D03*
X10000Y260000D02*
D03*
X25000Y230000D02*
D03*
X10000Y200000D02*
D03*
X25000Y170000D02*
D03*
X10000Y140000D02*
D03*
X25000Y110000D02*
D03*
X10000Y80000D02*
D03*
Y20000D02*
D03*
X136000Y279000D02*
D03*
X172750Y348750D02*
D03*
X199750Y345500D02*
D03*
X186750Y349500D02*
D03*
X158250Y278750D02*
D03*
X188000Y316000D02*
D03*
D29*
X151000D02*
D03*
X162000D02*
D03*
Y305000D02*
D03*
X151000D02*
D03*
X140000D02*
D03*
Y316000D02*
D03*
Y327000D02*
D03*
X151000D02*
D03*
X162000D02*
D03*
M02*
