G04 Layer_Color=8388736*
%FSLAX44Y44*%
%MOMM*%
G71*
G01*
G75*
%ADD33R,1.0532X1.0532*%
%ADD34R,1.0532X1.0532*%
%ADD35R,0.4532X1.2032*%
%ADD36R,1.2032X0.4532*%
%ADD37R,1.5500X3.1500*%
%ADD38R,2.2032X7.6032*%
%ADD39C,1.6032*%
%ADD40C,1.8032*%
%ADD41C,2.2032*%
%ADD42R,2.2032X2.2032*%
%ADD43R,2.2032X2.2032*%
%ADD44C,5.2032*%
%ADD45C,0.8032*%
%ADD46C,0.3000*%
D33*
X100000Y345000D02*
D03*
Y359000D02*
D03*
Y307000D02*
D03*
Y293000D02*
D03*
D34*
X155000Y367250D02*
D03*
X141000D02*
D03*
X86001Y326001D02*
D03*
X100001D02*
D03*
X171000Y267000D02*
D03*
X185000D02*
D03*
X146000D02*
D03*
X132000D02*
D03*
D35*
X136000Y339500D02*
D03*
X141000D02*
D03*
X146000D02*
D03*
X151000D02*
D03*
X156000D02*
D03*
X161000D02*
D03*
X166000D02*
D03*
Y292500D02*
D03*
X161000D02*
D03*
X156000D02*
D03*
X151000D02*
D03*
X146000D02*
D03*
X141000D02*
D03*
X136000D02*
D03*
D36*
X174500Y331000D02*
D03*
Y326000D02*
D03*
Y321000D02*
D03*
Y316000D02*
D03*
Y311000D02*
D03*
Y306000D02*
D03*
Y301000D02*
D03*
X127500D02*
D03*
Y306000D02*
D03*
Y311000D02*
D03*
Y316000D02*
D03*
Y321000D02*
D03*
Y326000D02*
D03*
Y331000D02*
D03*
D37*
X88000Y398000D02*
D03*
X112000D02*
D03*
D38*
X312000Y188750D02*
D03*
X102000D02*
D03*
X312000Y99000D02*
D03*
X102000D02*
D03*
D39*
X205250Y278750D02*
D03*
Y328750D02*
D03*
X315250Y303750D02*
D03*
D40*
X61000Y198000D02*
D03*
Y336000D02*
D03*
X281000Y406000D02*
D03*
X61000Y366000D02*
D03*
X311000Y406000D02*
D03*
X251000D02*
D03*
D41*
X61000Y296800D02*
D03*
Y271400D02*
D03*
X219100Y406000D02*
D03*
X168300D02*
D03*
X193700D02*
D03*
D42*
X61000Y246000D02*
D03*
D43*
X142900Y406000D02*
D03*
D44*
X40000Y420000D02*
D03*
X360000D02*
D03*
X40000Y40000D02*
D03*
X360000D02*
D03*
D45*
X162000Y327000D02*
D03*
X151000D02*
D03*
X140000D02*
D03*
Y316000D02*
D03*
Y305000D02*
D03*
X151000D02*
D03*
X162000D02*
D03*
Y316000D02*
D03*
X151000D02*
D03*
D46*
X188000D02*
D03*
M02*
