G04 Layer_Physical_Order=2*
G04 Layer_Color=16711680*
%FSLAX44Y44*%
%MOMM*%
G71*
G01*
G75*
%ADD19C,0.2000*%
%ADD20C,0.7500*%
%ADD22R,2.0000X2.0000*%
%ADD23C,2.0000*%
%ADD24R,2.0000X2.0000*%
%ADD25C,1.6000*%
%ADD26C,1.4000*%
%ADD27C,5.0000*%
%ADD28C,0.7000*%
%ADD29C,0.6000*%
%ADD30C,0.3000*%
G36*
X20000Y456890D02*
X380000D01*
X380048Y456900D01*
X383298Y456580D01*
X386469Y455618D01*
X389392Y454055D01*
X391953Y451953D01*
X394055Y449392D01*
X395618Y446469D01*
X396580Y443298D01*
X396900Y440048D01*
X396890Y440000D01*
Y20000D01*
X396900Y19952D01*
X396580Y16702D01*
X395618Y13531D01*
X394055Y10608D01*
X391953Y8047D01*
X389392Y5944D01*
X386469Y4382D01*
X383298Y3420D01*
X380048Y3100D01*
X380000Y3110D01*
X20000D01*
X20000Y3110D01*
Y3110D01*
X18756Y3218D01*
X16702Y3420D01*
X13531Y4382D01*
X10608Y5944D01*
X8047Y8047D01*
X5944Y10608D01*
X4382Y13531D01*
X3420Y16702D01*
X3100Y19952D01*
X3110Y20000D01*
Y440000D01*
X3110Y440000D01*
X3110D01*
X3218Y441244D01*
X3420Y443298D01*
X4382Y446469D01*
X5944Y449392D01*
X8047Y451953D01*
X10608Y454055D01*
X13531Y455618D01*
X16702Y456580D01*
X19952Y456900D01*
X20000Y456890D01*
D02*
G37*
%LPC*%
G36*
X316520Y313205D02*
Y305020D01*
X324705D01*
X324544Y306240D01*
X323583Y308561D01*
X322054Y310554D01*
X320061Y312083D01*
X317740Y313044D01*
X316520Y313205D01*
D02*
G37*
G36*
X313980Y313205D02*
X312760Y313044D01*
X310439Y312083D01*
X308446Y310554D01*
X306917Y308561D01*
X305956Y306240D01*
X305795Y305020D01*
X313980D01*
Y313205D01*
D02*
G37*
G36*
X138730Y303730D02*
X134604D01*
X134782Y302838D01*
X136006Y301006D01*
X137838Y299781D01*
X138730Y299604D01*
Y303730D01*
D02*
G37*
G36*
X167396D02*
X163270D01*
Y299604D01*
X164162Y299781D01*
X165994Y301006D01*
X167219Y302838D01*
X167396Y303730D01*
D02*
G37*
G36*
X73540Y244730D02*
X62270D01*
Y233460D01*
X73540D01*
Y244730D01*
D02*
G37*
G36*
X138730Y332396D02*
X137838Y332219D01*
X136006Y330994D01*
X134782Y329162D01*
X134604Y328270D01*
X138730D01*
Y332396D01*
D02*
G37*
G36*
X163270D02*
Y328270D01*
X167396D01*
X167219Y329162D01*
X165994Y330994D01*
X164162Y332219D01*
X163270Y332396D01*
D02*
G37*
G36*
X59730Y244730D02*
X48460D01*
Y233460D01*
X59730D01*
Y244730D01*
D02*
G37*
G36*
X61000Y346137D02*
X58376Y345791D01*
X55932Y344779D01*
X53832Y343168D01*
X52221Y341068D01*
X51209Y338624D01*
X50863Y336000D01*
X51209Y333376D01*
X52221Y330932D01*
X53832Y328832D01*
X55932Y327221D01*
X58376Y326209D01*
X61000Y325863D01*
X63624Y326209D01*
X66068Y327221D01*
X68168Y328832D01*
X69779Y330932D01*
X70791Y333376D01*
X71137Y336000D01*
X70791Y338624D01*
X69779Y341068D01*
X68168Y343168D01*
X66068Y344779D01*
X63624Y345791D01*
X61000Y346137D01*
D02*
G37*
G36*
X136000Y284659D02*
X133834Y284228D01*
X131999Y283001D01*
X130772Y281166D01*
X130341Y279000D01*
X130772Y276835D01*
X131999Y274999D01*
X133834Y273772D01*
X136000Y273341D01*
X138166Y273772D01*
X140001Y274999D01*
X141228Y276835D01*
X141659Y279000D01*
X141228Y281166D01*
X140001Y283001D01*
X138166Y284228D01*
X136000Y284659D01*
D02*
G37*
G36*
X107230Y277617D02*
X106924Y277556D01*
X105587Y276663D01*
X104694Y275326D01*
X104634Y275020D01*
X107230D01*
Y277617D01*
D02*
G37*
G36*
Y272480D02*
X104634D01*
X104694Y272174D01*
X105587Y270837D01*
X106924Y269944D01*
X107230Y269883D01*
Y272480D01*
D02*
G37*
G36*
X112367D02*
X109770D01*
Y269883D01*
X110076Y269944D01*
X111413Y270837D01*
X112306Y272174D01*
X112367Y272480D01*
D02*
G37*
G36*
X109770Y277617D02*
Y275020D01*
X112367D01*
X112306Y275326D01*
X111413Y276663D01*
X110076Y277556D01*
X109770Y277617D01*
D02*
G37*
G36*
X324705Y302480D02*
X316520D01*
Y294295D01*
X317740Y294456D01*
X320061Y295417D01*
X322054Y296946D01*
X323583Y298939D01*
X324544Y301259D01*
X324705Y302480D01*
D02*
G37*
G36*
X313980D02*
X305795D01*
X305956Y301259D01*
X306917Y298939D01*
X308446Y296946D01*
X310439Y295417D01*
X312760Y294456D01*
X313980Y294295D01*
Y302480D01*
D02*
G37*
G36*
X205250Y287878D02*
X202887Y287567D01*
X200686Y286655D01*
X198796Y285205D01*
X197345Y283314D01*
X196433Y281112D01*
X196122Y278750D01*
X196433Y276388D01*
X197345Y274186D01*
X198796Y272295D01*
X200686Y270845D01*
X202887Y269933D01*
X205250Y269622D01*
X207613Y269933D01*
X209814Y270845D01*
X211705Y272295D01*
X213155Y274186D01*
X214067Y276388D01*
X214378Y278750D01*
X214067Y281112D01*
X213155Y283314D01*
X211705Y285205D01*
X209814Y286655D01*
X207613Y287567D01*
X205250Y287878D01*
D02*
G37*
G36*
X61000Y308954D02*
X57854Y308540D01*
X54923Y307326D01*
X52406Y305394D01*
X50474Y302877D01*
X49260Y299946D01*
X48846Y296800D01*
X49260Y293654D01*
X50474Y290723D01*
X52406Y288206D01*
X54923Y286274D01*
X57854Y285060D01*
X60282Y284741D01*
Y283459D01*
X57854Y283140D01*
X54923Y281926D01*
X52406Y279994D01*
X50474Y277477D01*
X49260Y274546D01*
X48846Y271400D01*
X49260Y268254D01*
X50474Y265323D01*
X52406Y262806D01*
X54923Y260874D01*
X57492Y259810D01*
X57240Y258540D01*
X48460D01*
Y247270D01*
X61000D01*
X73540D01*
Y258540D01*
X64760D01*
X64507Y259810D01*
X67077Y260874D01*
X69594Y262806D01*
X71526Y265323D01*
X72740Y268254D01*
X73154Y271400D01*
X72740Y274546D01*
X71526Y277477D01*
X69594Y279994D01*
X67077Y281926D01*
X64146Y283140D01*
X61718Y283459D01*
Y284741D01*
X64146Y285060D01*
X67077Y286274D01*
X69594Y288206D01*
X71526Y290723D01*
X72740Y293654D01*
X73154Y296800D01*
X72740Y299946D01*
X71526Y302877D01*
X69594Y305394D01*
X67077Y307326D01*
X64146Y308540D01*
X61000Y308954D01*
D02*
G37*
G36*
X141630Y404730D02*
X130360D01*
Y393460D01*
X141630D01*
Y404730D01*
D02*
G37*
G36*
X309730D02*
X300536D01*
X300731Y403248D01*
X301793Y400685D01*
X303483Y398483D01*
X305685Y396793D01*
X308249Y395731D01*
X309730Y395536D01*
Y404730D01*
D02*
G37*
G36*
X40000Y447134D02*
X35755Y446800D01*
X31615Y445806D01*
X27682Y444176D01*
X24051Y441952D01*
X20814Y439186D01*
X18048Y435949D01*
X15824Y432318D01*
X14194Y428385D01*
X13200Y424245D01*
X12866Y420000D01*
X13200Y415755D01*
X14194Y411615D01*
X15824Y407682D01*
X18048Y404051D01*
X20814Y400814D01*
X24051Y398048D01*
X27682Y395824D01*
X31615Y394194D01*
X35755Y393200D01*
X40000Y392866D01*
X44245Y393200D01*
X48385Y394194D01*
X52318Y395824D01*
X55949Y398048D01*
X59186Y400814D01*
X61952Y404051D01*
X64176Y407682D01*
X65806Y411615D01*
X66800Y415755D01*
X67134Y420000D01*
X66800Y424245D01*
X65806Y428385D01*
X64176Y432318D01*
X61952Y435949D01*
X59186Y439186D01*
X55949Y441952D01*
X52318Y444176D01*
X48385Y445806D01*
X44245Y446800D01*
X40000Y447134D01*
D02*
G37*
G36*
X360000D02*
X355755Y446800D01*
X351615Y445806D01*
X347682Y444176D01*
X344051Y441952D01*
X340814Y439186D01*
X338048Y435949D01*
X335824Y432318D01*
X334194Y428385D01*
X333200Y424245D01*
X332866Y420000D01*
X333200Y415755D01*
X334194Y411615D01*
X335824Y407682D01*
X338048Y404051D01*
X340814Y400814D01*
X344051Y398048D01*
X347682Y395824D01*
X351615Y394194D01*
X355755Y393200D01*
X360000Y392866D01*
X364245Y393200D01*
X368385Y394194D01*
X372318Y395824D01*
X375949Y398048D01*
X379186Y400814D01*
X381952Y404051D01*
X384176Y407682D01*
X385806Y411615D01*
X386800Y415755D01*
X387134Y420000D01*
X386800Y424245D01*
X385806Y428385D01*
X384176Y432318D01*
X381952Y435949D01*
X379186Y439186D01*
X375949Y441952D01*
X372318Y444176D01*
X368385Y445806D01*
X364245Y446800D01*
X360000Y447134D01*
D02*
G37*
G36*
X321464Y404730D02*
X312270D01*
Y395536D01*
X313752Y395731D01*
X316315Y396793D01*
X318517Y398483D01*
X320207Y400685D01*
X321269Y403248D01*
X321464Y404730D01*
D02*
G37*
G36*
X141630Y418540D02*
X130360D01*
Y407270D01*
X141630D01*
Y418540D01*
D02*
G37*
G36*
X312270Y416464D02*
Y407270D01*
X321464D01*
X321269Y408751D01*
X320207Y411315D01*
X318517Y413517D01*
X316315Y415207D01*
X313752Y416269D01*
X312270Y416464D01*
D02*
G37*
G36*
X251000Y416137D02*
X248377Y415791D01*
X245932Y414779D01*
X243832Y413168D01*
X242221Y411068D01*
X241209Y408624D01*
X240863Y406000D01*
X241209Y403376D01*
X242221Y400932D01*
X243832Y398832D01*
X245932Y397221D01*
X248377Y396209D01*
X251000Y395863D01*
X253624Y396209D01*
X256068Y397221D01*
X258168Y398832D01*
X259779Y400932D01*
X260791Y403376D01*
X261137Y406000D01*
X260791Y408624D01*
X259779Y411068D01*
X258168Y413168D01*
X256068Y414779D01*
X253624Y415791D01*
X251000Y416137D01*
D02*
G37*
G36*
X309730Y416464D02*
X308249Y416269D01*
X305685Y415207D01*
X303483Y413517D01*
X301793Y411315D01*
X300731Y408751D01*
X300536Y407270D01*
X309730D01*
Y416464D01*
D02*
G37*
G36*
X357730Y354790D02*
X346460D01*
Y343520D01*
X357730D01*
Y354790D01*
D02*
G37*
G36*
X371540D02*
X360270D01*
Y343520D01*
X371540D01*
Y354790D01*
D02*
G37*
G36*
X160730Y332396D02*
X159838Y332219D01*
X158006Y330994D01*
X157264Y329883D01*
X155736D01*
X154994Y330994D01*
X153162Y332219D01*
X152270Y332396D01*
Y327000D01*
X149730D01*
Y332396D01*
X148838Y332219D01*
X147006Y330994D01*
X146264Y329883D01*
X144736D01*
X143994Y330994D01*
X142162Y332219D01*
X141270Y332396D01*
Y327000D01*
X140000D01*
Y325730D01*
X134604D01*
X134782Y324838D01*
X136006Y323006D01*
X137117Y322264D01*
Y320736D01*
X136006Y319994D01*
X134782Y318162D01*
X134604Y317270D01*
X140000D01*
Y314730D01*
X134604D01*
X134782Y313838D01*
X136006Y312006D01*
X137117Y311264D01*
Y309736D01*
X136006Y308994D01*
X134782Y307162D01*
X134604Y306270D01*
X140000D01*
Y305000D01*
X141270D01*
Y299604D01*
X142162Y299781D01*
X143994Y301006D01*
X144736Y302117D01*
X146264D01*
X147006Y301006D01*
X148838Y299781D01*
X149730Y299604D01*
Y305000D01*
X152270D01*
Y299604D01*
X153162Y299781D01*
X154994Y301006D01*
X155736Y302117D01*
X157264D01*
X158006Y301006D01*
X159838Y299781D01*
X160730Y299604D01*
Y305000D01*
X162000D01*
Y306270D01*
X167396D01*
X167219Y307162D01*
X165994Y308994D01*
X164883Y309736D01*
Y311264D01*
X165994Y312006D01*
X167219Y313838D01*
X167396Y314730D01*
X162000D01*
Y317270D01*
X167396D01*
X167219Y318162D01*
X165994Y319994D01*
X164883Y320736D01*
Y322264D01*
X165994Y323006D01*
X167219Y324838D01*
X167396Y325730D01*
X162000D01*
Y327000D01*
X160730D01*
Y332396D01*
D02*
G37*
G36*
X281000Y416137D02*
X278377Y415791D01*
X275932Y414779D01*
X273832Y413168D01*
X272221Y411068D01*
X271209Y408624D01*
X270863Y406000D01*
X271209Y403376D01*
X272221Y400932D01*
X273832Y398832D01*
X275086Y397870D01*
Y384450D01*
X225301Y334664D01*
X212120D01*
X211705Y335205D01*
X209814Y336655D01*
X207613Y337567D01*
X205250Y337878D01*
X202887Y337567D01*
X200686Y336655D01*
X198796Y335205D01*
X197345Y333314D01*
X196433Y331113D01*
X196122Y328750D01*
X196433Y326387D01*
X197345Y324186D01*
X198796Y322295D01*
X200628Y320890D01*
X200638Y320760D01*
X200163Y319620D01*
X192778D01*
X192621Y319643D01*
X192466Y319677D01*
X192338Y319715D01*
X192235Y319755D01*
X192154Y319796D01*
X192129Y319811D01*
X192001Y320001D01*
X190166Y321228D01*
X188000Y321659D01*
X185835Y321228D01*
X183999Y320001D01*
X182772Y318165D01*
X182341Y316000D01*
X182772Y313834D01*
X183999Y311999D01*
X185835Y310772D01*
X188000Y310341D01*
X190166Y310772D01*
X192001Y311999D01*
X192129Y312189D01*
X192154Y312204D01*
X192235Y312245D01*
X192338Y312285D01*
X192466Y312323D01*
X192621Y312357D01*
X192778Y312381D01*
X298000D01*
X299385Y312656D01*
X300559Y313441D01*
X305499Y318380D01*
X329751D01*
X333841Y314291D01*
X335015Y313506D01*
X336400Y313230D01*
X343400D01*
X343490Y313223D01*
X343954Y313119D01*
X344510Y312921D01*
X345150Y312618D01*
X345866Y312203D01*
X346651Y311672D01*
X347479Y311039D01*
X349374Y309367D01*
X350117Y308633D01*
X350406Y308256D01*
X352923Y306324D01*
X355854Y305110D01*
X358282Y304790D01*
Y303510D01*
X355854Y303190D01*
X352923Y301976D01*
X350406Y300044D01*
X348474Y297527D01*
X347260Y294596D01*
X346846Y291450D01*
X346909Y290969D01*
X346907Y289903D01*
X346867Y288624D01*
X346679Y286375D01*
X346543Y285498D01*
X346378Y284743D01*
X346266Y284370D01*
X235750D01*
X234365Y284094D01*
X233191Y283309D01*
X215001Y265120D01*
X196749D01*
X180559Y281309D01*
X179385Y282094D01*
X178000Y282369D01*
X163027D01*
X162871Y282393D01*
X162716Y282427D01*
X162588Y282465D01*
X162485Y282505D01*
X162404Y282546D01*
X162379Y282561D01*
X162251Y282751D01*
X160415Y283978D01*
X158250Y284409D01*
X156084Y283978D01*
X154249Y282751D01*
X153022Y280916D01*
X152591Y278750D01*
X153022Y276584D01*
X154249Y274749D01*
X156084Y273522D01*
X158250Y273091D01*
X160415Y273522D01*
X162251Y274749D01*
X162379Y274939D01*
X162404Y274954D01*
X162485Y274995D01*
X162588Y275035D01*
X162715Y275073D01*
X162871Y275107D01*
X163027Y275130D01*
X176501D01*
X192691Y258941D01*
X193865Y258156D01*
X195250Y257880D01*
X216500D01*
X217885Y258156D01*
X219059Y258941D01*
X237249Y277131D01*
X348300D01*
X349685Y277406D01*
X350669Y278063D01*
X350684Y278071D01*
X350697Y278082D01*
X350859Y278191D01*
X350982Y278313D01*
X351250Y278466D01*
X351691Y278648D01*
X352293Y278828D01*
X353048Y278993D01*
X353905Y279126D01*
X357488Y279357D01*
X358519Y279359D01*
X359000Y279296D01*
X362146Y279710D01*
X365077Y280924D01*
X367594Y282856D01*
X369526Y285373D01*
X370740Y288304D01*
X371154Y291450D01*
X370740Y294596D01*
X369526Y297527D01*
X367594Y300044D01*
X365077Y301976D01*
X362146Y303190D01*
X359718Y303510D01*
Y304790D01*
X362146Y305110D01*
X365077Y306324D01*
X367594Y308256D01*
X369526Y310773D01*
X370740Y313704D01*
X371154Y316850D01*
X370740Y319996D01*
X369526Y322927D01*
X367594Y325444D01*
X365077Y327376D01*
X362508Y328440D01*
X362760Y329710D01*
X371540D01*
Y340980D01*
X359000D01*
X346460D01*
Y329710D01*
X355240D01*
X355493Y328440D01*
X352923Y327376D01*
X350406Y325444D01*
X350117Y325067D01*
X349373Y324333D01*
X347479Y322661D01*
X346651Y322028D01*
X345866Y321497D01*
X345150Y321082D01*
X344510Y320779D01*
X343954Y320581D01*
X343490Y320477D01*
X343400Y320470D01*
X337899D01*
X333809Y324559D01*
X332635Y325344D01*
X331250Y325620D01*
X304000D01*
X302615Y325344D01*
X301441Y324559D01*
X296501Y319620D01*
X210337D01*
X209862Y320760D01*
X209872Y320890D01*
X211705Y322295D01*
X212120Y322836D01*
X227750D01*
X230013Y323287D01*
X231932Y324568D01*
X285182Y377818D01*
X286464Y379737D01*
X286914Y382000D01*
Y397870D01*
X288168Y398832D01*
X289779Y400932D01*
X290791Y403376D01*
X291137Y406000D01*
X290791Y408624D01*
X289779Y411068D01*
X288168Y413168D01*
X286068Y414779D01*
X283624Y415791D01*
X281000Y416137D01*
D02*
G37*
G36*
X61000Y208136D02*
X58376Y207791D01*
X55932Y206778D01*
X53832Y205167D01*
X52221Y203068D01*
X51209Y200623D01*
X50863Y198000D01*
X51209Y195376D01*
X52221Y192931D01*
X53832Y190832D01*
X55932Y189221D01*
X58376Y188208D01*
X61000Y187863D01*
X63624Y188208D01*
X66068Y189221D01*
X68168Y190832D01*
X69779Y192931D01*
X70791Y195376D01*
X71137Y198000D01*
X70791Y200623D01*
X69779Y203068D01*
X68168Y205167D01*
X66068Y206778D01*
X63624Y207791D01*
X61000Y208136D01*
D02*
G37*
G36*
X40000Y67134D02*
X35755Y66800D01*
X31615Y65806D01*
X27682Y64176D01*
X24051Y61952D01*
X20814Y59186D01*
X18048Y55949D01*
X15824Y52318D01*
X14194Y48385D01*
X13200Y44245D01*
X12866Y40000D01*
X13200Y35755D01*
X14194Y31615D01*
X15824Y27682D01*
X18048Y24051D01*
X20814Y20814D01*
X24051Y18048D01*
X27682Y15824D01*
X31615Y14194D01*
X35755Y13200D01*
X40000Y12866D01*
X44245Y13200D01*
X48385Y14194D01*
X52318Y15824D01*
X55949Y18048D01*
X59186Y20814D01*
X61952Y24051D01*
X64176Y27682D01*
X65806Y31615D01*
X66800Y35755D01*
X67134Y40000D01*
X66800Y44245D01*
X65806Y48385D01*
X64176Y52318D01*
X61952Y55949D01*
X59186Y59186D01*
X55949Y61952D01*
X52318Y64176D01*
X48385Y65806D01*
X44245Y66800D01*
X40000Y67134D01*
D02*
G37*
G36*
X61000Y376137D02*
X58376Y375791D01*
X55932Y374779D01*
X53832Y373168D01*
X52221Y371068D01*
X51209Y368624D01*
X50863Y366000D01*
X51209Y363376D01*
X52221Y360932D01*
X53832Y358832D01*
X55932Y357221D01*
X58376Y356209D01*
X61000Y355863D01*
X63624Y356209D01*
X66068Y357221D01*
X68168Y358832D01*
X69779Y360932D01*
X70791Y363376D01*
X71137Y366000D01*
X70791Y368624D01*
X69779Y371068D01*
X68168Y373168D01*
X66068Y374779D01*
X63624Y375791D01*
X61000Y376137D01*
D02*
G37*
G36*
X360000Y67134D02*
X355755Y66800D01*
X351615Y65806D01*
X347682Y64176D01*
X344051Y61952D01*
X340814Y59186D01*
X338048Y55949D01*
X335824Y52318D01*
X334194Y48385D01*
X333200Y44245D01*
X332866Y40000D01*
X333200Y35755D01*
X334194Y31615D01*
X335824Y27682D01*
X338048Y24051D01*
X340814Y20814D01*
X344051Y18048D01*
X347682Y15824D01*
X351615Y14194D01*
X355755Y13200D01*
X360000Y12866D01*
X364245Y13200D01*
X368385Y14194D01*
X372318Y15824D01*
X375949Y18048D01*
X379186Y20814D01*
X381952Y24051D01*
X384176Y27682D01*
X385806Y31615D01*
X386800Y35755D01*
X387134Y40000D01*
X386800Y44245D01*
X385806Y48385D01*
X384176Y52318D01*
X381952Y55949D01*
X379186Y59186D01*
X375949Y61952D01*
X372318Y64176D01*
X368385Y65806D01*
X364245Y66800D01*
X360000Y67134D01*
D02*
G37*
G36*
X155440Y418540D02*
X144170D01*
Y406000D01*
Y393460D01*
X155440D01*
Y402240D01*
X156710Y402492D01*
X157774Y399923D01*
X159706Y397406D01*
X162223Y395474D01*
X165154Y394260D01*
X168300Y393846D01*
X169130Y393118D01*
Y353527D01*
X169107Y353372D01*
X169073Y353216D01*
X169035Y353088D01*
X168995Y352985D01*
X168954Y352904D01*
X168939Y352878D01*
X168749Y352751D01*
X167522Y350915D01*
X167091Y348750D01*
X167522Y346585D01*
X168749Y344749D01*
X170585Y343522D01*
X172750Y343091D01*
X174916Y343522D01*
X176751Y344749D01*
X177978Y346585D01*
X178409Y348750D01*
X177978Y350915D01*
X176751Y352751D01*
X176561Y352878D01*
X176546Y352904D01*
X176505Y352985D01*
X176465Y353088D01*
X176427Y353215D01*
X176393Y353372D01*
X176369Y353527D01*
Y397003D01*
X176894Y397406D01*
X178826Y399923D01*
X180040Y402854D01*
X180359Y405282D01*
X181640D01*
X181960Y402854D01*
X183174Y399923D01*
X185106Y397406D01*
X187623Y395474D01*
X190554Y394260D01*
X190590Y394255D01*
Y357738D01*
X188272Y355420D01*
X188253Y355406D01*
X188154Y355345D01*
X188038Y355288D01*
X187901Y355235D01*
X187739Y355187D01*
X187550Y355146D01*
X187332Y355115D01*
X187083Y355096D01*
X187069Y355095D01*
X186750Y355159D01*
X184585Y354728D01*
X182749Y353501D01*
X181522Y351665D01*
X181091Y349500D01*
X181522Y347335D01*
X182749Y345499D01*
X184585Y344272D01*
X186750Y343841D01*
X188916Y344272D01*
X190751Y345499D01*
X191978Y347335D01*
X192409Y349500D01*
X192345Y349819D01*
X192346Y349833D01*
X192365Y350081D01*
X192396Y350300D01*
X192437Y350489D01*
X192485Y350651D01*
X192538Y350788D01*
X192595Y350904D01*
X192656Y351003D01*
X192670Y351022D01*
X195899Y354251D01*
X196573Y355260D01*
X196810Y356450D01*
Y394255D01*
X196846Y394260D01*
X199777Y395474D01*
X202294Y397406D01*
X204226Y399923D01*
X205440Y402854D01*
X205760Y405282D01*
X207041D01*
X207360Y402854D01*
X208574Y399923D01*
X210506Y397406D01*
X213023Y395474D01*
X215954Y394260D01*
X215990Y394255D01*
Y366138D01*
X201272Y351420D01*
X201253Y351406D01*
X201154Y351345D01*
X201038Y351288D01*
X200901Y351235D01*
X200739Y351187D01*
X200550Y351146D01*
X200331Y351115D01*
X200083Y351096D01*
X200069Y351095D01*
X199750Y351159D01*
X197584Y350728D01*
X195749Y349501D01*
X194522Y347665D01*
X194091Y345500D01*
X194522Y343335D01*
X195749Y341499D01*
X197584Y340272D01*
X199750Y339841D01*
X201915Y340272D01*
X203751Y341499D01*
X204978Y343335D01*
X205409Y345500D01*
X205345Y345819D01*
X205346Y345833D01*
X205365Y346082D01*
X205396Y346300D01*
X205437Y346489D01*
X205485Y346651D01*
X205538Y346788D01*
X205595Y346904D01*
X205656Y347003D01*
X205670Y347022D01*
X221299Y362651D01*
X221973Y363660D01*
X222210Y364850D01*
Y394255D01*
X222246Y394260D01*
X225177Y395474D01*
X227694Y397406D01*
X229626Y399923D01*
X230840Y402854D01*
X231254Y406000D01*
X230840Y409146D01*
X229626Y412077D01*
X227694Y414594D01*
X225177Y416526D01*
X222246Y417740D01*
X219100Y418154D01*
X215954Y417740D01*
X213023Y416526D01*
X210506Y414594D01*
X208574Y412077D01*
X207360Y409146D01*
X207041Y406718D01*
X205760D01*
X205440Y409146D01*
X204226Y412077D01*
X202294Y414594D01*
X199777Y416526D01*
X196846Y417740D01*
X193700Y418154D01*
X190554Y417740D01*
X187623Y416526D01*
X185106Y414594D01*
X183174Y412077D01*
X181960Y409146D01*
X181640Y406718D01*
X180359D01*
X180040Y409146D01*
X178826Y412077D01*
X176894Y414594D01*
X174377Y416526D01*
X171446Y417740D01*
X168300Y418154D01*
X165154Y417740D01*
X162223Y416526D01*
X159706Y414594D01*
X157774Y412077D01*
X156710Y409507D01*
X155440Y409760D01*
Y418540D01*
D02*
G37*
%LPD*%
G36*
X358900Y281451D02*
X357418Y281447D01*
X353677Y281206D01*
X352665Y281049D01*
X351769Y280853D01*
X350991Y280620D01*
X350331Y280348D01*
X349787Y280038D01*
X349361Y279689D01*
X347239Y281811D01*
X347588Y282237D01*
X347898Y282780D01*
X348170Y283441D01*
X348403Y284219D01*
X348599Y285115D01*
X348756Y286127D01*
X348955Y288504D01*
X348997Y289868D01*
X349001Y291350D01*
X358900Y281451D01*
D02*
G37*
G36*
X160945Y281019D02*
X161158Y280858D01*
X161389Y280716D01*
X161639Y280592D01*
X161906Y280487D01*
X162191Y280402D01*
X162494Y280336D01*
X162816Y280288D01*
X163155Y280259D01*
X163512Y280250D01*
Y277250D01*
X163155Y277241D01*
X162816Y277212D01*
X162494Y277164D01*
X162191Y277098D01*
X161906Y277013D01*
X161639Y276908D01*
X161389Y276784D01*
X161158Y276642D01*
X160945Y276481D01*
X160749Y276300D01*
Y281200D01*
X160945Y281019D01*
D02*
G37*
G36*
X190695Y318270D02*
X190908Y318108D01*
X191139Y317966D01*
X191388Y317842D01*
X191656Y317738D01*
X191941Y317652D01*
X192244Y317586D01*
X192566Y317538D01*
X192905Y317509D01*
X193262Y317500D01*
Y314500D01*
X192905Y314491D01*
X192566Y314462D01*
X192244Y314415D01*
X191941Y314348D01*
X191656Y314263D01*
X191388Y314158D01*
X191139Y314035D01*
X190908Y313892D01*
X190695Y313731D01*
X190499Y313550D01*
Y318450D01*
X190695Y318270D01*
D02*
G37*
G36*
X351859Y309850D02*
X350801Y310895D01*
X348807Y312655D01*
X347872Y313370D01*
X346977Y313975D01*
X346123Y314470D01*
X345309Y314855D01*
X344536Y315130D01*
X343804Y315295D01*
X343113Y315350D01*
Y318350D01*
X343804Y318405D01*
X344536Y318570D01*
X345309Y318845D01*
X346123Y319230D01*
X346977Y319725D01*
X347872Y320330D01*
X348807Y321045D01*
X350801Y322805D01*
X351859Y323850D01*
Y309850D01*
D02*
G37*
G36*
X191314Y352649D02*
X191108Y352423D01*
X190924Y352178D01*
X190763Y351914D01*
X190623Y351631D01*
X190506Y351329D01*
X190410Y351008D01*
X190337Y350668D01*
X190286Y350309D01*
X190257Y349932D01*
X190250Y349535D01*
X186785Y353000D01*
X187182Y353007D01*
X187559Y353036D01*
X187918Y353087D01*
X188258Y353160D01*
X188579Y353256D01*
X188881Y353373D01*
X189164Y353513D01*
X189428Y353674D01*
X189673Y353858D01*
X189900Y354064D01*
X191314Y352649D01*
D02*
G37*
G36*
X204314Y348649D02*
X204108Y348423D01*
X203924Y348178D01*
X203763Y347914D01*
X203623Y347631D01*
X203506Y347329D01*
X203410Y347008D01*
X203337Y346668D01*
X203286Y346309D01*
X203257Y345932D01*
X203250Y345535D01*
X199785Y349000D01*
X200182Y349007D01*
X200559Y349036D01*
X200918Y349087D01*
X201258Y349160D01*
X201579Y349256D01*
X201881Y349373D01*
X202164Y349513D01*
X202428Y349674D01*
X202673Y349858D01*
X202899Y350064D01*
X204314Y348649D01*
D02*
G37*
G36*
X194750Y404898D02*
X194739Y404798D01*
X194722Y404421D01*
X194700Y401882D01*
X192700D01*
X192639Y404940D01*
X194761D01*
X194750Y404898D01*
D02*
G37*
G36*
X174259Y353655D02*
X174288Y353316D01*
X174335Y352994D01*
X174402Y352691D01*
X174487Y352406D01*
X174592Y352138D01*
X174715Y351889D01*
X174858Y351658D01*
X175019Y351445D01*
X175200Y351250D01*
X170300D01*
X170480Y351445D01*
X170642Y351658D01*
X170784Y351889D01*
X170908Y352138D01*
X171012Y352406D01*
X171098Y352691D01*
X171164Y352994D01*
X171212Y353316D01*
X171241Y353655D01*
X171250Y354012D01*
X174250D01*
X174259Y353655D01*
D02*
G37*
D19*
X219100Y364850D02*
Y406000D01*
X199750Y345500D02*
X219100Y364850D01*
X193700Y356450D02*
Y406000D01*
X186750Y349500D02*
X193700Y356450D01*
D20*
X281000Y382000D02*
Y406000D01*
X205250Y328750D02*
X227750D01*
X281000Y382000D01*
D22*
X359000Y342250D02*
D03*
X61000Y246000D02*
D03*
D23*
X359000Y316850D02*
D03*
Y291450D02*
D03*
X61000Y296800D02*
D03*
Y271400D02*
D03*
X219100Y406000D02*
D03*
X168300D02*
D03*
X193700D02*
D03*
D24*
X142900D02*
D03*
D25*
X251000D02*
D03*
X61000Y198000D02*
D03*
Y336000D02*
D03*
X281000Y406000D02*
D03*
X61000Y366000D02*
D03*
X311000Y406000D02*
D03*
D26*
X205250Y278750D02*
D03*
Y328750D02*
D03*
X315250Y303750D02*
D03*
D27*
X40000Y420000D02*
D03*
X360000D02*
D03*
X40000Y40000D02*
D03*
X360000D02*
D03*
D28*
X188000Y316000D02*
D03*
X158250Y278750D02*
D03*
X186750Y349500D02*
D03*
X199750Y345500D02*
D03*
X172750Y348750D02*
D03*
X136000Y279000D02*
D03*
D29*
X162000Y327000D02*
D03*
X151000D02*
D03*
X140000D02*
D03*
Y316000D02*
D03*
Y305000D02*
D03*
X151000D02*
D03*
X162000D02*
D03*
Y316000D02*
D03*
X151000D02*
D03*
D30*
X336400Y316850D02*
X359000D01*
X331250Y322000D02*
X336400Y316850D01*
X304000Y322000D02*
X331250D01*
X298000Y316000D02*
X304000Y322000D01*
X188000Y316000D02*
X298000D01*
X348300Y280750D02*
X359000Y291450D01*
X235750Y280750D02*
X348300D01*
X216500Y261500D02*
X235750Y280750D01*
X195250Y261500D02*
X216500D01*
X178000Y278750D02*
X195250Y261500D01*
X158250Y278750D02*
X178000D01*
X168300Y406000D02*
X172750Y401550D01*
Y348750D02*
Y401550D01*
X193700Y406000D02*
X194250Y405450D01*
M02*
