G04 Layer_Color=32896*
%FSLAX44Y44*%
%MOMM*%
G71*
G01*
G75*
%ADD32C,0.1000*%
G36*
X228279Y217333D02*
X228649Y217240D01*
X228964Y217129D01*
X229242Y216981D01*
X229464Y216833D01*
X229612Y216721D01*
X229723Y216629D01*
X229760Y216592D01*
X230020Y216296D01*
X230205Y215981D01*
X230334Y215666D01*
X230427Y215370D01*
X230483Y215111D01*
X230501Y214907D01*
X230520Y214833D01*
Y214777D01*
Y214740D01*
Y214722D01*
Y212629D01*
X230483Y212241D01*
X230408Y211870D01*
X230279Y211555D01*
X230131Y211278D01*
X230001Y211056D01*
X229871Y210907D01*
X229797Y210796D01*
X229760Y210759D01*
X229464Y210500D01*
X229131Y210315D01*
X228834Y210185D01*
X228538Y210093D01*
X228279Y210037D01*
X228075Y210019D01*
X228001Y210000D01*
X227890D01*
X227501Y210037D01*
X227150Y210111D01*
X226835Y210241D01*
X226557Y210389D01*
X226335Y210518D01*
X226168Y210648D01*
X226075Y210722D01*
X226038Y210759D01*
X225779Y211056D01*
X225594Y211389D01*
X225446Y211685D01*
X225353Y211981D01*
X225298Y212241D01*
X225279Y212444D01*
X225261Y212518D01*
Y212574D01*
Y212611D01*
Y212629D01*
Y214722D01*
X225298Y215129D01*
X225390Y215481D01*
X225501Y215796D01*
X225650Y216073D01*
X225798Y216296D01*
X225909Y216462D01*
X226001Y216555D01*
X226038Y216592D01*
X226335Y216851D01*
X226649Y217036D01*
X226964Y217185D01*
X227242Y217277D01*
X227501Y217333D01*
X227705Y217351D01*
X227779Y217370D01*
X227890D01*
X228279Y217333D01*
D02*
G37*
G36*
X222780Y217351D02*
X222891Y217296D01*
X222983Y217222D01*
X223002Y217203D01*
X223094Y217092D01*
X223131Y216962D01*
X223150Y216870D01*
Y216851D01*
Y216833D01*
X223131Y216721D01*
Y216684D01*
Y216666D01*
X221057Y210426D01*
X220984Y210278D01*
X220909Y210185D01*
X220817Y210111D01*
X220724Y210056D01*
X220650Y210019D01*
X220576Y210000D01*
X220520D01*
X220391Y210019D01*
X220280Y210074D01*
X220187Y210130D01*
X220113Y210222D01*
X220076Y210296D01*
X220039Y210352D01*
X220002Y210407D01*
Y210426D01*
X217928Y216666D01*
X217891Y216777D01*
Y216814D01*
Y216833D01*
X217910Y217018D01*
X217965Y217147D01*
X218058Y217240D01*
X218150Y217296D01*
X218262Y217351D01*
X218336Y217370D01*
X218428D01*
X218558Y217351D01*
X218669Y217314D01*
X218762Y217258D01*
X218817Y217185D01*
X218910Y217055D01*
X218928Y217018D01*
Y216999D01*
X220520Y212185D01*
X222132Y216999D01*
X222187Y217129D01*
X222261Y217222D01*
X222335Y217277D01*
X222428Y217333D01*
X222502Y217351D01*
X222576Y217370D01*
X222631D01*
X222780Y217351D01*
D02*
G37*
G36*
X209114Y220499D02*
X209244Y220443D01*
X209336Y220351D01*
X209392Y220258D01*
X209429Y220147D01*
X209466Y220073D01*
Y219999D01*
Y219981D01*
Y210518D01*
X209448Y210352D01*
X209392Y210222D01*
X209300Y210130D01*
X209207Y210074D01*
X209114Y210037D01*
X209022Y210000D01*
X208948D01*
X208762Y210019D01*
X208633Y210074D01*
X208540Y210167D01*
X208485Y210259D01*
X208429Y210352D01*
X208411Y210444D01*
Y210500D01*
Y210518D01*
Y216314D01*
X206318D01*
X206152Y216296D01*
X206022Y216259D01*
X205892Y216222D01*
X205781Y216166D01*
X205689Y216092D01*
X205633Y216055D01*
X205596Y216018D01*
X205578Y215999D01*
X205466Y215888D01*
X205392Y215759D01*
X205337Y215629D01*
X205300Y215518D01*
X205281Y215407D01*
X205263Y215333D01*
Y215277D01*
Y215259D01*
Y210518D01*
X205244Y210352D01*
X205189Y210222D01*
X205096Y210130D01*
X205004Y210074D01*
X204911Y210037D01*
X204818Y210000D01*
X204744D01*
X204559Y210019D01*
X204430Y210074D01*
X204337Y210167D01*
X204282Y210259D01*
X204226Y210352D01*
X204207Y210444D01*
Y210500D01*
Y210518D01*
Y215296D01*
X204226Y215611D01*
X204300Y215888D01*
X204411Y216129D01*
X204522Y216351D01*
X204633Y216518D01*
X204744Y216647D01*
X204818Y216740D01*
X204837Y216759D01*
X205078Y216962D01*
X205318Y217110D01*
X205578Y217222D01*
X205800Y217296D01*
X206003Y217333D01*
X206170Y217370D01*
X208411D01*
Y219981D01*
X208429Y220166D01*
X208485Y220295D01*
X208577Y220388D01*
X208670Y220443D01*
X208781Y220499D01*
X208855Y220517D01*
X208948D01*
X209114Y220499D01*
D02*
G37*
G36*
X214003Y217351D02*
X214299Y217277D01*
X214558Y217185D01*
X214762Y217073D01*
X214947Y216944D01*
X215077Y216851D01*
X215151Y216777D01*
X215188Y216759D01*
X215391Y216518D01*
X215521Y216259D01*
X215632Y216018D01*
X215706Y215777D01*
X215743Y215574D01*
X215762Y215407D01*
X215780Y215296D01*
Y215277D01*
Y215259D01*
Y212092D01*
X215762Y211778D01*
X215688Y211481D01*
X215595Y211222D01*
X215484Y211018D01*
X215373Y210833D01*
X215280Y210704D01*
X215206Y210630D01*
X215188Y210592D01*
X214947Y210389D01*
X214688Y210259D01*
X214447Y210148D01*
X214206Y210074D01*
X214003Y210037D01*
X213836Y210019D01*
X213725Y210000D01*
X212114D01*
X211929Y210019D01*
X211799Y210074D01*
X211707Y210167D01*
X211651Y210259D01*
X211595Y210352D01*
X211577Y210444D01*
Y210500D01*
Y210518D01*
X211595Y210704D01*
X211651Y210833D01*
X211744Y210926D01*
X211836Y210981D01*
X211929Y211037D01*
X212021Y211056D01*
X213688D01*
X213836Y211074D01*
X213984Y211111D01*
X214114Y211148D01*
X214225Y211204D01*
X214299Y211259D01*
X214373Y211315D01*
X214410Y211333D01*
X214429Y211352D01*
X214521Y211481D01*
X214595Y211592D01*
X214651Y211722D01*
X214688Y211833D01*
X214706Y211944D01*
X214725Y212018D01*
Y212074D01*
Y212092D01*
Y215259D01*
X214706Y215407D01*
X214669Y215555D01*
X214632Y215685D01*
X214577Y215796D01*
X214521Y215870D01*
X214466Y215944D01*
X214447Y215981D01*
X214429Y215999D01*
X214299Y216110D01*
X214188Y216185D01*
X214058Y216240D01*
X213947Y216277D01*
X213836Y216296D01*
X213762Y216314D01*
X212096D01*
X211929Y216333D01*
X211799Y216388D01*
X211707Y216481D01*
X211633Y216573D01*
X211595Y216666D01*
X211577Y216759D01*
Y216814D01*
Y216833D01*
X211595Y217018D01*
X211651Y217147D01*
X211744Y217240D01*
X211836Y217296D01*
X211947Y217351D01*
X212021Y217370D01*
X213688D01*
X214003Y217351D01*
D02*
G37*
G36*
X290243Y120499D02*
X290483Y120480D01*
X290909Y120369D01*
X291280Y120221D01*
X291613Y120055D01*
X291872Y119888D01*
X291983Y119814D01*
X292076Y119740D01*
X292150Y119684D01*
X292206Y119629D01*
X292224Y119610D01*
X292243Y119592D01*
X292409Y119406D01*
X292539Y119221D01*
X292668Y119036D01*
X292761Y118851D01*
X292928Y118481D01*
X293039Y118129D01*
X293094Y117814D01*
X293113Y117684D01*
X293131Y117573D01*
X293150Y117481D01*
Y117407D01*
Y117370D01*
Y117351D01*
Y113148D01*
X293131Y112907D01*
X293113Y112666D01*
X293002Y112240D01*
X292854Y111870D01*
X292687Y111537D01*
X292520Y111278D01*
X292446Y111166D01*
X292391Y111074D01*
X292317Y111000D01*
X292280Y110944D01*
X292261Y110926D01*
X292243Y110907D01*
X292057Y110741D01*
X291872Y110611D01*
X291687Y110481D01*
X291502Y110389D01*
X291132Y110222D01*
X290780Y110111D01*
X290465Y110056D01*
X290335Y110037D01*
X290224Y110019D01*
X290132Y110000D01*
X290002D01*
X289761Y110019D01*
X289521Y110037D01*
X289095Y110148D01*
X288706Y110296D01*
X288391Y110463D01*
X288132Y110630D01*
X288021Y110704D01*
X287928Y110759D01*
X287854Y110833D01*
X287799Y110870D01*
X287780Y110889D01*
X287762Y110907D01*
X287595Y111093D01*
X287447Y111278D01*
X287336Y111463D01*
X287225Y111648D01*
X287058Y112018D01*
X286947Y112370D01*
X286891Y112685D01*
X286854Y112815D01*
Y112926D01*
X286836Y113018D01*
Y113092D01*
Y113129D01*
Y113148D01*
Y117351D01*
X286854Y117592D01*
X286873Y117832D01*
X286984Y118258D01*
X287132Y118647D01*
X287299Y118962D01*
X287465Y119221D01*
X287539Y119332D01*
X287613Y119425D01*
X287669Y119499D01*
X287724Y119555D01*
X287743Y119573D01*
X287762Y119592D01*
X287947Y119758D01*
X288132Y119906D01*
X288317Y120017D01*
X288502Y120129D01*
X288873Y120295D01*
X289224Y120406D01*
X289539Y120462D01*
X289669Y120499D01*
X289780D01*
X289872Y120517D01*
X290002D01*
X290243Y120499D01*
D02*
G37*
G36*
X309648D02*
X309778Y120443D01*
X309870Y120351D01*
X309926Y120258D01*
X309963Y120147D01*
X310000Y120073D01*
Y119999D01*
Y119980D01*
Y110518D01*
X309981Y110352D01*
X309926Y110222D01*
X309833Y110130D01*
X309741Y110074D01*
X309648Y110037D01*
X309556Y110000D01*
X305278D01*
X305093Y110019D01*
X304963Y110074D01*
X304871Y110167D01*
X304815Y110259D01*
X304760Y110352D01*
X304741Y110444D01*
Y110500D01*
Y110518D01*
X304760Y110704D01*
X304815Y110833D01*
X304908Y110926D01*
X305000Y110981D01*
X305112Y111037D01*
X305186Y111055D01*
X308945D01*
Y119980D01*
X308963Y120166D01*
X309019Y120295D01*
X309111Y120388D01*
X309204Y120443D01*
X309315Y120499D01*
X309389Y120517D01*
X309482D01*
X309648Y120499D01*
D02*
G37*
G36*
X239648Y220499D02*
X239778Y220443D01*
X239870Y220351D01*
X239926Y220258D01*
X239963Y220147D01*
X240000Y220073D01*
Y219999D01*
Y219981D01*
X239981Y219869D01*
Y219851D01*
Y219832D01*
X236852Y210389D01*
X236778Y210259D01*
X236704Y210167D01*
X236630Y210093D01*
X236537Y210056D01*
X236463Y210019D01*
X236389Y210000D01*
X236334D01*
X236204Y210019D01*
X236093Y210056D01*
X236000Y210130D01*
X235926Y210204D01*
X235834Y210333D01*
X235815Y210370D01*
Y210389D01*
X232667Y219832D01*
X232649Y219925D01*
Y219962D01*
Y219981D01*
X232667Y220166D01*
X232723Y220295D01*
X232816Y220388D01*
X232908Y220443D01*
X233001Y220499D01*
X233093Y220517D01*
X233167D01*
X233297Y220499D01*
X233408Y220462D01*
X233482Y220406D01*
X233556Y220351D01*
X233649Y220221D01*
X233667Y220184D01*
Y220166D01*
X236334Y212185D01*
X238982Y220166D01*
X239037Y220277D01*
X239111Y220369D01*
X239204Y220425D01*
X239278Y220480D01*
X239352Y220499D01*
X239426Y220517D01*
X239482D01*
X239648Y220499D01*
D02*
G37*
G36*
X275948Y120499D02*
X276078Y120443D01*
X276170Y120351D01*
X276226Y120258D01*
X276263Y120147D01*
X276300Y120073D01*
Y119999D01*
Y119980D01*
X276281Y119814D01*
X276226Y119684D01*
X276133Y119592D01*
X276041Y119536D01*
X275948Y119499D01*
X275855Y119462D01*
X273670D01*
Y110518D01*
X273652Y110352D01*
X273596Y110222D01*
X273504Y110130D01*
X273411Y110074D01*
X273319Y110037D01*
X273226Y110000D01*
X273152D01*
X272967Y110019D01*
X272837Y110074D01*
X272745Y110167D01*
X272689Y110259D01*
X272633Y110352D01*
X272615Y110444D01*
Y110500D01*
Y110518D01*
Y119462D01*
X270523D01*
X270338Y119480D01*
X270208Y119536D01*
X270115Y119629D01*
X270060Y119721D01*
X270004Y119814D01*
X269986Y119906D01*
Y119962D01*
Y119980D01*
X270004Y120166D01*
X270060Y120295D01*
X270152Y120388D01*
X270245Y120443D01*
X270356Y120499D01*
X270430Y120517D01*
X275781D01*
X275948Y120499D01*
D02*
G37*
G36*
X205966Y200499D02*
X206096Y200443D01*
X206189Y200351D01*
X206244Y200258D01*
X206281Y200147D01*
X206318Y200073D01*
Y199999D01*
Y199980D01*
Y197370D01*
X208429D01*
X208651Y197351D01*
X208855Y197333D01*
X209059Y197277D01*
X209225Y197203D01*
X209540Y197036D01*
X209799Y196851D01*
X209985Y196647D01*
X210133Y196481D01*
X210188Y196407D01*
X210207Y196351D01*
X210244Y196333D01*
Y196314D01*
X210336Y196129D01*
X210410Y195944D01*
X210448Y195777D01*
X210485Y195611D01*
X210503Y195462D01*
X210522Y195351D01*
Y195277D01*
Y195259D01*
Y192092D01*
X210503Y191778D01*
X210429Y191481D01*
X210336Y191222D01*
X210225Y191018D01*
X210114Y190833D01*
X210022Y190704D01*
X209948Y190630D01*
X209929Y190592D01*
X209688Y190389D01*
X209429Y190259D01*
X209188Y190148D01*
X208948Y190074D01*
X208744Y190037D01*
X208577Y190019D01*
X208466Y190000D01*
X205800D01*
X205615Y190019D01*
X205485Y190074D01*
X205392Y190167D01*
X205337Y190259D01*
X205281Y190352D01*
X205263Y190444D01*
Y190500D01*
Y190518D01*
Y199980D01*
X205281Y200166D01*
X205337Y200295D01*
X205429Y200388D01*
X205522Y200443D01*
X205633Y200499D01*
X205707Y200517D01*
X205800D01*
X205966Y200499D01*
D02*
G37*
G36*
X216484Y197351D02*
X216614Y197295D01*
X216706Y197203D01*
X216762Y197110D01*
X216799Y196999D01*
X216836Y196925D01*
Y196851D01*
Y196833D01*
Y190518D01*
X216817Y190352D01*
X216762Y190222D01*
X216669Y190130D01*
X216576Y190074D01*
X216484Y190037D01*
X216391Y190000D01*
X216317D01*
X216132Y190019D01*
X216003Y190074D01*
X215910Y190167D01*
X215854Y190259D01*
X215799Y190352D01*
X215780Y190444D01*
Y190500D01*
Y190518D01*
Y196314D01*
X213688D01*
Y195777D01*
X213669Y195611D01*
X213614Y195481D01*
X213521Y195388D01*
X213429Y195333D01*
X213336Y195296D01*
X213244Y195259D01*
X213169D01*
X212984Y195277D01*
X212855Y195333D01*
X212762Y195425D01*
X212707Y195518D01*
X212651Y195611D01*
X212633Y195703D01*
Y195759D01*
Y195777D01*
Y196833D01*
X212651Y197018D01*
X212707Y197147D01*
X212799Y197240D01*
X212892Y197295D01*
X213003Y197351D01*
X213077Y197370D01*
X216317D01*
X216484Y197351D01*
D02*
G37*
G36*
X239648Y180499D02*
X239778Y180443D01*
X239870Y180351D01*
X239926Y180258D01*
X239963Y180147D01*
X240000Y180073D01*
Y179999D01*
Y179980D01*
X239981Y179869D01*
Y179851D01*
Y179832D01*
X236852Y170389D01*
X236778Y170259D01*
X236704Y170167D01*
X236630Y170093D01*
X236537Y170056D01*
X236463Y170019D01*
X236389Y170000D01*
X236334D01*
X236204Y170019D01*
X236093Y170056D01*
X236000Y170130D01*
X235926Y170204D01*
X235834Y170333D01*
X235815Y170370D01*
Y170389D01*
X232667Y179832D01*
X232649Y179925D01*
Y179962D01*
Y179980D01*
X232667Y180166D01*
X232723Y180295D01*
X232816Y180388D01*
X232908Y180443D01*
X233001Y180499D01*
X233093Y180517D01*
X233167D01*
X233297Y180499D01*
X233408Y180462D01*
X233482Y180406D01*
X233556Y180351D01*
X233649Y180221D01*
X233667Y180184D01*
Y180166D01*
X236334Y172185D01*
X238982Y180166D01*
X239037Y180277D01*
X239111Y180369D01*
X239204Y180425D01*
X239278Y180480D01*
X239352Y180499D01*
X239426Y180517D01*
X239482D01*
X239648Y180499D01*
D02*
G37*
G36*
X208059D02*
X208188Y180443D01*
X208281Y180351D01*
X208337Y180258D01*
X208374Y180147D01*
X208411Y180073D01*
Y179999D01*
Y179980D01*
Y179462D01*
X208392Y179295D01*
X208337Y179166D01*
X208244Y179073D01*
X208151Y179018D01*
X208059Y178981D01*
X207966Y178944D01*
X207892D01*
X207707Y178962D01*
X207577Y179018D01*
X207485Y179110D01*
X207429Y179203D01*
X207374Y179295D01*
X207355Y179388D01*
Y179443D01*
Y179462D01*
Y179980D01*
X207374Y180166D01*
X207429Y180295D01*
X207522Y180388D01*
X207614Y180443D01*
X207726Y180499D01*
X207800Y180517D01*
X207892D01*
X208059Y180499D01*
D02*
G37*
G36*
X202800Y197351D02*
X202930Y197295D01*
X203022Y197203D01*
X203078Y197110D01*
X203115Y196999D01*
X203152Y196925D01*
Y196851D01*
Y196833D01*
X203134Y196721D01*
Y196684D01*
Y196666D01*
X201097Y190518D01*
X201967Y187908D01*
X202596D01*
X202670Y187889D01*
X202726D01*
X202874Y187834D01*
X202967Y187778D01*
X203041Y187685D01*
X203096Y187593D01*
X203134Y187519D01*
X203152Y187445D01*
Y187389D01*
Y187371D01*
X203134Y187185D01*
X203078Y187056D01*
X202985Y186963D01*
X202893Y186908D01*
X202800Y186871D01*
X202708Y186834D01*
X201597D01*
X201467Y186852D01*
X201356Y186889D01*
X201263Y186945D01*
X201208Y187019D01*
X201115Y187148D01*
X201097Y187185D01*
Y187204D01*
X197949Y196666D01*
X197912Y196740D01*
X197893Y196777D01*
Y196814D01*
Y196833D01*
X197912Y197018D01*
X197967Y197147D01*
X198060Y197240D01*
X198153Y197295D01*
X198264Y197351D01*
X198338Y197370D01*
X198430D01*
X198560Y197351D01*
X198671Y197314D01*
X198764Y197258D01*
X198838Y197184D01*
X198930Y197055D01*
X198949Y197018D01*
Y196999D01*
X200541Y192185D01*
X202134Y196999D01*
X202189Y197129D01*
X202263Y197222D01*
X202356Y197277D01*
X202430Y197333D01*
X202504Y197351D01*
X202578Y197370D01*
X202633D01*
X202800Y197351D01*
D02*
G37*
G36*
X239648Y200499D02*
X239778Y200443D01*
X239870Y200351D01*
X239926Y200258D01*
X239963Y200147D01*
X240000Y200073D01*
Y199999D01*
Y199980D01*
X239981Y199869D01*
Y199851D01*
Y199832D01*
X236852Y190389D01*
X236778Y190259D01*
X236704Y190167D01*
X236630Y190093D01*
X236537Y190056D01*
X236463Y190019D01*
X236389Y190000D01*
X236334D01*
X236204Y190019D01*
X236093Y190056D01*
X236000Y190130D01*
X235926Y190204D01*
X235834Y190333D01*
X235815Y190370D01*
Y190389D01*
X232667Y199832D01*
X232649Y199925D01*
Y199962D01*
Y199980D01*
X232667Y200166D01*
X232723Y200295D01*
X232816Y200388D01*
X232908Y200443D01*
X233001Y200499D01*
X233093Y200517D01*
X233167D01*
X233297Y200499D01*
X233408Y200462D01*
X233482Y200406D01*
X233556Y200351D01*
X233649Y200221D01*
X233667Y200184D01*
Y200166D01*
X236334Y192185D01*
X238982Y200166D01*
X239037Y200277D01*
X239111Y200369D01*
X239204Y200425D01*
X239278Y200480D01*
X239352Y200499D01*
X239426Y200517D01*
X239482D01*
X239648Y200499D01*
D02*
G37*
G36*
X223853D02*
X223983Y200443D01*
X224076Y200351D01*
X224131Y200258D01*
X224168Y200147D01*
X224205Y200073D01*
Y199999D01*
Y199980D01*
Y190518D01*
X224187Y190352D01*
X224131Y190222D01*
X224039Y190130D01*
X223946Y190074D01*
X223853Y190037D01*
X223761Y190000D01*
X223687D01*
X223502Y190019D01*
X223372Y190074D01*
X223279Y190167D01*
X223224Y190259D01*
X223168Y190352D01*
X223150Y190444D01*
Y190500D01*
Y190518D01*
Y196314D01*
X221057D01*
X220891Y196296D01*
X220761Y196259D01*
X220632Y196222D01*
X220520Y196166D01*
X220428Y196092D01*
X220372Y196055D01*
X220335Y196018D01*
X220317Y195999D01*
X220206Y195888D01*
X220132Y195759D01*
X220076Y195629D01*
X220039Y195518D01*
X220021Y195407D01*
X220002Y195333D01*
Y195277D01*
Y195259D01*
Y190518D01*
X219984Y190352D01*
X219928Y190222D01*
X219835Y190130D01*
X219743Y190074D01*
X219650Y190037D01*
X219558Y190000D01*
X219484D01*
X219298Y190019D01*
X219169Y190074D01*
X219076Y190167D01*
X219021Y190259D01*
X218965Y190352D01*
X218947Y190444D01*
Y190500D01*
Y190518D01*
Y195296D01*
X218965Y195611D01*
X219039Y195888D01*
X219150Y196129D01*
X219261Y196351D01*
X219373Y196518D01*
X219484Y196647D01*
X219558Y196740D01*
X219576Y196759D01*
X219817Y196962D01*
X220058Y197110D01*
X220317Y197222D01*
X220539Y197295D01*
X220743Y197333D01*
X220909Y197370D01*
X223150D01*
Y199980D01*
X223168Y200166D01*
X223224Y200295D01*
X223316Y200388D01*
X223409Y200443D01*
X223520Y200499D01*
X223594Y200517D01*
X223687D01*
X223853Y200499D01*
D02*
G37*
G36*
X228742Y197351D02*
X229038Y197277D01*
X229297Y197184D01*
X229501Y197073D01*
X229686Y196944D01*
X229816Y196851D01*
X229890Y196777D01*
X229927Y196759D01*
X230131Y196518D01*
X230260Y196259D01*
X230371Y196018D01*
X230445Y195777D01*
X230483Y195574D01*
X230501Y195407D01*
X230520Y195296D01*
Y195277D01*
Y195259D01*
Y192092D01*
X230501Y191778D01*
X230427Y191481D01*
X230334Y191222D01*
X230223Y191018D01*
X230112Y190833D01*
X230020Y190704D01*
X229946Y190630D01*
X229927Y190592D01*
X229686Y190389D01*
X229427Y190259D01*
X229186Y190148D01*
X228946Y190074D01*
X228742Y190037D01*
X228575Y190019D01*
X228464Y190000D01*
X226853D01*
X226668Y190019D01*
X226538Y190074D01*
X226446Y190167D01*
X226390Y190259D01*
X226335Y190352D01*
X226316Y190444D01*
Y190500D01*
Y190518D01*
X226335Y190704D01*
X226390Y190833D01*
X226483Y190926D01*
X226576Y190981D01*
X226668Y191037D01*
X226761Y191055D01*
X228427D01*
X228575Y191074D01*
X228723Y191111D01*
X228853Y191148D01*
X228964Y191204D01*
X229038Y191259D01*
X229112Y191315D01*
X229149Y191333D01*
X229168Y191352D01*
X229260Y191481D01*
X229334Y191592D01*
X229390Y191722D01*
X229427Y191833D01*
X229445Y191944D01*
X229464Y192018D01*
Y192074D01*
Y192092D01*
Y195259D01*
X229445Y195407D01*
X229408Y195555D01*
X229371Y195685D01*
X229316Y195796D01*
X229260Y195870D01*
X229205Y195944D01*
X229186Y195981D01*
X229168Y195999D01*
X229038Y196110D01*
X228927Y196185D01*
X228797Y196240D01*
X228686Y196277D01*
X228575Y196296D01*
X228501Y196314D01*
X226835D01*
X226668Y196333D01*
X226538Y196388D01*
X226446Y196481D01*
X226372Y196573D01*
X226335Y196666D01*
X226316Y196759D01*
Y196814D01*
Y196833D01*
X226335Y197018D01*
X226390Y197147D01*
X226483Y197240D01*
X226576Y197295D01*
X226687Y197351D01*
X226761Y197370D01*
X228427D01*
X228742Y197351D01*
D02*
G37*
G36*
X284373Y120499D02*
X284503Y120443D01*
X284595Y120351D01*
X284651Y120258D01*
X284688Y120147D01*
X284725Y120073D01*
Y119999D01*
Y119980D01*
Y113148D01*
X284706Y112907D01*
X284688Y112666D01*
X284577Y112240D01*
X284429Y111870D01*
X284262Y111537D01*
X284095Y111278D01*
X284021Y111166D01*
X283966Y111074D01*
X283892Y111000D01*
X283855Y110944D01*
X283836Y110926D01*
X283818Y110907D01*
X283632Y110741D01*
X283447Y110611D01*
X283262Y110481D01*
X283077Y110389D01*
X282707Y110222D01*
X282355Y110111D01*
X282040Y110056D01*
X281910Y110037D01*
X281799Y110019D01*
X281707Y110000D01*
X281577D01*
X281336Y110019D01*
X281096Y110037D01*
X280670Y110148D01*
X280281Y110296D01*
X279966Y110463D01*
X279707Y110630D01*
X279596Y110704D01*
X279503Y110759D01*
X279429Y110833D01*
X279374Y110870D01*
X279355Y110889D01*
X279336Y110907D01*
X279170Y111093D01*
X279022Y111278D01*
X278911Y111463D01*
X278799Y111648D01*
X278633Y112018D01*
X278522Y112370D01*
X278466Y112685D01*
X278429Y112815D01*
Y112926D01*
X278411Y113018D01*
Y113092D01*
Y113129D01*
Y113148D01*
Y119980D01*
X278429Y120166D01*
X278485Y120295D01*
X278577Y120388D01*
X278670Y120443D01*
X278781Y120499D01*
X278855Y120517D01*
X278948D01*
X279114Y120499D01*
X279244Y120443D01*
X279336Y120351D01*
X279392Y120258D01*
X279429Y120147D01*
X279466Y120073D01*
Y119999D01*
Y119980D01*
Y113148D01*
X279485Y112833D01*
X279559Y112537D01*
X279651Y112277D01*
X279762Y112074D01*
X279892Y111889D01*
X279985Y111759D01*
X280059Y111685D01*
X280077Y111648D01*
X280318Y111444D01*
X280577Y111315D01*
X280818Y111204D01*
X281059Y111130D01*
X281262Y111093D01*
X281429Y111074D01*
X281540Y111055D01*
X281577D01*
X281892Y111074D01*
X282188Y111148D01*
X282447Y111241D01*
X282651Y111352D01*
X282836Y111463D01*
X282966Y111555D01*
X283040Y111629D01*
X283077Y111648D01*
X283281Y111889D01*
X283410Y112148D01*
X283521Y112389D01*
X283595Y112629D01*
X283632Y112833D01*
X283651Y113000D01*
X283669Y113111D01*
Y113129D01*
Y113148D01*
Y119980D01*
X283688Y120166D01*
X283743Y120295D01*
X283836Y120388D01*
X283929Y120443D01*
X284040Y120499D01*
X284114Y120517D01*
X284206D01*
X284373Y120499D01*
D02*
G37*
G36*
X309648Y180499D02*
X309778Y180443D01*
X309870Y180351D01*
X309926Y180258D01*
X309963Y180147D01*
X310000Y180073D01*
Y179999D01*
Y179980D01*
Y170518D01*
X309981Y170352D01*
X309926Y170222D01*
X309833Y170130D01*
X309741Y170074D01*
X309648Y170037D01*
X309556Y170000D01*
X306852D01*
X306611Y170019D01*
X306371Y170037D01*
X305945Y170148D01*
X305556Y170296D01*
X305241Y170463D01*
X304982Y170630D01*
X304871Y170704D01*
X304778Y170759D01*
X304704Y170833D01*
X304649Y170870D01*
X304630Y170889D01*
X304612Y170907D01*
X304445Y171092D01*
X304297Y171278D01*
X304186Y171463D01*
X304075Y171648D01*
X303908Y172018D01*
X303797Y172370D01*
X303741Y172685D01*
X303704Y172815D01*
Y172926D01*
X303686Y173018D01*
Y173092D01*
Y173129D01*
Y173148D01*
X303704Y173481D01*
X303741Y173777D01*
X303815Y174055D01*
X303927Y174333D01*
X304038Y174574D01*
X304167Y174796D01*
X304297Y174981D01*
X304426Y175166D01*
X304575Y175314D01*
X304704Y175462D01*
X304834Y175574D01*
X304945Y175666D01*
X305038Y175740D01*
X305112Y175796D01*
X305167Y175814D01*
X305186Y175833D01*
X305019Y175981D01*
X304852Y176147D01*
X304723Y176314D01*
X304612Y176499D01*
X304445Y176833D01*
X304334Y177166D01*
X304260Y177444D01*
X304241Y177573D01*
X304223Y177684D01*
X304204Y177758D01*
Y177833D01*
Y177869D01*
Y177888D01*
X304241Y178277D01*
X304334Y178647D01*
X304445Y178962D01*
X304593Y179221D01*
X304741Y179443D01*
X304852Y179610D01*
X304945Y179703D01*
X304982Y179740D01*
X305278Y179999D01*
X305593Y180184D01*
X305908Y180332D01*
X306204Y180425D01*
X306463Y180480D01*
X306667Y180499D01*
X306741Y180517D01*
X309482D01*
X309648Y180499D01*
D02*
G37*
G36*
X301223D02*
X301353Y180443D01*
X301445Y180351D01*
X301501Y180258D01*
X301538Y180147D01*
X301575Y180073D01*
Y179999D01*
Y179980D01*
Y173148D01*
X301556Y172907D01*
X301538Y172666D01*
X301427Y172241D01*
X301279Y171870D01*
X301112Y171537D01*
X300945Y171278D01*
X300871Y171166D01*
X300816Y171074D01*
X300742Y171000D01*
X300705Y170944D01*
X300686Y170926D01*
X300668Y170907D01*
X300483Y170741D01*
X300297Y170611D01*
X300112Y170481D01*
X299927Y170389D01*
X299557Y170222D01*
X299205Y170111D01*
X298890Y170056D01*
X298760Y170037D01*
X298649Y170019D01*
X298557Y170000D01*
X298427D01*
X298186Y170019D01*
X297946Y170037D01*
X297520Y170148D01*
X297131Y170296D01*
X296816Y170463D01*
X296557Y170630D01*
X296446Y170704D01*
X296353Y170759D01*
X296279Y170833D01*
X296224Y170870D01*
X296205Y170889D01*
X296187Y170907D01*
X296020Y171092D01*
X295872Y171278D01*
X295761Y171463D01*
X295650Y171648D01*
X295483Y172018D01*
X295372Y172370D01*
X295316Y172685D01*
X295279Y172815D01*
Y172926D01*
X295261Y173018D01*
Y173092D01*
Y173129D01*
Y173148D01*
Y179980D01*
X295279Y180166D01*
X295335Y180295D01*
X295427Y180388D01*
X295520Y180443D01*
X295631Y180499D01*
X295705Y180517D01*
X295798D01*
X295964Y180499D01*
X296094Y180443D01*
X296187Y180351D01*
X296242Y180258D01*
X296279Y180147D01*
X296316Y180073D01*
Y179999D01*
Y179980D01*
Y173148D01*
X296335Y172833D01*
X296409Y172537D01*
X296501Y172278D01*
X296612Y172074D01*
X296742Y171889D01*
X296835Y171759D01*
X296909Y171685D01*
X296927Y171648D01*
X297168Y171444D01*
X297427Y171315D01*
X297668Y171204D01*
X297909Y171129D01*
X298112Y171092D01*
X298279Y171074D01*
X298390Y171055D01*
X298427D01*
X298742Y171074D01*
X299038Y171148D01*
X299297Y171241D01*
X299501Y171352D01*
X299686Y171463D01*
X299816Y171555D01*
X299890Y171630D01*
X299927Y171648D01*
X300131Y171889D01*
X300260Y172148D01*
X300371Y172389D01*
X300445Y172629D01*
X300483Y172833D01*
X300501Y173000D01*
X300520Y173111D01*
Y173129D01*
Y173148D01*
Y179980D01*
X300538Y180166D01*
X300594Y180295D01*
X300686Y180388D01*
X300779Y180443D01*
X300890Y180499D01*
X300964Y180517D01*
X301056D01*
X301223Y180499D01*
D02*
G37*
G36*
X309648Y160499D02*
X309778Y160443D01*
X309870Y160351D01*
X309926Y160258D01*
X309963Y160147D01*
X310000Y160073D01*
Y159999D01*
Y159980D01*
Y150518D01*
X309981Y150352D01*
X309926Y150222D01*
X309833Y150130D01*
X309741Y150074D01*
X309648Y150037D01*
X309556Y150000D01*
X309482D01*
X309296Y150019D01*
X309167Y150074D01*
X309074Y150167D01*
X309019Y150259D01*
X308963Y150352D01*
X308945Y150444D01*
Y150500D01*
Y150518D01*
Y155259D01*
X304741D01*
Y150518D01*
X304723Y150352D01*
X304667Y150222D01*
X304575Y150130D01*
X304482Y150074D01*
X304389Y150037D01*
X304297Y150000D01*
X304223D01*
X304038Y150019D01*
X303908Y150074D01*
X303815Y150167D01*
X303760Y150259D01*
X303704Y150352D01*
X303686Y150444D01*
Y150500D01*
Y150518D01*
Y159980D01*
X303704Y160166D01*
X303760Y160295D01*
X303853Y160388D01*
X303945Y160443D01*
X304056Y160499D01*
X304130Y160517D01*
X304223D01*
X304389Y160499D01*
X304519Y160443D01*
X304612Y160351D01*
X304667Y160258D01*
X304704Y160147D01*
X304741Y160073D01*
Y159999D01*
Y159980D01*
Y156314D01*
X308945D01*
Y159980D01*
X308963Y160166D01*
X309019Y160295D01*
X309111Y160388D01*
X309204Y160443D01*
X309315Y160499D01*
X309389Y160517D01*
X309482D01*
X309648Y160499D01*
D02*
G37*
G36*
X290909Y180480D02*
X291280Y180388D01*
X291595Y180277D01*
X291872Y180129D01*
X292094Y179980D01*
X292243Y179869D01*
X292354Y179777D01*
X292391Y179740D01*
X292650Y179443D01*
X292835Y179129D01*
X292965Y178814D01*
X293057Y178518D01*
X293113Y178277D01*
X293131Y178073D01*
X293150Y177999D01*
Y177944D01*
Y177907D01*
Y177888D01*
Y172629D01*
X293113Y172241D01*
X293039Y171870D01*
X292909Y171555D01*
X292761Y171278D01*
X292631Y171055D01*
X292502Y170907D01*
X292428Y170796D01*
X292391Y170759D01*
X292094Y170500D01*
X291761Y170315D01*
X291465Y170185D01*
X291169Y170093D01*
X290909Y170037D01*
X290706Y170019D01*
X290632Y170000D01*
X288428D01*
X288243Y170019D01*
X288113Y170074D01*
X288021Y170167D01*
X287965Y170259D01*
X287910Y170352D01*
X287891Y170444D01*
Y170500D01*
Y170518D01*
X287910Y170704D01*
X287965Y170833D01*
X288058Y170926D01*
X288150Y170981D01*
X288262Y171037D01*
X288336Y171055D01*
X290521D01*
X290761Y171074D01*
X290984Y171129D01*
X291169Y171204D01*
X291335Y171278D01*
X291465Y171352D01*
X291558Y171426D01*
X291632Y171481D01*
X291650Y171500D01*
X291798Y171685D01*
X291909Y171870D01*
X291983Y172055D01*
X292039Y172241D01*
X292076Y172389D01*
X292094Y172518D01*
Y172592D01*
Y172629D01*
Y177869D01*
X292076Y178110D01*
X292020Y178333D01*
X291946Y178518D01*
X291872Y178684D01*
X291798Y178814D01*
X291724Y178925D01*
X291669Y178981D01*
X291650Y178999D01*
X291465Y179147D01*
X291280Y179258D01*
X291095Y179351D01*
X290909Y179406D01*
X290761Y179443D01*
X290632Y179462D01*
X288428D01*
X288243Y179480D01*
X288113Y179536D01*
X288021Y179629D01*
X287965Y179721D01*
X287910Y179814D01*
X287891Y179906D01*
Y179962D01*
Y179980D01*
X287910Y180166D01*
X287965Y180295D01*
X288058Y180388D01*
X288150Y180443D01*
X288262Y180499D01*
X288336Y180517D01*
X290521D01*
X290909Y180480D01*
D02*
G37*
G36*
X291743Y200499D02*
X291872Y200443D01*
X291965Y200351D01*
X292020Y200258D01*
X292057Y200147D01*
X292094Y200073D01*
Y199999D01*
Y199980D01*
X292076Y199814D01*
X292020Y199684D01*
X291928Y199592D01*
X291835Y199536D01*
X291743Y199499D01*
X291650Y199462D01*
X289465D01*
Y190518D01*
X289447Y190352D01*
X289391Y190222D01*
X289298Y190130D01*
X289206Y190074D01*
X289113Y190037D01*
X289021Y190000D01*
X288947D01*
X288762Y190019D01*
X288632Y190074D01*
X288539Y190167D01*
X288484Y190259D01*
X288428Y190352D01*
X288410Y190444D01*
Y190500D01*
Y190518D01*
Y199462D01*
X286317D01*
X286132Y199480D01*
X286003Y199536D01*
X285910Y199629D01*
X285854Y199721D01*
X285799Y199814D01*
X285780Y199906D01*
Y199962D01*
Y199980D01*
X285799Y200166D01*
X285854Y200295D01*
X285947Y200388D01*
X286040Y200443D01*
X286151Y200499D01*
X286225Y200517D01*
X291576D01*
X291743Y200499D01*
D02*
G37*
G36*
X298038D02*
X298149Y200443D01*
X298242Y200388D01*
X298298Y200314D01*
X298353Y200221D01*
X298390Y200166D01*
X298427Y200110D01*
Y200091D01*
X301556Y190685D01*
X301575Y190574D01*
Y190537D01*
Y190518D01*
X301556Y190352D01*
X301501Y190222D01*
X301408Y190130D01*
X301316Y190074D01*
X301223Y190037D01*
X301131Y190000D01*
X301056D01*
X300927Y190019D01*
X300816Y190056D01*
X300742Y190111D01*
X300668Y190185D01*
X300575Y190296D01*
X300557Y190333D01*
Y190352D01*
X299797Y192629D01*
X296001D01*
X295242Y190352D01*
X295187Y190241D01*
X295113Y190148D01*
X295020Y190093D01*
X294946Y190037D01*
X294872Y190019D01*
X294798Y190000D01*
X294742D01*
X294576Y190019D01*
X294446Y190074D01*
X294354Y190167D01*
X294279Y190259D01*
X294242Y190352D01*
X294224Y190444D01*
Y190500D01*
Y190518D01*
Y190630D01*
X294242Y190667D01*
Y190685D01*
X297390Y200110D01*
X297446Y200240D01*
X297520Y200351D01*
X297612Y200425D01*
X297705Y200462D01*
X297779Y200499D01*
X297853Y200517D01*
X297909D01*
X298038Y200499D01*
D02*
G37*
G36*
X285429Y180499D02*
X285558Y180443D01*
X285651Y180351D01*
X285706Y180258D01*
X285743Y180147D01*
X285780Y180073D01*
Y179999D01*
Y179980D01*
Y170518D01*
X285762Y170352D01*
X285706Y170222D01*
X285614Y170130D01*
X285521Y170074D01*
X285429Y170037D01*
X285336Y170000D01*
X285262D01*
X285077Y170019D01*
X284947Y170074D01*
X284855Y170167D01*
X284799Y170259D01*
X284743Y170352D01*
X284725Y170444D01*
Y170500D01*
Y170518D01*
Y174000D01*
X283373Y175499D01*
X280466Y170278D01*
X280410Y170185D01*
X280336Y170111D01*
X280262Y170074D01*
X280170Y170037D01*
X280059Y170000D01*
X280003D01*
X279855Y170019D01*
X279744Y170074D01*
X279670Y170130D01*
X279633Y170148D01*
X279540Y170278D01*
X279485Y170389D01*
X279466Y170481D01*
Y170518D01*
X279485Y170611D01*
X279503Y170704D01*
X279522Y170759D01*
X279540Y170778D01*
X282633Y176314D01*
X279614Y179629D01*
X279522Y179758D01*
X279485Y179869D01*
X279466Y179943D01*
Y179980D01*
X279485Y180166D01*
X279540Y180295D01*
X279633Y180388D01*
X279725Y180443D01*
X279837Y180499D01*
X279911Y180517D01*
X280003D01*
X280170Y180499D01*
X280281Y180443D01*
X280373Y180369D01*
X280392Y180351D01*
X284725Y175574D01*
Y179980D01*
X284743Y180166D01*
X284799Y180295D01*
X284891Y180388D01*
X284984Y180443D01*
X285095Y180499D01*
X285169Y180517D01*
X285262D01*
X285429Y180499D01*
D02*
G37*
G36*
X283318Y200499D02*
X283447Y200443D01*
X283540Y200351D01*
X283595Y200258D01*
X283632Y200147D01*
X283669Y200073D01*
Y199999D01*
Y199980D01*
X283651Y199814D01*
X283595Y199684D01*
X283503Y199592D01*
X283410Y199536D01*
X283318Y199499D01*
X283225Y199462D01*
X281040D01*
Y190518D01*
X281021Y190352D01*
X280966Y190222D01*
X280873Y190130D01*
X280781Y190074D01*
X280688Y190037D01*
X280596Y190000D01*
X280522D01*
X280336Y190019D01*
X280207Y190074D01*
X280114Y190167D01*
X280059Y190259D01*
X280003Y190352D01*
X279985Y190444D01*
Y190500D01*
Y190518D01*
Y199462D01*
X277892D01*
X277707Y199480D01*
X277577Y199536D01*
X277485Y199629D01*
X277429Y199721D01*
X277374Y199814D01*
X277355Y199906D01*
Y199962D01*
Y199980D01*
X277374Y200166D01*
X277429Y200295D01*
X277522Y200388D01*
X277614Y200443D01*
X277726Y200499D01*
X277800Y200517D01*
X283151D01*
X283318Y200499D01*
D02*
G37*
G36*
X307759Y140480D02*
X308130Y140388D01*
X308445Y140277D01*
X308722Y140129D01*
X308945Y139980D01*
X309093Y139869D01*
X309204Y139777D01*
X309241Y139740D01*
X309500Y139444D01*
X309685Y139129D01*
X309815Y138814D01*
X309907Y138518D01*
X309963Y138277D01*
X309981Y138073D01*
X310000Y137999D01*
Y137944D01*
Y137907D01*
Y137888D01*
Y132629D01*
X309963Y132240D01*
X309889Y131870D01*
X309759Y131555D01*
X309611Y131278D01*
X309482Y131055D01*
X309352Y130907D01*
X309278Y130796D01*
X309241Y130759D01*
X308945Y130500D01*
X308611Y130315D01*
X308315Y130185D01*
X308019Y130093D01*
X307759Y130037D01*
X307556Y130019D01*
X307482Y130000D01*
X304223D01*
X304038Y130019D01*
X303908Y130074D01*
X303815Y130167D01*
X303760Y130259D01*
X303704Y130352D01*
X303686Y130444D01*
Y130500D01*
Y130519D01*
Y135777D01*
X303704Y135962D01*
X303760Y136092D01*
X303853Y136185D01*
X303945Y136240D01*
X304056Y136296D01*
X304130Y136314D01*
X305797D01*
X305963Y136296D01*
X306093Y136240D01*
X306186Y136147D01*
X306241Y136055D01*
X306278Y135944D01*
X306315Y135870D01*
Y135796D01*
Y135777D01*
X306297Y135611D01*
X306241Y135481D01*
X306149Y135388D01*
X306056Y135333D01*
X305963Y135296D01*
X305871Y135259D01*
X304741D01*
Y131055D01*
X307371D01*
X307611Y131074D01*
X307834Y131130D01*
X308019Y131204D01*
X308185Y131278D01*
X308315Y131352D01*
X308408Y131426D01*
X308482Y131481D01*
X308500Y131500D01*
X308648Y131685D01*
X308759Y131870D01*
X308834Y132055D01*
X308889Y132240D01*
X308926Y132389D01*
X308945Y132518D01*
Y132592D01*
Y132629D01*
Y137870D01*
X308926Y138110D01*
X308871Y138333D01*
X308796Y138518D01*
X308722Y138684D01*
X308648Y138814D01*
X308574Y138925D01*
X308519Y138981D01*
X308500Y138999D01*
X308315Y139147D01*
X308130Y139258D01*
X307945Y139351D01*
X307759Y139406D01*
X307611Y139444D01*
X307482Y139462D01*
X304223D01*
X304038Y139480D01*
X303908Y139536D01*
X303815Y139629D01*
X303760Y139721D01*
X303704Y139814D01*
X303686Y139906D01*
Y139962D01*
Y139980D01*
X303704Y140166D01*
X303760Y140295D01*
X303853Y140388D01*
X303945Y140443D01*
X304056Y140499D01*
X304130Y140517D01*
X307371D01*
X307759Y140480D01*
D02*
G37*
G36*
X301223Y140499D02*
X301353Y140443D01*
X301445Y140351D01*
X301501Y140258D01*
X301538Y140147D01*
X301575Y140073D01*
Y139999D01*
Y139980D01*
Y130519D01*
X301556Y130352D01*
X301501Y130222D01*
X301408Y130130D01*
X301316Y130074D01*
X301223Y130037D01*
X301131Y130000D01*
X301056D01*
X300871Y130019D01*
X300742Y130074D01*
X300649Y130167D01*
X300594Y130259D01*
X300538Y130352D01*
X300520Y130444D01*
Y130500D01*
Y130519D01*
Y137962D01*
X296261Y130259D01*
X296205Y130167D01*
X296131Y130111D01*
X295964Y130037D01*
X295853Y130000D01*
X295798D01*
X295613Y130019D01*
X295483Y130074D01*
X295390Y130167D01*
X295335Y130259D01*
X295279Y130352D01*
X295261Y130444D01*
Y130500D01*
Y130519D01*
Y139980D01*
X295279Y140166D01*
X295335Y140295D01*
X295427Y140388D01*
X295520Y140443D01*
X295631Y140499D01*
X295705Y140517D01*
X295798D01*
X295964Y140499D01*
X296094Y140443D01*
X296187Y140351D01*
X296242Y140258D01*
X296279Y140147D01*
X296316Y140073D01*
Y139999D01*
Y139980D01*
Y132555D01*
X300575Y140203D01*
X300649Y140314D01*
X300723Y140388D01*
X300797Y140443D01*
X300871Y140480D01*
X300945Y140499D01*
X301001Y140517D01*
X301056D01*
X301223Y140499D01*
D02*
G37*
G36*
X302279Y120499D02*
X302408Y120443D01*
X302501Y120351D01*
X302556Y120258D01*
X302593Y120147D01*
X302630Y120073D01*
Y119999D01*
Y119980D01*
X302612Y119869D01*
Y119851D01*
Y119832D01*
X299483Y110389D01*
X299408Y110259D01*
X299335Y110167D01*
X299260Y110093D01*
X299168Y110056D01*
X299094Y110019D01*
X299020Y110000D01*
X298964D01*
X298834Y110019D01*
X298723Y110056D01*
X298631Y110130D01*
X298557Y110204D01*
X298464Y110333D01*
X298446Y110370D01*
Y110389D01*
X295298Y119832D01*
X295279Y119925D01*
Y119962D01*
Y119980D01*
X295298Y120166D01*
X295353Y120295D01*
X295446Y120388D01*
X295539Y120443D01*
X295631Y120499D01*
X295724Y120517D01*
X295798D01*
X295927Y120499D01*
X296038Y120462D01*
X296113Y120406D01*
X296187Y120351D01*
X296279Y120221D01*
X296298Y120184D01*
Y120166D01*
X298964Y112185D01*
X301612Y120166D01*
X301667Y120277D01*
X301742Y120369D01*
X301834Y120425D01*
X301908Y120480D01*
X301982Y120499D01*
X302056Y120517D01*
X302112D01*
X302279Y120499D01*
D02*
G37*
G36*
X292798Y140499D02*
X292928Y140443D01*
X293020Y140351D01*
X293076Y140258D01*
X293113Y140147D01*
X293150Y140073D01*
Y139999D01*
Y139980D01*
Y130519D01*
X293131Y130352D01*
X293076Y130222D01*
X292983Y130130D01*
X292891Y130074D01*
X292798Y130037D01*
X292705Y130000D01*
X289484D01*
X289095Y130037D01*
X288724Y130111D01*
X288410Y130241D01*
X288132Y130389D01*
X287910Y130519D01*
X287743Y130648D01*
X287651Y130722D01*
X287613Y130759D01*
X287354Y131055D01*
X287169Y131389D01*
X287021Y131685D01*
X286928Y131981D01*
X286873Y132240D01*
X286854Y132444D01*
X286836Y132518D01*
Y132574D01*
Y132611D01*
Y132629D01*
Y137888D01*
X286873Y138277D01*
X286965Y138647D01*
X287076Y138962D01*
X287225Y139221D01*
X287373Y139444D01*
X287484Y139610D01*
X287576Y139703D01*
X287613Y139740D01*
X287910Y139999D01*
X288225Y140184D01*
X288539Y140332D01*
X288836Y140425D01*
X289095Y140480D01*
X289298Y140499D01*
X289373Y140517D01*
X292631D01*
X292798Y140499D01*
D02*
G37*
G36*
X283318Y160499D02*
X283447Y160443D01*
X283540Y160351D01*
X283595Y160258D01*
X283632Y160147D01*
X283669Y160073D01*
Y159999D01*
Y159980D01*
Y153148D01*
X283651Y152907D01*
X283632Y152666D01*
X283521Y152240D01*
X283373Y151870D01*
X283207Y151537D01*
X283040Y151278D01*
X282966Y151166D01*
X282910Y151074D01*
X282836Y151000D01*
X282799Y150944D01*
X282781Y150926D01*
X282762Y150907D01*
X282577Y150741D01*
X282392Y150611D01*
X282207Y150481D01*
X282021Y150389D01*
X281651Y150222D01*
X281299Y150111D01*
X280984Y150056D01*
X280855Y150037D01*
X280744Y150019D01*
X280651Y150000D01*
X280522D01*
X280281Y150019D01*
X280040Y150037D01*
X279614Y150148D01*
X279225Y150296D01*
X278911Y150463D01*
X278651Y150630D01*
X278540Y150704D01*
X278448Y150759D01*
X278374Y150833D01*
X278318Y150870D01*
X278300Y150889D01*
X278281Y150907D01*
X278114Y151093D01*
X277966Y151278D01*
X277855Y151463D01*
X277744Y151648D01*
X277577Y152018D01*
X277466Y152370D01*
X277411Y152685D01*
X277374Y152815D01*
Y152926D01*
X277355Y153018D01*
Y153092D01*
Y153129D01*
Y153148D01*
Y159980D01*
X277374Y160166D01*
X277429Y160295D01*
X277522Y160388D01*
X277614Y160443D01*
X277726Y160499D01*
X277800Y160517D01*
X277892D01*
X278059Y160499D01*
X278188Y160443D01*
X278281Y160351D01*
X278337Y160258D01*
X278374Y160147D01*
X278411Y160073D01*
Y159999D01*
Y159980D01*
Y153148D01*
X278429Y152833D01*
X278503Y152537D01*
X278596Y152277D01*
X278707Y152074D01*
X278837Y151889D01*
X278929Y151759D01*
X279003Y151685D01*
X279022Y151648D01*
X279263Y151444D01*
X279522Y151315D01*
X279762Y151204D01*
X280003Y151130D01*
X280207Y151093D01*
X280373Y151074D01*
X280485Y151055D01*
X280522D01*
X280836Y151074D01*
X281133Y151148D01*
X281392Y151241D01*
X281596Y151352D01*
X281781Y151463D01*
X281910Y151555D01*
X281984Y151629D01*
X282021Y151648D01*
X282225Y151889D01*
X282355Y152148D01*
X282466Y152389D01*
X282540Y152629D01*
X282577Y152833D01*
X282595Y153000D01*
X282614Y153111D01*
Y153129D01*
Y153148D01*
Y159980D01*
X282633Y160166D01*
X282688Y160295D01*
X282781Y160388D01*
X282873Y160443D01*
X282984Y160499D01*
X283058Y160517D01*
X283151D01*
X283318Y160499D01*
D02*
G37*
G36*
X301223D02*
X301353Y160443D01*
X301445Y160351D01*
X301501Y160258D01*
X301538Y160147D01*
X301575Y160073D01*
Y159999D01*
Y159980D01*
X301556Y159869D01*
Y159851D01*
Y159832D01*
X298427Y150389D01*
X298353Y150259D01*
X298279Y150167D01*
X298205Y150093D01*
X298112Y150056D01*
X298038Y150019D01*
X297964Y150000D01*
X297909D01*
X297779Y150019D01*
X297668Y150056D01*
X297575Y150130D01*
X297501Y150204D01*
X297409Y150333D01*
X297390Y150370D01*
Y150389D01*
X294242Y159832D01*
X294224Y159925D01*
Y159962D01*
Y159980D01*
X294242Y160166D01*
X294298Y160295D01*
X294391Y160388D01*
X294483Y160443D01*
X294576Y160499D01*
X294668Y160517D01*
X294742D01*
X294872Y160499D01*
X294983Y160462D01*
X295057Y160406D01*
X295131Y160351D01*
X295224Y160221D01*
X295242Y160184D01*
Y160166D01*
X297909Y152185D01*
X300557Y160166D01*
X300612Y160277D01*
X300686Y160369D01*
X300779Y160425D01*
X300853Y160480D01*
X300927Y160499D01*
X301001Y160517D01*
X301056D01*
X301223Y160499D01*
D02*
G37*
G36*
X274893D02*
X275022Y160443D01*
X275115Y160351D01*
X275170Y160258D01*
X275207Y160147D01*
X275244Y160073D01*
Y159999D01*
Y159980D01*
X275226Y159814D01*
X275170Y159684D01*
X275078Y159592D01*
X274985Y159536D01*
X274893Y159499D01*
X274800Y159462D01*
X272615D01*
Y150518D01*
X272596Y150352D01*
X272541Y150222D01*
X272448Y150130D01*
X272356Y150074D01*
X272263Y150037D01*
X272171Y150000D01*
X272097D01*
X271911Y150019D01*
X271782Y150074D01*
X271689Y150167D01*
X271634Y150259D01*
X271578Y150352D01*
X271560Y150444D01*
Y150500D01*
Y150518D01*
Y159462D01*
X269467D01*
X269282Y159480D01*
X269152Y159536D01*
X269060Y159629D01*
X269004Y159721D01*
X268949Y159814D01*
X268930Y159906D01*
Y159962D01*
Y159980D01*
X268949Y160166D01*
X269004Y160295D01*
X269097Y160388D01*
X269189Y160443D01*
X269300Y160499D01*
X269375Y160517D01*
X274726D01*
X274893Y160499D01*
D02*
G37*
G36*
X289187D02*
X289428Y160480D01*
X289854Y160369D01*
X290224Y160221D01*
X290558Y160054D01*
X290817Y159888D01*
X290928Y159814D01*
X291021Y159740D01*
X291095Y159684D01*
X291150Y159629D01*
X291169Y159610D01*
X291187Y159592D01*
X291354Y159406D01*
X291483Y159221D01*
X291613Y159036D01*
X291706Y158851D01*
X291872Y158481D01*
X291983Y158129D01*
X292039Y157814D01*
X292057Y157684D01*
X292076Y157573D01*
X292094Y157481D01*
Y157407D01*
Y157370D01*
Y157351D01*
Y153148D01*
X292076Y152907D01*
X292057Y152666D01*
X291946Y152240D01*
X291798Y151870D01*
X291632Y151537D01*
X291465Y151278D01*
X291391Y151166D01*
X291335Y151074D01*
X291261Y151000D01*
X291224Y150944D01*
X291206Y150926D01*
X291187Y150907D01*
X291002Y150741D01*
X290817Y150611D01*
X290632Y150481D01*
X290446Y150389D01*
X290076Y150222D01*
X289724Y150111D01*
X289410Y150056D01*
X289280Y150037D01*
X289169Y150019D01*
X289076Y150000D01*
X288947D01*
X288706Y150019D01*
X288465Y150037D01*
X288039Y150148D01*
X287651Y150296D01*
X287336Y150463D01*
X287076Y150630D01*
X286965Y150704D01*
X286873Y150759D01*
X286799Y150833D01*
X286743Y150870D01*
X286725Y150889D01*
X286706Y150907D01*
X286539Y151093D01*
X286391Y151278D01*
X286280Y151463D01*
X286169Y151648D01*
X286003Y152018D01*
X285891Y152370D01*
X285836Y152685D01*
X285799Y152815D01*
Y152926D01*
X285780Y153018D01*
Y153092D01*
Y153129D01*
Y153148D01*
Y157351D01*
X285799Y157592D01*
X285817Y157832D01*
X285928Y158258D01*
X286077Y158647D01*
X286243Y158962D01*
X286410Y159221D01*
X286484Y159332D01*
X286558Y159425D01*
X286614Y159499D01*
X286669Y159555D01*
X286688Y159573D01*
X286706Y159592D01*
X286891Y159758D01*
X287076Y159906D01*
X287262Y160018D01*
X287447Y160129D01*
X287817Y160295D01*
X288169Y160406D01*
X288484Y160462D01*
X288613Y160499D01*
X288724D01*
X288817Y160517D01*
X288947D01*
X289187Y160499D01*
D02*
G37*
G36*
X222780Y177351D02*
X222891Y177295D01*
X222983Y177222D01*
X223002Y177203D01*
X223094Y177092D01*
X223131Y176962D01*
X223150Y176870D01*
Y176851D01*
Y176833D01*
X223131Y176721D01*
Y176684D01*
Y176666D01*
X221057Y170426D01*
X220984Y170278D01*
X220909Y170185D01*
X220817Y170111D01*
X220724Y170056D01*
X220650Y170019D01*
X220576Y170000D01*
X220520D01*
X220391Y170019D01*
X220280Y170074D01*
X220187Y170130D01*
X220113Y170222D01*
X220076Y170296D01*
X220039Y170352D01*
X220002Y170407D01*
Y170426D01*
X217928Y176666D01*
X217891Y176777D01*
Y176814D01*
Y176833D01*
X217910Y177018D01*
X217965Y177147D01*
X218058Y177240D01*
X218150Y177295D01*
X218262Y177351D01*
X218336Y177370D01*
X218428D01*
X218558Y177351D01*
X218669Y177314D01*
X218762Y177258D01*
X218817Y177184D01*
X218910Y177055D01*
X218928Y177018D01*
Y176999D01*
X220520Y172185D01*
X222132Y176999D01*
X222187Y177129D01*
X222261Y177222D01*
X222335Y177277D01*
X222428Y177333D01*
X222502Y177351D01*
X222576Y177370D01*
X222631D01*
X222780Y177351D01*
D02*
G37*
G36*
X172279Y171555D02*
X172408Y171500D01*
X172501Y171407D01*
X172556Y171315D01*
X172593Y171204D01*
X172630Y171129D01*
Y171055D01*
Y171037D01*
Y170518D01*
X172612Y170352D01*
X172556Y170222D01*
X172464Y170130D01*
X172371Y170074D01*
X172279Y170037D01*
X172186Y170000D01*
X172112D01*
X171927Y170019D01*
X171797Y170074D01*
X171705Y170167D01*
X171649Y170259D01*
X171593Y170352D01*
X171575Y170444D01*
Y170500D01*
Y170518D01*
Y171037D01*
X171593Y171222D01*
X171649Y171352D01*
X171742Y171444D01*
X171834Y171500D01*
X171945Y171555D01*
X172019Y171574D01*
X172112D01*
X172279Y171555D01*
D02*
G37*
G36*
X179648Y180499D02*
X179778Y180443D01*
X179870Y180351D01*
X179926Y180258D01*
X179963Y180147D01*
X180000Y180073D01*
Y179999D01*
Y179980D01*
X179981Y179814D01*
X179926Y179684D01*
X179833Y179592D01*
X179741Y179536D01*
X179648Y179499D01*
X179556Y179462D01*
X177389D01*
X177148Y179443D01*
X176926Y179388D01*
X176741Y179314D01*
X176574Y179240D01*
X176445Y179147D01*
X176334Y179073D01*
X176278Y179018D01*
X176260Y178999D01*
X176112Y178814D01*
X176000Y178629D01*
X175908Y178444D01*
X175852Y178277D01*
X175815Y178110D01*
X175797Y177999D01*
Y177925D01*
Y177888D01*
X175815Y177647D01*
X175871Y177425D01*
X175945Y177240D01*
X176019Y177073D01*
X176112Y176944D01*
X176186Y176851D01*
X176241Y176777D01*
X176260Y176758D01*
X176445Y176610D01*
X176630Y176499D01*
X176815Y176425D01*
X177000Y176370D01*
X177148Y176333D01*
X177278Y176314D01*
X178445D01*
X178611Y176296D01*
X178741Y176240D01*
X178834Y176147D01*
X178889Y176055D01*
X178926Y175944D01*
X178963Y175870D01*
Y175796D01*
Y175777D01*
X178945Y175611D01*
X178889Y175481D01*
X178796Y175388D01*
X178704Y175333D01*
X178611Y175296D01*
X178519Y175259D01*
X177389D01*
X177148Y175240D01*
X176945Y175185D01*
X176760Y175111D01*
X176593Y175037D01*
X176463Y174944D01*
X176352Y174870D01*
X176297Y174814D01*
X176278Y174796D01*
X176112Y174611D01*
X176000Y174426D01*
X175908Y174240D01*
X175852Y174055D01*
X175815Y173907D01*
X175797Y173777D01*
Y173703D01*
Y173666D01*
Y172629D01*
X175815Y172389D01*
X175871Y172166D01*
X175945Y171981D01*
X176019Y171815D01*
X176112Y171685D01*
X176186Y171592D01*
X176241Y171518D01*
X176260Y171500D01*
X176445Y171352D01*
X176630Y171241D01*
X176815Y171166D01*
X177000Y171111D01*
X177148Y171074D01*
X177278Y171055D01*
X179482D01*
X179648Y171037D01*
X179778Y170981D01*
X179870Y170889D01*
X179926Y170796D01*
X179963Y170685D01*
X180000Y170611D01*
Y170537D01*
Y170518D01*
X179981Y170352D01*
X179926Y170222D01*
X179833Y170130D01*
X179741Y170074D01*
X179648Y170037D01*
X179556Y170000D01*
X177371D01*
X176982Y170037D01*
X176630Y170111D01*
X176315Y170241D01*
X176038Y170389D01*
X175815Y170518D01*
X175649Y170648D01*
X175556Y170722D01*
X175519Y170759D01*
X175260Y171055D01*
X175075Y171389D01*
X174926Y171685D01*
X174834Y171981D01*
X174778Y172241D01*
X174760Y172444D01*
X174741Y172518D01*
Y172574D01*
Y172611D01*
Y172629D01*
Y173666D01*
X174760Y173907D01*
X174778Y174129D01*
X174834Y174351D01*
X174908Y174555D01*
X175075Y174907D01*
X175260Y175222D01*
X175464Y175462D01*
X175630Y175629D01*
X175704Y175703D01*
X175760Y175740D01*
X175778Y175777D01*
X175797D01*
X175612Y175925D01*
X175445Y176092D01*
X175315Y176277D01*
X175186Y176444D01*
X175075Y176629D01*
X175000Y176796D01*
X174871Y177129D01*
X174797Y177425D01*
X174778Y177555D01*
X174760Y177666D01*
X174741Y177758D01*
Y177833D01*
Y177869D01*
Y177888D01*
X174778Y178277D01*
X174871Y178629D01*
X174982Y178944D01*
X175130Y179221D01*
X175278Y179443D01*
X175389Y179610D01*
X175482Y179703D01*
X175519Y179740D01*
X175815Y179999D01*
X176130Y180184D01*
X176445Y180332D01*
X176741Y180425D01*
X176982Y180480D01*
X177185Y180499D01*
X177260Y180517D01*
X179482D01*
X179648Y180499D01*
D02*
G37*
G36*
X159743D02*
X159984Y180425D01*
X160224Y180332D01*
X160446Y180203D01*
X160632Y180054D01*
X160817Y179888D01*
X161113Y179517D01*
X161354Y179147D01*
X161446Y178981D01*
X161521Y178832D01*
X161576Y178703D01*
X161613Y178610D01*
X161650Y178536D01*
Y178518D01*
X161798Y177981D01*
X161909Y177425D01*
X161983Y176870D01*
X162039Y176370D01*
X162057Y176129D01*
X162076Y175925D01*
Y175740D01*
X162094Y175574D01*
Y175444D01*
Y175351D01*
Y175277D01*
Y175259D01*
X162076Y174574D01*
X162020Y173962D01*
X161983Y173666D01*
X161946Y173407D01*
X161909Y173148D01*
X161872Y172926D01*
X161835Y172722D01*
X161798Y172537D01*
X161761Y172370D01*
X161724Y172241D01*
X161687Y172148D01*
X161669Y172055D01*
X161650Y172018D01*
Y172000D01*
X161521Y171648D01*
X161354Y171333D01*
X161187Y171074D01*
X161021Y170852D01*
X160835Y170648D01*
X160650Y170481D01*
X160483Y170352D01*
X160298Y170259D01*
X160132Y170167D01*
X159984Y170111D01*
X159835Y170056D01*
X159706Y170037D01*
X159613Y170019D01*
X159539Y170000D01*
X159465D01*
X159187Y170019D01*
X158947Y170093D01*
X158706Y170185D01*
X158502Y170315D01*
X158299Y170463D01*
X158132Y170630D01*
X157817Y171000D01*
X157595Y171370D01*
X157502Y171537D01*
X157428Y171685D01*
X157373Y171815D01*
X157336Y171907D01*
X157299Y171981D01*
Y172000D01*
X157150Y172537D01*
X157039Y173092D01*
X156947Y173629D01*
X156891Y174148D01*
X156873Y174370D01*
X156854Y174592D01*
Y174777D01*
X156836Y174944D01*
Y175074D01*
Y175185D01*
Y175240D01*
Y175259D01*
X156854Y175944D01*
X156910Y176555D01*
X156947Y176833D01*
X156984Y177110D01*
X157021Y177351D01*
X157058Y177573D01*
X157114Y177777D01*
X157150Y177962D01*
X157188Y178129D01*
X157225Y178258D01*
X157262Y178370D01*
X157280Y178444D01*
X157299Y178481D01*
Y178499D01*
X157428Y178851D01*
X157595Y179166D01*
X157762Y179443D01*
X157928Y179666D01*
X158113Y179869D01*
X158280Y180018D01*
X158465Y180166D01*
X158632Y180258D01*
X158799Y180351D01*
X158965Y180406D01*
X159095Y180462D01*
X159224Y180480D01*
X159317Y180499D01*
X159391Y180517D01*
X159465D01*
X159743Y180499D01*
D02*
G37*
G36*
X165946D02*
X166094Y180462D01*
X166205Y180406D01*
X166242Y180388D01*
X166261D01*
X166668Y180203D01*
X167038Y179962D01*
X167372Y179721D01*
X167687Y179480D01*
X167927Y179258D01*
X168112Y179073D01*
X168186Y178999D01*
X168242Y178944D01*
X168260Y178925D01*
X168279Y178906D01*
X168483Y178647D01*
X168668Y178388D01*
X168834Y178110D01*
X168964Y177851D01*
X169075Y177573D01*
X169168Y177314D01*
X169316Y176833D01*
X169371Y176610D01*
X169408Y176407D01*
X169427Y176240D01*
X169446Y176073D01*
X169464Y175944D01*
Y175851D01*
Y175796D01*
Y175777D01*
Y172611D01*
X169427Y172222D01*
X169353Y171870D01*
X169223Y171537D01*
X169075Y171278D01*
X168946Y171055D01*
X168816Y170889D01*
X168742Y170796D01*
X168705Y170759D01*
X168409Y170500D01*
X168094Y170315D01*
X167779Y170185D01*
X167483Y170093D01*
X167224Y170037D01*
X167020Y170019D01*
X166946Y170000D01*
X166835D01*
X166446Y170037D01*
X166094Y170111D01*
X165779Y170241D01*
X165501Y170389D01*
X165279Y170518D01*
X165113Y170648D01*
X165020Y170722D01*
X164983Y170759D01*
X164724Y171055D01*
X164539Y171370D01*
X164391Y171685D01*
X164298Y171981D01*
X164242Y172241D01*
X164224Y172444D01*
X164205Y172518D01*
Y172574D01*
Y172611D01*
Y172629D01*
Y173666D01*
X164242Y174074D01*
X164317Y174426D01*
X164446Y174740D01*
X164576Y175018D01*
X164724Y175240D01*
X164853Y175407D01*
X164928Y175499D01*
X164965Y175536D01*
X165261Y175796D01*
X165576Y175981D01*
X165890Y176129D01*
X166187Y176222D01*
X166446Y176277D01*
X166650Y176296D01*
X166724Y176314D01*
X168372D01*
X168298Y176666D01*
X168205Y176999D01*
X168075Y177295D01*
X167927Y177573D01*
X167798Y177796D01*
X167687Y177981D01*
X167612Y178092D01*
X167575Y178110D01*
Y178129D01*
X167409Y178333D01*
X167242Y178518D01*
X166890Y178814D01*
X166539Y179055D01*
X166224Y179258D01*
X165946Y179388D01*
X165816Y179425D01*
X165724Y179480D01*
X165631Y179499D01*
X165576Y179517D01*
X165539Y179536D01*
X165520D01*
X165427Y179573D01*
X165372Y179629D01*
X165298Y179777D01*
X165279Y179851D01*
X165261Y179925D01*
Y179962D01*
Y179980D01*
X165279Y180166D01*
X165335Y180295D01*
X165427Y180388D01*
X165520Y180443D01*
X165631Y180499D01*
X165705Y180517D01*
X165798D01*
X165946Y180499D01*
D02*
G37*
G36*
X172279Y191555D02*
X172408Y191500D01*
X172501Y191407D01*
X172556Y191315D01*
X172593Y191204D01*
X172630Y191129D01*
Y191055D01*
Y191037D01*
Y190518D01*
X172612Y190352D01*
X172556Y190222D01*
X172464Y190130D01*
X172371Y190074D01*
X172279Y190037D01*
X172186Y190000D01*
X172112D01*
X171927Y190019D01*
X171797Y190074D01*
X171705Y190167D01*
X171649Y190259D01*
X171593Y190352D01*
X171575Y190444D01*
Y190500D01*
Y190518D01*
Y191037D01*
X171593Y191222D01*
X171649Y191352D01*
X171742Y191444D01*
X171834Y191500D01*
X171945Y191555D01*
X172019Y191574D01*
X172112D01*
X172279Y191555D01*
D02*
G37*
G36*
X179648Y200499D02*
X179778Y200443D01*
X179870Y200351D01*
X179926Y200258D01*
X179963Y200147D01*
X180000Y200073D01*
Y199999D01*
Y199980D01*
X179981Y199814D01*
X179926Y199684D01*
X179833Y199592D01*
X179741Y199536D01*
X179648Y199499D01*
X179556Y199462D01*
X177389D01*
X177148Y199443D01*
X176926Y199388D01*
X176741Y199314D01*
X176574Y199240D01*
X176445Y199147D01*
X176334Y199073D01*
X176278Y199018D01*
X176260Y198999D01*
X176112Y198814D01*
X176000Y198629D01*
X175908Y198444D01*
X175852Y198277D01*
X175815Y198110D01*
X175797Y197999D01*
Y197925D01*
Y197888D01*
X175815Y197647D01*
X175871Y197425D01*
X175945Y197240D01*
X176019Y197073D01*
X176112Y196944D01*
X176186Y196851D01*
X176241Y196777D01*
X176260Y196759D01*
X176445Y196610D01*
X176630Y196499D01*
X176815Y196425D01*
X177000Y196370D01*
X177148Y196333D01*
X177278Y196314D01*
X178445D01*
X178611Y196296D01*
X178741Y196240D01*
X178834Y196147D01*
X178889Y196055D01*
X178926Y195944D01*
X178963Y195870D01*
Y195796D01*
Y195777D01*
X178945Y195611D01*
X178889Y195481D01*
X178796Y195388D01*
X178704Y195333D01*
X178611Y195296D01*
X178519Y195259D01*
X177389D01*
X177148Y195240D01*
X176945Y195185D01*
X176760Y195111D01*
X176593Y195037D01*
X176463Y194944D01*
X176352Y194870D01*
X176297Y194814D01*
X176278Y194796D01*
X176112Y194611D01*
X176000Y194426D01*
X175908Y194240D01*
X175852Y194055D01*
X175815Y193907D01*
X175797Y193777D01*
Y193703D01*
Y193666D01*
Y192629D01*
X175815Y192389D01*
X175871Y192166D01*
X175945Y191981D01*
X176019Y191815D01*
X176112Y191685D01*
X176186Y191592D01*
X176241Y191518D01*
X176260Y191500D01*
X176445Y191352D01*
X176630Y191241D01*
X176815Y191166D01*
X177000Y191111D01*
X177148Y191074D01*
X177278Y191055D01*
X179482D01*
X179648Y191037D01*
X179778Y190981D01*
X179870Y190889D01*
X179926Y190796D01*
X179963Y190685D01*
X180000Y190611D01*
Y190537D01*
Y190518D01*
X179981Y190352D01*
X179926Y190222D01*
X179833Y190130D01*
X179741Y190074D01*
X179648Y190037D01*
X179556Y190000D01*
X177371D01*
X176982Y190037D01*
X176630Y190111D01*
X176315Y190241D01*
X176038Y190389D01*
X175815Y190518D01*
X175649Y190648D01*
X175556Y190722D01*
X175519Y190759D01*
X175260Y191055D01*
X175075Y191389D01*
X174926Y191685D01*
X174834Y191981D01*
X174778Y192241D01*
X174760Y192444D01*
X174741Y192518D01*
Y192574D01*
Y192611D01*
Y192629D01*
Y193666D01*
X174760Y193907D01*
X174778Y194129D01*
X174834Y194351D01*
X174908Y194555D01*
X175075Y194907D01*
X175260Y195222D01*
X175464Y195462D01*
X175630Y195629D01*
X175704Y195703D01*
X175760Y195740D01*
X175778Y195777D01*
X175797D01*
X175612Y195925D01*
X175445Y196092D01*
X175315Y196277D01*
X175186Y196444D01*
X175075Y196629D01*
X175000Y196796D01*
X174871Y197129D01*
X174797Y197425D01*
X174778Y197555D01*
X174760Y197666D01*
X174741Y197759D01*
Y197833D01*
Y197870D01*
Y197888D01*
X174778Y198277D01*
X174871Y198629D01*
X174982Y198944D01*
X175130Y199221D01*
X175278Y199443D01*
X175389Y199610D01*
X175482Y199703D01*
X175519Y199740D01*
X175815Y199999D01*
X176130Y200184D01*
X176445Y200332D01*
X176741Y200425D01*
X176982Y200480D01*
X177185Y200499D01*
X177260Y200517D01*
X179482D01*
X179648Y200499D01*
D02*
G37*
G36*
X154373Y180499D02*
X154503Y180443D01*
X154595Y180351D01*
X154651Y180258D01*
X154688Y180147D01*
X154725Y180073D01*
Y179999D01*
Y179980D01*
X154706Y179869D01*
Y179851D01*
Y179832D01*
X151577Y170389D01*
X151503Y170259D01*
X151429Y170167D01*
X151355Y170093D01*
X151262Y170056D01*
X151188Y170019D01*
X151114Y170000D01*
X151059D01*
X150929Y170019D01*
X150818Y170056D01*
X150725Y170130D01*
X150651Y170204D01*
X150559Y170333D01*
X150540Y170370D01*
Y170389D01*
X147392Y179832D01*
X147374Y179925D01*
Y179962D01*
Y179980D01*
X147392Y180166D01*
X147448Y180295D01*
X147540Y180388D01*
X147633Y180443D01*
X147726Y180499D01*
X147818Y180517D01*
X147892D01*
X148022Y180499D01*
X148133Y180462D01*
X148207Y180406D01*
X148281Y180351D01*
X148374Y180221D01*
X148392Y180184D01*
Y180166D01*
X151059Y172185D01*
X153706Y180166D01*
X153762Y180277D01*
X153836Y180369D01*
X153929Y180425D01*
X154003Y180480D01*
X154077Y180499D01*
X154151Y180517D01*
X154206D01*
X154373Y180499D01*
D02*
G37*
G36*
X167224Y200480D02*
X167594Y200388D01*
X167909Y200277D01*
X168186Y200129D01*
X168409Y199980D01*
X168557Y199869D01*
X168668Y199777D01*
X168705Y199740D01*
X168964Y199443D01*
X169149Y199129D01*
X169279Y198814D01*
X169371Y198518D01*
X169427Y198258D01*
X169446Y198055D01*
X169464Y197981D01*
Y197925D01*
Y197888D01*
Y197870D01*
Y196833D01*
X169427Y196444D01*
X169353Y196073D01*
X169223Y195759D01*
X169075Y195481D01*
X168946Y195259D01*
X168816Y195111D01*
X168742Y195000D01*
X168705Y194962D01*
X168409Y194703D01*
X168075Y194518D01*
X167779Y194388D01*
X167483Y194296D01*
X167224Y194240D01*
X167020Y194222D01*
X166946Y194203D01*
X165298D01*
X165353Y193888D01*
X165446Y193592D01*
X165557Y193314D01*
X165687Y193055D01*
X165835Y192796D01*
X165983Y192574D01*
X166150Y192352D01*
X166335Y192166D01*
X166501Y192000D01*
X166650Y191852D01*
X166798Y191722D01*
X166927Y191611D01*
X167038Y191518D01*
X167131Y191463D01*
X167187Y191426D01*
X167205Y191407D01*
X167353Y191315D01*
X167501Y191241D01*
X167816Y191092D01*
X167946Y191037D01*
X168057Y191000D01*
X168131Y190981D01*
X168149Y190963D01*
X168242Y190926D01*
X168316Y190870D01*
X168353Y190796D01*
X168390Y190722D01*
X168409Y190648D01*
X168427Y190574D01*
Y190537D01*
Y190518D01*
X168409Y190370D01*
X168335Y190259D01*
X168279Y190185D01*
X168260Y190148D01*
X168131Y190056D01*
X168020Y190019D01*
X167927Y190000D01*
X167890D01*
X167724Y190019D01*
X167557Y190074D01*
X167353Y190167D01*
X167150Y190259D01*
X166983Y190333D01*
X166835Y190426D01*
X166742Y190481D01*
X166705Y190500D01*
X166261Y190796D01*
X165872Y191129D01*
X165539Y191463D01*
X165261Y191815D01*
X165020Y192166D01*
X164816Y192518D01*
X164650Y192870D01*
X164520Y193203D01*
X164409Y193500D01*
X164335Y193796D01*
X164279Y194055D01*
X164242Y194277D01*
X164224Y194463D01*
X164205Y194611D01*
Y194685D01*
Y194722D01*
Y197888D01*
X164242Y198277D01*
X164335Y198647D01*
X164446Y198962D01*
X164594Y199221D01*
X164742Y199443D01*
X164853Y199610D01*
X164946Y199703D01*
X164983Y199740D01*
X165279Y199999D01*
X165594Y200184D01*
X165909Y200332D01*
X166187Y200425D01*
X166446Y200480D01*
X166650Y200499D01*
X166724Y200517D01*
X166835D01*
X167224Y200480D01*
D02*
G37*
G36*
X163853Y140499D02*
X163983Y140443D01*
X164076Y140351D01*
X164131Y140258D01*
X164168Y140147D01*
X164205Y140073D01*
Y139999D01*
Y139980D01*
X164187Y139869D01*
Y139851D01*
Y139832D01*
X161057Y130389D01*
X160984Y130259D01*
X160909Y130167D01*
X160835Y130093D01*
X160743Y130056D01*
X160669Y130019D01*
X160595Y130000D01*
X160539D01*
X160410Y130019D01*
X160298Y130056D01*
X160206Y130130D01*
X160132Y130204D01*
X160039Y130333D01*
X160021Y130370D01*
Y130389D01*
X156873Y139832D01*
X156854Y139925D01*
Y139962D01*
Y139980D01*
X156873Y140166D01*
X156928Y140295D01*
X157021Y140388D01*
X157114Y140443D01*
X157206Y140499D01*
X157299Y140517D01*
X157373D01*
X157502Y140499D01*
X157613Y140462D01*
X157688Y140406D01*
X157762Y140351D01*
X157854Y140221D01*
X157873Y140184D01*
Y140166D01*
X160539Y132185D01*
X163187Y140166D01*
X163242Y140277D01*
X163317Y140369D01*
X163409Y140425D01*
X163483Y140480D01*
X163557Y140499D01*
X163631Y140517D01*
X163687D01*
X163853Y140499D01*
D02*
G37*
G36*
X177537Y140480D02*
X177667Y140425D01*
X177759Y140351D01*
X177778Y140332D01*
X177796Y140314D01*
X179852Y138258D01*
X179944Y138129D01*
X179981Y138018D01*
X180000Y137925D01*
Y137907D01*
Y137888D01*
X179981Y137703D01*
X179926Y137573D01*
X179833Y137481D01*
X179741Y137425D01*
X179648Y137388D01*
X179556Y137351D01*
X179482D01*
X179333Y137370D01*
X179204Y137425D01*
X179130Y137481D01*
X179111Y137499D01*
X177889Y138721D01*
Y130519D01*
X177871Y130352D01*
X177815Y130222D01*
X177722Y130130D01*
X177630Y130074D01*
X177537Y130037D01*
X177445Y130000D01*
X177371D01*
X177185Y130019D01*
X177056Y130074D01*
X176963Y130167D01*
X176908Y130259D01*
X176852Y130352D01*
X176834Y130444D01*
Y130500D01*
Y130519D01*
Y139980D01*
X176852Y140166D01*
X176908Y140295D01*
X177000Y140388D01*
X177093Y140443D01*
X177204Y140499D01*
X177278Y140517D01*
X177445D01*
X177537Y140480D01*
D02*
G37*
G36*
X169335D02*
X169705Y140388D01*
X170020Y140277D01*
X170297Y140129D01*
X170520Y139980D01*
X170668Y139869D01*
X170779Y139777D01*
X170816Y139740D01*
X171075Y139444D01*
X171260Y139129D01*
X171390Y138814D01*
X171482Y138518D01*
X171538Y138277D01*
X171556Y138073D01*
X171575Y137999D01*
Y137944D01*
Y137907D01*
Y137888D01*
X171556Y137647D01*
X171538Y137425D01*
X171408Y136999D01*
X171242Y136648D01*
X171056Y136333D01*
X170871Y136092D01*
X170705Y135925D01*
X170575Y135814D01*
X170557Y135796D01*
X170538Y135777D01*
X170723Y135629D01*
X170871Y135462D01*
X171019Y135296D01*
X171131Y135111D01*
X171316Y134759D01*
X171445Y134425D01*
X171519Y134129D01*
X171538Y134000D01*
X171556Y133889D01*
X171575Y133796D01*
Y133722D01*
Y133685D01*
Y133666D01*
Y132629D01*
X171538Y132240D01*
X171464Y131870D01*
X171334Y131555D01*
X171186Y131278D01*
X171056Y131055D01*
X170927Y130907D01*
X170853Y130796D01*
X170816Y130759D01*
X170520Y130500D01*
X170186Y130315D01*
X169890Y130185D01*
X169594Y130093D01*
X169335Y130037D01*
X169131Y130019D01*
X169057Y130000D01*
X168946D01*
X168557Y130037D01*
X168205Y130111D01*
X167890Y130241D01*
X167612Y130389D01*
X167390Y130519D01*
X167224Y130648D01*
X167131Y130722D01*
X167094Y130759D01*
X166835Y131055D01*
X166650Y131389D01*
X166501Y131685D01*
X166409Y131981D01*
X166353Y132240D01*
X166335Y132444D01*
X166316Y132518D01*
Y132574D01*
Y132611D01*
Y132629D01*
Y132870D01*
Y133074D01*
X166335Y133277D01*
Y133463D01*
X166353Y133759D01*
X166372Y134000D01*
X166390Y134166D01*
X166409Y134277D01*
X166427Y134351D01*
Y134370D01*
X166520Y134666D01*
X166650Y134944D01*
X166798Y135185D01*
X166964Y135388D01*
X167113Y135555D01*
X167242Y135666D01*
X167335Y135759D01*
X167372Y135777D01*
X167187Y135925D01*
X167020Y136092D01*
X166890Y136277D01*
X166761Y136444D01*
X166650Y136629D01*
X166576Y136796D01*
X166446Y137129D01*
X166372Y137425D01*
X166353Y137555D01*
X166335Y137666D01*
X166316Y137758D01*
Y137832D01*
Y137870D01*
Y137888D01*
X166353Y138277D01*
X166446Y138629D01*
X166557Y138944D01*
X166705Y139221D01*
X166853Y139444D01*
X166964Y139610D01*
X167057Y139703D01*
X167094Y139740D01*
X167390Y139999D01*
X167705Y140184D01*
X168020Y140332D01*
X168316Y140425D01*
X168557Y140480D01*
X168760Y140499D01*
X168834Y140517D01*
X168946D01*
X169335Y140480D01*
D02*
G37*
G36*
X174389Y131555D02*
X174519Y131500D01*
X174612Y131407D01*
X174667Y131315D01*
X174704Y131204D01*
X174741Y131130D01*
Y131055D01*
Y131037D01*
Y130519D01*
X174723Y130352D01*
X174667Y130222D01*
X174575Y130130D01*
X174482Y130074D01*
X174389Y130037D01*
X174297Y130000D01*
X174223D01*
X174038Y130019D01*
X173908Y130074D01*
X173815Y130167D01*
X173760Y130259D01*
X173704Y130352D01*
X173686Y130444D01*
Y130500D01*
Y130519D01*
Y131037D01*
X173704Y131222D01*
X173760Y131352D01*
X173853Y131444D01*
X173945Y131500D01*
X174056Y131555D01*
X174130Y131574D01*
X174223D01*
X174389Y131555D01*
D02*
G37*
G36*
X179648Y160499D02*
X179778Y160443D01*
X179870Y160351D01*
X179926Y160258D01*
X179963Y160147D01*
X180000Y160073D01*
Y159999D01*
Y159980D01*
X179981Y159814D01*
X179926Y159684D01*
X179833Y159592D01*
X179741Y159536D01*
X179648Y159499D01*
X179556Y159462D01*
X177389D01*
X177148Y159444D01*
X176926Y159388D01*
X176741Y159314D01*
X176574Y159240D01*
X176445Y159147D01*
X176334Y159073D01*
X176278Y159018D01*
X176260Y158999D01*
X176112Y158814D01*
X176000Y158629D01*
X175908Y158444D01*
X175852Y158277D01*
X175815Y158110D01*
X175797Y157999D01*
Y157925D01*
Y157888D01*
X175815Y157647D01*
X175871Y157425D01*
X175945Y157240D01*
X176019Y157073D01*
X176112Y156944D01*
X176186Y156851D01*
X176241Y156777D01*
X176260Y156759D01*
X176445Y156610D01*
X176630Y156499D01*
X176815Y156425D01*
X177000Y156370D01*
X177148Y156333D01*
X177278Y156314D01*
X178445D01*
X178611Y156296D01*
X178741Y156240D01*
X178834Y156147D01*
X178889Y156055D01*
X178926Y155944D01*
X178963Y155870D01*
Y155796D01*
Y155777D01*
X178945Y155611D01*
X178889Y155481D01*
X178796Y155388D01*
X178704Y155333D01*
X178611Y155296D01*
X178519Y155259D01*
X177389D01*
X177148Y155240D01*
X176945Y155185D01*
X176760Y155111D01*
X176593Y155036D01*
X176463Y154944D01*
X176352Y154870D01*
X176297Y154814D01*
X176278Y154796D01*
X176112Y154611D01*
X176000Y154425D01*
X175908Y154240D01*
X175852Y154055D01*
X175815Y153907D01*
X175797Y153777D01*
Y153703D01*
Y153666D01*
Y152629D01*
X175815Y152389D01*
X175871Y152166D01*
X175945Y151981D01*
X176019Y151815D01*
X176112Y151685D01*
X176186Y151592D01*
X176241Y151518D01*
X176260Y151500D01*
X176445Y151352D01*
X176630Y151241D01*
X176815Y151167D01*
X177000Y151111D01*
X177148Y151074D01*
X177278Y151055D01*
X179482D01*
X179648Y151037D01*
X179778Y150981D01*
X179870Y150889D01*
X179926Y150796D01*
X179963Y150685D01*
X180000Y150611D01*
Y150537D01*
Y150519D01*
X179981Y150352D01*
X179926Y150222D01*
X179833Y150130D01*
X179741Y150074D01*
X179648Y150037D01*
X179556Y150000D01*
X177371D01*
X176982Y150037D01*
X176630Y150111D01*
X176315Y150241D01*
X176038Y150389D01*
X175815Y150519D01*
X175649Y150648D01*
X175556Y150722D01*
X175519Y150759D01*
X175260Y151055D01*
X175075Y151389D01*
X174926Y151685D01*
X174834Y151981D01*
X174778Y152240D01*
X174760Y152444D01*
X174741Y152518D01*
Y152574D01*
Y152611D01*
Y152629D01*
Y153666D01*
X174760Y153907D01*
X174778Y154129D01*
X174834Y154351D01*
X174908Y154555D01*
X175075Y154907D01*
X175260Y155222D01*
X175464Y155462D01*
X175630Y155629D01*
X175704Y155703D01*
X175760Y155740D01*
X175778Y155777D01*
X175797D01*
X175612Y155925D01*
X175445Y156092D01*
X175315Y156277D01*
X175186Y156444D01*
X175075Y156629D01*
X175000Y156796D01*
X174871Y157129D01*
X174797Y157425D01*
X174778Y157555D01*
X174760Y157666D01*
X174741Y157759D01*
Y157832D01*
Y157870D01*
Y157888D01*
X174778Y158277D01*
X174871Y158629D01*
X174982Y158944D01*
X175130Y159221D01*
X175278Y159444D01*
X175389Y159610D01*
X175482Y159703D01*
X175519Y159740D01*
X175815Y159999D01*
X176130Y160184D01*
X176445Y160332D01*
X176741Y160425D01*
X176982Y160480D01*
X177185Y160499D01*
X177260Y160517D01*
X179482D01*
X179648Y160499D01*
D02*
G37*
G36*
X161743D02*
X161872Y160443D01*
X161965Y160351D01*
X162020Y160258D01*
X162057Y160147D01*
X162094Y160073D01*
Y159999D01*
Y159980D01*
X162076Y159869D01*
Y159851D01*
Y159832D01*
X158947Y150389D01*
X158873Y150259D01*
X158799Y150167D01*
X158724Y150093D01*
X158632Y150056D01*
X158558Y150019D01*
X158484Y150000D01*
X158428D01*
X158299Y150019D01*
X158188Y150056D01*
X158095Y150130D01*
X158021Y150204D01*
X157928Y150333D01*
X157910Y150370D01*
Y150389D01*
X154762Y159832D01*
X154743Y159925D01*
Y159962D01*
Y159980D01*
X154762Y160166D01*
X154817Y160295D01*
X154910Y160388D01*
X155003Y160443D01*
X155095Y160499D01*
X155188Y160517D01*
X155262D01*
X155392Y160499D01*
X155503Y160462D01*
X155577Y160406D01*
X155651Y160351D01*
X155743Y160221D01*
X155762Y160184D01*
Y160166D01*
X158428Y152185D01*
X161076Y160166D01*
X161132Y160277D01*
X161206Y160369D01*
X161298Y160425D01*
X161372Y160480D01*
X161446Y160499D01*
X161521Y160517D01*
X161576D01*
X161743Y160499D01*
D02*
G37*
G36*
X169112D02*
X169242Y160443D01*
X169335Y160351D01*
X169390Y160258D01*
X169427Y160147D01*
X169464Y160073D01*
Y159999D01*
Y159980D01*
X169446Y159814D01*
X169390Y159684D01*
X169297Y159592D01*
X169205Y159536D01*
X169112Y159499D01*
X169020Y159462D01*
X166853D01*
X166612Y159444D01*
X166390Y159388D01*
X166205Y159314D01*
X166038Y159240D01*
X165909Y159147D01*
X165798Y159073D01*
X165742Y159018D01*
X165724Y158999D01*
X165576Y158814D01*
X165464Y158629D01*
X165372Y158444D01*
X165316Y158277D01*
X165279Y158110D01*
X165261Y157999D01*
Y157925D01*
Y157888D01*
X165279Y157647D01*
X165335Y157425D01*
X165409Y157240D01*
X165483Y157073D01*
X165576Y156944D01*
X165650Y156851D01*
X165705Y156777D01*
X165724Y156759D01*
X165909Y156610D01*
X166094Y156499D01*
X166279Y156425D01*
X166464Y156370D01*
X166612Y156333D01*
X166742Y156314D01*
X167909D01*
X168075Y156296D01*
X168205Y156240D01*
X168298Y156147D01*
X168353Y156055D01*
X168390Y155944D01*
X168427Y155870D01*
Y155796D01*
Y155777D01*
X168409Y155611D01*
X168353Y155481D01*
X168260Y155388D01*
X168168Y155333D01*
X168075Y155296D01*
X167983Y155259D01*
X166853D01*
X166612Y155240D01*
X166409Y155185D01*
X166224Y155111D01*
X166057Y155036D01*
X165927Y154944D01*
X165816Y154870D01*
X165761Y154814D01*
X165742Y154796D01*
X165576Y154611D01*
X165464Y154425D01*
X165372Y154240D01*
X165316Y154055D01*
X165279Y153907D01*
X165261Y153777D01*
Y153703D01*
Y153666D01*
Y152629D01*
X165279Y152389D01*
X165335Y152166D01*
X165409Y151981D01*
X165483Y151815D01*
X165576Y151685D01*
X165650Y151592D01*
X165705Y151518D01*
X165724Y151500D01*
X165909Y151352D01*
X166094Y151241D01*
X166279Y151167D01*
X166464Y151111D01*
X166612Y151074D01*
X166742Y151055D01*
X168946D01*
X169112Y151037D01*
X169242Y150981D01*
X169335Y150889D01*
X169390Y150796D01*
X169427Y150685D01*
X169464Y150611D01*
Y150537D01*
Y150519D01*
X169446Y150352D01*
X169390Y150222D01*
X169297Y150130D01*
X169205Y150074D01*
X169112Y150037D01*
X169020Y150000D01*
X166835D01*
X166446Y150037D01*
X166094Y150111D01*
X165779Y150241D01*
X165501Y150389D01*
X165279Y150519D01*
X165113Y150648D01*
X165020Y150722D01*
X164983Y150759D01*
X164724Y151055D01*
X164539Y151389D01*
X164391Y151685D01*
X164298Y151981D01*
X164242Y152240D01*
X164224Y152444D01*
X164205Y152518D01*
Y152574D01*
Y152611D01*
Y152629D01*
Y153666D01*
X164224Y153907D01*
X164242Y154129D01*
X164298Y154351D01*
X164372Y154555D01*
X164539Y154907D01*
X164724Y155222D01*
X164928Y155462D01*
X165094Y155629D01*
X165168Y155703D01*
X165224Y155740D01*
X165242Y155777D01*
X165261D01*
X165076Y155925D01*
X164909Y156092D01*
X164779Y156277D01*
X164650Y156444D01*
X164539Y156629D01*
X164465Y156796D01*
X164335Y157129D01*
X164261Y157425D01*
X164242Y157555D01*
X164224Y157666D01*
X164205Y157759D01*
Y157832D01*
Y157870D01*
Y157888D01*
X164242Y158277D01*
X164335Y158629D01*
X164446Y158944D01*
X164594Y159221D01*
X164742Y159444D01*
X164853Y159610D01*
X164946Y159703D01*
X164983Y159740D01*
X165279Y159999D01*
X165594Y160184D01*
X165909Y160332D01*
X166205Y160425D01*
X166446Y160480D01*
X166650Y160499D01*
X166724Y160517D01*
X168946D01*
X169112Y160499D01*
D02*
G37*
G36*
X172279Y151555D02*
X172408Y151500D01*
X172501Y151407D01*
X172556Y151315D01*
X172593Y151204D01*
X172630Y151130D01*
Y151055D01*
Y151037D01*
Y150519D01*
X172612Y150352D01*
X172556Y150222D01*
X172464Y150130D01*
X172371Y150074D01*
X172279Y150037D01*
X172186Y150000D01*
X172112D01*
X171927Y150019D01*
X171797Y150074D01*
X171705Y150167D01*
X171649Y150259D01*
X171593Y150352D01*
X171575Y150444D01*
Y150500D01*
Y150519D01*
Y151037D01*
X171593Y151222D01*
X171649Y151352D01*
X171742Y151444D01*
X171834Y151500D01*
X171945Y151555D01*
X172019Y151574D01*
X172112D01*
X172279Y151555D01*
D02*
G37*
G36*
X154373Y200499D02*
X154503Y200443D01*
X154595Y200351D01*
X154651Y200258D01*
X154688Y200147D01*
X154725Y200073D01*
Y199999D01*
Y199980D01*
X154706Y199869D01*
Y199851D01*
Y199832D01*
X151577Y190389D01*
X151503Y190259D01*
X151429Y190167D01*
X151355Y190093D01*
X151262Y190056D01*
X151188Y190019D01*
X151114Y190000D01*
X151059D01*
X150929Y190019D01*
X150818Y190056D01*
X150725Y190130D01*
X150651Y190204D01*
X150559Y190333D01*
X150540Y190370D01*
Y190389D01*
X147392Y199832D01*
X147374Y199925D01*
Y199962D01*
Y199980D01*
X147392Y200166D01*
X147448Y200295D01*
X147540Y200388D01*
X147633Y200443D01*
X147726Y200499D01*
X147818Y200517D01*
X147892D01*
X148022Y200499D01*
X148133Y200462D01*
X148207Y200406D01*
X148281Y200351D01*
X148374Y200221D01*
X148392Y200184D01*
Y200166D01*
X151059Y192185D01*
X153706Y200166D01*
X153762Y200277D01*
X153836Y200369D01*
X153929Y200425D01*
X154003Y200480D01*
X154077Y200499D01*
X154151Y200517D01*
X154206D01*
X154373Y200499D01*
D02*
G37*
G36*
X222780Y157351D02*
X222891Y157296D01*
X222983Y157221D01*
X223002Y157203D01*
X223094Y157092D01*
X223131Y156962D01*
X223150Y156870D01*
Y156851D01*
Y156833D01*
X223131Y156721D01*
Y156685D01*
Y156666D01*
X221057Y150426D01*
X220984Y150278D01*
X220909Y150185D01*
X220817Y150111D01*
X220724Y150056D01*
X220650Y150019D01*
X220576Y150000D01*
X220520D01*
X220391Y150019D01*
X220280Y150074D01*
X220187Y150130D01*
X220113Y150222D01*
X220076Y150296D01*
X220039Y150352D01*
X220002Y150407D01*
Y150426D01*
X217928Y156666D01*
X217891Y156777D01*
Y156814D01*
Y156833D01*
X217910Y157018D01*
X217965Y157147D01*
X218058Y157240D01*
X218150Y157296D01*
X218262Y157351D01*
X218336Y157370D01*
X218428D01*
X218558Y157351D01*
X218669Y157314D01*
X218762Y157259D01*
X218817Y157184D01*
X218910Y157055D01*
X218928Y157018D01*
Y156999D01*
X220520Y152185D01*
X222132Y156999D01*
X222187Y157129D01*
X222261Y157221D01*
X222335Y157277D01*
X222428Y157333D01*
X222502Y157351D01*
X222576Y157370D01*
X222631D01*
X222780Y157351D01*
D02*
G37*
G36*
X239648Y160499D02*
X239778Y160443D01*
X239870Y160351D01*
X239926Y160258D01*
X239963Y160147D01*
X240000Y160073D01*
Y159999D01*
Y159980D01*
X239981Y159869D01*
Y159851D01*
Y159832D01*
X236852Y150389D01*
X236778Y150259D01*
X236704Y150167D01*
X236630Y150093D01*
X236537Y150056D01*
X236463Y150019D01*
X236389Y150000D01*
X236334D01*
X236204Y150019D01*
X236093Y150056D01*
X236000Y150130D01*
X235926Y150204D01*
X235834Y150333D01*
X235815Y150370D01*
Y150389D01*
X232667Y159832D01*
X232649Y159925D01*
Y159962D01*
Y159980D01*
X232667Y160166D01*
X232723Y160295D01*
X232816Y160388D01*
X232908Y160443D01*
X233001Y160499D01*
X233093Y160517D01*
X233167D01*
X233297Y160499D01*
X233408Y160462D01*
X233482Y160406D01*
X233556Y160351D01*
X233649Y160221D01*
X233667Y160184D01*
Y160166D01*
X236334Y152185D01*
X238982Y160166D01*
X239037Y160277D01*
X239111Y160369D01*
X239204Y160425D01*
X239278Y160480D01*
X239352Y160499D01*
X239426Y160517D01*
X239482D01*
X239648Y160499D01*
D02*
G37*
G36*
Y140499D02*
X239778Y140443D01*
X239870Y140351D01*
X239926Y140258D01*
X239963Y140147D01*
X240000Y140073D01*
Y139999D01*
Y139980D01*
X239981Y139869D01*
Y139851D01*
Y139832D01*
X236852Y130389D01*
X236778Y130259D01*
X236704Y130167D01*
X236630Y130093D01*
X236537Y130056D01*
X236463Y130019D01*
X236389Y130000D01*
X236334D01*
X236204Y130019D01*
X236093Y130056D01*
X236000Y130130D01*
X235926Y130204D01*
X235834Y130333D01*
X235815Y130370D01*
Y130389D01*
X232667Y139832D01*
X232649Y139925D01*
Y139962D01*
Y139980D01*
X232667Y140166D01*
X232723Y140295D01*
X232816Y140388D01*
X232908Y140443D01*
X233001Y140499D01*
X233093Y140517D01*
X233167D01*
X233297Y140499D01*
X233408Y140462D01*
X233482Y140406D01*
X233556Y140351D01*
X233649Y140221D01*
X233667Y140184D01*
Y140166D01*
X236334Y132185D01*
X238982Y140166D01*
X239037Y140277D01*
X239111Y140369D01*
X239204Y140425D01*
X239278Y140480D01*
X239352Y140499D01*
X239426Y140517D01*
X239482D01*
X239648Y140499D01*
D02*
G37*
G36*
X230168Y160499D02*
X230297Y160443D01*
X230390Y160351D01*
X230445Y160258D01*
X230483Y160147D01*
X230520Y160073D01*
Y159999D01*
Y159980D01*
Y150519D01*
X230501Y150352D01*
X230445Y150222D01*
X230353Y150130D01*
X230260Y150074D01*
X230168Y150037D01*
X230075Y150000D01*
X230001D01*
X229816Y150019D01*
X229686Y150074D01*
X229594Y150167D01*
X229538Y150259D01*
X229483Y150352D01*
X229464Y150444D01*
Y150500D01*
Y150519D01*
Y156314D01*
X227372D01*
X227205Y156296D01*
X227075Y156259D01*
X226946Y156222D01*
X226835Y156166D01*
X226742Y156092D01*
X226687Y156055D01*
X226649Y156018D01*
X226631Y155999D01*
X226520Y155888D01*
X226446Y155759D01*
X226390Y155629D01*
X226353Y155518D01*
X226335Y155407D01*
X226316Y155333D01*
Y155277D01*
Y155259D01*
Y150519D01*
X226298Y150352D01*
X226242Y150222D01*
X226150Y150130D01*
X226057Y150074D01*
X225964Y150037D01*
X225872Y150000D01*
X225798D01*
X225613Y150019D01*
X225483Y150074D01*
X225390Y150167D01*
X225335Y150259D01*
X225279Y150352D01*
X225261Y150444D01*
Y150500D01*
Y150519D01*
Y155296D01*
X225279Y155611D01*
X225353Y155888D01*
X225464Y156129D01*
X225576Y156351D01*
X225687Y156518D01*
X225798Y156648D01*
X225872Y156740D01*
X225890Y156759D01*
X226131Y156962D01*
X226372Y157110D01*
X226631Y157221D01*
X226853Y157296D01*
X227057Y157333D01*
X227223Y157370D01*
X229464D01*
Y159980D01*
X229483Y160166D01*
X229538Y160295D01*
X229631Y160388D01*
X229723Y160443D01*
X229834Y160499D01*
X229909Y160517D01*
X230001D01*
X230168Y160499D01*
D02*
G37*
G36*
X211225Y180499D02*
X211355Y180443D01*
X211447Y180351D01*
X211503Y180258D01*
X211540Y180147D01*
X211577Y180073D01*
Y179999D01*
Y179980D01*
Y177370D01*
X213688D01*
X213910Y177351D01*
X214114Y177333D01*
X214317Y177277D01*
X214484Y177203D01*
X214799Y177036D01*
X215058Y176851D01*
X215243Y176647D01*
X215391Y176481D01*
X215447Y176407D01*
X215466Y176351D01*
X215502Y176333D01*
Y176314D01*
X215595Y176129D01*
X215669Y175944D01*
X215706Y175777D01*
X215743Y175611D01*
X215762Y175462D01*
X215780Y175351D01*
Y175277D01*
Y175259D01*
Y172092D01*
X215762Y171778D01*
X215688Y171481D01*
X215595Y171222D01*
X215484Y171018D01*
X215373Y170833D01*
X215280Y170704D01*
X215206Y170630D01*
X215188Y170592D01*
X214947Y170389D01*
X214688Y170259D01*
X214447Y170148D01*
X214206Y170074D01*
X214003Y170037D01*
X213836Y170019D01*
X213725Y170000D01*
X211059D01*
X210873Y170019D01*
X210744Y170074D01*
X210651Y170167D01*
X210596Y170259D01*
X210540Y170352D01*
X210522Y170444D01*
Y170500D01*
Y170518D01*
Y179980D01*
X210540Y180166D01*
X210596Y180295D01*
X210688Y180388D01*
X210781Y180443D01*
X210892Y180499D01*
X210966Y180517D01*
X211059D01*
X211225Y180499D01*
D02*
G37*
G36*
X228279Y177333D02*
X228649Y177240D01*
X228964Y177129D01*
X229242Y176981D01*
X229464Y176833D01*
X229612Y176721D01*
X229723Y176629D01*
X229760Y176592D01*
X230020Y176296D01*
X230205Y175981D01*
X230334Y175666D01*
X230427Y175370D01*
X230483Y175111D01*
X230501Y174907D01*
X230520Y174833D01*
Y174777D01*
Y174740D01*
Y174722D01*
Y172629D01*
X230483Y172241D01*
X230408Y171870D01*
X230279Y171555D01*
X230131Y171278D01*
X230001Y171055D01*
X229871Y170907D01*
X229797Y170796D01*
X229760Y170759D01*
X229464Y170500D01*
X229131Y170315D01*
X228834Y170185D01*
X228538Y170093D01*
X228279Y170037D01*
X228075Y170019D01*
X228001Y170000D01*
X227890D01*
X227501Y170037D01*
X227150Y170111D01*
X226835Y170241D01*
X226557Y170389D01*
X226335Y170518D01*
X226168Y170648D01*
X226075Y170722D01*
X226038Y170759D01*
X225779Y171055D01*
X225594Y171389D01*
X225446Y171685D01*
X225353Y171981D01*
X225298Y172241D01*
X225279Y172444D01*
X225261Y172518D01*
Y172574D01*
Y172611D01*
Y172629D01*
Y174722D01*
X225298Y175129D01*
X225390Y175481D01*
X225501Y175796D01*
X225650Y176073D01*
X225798Y176296D01*
X225909Y176462D01*
X226001Y176555D01*
X226038Y176592D01*
X226335Y176851D01*
X226649Y177036D01*
X226964Y177184D01*
X227242Y177277D01*
X227501Y177333D01*
X227705Y177351D01*
X227779Y177370D01*
X227890D01*
X228279Y177333D01*
D02*
G37*
G36*
X203245Y177351D02*
X203541Y177295D01*
X203819Y177222D01*
X204059Y177147D01*
X204244Y177073D01*
X204393Y176999D01*
X204467Y176944D01*
X204504Y176925D01*
X204744Y176721D01*
X204930Y176499D01*
X205059Y176259D01*
X205152Y176036D01*
X205207Y175833D01*
X205226Y175666D01*
X205244Y175555D01*
Y175536D01*
Y175518D01*
X205226Y175314D01*
X205207Y175111D01*
X205152Y174925D01*
X205078Y174759D01*
X204911Y174481D01*
X204707Y174240D01*
X204522Y174074D01*
X204356Y173944D01*
X204282Y173907D01*
X204226Y173870D01*
X204207Y173851D01*
X204189D01*
X201486Y172537D01*
X201337Y172444D01*
X201226Y172333D01*
X201152Y172222D01*
X201097Y172111D01*
X201060Y172000D01*
X201041Y171907D01*
Y171852D01*
Y171833D01*
X201060Y171703D01*
X201097Y171574D01*
X201171Y171481D01*
X201245Y171389D01*
X201467Y171241D01*
X201708Y171148D01*
X201967Y171092D01*
X202189Y171074D01*
X202263Y171055D01*
X202393D01*
X202893Y171092D01*
X203134Y171111D01*
X203337Y171148D01*
X203522Y171185D01*
X203652Y171204D01*
X203745Y171241D01*
X203782D01*
X203948Y171315D01*
X204115Y171370D01*
X204226Y171407D01*
X204337Y171463D01*
X204411Y171500D01*
X204485Y171518D01*
X204504Y171537D01*
X204522D01*
X204596Y171555D01*
X204670Y171574D01*
X204726D01*
X204874Y171555D01*
X204985Y171500D01*
X205078Y171426D01*
X205096Y171407D01*
X205189Y171296D01*
X205226Y171166D01*
X205244Y171074D01*
Y171055D01*
Y171037D01*
X205226Y170926D01*
X205207Y170833D01*
X205096Y170704D01*
X205004Y170611D01*
X204985Y170574D01*
X204967D01*
X204559Y170389D01*
X204133Y170241D01*
X203708Y170148D01*
X203300Y170074D01*
X202948Y170037D01*
X202800Y170019D01*
X202670D01*
X202559Y170000D01*
X202411D01*
X202041Y170019D01*
X201726Y170056D01*
X201430Y170130D01*
X201189Y170204D01*
X201004Y170259D01*
X200856Y170333D01*
X200782Y170370D01*
X200745Y170389D01*
X200486Y170592D01*
X200300Y170815D01*
X200171Y171055D01*
X200078Y171296D01*
X200023Y171500D01*
X200004Y171685D01*
X199986Y171796D01*
Y171815D01*
Y171833D01*
X200004Y172037D01*
X200023Y172241D01*
X200078Y172407D01*
X200152Y172574D01*
X200319Y172870D01*
X200504Y173092D01*
X200708Y173277D01*
X200874Y173407D01*
X200949Y173444D01*
X201004Y173481D01*
X201023Y173500D01*
X201041D01*
X203763Y174814D01*
X203911Y174907D01*
X204004Y175018D01*
X204078Y175129D01*
X204133Y175240D01*
X204170Y175351D01*
X204189Y175444D01*
Y175499D01*
Y175518D01*
X204170Y175666D01*
X204133Y175777D01*
X204078Y175888D01*
X203985Y175981D01*
X203782Y176129D01*
X203541Y176222D01*
X203300Y176277D01*
X203096Y176296D01*
X203004Y176314D01*
X202893D01*
X202578Y176296D01*
X202282Y176240D01*
X202004Y176166D01*
X201763Y176092D01*
X201560Y175999D01*
X201411Y175925D01*
X201319Y175870D01*
X201282Y175851D01*
X201208Y175814D01*
X201134Y175796D01*
X201060Y175777D01*
X201041D01*
X200893Y175796D01*
X200763Y175851D01*
X200689Y175907D01*
X200671Y175925D01*
X200578Y176055D01*
X200523Y176185D01*
X200504Y176277D01*
Y176296D01*
Y176314D01*
X200523Y176407D01*
X200541Y176499D01*
X200652Y176647D01*
X200745Y176740D01*
X200782Y176777D01*
X200800D01*
X201152Y176981D01*
X201523Y177129D01*
X201874Y177222D01*
X202189Y177295D01*
X202467Y177333D01*
X202596Y177351D01*
X202689Y177370D01*
X202893D01*
X203245Y177351D01*
D02*
G37*
G36*
X208059D02*
X208188Y177295D01*
X208281Y177203D01*
X208337Y177110D01*
X208374Y176999D01*
X208411Y176925D01*
Y176851D01*
Y176833D01*
Y170518D01*
X208392Y170352D01*
X208337Y170222D01*
X208244Y170130D01*
X208151Y170074D01*
X208059Y170037D01*
X207966Y170000D01*
X207892D01*
X207707Y170019D01*
X207577Y170074D01*
X207485Y170167D01*
X207429Y170259D01*
X207374Y170352D01*
X207355Y170444D01*
Y170500D01*
Y170518D01*
Y176833D01*
X207374Y177018D01*
X207429Y177147D01*
X207522Y177240D01*
X207614Y177295D01*
X207726Y177351D01*
X207800Y177370D01*
X207892D01*
X208059Y177351D01*
D02*
G37*
G36*
X168057Y220499D02*
X168186Y220443D01*
X168279Y220351D01*
X168335Y220258D01*
X168372Y220147D01*
X168409Y220073D01*
Y219999D01*
Y219981D01*
Y215777D01*
X168390Y215611D01*
X168335Y215481D01*
X168242Y215388D01*
X168149Y215333D01*
X168057Y215296D01*
X167964Y215259D01*
X165779D01*
X165539Y215240D01*
X165335Y215185D01*
X165150Y215111D01*
X164983Y215037D01*
X164853Y214944D01*
X164742Y214870D01*
X164687Y214814D01*
X164668Y214796D01*
X164520Y214611D01*
X164409Y214426D01*
X164317Y214240D01*
X164261Y214055D01*
X164224Y213907D01*
X164205Y213777D01*
Y213703D01*
Y213666D01*
Y212629D01*
X164224Y212389D01*
X164279Y212167D01*
X164354Y211981D01*
X164428Y211815D01*
X164520Y211685D01*
X164594Y211592D01*
X164650Y211518D01*
X164668Y211500D01*
X164853Y211352D01*
X165039Y211241D01*
X165224Y211167D01*
X165390Y211111D01*
X165557Y211074D01*
X165668Y211056D01*
X167890D01*
X168057Y211037D01*
X168186Y210981D01*
X168279Y210889D01*
X168335Y210796D01*
X168372Y210685D01*
X168409Y210611D01*
Y210537D01*
Y210518D01*
X168390Y210352D01*
X168335Y210222D01*
X168242Y210130D01*
X168149Y210074D01*
X168057Y210037D01*
X167964Y210000D01*
X165779D01*
X165390Y210037D01*
X165039Y210111D01*
X164724Y210241D01*
X164446Y210389D01*
X164224Y210518D01*
X164057Y210648D01*
X163965Y210722D01*
X163928Y210759D01*
X163668Y211056D01*
X163483Y211389D01*
X163335Y211685D01*
X163242Y211981D01*
X163187Y212241D01*
X163168Y212444D01*
X163150Y212518D01*
Y212574D01*
Y212611D01*
Y212629D01*
Y213666D01*
X163187Y214055D01*
X163279Y214426D01*
X163391Y214740D01*
X163539Y215018D01*
X163687Y215240D01*
X163798Y215407D01*
X163891Y215499D01*
X163928Y215536D01*
X164224Y215796D01*
X164539Y215981D01*
X164853Y216129D01*
X165131Y216222D01*
X165390Y216277D01*
X165594Y216296D01*
X165668Y216314D01*
X167353D01*
Y219462D01*
X164205D01*
X164020Y219480D01*
X163891Y219536D01*
X163798Y219629D01*
X163742Y219721D01*
X163687Y219814D01*
X163668Y219906D01*
Y219962D01*
Y219981D01*
X163687Y220166D01*
X163742Y220295D01*
X163835Y220388D01*
X163928Y220443D01*
X164039Y220499D01*
X164113Y220517D01*
X167890D01*
X168057Y220499D01*
D02*
G37*
G36*
X171223Y211555D02*
X171353Y211500D01*
X171445Y211407D01*
X171501Y211315D01*
X171538Y211204D01*
X171575Y211129D01*
Y211056D01*
Y211037D01*
Y210518D01*
X171556Y210352D01*
X171501Y210222D01*
X171408Y210130D01*
X171316Y210074D01*
X171223Y210037D01*
X171131Y210000D01*
X171056D01*
X170871Y210019D01*
X170742Y210074D01*
X170649Y210167D01*
X170594Y210259D01*
X170538Y210352D01*
X170520Y210444D01*
Y210500D01*
Y210518D01*
Y211037D01*
X170538Y211222D01*
X170594Y211352D01*
X170686Y211444D01*
X170779Y211500D01*
X170890Y211555D01*
X170964Y211574D01*
X171056D01*
X171223Y211555D01*
D02*
G37*
G36*
X159761Y200499D02*
X160039Y200443D01*
X160298Y200351D01*
X160558Y200221D01*
X160780Y200073D01*
X160984Y199925D01*
X161187Y199758D01*
X161372Y199573D01*
X161521Y199406D01*
X161669Y199221D01*
X161780Y199073D01*
X161872Y198925D01*
X161965Y198795D01*
X162020Y198703D01*
X162039Y198647D01*
X162057Y198629D01*
X162094Y198481D01*
Y198425D01*
Y198407D01*
X162076Y198240D01*
X162020Y198110D01*
X161928Y198018D01*
X161835Y197962D01*
X161743Y197925D01*
X161650Y197888D01*
X161576D01*
X161465Y197907D01*
X161372Y197925D01*
X161243Y198018D01*
X161150Y198110D01*
X161132Y198129D01*
Y198147D01*
X160984Y198388D01*
X160835Y198573D01*
X160706Y198758D01*
X160558Y198906D01*
X160410Y199036D01*
X160280Y199147D01*
X160150Y199221D01*
X160021Y199295D01*
X159798Y199388D01*
X159632Y199443D01*
X159521Y199462D01*
X159484D01*
X159243Y199443D01*
X159021Y199388D01*
X158835Y199314D01*
X158669Y199240D01*
X158539Y199147D01*
X158428Y199073D01*
X158373Y199018D01*
X158354Y198999D01*
X158206Y198814D01*
X158095Y198629D01*
X158002Y198444D01*
X157947Y198277D01*
X157910Y198110D01*
X157891Y197999D01*
Y197925D01*
Y197888D01*
X157910Y197721D01*
X157928Y197573D01*
X157965Y197425D01*
X158021Y197295D01*
X158076Y197184D01*
X158113Y197092D01*
X158132Y197036D01*
X158150Y197018D01*
X162020Y190815D01*
X162057Y190722D01*
X162076Y190611D01*
X162094Y190555D01*
Y190518D01*
X162076Y190352D01*
X162020Y190222D01*
X161928Y190130D01*
X161835Y190074D01*
X161743Y190037D01*
X161650Y190000D01*
X157373D01*
X157188Y190019D01*
X157058Y190074D01*
X156965Y190167D01*
X156910Y190259D01*
X156854Y190352D01*
X156836Y190444D01*
Y190500D01*
Y190518D01*
X156854Y190704D01*
X156910Y190833D01*
X157002Y190926D01*
X157095Y190981D01*
X157206Y191037D01*
X157280Y191055D01*
X160632D01*
X157317Y196370D01*
X157150Y196647D01*
X157039Y196925D01*
X156947Y197184D01*
X156891Y197407D01*
X156854Y197610D01*
X156836Y197759D01*
Y197851D01*
Y197888D01*
X156873Y198277D01*
X156965Y198629D01*
X157077Y198944D01*
X157225Y199221D01*
X157373Y199443D01*
X157484Y199610D01*
X157576Y199703D01*
X157613Y199740D01*
X157910Y199999D01*
X158224Y200184D01*
X158539Y200332D01*
X158835Y200425D01*
X159076Y200480D01*
X159280Y200499D01*
X159354Y200517D01*
X159465D01*
X159761Y200499D01*
D02*
G37*
G36*
X158687Y220499D02*
X158928Y220425D01*
X159169Y220332D01*
X159391Y220203D01*
X159576Y220054D01*
X159761Y219888D01*
X160058Y219517D01*
X160298Y219147D01*
X160391Y218981D01*
X160465Y218832D01*
X160521Y218703D01*
X160558Y218610D01*
X160595Y218536D01*
Y218518D01*
X160743Y217981D01*
X160854Y217425D01*
X160928Y216870D01*
X160984Y216370D01*
X161002Y216129D01*
X161021Y215925D01*
Y215740D01*
X161039Y215574D01*
Y215444D01*
Y215351D01*
Y215277D01*
Y215259D01*
X161021Y214574D01*
X160965Y213963D01*
X160928Y213666D01*
X160891Y213407D01*
X160854Y213148D01*
X160817Y212926D01*
X160780Y212722D01*
X160743Y212537D01*
X160706Y212370D01*
X160669Y212241D01*
X160632Y212148D01*
X160613Y212055D01*
X160595Y212018D01*
Y212000D01*
X160465Y211648D01*
X160298Y211333D01*
X160132Y211074D01*
X159965Y210852D01*
X159780Y210648D01*
X159595Y210481D01*
X159428Y210352D01*
X159243Y210259D01*
X159076Y210167D01*
X158928Y210111D01*
X158780Y210056D01*
X158650Y210037D01*
X158558Y210019D01*
X158484Y210000D01*
X158410D01*
X158132Y210019D01*
X157891Y210093D01*
X157650Y210185D01*
X157447Y210315D01*
X157243Y210463D01*
X157077Y210630D01*
X156762Y211000D01*
X156539Y211370D01*
X156447Y211537D01*
X156373Y211685D01*
X156317Y211815D01*
X156280Y211907D01*
X156243Y211981D01*
Y212000D01*
X156095Y212537D01*
X155984Y213092D01*
X155891Y213629D01*
X155836Y214148D01*
X155817Y214370D01*
X155799Y214592D01*
Y214777D01*
X155780Y214944D01*
Y215074D01*
Y215185D01*
Y215240D01*
Y215259D01*
X155799Y215944D01*
X155854Y216555D01*
X155891Y216833D01*
X155928Y217110D01*
X155965Y217351D01*
X156003Y217573D01*
X156058Y217777D01*
X156095Y217962D01*
X156132Y218129D01*
X156169Y218258D01*
X156206Y218370D01*
X156225Y218444D01*
X156243Y218481D01*
Y218499D01*
X156373Y218851D01*
X156539Y219166D01*
X156706Y219443D01*
X156873Y219666D01*
X157058Y219869D01*
X157225Y220018D01*
X157410Y220166D01*
X157576Y220258D01*
X157743Y220351D01*
X157910Y220406D01*
X158039Y220462D01*
X158169Y220480D01*
X158261Y220499D01*
X158336Y220517D01*
X158410D01*
X158687Y220499D01*
D02*
G37*
G36*
X230168Y140499D02*
X230297Y140443D01*
X230390Y140351D01*
X230445Y140258D01*
X230483Y140147D01*
X230520Y140073D01*
Y139999D01*
Y139980D01*
Y131574D01*
X230501Y131315D01*
X230445Y131074D01*
X230390Y130889D01*
X230297Y130722D01*
X230223Y130574D01*
X230168Y130481D01*
X230112Y130426D01*
X230094Y130407D01*
X229927Y130278D01*
X229742Y130167D01*
X229538Y130093D01*
X229353Y130056D01*
X229205Y130019D01*
X229057Y130000D01*
X228946D01*
X228779Y130019D01*
X228649Y130074D01*
X228557Y130167D01*
X228483Y130259D01*
X228446Y130352D01*
X228427Y130444D01*
Y130500D01*
Y130519D01*
X228446Y130667D01*
X228501Y130778D01*
X228594Y130870D01*
X228686Y130926D01*
X228779Y130981D01*
X228871Y131018D01*
X228927Y131037D01*
X228946D01*
X229112Y131093D01*
X229242Y131185D01*
X229334Y131259D01*
X229390Y131352D01*
X229427Y131444D01*
X229464Y131500D01*
Y131555D01*
Y131574D01*
Y139980D01*
X229483Y140166D01*
X229538Y140295D01*
X229631Y140388D01*
X229723Y140443D01*
X229834Y140499D01*
X229909Y140517D01*
X230001D01*
X230168Y140499D01*
D02*
G37*
G36*
X225946Y137351D02*
X226057Y137296D01*
X226150Y137221D01*
X226168Y137203D01*
X226261Y137092D01*
X226298Y136962D01*
X226316Y136870D01*
Y136851D01*
Y136833D01*
X226298Y136721D01*
Y136685D01*
Y136666D01*
X224224Y130426D01*
X224150Y130278D01*
X224076Y130185D01*
X223983Y130111D01*
X223891Y130056D01*
X223817Y130019D01*
X223742Y130000D01*
X223687D01*
X223557Y130019D01*
X223446Y130074D01*
X223354Y130130D01*
X223279Y130222D01*
X223242Y130296D01*
X223205Y130352D01*
X223168Y130407D01*
Y130426D01*
X221095Y136666D01*
X221057Y136777D01*
Y136814D01*
Y136833D01*
X221076Y137018D01*
X221132Y137147D01*
X221224Y137240D01*
X221317Y137296D01*
X221428Y137351D01*
X221502Y137370D01*
X221595D01*
X221724Y137351D01*
X221835Y137314D01*
X221928Y137259D01*
X221983Y137184D01*
X222076Y137055D01*
X222094Y137018D01*
Y136999D01*
X223687Y132185D01*
X225298Y136999D01*
X225353Y137129D01*
X225427Y137221D01*
X225501Y137277D01*
X225594Y137333D01*
X225668Y137351D01*
X225742Y137370D01*
X225798D01*
X225946Y137351D01*
D02*
G37*
G36*
X153318Y220499D02*
X153447Y220443D01*
X153540Y220351D01*
X153595Y220258D01*
X153632Y220147D01*
X153669Y220073D01*
Y219999D01*
Y219981D01*
X153651Y219869D01*
Y219851D01*
Y219832D01*
X150522Y210389D01*
X150448Y210259D01*
X150373Y210167D01*
X150299Y210093D01*
X150207Y210056D01*
X150133Y210019D01*
X150059Y210000D01*
X150003D01*
X149874Y210019D01*
X149762Y210056D01*
X149670Y210130D01*
X149596Y210204D01*
X149503Y210333D01*
X149485Y210370D01*
Y210389D01*
X146337Y219832D01*
X146318Y219925D01*
Y219962D01*
Y219981D01*
X146337Y220166D01*
X146392Y220295D01*
X146485Y220388D01*
X146578Y220443D01*
X146670Y220499D01*
X146763Y220517D01*
X146837D01*
X146966Y220499D01*
X147078Y220462D01*
X147152Y220406D01*
X147226Y220351D01*
X147318Y220221D01*
X147337Y220184D01*
Y220166D01*
X150003Y212185D01*
X152651Y220166D01*
X152707Y220277D01*
X152781Y220369D01*
X152873Y220425D01*
X152947Y220480D01*
X153021Y220499D01*
X153095Y220517D01*
X153151D01*
X153318Y220499D01*
D02*
G37*
G36*
X177500D02*
X177630Y220462D01*
X177704Y220388D01*
X177778Y220332D01*
X177834Y220258D01*
X177871Y220184D01*
X177889Y220147D01*
Y220129D01*
X180000Y212778D01*
Y212685D01*
Y212648D01*
Y212629D01*
X179981Y212463D01*
X179926Y212333D01*
X179833Y212241D01*
X179741Y212185D01*
X179648Y212148D01*
X179556Y212111D01*
X176315D01*
Y210518D01*
X176297Y210352D01*
X176241Y210222D01*
X176149Y210130D01*
X176056Y210074D01*
X175963Y210037D01*
X175871Y210000D01*
X175797D01*
X175612Y210019D01*
X175482Y210074D01*
X175389Y210167D01*
X175334Y210259D01*
X175278Y210352D01*
X175260Y210444D01*
Y210500D01*
Y210518D01*
Y212111D01*
X174223D01*
X174038Y212129D01*
X173908Y212185D01*
X173815Y212278D01*
X173760Y212370D01*
X173704Y212463D01*
X173686Y212555D01*
Y212611D01*
Y212629D01*
X173704Y212815D01*
X173760Y212944D01*
X173853Y213037D01*
X173945Y213092D01*
X174056Y213148D01*
X174130Y213166D01*
X175260D01*
Y214740D01*
X175278Y214925D01*
X175334Y215055D01*
X175426Y215148D01*
X175519Y215203D01*
X175630Y215259D01*
X175704Y215277D01*
X175797D01*
X175963Y215259D01*
X176093Y215203D01*
X176186Y215111D01*
X176241Y215018D01*
X176278Y214907D01*
X176315Y214833D01*
Y214759D01*
Y214740D01*
Y213166D01*
X178778D01*
X176871Y219832D01*
X176852Y219943D01*
Y219962D01*
Y219981D01*
X176871Y220166D01*
X176926Y220295D01*
X177019Y220388D01*
X177111Y220443D01*
X177204Y220499D01*
X177297Y220517D01*
X177371D01*
X177500Y220499D01*
D02*
G37*
G36*
X369648Y200499D02*
X369778Y200443D01*
X369870Y200351D01*
X369926Y200258D01*
X369963Y200147D01*
X370000Y200073D01*
Y199999D01*
Y199980D01*
X369981Y199814D01*
X369926Y199684D01*
X369833Y199592D01*
X369741Y199536D01*
X369648Y199499D01*
X369556Y199462D01*
X367371D01*
Y190518D01*
X367352Y190352D01*
X367297Y190222D01*
X367204Y190130D01*
X367111Y190074D01*
X367019Y190037D01*
X366926Y190000D01*
X366852D01*
X366667Y190019D01*
X366537Y190074D01*
X366445Y190167D01*
X366389Y190259D01*
X366334Y190352D01*
X366315Y190444D01*
Y190500D01*
Y190518D01*
Y199462D01*
X364223D01*
X364038Y199480D01*
X363908Y199536D01*
X363815Y199629D01*
X363760Y199721D01*
X363704Y199814D01*
X363686Y199906D01*
Y199962D01*
Y199980D01*
X363704Y200166D01*
X363760Y200295D01*
X363853Y200388D01*
X363945Y200443D01*
X364056Y200499D01*
X364130Y200517D01*
X369482D01*
X369648Y200499D01*
D02*
G37*
G36*
X361223D02*
X361353Y200443D01*
X361445Y200351D01*
X361501Y200258D01*
X361538Y200147D01*
X361575Y200073D01*
Y199999D01*
Y199980D01*
Y190518D01*
X361557Y190352D01*
X361501Y190222D01*
X361408Y190130D01*
X361316Y190074D01*
X361223Y190037D01*
X361131Y190000D01*
X361057D01*
X360871Y190019D01*
X360742Y190074D01*
X360649Y190167D01*
X360594Y190259D01*
X360538Y190352D01*
X360519Y190444D01*
Y190500D01*
Y190518D01*
Y194203D01*
X358427D01*
X358168Y194222D01*
X357927Y194240D01*
X357483Y194333D01*
X357094Y194481D01*
X356761Y194648D01*
X356501Y194796D01*
X356298Y194944D01*
X356242Y195000D01*
X356187Y195037D01*
X356168Y195074D01*
X356150D01*
X356002Y195240D01*
X355853Y195425D01*
X355631Y195796D01*
X355483Y196185D01*
X355372Y196536D01*
X355298Y196870D01*
X355279Y196999D01*
Y197110D01*
X355261Y197222D01*
Y197295D01*
Y197333D01*
Y197351D01*
X355279Y197592D01*
X355298Y197833D01*
X355409Y198258D01*
X355557Y198647D01*
X355724Y198962D01*
X355890Y199221D01*
X355964Y199332D01*
X356039Y199425D01*
X356094Y199499D01*
X356150Y199555D01*
X356168Y199573D01*
X356187Y199592D01*
X356372Y199758D01*
X356557Y199906D01*
X356742Y200018D01*
X356927Y200129D01*
X357298Y200295D01*
X357649Y200406D01*
X357964Y200462D01*
X358094Y200499D01*
X358205D01*
X358298Y200517D01*
X361057D01*
X361223Y200499D01*
D02*
G37*
G36*
X290909Y220480D02*
X291280Y220388D01*
X291595Y220277D01*
X291872Y220129D01*
X292094Y219980D01*
X292243Y219869D01*
X292354Y219777D01*
X292391Y219740D01*
X292650Y219443D01*
X292835Y219129D01*
X292965Y218814D01*
X293057Y218518D01*
X293113Y218277D01*
X293131Y218073D01*
X293150Y217999D01*
Y217944D01*
Y217907D01*
Y217888D01*
Y212629D01*
X293113Y212241D01*
X293039Y211870D01*
X292909Y211555D01*
X292761Y211278D01*
X292631Y211055D01*
X292502Y210907D01*
X292428Y210796D01*
X292391Y210759D01*
X292094Y210500D01*
X291761Y210315D01*
X291465Y210185D01*
X291169Y210093D01*
X290909Y210037D01*
X290706Y210019D01*
X290632Y210000D01*
X288428D01*
X288243Y210019D01*
X288113Y210074D01*
X288021Y210167D01*
X287965Y210259D01*
X287910Y210352D01*
X287891Y210444D01*
Y210500D01*
Y210518D01*
X287910Y210704D01*
X287965Y210833D01*
X288058Y210926D01*
X288150Y210981D01*
X288262Y211037D01*
X288336Y211055D01*
X290521D01*
X290761Y211074D01*
X290984Y211129D01*
X291169Y211204D01*
X291335Y211278D01*
X291465Y211352D01*
X291558Y211426D01*
X291632Y211481D01*
X291650Y211500D01*
X291798Y211685D01*
X291909Y211870D01*
X291983Y212055D01*
X292039Y212241D01*
X292076Y212389D01*
X292094Y212518D01*
Y212592D01*
Y212629D01*
Y217869D01*
X292076Y218110D01*
X292020Y218333D01*
X291946Y218518D01*
X291872Y218684D01*
X291798Y218814D01*
X291724Y218925D01*
X291669Y218981D01*
X291650Y218999D01*
X291465Y219147D01*
X291280Y219258D01*
X291095Y219351D01*
X290909Y219406D01*
X290761Y219443D01*
X290632Y219462D01*
X288428D01*
X288243Y219480D01*
X288113Y219536D01*
X288021Y219629D01*
X287965Y219721D01*
X287910Y219814D01*
X287891Y219906D01*
Y219962D01*
Y219980D01*
X287910Y220166D01*
X287965Y220295D01*
X288058Y220388D01*
X288150Y220443D01*
X288262Y220499D01*
X288336Y220517D01*
X290521D01*
X290909Y220480D01*
D02*
G37*
G36*
X350817Y200499D02*
X351095Y200443D01*
X351354Y200351D01*
X351613Y200221D01*
X351835Y200073D01*
X352039Y199925D01*
X352243Y199758D01*
X352428Y199573D01*
X352576Y199406D01*
X352724Y199221D01*
X352835Y199073D01*
X352928Y198925D01*
X353020Y198795D01*
X353076Y198703D01*
X353094Y198647D01*
X353113Y198629D01*
X353150Y198481D01*
Y198425D01*
Y198407D01*
X353131Y198240D01*
X353076Y198110D01*
X352983Y198018D01*
X352891Y197962D01*
X352798Y197925D01*
X352705Y197888D01*
X352631D01*
X352520Y197907D01*
X352428Y197925D01*
X352298Y198018D01*
X352206Y198110D01*
X352187Y198129D01*
Y198147D01*
X352039Y198388D01*
X351891Y198573D01*
X351761Y198758D01*
X351613Y198906D01*
X351465Y199036D01*
X351335Y199147D01*
X351206Y199221D01*
X351076Y199295D01*
X350854Y199388D01*
X350687Y199443D01*
X350576Y199462D01*
X350539D01*
X350298Y199443D01*
X350076Y199388D01*
X349891Y199314D01*
X349724Y199240D01*
X349595Y199147D01*
X349484Y199073D01*
X349428Y199018D01*
X349410Y198999D01*
X349261Y198814D01*
X349150Y198629D01*
X349058Y198444D01*
X349002Y198277D01*
X348965Y198110D01*
X348947Y197999D01*
Y197925D01*
Y197888D01*
X348965Y197721D01*
X348984Y197573D01*
X349021Y197425D01*
X349076Y197295D01*
X349132Y197184D01*
X349169Y197092D01*
X349187Y197036D01*
X349206Y197018D01*
X353076Y190815D01*
X353113Y190722D01*
X353131Y190611D01*
X353150Y190555D01*
Y190518D01*
X353131Y190352D01*
X353076Y190222D01*
X352983Y190130D01*
X352891Y190074D01*
X352798Y190037D01*
X352705Y190000D01*
X348428D01*
X348243Y190019D01*
X348113Y190074D01*
X348021Y190167D01*
X347965Y190259D01*
X347910Y190352D01*
X347891Y190444D01*
Y190500D01*
Y190518D01*
X347910Y190704D01*
X347965Y190833D01*
X348058Y190926D01*
X348150Y190981D01*
X348261Y191037D01*
X348336Y191055D01*
X351687D01*
X348373Y196370D01*
X348206Y196647D01*
X348095Y196925D01*
X348002Y197184D01*
X347947Y197407D01*
X347910Y197610D01*
X347891Y197759D01*
Y197851D01*
Y197888D01*
X347928Y198277D01*
X348021Y198629D01*
X348132Y198944D01*
X348280Y199221D01*
X348428Y199443D01*
X348539Y199610D01*
X348632Y199703D01*
X348669Y199740D01*
X348965Y199999D01*
X349280Y200184D01*
X349595Y200332D01*
X349891Y200425D01*
X350132Y200480D01*
X350335Y200499D01*
X350410Y200517D01*
X350521D01*
X350817Y200499D01*
D02*
G37*
G36*
X369648Y180499D02*
X369778Y180443D01*
X369870Y180351D01*
X369926Y180258D01*
X369963Y180147D01*
X370000Y180073D01*
Y179999D01*
Y179980D01*
X369981Y179814D01*
X369926Y179684D01*
X369833Y179592D01*
X369741Y179536D01*
X369648Y179499D01*
X369556Y179462D01*
X367371D01*
Y170518D01*
X367352Y170352D01*
X367297Y170222D01*
X367204Y170130D01*
X367111Y170074D01*
X367019Y170037D01*
X366926Y170000D01*
X366852D01*
X366667Y170019D01*
X366537Y170074D01*
X366445Y170167D01*
X366389Y170259D01*
X366334Y170352D01*
X366315Y170444D01*
Y170500D01*
Y170518D01*
Y179462D01*
X364223D01*
X364038Y179480D01*
X363908Y179536D01*
X363815Y179629D01*
X363760Y179721D01*
X363704Y179814D01*
X363686Y179906D01*
Y179962D01*
Y179980D01*
X363704Y180166D01*
X363760Y180295D01*
X363853Y180388D01*
X363945Y180443D01*
X364056Y180499D01*
X364130Y180517D01*
X369482D01*
X369648Y180499D01*
D02*
G37*
G36*
X350650Y160499D02*
X350780Y160462D01*
X350854Y160388D01*
X350928Y160332D01*
X350984Y160258D01*
X351021Y160184D01*
X351039Y160147D01*
Y160129D01*
X353150Y152778D01*
Y152685D01*
Y152648D01*
Y152629D01*
X353131Y152463D01*
X353076Y152333D01*
X352983Y152240D01*
X352891Y152185D01*
X352798Y152148D01*
X352705Y152111D01*
X349465D01*
Y150518D01*
X349447Y150352D01*
X349391Y150222D01*
X349299Y150130D01*
X349206Y150074D01*
X349113Y150037D01*
X349021Y150000D01*
X348947D01*
X348761Y150019D01*
X348632Y150074D01*
X348539Y150167D01*
X348484Y150259D01*
X348428Y150352D01*
X348410Y150444D01*
Y150500D01*
Y150518D01*
Y152111D01*
X347373D01*
X347188Y152129D01*
X347058Y152185D01*
X346965Y152277D01*
X346910Y152370D01*
X346854Y152463D01*
X346836Y152555D01*
Y152611D01*
Y152629D01*
X346854Y152815D01*
X346910Y152944D01*
X347002Y153037D01*
X347095Y153092D01*
X347206Y153148D01*
X347280Y153166D01*
X348410D01*
Y154740D01*
X348428Y154925D01*
X348484Y155055D01*
X348576Y155148D01*
X348669Y155203D01*
X348780Y155259D01*
X348854Y155277D01*
X348947D01*
X349113Y155259D01*
X349243Y155203D01*
X349336Y155111D01*
X349391Y155018D01*
X349428Y154907D01*
X349465Y154833D01*
Y154759D01*
Y154740D01*
Y153166D01*
X351928D01*
X350021Y159832D01*
X350002Y159943D01*
Y159962D01*
Y159980D01*
X350021Y160166D01*
X350076Y160295D01*
X350169Y160388D01*
X350261Y160443D01*
X350354Y160499D01*
X350447Y160517D01*
X350521D01*
X350650Y160499D01*
D02*
G37*
G36*
X369648D02*
X369778Y160443D01*
X369870Y160351D01*
X369926Y160258D01*
X369963Y160147D01*
X370000Y160073D01*
Y159999D01*
Y159980D01*
X369981Y159814D01*
X369926Y159684D01*
X369833Y159592D01*
X369741Y159536D01*
X369648Y159499D01*
X369556Y159462D01*
X367371D01*
Y150518D01*
X367352Y150352D01*
X367297Y150222D01*
X367204Y150130D01*
X367111Y150074D01*
X367019Y150037D01*
X366926Y150000D01*
X366852D01*
X366667Y150019D01*
X366537Y150074D01*
X366445Y150167D01*
X366389Y150259D01*
X366334Y150352D01*
X366315Y150444D01*
Y150500D01*
Y150518D01*
Y159462D01*
X364223D01*
X364038Y159480D01*
X363908Y159536D01*
X363815Y159629D01*
X363760Y159721D01*
X363704Y159814D01*
X363686Y159906D01*
Y159962D01*
Y159980D01*
X363704Y160166D01*
X363760Y160295D01*
X363853Y160388D01*
X363945Y160443D01*
X364056Y160499D01*
X364130Y160517D01*
X369482D01*
X369648Y160499D01*
D02*
G37*
G36*
X361223Y180499D02*
X361353Y180443D01*
X361445Y180351D01*
X361501Y180258D01*
X361538Y180147D01*
X361575Y180073D01*
Y179999D01*
Y179980D01*
Y170518D01*
X361557Y170352D01*
X361501Y170222D01*
X361408Y170130D01*
X361316Y170074D01*
X361223Y170037D01*
X361131Y170000D01*
X361057D01*
X360871Y170019D01*
X360742Y170074D01*
X360649Y170167D01*
X360594Y170259D01*
X360538Y170352D01*
X360519Y170444D01*
Y170500D01*
Y170518D01*
Y174203D01*
X358427D01*
X358168Y174222D01*
X357927Y174240D01*
X357483Y174333D01*
X357094Y174481D01*
X356761Y174648D01*
X356501Y174796D01*
X356298Y174944D01*
X356242Y175000D01*
X356187Y175037D01*
X356168Y175074D01*
X356150D01*
X356002Y175240D01*
X355853Y175425D01*
X355631Y175796D01*
X355483Y176185D01*
X355372Y176536D01*
X355298Y176870D01*
X355279Y176999D01*
Y177110D01*
X355261Y177222D01*
Y177295D01*
Y177333D01*
Y177351D01*
X355279Y177592D01*
X355298Y177833D01*
X355409Y178258D01*
X355557Y178647D01*
X355724Y178962D01*
X355890Y179221D01*
X355964Y179332D01*
X356039Y179425D01*
X356094Y179499D01*
X356150Y179555D01*
X356168Y179573D01*
X356187Y179592D01*
X356372Y179758D01*
X356557Y179906D01*
X356742Y180018D01*
X356927Y180129D01*
X357298Y180295D01*
X357649Y180406D01*
X357964Y180462D01*
X358094Y180499D01*
X358205D01*
X358298Y180517D01*
X361057D01*
X361223Y180499D01*
D02*
G37*
G36*
X352798D02*
X352928Y180443D01*
X353020Y180351D01*
X353076Y180258D01*
X353113Y180147D01*
X353150Y180073D01*
Y179999D01*
Y179980D01*
X353131Y179814D01*
X353076Y179684D01*
X352983Y179592D01*
X352891Y179536D01*
X352798Y179499D01*
X352705Y179462D01*
X350539D01*
X350298Y179443D01*
X350076Y179388D01*
X349891Y179314D01*
X349724Y179240D01*
X349595Y179147D01*
X349484Y179073D01*
X349428Y179018D01*
X349410Y178999D01*
X349261Y178814D01*
X349150Y178629D01*
X349058Y178444D01*
X349002Y178277D01*
X348965Y178110D01*
X348947Y177999D01*
Y177925D01*
Y177888D01*
X348965Y177647D01*
X349021Y177425D01*
X349095Y177240D01*
X349169Y177073D01*
X349261Y176944D01*
X349336Y176851D01*
X349391Y176777D01*
X349410Y176758D01*
X349595Y176610D01*
X349780Y176499D01*
X349965Y176425D01*
X350150Y176370D01*
X350298Y176333D01*
X350428Y176314D01*
X351595D01*
X351761Y176296D01*
X351891Y176240D01*
X351983Y176147D01*
X352039Y176055D01*
X352076Y175944D01*
X352113Y175870D01*
Y175796D01*
Y175777D01*
X352094Y175611D01*
X352039Y175481D01*
X351946Y175388D01*
X351854Y175333D01*
X351761Y175296D01*
X351669Y175259D01*
X350539D01*
X350298Y175240D01*
X350095Y175185D01*
X349910Y175111D01*
X349743Y175037D01*
X349613Y174944D01*
X349502Y174870D01*
X349447Y174814D01*
X349428Y174796D01*
X349261Y174611D01*
X349150Y174426D01*
X349058Y174240D01*
X349002Y174055D01*
X348965Y173907D01*
X348947Y173777D01*
Y173703D01*
Y173666D01*
Y172629D01*
X348965Y172389D01*
X349021Y172166D01*
X349095Y171981D01*
X349169Y171815D01*
X349261Y171685D01*
X349336Y171592D01*
X349391Y171518D01*
X349410Y171500D01*
X349595Y171352D01*
X349780Y171241D01*
X349965Y171166D01*
X350150Y171111D01*
X350298Y171074D01*
X350428Y171055D01*
X352631D01*
X352798Y171037D01*
X352928Y170981D01*
X353020Y170889D01*
X353076Y170796D01*
X353113Y170685D01*
X353150Y170611D01*
Y170537D01*
Y170518D01*
X353131Y170352D01*
X353076Y170222D01*
X352983Y170130D01*
X352891Y170074D01*
X352798Y170037D01*
X352705Y170000D01*
X350521D01*
X350132Y170037D01*
X349780Y170111D01*
X349465Y170241D01*
X349187Y170389D01*
X348965Y170518D01*
X348798Y170648D01*
X348706Y170722D01*
X348669Y170759D01*
X348410Y171055D01*
X348224Y171389D01*
X348076Y171685D01*
X347984Y171981D01*
X347928Y172241D01*
X347910Y172444D01*
X347891Y172518D01*
Y172574D01*
Y172611D01*
Y172629D01*
Y173666D01*
X347910Y173907D01*
X347928Y174129D01*
X347984Y174351D01*
X348058Y174555D01*
X348224Y174907D01*
X348410Y175222D01*
X348613Y175462D01*
X348780Y175629D01*
X348854Y175703D01*
X348910Y175740D01*
X348928Y175777D01*
X348947D01*
X348761Y175925D01*
X348595Y176092D01*
X348465Y176277D01*
X348336Y176444D01*
X348224Y176629D01*
X348150Y176796D01*
X348021Y177129D01*
X347947Y177425D01*
X347928Y177555D01*
X347910Y177666D01*
X347891Y177758D01*
Y177833D01*
Y177869D01*
Y177888D01*
X347928Y178277D01*
X348021Y178629D01*
X348132Y178944D01*
X348280Y179221D01*
X348428Y179443D01*
X348539Y179610D01*
X348632Y179703D01*
X348669Y179740D01*
X348965Y179999D01*
X349280Y180184D01*
X349595Y180332D01*
X349891Y180425D01*
X350132Y180480D01*
X350335Y180499D01*
X350410Y180517D01*
X352631D01*
X352798Y180499D01*
D02*
G37*
G36*
X250000Y225000D02*
X190000D01*
Y245000D01*
X250000D01*
Y225000D01*
D02*
G37*
G36*
X380000Y225000D02*
X330000D01*
Y245000D01*
X380000D01*
Y225000D01*
D02*
G37*
G36*
X330000D02*
X260000D01*
Y245000D01*
X330000D01*
Y225000D01*
D02*
G37*
G36*
X190000Y225000D02*
X135000D01*
Y245000D01*
X190000D01*
Y225000D01*
D02*
G37*
G36*
X350687Y220480D02*
X350817Y220425D01*
X350909Y220351D01*
X350928Y220332D01*
X350946Y220314D01*
X353002Y218258D01*
X353094Y218129D01*
X353131Y218018D01*
X353150Y217925D01*
Y217907D01*
Y217888D01*
X353131Y217703D01*
X353076Y217573D01*
X352983Y217481D01*
X352891Y217425D01*
X352798Y217388D01*
X352705Y217351D01*
X352631D01*
X352483Y217370D01*
X352354Y217425D01*
X352280Y217481D01*
X352261Y217499D01*
X351039Y218721D01*
Y210518D01*
X351021Y210352D01*
X350965Y210222D01*
X350872Y210130D01*
X350780Y210074D01*
X350687Y210037D01*
X350595Y210000D01*
X350521D01*
X350335Y210019D01*
X350206Y210074D01*
X350113Y210167D01*
X350058Y210259D01*
X350002Y210352D01*
X349984Y210444D01*
Y210500D01*
Y210518D01*
Y219980D01*
X350002Y220166D01*
X350058Y220295D01*
X350150Y220388D01*
X350243Y220443D01*
X350354Y220499D01*
X350428Y220517D01*
X350595D01*
X350687Y220480D01*
D02*
G37*
G36*
X307759D02*
X308130Y220388D01*
X308445Y220277D01*
X308722Y220129D01*
X308945Y219980D01*
X309093Y219869D01*
X309204Y219777D01*
X309241Y219740D01*
X309500Y219443D01*
X309685Y219129D01*
X309815Y218814D01*
X309907Y218518D01*
X309963Y218277D01*
X309981Y218073D01*
X310000Y217999D01*
Y217944D01*
Y217907D01*
Y217888D01*
X309981Y217592D01*
X309944Y217333D01*
X309870Y217073D01*
X309778Y216851D01*
X309667Y216629D01*
X309556Y216444D01*
X309426Y216277D01*
X309278Y216110D01*
X309148Y215981D01*
X309019Y215870D01*
X308796Y215685D01*
X308704Y215629D01*
X308630Y215592D01*
X308593Y215555D01*
X308574D01*
X305630Y214037D01*
X305482Y213944D01*
X305334Y213851D01*
X305112Y213629D01*
X304963Y213389D01*
X304852Y213166D01*
X304778Y212963D01*
X304760Y212796D01*
X304741Y212666D01*
Y212648D01*
Y212629D01*
X304760Y212389D01*
X304815Y212166D01*
X304889Y211981D01*
X304963Y211815D01*
X305056Y211685D01*
X305130Y211592D01*
X305186Y211518D01*
X305204Y211500D01*
X305389Y211352D01*
X305574Y211241D01*
X305760Y211166D01*
X305945Y211111D01*
X306093Y211074D01*
X306223Y211055D01*
X306334D01*
X306611Y211074D01*
X306871Y211092D01*
X307111Y211129D01*
X307315Y211166D01*
X307482Y211204D01*
X307611Y211241D01*
X307685Y211278D01*
X307722D01*
X308074Y211444D01*
X308371Y211574D01*
X308630Y211703D01*
X308834Y211815D01*
X308982Y211889D01*
X309093Y211944D01*
X309167Y211981D01*
X309185Y212000D01*
X309296Y212055D01*
X309389Y212074D01*
X309463Y212092D01*
X309482D01*
X309630Y212074D01*
X309741Y212018D01*
X309833Y211944D01*
X309852Y211926D01*
X309944Y211815D01*
X309981Y211703D01*
X310000Y211611D01*
Y211592D01*
Y211574D01*
X309981Y211481D01*
X309963Y211407D01*
X309889Y211259D01*
X309815Y211185D01*
X309778Y211148D01*
X309500Y210944D01*
X309204Y210778D01*
X308908Y210611D01*
X308611Y210481D01*
X308315Y210370D01*
X308037Y210278D01*
X307500Y210148D01*
X307241Y210093D01*
X307019Y210056D01*
X306834Y210037D01*
X306667Y210019D01*
X306519Y210000D01*
X306334D01*
X305945Y210037D01*
X305574Y210111D01*
X305260Y210241D01*
X304982Y210389D01*
X304760Y210518D01*
X304593Y210648D01*
X304501Y210722D01*
X304464Y210759D01*
X304204Y211055D01*
X304019Y211389D01*
X303871Y211685D01*
X303778Y211981D01*
X303723Y212241D01*
X303704Y212444D01*
X303686Y212518D01*
Y212574D01*
Y212611D01*
Y212629D01*
X303704Y212926D01*
X303741Y213185D01*
X303815Y213444D01*
X303908Y213666D01*
X304019Y213870D01*
X304149Y214074D01*
X304278Y214240D01*
X304408Y214388D01*
X304538Y214537D01*
X304667Y214648D01*
X304908Y214814D01*
X305000Y214888D01*
X305075Y214925D01*
X305112Y214962D01*
X305130D01*
X308093Y216481D01*
X308241Y216573D01*
X308371Y216666D01*
X308593Y216888D01*
X308741Y217129D01*
X308834Y217351D01*
X308908Y217555D01*
X308926Y217740D01*
X308945Y217851D01*
Y217869D01*
Y217888D01*
X308926Y218129D01*
X308871Y218333D01*
X308796Y218518D01*
X308722Y218684D01*
X308648Y218814D01*
X308574Y218925D01*
X308519Y218981D01*
X308500Y218999D01*
X308315Y219147D01*
X308130Y219258D01*
X307945Y219351D01*
X307759Y219406D01*
X307611Y219443D01*
X307482Y219462D01*
X307371D01*
X306926Y219443D01*
X306500Y219388D01*
X306093Y219314D01*
X305723Y219240D01*
X305408Y219147D01*
X305278Y219110D01*
X305167Y219073D01*
X305075Y219036D01*
X305019Y219018D01*
X304982Y218999D01*
X304963D01*
X304871Y218962D01*
X304797Y218944D01*
X304741D01*
X304593Y218962D01*
X304482Y219018D01*
X304408Y219073D01*
X304389Y219092D01*
X304297Y219221D01*
X304241Y219332D01*
X304223Y219425D01*
Y219462D01*
X304241Y219573D01*
X304278Y219666D01*
X304371Y219814D01*
X304482Y219906D01*
X304519Y219943D01*
X304538D01*
X304723Y220036D01*
X304945Y220129D01*
X305389Y220277D01*
X305871Y220369D01*
X306315Y220443D01*
X306537Y220462D01*
X306741Y220480D01*
X306908Y220499D01*
X307074Y220517D01*
X307371D01*
X307759Y220480D01*
D02*
G37*
G36*
X301223Y220499D02*
X301353Y220443D01*
X301445Y220351D01*
X301501Y220258D01*
X301538Y220147D01*
X301575Y220073D01*
Y219999D01*
Y219980D01*
Y210518D01*
X301556Y210352D01*
X301501Y210222D01*
X301408Y210130D01*
X301316Y210074D01*
X301223Y210037D01*
X301131Y210000D01*
X301056D01*
X300871Y210019D01*
X300742Y210074D01*
X300649Y210167D01*
X300594Y210259D01*
X300538Y210352D01*
X300520Y210444D01*
Y210500D01*
Y210518D01*
Y214203D01*
X298223D01*
X296279Y210278D01*
X296224Y210185D01*
X296150Y210111D01*
X296057Y210074D01*
X295983Y210037D01*
X295909Y210019D01*
X295853Y210000D01*
X295798D01*
X295650Y210019D01*
X295539Y210074D01*
X295464Y210130D01*
X295427Y210148D01*
X295335Y210278D01*
X295279Y210389D01*
X295261Y210481D01*
Y210518D01*
X295279Y210611D01*
X295298Y210685D01*
X295316Y210741D01*
X295335Y210759D01*
X297168Y214426D01*
X296835Y214592D01*
X296538Y214777D01*
X296279Y214981D01*
X296057Y215203D01*
X295872Y215444D01*
X295724Y215685D01*
X295594Y215925D01*
X295501Y216166D01*
X295427Y216407D01*
X295353Y216629D01*
X295316Y216833D01*
X295298Y216999D01*
X295279Y217147D01*
X295261Y217258D01*
Y217333D01*
Y217351D01*
X295279Y217592D01*
X295298Y217833D01*
X295409Y218258D01*
X295557Y218647D01*
X295724Y218962D01*
X295890Y219221D01*
X295964Y219332D01*
X296038Y219425D01*
X296094Y219499D01*
X296150Y219555D01*
X296168Y219573D01*
X296187Y219592D01*
X296372Y219758D01*
X296557Y219906D01*
X296742Y220018D01*
X296927Y220129D01*
X297298Y220295D01*
X297649Y220406D01*
X297964Y220462D01*
X298094Y220499D01*
X298205D01*
X298298Y220517D01*
X301056D01*
X301223Y220499D01*
D02*
G37*
G36*
X369648D02*
X369778Y220443D01*
X369870Y220351D01*
X369926Y220258D01*
X369963Y220147D01*
X370000Y220073D01*
Y219999D01*
Y219980D01*
X369981Y219814D01*
X369926Y219684D01*
X369833Y219592D01*
X369741Y219536D01*
X369648Y219499D01*
X369556Y219462D01*
X367371D01*
Y210518D01*
X367352Y210352D01*
X367297Y210222D01*
X367204Y210130D01*
X367111Y210074D01*
X367019Y210037D01*
X366926Y210000D01*
X366852D01*
X366667Y210019D01*
X366537Y210074D01*
X366445Y210167D01*
X366389Y210259D01*
X366334Y210352D01*
X366315Y210444D01*
Y210500D01*
Y210518D01*
Y219462D01*
X364223D01*
X364038Y219480D01*
X363908Y219536D01*
X363815Y219629D01*
X363760Y219721D01*
X363704Y219814D01*
X363686Y219906D01*
Y219962D01*
Y219980D01*
X363704Y220166D01*
X363760Y220295D01*
X363853Y220388D01*
X363945Y220443D01*
X364056Y220499D01*
X364130Y220517D01*
X369482D01*
X369648Y220499D01*
D02*
G37*
G36*
X361223D02*
X361353Y220443D01*
X361445Y220351D01*
X361501Y220258D01*
X361538Y220147D01*
X361575Y220073D01*
Y219999D01*
Y219980D01*
Y210518D01*
X361557Y210352D01*
X361501Y210222D01*
X361408Y210130D01*
X361316Y210074D01*
X361223Y210037D01*
X361131Y210000D01*
X361057D01*
X360871Y210019D01*
X360742Y210074D01*
X360649Y210167D01*
X360594Y210259D01*
X360538Y210352D01*
X360519Y210444D01*
Y210500D01*
Y210518D01*
Y214203D01*
X358427D01*
X358168Y214222D01*
X357927Y214240D01*
X357483Y214333D01*
X357094Y214481D01*
X356761Y214648D01*
X356501Y214796D01*
X356298Y214944D01*
X356242Y215000D01*
X356187Y215037D01*
X356168Y215074D01*
X356150D01*
X356002Y215240D01*
X355853Y215425D01*
X355631Y215796D01*
X355483Y216185D01*
X355372Y216536D01*
X355298Y216870D01*
X355279Y216999D01*
Y217110D01*
X355261Y217222D01*
Y217295D01*
Y217333D01*
Y217351D01*
X355279Y217592D01*
X355298Y217833D01*
X355409Y218258D01*
X355557Y218647D01*
X355724Y218962D01*
X355890Y219221D01*
X355964Y219332D01*
X356039Y219425D01*
X356094Y219499D01*
X356150Y219555D01*
X356168Y219573D01*
X356187Y219592D01*
X356372Y219758D01*
X356557Y219906D01*
X356742Y220018D01*
X356927Y220129D01*
X357298Y220295D01*
X357649Y220406D01*
X357964Y220462D01*
X358094Y220499D01*
X358205D01*
X358298Y220517D01*
X361057D01*
X361223Y220499D01*
D02*
G37*
G36*
X369648Y120499D02*
X369778Y120443D01*
X369870Y120351D01*
X369926Y120258D01*
X369963Y120147D01*
X370000Y120073D01*
Y119999D01*
Y119980D01*
X369981Y119814D01*
X369926Y119684D01*
X369833Y119592D01*
X369741Y119536D01*
X369648Y119499D01*
X369556Y119462D01*
X367371D01*
Y110518D01*
X367352Y110352D01*
X367297Y110222D01*
X367204Y110130D01*
X367111Y110074D01*
X367019Y110037D01*
X366926Y110000D01*
X366852D01*
X366667Y110019D01*
X366537Y110074D01*
X366445Y110167D01*
X366389Y110259D01*
X366334Y110352D01*
X366315Y110444D01*
Y110500D01*
Y110518D01*
Y119462D01*
X364223D01*
X364038Y119480D01*
X363908Y119536D01*
X363815Y119629D01*
X363760Y119721D01*
X363704Y119814D01*
X363686Y119906D01*
Y119962D01*
Y119980D01*
X363704Y120166D01*
X363760Y120295D01*
X363853Y120388D01*
X363945Y120443D01*
X364056Y120499D01*
X364130Y120517D01*
X369482D01*
X369648Y120499D01*
D02*
G37*
G36*
X352798Y140499D02*
X352928Y140443D01*
X353020Y140351D01*
X353076Y140258D01*
X353113Y140147D01*
X353150Y140073D01*
Y139999D01*
Y139980D01*
Y135777D01*
X353131Y135611D01*
X353076Y135481D01*
X352983Y135388D01*
X352891Y135333D01*
X352798Y135296D01*
X352705Y135259D01*
X350521D01*
X350280Y135240D01*
X350076Y135185D01*
X349891Y135111D01*
X349724Y135036D01*
X349595Y134944D01*
X349484Y134870D01*
X349428Y134814D01*
X349410Y134796D01*
X349261Y134611D01*
X349150Y134425D01*
X349058Y134240D01*
X349002Y134055D01*
X348965Y133907D01*
X348947Y133777D01*
Y133703D01*
Y133666D01*
Y132629D01*
X348965Y132389D01*
X349021Y132166D01*
X349095Y131981D01*
X349169Y131815D01*
X349261Y131685D01*
X349336Y131592D01*
X349391Y131518D01*
X349410Y131500D01*
X349595Y131352D01*
X349780Y131241D01*
X349965Y131166D01*
X350132Y131111D01*
X350298Y131074D01*
X350410Y131055D01*
X352631D01*
X352798Y131037D01*
X352928Y130981D01*
X353020Y130889D01*
X353076Y130796D01*
X353113Y130685D01*
X353150Y130611D01*
Y130537D01*
Y130519D01*
X353131Y130352D01*
X353076Y130222D01*
X352983Y130130D01*
X352891Y130074D01*
X352798Y130037D01*
X352705Y130000D01*
X350521D01*
X350132Y130037D01*
X349780Y130111D01*
X349465Y130241D01*
X349187Y130389D01*
X348965Y130519D01*
X348798Y130648D01*
X348706Y130722D01*
X348669Y130759D01*
X348410Y131055D01*
X348224Y131389D01*
X348076Y131685D01*
X347984Y131981D01*
X347928Y132240D01*
X347910Y132444D01*
X347891Y132518D01*
Y132574D01*
Y132611D01*
Y132629D01*
Y133666D01*
X347928Y134055D01*
X348021Y134425D01*
X348132Y134740D01*
X348280Y135018D01*
X348428Y135240D01*
X348539Y135407D01*
X348632Y135499D01*
X348669Y135536D01*
X348965Y135796D01*
X349280Y135981D01*
X349595Y136129D01*
X349873Y136222D01*
X350132Y136277D01*
X350335Y136296D01*
X350410Y136314D01*
X352094D01*
Y139462D01*
X348947D01*
X348761Y139480D01*
X348632Y139536D01*
X348539Y139629D01*
X348484Y139721D01*
X348428Y139814D01*
X348410Y139906D01*
Y139962D01*
Y139980D01*
X348428Y140166D01*
X348484Y140295D01*
X348576Y140388D01*
X348669Y140443D01*
X348780Y140499D01*
X348854Y140517D01*
X352631D01*
X352798Y140499D01*
D02*
G37*
G36*
X361223D02*
X361353Y140443D01*
X361445Y140351D01*
X361501Y140258D01*
X361538Y140147D01*
X361575Y140073D01*
Y139999D01*
Y139980D01*
Y130519D01*
X361557Y130352D01*
X361501Y130222D01*
X361408Y130130D01*
X361316Y130074D01*
X361223Y130037D01*
X361131Y130000D01*
X361057D01*
X360871Y130019D01*
X360742Y130074D01*
X360649Y130167D01*
X360594Y130259D01*
X360538Y130352D01*
X360519Y130444D01*
Y130500D01*
Y130519D01*
Y134203D01*
X358427D01*
X358168Y134222D01*
X357927Y134240D01*
X357483Y134333D01*
X357094Y134481D01*
X356761Y134648D01*
X356501Y134796D01*
X356298Y134944D01*
X356242Y135000D01*
X356187Y135036D01*
X356168Y135073D01*
X356150D01*
X356002Y135240D01*
X355853Y135425D01*
X355631Y135796D01*
X355483Y136185D01*
X355372Y136536D01*
X355298Y136870D01*
X355279Y136999D01*
Y137110D01*
X355261Y137221D01*
Y137296D01*
Y137333D01*
Y137351D01*
X355279Y137592D01*
X355298Y137832D01*
X355409Y138258D01*
X355557Y138647D01*
X355724Y138962D01*
X355890Y139221D01*
X355964Y139332D01*
X356039Y139425D01*
X356094Y139499D01*
X356150Y139555D01*
X356168Y139573D01*
X356187Y139592D01*
X356372Y139758D01*
X356557Y139906D01*
X356742Y140017D01*
X356927Y140129D01*
X357298Y140295D01*
X357649Y140406D01*
X357964Y140462D01*
X358094Y140499D01*
X358205D01*
X358298Y140517D01*
X361057D01*
X361223Y140499D01*
D02*
G37*
G36*
X349632Y120499D02*
X349780Y120462D01*
X349891Y120406D01*
X349928Y120388D01*
X349947D01*
X350354Y120203D01*
X350724Y119962D01*
X351058Y119721D01*
X351372Y119480D01*
X351613Y119258D01*
X351798Y119073D01*
X351872Y118999D01*
X351928Y118944D01*
X351946Y118925D01*
X351965Y118906D01*
X352169Y118647D01*
X352354Y118388D01*
X352520Y118110D01*
X352650Y117851D01*
X352761Y117573D01*
X352854Y117314D01*
X353002Y116833D01*
X353057Y116610D01*
X353094Y116407D01*
X353113Y116240D01*
X353131Y116073D01*
X353150Y115944D01*
Y115851D01*
Y115796D01*
Y115777D01*
Y112611D01*
X353113Y112222D01*
X353039Y111870D01*
X352909Y111537D01*
X352761Y111278D01*
X352631Y111055D01*
X352502Y110889D01*
X352428Y110796D01*
X352391Y110759D01*
X352094Y110500D01*
X351780Y110315D01*
X351465Y110185D01*
X351169Y110093D01*
X350909Y110037D01*
X350706Y110019D01*
X350632Y110000D01*
X350521D01*
X350132Y110037D01*
X349780Y110111D01*
X349465Y110241D01*
X349187Y110389D01*
X348965Y110518D01*
X348798Y110648D01*
X348706Y110722D01*
X348669Y110759D01*
X348410Y111055D01*
X348224Y111370D01*
X348076Y111685D01*
X347984Y111981D01*
X347928Y112240D01*
X347910Y112444D01*
X347891Y112518D01*
Y112574D01*
Y112611D01*
Y112629D01*
Y113666D01*
X347928Y114074D01*
X348002Y114425D01*
X348132Y114740D01*
X348261Y115018D01*
X348410Y115240D01*
X348539Y115407D01*
X348613Y115499D01*
X348650Y115536D01*
X348947Y115796D01*
X349261Y115981D01*
X349576Y116129D01*
X349873Y116222D01*
X350132Y116277D01*
X350335Y116296D01*
X350410Y116314D01*
X352057D01*
X351983Y116666D01*
X351891Y116999D01*
X351761Y117296D01*
X351613Y117573D01*
X351483Y117795D01*
X351372Y117981D01*
X351298Y118092D01*
X351261Y118110D01*
Y118129D01*
X351095Y118333D01*
X350928Y118518D01*
X350576Y118814D01*
X350224Y119055D01*
X349910Y119258D01*
X349632Y119388D01*
X349502Y119425D01*
X349410Y119480D01*
X349317Y119499D01*
X349261Y119517D01*
X349224Y119536D01*
X349206D01*
X349113Y119573D01*
X349058Y119629D01*
X348984Y119777D01*
X348965Y119851D01*
X348947Y119925D01*
Y119962D01*
Y119980D01*
X348965Y120166D01*
X349021Y120295D01*
X349113Y120388D01*
X349206Y120443D01*
X349317Y120499D01*
X349391Y120517D01*
X349484D01*
X349632Y120499D01*
D02*
G37*
G36*
X361223D02*
X361353Y120443D01*
X361445Y120351D01*
X361501Y120258D01*
X361538Y120147D01*
X361575Y120073D01*
Y119999D01*
Y119980D01*
Y110518D01*
X361557Y110352D01*
X361501Y110222D01*
X361408Y110130D01*
X361316Y110074D01*
X361223Y110037D01*
X361131Y110000D01*
X361057D01*
X360871Y110019D01*
X360742Y110074D01*
X360649Y110167D01*
X360594Y110259D01*
X360538Y110352D01*
X360519Y110444D01*
Y110500D01*
Y110518D01*
Y114203D01*
X358427D01*
X358168Y114222D01*
X357927Y114240D01*
X357483Y114333D01*
X357094Y114481D01*
X356761Y114648D01*
X356501Y114796D01*
X356298Y114944D01*
X356242Y115000D01*
X356187Y115036D01*
X356168Y115073D01*
X356150D01*
X356002Y115240D01*
X355853Y115425D01*
X355631Y115796D01*
X355483Y116185D01*
X355372Y116536D01*
X355298Y116870D01*
X355279Y116999D01*
Y117110D01*
X355261Y117221D01*
Y117296D01*
Y117333D01*
Y117351D01*
X355279Y117592D01*
X355298Y117832D01*
X355409Y118258D01*
X355557Y118647D01*
X355724Y118962D01*
X355890Y119221D01*
X355964Y119332D01*
X356039Y119425D01*
X356094Y119499D01*
X356150Y119555D01*
X356168Y119573D01*
X356187Y119592D01*
X356372Y119758D01*
X356557Y119906D01*
X356742Y120017D01*
X356927Y120129D01*
X357298Y120295D01*
X357649Y120406D01*
X357964Y120462D01*
X358094Y120499D01*
X358205D01*
X358298Y120517D01*
X361057D01*
X361223Y120499D01*
D02*
G37*
G36*
X309648Y200499D02*
X309778Y200443D01*
X309870Y200351D01*
X309926Y200258D01*
X309963Y200147D01*
X310000Y200073D01*
Y199999D01*
Y199980D01*
Y190518D01*
X309981Y190352D01*
X309926Y190222D01*
X309833Y190130D01*
X309741Y190074D01*
X309648Y190037D01*
X309556Y190000D01*
X306852D01*
X306611Y190019D01*
X306371Y190037D01*
X305945Y190148D01*
X305556Y190296D01*
X305241Y190463D01*
X304982Y190630D01*
X304871Y190704D01*
X304778Y190759D01*
X304704Y190833D01*
X304649Y190870D01*
X304630Y190889D01*
X304612Y190907D01*
X304445Y191092D01*
X304297Y191278D01*
X304186Y191463D01*
X304075Y191648D01*
X303908Y192018D01*
X303797Y192370D01*
X303741Y192685D01*
X303704Y192815D01*
Y192926D01*
X303686Y193018D01*
Y193092D01*
Y193129D01*
Y193148D01*
X303704Y193481D01*
X303741Y193777D01*
X303815Y194055D01*
X303927Y194333D01*
X304038Y194574D01*
X304167Y194796D01*
X304297Y194981D01*
X304426Y195166D01*
X304575Y195314D01*
X304704Y195462D01*
X304834Y195574D01*
X304945Y195666D01*
X305038Y195740D01*
X305112Y195796D01*
X305167Y195814D01*
X305186Y195833D01*
X305019Y195981D01*
X304852Y196147D01*
X304723Y196314D01*
X304612Y196499D01*
X304445Y196833D01*
X304334Y197166D01*
X304260Y197444D01*
X304241Y197573D01*
X304223Y197684D01*
X304204Y197759D01*
Y197833D01*
Y197870D01*
Y197888D01*
X304241Y198277D01*
X304334Y198647D01*
X304445Y198962D01*
X304593Y199221D01*
X304741Y199443D01*
X304852Y199610D01*
X304945Y199703D01*
X304982Y199740D01*
X305278Y199999D01*
X305593Y200184D01*
X305908Y200332D01*
X306204Y200425D01*
X306463Y200480D01*
X306667Y200499D01*
X306741Y200517D01*
X309482D01*
X309648Y200499D01*
D02*
G37*
G36*
X361223Y160499D02*
X361353Y160443D01*
X361445Y160351D01*
X361501Y160258D01*
X361538Y160147D01*
X361575Y160073D01*
Y159999D01*
Y159980D01*
Y150518D01*
X361557Y150352D01*
X361501Y150222D01*
X361408Y150130D01*
X361316Y150074D01*
X361223Y150037D01*
X361131Y150000D01*
X361057D01*
X360871Y150019D01*
X360742Y150074D01*
X360649Y150167D01*
X360594Y150259D01*
X360538Y150352D01*
X360519Y150444D01*
Y150500D01*
Y150518D01*
Y154203D01*
X358427D01*
X358168Y154222D01*
X357927Y154240D01*
X357483Y154333D01*
X357094Y154481D01*
X356761Y154648D01*
X356501Y154796D01*
X356298Y154944D01*
X356242Y155000D01*
X356187Y155036D01*
X356168Y155073D01*
X356150D01*
X356002Y155240D01*
X355853Y155425D01*
X355631Y155796D01*
X355483Y156185D01*
X355372Y156536D01*
X355298Y156870D01*
X355279Y156999D01*
Y157110D01*
X355261Y157221D01*
Y157296D01*
Y157333D01*
Y157351D01*
X355279Y157592D01*
X355298Y157832D01*
X355409Y158258D01*
X355557Y158647D01*
X355724Y158962D01*
X355890Y159221D01*
X355964Y159332D01*
X356039Y159425D01*
X356094Y159499D01*
X356150Y159555D01*
X356168Y159573D01*
X356187Y159592D01*
X356372Y159758D01*
X356557Y159906D01*
X356742Y160018D01*
X356927Y160129D01*
X357298Y160295D01*
X357649Y160406D01*
X357964Y160462D01*
X358094Y160499D01*
X358205D01*
X358298Y160517D01*
X361057D01*
X361223Y160499D01*
D02*
G37*
G36*
X369648Y140499D02*
X369778Y140443D01*
X369870Y140351D01*
X369926Y140258D01*
X369963Y140147D01*
X370000Y140073D01*
Y139999D01*
Y139980D01*
X369981Y139814D01*
X369926Y139684D01*
X369833Y139592D01*
X369741Y139536D01*
X369648Y139499D01*
X369556Y139462D01*
X367371D01*
Y130519D01*
X367352Y130352D01*
X367297Y130222D01*
X367204Y130130D01*
X367111Y130074D01*
X367019Y130037D01*
X366926Y130000D01*
X366852D01*
X366667Y130019D01*
X366537Y130074D01*
X366445Y130167D01*
X366389Y130259D01*
X366334Y130352D01*
X366315Y130444D01*
Y130500D01*
Y130519D01*
Y139462D01*
X364223D01*
X364038Y139480D01*
X363908Y139536D01*
X363815Y139629D01*
X363760Y139721D01*
X363704Y139814D01*
X363686Y139906D01*
Y139962D01*
Y139980D01*
X363704Y140166D01*
X363760Y140295D01*
X363853Y140388D01*
X363945Y140443D01*
X364056Y140499D01*
X364130Y140517D01*
X369482D01*
X369648Y140499D01*
D02*
G37*
%LPC*%
G36*
X228001Y216314D02*
X227890D01*
X227649Y216296D01*
X227446Y216240D01*
X227261Y216166D01*
X227094Y216092D01*
X226964Y215999D01*
X226853Y215925D01*
X226798Y215870D01*
X226779Y215851D01*
X226631Y215666D01*
X226520Y215481D01*
X226427Y215296D01*
X226372Y215111D01*
X226335Y214963D01*
X226316Y214833D01*
Y214759D01*
Y214722D01*
Y212629D01*
X226335Y212389D01*
X226390Y212167D01*
X226464Y211981D01*
X226538Y211815D01*
X226631Y211685D01*
X226705Y211592D01*
X226761Y211518D01*
X226779Y211500D01*
X226964Y211352D01*
X227150Y211241D01*
X227335Y211167D01*
X227501Y211111D01*
X227668Y211074D01*
X227779Y211056D01*
X227890D01*
X228131Y211074D01*
X228353Y211129D01*
X228538Y211204D01*
X228705Y211278D01*
X228834Y211352D01*
X228927Y211426D01*
X229001Y211481D01*
X229020Y211500D01*
X229168Y211685D01*
X229279Y211870D01*
X229353Y212055D01*
X229408Y212241D01*
X229445Y212389D01*
X229464Y212518D01*
Y212592D01*
Y212629D01*
Y214722D01*
X229445Y214963D01*
X229390Y215185D01*
X229316Y215370D01*
X229242Y215536D01*
X229168Y215666D01*
X229094Y215777D01*
X229038Y215833D01*
X229020Y215851D01*
X228834Y215999D01*
X228649Y216110D01*
X228464Y216203D01*
X228279Y216259D01*
X228131Y216296D01*
X228001Y216314D01*
D02*
G37*
G36*
X290150Y119462D02*
X290002D01*
X289687Y119443D01*
X289391Y119369D01*
X289132Y119277D01*
X288910Y119166D01*
X288743Y119036D01*
X288613Y118944D01*
X288521Y118869D01*
X288502Y118851D01*
X288299Y118610D01*
X288150Y118351D01*
X288039Y118110D01*
X287965Y117870D01*
X287928Y117666D01*
X287891Y117499D01*
Y117388D01*
Y117370D01*
Y117351D01*
Y113148D01*
X287910Y112833D01*
X287984Y112537D01*
X288076Y112277D01*
X288188Y112074D01*
X288317Y111889D01*
X288410Y111759D01*
X288484Y111685D01*
X288502Y111648D01*
X288743Y111444D01*
X289002Y111315D01*
X289243Y111204D01*
X289484Y111130D01*
X289687Y111093D01*
X289854Y111074D01*
X289965Y111055D01*
X290002D01*
X290317Y111074D01*
X290613Y111148D01*
X290872Y111241D01*
X291076Y111352D01*
X291261Y111463D01*
X291391Y111555D01*
X291465Y111629D01*
X291502Y111648D01*
X291706Y111889D01*
X291835Y112148D01*
X291946Y112389D01*
X292020Y112629D01*
X292057Y112833D01*
X292076Y113000D01*
X292094Y113111D01*
Y113129D01*
Y113148D01*
Y117351D01*
X292076Y117666D01*
X292002Y117962D01*
X291909Y118221D01*
X291798Y118444D01*
X291687Y118610D01*
X291595Y118740D01*
X291520Y118832D01*
X291502Y118851D01*
X291261Y119055D01*
X291002Y119203D01*
X290761Y119314D01*
X290521Y119388D01*
X290317Y119425D01*
X290150Y119462D01*
D02*
G37*
G36*
X208503Y196314D02*
X206318D01*
Y191055D01*
X208429D01*
X208577Y191074D01*
X208725Y191111D01*
X208855Y191148D01*
X208966Y191204D01*
X209040Y191259D01*
X209114Y191315D01*
X209151Y191333D01*
X209170Y191352D01*
X209262Y191481D01*
X209336Y191592D01*
X209392Y191722D01*
X209429Y191833D01*
X209448Y191944D01*
X209466Y192018D01*
Y192074D01*
Y192092D01*
Y195259D01*
X209448Y195407D01*
X209411Y195555D01*
X209373Y195685D01*
X209318Y195796D01*
X209262Y195870D01*
X209207Y195944D01*
X209188Y195981D01*
X209170Y195999D01*
X209040Y196110D01*
X208929Y196185D01*
X208799Y196240D01*
X208688Y196277D01*
X208577Y196296D01*
X208503Y196314D01*
D02*
G37*
G36*
X308945Y175259D02*
X306852D01*
X306537Y175240D01*
X306241Y175166D01*
X305982Y175074D01*
X305760Y174962D01*
X305593Y174833D01*
X305463Y174740D01*
X305371Y174666D01*
X305352Y174648D01*
X305149Y174407D01*
X305000Y174148D01*
X304889Y173907D01*
X304815Y173666D01*
X304778Y173463D01*
X304741Y173296D01*
Y173185D01*
Y173166D01*
Y173148D01*
X304760Y172833D01*
X304834Y172537D01*
X304926Y172278D01*
X305038Y172074D01*
X305167Y171889D01*
X305260Y171759D01*
X305334Y171685D01*
X305352Y171648D01*
X305593Y171444D01*
X305852Y171315D01*
X306093Y171204D01*
X306334Y171129D01*
X306537Y171092D01*
X306704Y171074D01*
X306815Y171055D01*
X308945D01*
Y175259D01*
D02*
G37*
G36*
Y179462D02*
X306852D01*
X306611Y179443D01*
X306389Y179388D01*
X306204Y179314D01*
X306038Y179240D01*
X305908Y179147D01*
X305797Y179073D01*
X305741Y179018D01*
X305723Y178999D01*
X305574Y178814D01*
X305463Y178629D01*
X305371Y178444D01*
X305315Y178277D01*
X305278Y178110D01*
X305260Y177999D01*
Y177925D01*
Y177888D01*
X305278Y177647D01*
X305334Y177425D01*
X305408Y177240D01*
X305482Y177073D01*
X305574Y176944D01*
X305649Y176851D01*
X305704Y176777D01*
X305723Y176758D01*
X305908Y176610D01*
X306093Y176499D01*
X306278Y176425D01*
X306463Y176370D01*
X306611Y176333D01*
X306741Y176314D01*
X308945D01*
Y179462D01*
D02*
G37*
G36*
X297909Y198333D02*
X296353Y193685D01*
X299446D01*
X297909Y198333D01*
D02*
G37*
G36*
X292094Y139462D02*
X289484D01*
X289243Y139444D01*
X289021Y139388D01*
X288836Y139314D01*
X288669Y139240D01*
X288539Y139147D01*
X288428Y139073D01*
X288373Y139018D01*
X288354Y138999D01*
X288206Y138814D01*
X288095Y138629D01*
X288002Y138444D01*
X287947Y138258D01*
X287910Y138110D01*
X287891Y137981D01*
Y137907D01*
Y137870D01*
Y132629D01*
X287910Y132389D01*
X287965Y132166D01*
X288039Y131981D01*
X288113Y131815D01*
X288206Y131685D01*
X288280Y131592D01*
X288336Y131518D01*
X288354Y131500D01*
X288539Y131352D01*
X288724Y131241D01*
X288910Y131166D01*
X289095Y131111D01*
X289243Y131074D01*
X289373Y131055D01*
X292094D01*
Y139462D01*
D02*
G37*
G36*
X289095Y159462D02*
X288947D01*
X288632Y159443D01*
X288336Y159369D01*
X288076Y159277D01*
X287854Y159166D01*
X287687Y159036D01*
X287558Y158944D01*
X287465Y158869D01*
X287447Y158851D01*
X287243Y158610D01*
X287095Y158351D01*
X286984Y158110D01*
X286910Y157870D01*
X286873Y157666D01*
X286836Y157499D01*
Y157388D01*
Y157370D01*
Y157351D01*
Y153148D01*
X286854Y152833D01*
X286928Y152537D01*
X287021Y152277D01*
X287132Y152074D01*
X287262Y151889D01*
X287354Y151759D01*
X287428Y151685D01*
X287447Y151648D01*
X287687Y151444D01*
X287947Y151315D01*
X288188Y151204D01*
X288428Y151130D01*
X288632Y151093D01*
X288799Y151074D01*
X288910Y151055D01*
X288947D01*
X289261Y151074D01*
X289558Y151148D01*
X289817Y151241D01*
X290021Y151352D01*
X290206Y151463D01*
X290335Y151555D01*
X290410Y151629D01*
X290446Y151648D01*
X290650Y151889D01*
X290780Y152148D01*
X290891Y152389D01*
X290965Y152629D01*
X291002Y152833D01*
X291021Y153000D01*
X291039Y153111D01*
Y153129D01*
Y153148D01*
Y157351D01*
X291021Y157666D01*
X290946Y157962D01*
X290854Y158221D01*
X290743Y158443D01*
X290632Y158610D01*
X290539Y158740D01*
X290465Y158832D01*
X290446Y158851D01*
X290206Y159055D01*
X289946Y159203D01*
X289706Y159314D01*
X289465Y159388D01*
X289261Y159425D01*
X289095Y159462D01*
D02*
G37*
G36*
X159502Y179462D02*
X159465D01*
X159298Y179443D01*
X159169Y179388D01*
X159021Y179295D01*
X158891Y179184D01*
X158780Y179055D01*
X158669Y178906D01*
X158502Y178592D01*
X158354Y178258D01*
X158317Y178110D01*
X158261Y177981D01*
X158224Y177869D01*
X158206Y177777D01*
X158188Y177721D01*
Y177703D01*
X158095Y177277D01*
X158021Y176833D01*
X157965Y176425D01*
X157928Y176055D01*
X157910Y175722D01*
X157891Y175592D01*
Y175481D01*
Y175388D01*
Y175314D01*
Y175277D01*
Y175259D01*
X157910Y174777D01*
X157928Y174314D01*
X157984Y173907D01*
X158039Y173537D01*
X158095Y173222D01*
X158113Y173111D01*
X158132Y173000D01*
X158150Y172907D01*
X158169Y172852D01*
X158188Y172815D01*
Y172796D01*
X158261Y172481D01*
X158354Y172222D01*
X158465Y171981D01*
X158558Y171796D01*
X158669Y171630D01*
X158762Y171481D01*
X158873Y171370D01*
X158984Y171278D01*
X159076Y171204D01*
X159169Y171148D01*
X159317Y171092D01*
X159428Y171055D01*
X159465D01*
X159632Y171074D01*
X159780Y171129D01*
X159909Y171222D01*
X160039Y171333D01*
X160150Y171463D01*
X160261Y171611D01*
X160446Y171926D01*
X160576Y172241D01*
X160632Y172389D01*
X160687Y172518D01*
X160724Y172629D01*
X160743Y172722D01*
X160761Y172778D01*
Y172796D01*
X160854Y173240D01*
X160928Y173666D01*
X160965Y174074D01*
X161002Y174463D01*
X161021Y174777D01*
X161039Y174925D01*
Y175037D01*
Y175129D01*
Y175203D01*
Y175240D01*
Y175259D01*
X161021Y175722D01*
X161002Y176166D01*
X160946Y176592D01*
X160891Y176962D01*
X160854Y177258D01*
X160817Y177388D01*
X160798Y177499D01*
X160780Y177592D01*
Y177647D01*
X160761Y177684D01*
Y177703D01*
X160669Y178018D01*
X160576Y178277D01*
X160483Y178518D01*
X160372Y178721D01*
X160280Y178888D01*
X160169Y179036D01*
X160058Y179147D01*
X159946Y179240D01*
X159854Y179314D01*
X159761Y179369D01*
X159613Y179443D01*
X159502Y179462D01*
D02*
G37*
G36*
X168409Y175259D02*
X166835D01*
X166594Y175240D01*
X166390Y175185D01*
X166205Y175111D01*
X166038Y175037D01*
X165909Y174944D01*
X165798Y174870D01*
X165742Y174814D01*
X165724Y174796D01*
X165576Y174611D01*
X165464Y174426D01*
X165372Y174240D01*
X165316Y174055D01*
X165279Y173907D01*
X165261Y173777D01*
Y173703D01*
Y173666D01*
Y172629D01*
X165279Y172389D01*
X165335Y172166D01*
X165409Y171981D01*
X165483Y171815D01*
X165576Y171685D01*
X165650Y171592D01*
X165705Y171518D01*
X165724Y171500D01*
X165909Y171352D01*
X166094Y171241D01*
X166279Y171166D01*
X166446Y171111D01*
X166612Y171074D01*
X166724Y171055D01*
X166835D01*
X167075Y171074D01*
X167298Y171129D01*
X167483Y171204D01*
X167649Y171278D01*
X167779Y171352D01*
X167872Y171426D01*
X167946Y171481D01*
X167964Y171500D01*
X168112Y171685D01*
X168223Y171870D01*
X168298Y172055D01*
X168353Y172241D01*
X168390Y172389D01*
X168409Y172518D01*
Y172592D01*
Y172629D01*
Y175259D01*
D02*
G37*
G36*
X166946Y199462D02*
X166835D01*
X166594Y199443D01*
X166390Y199388D01*
X166205Y199314D01*
X166038Y199240D01*
X165909Y199147D01*
X165798Y199073D01*
X165742Y199018D01*
X165724Y198999D01*
X165576Y198814D01*
X165464Y198629D01*
X165372Y198444D01*
X165316Y198258D01*
X165279Y198110D01*
X165261Y197981D01*
Y197907D01*
Y197870D01*
Y195259D01*
X166835D01*
X167075Y195277D01*
X167298Y195333D01*
X167483Y195407D01*
X167649Y195481D01*
X167779Y195555D01*
X167872Y195629D01*
X167946Y195685D01*
X167964Y195703D01*
X168112Y195888D01*
X168223Y196073D01*
X168298Y196259D01*
X168353Y196444D01*
X168390Y196592D01*
X168409Y196721D01*
Y196796D01*
Y196833D01*
Y197870D01*
X168390Y198110D01*
X168335Y198333D01*
X168260Y198518D01*
X168186Y198684D01*
X168112Y198814D01*
X168038Y198925D01*
X167983Y198981D01*
X167964Y198999D01*
X167779Y199147D01*
X167594Y199258D01*
X167409Y199351D01*
X167224Y199406D01*
X167075Y199443D01*
X166946Y199462D01*
D02*
G37*
G36*
X169057Y139462D02*
X168946D01*
X168705Y139444D01*
X168501Y139388D01*
X168316Y139314D01*
X168149Y139240D01*
X168020Y139147D01*
X167909Y139073D01*
X167853Y139018D01*
X167835Y138999D01*
X167687Y138814D01*
X167575Y138629D01*
X167483Y138444D01*
X167427Y138277D01*
X167390Y138110D01*
X167372Y137999D01*
Y137925D01*
Y137888D01*
X167390Y137647D01*
X167446Y137425D01*
X167520Y137240D01*
X167594Y137073D01*
X167687Y136944D01*
X167761Y136851D01*
X167816Y136777D01*
X167835Y136759D01*
X168020Y136610D01*
X168205Y136499D01*
X168390Y136425D01*
X168557Y136370D01*
X168723Y136333D01*
X168834Y136314D01*
X168946D01*
X169186Y136333D01*
X169408Y136388D01*
X169594Y136462D01*
X169760Y136536D01*
X169890Y136610D01*
X169982Y136685D01*
X170057Y136740D01*
X170075Y136759D01*
X170223Y136944D01*
X170334Y137129D01*
X170408Y137314D01*
X170464Y137499D01*
X170501Y137647D01*
X170520Y137777D01*
Y137851D01*
Y137888D01*
X170501Y138129D01*
X170445Y138333D01*
X170371Y138518D01*
X170297Y138684D01*
X170223Y138814D01*
X170149Y138925D01*
X170094Y138981D01*
X170075Y138999D01*
X169890Y139147D01*
X169705Y139258D01*
X169520Y139351D01*
X169335Y139406D01*
X169186Y139444D01*
X169057Y139462D01*
D02*
G37*
G36*
Y135259D02*
X168946D01*
X168705Y135240D01*
X168501Y135185D01*
X168316Y135111D01*
X168149Y135036D01*
X168020Y134944D01*
X167909Y134870D01*
X167853Y134814D01*
X167835Y134796D01*
X167687Y134611D01*
X167575Y134425D01*
X167483Y134240D01*
X167427Y134055D01*
X167390Y133907D01*
X167372Y133777D01*
Y133703D01*
Y133666D01*
Y132629D01*
X167390Y132389D01*
X167446Y132166D01*
X167520Y131981D01*
X167594Y131815D01*
X167687Y131685D01*
X167761Y131592D01*
X167816Y131518D01*
X167835Y131500D01*
X168020Y131352D01*
X168205Y131241D01*
X168390Y131166D01*
X168557Y131111D01*
X168723Y131074D01*
X168834Y131055D01*
X168946D01*
X169186Y131074D01*
X169408Y131130D01*
X169594Y131204D01*
X169760Y131278D01*
X169890Y131352D01*
X169982Y131426D01*
X170057Y131481D01*
X170075Y131500D01*
X170223Y131685D01*
X170334Y131870D01*
X170408Y132055D01*
X170464Y132240D01*
X170501Y132389D01*
X170520Y132518D01*
Y132592D01*
Y132629D01*
Y133666D01*
X170501Y133907D01*
X170445Y134129D01*
X170371Y134314D01*
X170297Y134481D01*
X170223Y134611D01*
X170149Y134722D01*
X170094Y134777D01*
X170075Y134796D01*
X169890Y134944D01*
X169705Y135055D01*
X169520Y135148D01*
X169335Y135203D01*
X169186Y135240D01*
X169057Y135259D01*
D02*
G37*
G36*
X213762Y176314D02*
X211577D01*
Y171055D01*
X213688D01*
X213836Y171074D01*
X213984Y171111D01*
X214114Y171148D01*
X214225Y171204D01*
X214299Y171259D01*
X214373Y171315D01*
X214410Y171333D01*
X214429Y171352D01*
X214521Y171481D01*
X214595Y171592D01*
X214651Y171722D01*
X214688Y171833D01*
X214706Y171944D01*
X214725Y172018D01*
Y172074D01*
Y172092D01*
Y175259D01*
X214706Y175407D01*
X214669Y175555D01*
X214632Y175685D01*
X214577Y175796D01*
X214521Y175870D01*
X214466Y175944D01*
X214447Y175981D01*
X214429Y175999D01*
X214299Y176110D01*
X214188Y176185D01*
X214058Y176240D01*
X213947Y176277D01*
X213836Y176296D01*
X213762Y176314D01*
D02*
G37*
G36*
X228001D02*
X227890D01*
X227649Y176296D01*
X227446Y176240D01*
X227261Y176166D01*
X227094Y176092D01*
X226964Y175999D01*
X226853Y175925D01*
X226798Y175870D01*
X226779Y175851D01*
X226631Y175666D01*
X226520Y175481D01*
X226427Y175296D01*
X226372Y175111D01*
X226335Y174962D01*
X226316Y174833D01*
Y174759D01*
Y174722D01*
Y172629D01*
X226335Y172389D01*
X226390Y172166D01*
X226464Y171981D01*
X226538Y171815D01*
X226631Y171685D01*
X226705Y171592D01*
X226761Y171518D01*
X226779Y171500D01*
X226964Y171352D01*
X227150Y171241D01*
X227335Y171166D01*
X227501Y171111D01*
X227668Y171074D01*
X227779Y171055D01*
X227890D01*
X228131Y171074D01*
X228353Y171129D01*
X228538Y171204D01*
X228705Y171278D01*
X228834Y171352D01*
X228927Y171426D01*
X229001Y171481D01*
X229020Y171500D01*
X229168Y171685D01*
X229279Y171870D01*
X229353Y172055D01*
X229408Y172241D01*
X229445Y172389D01*
X229464Y172518D01*
Y172592D01*
Y172629D01*
Y174722D01*
X229445Y174962D01*
X229390Y175185D01*
X229316Y175370D01*
X229242Y175536D01*
X229168Y175666D01*
X229094Y175777D01*
X229038Y175833D01*
X229020Y175851D01*
X228834Y175999D01*
X228649Y176110D01*
X228464Y176203D01*
X228279Y176259D01*
X228131Y176296D01*
X228001Y176314D01*
D02*
G37*
G36*
X158447Y219462D02*
X158410D01*
X158243Y219443D01*
X158113Y219388D01*
X157965Y219295D01*
X157836Y219184D01*
X157725Y219055D01*
X157613Y218906D01*
X157447Y218592D01*
X157299Y218258D01*
X157262Y218110D01*
X157206Y217981D01*
X157169Y217870D01*
X157150Y217777D01*
X157132Y217721D01*
Y217703D01*
X157039Y217277D01*
X156965Y216833D01*
X156910Y216425D01*
X156873Y216055D01*
X156854Y215722D01*
X156836Y215592D01*
Y215481D01*
Y215388D01*
Y215314D01*
Y215277D01*
Y215259D01*
X156854Y214777D01*
X156873Y214314D01*
X156928Y213907D01*
X156984Y213537D01*
X157039Y213222D01*
X157058Y213111D01*
X157077Y213000D01*
X157095Y212907D01*
X157114Y212852D01*
X157132Y212815D01*
Y212796D01*
X157206Y212481D01*
X157299Y212222D01*
X157410Y211981D01*
X157502Y211796D01*
X157613Y211630D01*
X157706Y211481D01*
X157817Y211370D01*
X157928Y211278D01*
X158021Y211204D01*
X158113Y211148D01*
X158261Y211092D01*
X158373Y211056D01*
X158410D01*
X158576Y211074D01*
X158724Y211129D01*
X158854Y211222D01*
X158984Y211333D01*
X159095Y211463D01*
X159206Y211611D01*
X159391Y211926D01*
X159521Y212241D01*
X159576Y212389D01*
X159632Y212518D01*
X159669Y212629D01*
X159687Y212722D01*
X159706Y212778D01*
Y212796D01*
X159798Y213240D01*
X159873Y213666D01*
X159909Y214074D01*
X159946Y214463D01*
X159965Y214777D01*
X159984Y214925D01*
Y215037D01*
Y215129D01*
Y215203D01*
Y215240D01*
Y215259D01*
X159965Y215722D01*
X159946Y216166D01*
X159891Y216592D01*
X159835Y216962D01*
X159798Y217258D01*
X159761Y217388D01*
X159743Y217499D01*
X159724Y217592D01*
Y217647D01*
X159706Y217684D01*
Y217703D01*
X159613Y218018D01*
X159521Y218277D01*
X159428Y218518D01*
X159317Y218721D01*
X159224Y218888D01*
X159113Y219036D01*
X159002Y219147D01*
X158891Y219240D01*
X158799Y219314D01*
X158706Y219369D01*
X158558Y219443D01*
X158447Y219462D01*
D02*
G37*
G36*
X360519Y199462D02*
X358427D01*
X358112Y199443D01*
X357816Y199369D01*
X357557Y199277D01*
X357335Y199166D01*
X357168Y199036D01*
X357038Y198944D01*
X356946Y198869D01*
X356927Y198851D01*
X356724Y198610D01*
X356576Y198351D01*
X356464Y198110D01*
X356390Y197870D01*
X356353Y197666D01*
X356316Y197499D01*
Y197388D01*
Y197370D01*
Y197351D01*
X356335Y197036D01*
X356409Y196740D01*
X356501Y196481D01*
X356613Y196277D01*
X356742Y196092D01*
X356835Y195962D01*
X356909Y195888D01*
X356927Y195851D01*
X357168Y195648D01*
X357427Y195518D01*
X357668Y195407D01*
X357909Y195333D01*
X358112Y195296D01*
X358279Y195277D01*
X358390Y195259D01*
X360519D01*
Y199462D01*
D02*
G37*
G36*
Y179462D02*
X358427D01*
X358112Y179443D01*
X357816Y179369D01*
X357557Y179277D01*
X357335Y179166D01*
X357168Y179036D01*
X357038Y178944D01*
X356946Y178869D01*
X356927Y178851D01*
X356724Y178610D01*
X356576Y178351D01*
X356464Y178110D01*
X356390Y177869D01*
X356353Y177666D01*
X356316Y177499D01*
Y177388D01*
Y177370D01*
Y177351D01*
X356335Y177036D01*
X356409Y176740D01*
X356501Y176481D01*
X356613Y176277D01*
X356742Y176092D01*
X356835Y175962D01*
X356909Y175888D01*
X356927Y175851D01*
X357168Y175648D01*
X357427Y175518D01*
X357668Y175407D01*
X357909Y175333D01*
X358112Y175296D01*
X358279Y175277D01*
X358390Y175259D01*
X360519D01*
Y179462D01*
D02*
G37*
G36*
X220528Y237111D02*
X220472D01*
X220398Y237092D01*
X220324Y237074D01*
X220231Y237018D01*
X220157Y236963D01*
X220083Y236870D01*
X220028Y236741D01*
X218417Y231926D01*
X216824Y236741D01*
Y236759D01*
X216806Y236796D01*
X216713Y236926D01*
X216658Y237000D01*
X216565Y237055D01*
X216454Y237092D01*
X216325Y237111D01*
X216232D01*
X216158Y237092D01*
X216047Y237037D01*
X215954Y236981D01*
X215861Y236889D01*
X215806Y236759D01*
X215788Y236574D01*
Y236555D01*
Y236518D01*
X215825Y236407D01*
X217898Y230167D01*
Y230149D01*
X217935Y230093D01*
X217972Y230038D01*
X218009Y229963D01*
X218083Y229871D01*
X218176Y229815D01*
X218287Y229760D01*
X218417Y229741D01*
X218472D01*
X218547Y229760D01*
X218620Y229797D01*
X218713Y229852D01*
X218806Y229926D01*
X218880Y230019D01*
X218954Y230167D01*
X221028Y236407D01*
Y236426D01*
Y236463D01*
X221046Y236574D01*
Y236592D01*
Y236611D01*
X221028Y236703D01*
X220991Y236833D01*
X220898Y236944D01*
X220879Y236963D01*
X220787Y237037D01*
X220676Y237092D01*
X220528Y237111D01*
D02*
G37*
G36*
X235267Y240259D02*
X235174D01*
X235100Y240240D01*
X234989Y240185D01*
X234897Y240129D01*
X234804Y240037D01*
X234748Y239907D01*
X234730Y239722D01*
Y230797D01*
X230971D01*
X230897Y230778D01*
X230786Y230723D01*
X230693Y230667D01*
X230601Y230574D01*
X230545Y230445D01*
X230527Y230260D01*
Y230241D01*
Y230186D01*
X230545Y230093D01*
X230601Y230000D01*
X230656Y229908D01*
X230749Y229815D01*
X230879Y229760D01*
X231064Y229741D01*
X235341D01*
X235434Y229778D01*
X235526Y229815D01*
X235619Y229871D01*
X235711Y229963D01*
X235767Y230093D01*
X235785Y230260D01*
Y239722D01*
Y239740D01*
Y239814D01*
X235748Y239888D01*
X235711Y240000D01*
X235656Y240092D01*
X235563Y240185D01*
X235434Y240240D01*
X235267Y240259D01*
D02*
G37*
G36*
X205788D02*
X205696D01*
X205622Y240240D01*
X205511Y240185D01*
X205418Y240129D01*
X205326Y240037D01*
X205270Y239907D01*
X205252Y239722D01*
Y231315D01*
Y231297D01*
Y231241D01*
X205215Y231186D01*
X205177Y231093D01*
X205122Y231000D01*
X205029Y230926D01*
X204900Y230834D01*
X204733Y230778D01*
X204715D01*
X204659Y230760D01*
X204566Y230723D01*
X204474Y230667D01*
X204381Y230612D01*
X204289Y230519D01*
X204233Y230408D01*
X204215Y230260D01*
Y230241D01*
Y230186D01*
X204233Y230093D01*
X204270Y230000D01*
X204344Y229908D01*
X204437Y229815D01*
X204566Y229760D01*
X204733Y229741D01*
X204844D01*
X204992Y229760D01*
X205140Y229797D01*
X205326Y229834D01*
X205529Y229908D01*
X205714Y230019D01*
X205881Y230149D01*
X205900Y230167D01*
X205955Y230223D01*
X206011Y230315D01*
X206085Y230463D01*
X206177Y230630D01*
X206233Y230815D01*
X206289Y231056D01*
X206307Y231315D01*
Y239722D01*
Y239740D01*
Y239814D01*
X206270Y239888D01*
X206233Y240000D01*
X206177Y240092D01*
X206085Y240185D01*
X205955Y240240D01*
X205788Y240259D01*
D02*
G37*
G36*
X225786Y237111D02*
X225675D01*
X225601Y237092D01*
X225398Y237074D01*
X225138Y237018D01*
X224861Y236926D01*
X224546Y236778D01*
X224231Y236592D01*
X223935Y236333D01*
X223898Y236296D01*
X223805Y236204D01*
X223694Y236037D01*
X223546Y235815D01*
X223398Y235555D01*
X223287Y235241D01*
X223194Y234870D01*
X223157Y234482D01*
Y232908D01*
X227360D01*
Y231852D01*
Y231834D01*
Y231778D01*
X227342Y231704D01*
X227323Y231593D01*
X227286Y231463D01*
X227231Y231352D01*
X227157Y231223D01*
X227064Y231093D01*
X227046Y231075D01*
X227008Y231056D01*
X226935Y231000D01*
X226860Y230945D01*
X226749Y230889D01*
X226620Y230852D01*
X226472Y230815D01*
X226323Y230797D01*
X223601D01*
X223527Y230778D01*
X223416Y230723D01*
X223324Y230667D01*
X223231Y230574D01*
X223176Y230445D01*
X223157Y230260D01*
Y230241D01*
Y230186D01*
X223176Y230093D01*
X223231Y230000D01*
X223287Y229908D01*
X223379Y229815D01*
X223509Y229760D01*
X223694Y229741D01*
X226360D01*
X226472Y229760D01*
X226638Y229778D01*
X226842Y229815D01*
X227083Y229889D01*
X227323Y230000D01*
X227583Y230130D01*
X227823Y230334D01*
X227842Y230371D01*
X227916Y230445D01*
X228008Y230574D01*
X228120Y230760D01*
X228231Y230963D01*
X228323Y231223D01*
X228397Y231519D01*
X228416Y231834D01*
Y234463D01*
Y234482D01*
Y234519D01*
Y234574D01*
X228397Y234648D01*
X228379Y234852D01*
X228323Y235111D01*
X228231Y235407D01*
X228101Y235722D01*
X227916Y236037D01*
X227657Y236333D01*
X227620Y236370D01*
X227509Y236463D01*
X227360Y236574D01*
X227138Y236722D01*
X226860Y236870D01*
X226546Y236981D01*
X226175Y237074D01*
X225786Y237111D01*
D02*
G37*
G36*
X211047D02*
X210936D01*
X210862Y237092D01*
X210658Y237074D01*
X210399Y237018D01*
X210121Y236926D01*
X209807Y236778D01*
X209492Y236592D01*
X209196Y236333D01*
X209158Y236296D01*
X209066Y236204D01*
X208955Y236037D01*
X208807Y235815D01*
X208659Y235555D01*
X208547Y235241D01*
X208455Y234870D01*
X208418Y234482D01*
Y232908D01*
X212621D01*
Y231852D01*
Y231834D01*
Y231778D01*
X212603Y231704D01*
X212584Y231593D01*
X212547Y231463D01*
X212491Y231352D01*
X212418Y231223D01*
X212325Y231093D01*
X212306Y231075D01*
X212269Y231056D01*
X212195Y231000D01*
X212121Y230945D01*
X212010Y230889D01*
X211880Y230852D01*
X211732Y230815D01*
X211584Y230797D01*
X208862D01*
X208788Y230778D01*
X208677Y230723D01*
X208584Y230667D01*
X208492Y230574D01*
X208436Y230445D01*
X208418Y230260D01*
Y230241D01*
Y230186D01*
X208436Y230093D01*
X208492Y230000D01*
X208547Y229908D01*
X208640Y229815D01*
X208770Y229760D01*
X208955Y229741D01*
X211621D01*
X211732Y229760D01*
X211899Y229778D01*
X212103Y229815D01*
X212343Y229889D01*
X212584Y230000D01*
X212843Y230130D01*
X213084Y230334D01*
X213103Y230371D01*
X213177Y230445D01*
X213269Y230574D01*
X213380Y230760D01*
X213491Y230963D01*
X213584Y231223D01*
X213658Y231519D01*
X213677Y231834D01*
Y234463D01*
Y234482D01*
Y234519D01*
Y234574D01*
X213658Y234648D01*
X213640Y234852D01*
X213584Y235111D01*
X213491Y235407D01*
X213362Y235722D01*
X213177Y236037D01*
X212917Y236333D01*
X212880Y236370D01*
X212769Y236463D01*
X212621Y236574D01*
X212399Y236722D01*
X212121Y236870D01*
X211806Y236981D01*
X211436Y237074D01*
X211047Y237111D01*
D02*
G37*
%LPD*%
G36*
X226027Y236037D02*
X226175Y236000D01*
X226360Y235944D01*
X226546Y235852D01*
X226731Y235741D01*
X226916Y235592D01*
X226935Y235574D01*
X226990Y235518D01*
X227064Y235407D01*
X227138Y235278D01*
X227212Y235111D01*
X227286Y234926D01*
X227342Y234722D01*
X227360Y234482D01*
Y233963D01*
X224212D01*
Y234482D01*
Y234519D01*
Y234593D01*
X224231Y234704D01*
X224268Y234870D01*
X224324Y235037D01*
X224416Y235222D01*
X224527Y235407D01*
X224675Y235592D01*
X224694Y235611D01*
X224750Y235667D01*
X224861Y235741D01*
X224990Y235833D01*
X225157Y235907D01*
X225342Y235981D01*
X225546Y236037D01*
X225786Y236056D01*
X225898D01*
X226027Y236037D01*
D02*
G37*
G36*
X211288D02*
X211436Y236000D01*
X211621Y235944D01*
X211806Y235852D01*
X211992Y235741D01*
X212177Y235592D01*
X212195Y235574D01*
X212251Y235518D01*
X212325Y235407D01*
X212399Y235278D01*
X212473Y235111D01*
X212547Y234926D01*
X212603Y234722D01*
X212621Y234482D01*
Y233963D01*
X209473D01*
Y234482D01*
Y234519D01*
Y234593D01*
X209492Y234704D01*
X209529Y234870D01*
X209584Y235037D01*
X209677Y235222D01*
X209788Y235407D01*
X209936Y235592D01*
X209955Y235611D01*
X210010Y235667D01*
X210121Y235741D01*
X210251Y235833D01*
X210418Y235907D01*
X210603Y235981D01*
X210807Y236037D01*
X211047Y236056D01*
X211158D01*
X211288Y236037D01*
D02*
G37*
%LPC*%
G36*
X361851Y240259D02*
X356500D01*
X356426Y240240D01*
X356315Y240185D01*
X356222Y240129D01*
X356129Y240037D01*
X356074Y239907D01*
X356055Y239722D01*
Y239703D01*
Y239648D01*
X356074Y239555D01*
X356129Y239463D01*
X356185Y239370D01*
X356278Y239277D01*
X356407Y239222D01*
X356592Y239203D01*
X358685D01*
Y230260D01*
Y230241D01*
Y230186D01*
X358703Y230093D01*
X358759Y230000D01*
X358814Y229908D01*
X358907Y229815D01*
X359037Y229760D01*
X359222Y229741D01*
X359296D01*
X359388Y229778D01*
X359481Y229815D01*
X359574Y229871D01*
X359666Y229963D01*
X359722Y230093D01*
X359740Y230260D01*
Y239203D01*
X361925D01*
X362018Y239240D01*
X362110Y239277D01*
X362203Y239333D01*
X362295Y239426D01*
X362351Y239555D01*
X362370Y239722D01*
Y239740D01*
Y239814D01*
X362333Y239888D01*
X362295Y240000D01*
X362240Y240092D01*
X362147Y240185D01*
X362018Y240240D01*
X361851Y240259D01*
D02*
G37*
G36*
X353426D02*
X350667D01*
X350574Y240240D01*
X350463D01*
X350334Y240203D01*
X350019Y240148D01*
X349667Y240037D01*
X349297Y239870D01*
X349112Y239759D01*
X348927Y239648D01*
X348741Y239499D01*
X348556Y239333D01*
X348538Y239314D01*
X348519Y239296D01*
X348464Y239240D01*
X348408Y239166D01*
X348334Y239074D01*
X348260Y238962D01*
X348093Y238703D01*
X347927Y238389D01*
X347779Y238000D01*
X347667Y237574D01*
X347649Y237333D01*
X347630Y237092D01*
Y237074D01*
Y237037D01*
Y236963D01*
X347649Y236852D01*
Y236740D01*
X347667Y236611D01*
X347742Y236278D01*
X347853Y235926D01*
X348001Y235537D01*
X348223Y235167D01*
X348371Y234981D01*
X348519Y234815D01*
X348538D01*
X348556Y234778D01*
X348612Y234741D01*
X348667Y234685D01*
X348871Y234537D01*
X349130Y234389D01*
X349464Y234222D01*
X349852Y234074D01*
X350297Y233982D01*
X350537Y233963D01*
X350797Y233944D01*
X352889D01*
Y230260D01*
Y230241D01*
Y230186D01*
X352908Y230093D01*
X352963Y230000D01*
X353019Y229908D01*
X353111Y229815D01*
X353241Y229760D01*
X353426Y229741D01*
X353500D01*
X353593Y229778D01*
X353685Y229815D01*
X353778Y229871D01*
X353871Y229963D01*
X353926Y230093D01*
X353945Y230260D01*
Y239722D01*
Y239740D01*
Y239814D01*
X353908Y239888D01*
X353871Y240000D01*
X353815Y240092D01*
X353722Y240185D01*
X353593Y240240D01*
X353426Y240259D01*
D02*
G37*
%LPD*%
G36*
X352889Y235000D02*
X350760D01*
X350649Y235019D01*
X350482Y235037D01*
X350278Y235074D01*
X350038Y235148D01*
X349797Y235259D01*
X349538Y235389D01*
X349297Y235592D01*
X349278Y235630D01*
X349204Y235704D01*
X349112Y235833D01*
X348982Y236018D01*
X348871Y236222D01*
X348778Y236481D01*
X348704Y236778D01*
X348686Y237092D01*
Y237111D01*
Y237129D01*
Y237241D01*
X348723Y237407D01*
X348760Y237611D01*
X348834Y237852D01*
X348945Y238092D01*
X349093Y238351D01*
X349297Y238592D01*
X349315Y238611D01*
X349408Y238685D01*
X349538Y238777D01*
X349704Y238907D01*
X349926Y239018D01*
X350186Y239111D01*
X350482Y239185D01*
X350797Y239203D01*
X352889D01*
Y235000D01*
D02*
G37*
%LPC*%
G36*
X297111Y240259D02*
X294926D01*
X294852Y240240D01*
X294741Y240185D01*
X294648Y240129D01*
X294556Y240037D01*
X294500Y239907D01*
X294482Y239722D01*
Y239703D01*
Y239648D01*
X294500Y239555D01*
X294556Y239463D01*
X294611Y239370D01*
X294704Y239277D01*
X294833Y239222D01*
X295019Y239203D01*
X297222D01*
X297352Y239185D01*
X297500Y239148D01*
X297685Y239092D01*
X297870Y239000D01*
X298055Y238888D01*
X298240Y238740D01*
X298259Y238722D01*
X298314Y238666D01*
X298389Y238555D01*
X298463Y238426D01*
X298537Y238259D01*
X298611Y238074D01*
X298666Y237852D01*
X298685Y237611D01*
Y232371D01*
Y232334D01*
Y232260D01*
X298666Y232130D01*
X298629Y231982D01*
X298574Y231797D01*
X298500Y231611D01*
X298389Y231426D01*
X298240Y231241D01*
X298222Y231223D01*
X298148Y231167D01*
X298055Y231093D01*
X297926Y231019D01*
X297759Y230945D01*
X297574Y230871D01*
X297352Y230815D01*
X297111Y230797D01*
X294926D01*
X294852Y230778D01*
X294741Y230723D01*
X294648Y230667D01*
X294556Y230574D01*
X294500Y230445D01*
X294482Y230260D01*
Y230241D01*
Y230186D01*
X294500Y230093D01*
X294556Y230000D01*
X294611Y229908D01*
X294704Y229815D01*
X294833Y229760D01*
X295019Y229741D01*
X297222D01*
X297296Y229760D01*
X297500Y229778D01*
X297759Y229834D01*
X298055Y229926D01*
X298351Y230056D01*
X298685Y230241D01*
X298981Y230501D01*
X299018Y230537D01*
X299092Y230649D01*
X299222Y230797D01*
X299351Y231019D01*
X299499Y231297D01*
X299629Y231611D01*
X299703Y231982D01*
X299740Y232371D01*
Y237629D01*
Y237648D01*
Y237685D01*
Y237740D01*
X299722Y237815D01*
X299703Y238018D01*
X299648Y238259D01*
X299555Y238555D01*
X299426Y238870D01*
X299240Y239185D01*
X298981Y239481D01*
X298944Y239518D01*
X298833Y239611D01*
X298685Y239722D01*
X298463Y239870D01*
X298185Y240018D01*
X297870Y240129D01*
X297500Y240222D01*
X297111Y240259D01*
D02*
G37*
G36*
X291852D02*
X286501D01*
X286427Y240240D01*
X286316Y240185D01*
X286223Y240129D01*
X286131Y240037D01*
X286075Y239907D01*
X286056Y239722D01*
Y239703D01*
Y239648D01*
X286075Y239555D01*
X286131Y239463D01*
X286186Y239370D01*
X286279Y239277D01*
X286408Y239222D01*
X286593Y239203D01*
X288686D01*
Y230260D01*
Y230241D01*
Y230186D01*
X288704Y230093D01*
X288760Y230000D01*
X288815Y229908D01*
X288908Y229815D01*
X289038Y229760D01*
X289223Y229741D01*
X289297D01*
X289389Y229778D01*
X289482Y229815D01*
X289575Y229871D01*
X289667Y229963D01*
X289723Y230093D01*
X289741Y230260D01*
Y239203D01*
X291926D01*
X292019Y239240D01*
X292111Y239277D01*
X292204Y239333D01*
X292297Y239426D01*
X292352Y239555D01*
X292371Y239722D01*
Y239740D01*
Y239814D01*
X292334Y239888D01*
X292297Y240000D01*
X292241Y240092D01*
X292148Y240185D01*
X292019Y240240D01*
X291852Y240259D01*
D02*
G37*
G36*
X283427D02*
X283335D01*
X283260Y240240D01*
X283149Y240185D01*
X283057Y240129D01*
X282964Y240037D01*
X282909Y239907D01*
X282890Y239722D01*
Y230260D01*
Y230241D01*
Y230186D01*
X282909Y230093D01*
X282964Y230000D01*
X283020Y229908D01*
X283112Y229815D01*
X283242Y229760D01*
X283427Y229741D01*
X283501D01*
X283594Y229778D01*
X283686Y229815D01*
X283779Y229871D01*
X283871Y229963D01*
X283927Y230093D01*
X283946Y230260D01*
Y239722D01*
Y239740D01*
Y239814D01*
X283909Y239888D01*
X283871Y240000D01*
X283816Y240092D01*
X283723Y240185D01*
X283594Y240240D01*
X283427Y240259D01*
D02*
G37*
G36*
X316072D02*
X315979D01*
X315905Y240240D01*
X315794Y240185D01*
X315702Y240129D01*
X315609Y240037D01*
X315553Y239907D01*
X315535Y239722D01*
Y232889D01*
Y232871D01*
Y232852D01*
X315516Y232741D01*
X315498Y232574D01*
X315461Y232371D01*
X315387Y232130D01*
X315276Y231889D01*
X315146Y231630D01*
X314942Y231389D01*
X314905Y231371D01*
X314831Y231297D01*
X314702Y231204D01*
X314517Y231093D01*
X314313Y230982D01*
X314054Y230889D01*
X313757Y230815D01*
X313442Y230797D01*
X313405D01*
X313294Y230815D01*
X313128Y230834D01*
X312924Y230871D01*
X312683Y230945D01*
X312443Y231056D01*
X312183Y231186D01*
X311943Y231389D01*
X311924Y231426D01*
X311850Y231500D01*
X311758Y231630D01*
X311628Y231815D01*
X311517Y232019D01*
X311424Y232278D01*
X311350Y232574D01*
X311332Y232889D01*
Y239722D01*
Y239740D01*
Y239814D01*
X311295Y239888D01*
X311258Y240000D01*
X311202Y240092D01*
X311109Y240185D01*
X310980Y240240D01*
X310813Y240259D01*
X310721D01*
X310646Y240240D01*
X310535Y240185D01*
X310443Y240129D01*
X310350Y240037D01*
X310295Y239907D01*
X310276Y239722D01*
Y232889D01*
Y232871D01*
Y232833D01*
Y232759D01*
X310295Y232667D01*
Y232556D01*
X310332Y232426D01*
X310387Y232111D01*
X310498Y231760D01*
X310665Y231389D01*
X310776Y231204D01*
X310887Y231019D01*
X311035Y230834D01*
X311202Y230649D01*
X311220Y230630D01*
X311239Y230612D01*
X311295Y230574D01*
X311369Y230501D01*
X311461Y230445D01*
X311572Y230371D01*
X311832Y230204D01*
X312146Y230037D01*
X312535Y229889D01*
X312961Y229778D01*
X313202Y229760D01*
X313442Y229741D01*
X313572D01*
X313665Y229760D01*
X313776Y229778D01*
X313905Y229797D01*
X314220Y229852D01*
X314572Y229963D01*
X314942Y230130D01*
X315128Y230223D01*
X315313Y230352D01*
X315498Y230482D01*
X315683Y230649D01*
X315702Y230667D01*
X315720Y230686D01*
X315757Y230741D01*
X315831Y230815D01*
X315887Y230908D01*
X315961Y231019D01*
X316127Y231278D01*
X316294Y231611D01*
X316442Y231982D01*
X316553Y232408D01*
X316572Y232648D01*
X316590Y232889D01*
Y239722D01*
Y239740D01*
Y239814D01*
X316553Y239888D01*
X316516Y240000D01*
X316461Y240092D01*
X316368Y240185D01*
X316238Y240240D01*
X316072Y240259D01*
D02*
G37*
G36*
X323442D02*
X319146D01*
X319072Y240240D01*
X318960Y240185D01*
X318868Y240129D01*
X318775Y240037D01*
X318720Y239907D01*
X318701Y239722D01*
Y239703D01*
Y239648D01*
X318720Y239555D01*
X318775Y239463D01*
X318831Y239370D01*
X318923Y239277D01*
X319053Y239222D01*
X319238Y239203D01*
X322905D01*
Y236055D01*
X319146D01*
X319072Y236037D01*
X318960Y235981D01*
X318868Y235926D01*
X318775Y235833D01*
X318720Y235704D01*
X318701Y235518D01*
Y235500D01*
Y235444D01*
X318720Y235352D01*
X318775Y235259D01*
X318831Y235167D01*
X318923Y235074D01*
X319053Y235019D01*
X319238Y235000D01*
X322905D01*
Y230260D01*
Y230241D01*
Y230186D01*
X322923Y230093D01*
X322979Y230000D01*
X323034Y229908D01*
X323127Y229815D01*
X323256Y229760D01*
X323442Y229741D01*
X323516D01*
X323608Y229778D01*
X323701Y229815D01*
X323793Y229871D01*
X323886Y229963D01*
X323941Y230093D01*
X323960Y230260D01*
Y239722D01*
Y239740D01*
Y239814D01*
X323923Y239888D01*
X323886Y240000D01*
X323830Y240092D01*
X323738Y240185D01*
X323608Y240240D01*
X323442Y240259D01*
D02*
G37*
G36*
X307647D02*
X307591D01*
X307536Y240240D01*
X307462Y240222D01*
X307388Y240185D01*
X307313Y240129D01*
X307239Y240055D01*
X307165Y239944D01*
X302907Y232297D01*
Y239722D01*
Y239740D01*
Y239814D01*
X302869Y239888D01*
X302833Y240000D01*
X302777Y240092D01*
X302684Y240185D01*
X302555Y240240D01*
X302388Y240259D01*
X302295D01*
X302222Y240240D01*
X302110Y240185D01*
X302018Y240129D01*
X301925Y240037D01*
X301870Y239907D01*
X301851Y239722D01*
Y230260D01*
Y230241D01*
Y230186D01*
X301870Y230093D01*
X301925Y230000D01*
X301981Y229908D01*
X302073Y229815D01*
X302203Y229760D01*
X302388Y229741D01*
X302444D01*
X302555Y229778D01*
X302721Y229852D01*
X302796Y229908D01*
X302851Y230000D01*
X307110Y237703D01*
Y230260D01*
Y230241D01*
Y230186D01*
X307128Y230093D01*
X307184Y230000D01*
X307239Y229908D01*
X307332Y229815D01*
X307462Y229760D01*
X307647Y229741D01*
X307721D01*
X307813Y229778D01*
X307906Y229815D01*
X307999Y229871D01*
X308091Y229963D01*
X308147Y230093D01*
X308165Y230260D01*
Y239722D01*
Y239740D01*
Y239814D01*
X308128Y239888D01*
X308091Y240000D01*
X308036Y240092D01*
X307943Y240185D01*
X307813Y240240D01*
X307647Y240259D01*
D02*
G37*
G36*
X277631D02*
X277502D01*
X277409Y240240D01*
X277298D01*
X277169Y240203D01*
X276854Y240148D01*
X276502Y240037D01*
X276132Y239870D01*
X275946Y239759D01*
X275761Y239648D01*
X275576Y239499D01*
X275391Y239333D01*
X275372Y239314D01*
X275354Y239296D01*
X275298Y239240D01*
X275243Y239166D01*
X275169Y239074D01*
X275095Y238962D01*
X274928Y238703D01*
X274761Y238389D01*
X274613Y238000D01*
X274502Y237574D01*
X274484Y237333D01*
X274465Y237092D01*
Y232889D01*
Y232871D01*
Y232833D01*
Y232759D01*
X274484Y232667D01*
Y232556D01*
X274521Y232426D01*
X274576Y232111D01*
X274687Y231760D01*
X274854Y231389D01*
X274965Y231204D01*
X275076Y231019D01*
X275224Y230834D01*
X275391Y230649D01*
X275409Y230630D01*
X275428Y230612D01*
X275483Y230574D01*
X275558Y230501D01*
X275650Y230445D01*
X275761Y230371D01*
X276021Y230204D01*
X276335Y230037D01*
X276724Y229889D01*
X277150Y229778D01*
X277391Y229760D01*
X277631Y229741D01*
X277761D01*
X277854Y229760D01*
X277965Y229778D01*
X278094Y229797D01*
X278409Y229852D01*
X278761Y229963D01*
X279131Y230130D01*
X279316Y230223D01*
X279502Y230352D01*
X279687Y230482D01*
X279872Y230649D01*
X279890Y230667D01*
X279909Y230686D01*
X279946Y230741D01*
X280020Y230815D01*
X280076Y230908D01*
X280150Y231019D01*
X280316Y231278D01*
X280483Y231611D01*
X280631Y231982D01*
X280742Y232408D01*
X280761Y232648D01*
X280779Y232889D01*
Y237092D01*
Y237111D01*
Y237148D01*
Y237222D01*
X280761Y237315D01*
X280742Y237426D01*
X280724Y237555D01*
X280668Y237870D01*
X280557Y238222D01*
X280390Y238592D01*
X280298Y238777D01*
X280168Y238962D01*
X280039Y239148D01*
X279872Y239333D01*
X279853Y239351D01*
X279835Y239370D01*
X279779Y239426D01*
X279705Y239481D01*
X279613Y239555D01*
X279502Y239629D01*
X279242Y239796D01*
X278909Y239962D01*
X278539Y240111D01*
X278113Y240222D01*
X277872Y240240D01*
X277631Y240259D01*
D02*
G37*
G36*
X271836D02*
X271780D01*
X271725Y240240D01*
X271651Y240222D01*
X271576Y240185D01*
X271502Y240129D01*
X271428Y240055D01*
X271354Y239944D01*
X267096Y232297D01*
Y239722D01*
Y239740D01*
Y239814D01*
X267058Y239888D01*
X267021Y240000D01*
X266966Y240092D01*
X266873Y240185D01*
X266744Y240240D01*
X266577Y240259D01*
X266484D01*
X266410Y240240D01*
X266299Y240185D01*
X266207Y240129D01*
X266114Y240037D01*
X266059Y239907D01*
X266040Y239722D01*
Y230260D01*
Y230241D01*
Y230186D01*
X266059Y230093D01*
X266114Y230000D01*
X266170Y229908D01*
X266262Y229815D01*
X266392Y229760D01*
X266577Y229741D01*
X266633D01*
X266744Y229778D01*
X266910Y229852D01*
X266984Y229908D01*
X267040Y230000D01*
X271299Y237703D01*
Y230260D01*
Y230241D01*
Y230186D01*
X271317Y230093D01*
X271373Y230000D01*
X271428Y229908D01*
X271521Y229815D01*
X271651Y229760D01*
X271836Y229741D01*
X271910D01*
X272002Y229778D01*
X272095Y229815D01*
X272188Y229871D01*
X272280Y229963D01*
X272336Y230093D01*
X272354Y230260D01*
Y239722D01*
Y239740D01*
Y239814D01*
X272317Y239888D01*
X272280Y240000D01*
X272225Y240092D01*
X272132Y240185D01*
X272002Y240240D01*
X271836Y240259D01*
D02*
G37*
%LPD*%
G36*
X277946Y239166D02*
X278150Y239129D01*
X278391Y239055D01*
X278631Y238944D01*
X278891Y238796D01*
X279131Y238592D01*
X279150Y238574D01*
X279224Y238481D01*
X279316Y238351D01*
X279428Y238185D01*
X279539Y237963D01*
X279631Y237703D01*
X279705Y237407D01*
X279724Y237092D01*
Y232889D01*
Y232871D01*
Y232852D01*
X279705Y232741D01*
X279687Y232574D01*
X279650Y232371D01*
X279576Y232130D01*
X279465Y231889D01*
X279335Y231630D01*
X279131Y231389D01*
X279094Y231371D01*
X279020Y231297D01*
X278891Y231204D01*
X278705Y231093D01*
X278502Y230982D01*
X278242Y230889D01*
X277946Y230815D01*
X277631Y230797D01*
X277594D01*
X277483Y230815D01*
X277317Y230834D01*
X277113Y230871D01*
X276872Y230945D01*
X276632Y231056D01*
X276372Y231186D01*
X276132Y231389D01*
X276113Y231426D01*
X276039Y231500D01*
X275946Y231630D01*
X275817Y231815D01*
X275706Y232019D01*
X275613Y232278D01*
X275539Y232574D01*
X275520Y232889D01*
Y237092D01*
Y237111D01*
Y237129D01*
Y237241D01*
X275558Y237407D01*
X275595Y237611D01*
X275669Y237852D01*
X275780Y238092D01*
X275928Y238351D01*
X276132Y238592D01*
X276150Y238611D01*
X276243Y238685D01*
X276372Y238777D01*
X276539Y238907D01*
X276761Y239018D01*
X277020Y239111D01*
X277317Y239185D01*
X277631Y239203D01*
X277780D01*
X277946Y239166D01*
D02*
G37*
%LPC*%
G36*
X163556Y241842D02*
X163463D01*
X163389Y241823D01*
X163278Y241768D01*
X163185Y241712D01*
X163092Y241620D01*
X163037Y241490D01*
X163018Y241305D01*
Y238694D01*
X161371D01*
X161296Y238676D01*
X161185Y238620D01*
X161093Y238564D01*
X161000Y238472D01*
X160945Y238342D01*
X160926Y238157D01*
Y238139D01*
Y238083D01*
X160945Y237990D01*
X161000Y237898D01*
X161056Y237805D01*
X161148Y237713D01*
X161278Y237657D01*
X161463Y237639D01*
X163018D01*
Y231843D01*
Y231824D01*
Y231769D01*
X163037Y231676D01*
X163092Y231584D01*
X163148Y231491D01*
X163241Y231399D01*
X163370Y231343D01*
X163556Y231325D01*
X163629D01*
X163722Y231362D01*
X163815Y231399D01*
X163907Y231454D01*
X164000Y231547D01*
X164055Y231676D01*
X164074Y231843D01*
Y237639D01*
X164685D01*
X164778Y237676D01*
X164870Y237713D01*
X164963Y237768D01*
X165055Y237861D01*
X165111Y237990D01*
X165129Y238157D01*
Y238176D01*
Y238250D01*
X165092Y238324D01*
X165055Y238435D01*
X165000Y238527D01*
X164907Y238620D01*
X164778Y238676D01*
X164611Y238694D01*
X164074D01*
Y241305D01*
Y241323D01*
Y241397D01*
X164037Y241472D01*
X164000Y241583D01*
X163944Y241675D01*
X163852Y241768D01*
X163722Y241823D01*
X163556Y241842D01*
D02*
G37*
G36*
X174073Y238694D02*
X173962D01*
X173888Y238676D01*
X173684Y238657D01*
X173425Y238601D01*
X173147Y238509D01*
X172832Y238361D01*
X172518Y238176D01*
X172221Y237916D01*
X172184Y237879D01*
X172092Y237787D01*
X171980Y237620D01*
X171832Y237398D01*
X171684Y237120D01*
X171573Y236805D01*
X171481Y236454D01*
X171444Y236046D01*
Y233954D01*
Y233935D01*
Y233898D01*
Y233843D01*
X171462Y233769D01*
X171481Y233565D01*
X171536Y233306D01*
X171629Y233009D01*
X171777Y232713D01*
X171962Y232380D01*
X172221Y232084D01*
X172258Y232047D01*
X172351Y231973D01*
X172518Y231843D01*
X172740Y231713D01*
X173017Y231565D01*
X173332Y231436D01*
X173684Y231362D01*
X174073Y231325D01*
X174184D01*
X174258Y231343D01*
X174462Y231362D01*
X174721Y231417D01*
X175017Y231510D01*
X175313Y231639D01*
X175647Y231824D01*
X175943Y232084D01*
X175980Y232121D01*
X176054Y232232D01*
X176184Y232380D01*
X176313Y232602D01*
X176462Y232880D01*
X176591Y233195D01*
X176665Y233565D01*
X176702Y233954D01*
Y236046D01*
Y236065D01*
Y236102D01*
Y236157D01*
X176684Y236231D01*
X176665Y236435D01*
X176610Y236694D01*
X176517Y236991D01*
X176388Y237305D01*
X176202Y237620D01*
X175943Y237916D01*
X175906Y237953D01*
X175795Y238046D01*
X175647Y238157D01*
X175425Y238305D01*
X175147Y238453D01*
X174832Y238564D01*
X174462Y238657D01*
X174073Y238694D01*
D02*
G37*
G36*
X168814Y241842D02*
X168722D01*
X168647Y241823D01*
X168536Y241768D01*
X168444Y241712D01*
X168351Y241620D01*
X168296Y241490D01*
X168277Y241305D01*
Y232898D01*
Y232880D01*
Y232824D01*
X168240Y232769D01*
X168203Y232676D01*
X168148Y232584D01*
X168055Y232509D01*
X167925Y232417D01*
X167759Y232361D01*
X167740D01*
X167685Y232343D01*
X167592Y232306D01*
X167500Y232250D01*
X167407Y232195D01*
X167314Y232102D01*
X167259Y231991D01*
X167240Y231843D01*
Y231824D01*
Y231769D01*
X167259Y231676D01*
X167296Y231584D01*
X167370Y231491D01*
X167463Y231399D01*
X167592Y231343D01*
X167759Y231325D01*
X167870D01*
X168018Y231343D01*
X168166Y231380D01*
X168351Y231417D01*
X168555Y231491D01*
X168740Y231602D01*
X168907Y231732D01*
X168925Y231750D01*
X168981Y231806D01*
X169036Y231898D01*
X169110Y232047D01*
X169203Y232213D01*
X169259Y232398D01*
X169314Y232639D01*
X169333Y232898D01*
Y241305D01*
Y241323D01*
Y241397D01*
X169296Y241472D01*
X169259Y241583D01*
X169203Y241675D01*
X169110Y241768D01*
X168981Y241823D01*
X168814Y241842D01*
D02*
G37*
G36*
X157760Y238694D02*
X155519D01*
X155353Y238657D01*
X155149Y238620D01*
X154908Y238546D01*
X154668Y238435D01*
X154408Y238287D01*
X154167Y238083D01*
X154149Y238064D01*
X154075Y237972D01*
X153982Y237842D01*
X153853Y237676D01*
X153742Y237453D01*
X153649Y237194D01*
X153575Y236898D01*
X153556Y236583D01*
Y231843D01*
Y231824D01*
Y231769D01*
X153575Y231676D01*
X153631Y231584D01*
X153686Y231491D01*
X153779Y231399D01*
X153908Y231343D01*
X154094Y231325D01*
X156760D01*
X156871Y231343D01*
X157038Y231362D01*
X157241Y231399D01*
X157482Y231473D01*
X157723Y231584D01*
X157982Y231732D01*
X158223Y231936D01*
X158241Y231973D01*
X158315Y232047D01*
X158408Y232176D01*
X158519Y232361D01*
X158630Y232565D01*
X158723Y232824D01*
X158797Y233121D01*
X158815Y233435D01*
Y233454D01*
Y233528D01*
X158797Y233639D01*
X158778Y233787D01*
X158741Y233954D01*
X158704Y234121D01*
X158630Y234306D01*
X158538Y234491D01*
Y234509D01*
X158500Y234528D01*
X158482Y234583D01*
X158426Y234657D01*
X158278Y234824D01*
X158093Y235028D01*
X157834Y235213D01*
X157519Y235380D01*
X157352Y235454D01*
X157149Y235509D01*
X156945Y235528D01*
X156723Y235546D01*
X154612D01*
Y236583D01*
Y236602D01*
Y236657D01*
X154630Y236731D01*
X154649Y236842D01*
X154686Y236954D01*
X154741Y237083D01*
X154816Y237213D01*
X154927Y237324D01*
X154945Y237342D01*
X154982Y237379D01*
X155038Y237416D01*
X155130Y237491D01*
X155241Y237546D01*
X155371Y237583D01*
X155501Y237620D01*
X155667Y237639D01*
X157834D01*
X157926Y237676D01*
X158019Y237713D01*
X158130Y237768D01*
X158204Y237861D01*
X158278Y237990D01*
X158297Y238157D01*
Y238176D01*
Y238250D01*
X158260Y238324D01*
X158223Y238435D01*
X158167Y238527D01*
X158075Y238620D01*
X157945Y238676D01*
X157760Y238694D01*
D02*
G37*
G36*
X141447D02*
X141335D01*
X141262Y238676D01*
X141058Y238657D01*
X140799Y238601D01*
X140521Y238509D01*
X140206Y238361D01*
X139891Y238176D01*
X139595Y237916D01*
X139558Y237879D01*
X139465Y237787D01*
X139354Y237620D01*
X139206Y237398D01*
X139058Y237139D01*
X138947Y236824D01*
X138854Y236454D01*
X138817Y236065D01*
Y234491D01*
X143020D01*
Y233435D01*
Y233417D01*
Y233361D01*
X143002Y233287D01*
X142984Y233176D01*
X142947Y233046D01*
X142891Y232935D01*
X142817Y232806D01*
X142724Y232676D01*
X142706Y232658D01*
X142669Y232639D01*
X142595Y232584D01*
X142521Y232528D01*
X142409Y232472D01*
X142280Y232435D01*
X142132Y232398D01*
X141984Y232380D01*
X139262D01*
X139188Y232361D01*
X139076Y232306D01*
X138984Y232250D01*
X138891Y232158D01*
X138836Y232028D01*
X138817Y231843D01*
Y231824D01*
Y231769D01*
X138836Y231676D01*
X138891Y231584D01*
X138947Y231491D01*
X139039Y231399D01*
X139169Y231343D01*
X139354Y231325D01*
X142021D01*
X142132Y231343D01*
X142298Y231362D01*
X142502Y231399D01*
X142743Y231473D01*
X142984Y231584D01*
X143243Y231713D01*
X143483Y231917D01*
X143502Y231954D01*
X143576Y232028D01*
X143669Y232158D01*
X143780Y232343D01*
X143891Y232547D01*
X143983Y232806D01*
X144058Y233102D01*
X144076Y233417D01*
Y236046D01*
Y236065D01*
Y236102D01*
Y236157D01*
X144058Y236231D01*
X144039Y236435D01*
X143983Y236694D01*
X143891Y236991D01*
X143761Y237305D01*
X143576Y237620D01*
X143317Y237916D01*
X143280Y237953D01*
X143169Y238046D01*
X143020Y238157D01*
X142798Y238305D01*
X142521Y238453D01*
X142206Y238564D01*
X141835Y238657D01*
X141447Y238694D01*
D02*
G37*
G36*
X149353D02*
X146631D01*
X146557Y238676D01*
X146446Y238620D01*
X146354Y238564D01*
X146261Y238472D01*
X146205Y238342D01*
X146187Y238157D01*
Y230269D01*
Y230250D01*
Y230232D01*
Y230121D01*
X146224Y229954D01*
X146261Y229751D01*
X146335Y229510D01*
X146446Y229269D01*
X146594Y229010D01*
X146798Y228769D01*
X146816Y228751D01*
X146909Y228677D01*
X147039Y228584D01*
X147205Y228473D01*
X147428Y228343D01*
X147687Y228251D01*
X147983Y228177D01*
X148298Y228158D01*
X150464D01*
X150557Y228195D01*
X150649Y228232D01*
X150760Y228288D01*
X150835Y228380D01*
X150909Y228510D01*
X150927Y228695D01*
Y228714D01*
Y228769D01*
X150890Y228862D01*
X150853Y228954D01*
X150798Y229047D01*
X150705Y229139D01*
X150575Y229195D01*
X150390Y229214D01*
X148224D01*
X148150Y229232D01*
X148039Y229251D01*
X147927Y229288D01*
X147798Y229343D01*
X147687Y229417D01*
X147557Y229528D01*
X147539Y229547D01*
X147502Y229584D01*
X147465Y229658D01*
X147390Y229732D01*
X147335Y229843D01*
X147298Y229973D01*
X147261Y230121D01*
X147242Y230269D01*
Y231325D01*
X149464D01*
X149557Y231343D01*
X149779Y231380D01*
X150038Y231454D01*
X150335Y231584D01*
X150631Y231769D01*
X150779Y231880D01*
X150927Y232028D01*
X151057Y232176D01*
X151168Y232361D01*
X151186Y232380D01*
X151205Y232454D01*
X151260Y232547D01*
X151298Y232676D01*
X151353Y232824D01*
X151409Y233009D01*
X151427Y233213D01*
X151446Y233417D01*
Y236583D01*
Y236602D01*
Y236620D01*
X151427Y236731D01*
X151409Y236898D01*
X151371Y237102D01*
X151298Y237342D01*
X151186Y237583D01*
X151057Y237842D01*
X150853Y238083D01*
X150816Y238102D01*
X150742Y238176D01*
X150612Y238268D01*
X150427Y238398D01*
X150224Y238509D01*
X149964Y238601D01*
X149668Y238676D01*
X149353Y238694D01*
D02*
G37*
G36*
X185664Y241842D02*
X185609D01*
X185535Y241823D01*
X185461Y241805D01*
X185387Y241749D01*
X185294Y241694D01*
X185220Y241601D01*
X185164Y241490D01*
X182516Y233509D01*
X179850Y241490D01*
Y241509D01*
X179832Y241546D01*
X179739Y241675D01*
X179665Y241731D01*
X179591Y241786D01*
X179480Y241823D01*
X179350Y241842D01*
X179276D01*
X179184Y241823D01*
X179091Y241768D01*
X178998Y241712D01*
X178906Y241620D01*
X178850Y241490D01*
X178832Y241305D01*
Y241286D01*
Y241249D01*
X178850Y241157D01*
X181998Y231713D01*
Y231695D01*
X182017Y231658D01*
X182109Y231528D01*
X182183Y231454D01*
X182276Y231380D01*
X182387Y231343D01*
X182516Y231325D01*
X182572D01*
X182646Y231343D01*
X182720Y231380D01*
X182813Y231417D01*
X182887Y231491D01*
X182961Y231584D01*
X183035Y231713D01*
X186164Y241157D01*
Y241175D01*
Y241194D01*
X186183Y241305D01*
Y241323D01*
Y241397D01*
X186146Y241472D01*
X186109Y241583D01*
X186053Y241675D01*
X185961Y241768D01*
X185831Y241823D01*
X185664Y241842D01*
D02*
G37*
%LPD*%
G36*
X174314Y237620D02*
X174462Y237583D01*
X174647Y237528D01*
X174832Y237435D01*
X175017Y237324D01*
X175202Y237176D01*
X175221Y237157D01*
X175277Y237102D01*
X175350Y236991D01*
X175425Y236861D01*
X175499Y236694D01*
X175573Y236509D01*
X175628Y236287D01*
X175647Y236046D01*
Y233954D01*
Y233917D01*
Y233843D01*
X175628Y233713D01*
X175591Y233565D01*
X175536Y233380D01*
X175462Y233195D01*
X175350Y233009D01*
X175202Y232824D01*
X175184Y232806D01*
X175110Y232750D01*
X175017Y232676D01*
X174888Y232602D01*
X174721Y232528D01*
X174536Y232454D01*
X174314Y232398D01*
X174073Y232380D01*
X173962D01*
X173851Y232398D01*
X173684Y232435D01*
X173517Y232491D01*
X173332Y232565D01*
X173147Y232676D01*
X172962Y232824D01*
X172943Y232843D01*
X172888Y232917D01*
X172814Y233009D01*
X172721Y233139D01*
X172647Y233306D01*
X172573Y233491D01*
X172518Y233713D01*
X172499Y233954D01*
Y236046D01*
Y236083D01*
Y236157D01*
X172518Y236287D01*
X172554Y236435D01*
X172610Y236620D01*
X172703Y236805D01*
X172814Y236991D01*
X172962Y237176D01*
X172980Y237194D01*
X173036Y237250D01*
X173147Y237324D01*
X173277Y237416D01*
X173443Y237491D01*
X173629Y237565D01*
X173832Y237620D01*
X174073Y237639D01*
X174184D01*
X174314Y237620D01*
D02*
G37*
G36*
X156871Y234472D02*
X156982Y234454D01*
X157112Y234417D01*
X157223Y234361D01*
X157352Y234287D01*
X157482Y234176D01*
X157500Y234158D01*
X157519Y234121D01*
X157575Y234046D01*
X157630Y233972D01*
X157686Y233861D01*
X157723Y233732D01*
X157760Y233584D01*
X157778Y233435D01*
Y233417D01*
Y233361D01*
X157760Y233287D01*
X157741Y233176D01*
X157704Y233046D01*
X157649Y232935D01*
X157575Y232806D01*
X157464Y232676D01*
X157445Y232658D01*
X157408Y232639D01*
X157334Y232584D01*
X157260Y232528D01*
X157149Y232472D01*
X157019Y232435D01*
X156871Y232398D01*
X156723Y232380D01*
X154612D01*
Y234491D01*
X156797D01*
X156871Y234472D01*
D02*
G37*
G36*
X141687Y237620D02*
X141835Y237583D01*
X142021Y237528D01*
X142206Y237435D01*
X142391Y237324D01*
X142576Y237176D01*
X142595Y237157D01*
X142650Y237102D01*
X142724Y236991D01*
X142798Y236861D01*
X142872Y236694D01*
X142947Y236509D01*
X143002Y236305D01*
X143020Y236065D01*
Y235546D01*
X139873D01*
Y236065D01*
Y236102D01*
Y236176D01*
X139891Y236287D01*
X139928Y236454D01*
X139984Y236620D01*
X140076Y236805D01*
X140188Y236991D01*
X140336Y237176D01*
X140354Y237194D01*
X140410Y237250D01*
X140521Y237324D01*
X140650Y237416D01*
X140817Y237491D01*
X141002Y237565D01*
X141206Y237620D01*
X141447Y237639D01*
X141558D01*
X141687Y237620D01*
D02*
G37*
G36*
X149501D02*
X149613Y237602D01*
X149742Y237565D01*
X149853Y237509D01*
X149983Y237435D01*
X150112Y237324D01*
X150131Y237305D01*
X150149Y237268D01*
X150205Y237194D01*
X150260Y237120D01*
X150316Y237009D01*
X150353Y236880D01*
X150390Y236731D01*
X150409Y236583D01*
Y233417D01*
Y233398D01*
Y233343D01*
X150390Y233269D01*
X150372Y233158D01*
X150335Y233046D01*
X150279Y232917D01*
X150205Y232806D01*
X150094Y232676D01*
X150075Y232658D01*
X150038Y232639D01*
X149964Y232584D01*
X149890Y232528D01*
X149779Y232472D01*
X149649Y232435D01*
X149501Y232398D01*
X149353Y232380D01*
X147242D01*
Y237639D01*
X149427D01*
X149501Y237620D01*
D02*
G37*
%LPC*%
G36*
X300520Y219462D02*
X298427D01*
X298112Y219443D01*
X297816Y219369D01*
X297557Y219277D01*
X297335Y219166D01*
X297168Y219036D01*
X297038Y218944D01*
X296946Y218869D01*
X296927Y218851D01*
X296724Y218610D01*
X296576Y218351D01*
X296464Y218110D01*
X296390Y217869D01*
X296353Y217666D01*
X296316Y217499D01*
Y217388D01*
Y217370D01*
Y217351D01*
X296335Y217036D01*
X296409Y216740D01*
X296501Y216481D01*
X296612Y216277D01*
X296742Y216092D01*
X296835Y215962D01*
X296909Y215888D01*
X296927Y215851D01*
X297168Y215648D01*
X297427Y215518D01*
X297668Y215407D01*
X297909Y215333D01*
X298112Y215296D01*
X298279Y215277D01*
X298390Y215259D01*
X300520D01*
Y219462D01*
D02*
G37*
G36*
X360519D02*
X358427D01*
X358112Y219443D01*
X357816Y219369D01*
X357557Y219277D01*
X357335Y219166D01*
X357168Y219036D01*
X357038Y218944D01*
X356946Y218869D01*
X356927Y218851D01*
X356724Y218610D01*
X356576Y218351D01*
X356464Y218110D01*
X356390Y217869D01*
X356353Y217666D01*
X356316Y217499D01*
Y217388D01*
Y217370D01*
Y217351D01*
X356335Y217036D01*
X356409Y216740D01*
X356501Y216481D01*
X356613Y216277D01*
X356742Y216092D01*
X356835Y215962D01*
X356909Y215888D01*
X356927Y215851D01*
X357168Y215648D01*
X357427Y215518D01*
X357668Y215407D01*
X357909Y215333D01*
X358112Y215296D01*
X358279Y215277D01*
X358390Y215259D01*
X360519D01*
Y219462D01*
D02*
G37*
G36*
Y139462D02*
X358427D01*
X358112Y139444D01*
X357816Y139369D01*
X357557Y139277D01*
X357335Y139166D01*
X357168Y139036D01*
X357038Y138944D01*
X356946Y138869D01*
X356927Y138851D01*
X356724Y138610D01*
X356576Y138351D01*
X356464Y138110D01*
X356390Y137870D01*
X356353Y137666D01*
X356316Y137499D01*
Y137388D01*
Y137370D01*
Y137351D01*
X356335Y137036D01*
X356409Y136740D01*
X356501Y136481D01*
X356613Y136277D01*
X356742Y136092D01*
X356835Y135962D01*
X356909Y135888D01*
X356927Y135851D01*
X357168Y135648D01*
X357427Y135518D01*
X357668Y135407D01*
X357909Y135333D01*
X358112Y135296D01*
X358279Y135277D01*
X358390Y135259D01*
X360519D01*
Y139462D01*
D02*
G37*
G36*
X352094Y115259D02*
X350521D01*
X350280Y115240D01*
X350076Y115185D01*
X349891Y115111D01*
X349724Y115036D01*
X349595Y114944D01*
X349484Y114870D01*
X349428Y114814D01*
X349410Y114796D01*
X349261Y114611D01*
X349150Y114425D01*
X349058Y114240D01*
X349002Y114055D01*
X348965Y113907D01*
X348947Y113777D01*
Y113703D01*
Y113666D01*
Y112629D01*
X348965Y112389D01*
X349021Y112166D01*
X349095Y111981D01*
X349169Y111815D01*
X349261Y111685D01*
X349336Y111592D01*
X349391Y111518D01*
X349410Y111500D01*
X349595Y111352D01*
X349780Y111241D01*
X349965Y111166D01*
X350132Y111111D01*
X350298Y111074D01*
X350410Y111055D01*
X350521D01*
X350761Y111074D01*
X350984Y111130D01*
X351169Y111204D01*
X351335Y111278D01*
X351465Y111352D01*
X351558Y111426D01*
X351632Y111481D01*
X351650Y111500D01*
X351798Y111685D01*
X351909Y111870D01*
X351983Y112055D01*
X352039Y112240D01*
X352076Y112389D01*
X352094Y112518D01*
Y112592D01*
Y112629D01*
Y115259D01*
D02*
G37*
G36*
X360519Y119462D02*
X358427D01*
X358112Y119443D01*
X357816Y119369D01*
X357557Y119277D01*
X357335Y119166D01*
X357168Y119036D01*
X357038Y118944D01*
X356946Y118869D01*
X356927Y118851D01*
X356724Y118610D01*
X356576Y118351D01*
X356464Y118110D01*
X356390Y117870D01*
X356353Y117666D01*
X356316Y117499D01*
Y117388D01*
Y117370D01*
Y117351D01*
X356335Y117036D01*
X356409Y116740D01*
X356501Y116481D01*
X356613Y116277D01*
X356742Y116092D01*
X356835Y115962D01*
X356909Y115888D01*
X356927Y115851D01*
X357168Y115647D01*
X357427Y115518D01*
X357668Y115407D01*
X357909Y115333D01*
X358112Y115296D01*
X358279Y115277D01*
X358390Y115259D01*
X360519D01*
Y119462D01*
D02*
G37*
G36*
X308945Y195259D02*
X306852D01*
X306537Y195240D01*
X306241Y195166D01*
X305982Y195074D01*
X305760Y194962D01*
X305593Y194833D01*
X305463Y194740D01*
X305371Y194666D01*
X305352Y194648D01*
X305149Y194407D01*
X305000Y194148D01*
X304889Y193907D01*
X304815Y193666D01*
X304778Y193463D01*
X304741Y193296D01*
Y193185D01*
Y193166D01*
Y193148D01*
X304760Y192833D01*
X304834Y192537D01*
X304926Y192278D01*
X305038Y192074D01*
X305167Y191889D01*
X305260Y191759D01*
X305334Y191685D01*
X305352Y191648D01*
X305593Y191444D01*
X305852Y191315D01*
X306093Y191204D01*
X306334Y191129D01*
X306537Y191092D01*
X306704Y191074D01*
X306815Y191055D01*
X308945D01*
Y195259D01*
D02*
G37*
G36*
Y199462D02*
X306852D01*
X306611Y199443D01*
X306389Y199388D01*
X306204Y199314D01*
X306038Y199240D01*
X305908Y199147D01*
X305797Y199073D01*
X305741Y199018D01*
X305723Y198999D01*
X305574Y198814D01*
X305463Y198629D01*
X305371Y198444D01*
X305315Y198277D01*
X305278Y198110D01*
X305260Y197999D01*
Y197925D01*
Y197888D01*
X305278Y197647D01*
X305334Y197425D01*
X305408Y197240D01*
X305482Y197073D01*
X305574Y196944D01*
X305649Y196851D01*
X305704Y196777D01*
X305723Y196759D01*
X305908Y196610D01*
X306093Y196499D01*
X306278Y196425D01*
X306463Y196370D01*
X306611Y196333D01*
X306741Y196314D01*
X308945D01*
Y199462D01*
D02*
G37*
G36*
X360519Y159462D02*
X358427D01*
X358112Y159443D01*
X357816Y159369D01*
X357557Y159277D01*
X357335Y159166D01*
X357168Y159036D01*
X357038Y158944D01*
X356946Y158869D01*
X356927Y158851D01*
X356724Y158610D01*
X356576Y158351D01*
X356464Y158110D01*
X356390Y157870D01*
X356353Y157666D01*
X356316Y157499D01*
Y157388D01*
Y157370D01*
Y157351D01*
X356335Y157036D01*
X356409Y156740D01*
X356501Y156481D01*
X356613Y156277D01*
X356742Y156092D01*
X356835Y155962D01*
X356909Y155888D01*
X356927Y155851D01*
X357168Y155647D01*
X357427Y155518D01*
X357668Y155407D01*
X357909Y155333D01*
X358112Y155296D01*
X358279Y155277D01*
X358390Y155259D01*
X360519D01*
Y159462D01*
D02*
G37*
%LPD*%
D32*
X260000Y225000D02*
X380000D01*
X260000Y105000D02*
Y225000D01*
Y105000D02*
X380000D01*
Y225000D01*
X330000Y105000D02*
Y225000D01*
X260000Y205000D02*
X380000D01*
X260000Y185000D02*
X380000D01*
X260000Y165000D02*
X380000D01*
X260000Y145000D02*
X380000D01*
X260000Y125000D02*
X380000D01*
X330000Y245000D02*
X380000D01*
Y225000D02*
Y245000D01*
X260000D02*
X330000D01*
X260000Y225000D02*
Y245000D01*
X135000Y225000D02*
X250000D01*
X135000Y125000D02*
Y225000D01*
Y125000D02*
X250000D01*
Y225000D01*
X190000Y125000D02*
Y225000D01*
X135000Y205000D02*
X250000D01*
X135000Y185000D02*
X250000D01*
X135000Y165000D02*
X250000D01*
X135000Y145000D02*
X250000D01*
Y225000D02*
Y245000D01*
X190000D02*
X250000D01*
X190000Y225000D02*
Y245000D01*
X135000D02*
X190000D01*
X135000Y225000D02*
Y245000D01*
X330000Y225000D02*
Y245000D01*
Y225000D02*
Y245000D01*
M02*
